<?xml version="1.0" encoding="iso-8859-1"?>
<!-- Generator: Adobe Illustrator 19.0.0, SVG Export Plug-In . SVG Version: 6.00 Build 0)  -->
<svg version="1.1" id="Capa_1" xmlns="http://www.w3.org/2000/svg" xmlns:xlink="http://www.w3.org/1999/xlink" x="0px" y="0px"
	 viewBox="0 0 512.262 512.262" style="enable-background:new 0 0 512.262 512.262;" xml:space="preserve">
<path style="fill:#F05540;" d="M485.465,382.999c0-4.267,1.067-8.533,1.067-13.867c0-156.8-103.467-260.267-230.4-260.267
	s-230.4,103.467-230.4,260.267c0,4.267,0,8.533,1.067,13.867L485.465,382.999L485.465,382.999z"/>
<path style="fill:#E53D35;" d="M347.865,129.132c-27.733-12.8-59.733-20.267-91.733-20.267c-33.067,0-64,6.4-91.733,20.267
	l-3.2,149.333h189.867L347.865,129.132z"/>
<g>
	<path style="fill:#F3705A;" d="M160.131,275.266l29.867-176c1.067-7.467,7.467-12.8,14.933-12.8h102.4
		c7.467,0,13.867,5.333,14.933,12.8l29.867,176c1.067,7.467-3.2,14.933-10.667,17.067c-26.667,8.533-55.467,12.8-85.333,12.8
		c-29.867,0-58.667-4.267-85.333-13.867C163.331,291.266,159.065,282.732,160.131,275.266z"/>
	<path style="fill:#F3705A;" d="M486.531,425.666c-2.133,0-5.333,0-7.467-1.067c-146.133-44.8-299.733-44.8-445.867,0
		c-13.867,4.267-27.733-3.2-32-17.067s3.2-27.733,17.067-32c155.733-48,320-48,475.733,0c13.867,4.267,21.333,18.133,17.067,32
		C507.865,418.199,497.198,425.666,486.531,425.666z"/>
</g>
<path style="fill:#FFFFFF;" d="M307.331,196.332c0,7.467-6.4,13.867-13.867,13.867h-24.533v24.533c0,7.467-6.4,13.867-13.867,13.867
	c-7.467,0-13.867-6.4-13.867-13.867v-24.533h-24.533c-7.467,0-13.867-6.4-13.867-13.867c0-7.467,6.4-13.867,13.867-13.867h24.533
	v-24.533c0-7.467,6.4-13.867,13.867-13.867c7.467,0,13.867,6.4,13.867,13.867v24.533h24.533
	C301.998,183.532,307.331,188.866,307.331,196.332z"/>
<g>
</g>
<g>
</g>
<g>
</g>
<g>
</g>
<g>
</g>
<g>
</g>
<g>
</g>
<g>
</g>
<g>
</g>
<g>
</g>
<g>
</g>
<g>
</g>
<g>
</g>
<g>
</g>
<g>
</g>
</svg>
