<?xml version="1.0" encoding="iso-8859-1"?>
<!-- Generator: Adobe Illustrator 19.0.0, SVG Export Plug-In . SVG Version: 6.00 Build 0)  -->
<svg version="1.1" id="Capa_1" xmlns="http://www.w3.org/2000/svg" xmlns:xlink="http://www.w3.org/1999/xlink" x="0px" y="0px"
	 viewBox="0 0 512 512" style="enable-background:new 0 0 512 512;" xml:space="preserve">
<rect x="70.4" y="379.495" style="fill:#F7B64C;" width="61.867" height="94.933"/>
<g>
	<path style="fill:#FFD15C;" d="M140.8,361.362c0,0-7.467,53.333-40.533,53.333S64,372.028,64,367.762
		c0-4.267-5.333-33.067,3.2-53.333s43.733-23.467,58.667-14.933c14.933,7.467,18.133,9.6,19.2,19.2
		C146.133,328.295,144,354.962,140.8,361.362z"/>
	<path style="fill:#FFD15C;" d="M152.533,357.095c-1.067,8.533-5.333,14.933-9.6,14.933s-6.4-6.4-5.333-14.933
		c1.067-8.533,5.333-14.933,9.6-14.933S153.6,349.628,152.533,357.095z"/>
	<path style="fill:#FFD15C;" d="M50.133,357.095c1.067,8.533,5.333,14.933,9.6,14.933s6.4-6.4,5.333-14.933
		c-1.067-8.533-5.333-14.933-9.6-14.933S49.067,349.628,50.133,357.095z"/>
</g>
<path style="fill:#415A6B;" d="M147.2,348.562c-5.333,8.533-6.4,12.8-6.4,12.8s2.133-22.4-3.2-30.933
	c-3.2-4.267-2.133-8.533-2.133-12.8c0-5.333-4.267-8.533-9.6-7.467c-14.933,3.2-29.867,3.2-44.8,0c-5.333-1.067-9.6,3.2-9.6,7.467
	c0,4.267-2.133,8.533-5.333,12.8c-4.267,6.4-4.267,22.4-4.267,28.8c-1.067-3.2-3.2-5.333-5.333-8.533
	c-5.333-5.333-7.467-12.8-6.4-20.267l0,0c1.067-7.467,5.333-27.733,12.8-35.2c7.467-7.467,26.667-22.4,50.133-16
	s36.267,35.2,38.4,43.733C153.6,332.562,152.533,340.028,147.2,348.562z"/>
<polygon style="fill:#E8EAE9;" points="147.2,511.762 147.2,431.762 72.533,431.762 66.133,511.762 "/>
<g>
	<polygon style="fill:#415A6B;" points="109.867,457.362 118.4,448.828 101.333,431.762 83.2,448.828 91.733,457.362 	"/>
	<polygon style="fill:#415A6B;" points="118.4,511.762 109.867,457.362 91.733,457.362 83.2,511.762 	"/>
</g>
<g>
	<path style="fill:#F05540;" d="M117.333,511.762H201.6v-61.867c0-12.8-8.533-24.533-21.333-27.733l-38.4-10.667l1.067,9.6
		C142.933,421.095,129.067,465.895,117.333,511.762z"/>
	<path style="fill:#F05540;" d="M84.267,511.762c-11.733-45.867-25.6-90.667-25.6-90.667l1.067-9.6l-38.4,10.667
		C8.533,425.362,0,437.095,0,449.895v61.867H84.267z"/>
</g>
<path style="fill:#FFFFFF;" d="M133.333,398.695l-1.067-3.2c0,0,0,11.733-5.333,16c-5.333,4.267-25.6,20.267-25.6,20.267l19.2,32
	l21.333-43.733L133.333,398.695"/>
<path style="fill:#F3705A;" d="M130.133,511.762C144,481.895,160,444.562,160,444.562l-12.8-9.6H160l-26.667-36.267
	c-2.133,24.533-11.733,67.2-22.4,113.067H130.133z"/>
<path style="fill:#FFFFFF;" d="M68.267,398.695l1.067-1.067c0,0,0,8.533,5.333,13.867c5.333,5.333,25.6,20.267,25.6,20.267l-19.2,32
	l-20.267-44.8C61.867,418.962,61.867,405.095,68.267,398.695"/>
<path style="fill:#F3705A;" d="M71.467,511.762H89.6c-10.667-46.933-20.267-88.533-21.333-113.067L41.6,434.962h12.8l-12.8,9.6
	C41.6,444.562,58.667,481.895,71.467,511.762z"/>
<rect x="379.733" y="379.495" style="fill:#F7B64C;" width="61.867" height="94.933"/>
<g>
	<path style="fill:#FFD15C;" d="M451.2,361.362c0,0-7.467,53.333-40.533,53.333s-37.333-42.667-37.333-46.933
		c0-4.267-5.333-33.067,3.2-53.333s43.733-23.467,58.667-14.933c14.933,7.467,18.133,9.6,19.2,19.2
		C455.467,329.362,454.4,354.962,451.2,361.362z"/>
	<path style="fill:#FFD15C;" d="M462.933,357.095c-1.067,8.533-5.333,14.933-9.6,14.933s-6.4-6.4-5.333-14.933
		c1.067-8.533,5.333-14.933,9.6-14.933C461.867,342.162,464,349.628,462.933,357.095z"/>
	<path style="fill:#FFD15C;" d="M360.533,357.095c1.067,8.533,5.333,14.933,9.6,14.933c4.267,0,6.4-6.4,5.333-14.933
		c-1.067-8.533-5.333-14.933-9.6-14.933S359.467,349.628,360.533,357.095z"/>
</g>
<path style="fill:#415A6B;" d="M457.6,348.562c-5.333,8.533-6.4,12.8-6.4,12.8s2.133-22.4-3.2-30.933
	c-3.2-4.267-2.133-8.533-2.133-12.8c0-5.333-4.267-8.533-9.6-7.467c-14.933,3.2-29.867,3.2-44.8,0c-5.333-1.067-9.6,3.2-9.6,7.467
	c0,4.267-2.133,8.533-5.333,12.8c-4.267,6.4-4.267,22.4-4.267,28.8c-1.067-3.2-3.2-5.333-5.333-8.533
	c-5.333-5.333-7.467-12.8-6.4-20.267l0,0c1.067-7.467,5.333-27.733,12.8-35.2c7.467-7.467,26.667-22.4,50.133-16
	s36.267,35.2,38.4,43.733C464,332.562,462.933,340.028,457.6,348.562z"/>
<polygon style="fill:#E8EAE9;" points="457.6,511.762 457.6,431.762 382.933,431.762 376.533,511.762 "/>
<g>
	<polygon style="fill:#415A6B;" points="420.267,457.362 428.8,448.828 410.667,431.762 393.6,448.828 402.133,457.362 	"/>
	<polygon style="fill:#415A6B;" points="428.8,511.762 420.267,457.362 402.133,457.362 393.6,511.762 	"/>
</g>
<g>
	<path style="fill:#4ABAA5;" d="M427.733,511.762H512v-61.867c0-12.8-8.533-24.533-21.333-27.733l-38.4-10.667l1.067,9.6
		C453.333,421.095,439.467,465.895,427.733,511.762z"/>
	<path style="fill:#4ABAA5;" d="M394.667,511.762c-11.733-45.867-25.6-90.667-25.6-90.667l1.067-9.6l-38.4,10.667
		c-12.8,3.2-21.333,14.933-21.333,27.733v61.867H394.667z"/>
</g>
<path style="fill:#FFFFFF;" d="M443.733,398.695l-1.067-3.2c0,0,0,11.733-5.333,16s-25.6,20.267-25.6,20.267l19.2,32l21.333-43.733
	L443.733,398.695"/>
<path style="fill:#66C6B9;" d="M440.533,511.762c13.867-29.867,29.867-67.2,29.867-67.2l-12.8-9.6h12.8l-26.667-36.267
	c-2.133,24.533-11.733,67.2-22.4,113.067H440.533z"/>
<path style="fill:#FFFFFF;" d="M378.667,398.695l1.067-1.067c0,0,0,8.533,5.333,13.867c5.333,4.267,25.6,20.267,25.6,20.267
	l-19.2,32l-20.267-44.8C372.267,418.962,372.267,405.095,378.667,398.695"/>
<path style="fill:#66C6B9;" d="M381.867,511.762H400c-10.667-46.933-20.267-88.533-21.333-113.067L352,434.962h12.8l-12.8,9.6
	C352,444.562,368,481.895,381.867,511.762z"/>
<polygon style="fill:#FFD15C;" points="291.2,148.028 298.667,208.828 219.733,208.828 219.733,149.095 "/>
<polygon style="fill:#CED6E0;" points="296.533,254.695 292.267,173.628 291.2,173.628 256,175.762 220.8,173.628 219.733,173.628 
	215.467,254.695 "/>
<g>
	<path style="fill:#344A5E;" d="M235.733,254.695l-25.6-93.867l-23.467,1.067c-16,1.067-28.8,12.8-33.067,27.733l-14.933,64h97.067
		V254.695z"/>
	<path style="fill:#344A5E;" d="M372.267,254.695l-14.933-64c-3.2-14.933-17.067-26.667-33.067-27.733l-23.467-1.067l-25.6,93.867
		h97.067V254.695z"/>
</g>
<g>
	<polygon style="fill:#F3705A;" points="265.6,205.628 276.267,194.962 256,175.762 235.733,194.962 246.4,205.628 	"/>
	<polygon style="fill:#F3705A;" points="276.267,254.695 265.6,205.628 246.4,205.628 235.733,254.695 	"/>
</g>
<g>
	<path style="fill:#FFD15C;" d="M224,167.228v-48c-4.267-8.533-6.4-30.933-6.4-30.933V32.828l41.6-20.267l34.133,20.267l9.6,24.533
		l-7.467,43.733c0,0-2.133,16-7.467,24.533v45.867L224,167.228z"/>
	
		<ellipse transform="matrix(0.24 0.9708 -0.9708 0.24 244.3521 -142.5312)" style="fill:#FFD15C;" cx="213.205" cy="84.793" rx="17.067" ry="7.467"/>
	
		<ellipse transform="matrix(0.24 -0.9708 0.9708 0.24 142.9852 358.9859)" style="fill:#FFD15C;" cx="300.763" cy="88.174" rx="17.067" ry="7.467"/>
</g>
<path style="fill:#415A6B;" d="M299.733,85.095c-1.067,2.133-2.133,7.467-3.2,10.667h-1.067c1.067-2.133,1.067-7.467,1.067-10.667
	c0-4.267,1.067-12.8-2.133-17.067c-2.133-4.267,1.067-11.733,0-14.933c-1.067-3.2,2.133-8.533-13.867-14.933
	s-25.6-10.667-37.333-9.6s-21.333,14.933-17.067,25.6c0,0,1.067,4.267-1.067,7.467c-2.133,3.2-3.2,8.533-4.267,12.8
	c0,4.267,0,16,0,20.267h-2.133c-1.067-2.133-1.067-12.8-5.333-21.333c-3.2-7.467-4.267-16-5.333-23.467
	c-3.2-22.4,26.667-54.4,54.4-49.067s39.467,23.467,41.6,33.067c2.133,9.6,1.067,27.733,0,34.133
	C304,74.428,300.8,80.828,299.733,85.095z"/>
<path style="fill:#F7B64C;" d="M260.267,146.962c17.067,0,27.733-21.333,27.733-21.333v44.8c-4.267-2.133-13.867-4.267-21.333-6.4
	c-35.2-13.867-42.667-44.8-42.667-44.8S237.867,146.962,260.267,146.962z"/>
<g>
	<path style="fill:#F3F3F3;" d="M286.933,139.495c0,0-1.067,9.6-7.467,18.133c-6.4,8.533-23.467,18.133-23.467,18.133l22.4,22.4
		l12.8-22.4C291.2,175.762,294.4,144.828,286.933,139.495z"/>
	<path style="fill:#F3F3F3;" d="M224,139.495c0,0,1.067,9.6,7.467,18.133c6.4,8.533,23.467,18.133,23.467,18.133l-22.4,22.4
		l-12.8-22.4C220.8,175.762,217.6,144.828,224,139.495z"/>
</g>
<g>
	<path style="fill:#415A6B;" d="M243.2,254.695c-6.4-42.667-18.133-115.2-18.133-115.2l-21.333,25.6l23.467,89.6H243.2z"/>
	<path style="fill:#415A6B;" d="M286.933,254.695l25.6-89.6c0,0-18.133-21.333-24.533-25.6l-18.133,115.2L286.933,254.695
		L286.933,254.695z"/>
</g>
<path style="fill:#66C6B9;" d="M119.467,126.695l-5.333-19.2c-40.533,10.667-67.2,45.867-69.333,85.333
	c-5.333-7.467-8.533-16-11.733-25.6C21.333,117.095,51.2,66.962,100.267,53.095L96,34.962l60.8,33.067L119.467,126.695z"/>
<path style="fill:#F3705A;" d="M405.333,138.428l19.2,2.133c4.267-41.6-19.2-78.933-55.467-94.933
	c9.6-2.133,18.133-2.133,28.8-1.067c51.2,5.333,88.533,50.133,83.2,101.333l19.2,2.133L448,193.895L405.333,138.428z"/>
<path style="fill:#415A6B;" d="M245.333,315.495l-12.8,14.933c32,26.667,75.733,28.8,109.867,8.533
	c-3.2,8.533-8.533,17.067-14.933,24.533c-33.067,39.467-91.733,43.733-131.2,9.6l-12.8,14.933L176,318.695L245.333,315.495z"/>
<g>
</g>
<g>
</g>
<g>
</g>
<g>
</g>
<g>
</g>
<g>
</g>
<g>
</g>
<g>
</g>
<g>
</g>
<g>
</g>
<g>
</g>
<g>
</g>
<g>
</g>
<g>
</g>
<g>
</g>
</svg>
