<?xml version="1.0" encoding="iso-8859-1"?>
<!-- Generator: Adobe Illustrator 19.0.0, SVG Export Plug-In . SVG Version: 6.00 Build 0)  -->
<svg version="1.1" id="Capa_1" xmlns="http://www.w3.org/2000/svg" xmlns:xlink="http://www.w3.org/1999/xlink" x="0px" y="0px"
	 viewBox="0 0 512 512" style="enable-background:new 0 0 512 512;" xml:space="preserve">
<path style="fill:#ADB3BA;" d="M267.2,432v-60.8h-21.333V432C228.8,436.267,216,452.267,216,471.467
	c0,22.4,18.133,40.533,40.533,40.533s40.533-18.133,40.533-40.533C297.067,452.267,284.267,436.267,267.2,432z M256.533,490.667
	c-10.667,0-19.2-8.533-19.2-19.2c0-10.667,8.533-19.2,19.2-19.2c10.667,0,19.2,8.533,19.2,19.2
	C275.733,482.133,267.2,490.667,256.533,490.667z"/>
<path style="fill:#E8EAE9;" d="M478.4,45.867V345.6c0,20.267-17.067,37.333-37.333,37.333h-368
	c-20.267,0-37.333-17.067-37.333-37.333V45.867H478.4z"/>
<path style="fill:#66C6B9;" d="M484.8,0H28.267C13.333,0,0.533,12.8,0.533,27.733s12.8,27.733,27.733,27.733h455.467
	c16,0,27.733-12.8,27.733-27.733S499.733,0,484.8,0z"/>
<g>
	<path style="fill:#F3705A;" d="M256.533,346.667c-72.533,0-132.267-59.733-132.267-132.267S184,82.133,256.533,82.133
		S388.8,141.867,388.8,214.4S329.067,346.667,256.533,346.667z M256.533,105.6C196.8,105.6,148.8,154.667,148.8,213.333
		c0,59.733,49.067,107.733,107.733,107.733c59.733,0,107.733-49.067,107.733-107.733S316.267,105.6,256.533,105.6z"/>
	<path style="fill:#F3705A;" d="M256.533,299.733c-46.933,0-85.333-38.4-85.333-85.333s38.4-85.333,85.333-85.333
		s85.333,38.4,85.333,85.333S303.467,299.733,256.533,299.733z M256.533,152.533c-34.133,0-61.867,27.733-61.867,61.867
		s27.733,61.867,61.867,61.867S318.4,248.533,318.4,214.4S290.667,152.533,256.533,152.533z"/>
	<path style="fill:#F3705A;" d="M256.533,252.8c-21.333,0-38.4-17.067-38.4-38.4s17.067-38.4,38.4-38.4s38.4,17.067,38.4,38.4
		S277.867,252.8,256.533,252.8z M256.533,199.467c-8.533,0-14.933,6.4-14.933,14.933s6.4,14.933,14.933,14.933
		s14.933-6.4,14.933-14.933C271.467,205.867,265.067,199.467,256.533,199.467z"/>
</g>
<g>
</g>
<g>
</g>
<g>
</g>
<g>
</g>
<g>
</g>
<g>
</g>
<g>
</g>
<g>
</g>
<g>
</g>
<g>
</g>
<g>
</g>
<g>
</g>
<g>
</g>
<g>
</g>
<g>
</g>
</svg>
