<?xml version="1.0" encoding="iso-8859-1"?>
<!-- Generator: Adobe Illustrator 19.0.0, SVG Export Plug-In . SVG Version: 6.00 Build 0)  -->
<svg version="1.1" id="Capa_1" xmlns="http://www.w3.org/2000/svg" xmlns:xlink="http://www.w3.org/1999/xlink" x="0px" y="0px"
	 viewBox="0 0 512 512" style="enable-background:new 0 0 512 512;" xml:space="preserve">
<path style="fill:#66C6B9;" d="M375.467,75.733V492.8c0,10.667-8.533,19.2-19.2,19.2H19.2C8.533,512,0,503.467,0,492.8V75.733
	c0-10.667,8.533-19.2,19.2-19.2h336C366.933,55.467,375.467,65.067,375.467,75.733z"/>
<rect x="42.667" y="98.133" style="fill:#FFFFFF;" width="290.133" height="371.2"/>
<path style="fill:#F3705A;" d="M261.333,39.467H227.2l0,0C227.2,18.133,209.067,0,187.733,0s-39.467,18.133-39.467,39.467l0,0
	h-34.133c-10.667,0-19.2,8.533-19.2,19.2v60.8h184.533v-60.8C279.467,48,272,39.467,261.333,39.467z M187.733,53.333
	c-7.467,0-13.867-6.4-13.867-14.933c0-7.467,6.4-13.867,13.867-13.867c7.467,0,14.933,6.4,14.933,13.867
	C201.6,46.933,195.2,53.333,187.733,53.333z"/>
<g>
	<rect x="75.733" y="401.067" style="fill:#CED6E0;" width="224" height="29.867"/>
	<rect x="75.733" y="327.467" style="fill:#CED6E0;" width="224" height="29.867"/>
	<rect x="75.733" y="253.867" style="fill:#CED6E0;" width="224" height="29.867"/>
	<rect x="75.733" y="180.267" style="fill:#CED6E0;" width="224" height="29.867"/>
</g>
<path style="fill:#415A6B;" d="M512,402.133L501.333,377.6l-24.533,3.2c-3.2-3.2-5.333-6.4-8.533-8.533l3.2-24.533l-24.533-10.667
	l-16,20.267c-4.267,0-8.533,0-12.8,0l-16-19.2L377.6,348.8l3.2,24.533c-3.2,3.2-6.4,5.333-8.533,8.533l-24.533-3.2L337.067,403.2
	l20.267,16c0,4.267,0,8.533,0,12.8l-19.2,16l10.667,24.533l24.533-3.2c3.2,3.2,5.333,6.4,8.533,8.533l-4.267,23.467L402.133,512
	l16-20.267c4.267,0,8.533,0,12.8,0l16,19.2l24.533-10.667l-3.2-24.533c3.2-3.2,6.4-5.333,8.533-8.533l24.533,3.2l9.6-24.533
	l-20.267-16c0-4.267,0-8.533,0-12.8L512,402.133z M433.067,444.8c-11.733,5.333-24.533-1.067-29.867-11.733
	c-5.333-10.667,0-24.533,11.733-29.867s24.533,1.067,29.867,11.733C450.133,425.6,444.8,440.533,433.067,444.8z"/>
<path style="fill:#344A5E;" d="M440.533,462.933c21.333-9.6,32-34.133,22.4-55.467c-9.6-21.333-34.133-32-55.467-22.4
	c-21.333,9.6-32,34.133-22.4,55.467C393.6,462.933,419.2,472.533,440.533,462.933z M403.2,433.067
	c-5.333-11.733,0-24.533,11.733-29.867c11.733-5.333,24.533,1.067,29.867,11.733c5.333,11.733-1.067,24.533-11.733,29.867
	C421.333,450.133,408.533,443.733,403.2,433.067z"/>
<path style="fill:#FFD15C;" d="M384,323.2v-21.333l-19.2-5.333c-1.067-3.2-2.133-6.4-4.267-8.533l9.6-17.067L355.2,256l-17.067,9.6
	c-3.2-1.067-6.4-3.2-8.533-4.267l-5.333-19.2h-21.333l-5.333,19.2c-3.2,1.067-6.4,2.133-8.533,4.267L272,256l-14.933,14.933
	l9.6,17.067c-1.067,3.2-3.2,6.4-4.267,8.533l-19.2,5.333V323.2l19.2,5.333c1.067,3.2,2.133,6.4,4.267,8.533l-9.6,17.067L272,369.067
	l17.067-9.6c3.2,1.067,6.4,3.2,8.533,4.267l5.333,19.2h21.333l5.333-19.2c3.2-1.067,6.4-2.133,8.533-4.267l17.067,9.6l14.933-14.933
	l-9.6-17.067c1.067-3.2,3.2-6.4,4.267-8.533L384,323.2z M312.533,328.533c-8.533,0-16-7.467-16-16s7.467-16,16-16s16,7.467,16,16
	S321.067,328.533,312.533,328.533z"/>
<path style="fill:#F7B64C;" d="M312.533,278.4c-19.2,0-34.133,14.933-34.133,34.133c0,19.2,14.933,34.133,34.133,34.133
	s34.133-14.933,34.133-34.133C346.667,293.333,331.733,278.4,312.533,278.4z M312.533,328.533c-8.533,0-16-7.467-16-16
	s7.467-16,16-16s16,7.467,16,16S321.067,328.533,312.533,328.533z"/>
<g>
</g>
<g>
</g>
<g>
</g>
<g>
</g>
<g>
</g>
<g>
</g>
<g>
</g>
<g>
</g>
<g>
</g>
<g>
</g>
<g>
</g>
<g>
</g>
<g>
</g>
<g>
</g>
<g>
</g>
</svg>
