<?xml version="1.0" encoding="iso-8859-1"?>
<!-- Generator: Adobe Illustrator 19.0.0, SVG Export Plug-In . SVG Version: 6.00 Build 0)  -->
<svg version="1.1" id="Capa_1" xmlns="http://www.w3.org/2000/svg" xmlns:xlink="http://www.w3.org/1999/xlink" x="0px" y="0px"
	 viewBox="0 0 512 512" style="enable-background:new 0 0 512 512;" xml:space="preserve">
<path style="fill:#415A6B;" d="M326.261,119.467l8.533,2.133c0,0,2.133,17.067,1.067,37.333
	c-1.067,20.267-2.133,21.333-2.133,21.333L319.861,147.2L326.261,119.467z"/>
<g>
	
		<ellipse transform="matrix(0.1669 -0.986 0.986 0.1669 103.5379 463.7449)" style="fill:#FFD15C;" cx="326.189" cy="170.604" rx="30.934" ry="14.934"/>
	
		<ellipse transform="matrix(0.1669 0.986 -0.986 0.1669 326.277 -26.9059)" style="fill:#FFD15C;" cx="179.06" cy="179.621" rx="30.934" ry="14.934"/>
	<path style="fill:#FFD15C;" d="M200.395,265.6v-6.4c0,0-19.2-17.067-24.533-64c-5.333-46.933-6.4-90.667-6.4-90.667h150.4
		c0,0,8.533,88.533,0,118.4l2.133,23.467l19.2,69.333l-64,120.533l-86.4-24.533C190.795,410.667,190.795,289.067,200.395,265.6z"/>
</g>
<g>
	<path style="fill:#415A6B;" d="M263.328,107.733c0,0,37.333,11.733,44.8,28.8s7.467,50.133,7.467,50.133h4.267
		c0,0-1.067-34.133,9.6-41.6c10.667-7.467,4.267-38.4-8.533-54.4s-12.8-16-12.8-16L263.328,107.733z"/>
	<path style="fill:#415A6B;" d="M207.861,110.933c0,0-28.8,12.8-33.067,26.667s2.133,51.2,2.133,51.2h-3.2
		c0,0-2.133-19.2-7.467-28.8c0,0-11.733-38.4,8.533-66.133s35.2,17.067,35.2,17.067L207.861,110.933z"/>
</g>
<path style="fill:#F7B64C;" d="M280.395,293.333c34.133-38.4,39.467-71.467,39.467-71.467s-8.533,28.8-51.2,50.133
	s-68.267-14.933-68.267-14.933v6.4c-4.267,12.8-7.467,45.867-8.533,77.867C220.661,332.8,260.128,316.8,280.395,293.333z"/>
<path style="fill:#E8EAE9;" d="M299.595,333.867l9.6,138.667L192.928,480l-10.667-163.2c18.133,20.267,44.8,32,74.667,29.867
	C272.928,345.6,287.861,341.333,299.595,333.867z"/>
<path style="fill:#55C0EB;" d="M493.728,512c3.2-20.267,5.333-40.533,4.267-59.733c-5.333-68.267-13.867-80-35.2-102.4
	c-21.333-21.333-105.6-62.933-105.6-62.933l-26.667,9.6l-36.267,25.6l-12.8,16c0,0,2.133,16,0,22.4
	c-2.133,6.4-40.533,41.6-45.867,57.6c0,0,2.133-7.467,2.133-13.867s-18.133-33.067-23.467-50.133
	c-6.4-17.067-21.333-71.467-21.333-71.467s-27.733,25.6-43.733,32c-16,6.4-73.6,14.933-96,70.4c-16,36.267-32,90.667-39.467,126.933
	H493.728z"/>
<g>
	<path style="fill:#8AD7F8;" d="M321.995,245.333c0,0-1.067,36.267-40.533,91.733l23.467-18.133l54.4,30.933
		c0,0,3.2-53.333-3.2-67.2c-6.4-13.867-12.8-16-21.333-24.533C326.261,249.6,321.995,245.333,321.995,245.333z"/>
	<path style="fill:#8AD7F8;" d="M200.395,265.6c0,0,8.533,58.667,10.667,72.533c3.2,13.867,25.6,65.067,25.6,65.067
		s-10.667-21.333-17.067-28.8c-7.467-8.533-19.2-23.467-17.067-32s0-16-4.267-21.333c-4.267-5.333-11.733-10.667-11.733-10.667
		l-24.533,39.467c0,0,17.067-41.6,20.267-50.133C187.595,289.067,200.395,265.6,200.395,265.6z"/>
</g>
<path style="fill:#F05540;" d="M343.328,103.467C342.261,50.133,298.528,6.4,245.195,6.4s-98.133,43.733-98.133,97.067H343.328z"/>
<g>
	<path style="fill:#F3705A;" d="M342.261,125.867c-1.067,0-2.133,0-3.2,0c-61.867-14.933-126.933-14.933-189.867,0
		c-6.4,1.067-12.8-2.133-14.933-8.533c-1.067-6.4,2.133-12.8,8.533-14.933c66.133-16,135.467-16,200.533,0
		c6.4,1.067,10.667,8.533,8.533,14.933C352.928,122.667,347.595,125.867,342.261,125.867z"/>
	<path style="fill:#F3705A;" d="M278.261,10.667l-11.733,67.2c-1.067,3.2-3.2,5.333-6.4,5.333h-29.867c-3.2,0-6.4-2.133-6.4-5.333
		l-11.733-67.2c-1.067-3.2,1.067-6.4,4.267-7.467c9.6-2.133,19.2-3.2,28.8-3.2c9.6,0,19.2,1.067,27.733,4.267
		C276.128,4.267,278.261,7.467,278.261,10.667z"/>
</g>
<g>
</g>
<g>
</g>
<g>
</g>
<g>
</g>
<g>
</g>
<g>
</g>
<g>
</g>
<g>
</g>
<g>
</g>
<g>
</g>
<g>
</g>
<g>
</g>
<g>
</g>
<g>
</g>
<g>
</g>
</svg>
