<?xml version="1.0" encoding="iso-8859-1"?>
<!-- Generator: Adobe Illustrator 19.0.0, SVG Export Plug-In . SVG Version: 6.00 Build 0)  -->
<svg version="1.1" id="Capa_1" xmlns="http://www.w3.org/2000/svg" xmlns:xlink="http://www.w3.org/1999/xlink" x="0px" y="0px"
	 viewBox="0 0 512.204 512.204" style="enable-background:new 0 0 512.204 512.204;" xml:space="preserve">
<polygon style="fill:#344A5E;" points="448.204,228.562 434.338,222.162 470.604,146.429 411.938,89.895 422.604,78.162 
	489.804,143.229 "/>
<path style="fill:#FFD15C;" d="M490.871,236.029c-3.2-11.733-24.533-21.333-50.133-21.333c-25.6,0-45.867,9.6-50.133,21.333H490.871
	z"/>
<circle style="fill:#415A6B;" cx="480.204" cy="145.362" r="21.333"/>
<path style="fill:#4ABAA5;" d="M427.938,58.962c-8.533-8.533-22.4-8.533-30.933,0l-13.867,13.867l30.933,30.933l13.867-13.867
	C436.471,81.362,436.471,67.495,427.938,58.962z"/>
<path style="fill:#66C6B9;" d="M402.338,157.095l-72.533-72.533c20.267-20.267,53.333-20.267,72.533,0
	C422.604,104.829,422.604,136.829,402.338,157.095z"/>
<path style="fill:#FFD15C;" d="M351.138,105.895l29.867,29.867c-8.533,8.533-21.333,8.533-29.867,0
	C342.604,127.229,342.604,114.429,351.138,105.895z"/>
<polygon style="fill:#CED6E0;" points="451.404,367.229 263.671,367.229 269.004,352.295 447.138,352.295 "/>
<g>
	<path style="fill:#E8EAE9;" d="M313.804,253.095l-64,209.067c-1.067,3.2-3.2,4.267-6.4,4.267c-4.267,0-7.467-3.2-6.4-7.467
		l38.4-205.867L313.804,253.095L313.804,253.095z"/>
	<path style="fill:#E8EAE9;" d="M402.338,253.095l64,209.067c1.067,3.2,3.2,4.267,6.4,4.267c4.267,0,7.467-3.2,6.4-7.467
		l-38.4-205.867L402.338,253.095L402.338,253.095z"/>
</g>
<path style="fill:#F3705A;" d="M495.138,269.095h-275.2c-9.6,0-17.067-7.467-17.067-17.067l0,0c0-9.6,7.467-17.067,17.067-17.067
	h275.2c9.6,0,17.067,7.467,17.067,17.067l0,0C512.204,261.629,504.738,269.095,495.138,269.095z"/>
<g>
	<path style="fill:#CED6E0;" d="M100.471,314.962l-44.8,146.133c-1.067,4.267-5.333,6.4-9.6,5.333s-6.4-5.333-6.4-9.6
		l29.867-149.333L100.471,314.962z"/>
	<path style="fill:#CED6E0;" d="M148.471,314.962l44.8,146.133c1.067,4.267,5.333,6.4,9.6,5.333s6.4-5.333,6.4-9.6l-29.867-149.333
		L148.471,314.962z"/>
</g>
<path style="fill:#344A5E;" d="M54.604,301.095L21.538,53.629C52.471,54.695,117.538,186.962,54.604,301.095z"/>
<path style="fill:#E8EAE9;" d="M213.538,322.429H42.871c-3.2,0-6.4-1.067-8.533-3.2c-1.067-3.2-2.133-6.4-2.133-9.6
	c13.867-101.333-30.933-248.533-32-249.6c-1.067-6.4,2.133-11.733,7.467-13.867c5.333-2.133,11.733,1.067,13.867,7.467
	c1.067,5.333,42.667,141.867,33.067,247.467h158.933c6.4,0,10.667,4.267,10.667,10.667
	C224.204,318.162,219.938,322.429,213.538,322.429z"/>
<path style="fill:#344A5E;" d="M214.604,301.095h-160C58.871,259.495,218.871,259.495,214.604,301.095z"/>
<rect x="67.404" y="378.962" style="fill:#CED6E0;" width="110.933" height="19.2"/>
<g>
</g>
<g>
</g>
<g>
</g>
<g>
</g>
<g>
</g>
<g>
</g>
<g>
</g>
<g>
</g>
<g>
</g>
<g>
</g>
<g>
</g>
<g>
</g>
<g>
</g>
<g>
</g>
<g>
</g>
</svg>
