<?xml version="1.0" encoding="iso-8859-1"?>
<!-- Generator: Adobe Illustrator 19.0.0, SVG Export Plug-In . SVG Version: 6.00 Build 0)  -->
<svg version="1.1" id="Capa_1" xmlns="http://www.w3.org/2000/svg" xmlns:xlink="http://www.w3.org/1999/xlink" x="0px" y="0px"
	 viewBox="0 0 513.067 513.067" style="enable-background:new 0 0 513.067 513.067;" xml:space="preserve">
<polygon style="fill:#FFD15C;" points="211.733,280.533 177.6,343.467 257.6,380.8 351.467,380.8 301.333,280.533 301.333,229.333 
	211.733,229.333 "/>
<path style="fill:#E8EAE9;" d="M312,512V323.2c-10.667,21.333-32,36.267-56.533,36.267S209.6,344.533,198.933,323.2V512H312z"/>
<path style="fill:#415A6B;" d="M454.933,512c1.067-25.6-10.667-90.667-17.067-130.133C430.4,340.267,414.4,339.2,414.4,339.2
	h-27.733c-27.733,7.467-30.933,99.2-28.8,173.867h97.067V512z"/>
<path style="fill:#344A5E;" d="M385.6,512c-2.133-28.8-3.2-54.4-3.2-67.2c1.067-52.267,32-105.6,32-105.6
	c-13.867-16-81.067-35.2-81.067-35.2C312,344.533,293.867,424.533,276.8,513.067h108.8V512z"/>
<g>
	<path style="fill:#415A6B;" d="M266.133,512h14.933c6.4-24.533,13.867-51.2,20.267-66.133c12.8-35.2,50.133-104.533,50.133-104.533
		l-21.333-13.867l17.067,1.067c0,0-3.2-14.933-13.867-27.733C322.667,288,302.4,281.6,302.4,281.6s11.733,32-6.4,78.933
		C283.2,388.267,271.467,455.467,266.133,512z"/>
	<path style="fill:#415A6B;" d="M155.2,512c2.133-74.667-1.067-166.4-28.8-173.867H98.667c0,0-17.067,1.067-23.467,42.667
		C68.8,421.333,57.067,486.4,58.133,512H155.2z"/>
</g>
<path style="fill:#344A5E;" d="M127.467,512h108.8c-17.067-87.467-35.2-168.533-56.533-209.067c0,0-67.2,19.2-81.067,35.2
	c0,0,30.933,53.333,32,105.6C130.667,457.6,129.6,483.2,127.467,512z"/>
<path style="fill:#415A6B;" d="M211.733,445.867c5.333,14.933,12.8,41.6,20.267,66.133h14.933
	c-5.333-56.533-17.067-123.733-28.8-152.533c-18.133-46.933-6.4-78.933-6.4-78.933s-20.267,5.333-30.933,19.2
	c-10.667,12.8-13.867,27.733-13.867,27.733L184,326.4l-21.333,13.867C161.6,341.333,198.933,410.667,211.733,445.867z"/>
<path style="fill:#F3705A;" d="M355.733,293.333l30.933-30.933L366.4,227.2c5.333-9.6,9.6-19.2,12.8-29.867l39.467-11.733v-44.8
	L379.2,130.133c-3.2-10.667-7.467-20.267-12.8-29.867L385.6,64l-29.867-32l-35.2,20.267c-10.667-6.4-20.267-9.6-30.933-12.8
	L277.867,0h-44.8L222.4,39.467c-10.667,3.2-20.267,7.467-29.867,12.8L157.333,32l-32,32L145.6,99.2c-5.333,9.6-9.6,19.2-12.8,29.867
	L93.333,140.8v44.8l39.467,10.667c3.2,10.667,7.467,20.267,12.8,29.867L126.4,262.4l30.933,30.933l35.2-20.267
	c9.6,5.333,19.2,9.6,29.867,12.8l11.733,39.467h44.8l10.667-39.467c10.667-3.2,20.267-7.467,29.867-12.8L355.733,293.333z
	 M224.533,194.133c-17.067-17.067-17.067-45.867,0-62.933s45.867-17.067,62.933,0c17.067,17.067,17.067,45.867,0,62.933
	C270.4,211.2,242.667,211.2,224.533,194.133z"/>
<path style="fill:#F05540;" d="M315.2,221.867c33.067-33.067,33.067-85.333,0-118.4s-85.333-33.067-118.4,0s-33.067,85.333,0,118.4
	S283.2,253.867,315.2,221.867z M224.533,131.2c17.067-17.067,45.867-17.067,62.933,0c17.067,17.067,17.067,45.867,0,62.933
	c-17.067,17.067-45.867,17.067-62.933,0S207.467,148.267,224.533,131.2z"/>
<g>
</g>
<g>
</g>
<g>
</g>
<g>
</g>
<g>
</g>
<g>
</g>
<g>
</g>
<g>
</g>
<g>
</g>
<g>
</g>
<g>
</g>
<g>
</g>
<g>
</g>
<g>
</g>
<g>
</g>
</svg>
