<?xml version="1.0" encoding="iso-8859-1"?>
<!-- Generator: Adobe Illustrator 19.0.0, SVG Export Plug-In . SVG Version: 6.00 Build 0)  -->
<svg version="1.1" id="Capa_1" xmlns="http://www.w3.org/2000/svg" xmlns:xlink="http://www.w3.org/1999/xlink" x="0px" y="0px"
	 viewBox="0 0 512.139 512.139" style="enable-background:new 0 0 512.139 512.139;" xml:space="preserve">
<path style="fill:#66C6B9;" d="M391.467,12.8H21.333C9.6,12.8,0,22.4,0,34.133v456.533C0,502.4,9.6,512,21.333,512h370.133
	c11.733,0,21.333-9.6,21.333-21.333V34.133C412.8,22.4,403.2,12.8,391.467,12.8z"/>
<rect x="43.733" y="56.533" style="fill:#FFFFFF;" width="326.4" height="411.733"/>
<g>
	<rect x="195.2" y="315.733" style="fill:#CED6E0;" width="131.2" height="32"/>
	<rect x="195.2" y="392.533" style="fill:#CED6E0;" width="131.2" height="32"/>
</g>
<path style="fill:#344A5E;" d="M284.8,8.533V83.2c0,5.333-4.267,8.533-8.533,8.533H137.6c-4.267,0-8.533-4.267-8.533-8.533V8.533
	C129.067,3.2,133.333,0,137.6,0h138.667C280.533,0,284.8,4.267,284.8,8.533z"/>
<g>
	<path style="fill:#CED6E0;" d="M117.333,364.8c-3.2,0-5.333-1.067-7.467-3.2l-19.2-19.2c-4.267-4.267-4.267-10.667,0-14.933
		s10.667-4.267,14.933,0l11.733,11.733l38.4-38.4c4.267-4.267,10.667-4.267,14.933,0s4.267,10.667,0,14.933L124.8,361.6
		C122.667,363.733,120.533,364.8,117.333,364.8z"/>
	<path style="fill:#CED6E0;" d="M117.333,441.6c-3.2,0-5.333-1.067-7.467-3.2l-19.2-19.2c-4.267-4.267-4.267-10.667,0-14.933
		c4.267-4.267,10.667-4.267,14.933,0L117.333,416l38.4-38.4c4.267-4.267,10.667-4.267,14.933,0s4.267,10.667,0,14.933L124.8,438.4
		C122.667,440.533,120.533,441.6,117.333,441.6z"/>
</g>
<path style="fill:#F3705A;" d="M180.267,197.333V182.4l-13.867-3.2c-1.067-2.133-2.133-4.267-3.2-6.4l7.467-11.733L160,150.4
	l-10.667,7.467c-2.133-1.067-4.267-2.133-6.4-3.2l-3.2-13.867H124.8l-3.2,13.867c-2.133,1.067-4.267,2.133-6.4,3.2l-11.733-7.467
	L92.8,161.067l7.467,11.733c-1.067,2.133-2.133,4.267-3.2,6.4L83.2,182.4v14.933l13.867,3.2c1.067,2.133,2.133,4.267,3.2,6.4
	L92.8,218.667l10.667,10.667l11.733-7.467c2.133,1.067,4.267,2.133,6.4,3.2l3.2,13.867h14.933l3.2-13.867
	c2.133-1.067,4.267-2.133,6.4-3.2l11.733,7.467l10.667-10.667l-7.467-11.733c1.067-2.133,2.133-4.267,3.2-6.4L180.267,197.333z
	 M132.267,199.467c-5.333,0-9.6-4.267-9.6-9.6c0-5.333,4.267-9.6,9.6-9.6c5.333,0,9.6,4.267,9.6,9.6
	C141.867,195.2,137.6,199.467,132.267,199.467z"/>
<path style="fill:#F05540;" d="M132.267,166.4c-12.8,0-22.4,10.667-22.4,22.4s10.667,22.4,22.4,22.4s22.4-10.667,22.4-22.4
	S144,166.4,132.267,166.4z M132.267,199.467c-5.333,0-9.6-4.267-9.6-9.6c0-5.333,4.267-9.6,9.6-9.6c5.333,0,9.6,4.267,9.6,9.6
	C141.867,195.2,137.6,199.467,132.267,199.467z"/>
<path style="fill:#FFD15C;" d="M321.067,230.4l9.6-22.4l-19.2-12.8c0-4.267,0-7.467,0-11.733l19.2-12.8l-9.6-22.4l-22.4,5.333
	c-2.133-3.2-5.333-5.333-8.533-8.533l4.267-22.4l-22.4-9.6l-12.8,19.2c-4.267,0-7.467,0-11.733,0l-12.8-19.2l-21.333,9.6l4.267,22.4
	c-3.2,2.133-5.333,5.333-8.533,8.533l-22.4-4.267l-9.6,22.4l19.2,12.8c0,4.267,0,7.467,0,11.733l-19.2,12.8l9.6,22.4l22.4-4.267
	c2.133,3.2,5.333,5.333,8.533,8.533l-4.267,21.333l22.4,9.6l12.8-19.2c4.267,0,7.467,0,11.733,0l12.8,19.2l22.4-9.6l-5.333-22.4
	c3.2-2.133,5.333-5.333,8.533-8.533L321.067,230.4z M248.533,203.733c-7.467-3.2-11.733-11.733-8.533-20.267
	s11.733-11.733,20.267-8.533c7.467,3.2,11.733,11.733,8.533,20.267S256,206.933,248.533,203.733z"/>
<path style="fill:#F7B64C;" d="M267.733,155.733c-19.2-7.467-40.533,1.067-48,20.267S220.8,216.533,240,224
	c19.2,7.467,40.533-1.067,48-20.267S286.933,163.2,267.733,155.733z M248.533,203.733c-7.467-3.2-11.733-11.733-8.533-20.267
	c3.2-7.467,11.733-11.733,20.267-8.533c7.467,3.2,11.733,11.733,8.533,20.267C264.533,203.733,256,206.933,248.533,203.733z"/>
<path style="fill:#344A5E;" d="M213.333,213.333c-53.333,53.333-53.333,138.667,0,192s138.667,53.333,192,0s53.333-138.667,0-192
	C353.067,161.067,266.667,161.067,213.333,213.333z M377.6,377.6c-37.333,37.333-98.133,37.333-135.467,0s-37.333-98.133,0-135.467
	s98.133-37.333,135.467,0S414.933,340.267,377.6,377.6z"/>
<path style="fill:#415A6B;" d="M438.4,391.467c0,2.133-1.067,5.333-3.2,7.467L398.933,435.2c-4.267,4.267-10.667,4.267-14.933,0
	c-2.133-2.133-3.2-4.267-3.2-7.467c0-2.133,1.067-5.333,3.2-7.467L420.267,384c4.267-4.267,10.667-4.267,14.933,0
	C437.333,386.133,438.4,388.267,438.4,391.467z"/>
<path style="fill:#F3705A;" d="M444.8,494.933c-8.533-26.667-48-29.867-45.867-59.733l36.267-36.267
	c29.867-2.133,32,37.333,59.733,45.867c12.8,4.267,20.267,17.067,16,30.933c-5.333,14.933-19.2,29.867-35.2,35.2
	C461.867,515.2,449.067,507.733,444.8,494.933z"/>
<g>
</g>
<g>
</g>
<g>
</g>
<g>
</g>
<g>
</g>
<g>
</g>
<g>
</g>
<g>
</g>
<g>
</g>
<g>
</g>
<g>
</g>
<g>
</g>
<g>
</g>
<g>
</g>
<g>
</g>
</svg>
