<?xml version="1.0" encoding="iso-8859-1"?>
<!-- Generator: Adobe Illustrator 19.0.0, SVG Export Plug-In . SVG Version: 6.00 Build 0)  -->
<svg version="1.1" id="Capa_1" xmlns="http://www.w3.org/2000/svg" xmlns:xlink="http://www.w3.org/1999/xlink" x="0px" y="0px"
	 viewBox="0 0 512.02 512.02" style="enable-background:new 0 0 512.02 512.02;" xml:space="preserve">
<polygon style="fill:#FFD15C;" points="265.077,316.82 275.743,412.82 153.077,412.82 153.077,318.953 "/>
<polygon style="fill:#CED6E0;" points="274.677,510.953 266.143,358.42 265.077,358.42 209.61,360.553 154.143,358.42 
	153.077,358.42 144.543,510.953 "/>
<g>
	<polygon style="fill:#F3705A;" points="224.543,408.553 240.543,391.487 209.61,360.553 178.677,391.487 194.677,408.553 	"/>
	<polygon style="fill:#F3705A;" points="246.943,510.953 224.543,408.553 194.677,408.553 172.277,510.953 	"/>
</g>
<g>
	<path style="fill:#FFD15C;" d="M159.477,347.753V272.02c-6.4-13.867-10.667-48-10.667-48v-86.4l64-30.933l53.333,32l16,38.4
		l-10.667,67.2c0,0-4.267,25.6-11.733,37.333v72.533L159.477,347.753z"/>
	
		<ellipse transform="matrix(0.24 0.9708 -0.9708 0.24 320.271 27.3151)" style="fill:#FFD15C;" cx="142.69" cy="218.202" rx="25.601" ry="11.734"/>
	
		<ellipse transform="matrix(0.24 -0.9708 0.9708 0.24 -4.6278 441.9557)" style="fill:#FFD15C;" cx="279.946" cy="223.933" rx="25.601" ry="11.734"/>
</g>
<path style="fill:#415A6B;" d="M277.877,218.687c-1.067,4.267-3.2,11.733-4.267,16h-2.133c1.067-4.267,2.133-11.733,2.133-17.067
	c-1.067-7.467,1.067-19.2-2.133-26.667c-4.267-7.467,1.067-18.133,0-22.4c-1.067-4.267,4.267-12.8-21.333-23.467
	s-40.533-17.067-58.667-14.933s-34.133,23.467-26.667,40.533c0,0,2.133,6.4-2.133,11.733c-3.2,5.333-5.333,12.8-6.4,20.267
	c0,6.4,0,24.533,0,32h-3.2c-2.133-3.2-2.133-20.267-7.467-34.133c-5.333-11.733-7.467-24.533-8.533-37.333
	c-4.267-35.2,42.667-85.333,85.333-76.8c43.733,8.533,62.933,37.333,66.133,52.267c3.2,14.933,2.133,42.667,0,53.333
	C284.277,201.62,278.943,212.287,277.877,218.687z"/>
<path style="fill:#F7B64C;" d="M216.01,316.82c26.667,0,43.733-34.133,43.733-34.133v69.333c-7.467-3.2-21.333-6.4-33.067-10.667
	c-55.467-21.333-66.133-69.333-66.133-69.333S180.81,316.82,216.01,316.82z"/>
<g>
	<path style="fill:#F3F3F3;" d="M258.677,304.02c0,0-2.133,14.933-11.733,28.8c-9.6,13.867-37.333,28.8-37.333,28.8l34.133,35.2
		l20.267-35.2C264.01,360.553,269.343,312.553,258.677,304.02z"/>
	<path style="fill:#F3F3F3;" d="M159.477,304.02c0,0,2.133,14.933,11.733,28.8s37.333,28.8,37.333,28.8l-34.133,35.2l-20.267-35.2
		C154.143,360.553,149.877,312.553,159.477,304.02z"/>
</g>
<path style="fill:#415A6B;" d="M95.477,510.953c4.267-67.2,4.267-136.533-12.8-152.533l-42.667,5.333c0,0-12.8,3.2-16,48
	c-3.2,42.667-19.2,70.4-23.467,100.267h94.933V510.953z"/>
<path style="fill:#344A5E;" d="M76.277,510.953h108.8l-46.933-173.867c0,0-70.4,12.8-99.2,26.667c0,0,37.333,54.4,40.533,97.067
	C80.543,470.42,79.477,489.62,76.277,510.953z"/>
<g>
	<path style="fill:#415A6B;" d="M169.077,510.953h23.467c-6.4-55.467-17.067-120.533-22.4-137.6
		c-8.533-27.733-9.6-69.333-9.6-69.333c-10.667,6.4-39.467,37.333-39.467,37.333S160.543,486.42,169.077,510.953z"/>
	<path style="fill:#415A6B;" d="M419.743,510.953c-4.267-29.867-20.267-57.6-23.467-100.267c-3.2-44.8-16-48-16-48l-42.667-5.333
		c-18.133,16-18.133,85.333-12.8,152.533h94.933V510.953z"/>
</g>
<path style="fill:#344A5E;" d="M341.877,510.953c-2.133-21.333-3.2-40.533-3.2-50.133c3.2-42.667,40.533-97.067,40.533-97.067
	c-28.8-13.867-99.2-26.667-99.2-26.667l-46.933,173.867H341.877z"/>
<path style="fill:#415A6B;" d="M250.143,510.953c8.533-24.533,53.333-169.6,53.333-169.6s-33.067-30.933-43.733-38.4
	c0,0-2.133,41.6-9.6,69.333c-5.333,17.067-16,82.133-22.4,137.6h22.4V510.953z"/>
<path style="fill:#F3705A;" d="M511.477,92.82c0,51.2-49.067,93.867-108.8,93.867c-1.067,0-2.133,0-2.133,0l-66.133,44.8V166.42
	c-24.533-17.067-39.467-42.667-39.467-72.533c0-51.2,48-93.867,108.8-93.867C462.41-1.047,511.477,40.553,511.477,92.82z"/>
<path style="fill:#FFFFFF;" d="M412.277,121.62H392.01c0-3.2,0-4.267,0-5.333c0-6.4,1.067-11.733,3.2-16s6.4-8.533,12.8-13.867
	c6.4-5.333,10.667-8.533,11.733-10.667c2.133-2.133,3.2-5.333,3.2-8.533c0-4.267-2.133-8.533-5.333-10.667
	c-3.2-3.2-8.533-4.267-13.867-4.267s-10.667,2.133-13.867,5.333c-4.267,3.2-6.4,8.533-7.467,14.933l-20.267-2.133
	c1.067-9.6,4.267-17.067,11.733-24.533c7.467-6.4,17.067-9.6,29.867-9.6c12.8,0,23.467,3.2,30.933,9.6S446.41,60.82,446.41,69.353
	c0,5.333-1.067,9.6-4.267,13.867c-3.2,4.267-8.533,10.667-18.133,18.133c-4.267,4.267-7.467,7.467-8.533,9.6
	C413.343,110.953,412.277,115.22,412.277,121.62z M392.01,151.487v-22.4h22.4v22.4H392.01L392.01,151.487z"/>
<g>
</g>
<g>
</g>
<g>
</g>
<g>
</g>
<g>
</g>
<g>
</g>
<g>
</g>
<g>
</g>
<g>
</g>
<g>
</g>
<g>
</g>
<g>
</g>
<g>
</g>
<g>
</g>
<g>
</g>
</svg>
