<?xml version="1.0" encoding="iso-8859-1"?>
<!-- Generator: Adobe Illustrator 19.0.0, SVG Export Plug-In . SVG Version: 6.00 Build 0)  -->
<svg version="1.1" id="Capa_1" xmlns="http://www.w3.org/2000/svg" xmlns:xlink="http://www.w3.org/1999/xlink" x="0px" y="0px"
	 viewBox="0 0 512.865 512.865" style="enable-background:new 0 0 512.865 512.865;" xml:space="preserve">
<path style="fill:#FFD15C;" d="M257.82,183.733c0,0-6.4,26.667-13.867,37.333c-6.4,10.667-9.6,10.667-9.6,10.667
	s-7.467,27.733-9.6,35.2s-6.4,33.067-6.4,33.067l-49.067-2.133L154.353,236c0,0,5.333-26.667,5.333-29.867
	s-2.133-14.933-2.133-14.933s-3.2-32,0-49.067c3.2-17.067,13.867-51.2,39.467-54.4c25.6-4.267,50.133,11.733,56.533,17.067
	c6.4,6.4,8.533,24.533,8.533,24.533L257.82,183.733z"/>
<path style="fill:#66C6B9;" d="M76.487,328.8c-9.6-13.867,22.4,12.8,24.533,12.8c12.8,6.4,27.733,9.6,41.6,13.867
	c35.2,10.667,74.667,22.4,112,14.933c20.267-4.267,41.6-18.133,60.8-32c-7.467-22.4-22.4-44.8-28.8-51.2
	c-8.533-6.4-19.2-6.4-27.733-9.6c-8.533-3.2-24.533-8.533-24.533-8.533l-2.133,2.133l-12.8,6.4l-5.333,5.333
	c0,0,0-4.267-2.133-7.467c-2.133-2.133-5.333-6.4-5.333-6.4l-36.267-2.133l-16-32L142.62,242.4c0,0-43.733,17.067-55.467,29.867
	c-11.733,12.8-17.067,20.267-18.133,26.667c0,3.2,0,11.733-1.067,20.267C71.153,322.4,74.353,325.6,76.487,328.8z"/>
<g>
	<path style="fill:#FFD15C;" d="M159.687,173.067c1.067,12.8-3.2,23.467-7.467,23.467s-9.6-10.667-10.667-23.467
		c0-12.8,3.2-23.467,8.533-23.467C155.42,149.6,159.687,160.267,159.687,173.067z"/>
	<path style="fill:#FFD15C;" d="M245.02,180.533c-1.067,12.8,3.2,23.467,7.467,23.467s9.6-10.667,10.667-23.467
		s-3.2-23.467-7.467-23.467S245.02,167.733,245.02,180.533z"/>
</g>
<path style="fill:#415A6B;" d="M156.487,180.533l2.133-1.067c0,0-3.2-28.8,3.2-36.267c5.333-7.467,12.8-20.267,12.8-23.467
	s-5.333-13.867,6.4-21.333c11.733-6.4,49.067-4.267,62.933,3.2c4.267,2.133,7.467,5.333,8.533,7.467
	c3.2,5.333,4.267,10.667,2.133,17.067c-1.067,2.133-1.067,6.4,1.067,9.6c4.267,6.4,2.133,36.267,2.133,39.467c0,3.2,0,7.467,0,7.467
	h1.067c0,0,1.067-21.333,2.133-28.8c1.067-7.467,4.267-22.4,1.067-34.133C257.82,98.4,240.754,82.4,215.154,77.067
	c-25.6-5.333-46.933,10.667-55.467,24.533s-9.6,28.8-10.667,36.267c-1.067,7.467,0,13.867,0,13.867S155.42,158.133,156.487,180.533z
	"/>
<path style="fill:#F7B64C;" d="M159.687,206.133c0,3.2-5.333,29.867-5.333,29.867l2.133,9.6c5.333,1.067,14.933,2.133,29.867,4.267
	c29.867,4.267,48-18.133,48-18.133C202.353,259.467,159.687,206.133,159.687,206.133z"/>
<g>
	<path style="fill:#E8EAE9;" d="M230.087,248.8c0,0-5.333,24.533-17.067,34.133c0,0,9.6-3.2,13.867-5.333
		c0,0,5.333,2.133,7.467,5.333c2.133,3.2,6.4,12.8,10.667,14.933s5.333,4.267,5.333,4.267s-3.2-5.333-5.333-9.6
		s-7.467-16-8.533-20.267C235.42,269.067,232.22,253.067,230.087,248.8z"/>
	<path style="fill:#E8EAE9;" d="M158.62,218.933c0,0,3.2,9.6,9.6,14.933c5.333,5.333,38.4,35.2,38.4,35.2
		s-11.733,10.667-14.933,17.067c-3.2,6.4-6.4,13.867-6.4,13.867s-27.733-33.067-33.067-42.667c-3.2-5.333-5.333-9.6-7.467-11.733
		c-1.067-2.133-1.067-4.267,0-6.4c2.133-3.2,4.267-8.533,5.333-11.733C151.154,223.2,155.42,218.933,158.62,218.933z"/>
</g>
<path style="fill:#344A5E;" d="M60.487,60c-80,80-80,210.133,0,291.2c80,80,210.133,80,291.2,0c80-80,80-210.133,0-291.2
	C271.687-20,141.553-20,60.487,60z M309.02,308.533c-56.533,56.533-148.267,56.533-204.8,0s-56.533-148.267,0-204.8
	s148.267-56.533,204.8,0S365.553,252,309.02,308.533z"/>
<path style="fill:#415A6B;" d="M400.754,328.8c0,4.267-1.067,8.533-4.267,10.667l-55.467,55.467c-6.4,6.4-16,6.4-22.4,0
	c-3.2-3.2-4.267-7.467-4.267-10.667c0-3.2,1.067-7.467,4.267-10.667l55.467-55.467c6.4-6.4,16-6.4,22.4,0
	C399.687,321.333,400.754,325.6,400.754,328.8z"/>
<path style="fill:#F3705A;" d="M411.42,485.6c-13.867-40.533-72.533-44.8-70.4-89.6l55.467-55.467
	c45.867-2.133,49.067,56.533,89.6,70.4c19.2,6.4,30.933,25.6,24.533,46.933c-7.467,23.467-29.867,45.867-53.333,53.333
	C435.953,517.6,417.82,504.8,411.42,485.6z"/>
<path style="fill:#344A5E;" d="M60.487,60c-80,80-80,210.133,0,291.2c80,80,210.133,80,291.2,0c80-80,80-210.133,0-291.2
	C271.687-20,141.553-20,60.487,60z M309.02,308.533c-56.533,56.533-148.267,56.533-204.8,0s-56.533-148.267,0-204.8
	s148.267-56.533,204.8,0S365.553,252,309.02,308.533z"/>
<path style="fill:#415A6B;" d="M400.754,328.8c0,4.267-1.067,8.533-4.267,10.667l-55.467,55.467c-6.4,6.4-16,6.4-22.4,0
	c-3.2-3.2-4.267-7.467-4.267-10.667c0-3.2,1.067-7.467,4.267-10.667l55.467-55.467c6.4-6.4,16-6.4,22.4,0
	C399.687,321.333,400.754,325.6,400.754,328.8z"/>
<path style="fill:#F3705A;" d="M411.42,485.6c-13.867-40.533-72.533-44.8-70.4-89.6l55.467-55.467
	c45.867-2.133,49.067,56.533,89.6,70.4c19.2,6.4,30.933,25.6,24.533,46.933c-7.467,23.467-29.867,45.867-53.333,53.333
	C435.953,517.6,417.82,504.8,411.42,485.6z"/>
<g>
</g>
<g>
</g>
<g>
</g>
<g>
</g>
<g>
</g>
<g>
</g>
<g>
</g>
<g>
</g>
<g>
</g>
<g>
</g>
<g>
</g>
<g>
</g>
<g>
</g>
<g>
</g>
<g>
</g>
</svg>
