<?xml version="1.0" encoding="iso-8859-1"?>
<!-- Generator: Adobe Illustrator 19.0.0, SVG Export Plug-In . SVG Version: 6.00 Build 0)  -->
<svg version="1.1" id="Capa_1" xmlns="http://www.w3.org/2000/svg" xmlns:xlink="http://www.w3.org/1999/xlink" x="0px" y="0px"
	 viewBox="0 0 512 512" style="enable-background:new 0 0 512 512;" xml:space="preserve">
<path style="fill:#415A6B;" d="M196.267,117.867v-48c0-6.4,4.267-10.667,10.667-10.667H304c6.4,0,10.667,4.267,10.667,10.667v48
	h42.667v-48c0-29.867-23.467-53.333-53.333-53.333h-97.067C177.067,16.533,153.6,40,153.6,69.867v48H196.267z"/>
<path style="fill:#55C0EB;" d="M512,152v300.8c0,23.467-19.2,42.667-42.667,42.667H42.667C19.2,495.467,0,476.267,0,452.8V152
	c0-23.467,19.2-42.667,42.667-42.667h426.667C492.8,109.333,512,128.533,512,152z"/>
<path style="fill:#8AD7F8;" d="M449.067,109.333v149.333c0,18.133-14.933,32-32,32H94.933c-18.133,0-32-14.933-32-32V109.333
	L449.067,109.333L449.067,109.333z"/>
<path style="fill:#F3F3F3;" d="M279.467,271.467v39.467c0,5.333-4.267,10.667-10.667,10.667h-26.667
	c-6.4,0-10.667-5.333-10.667-10.667v-39.467c0-6.4,5.333-10.667,10.667-10.667H268.8C275.2,260.8,279.467,265.067,279.467,271.467z"
	/>
<g>
</g>
<g>
</g>
<g>
</g>
<g>
</g>
<g>
</g>
<g>
</g>
<g>
</g>
<g>
</g>
<g>
</g>
<g>
</g>
<g>
</g>
<g>
</g>
<g>
</g>
<g>
</g>
<g>
</g>
</svg>
