<?xml version="1.0" encoding="iso-8859-1"?>
<!-- Generator: Adobe Illustrator 19.0.0, SVG Export Plug-In . SVG Version: 6.00 Build 0)  -->
<svg version="1.1" id="Capa_1" xmlns="http://www.w3.org/2000/svg" xmlns:xlink="http://www.w3.org/1999/xlink" x="0px" y="0px"
	 viewBox="0 0 512.267 512.267" style="enable-background:new 0 0 512.267 512.267;" xml:space="preserve">
<g>
	<rect x="163.467" y="360.8" style="fill:#CED6E0;" width="55.467" height="151.467"/>
	<polygon style="fill:#CED6E0;" points="342.667,288.267 191.2,80.267 39.733,288.267 	"/>
	<polygon style="fill:#CED6E0;" points="382.133,414.133 191.2,172 0.267,414.133 	"/>
	<polygon style="fill:#CED6E0;" points="311.733,161.333 191.2,0.267 70.667,161.333 	"/>
</g>
<path style="fill:#66C6B9;" d="M99.467,160.267C99.467,161.333,99.467,161.333,99.467,160.267l33.067,1.067l-25.6,36.267
	c18.133,45.867,41.6,86.4,89.6,109.867c3.2,1.067,5.333,2.133,8.533,4.267c19.2,2.133,39.467,2.133,59.733,3.2
	C277.6,316,291.467,316,306.4,316l-21.333-27.733H344.8L252,161.333h61.867L211.467,28c-25.6,16-53.333,29.867-76.8,48L98.4,125.067
	C102.667,134.667,103.733,147.467,99.467,160.267z"/>
<path style="fill:#344A5E;" d="M434.4,270.133c7.467,7.467,7.467,19.2,0,26.667l-67.2,66.133c-7.467,7.467-19.2,7.467-26.667,0
	s-7.467-19.2,0-26.667l67.2-67.2C415.2,262.667,426.933,262.667,434.4,270.133z"/>
<path style="fill:#F3705A;" d="M498.4,428L498.4,428c18.133-18.133,18.133-48,0-67.2l-64-64l-67.2,66.133l64,64
	C450.4,446.133,480.267,446.133,498.4,428z"/>
<path style="fill:#415A6B;" d="M124,53.6c-70.4,70.4-70.4,184.533,0,254.933s184.533,70.4,254.933,0s70.4-184.533,0-254.933
	C308.533-17.867,194.4-17.867,124,53.6z M340.533,270.133c-50.133,50.133-130.133,50.133-179.2,0s-50.133-130.133,0-179.2
	s130.133-49.067,179.2,0S390.667,221.067,340.533,270.133z"/>
<g>
</g>
<g>
</g>
<g>
</g>
<g>
</g>
<g>
</g>
<g>
</g>
<g>
</g>
<g>
</g>
<g>
</g>
<g>
</g>
<g>
</g>
<g>
</g>
<g>
</g>
<g>
</g>
<g>
</g>
</svg>
