<?xml version="1.0" encoding="iso-8859-1"?>
<!-- Generator: Adobe Illustrator 19.0.0, SVG Export Plug-In . SVG Version: 6.00 Build 0)  -->
<svg version="1.1" id="Capa_1" xmlns="http://www.w3.org/2000/svg" xmlns:xlink="http://www.w3.org/1999/xlink" x="0px" y="0px"
	 viewBox="0 0 512 512" style="enable-background:new 0 0 512 512;" xml:space="preserve">
<path style="fill:#FFD15C;" d="M512,234.133v43.733c0,10.667-7.467,19.2-17.067,22.4L445.867,312c-4.267,13.867-9.6,26.667-16,38.4
	l26.667,43.733c5.333,8.533,4.267,20.267-3.2,27.733L422.4,452.8c-7.467,7.467-19.2,8.533-27.733,3.2l-43.733-26.667
	c-11.733,6.4-24.533,11.733-38.4,16L300.8,494.4c-2.133,10.667-11.733,17.067-22.4,17.067h-43.733c-10.667,0-19.2-7.467-22.4-17.067
	l-11.733-49.067c-13.867-4.267-26.667-9.6-38.4-16L118.4,456c-8.533,5.333-20.267,4.267-27.733-3.2l-30.933-30.933
	c-7.467-7.467-8.533-19.2-3.2-27.733L83.2,350.4c-6.4-11.733-11.733-25.6-16-38.4l-49.067-11.733C7.467,298.133,0,288.533,0,278.933
	V235.2c0-10.667,7.467-19.2,17.067-22.4l49.067-11.733c4.267-13.867,9.6-26.667,16-38.4L55.467,120
	c-5.333-8.533-4.267-20.267,3.2-27.733L89.6,61.333c7.467-7.467,19.2-8.533,27.733-3.2L161.067,84.8
	c11.733-6.4,24.533-11.733,38.4-16L211.2,19.733C214.4,8,224,0.533,233.6,0.533h43.733c10.667,0,19.2,7.467,22.4,17.067
	l11.733,49.067c13.867,4.267,26.667,9.6,38.4,16L393.6,56c8.533-5.333,20.267-4.267,27.733,3.2l30.933,30.933
	c7.467,7.467,8.533,19.2,3.2,27.733L428.8,161.6c6.4,11.733,11.733,24.533,16,38.4l49.067,11.733
	C504.533,214.933,512,224.533,512,234.133z"/>
<path style="fill:#F7B64C;" d="M256,419.733c-89.6,0-163.2-72.533-163.2-163.2c0-89.6,72.533-163.2,163.2-163.2
	c89.6,0,163.2,72.533,163.2,163.2C419.2,346.133,345.6,419.733,256,419.733z"/>
<path style="fill:#F3F3F3;" d="M256,383.467c-70.4,0-126.933-56.533-126.933-126.933S185.6,129.6,256,129.6
	s126.933,56.533,126.933,126.933S326.4,383.467,256,383.467z"/>
<path style="fill:#66C6B9;" d="M304,246.933h-50.133v19.2H304c5.333,0,9.6-4.267,9.6-9.6C313.6,251.2,309.333,246.933,304,246.933z"
	/>
<path style="fill:#F3705A;" d="M265.6,254.4v-60.8c0-5.333-4.267-9.6-9.6-9.6c-5.333,0-9.6,4.267-9.6,9.6v60.8H265.6z"/>
<circle style="fill:#415A6B;" cx="256" cy="256.533" r="22.4"/>
<g>
	<circle style="fill:#CED6E0;" cx="256" cy="160.533" r="11.733"/>
	<circle style="fill:#CED6E0;" cx="256" cy="352.533" r="11.733"/>
	<circle style="fill:#CED6E0;" cx="324.267" cy="188.267" r="11.733"/>
	<circle style="fill:#CED6E0;" cx="187.733" cy="324.8" r="11.733"/>
	<circle style="fill:#CED6E0;" cx="352" cy="256.533" r="11.733"/>
	<circle style="fill:#CED6E0;" cx="160" cy="256.533" r="11.733"/>
	<circle style="fill:#CED6E0;" cx="324.267" cy="324.8" r="11.733"/>
	<circle style="fill:#CED6E0;" cx="187.733" cy="188.267" r="11.733"/>
</g>
<g>
</g>
<g>
</g>
<g>
</g>
<g>
</g>
<g>
</g>
<g>
</g>
<g>
</g>
<g>
</g>
<g>
</g>
<g>
</g>
<g>
</g>
<g>
</g>
<g>
</g>
<g>
</g>
<g>
</g>
</svg>
