<?xml version="1.0" encoding="iso-8859-1"?>
<!-- Generator: Adobe Illustrator 19.0.0, SVG Export Plug-In . SVG Version: 6.00 Build 0)  -->
<svg version="1.1" id="Capa_1" xmlns="http://www.w3.org/2000/svg" xmlns:xlink="http://www.w3.org/1999/xlink" x="0px" y="0px"
	 viewBox="0 0 512 512" style="enable-background:new 0 0 512 512;" xml:space="preserve">
<path style="fill:#415A6B;" d="M408.533,441.6c0,6.4-5.333,10.667-10.667,10.667h-86.4c-6.4,0-10.667-4.267-10.667-10.667V268.8
	h-50.133v-21.333H300.8V70.4c0-5.333,5.333-10.667,10.667-10.667h86.4c6.4,0,10.667,5.333,10.667,10.667
	c0,6.4-5.333,10.667-10.667,10.667h-75.733v166.4h75.733V268.8h-75.733v162.133h75.733C403.2,430.933,408.533,436.267,408.533,441.6
	z"/>
<ellipse style="fill:#E8EAE9;" cx="441.6" cy="441.6" rx="70.4" ry="70.4"/>
<ellipse style="fill:#FFD15C;" cx="441.6" cy="441.6" rx="44.8" ry="43.733"/>
<ellipse style="fill:#E8EAE9;" cx="441.6" cy="256" rx="70.4" ry="70.4"/>
<ellipse style="fill:#55C0EB;" cx="441.6" cy="256" rx="44.8" ry="43.733"/>
<ellipse style="fill:#E8EAE9;" cx="441.6" cy="70.4" rx="70.4" ry="70.4"/>
<g>
	<ellipse style="fill:#F3705A;" cx="441.6" cy="70.4" rx="44.8" ry="43.733"/>
	<path style="fill:#F3705A;" d="M97.067,227.2c4.267,12.8,10.667,26.667,8.533,39.467c-1.067,9.6-7.467,18.133-13.867,24.533
		c-6.4,7.467-13.867,13.867-19.2,21.333c-5.333,8.533-9.6,18.133-8.533,27.733c-6.4-16-6.4-33.067,0-48
		C68.267,281.6,75.733,272,78.933,261.333C90.667,231.467,76.8,195.2,90.667,166.4l7.467-3.2
		C91.733,183.467,90.667,206.933,97.067,227.2z"/>
	<path style="fill:#F3705A;" d="M188.8,178.133c0,0,1.067,62.933,17.067,96c17.067,35.2,30.933,43.733,32,43.733
		c1.067,0-50.133-11.733-50.133-11.733l-36.267-49.067l-2.133-43.733l28.8-37.333"/>
	<path style="fill:#F3705A;" d="M85.333,178.133c0,0-1.067,62.933-17.067,96c-17.067,35.2-30.933,43.733-32,43.733
		S86.4,306.133,86.4,306.133l36.267-49.067l2.133-43.733L96,176"/>
</g>
<path style="fill:#F7B64C;" d="M106.667,218.667h61.867v44.8c6.4,29.867,11.733,59.733,0,77.867c0,44.8-61.867,44.8-61.867,0
	c-13.867-27.733-17.067-54.4,0-77.867V218.667z"/>
<path style="fill:#F3F3F3;" d="M180.267,382.933l-9.6-93.867c-6.4,11.733-22.4,27.733-34.133,27.733
	c-10.667,0-27.733-16-34.133-27.733l-9.6,93.867H180.267z"/>
<g>
	<path style="fill:#344A5E;" d="M116.267,382.933L94.933,279.467l-6.4-4.267l-52.267,19.2c0,0-9.6-2.133-17.067,20.267
		c-4.267,12.8-11.733,41.6-19.2,68.267H116.267z"/>
	<path style="fill:#344A5E;" d="M274.133,382.933c-7.467-25.6-14.933-55.467-18.133-68.267c-6.4-22.4-17.067-20.267-17.067-20.267
		l-52.267-19.2l-6.4,4.267l-21.333,103.467H274.133z"/>
</g>
<path style="fill:#F3705A;" d="M188.8,179.2c0,30.933-23.467,72.533-52.267,72.533s-52.267-41.6-52.267-72.533
	s23.467-56.533,52.267-56.533C165.333,122.667,188.8,148.267,188.8,179.2z"/>
<path style="fill:#FFD15C;" d="M182.4,206.933c0,36.267-20.267,66.133-45.867,66.133S90.667,243.2,90.667,206.933
	c0-10.667,2.133-20.267,4.267-28.8c2.133-6.4,9.6-10.667,16-8.533c7.467,2.133,16,3.2,24.533,3.2s17.067-1.067,24.533-3.2
	c7.467-1.067,13.867,2.133,16,8.533C180.267,186.667,182.4,196.267,182.4,206.933z"/>
<g>
	<path style="fill:#415A6B;" d="M98.133,382.933h28.8c-5.333-21.333-10.667-41.6-14.933-52.267c-8.533-28.8-5.333-67.2-5.333-67.2
		c-1.067,1.067-2.133,2.133-4.267,3.2C89.6,275.2,77.867,283.733,67.2,294.4l-1.067,1.067l17.067,9.6l-17.067,9.6
		C75.733,339.2,86.4,361.6,98.133,382.933z"/>
	<path style="fill:#415A6B;" d="M147.2,382.933H176c11.733-21.333,22.4-43.733,32-68.267l-17.067-9.6l17.067-9.6l-1.067-1.067
		c-10.667-10.667-22.4-20.267-35.2-27.733c-2.133-1.067-3.2-2.133-4.267-3.2c0,0,3.2,39.467-5.333,67.2
		C158.933,341.333,153.6,361.6,147.2,382.933z"/>
</g>
<g>
	<path style="fill:#FFD15C;" d="M85.333,218.667c2.133,8.533,7.467,13.867,11.733,10.667c4.267-2.133,4.267-10.667,2.133-18.133
		s-7.467-11.733-10.667-10.667C85.333,202.667,83.2,211.2,85.333,218.667z"/>
	<path style="fill:#FFD15C;" d="M187.733,218.667c-2.133,8.533-7.467,13.867-11.733,10.667c-4.267-2.133-4.267-10.667-2.133-18.133
		c2.133-7.467,7.467-11.733,10.667-10.667C188.8,202.667,189.867,211.2,187.733,218.667z"/>
</g>
<g>
</g>
<g>
</g>
<g>
</g>
<g>
</g>
<g>
</g>
<g>
</g>
<g>
</g>
<g>
</g>
<g>
</g>
<g>
</g>
<g>
</g>
<g>
</g>
<g>
</g>
<g>
</g>
<g>
</g>
</svg>
