<?xml version="1.0" encoding="iso-8859-1"?>
<!-- Generator: Adobe Illustrator 19.0.0, SVG Export Plug-In . SVG Version: 6.00 Build 0)  -->
<svg version="1.1" id="Capa_1" xmlns="http://www.w3.org/2000/svg" xmlns:xlink="http://www.w3.org/1999/xlink" x="0px" y="0px"
	 viewBox="0 0 512 512" style="enable-background:new 0 0 512 512;" xml:space="preserve">
<path style="fill:#E8EAE9;" d="M325.867,0H104C93.333,0,83.733,8.533,83.733,20.267v390.4h342.4V101.333L325.867,0z"/>
<g>
	<rect x="124.267" y="146.133" style="fill:#CED6E0;" width="257.067" height="30.933"/>
	<rect x="124.267" y="74.667" style="fill:#CED6E0;" width="173.867" height="30.933"/>
	<path style="fill:#CED6E0;" d="M427.2,101.333h-78.933c-11.733,0-22.4-9.6-22.4-22.4V0L427.2,101.333z"/>
</g>
<path style="fill:#FFD15C;" d="M496.533,200.533v286.933C496.533,501.333,485.867,512,472,512H40
	c-13.867,0-24.533-10.667-24.533-24.533V146.133c0-13.867,10.667-24.533,24.533-24.533h64c7.467,0,14.933,3.2,19.2,9.6l35.2,44.8
	H472C484.8,174.933,496.533,186.667,496.533,200.533z"/>
<g>
	<path style="fill:#FFFFFF;" d="M253.333,434.133V416l-18.133-5.333c-1.067-2.133-2.133-4.267-2.133-6.4l8.533-16l-12.8-12.8
		l-16,8.533c-2.133-1.067-4.267-2.133-6.4-2.133l-6.4-19.2h-19.2l-5.333,18.133c-2.133,1.067-4.267,2.133-6.4,2.133l-16-8.533
		l-12.8,12.8l8.533,16c-1.067,2.133-2.133,4.267-2.133,6.4l-18.133,6.4v18.133l18.133,5.333c1.067,2.133,2.133,4.267,2.133,6.4
		l-8.533,16l12.8,12.8l16-8.533c2.133,1.067,4.267,2.133,6.4,2.133L180.8,486.4h18.133l5.333-18.133
		c2.133-1.067,4.267-2.133,6.4-2.133l16,8.533l12.8-12.8l-8.533-16c1.067-2.133,2.133-4.267,2.133-6.4L253.333,434.133z
		 M190.4,455.467c-17.067,0-29.867-13.867-29.867-29.867c0-17.067,13.867-29.867,29.867-29.867
		c17.067,0,29.867,13.867,29.867,29.867C221.333,441.6,207.467,455.467,190.4,455.467z"/>
	<circle style="fill:#FFFFFF;" cx="190.4" cy="424.533" r="17.067"/>
</g>
<g>
	<path style="fill:#F05540;" d="M371.733,345.6l7.467-24.533L357.867,307.2c0-3.2,0-6.4-1.067-9.6l18.133-18.133l-11.733-22.4
		l-24.533,4.267c-2.133-2.133-4.267-4.267-7.467-6.4v-25.6l-24.533-7.467L292.8,243.2c-3.2,0-6.4,0-9.6,1.067L266.133,227.2
		l-22.4,11.733L248,263.467c-2.133,2.133-4.267,4.267-6.4,7.467H216l-7.467,24.533l21.333,13.867c0,3.2,0,6.4,1.067,9.6
		L212.8,337.067l11.733,22.4l24.533-4.267c2.133,2.133,4.267,4.267,7.467,6.4v25.6l24.533,7.467l13.867-21.333
		c3.2,0,6.4,0,9.6-1.067l18.133,18.133l22.4-11.733L340.8,352c2.133-2.133,4.267-4.267,6.4-7.467L371.733,345.6z M282.133,346.667
		c-21.333-6.4-34.133-29.867-26.667-51.2c6.4-21.333,29.867-34.133,51.2-26.667C328,275.2,340.8,298.667,333.333,320
		C326.933,341.333,303.467,354.133,282.133,346.667z"/>
	<circle style="fill:#F05540;" cx="294.933" cy="308.267" r="23.467"/>
</g>
<g>
</g>
<g>
</g>
<g>
</g>
<g>
</g>
<g>
</g>
<g>
</g>
<g>
</g>
<g>
</g>
<g>
</g>
<g>
</g>
<g>
</g>
<g>
</g>
<g>
</g>
<g>
</g>
<g>
</g>
</svg>
