<?xml version="1.0" encoding="iso-8859-1"?>
<!-- Generator: Adobe Illustrator 19.0.0, SVG Export Plug-In . SVG Version: 6.00 Build 0)  -->
<svg version="1.1" id="Capa_1" xmlns="http://www.w3.org/2000/svg" xmlns:xlink="http://www.w3.org/1999/xlink" x="0px" y="0px"
	 viewBox="0 0 512 512" style="enable-background:new 0 0 512 512;" xml:space="preserve">
<path style="fill:#4ABAA5;" d="M512,23.467v257.067c0,12.8-10.667,23.467-23.467,23.467H23.467C10.667,304,0,293.333,0,280.533
	V23.467C0,10.667,10.667,0,23.467,0h464C501.333,0,512,10.667,512,23.467z"/>
<path style="fill:#FFFFFF;" d="M48,212.267v-118.4C73.6,93.867,93.867,73.6,93.867,48H419.2c0,25.6,20.267,45.867,45.867,45.867
	v118.4c-25.6,0-45.867,20.267-45.867,45.867H93.867C93.867,232.533,73.6,212.267,48,212.267z"/>
<g>
	<path style="fill:#4ABAA5;" d="M249.6,196.267v-38.4c-11.733-3.2-21.333-8.533-26.667-16c-5.333-7.467-8.533-16-8.533-25.6
		s3.2-18.133,9.6-25.6C230.4,83.2,238.933,80,249.6,78.933V70.4h13.867V80c9.6,1.067,17.067,4.267,23.467,9.6
		c5.333,5.333,9.6,12.8,10.667,22.4l-23.467,3.2c-1.067-7.467-5.333-11.733-10.667-14.933v36.267c14.933,4.267,24.533,9.6,29.867,16
		c5.333,6.4,8.533,14.933,8.533,24.533c0,10.667-3.2,20.267-9.6,27.733c-6.4,7.467-16,12.8-27.733,13.867v17.067h-13.867v-17.067
		c-10.667-1.067-19.2-5.333-25.6-11.733c-6.4-6.4-10.667-16-12.8-27.733l24.533-2.133c1.067,5.333,3.2,9.6,5.333,12.8
		C243.2,192,246.4,195.2,249.6,196.267z M249.6,99.2c-3.2,1.067-6.4,3.2-8.533,6.4c-2.133,3.2-3.2,6.4-3.2,9.6
		c0,3.2,1.067,6.4,3.2,9.6c2.133,3.2,5.333,5.333,8.533,6.4V99.2z M263.467,197.333c4.267-1.067,8.533-3.2,11.733-6.4
		c3.2-3.2,4.267-7.467,4.267-11.733s-1.067-7.467-3.2-10.667s-6.4-5.333-11.733-6.4v35.2H263.467z"/>
	<circle style="fill:#4ABAA5;" cx="128" cy="152.533" r="22.4"/>
	<circle style="fill:#4ABAA5;" cx="384" cy="152.533" r="22.4"/>
</g>
<path style="fill:#66C6B9;" d="M512,101.333V358.4c0,12.8-10.667,23.467-23.467,23.467H23.467C10.667,381.867,0,371.2,0,358.4
	V101.333c0-12.8,10.667-23.467,23.467-23.467h464C501.333,77.867,512,88.533,512,101.333z"/>
<path style="fill:#FFFFFF;" d="M48,290.133v-118.4c25.6,0,45.867-20.267,45.867-45.867H419.2c0,25.6,20.267,45.867,45.867,45.867
	v118.4c-25.6,0-45.867,20.267-45.867,45.867H93.867C93.867,310.4,73.6,290.133,48,290.133z"/>
<g>
	<path style="fill:#66C6B9;" d="M249.6,274.133v-38.4c-11.733-3.2-21.333-8.533-26.667-16c-5.333-7.467-8.533-16-8.533-25.6
		s3.2-18.133,9.6-25.6c6.4-6.4,14.933-10.667,25.6-11.733v-9.6h13.867v9.6c9.6,1.067,17.067,4.267,23.467,9.6
		c5.333,5.333,9.6,12.8,10.667,22.4l-23.467,3.2c-1.067-7.467-5.333-11.733-10.667-14.933v36.267c14.933,4.267,24.533,9.6,29.867,16
		c5.333,6.4,8.533,14.933,8.533,24.533c0,10.667-3.2,20.267-9.6,27.733c-6.4,7.467-16,12.8-27.733,13.867v17.067h-13.867v-17.067
		c-10.667-1.067-19.2-5.333-25.6-11.733c-6.4-6.4-10.667-16-12.8-27.733l24.533-2.133c1.067,5.333,3.2,9.6,5.333,12.8
		S246.4,273.067,249.6,274.133z M249.6,177.067c-3.2,1.067-6.4,3.2-8.533,6.4s-3.2,6.4-3.2,9.6c0,3.2,1.067,6.4,3.2,9.6
		c2.133,3.2,5.333,5.333,8.533,6.4V177.067z M263.467,275.2c4.267-1.067,8.533-3.2,11.733-6.4s4.267-7.467,4.267-11.733
		s-1.067-7.467-3.2-10.667c-2.133-3.2-6.4-5.333-11.733-6.4v35.2H263.467z"/>
	<circle style="fill:#66C6B9;" cx="128" cy="230.4" r="22.4"/>
	<circle style="fill:#66C6B9;" cx="384" cy="230.4" r="22.4"/>
	<path style="fill:#66C6B9;" d="M385.067,256c-19.2-37.333-43.733-62.933-81.067-84.267C267.733,150.4,233.6,160,195.2,179.2
		c-7.467,3.2-22.4,10.667-35.2,18.133c-4.267,11.733-9.6,22.4-14.933,33.067c-4.267,8.533-10.667,16-16,24.533
		c2.133,53.333,16,89.6,38.4,141.867H348.8c6.4-17.067,12.8-24.533,19.2-32c1.067-2.133,1.067-4.267,2.133-6.4
		c6.4-18.133,14.933-39.467,19.2-59.733C389.333,284.8,387.2,269.867,385.067,256z"/>
</g>
<path style="fill:#FFFFFF;" d="M385.067,256c-19.2-37.333-43.733-62.933-81.067-84.267C267.733,150.4,233.6,160,195.2,179.2
	c-7.467,3.2-22.4,10.667-35.2,18.133c-4.267,11.733-9.6,22.4-14.933,33.067c-4.267,8.533-10.667,16-16,24.533
	c1.067,34.133,7.467,60.8,17.067,80h230.4c5.333-7.467,9.6-22.4,13.867-36.267C389.333,284.8,387.2,269.867,385.067,256z"/>
<path style="fill:#66C6B9;" d="M304,253.867c0-10.667-3.2-19.2-8.533-26.667c-5.333-6.4-14.933-11.733-29.867-16v-29.867
	c3.2,2.133,5.333,6.4,5.333,10.667v2.133l28.8-4.267v-3.2c-1.067-7.467-5.333-16-11.733-21.333c0,0-1.067,0-1.067-1.067
	c-22.4-7.467-43.733-4.267-66.133,4.267c-6.4,7.467-9.6,16-9.6,25.6c0,10.667,3.2,19.2,8.533,26.667
	c5.333,7.467,14.933,12.8,25.6,16v32c-1.067-1.067-3.2-3.2-4.267-4.267c-2.133-3.2-4.267-7.467-5.333-11.733v-2.133l-28.8,3.2v3.2
	c2.133,12.8,6.4,22.4,13.867,29.867c6.4,6.4,14.933,10.667,25.6,12.8V316.8h19.2v-18.133c11.733-2.133,20.267-7.467,27.733-14.933
	C299.733,275.2,304,265.6,304,253.867z M246.4,204.8c-2.133-1.067-3.2-2.133-4.267-4.267C240,198.4,240,195.2,240,193.067
	c0-3.2,1.067-5.333,3.2-8.533c1.067-1.067,2.133-3.2,4.267-3.2V204.8H246.4z M272,267.733c-2.133,2.133-4.267,3.2-6.4,4.267v-28.8
	c3.2,1.067,5.333,3.2,7.467,5.333c2.133,2.133,3.2,5.333,3.2,8.533C276.267,261.333,275.2,264.533,272,267.733z"/>
<path style="fill:#344A5E;" d="M418.133,359.467c6.4,6.4,6.4,17.067,0,23.467L358.4,442.667c-6.4,6.4-17.067,6.4-23.467,0
	c-6.4-6.4-6.4-17.067,0-23.467l59.733-59.733C401.067,353.067,411.733,353.067,418.133,359.467z"/>
<path style="fill:#F3705A;" d="M475.733,499.2L475.733,499.2c16-16,16-42.667,0-59.733l-57.6-57.6L358.4,441.6l57.6,57.6
	C432,516.267,458.667,516.267,475.733,499.2z"/>
<path style="fill:#415A6B;" d="M141.867,166.4c-62.933,62.933-62.933,164.267,0,227.2s164.267,62.933,227.2,0
	s62.933-164.267,0-227.2S204.8,103.467,141.867,166.4z M334.933,359.467c-43.733,43.733-115.2,43.733-160,0s-43.733-115.2,0-160
	s115.2-43.733,160,0S379.733,315.733,334.933,359.467z"/>
<g>
</g>
<g>
</g>
<g>
</g>
<g>
</g>
<g>
</g>
<g>
</g>
<g>
</g>
<g>
</g>
<g>
</g>
<g>
</g>
<g>
</g>
<g>
</g>
<g>
</g>
<g>
</g>
<g>
</g>
</svg>
