<?xml version="1.0" encoding="iso-8859-1"?>
<!-- Generator: Adobe Illustrator 19.0.0, SVG Export Plug-In . SVG Version: 6.00 Build 0)  -->
<svg version="1.1" id="Capa_1" xmlns="http://www.w3.org/2000/svg" xmlns:xlink="http://www.w3.org/1999/xlink" x="0px" y="0px"
	 viewBox="0 0 513.067 513.067" style="enable-background:new 0 0 513.067 513.067;" xml:space="preserve">
<path style="fill:#FFD15C;" d="M512.533,418.133v-33.067L481.6,377.6c-2.133-5.333-4.267-10.667-6.4-16l16-26.667l-23.467-23.467
	l-26.667,16c-5.333-3.2-10.667-5.333-16-6.4l-7.467-30.933h-33.067l-7.467,30.933c-5.333,2.133-10.667,4.267-16,6.4l-26.667-16
	l-23.467,23.467l16,26.667c-3.2,5.333-5.333,10.667-6.4,16l-30.933,7.467v33.067l30.933,7.467c2.133,5.333,4.267,10.667,6.4,16
	l-16,26.667l23.467,23.467l26.667-16c5.333,3.2,10.667,5.333,16,6.4l7.467,30.933H417.6l7.467-30.933
	c5.333-2.133,10.667-4.267,16-6.4l26.667,16l23.467-23.467l-16-26.667c3.2-5.333,5.333-10.667,6.4-16L512.533,418.133z
	 M402.667,435.2c-18.133,0-33.067-14.933-33.067-33.067c0-18.133,14.933-33.067,33.067-33.067c18.133,0,33.067,14.933,33.067,33.067
	C435.733,420.267,420.8,435.2,402.667,435.2z"/>
<path style="fill:#F7B64C;" d="M402.667,345.6c-30.933,0-56.533,25.6-56.533,56.533s25.6,56.533,56.533,56.533
	c30.933,0,56.533-25.6,56.533-56.533C459.2,371.2,433.6,345.6,402.667,345.6z M402.667,435.2c-18.133,0-33.067-14.933-33.067-33.067
	s14.933-33.067,33.067-33.067c18.133,0,33.067,14.933,33.067,33.067S420.8,435.2,402.667,435.2z"/>
<g>
	<polygon style="fill:#415A6B;" points="277.867,92.8 288.533,17.067 244.8,0 202.133,62.933 	"/>
	<polygon style="fill:#415A6B;" points="111.467,295.467 99.733,371.2 144.533,388.267 187.2,325.333 	"/>
	<polygon style="fill:#415A6B;" points="324.8,181.333 386.667,135.467 367.467,92.8 292.8,106.667 	"/>
	<polygon style="fill:#415A6B;" points="63.467,206.933 2.667,251.733 21.867,295.467 96.533,281.6 	"/>
	<polygon style="fill:#415A6B;" points="296,277.333 371.733,288 388.8,244.267 325.867,201.6 	"/>
	<polygon style="fill:#415A6B;" points="93.333,110.933 17.6,99.2 0.533,144 63.467,186.667 	"/>
	<polygon style="fill:#415A6B;" points="207.467,324.267 252.267,386.133 296,366.933 282.133,292.267 	"/>
	<polygon style="fill:#415A6B;" points="181.867,62.933 136,2.133 93.333,21.333 107.2,96 	"/>
</g>
<circle style="fill:#F3705A;" cx="194.667" cy="194.133" r="165.333"/>
<circle style="fill:#FFFFFF;" cx="194.667" cy="194.133" r="124.8"/>
<path style="fill:#415A6B;" d="M232,242.133c-3.2,0-5.333-1.067-7.467-3.2L187.2,201.6c-2.133-2.133-3.2-4.267-3.2-7.467V112
	c0-6.4,4.267-10.667,10.667-10.667c6.4,0,10.667,4.267,10.667,10.667v77.867L239.467,224c4.267,4.267,4.267,10.667,0,14.933
	C237.333,241.067,235.2,242.133,232,242.133z"/>
<circle style="fill:#66C6B9;" cx="194.667" cy="194.133" r="23.467"/>
<g>
</g>
<g>
</g>
<g>
</g>
<g>
</g>
<g>
</g>
<g>
</g>
<g>
</g>
<g>
</g>
<g>
</g>
<g>
</g>
<g>
</g>
<g>
</g>
<g>
</g>
<g>
</g>
<g>
</g>
</svg>
