<?xml version="1.0" encoding="iso-8859-1"?>
<!-- Generator: Adobe Illustrator 19.0.0, SVG Export Plug-In . SVG Version: 6.00 Build 0)  -->
<svg version="1.1" id="Capa_1" xmlns="http://www.w3.org/2000/svg" xmlns:xlink="http://www.w3.org/1999/xlink" x="0px" y="0px"
	 viewBox="0 0 511.957 511.957" style="enable-background:new 0 0 511.957 511.957;" xml:space="preserve">
<path style="fill:#F7B64C;" d="M438.4,186.512v300.8c0,13.867-10.667,24.533-24.533,24.533H24.533
	C10.667,511.845,0,501.179,0,487.312V134.245c0-13.867,10.667-24.533,24.533-24.533H86.4c7.467,0,13.867,3.2,19.2,9.6l34.133,42.667
	h275.2C427.733,163.045,438.4,173.712,438.4,186.512z"/>
<path style="fill:#E8EAE9;" d="M288,40.379H72.533c-10.667,0-19.2,8.533-19.2,19.2v379.733h332.8v-300.8L288,40.379z"/>
<g>
	<rect x="91.733" y="182.245" style="fill:#CED6E0;" width="250.667" height="29.867"/>
	<rect x="91.733" y="112.912" style="fill:#CED6E0;" width="169.6" height="29.867"/>
</g>
<path style="fill:#FFD15C;" d="M0,278.245v209.067c0,13.867,10.667,24.533,24.533,24.533h390.4
	c13.867,0,24.533-10.667,24.533-24.533V278.245c0-13.867-10.667-24.533-24.533-24.533h-390.4C10.667,253.712,0,264.379,0,278.245z"
	/>
<polygon style="fill:#CED6E0;" points="386.133,138.512 288,40.379 288,138.512 "/>
<g>
	<path style="fill:#344A5E;" d="M163.2,45.712c-61.867,61.867-61.867,162.133,0,224s162.133,61.867,224,0s61.867-162.133,0-224
		C325.333-15.088,225.067-15.088,163.2,45.712z M354.133,236.645c-43.733,43.733-114.133,43.733-157.867,0
		s-43.733-114.133,0-157.867s114.133-43.733,157.867,0S397.867,192.912,354.133,236.645z"/>
	<path style="fill:#344A5E;" d="M424.533,259.045l-48,48c-3.2,3.2-8.533,3.2-11.733,0l-5.333-5.333c-3.2-3.2-3.2-8.533,0-11.733
		l48-48c3.2-3.2,8.533-3.2,11.733,0l5.333,5.333C427.733,250.512,427.733,255.845,424.533,259.045z"/>
</g>
<path style="fill:#F3705A;" d="M488.533,302.779l-67.2-40.533l-42.667,42.667l40.533,67.2c17.067,27.733,54.4,32,77.867,9.6l0,0
	C520.533,357.179,515.2,318.779,488.533,302.779z"/>
<g>
</g>
<g>
</g>
<g>
</g>
<g>
</g>
<g>
</g>
<g>
</g>
<g>
</g>
<g>
</g>
<g>
</g>
<g>
</g>
<g>
</g>
<g>
</g>
<g>
</g>
<g>
</g>
<g>
</g>
</svg>
