<?xml version="1.0" encoding="iso-8859-1"?>
<!-- Generator: Adobe Illustrator 19.0.0, SVG Export Plug-In . SVG Version: 6.00 Build 0)  -->
<svg version="1.1" id="Capa_1" xmlns="http://www.w3.org/2000/svg" xmlns:xlink="http://www.w3.org/1999/xlink" x="0px" y="0px"
	 viewBox="0 0 512.372 512.372" style="enable-background:new 0 0 512.372 512.372;" xml:space="preserve">
<path style="fill:#4ABAA5;" d="M510.138,216.639v1.067c0,2.133-1.067,6.4-2.133,10.667c0,2.133-1.067,3.2-1.067,5.333
	c-1.067,3.2-1.067,5.333-2.133,8.533c0,1.067,0,2.133-1.067,3.2c-1.067,6.4-3.2,12.8-4.267,14.933c0,1.067-1.067,2.133-2.133,4.267
	H246.671c4.267-7.467,9.6-17.067,12.8-20.267c1.067-1.067,1.067-2.133,2.133-3.2c3.2-6.4,6.4-16,6.4-19.2s3.2-8.533,6.4-14.933
	c3.2-7.467,4.267-12.8,5.333-21.333c1.067-7.467,8.533-12.8,10.667-13.867l0,0c0,0,17.067-6.4,25.6-7.467
	c9.6-1.067,10.667-3.2,20.267-7.467s18.133-5.333,18.133-5.333s-6.4,29.867-8.533,45.867c-1.067,7.467-2.133,29.867-2.133,54.4
	c5.333-13.867,6.4-14.933,6.4-14.933s73.6-82.133,87.467-93.867c0,0,11.733,3.2,17.067,6.4c5.333,3.2,35.2,8.533,43.733,12.8
	s8.533,6.4,8.533,6.4C515.471,175.039,511.204,209.172,510.138,216.639z"/>
<ellipse style="fill:#ADB3BA;" cx="417.337" cy="123.839" rx="2.133" ry="6.4"/>
<path style="fill:#FFD15C;" d="M341.604,59.839v13.867c0,0,0,30.933,2.133,38.4c2.133,7.467,7.467,14.933,12.8,18.133
	c0,0,3.2,10.667,2.133,19.2c-1.067,8.533-13.867,25.6-13.867,25.6l24.533,10.667l54.4-51.2l-6.4-6.4c0,0,0-16,0-17.067
	c0,0,2.133-14.933,1.067-27.733c-1.067-12.8-2.133-25.6-2.133-25.6l-7.467-28.8c0,0-58.667-6.4-62.933,1.067
	C342.671,38.506,340.538,50.239,341.604,59.839z"/>
<path style="fill:#415A6B;" d="M408.804,8.639c-14.933-14.933-44.8-8.533-56.533,4.267c-10.667,12.8-16,17.067-14.933,33.067
	c2.133,14.933,4.267,24.533,4.267,27.733h1.067c1.067-2.133,3.2-10.667,2.133-18.133c-1.067-9.6-2.133-10.667,2.133-14.933
	c4.267-5.333,10.667-6.4,16-5.333c5.333,2.133,22.4,4.267,33.067,1.067c10.667-3.2,17.067,7.467,16,12.8
	c-1.067,4.267-2.133,7.467-1.067,8.533c2.133,1.067,8.533,11.733,7.467,26.667h2.133c0,0-2.133-9.6,3.2-16
	c0,0,1.067-10.667,2.133-22.4C424.804,34.239,423.738,23.572,408.804,8.639z"/>
<path style="fill:#F7B64C;" d="M417.337,113.172c0,0-3.2,11.733-26.667,21.333c-23.467,10.667-35.2-4.267-35.2-4.267
	s3.2,10.667,2.133,19.2c0,6.4-8.533,18.133-11.733,22.4l0,0c0,0,0,0,35.2-20.267C416.271,130.239,417.337,113.172,417.337,113.172z"
	/>
<path style="fill:#CED6E0;" d="M345.871,176.106l-2.133,48l42.667-32l-3.2-32h-9.6c0,0-5.333,6.4-6.4,10.667
	s-1.067,5.333-1.067,5.333l-1.067-5.333l-5.333-10.667L345.871,176.106z"/>
<path style="fill:#66C6B9;" d="M334.138,265.706h4.267c2.133-6.4,5.333-12.8,9.6-18.133c3.2-19.2,7.467-38.4,7.467-46.933
	c2.133-20.267,0-40.533-1.067-49.067c0,0-5.333,8.533-10.667,12.8c-5.333,4.267-16,16-16,16l6.4,8.533l-18.133,10.667
	C316.004,199.572,327.738,235.839,334.138,265.706z"/>
<g>
	<path style="fill:#FFD15C;" d="M431.204,81.172c-1.067,8.533-5.333,14.933-9.6,14.933s-6.4-7.467-5.333-16s5.333-14.933,9.6-13.867
		C430.138,67.306,432.271,73.706,431.204,81.172z"/>
	<path style="fill:#FFD15C;" d="M335.204,81.172c2.133,8.533,6.4,14.933,10.667,14.933c4.267,0,6.4-7.467,5.333-16
		s-5.333-14.933-9.6-13.867C337.338,66.239,334.138,73.706,335.204,81.172z"/>
</g>
<path style="fill:#F3F3F3;" d="M417.337,117.439c0,0,2.133,3.2,1.067,6.4c-1.067,3.2-4.267,8.533-12.8,14.933s-32,22.4-32,22.4
	l5.333,34.133l50.133-57.6l-7.467-16C421.604,120.639,420.538,117.439,417.337,117.439L417.337,117.439z"/>
<path style="fill:#66C6B9;" d="M339.471,265.706c6.4-10.667,13.867-21.333,20.267-27.733c14.933-17.067,43.733-38.4,48-41.6
	l-3.2-14.933l20.267-6.4c0,0,10.667-22.4,11.733-27.733c2.133-5.333,2.133-5.333,0-10.667c-2.133-5.333-6.4-10.667-8.533-13.867
	c-3.2-5.333-6.4-4.267-6.4-4.267s4.267,6.4,1.067,12.8c-4.267,6.4-41.6,33.067-59.733,62.933
	c-10.667,18.133-22.4,46.933-29.867,69.333h6.4V265.706z"/>
<path style="fill:#F3F3F3;" d="M357.604,137.706c0,0,5.333,26.667,8.533,34.133l-6.4-4.267l-2.133,12.8c0,0-4.267-10.667-3.2-20.267
	C355.471,150.506,355.471,139.839,357.604,137.706z"/>
<path style="fill:#8AD7F8;" d="M2.404,216.639v1.067c0,2.133,1.067,6.4,2.133,10.667c0,2.133,1.067,3.2,1.067,5.333
	c1.067,3.2,1.067,5.333,2.133,8.533c0,1.067,0,2.133,1.067,3.2c1.067,6.4,3.2,12.8,4.267,14.933c0,1.067,1.067,2.133,2.133,4.267
	h249.6c-4.267-7.467-9.6-17.067-12.8-20.267c-1.067-1.067-1.067-2.133-2.133-3.2c-3.2-6.4-6.4-16-6.4-19.2s-3.2-8.533-6.4-14.933
	c-3.2-7.467-4.267-12.8-5.333-21.333c-1.067-7.467-8.533-12.8-10.667-13.867l0,0c0,0-17.067-6.4-25.6-7.467
	c-9.6-1.067-10.667-3.2-20.267-7.467c-9.6-4.267-18.133-5.333-18.133-5.333s6.4,29.867,8.533,45.867
	c1.067,7.467,2.133,29.867,2.133,54.4c-5.333-13.867-6.4-14.933-6.4-14.933s-73.6-82.133-87.467-93.867c0,0-11.733,3.2-17.067,6.4
	c-5.333,3.2-35.2,8.533-43.733,12.8s-8.533,6.4-8.533,6.4C-2.929,175.039,1.338,209.172,2.404,216.639z"/>
<ellipse style="fill:#ADB3BA;" cx="95.204" cy="123.839" rx="2.133" ry="6.4"/>
<path style="fill:#FFD15C;" d="M170.938,59.839v13.867c0,0,0,30.933-2.133,38.4c-2.133,7.467-7.467,14.933-12.8,18.133
	c0,0-3.2,10.667-2.133,19.2c1.067,8.533,13.867,25.6,13.867,25.6l-24.533,10.667l-54.4-51.2l6.4-6.4c0,0,0-16,0-17.067
	c0,0-2.133-14.933-1.067-27.733c1.067-12.8,2.133-25.6,2.133-25.6l7.467-28.8c0,0,58.667-6.4,62.933,1.067
	S172.004,50.239,170.938,59.839z"/>
<path style="fill:#415A6B;" d="M103.738,8.639c14.933-14.933,44.8-8.533,56.533,4.267c10.667,12.8,16,17.067,14.933,33.067
	c-2.133,14.933-4.267,23.467-4.267,27.733h-1.067c-1.067-2.133-3.2-10.667-2.133-18.133c1.067-9.6,2.133-10.667-2.133-14.933
	c-4.267-5.333-10.667-6.4-16-5.333c-5.333,2.133-22.4,4.267-33.067,1.067s-17.067,7.467-16,12.8c3.2,4.267,4.267,7.467,2.133,8.533
	c-2.133,1.067-8.533,10.667-7.467,25.6h-2.133c0,0,2.133-9.6-3.2-16c0,0-1.067-10.667-2.133-22.4
	C87.738,34.239,88.804,23.572,103.738,8.639z"/>
<path style="fill:#F7B64C;" d="M95.204,113.172c0,0,3.2,11.733,26.667,21.333c23.467,10.667,35.2-4.267,35.2-4.267
	s-3.2,10.667-2.133,19.2c0,6.4,8.533,18.133,11.733,22.4l0,0c0,0,0,0-35.2-20.267C96.271,130.239,95.204,113.172,95.204,113.172z"/>
<path style="fill:#CED6E0;" d="M166.671,176.106l3.2,48l-42.667-32l3.2-32h9.6c0,0,5.333,6.4,6.4,10.667s1.067,5.333,1.067,5.333
	l1.067-5.333l6.4-11.733L166.671,176.106z"/>
<path style="fill:#55C0EB;" d="M178.404,265.706h-4.267c-2.133-6.4-5.333-12.8-9.6-18.133c-3.2-19.2-7.467-38.4-7.467-46.933
	c-2.133-20.267,0-40.533,1.067-49.067c0,0,5.333,8.533,10.667,12.8c5.333,4.267,16,16,16,16l-6.4,8.533l18.133,10.667
	C196.538,199.572,184.804,235.839,178.404,265.706z"/>
<g>
	<path style="fill:#FFD15C;" d="M81.338,81.172c1.067,8.533,5.333,14.933,9.6,13.867c4.267,0,6.4-7.467,5.333-16
		c-1.067-8.533-5.333-13.867-9.6-12.8C82.404,66.239,80.271,73.706,81.338,81.172z"/>
	<path style="fill:#FFD15C;" d="M177.338,81.172c-2.133,8.533-6.4,14.933-10.667,13.867c-4.267,0-6.4-7.467-5.333-16
		c1.067-8.533,5.333-14.933,9.6-13.867C175.204,66.239,178.404,73.706,177.338,81.172z"/>
</g>
<path style="fill:#F3F3F3;" d="M95.204,117.439c0,0-2.133,3.2-1.067,6.4c1.067,4.267,4.267,8.533,12.8,14.933s32,22.4,32,22.4
	l-5.333,34.133l-50.133-57.6l7.467-16C90.938,120.639,92.004,117.439,95.204,117.439L95.204,117.439z"/>
<path style="fill:#55C0EB;" d="M173.071,265.706c-6.4-10.667-13.867-21.333-20.267-27.733c-14.933-17.067-43.733-38.4-48-41.6
	l3.2-13.867l-20.267-6.4c0,0-10.667-22.4-11.733-27.733c-1.067-5.333-2.133-5.333,0-10.667c2.133-5.333,6.4-10.667,8.533-13.867
	c3.2-5.333,6.4-4.267,6.4-4.267s-4.267,6.4-1.067,12.8c4.267,6.4,41.6,33.067,59.733,62.933
	c10.667,18.133,22.4,46.933,29.867,69.333h-6.4V265.706z"/>
<path style="fill:#F3F3F3;" d="M154.938,137.706c0,0-5.333,26.667-8.533,34.133l6.4-4.267l2.133,12.8c0,0,4.267-10.667,3.2-20.267
	C158.138,150.506,157.071,139.839,154.938,137.706z"/>
<path style="fill:#FFFFFF;" d="M189.071,209.172c-46.933,46.933-46.933,123.733,0,170.667c46.933,46.933,123.733,46.933,170.667,0
	s46.933-123.733,0-170.667S237.071,162.239,189.071,209.172z"/>
<g>
	<path style="fill:#415A6B;" d="M313.871,255.039c2.133,19.2,4.267,39.467,2.133,58.667c-2.133,19.2-8.533,38.4-19.2,54.4
		c-11.733,16-28.8,27.733-48,30.933c-2.133-12.8,2.133-25.6,5.333-37.333c11.733-37.333,23.467-75.733,36.267-113.067"/>
	<path style="fill:#415A6B;" d="M193.338,378.772c5.333-4.267,11.733-6.4,18.133-8.533c18.133-7.467,34.133-22.4,43.733-40.533
		c9.6-19.2,12.8-41.6,9.6-62.933l-21.333-4.267c-2.133,22.4-5.333,45.867-17.067,64c-7.467,11.733-18.133,20.267-27.733,32
		c-7.467,9.6-13.867,22.4-12.8,35.2C185.871,388.372,189.071,381.972,193.338,378.772z"/>
</g>
<g>
	<path style="fill:#F05540;" d="M313.871,410.772c-1.067,3.2-2.133,8.533-4.267,14.933c26.667-3.2,51.2-13.867,73.6-33.067
		c-3.2-20.267-14.933-20.267-14.933-20.267c-11.733-5.333-55.467-17.067-55.467-17.067S318.138,385.172,313.871,410.772z"/>
	<path style="fill:#F05540;" d="M237.071,419.306c-1.067-3.2-1.067-5.333-2.133-8.533c-4.267-25.6,0-55.467,0-55.467
		s-46.933,12.8-55.467,17.067c0,0-8.533,1.067-12.8,13.867C189.071,400.106,212.538,411.839,237.071,419.306z"/>
</g>
<g>
	<path style="fill:#FFD15C;" d="M245.604,384.106l22.4,34.133l35.2-46.933v-50.133c7.467-19.2,10.667-54.4,10.667-54.4l2.133-20.267
		c0,0-5.333-29.867-21.333-34.133c-16-5.333-50.133,1.067-55.467,11.733c-5.333,10.667-6.4,44.8-6.4,44.8s5.333,36.267,12.8,53.333
		L245.604,384.106L245.604,384.106z"/>
	<path style="fill:#FFD15C;" d="M245.604,337.172l-22.4,45.867l12.8,36.267c23.467,6.4,46.933,9.6,69.333,7.467l11.733-37.333
		l-13.867-51.2v-16c7.467-19.2,10.667-54.4,10.667-54.4l2.133-20.267c0,0-5.333-29.867-21.333-34.133
		c-16-5.333-50.133,1.067-55.467,11.733c-5.333,10.667-6.4,44.8-6.4,44.8s4.267,36.267,12.8,53.333L245.604,337.172L245.604,337.172
		z"/>
</g>
<path style="fill:#F7B64C;" d="M255.204,368.106c39.467-19.2,48-46.933,48-46.933l0,0c0,0-12.8,21.333-29.867,20.267
	c-17.067-1.067-27.733-20.267-27.733-20.267l0,0v16l0,0l-20.267,41.6C234.938,375.572,253.071,369.172,255.204,368.106z"/>
<path style="fill:#E8EAE9;" d="M307.471,425.706l10.667-72.533h-5.333c-1.067,20.267-18.133,35.2-38.4,35.2s-36.267-16-38.4-35.2
	h-4.267l9.6,66.133C263.738,425.706,286.138,428.906,307.471,425.706z"/>
<g>
	<path style="fill:#FFD15C;" d="M322.404,277.439c-1.067,8.533-5.333,14.933-9.6,14.933s-6.4-6.4-5.333-14.933
		c1.067-8.533,5.333-14.933,9.6-14.933C320.271,262.506,323.471,268.906,322.404,277.439z"/>
	<path style="fill:#FFD15C;" d="M226.404,277.439c1.067,8.533,5.333,14.933,9.6,14.933s6.4-6.4,5.333-14.933
		s-5.333-14.933-9.6-14.933C227.471,262.506,225.338,268.906,226.404,277.439z"/>
</g>
<path style="fill:#415A6B;" d="M232.804,267.839c0,0,2.133-16,5.333-25.6c3.2-9.6,8.533-16,20.267-19.2
	c11.733-3.2,23.467-4.267,33.067,0c9.6,4.267,18.133,19.2,20.267,26.667s2.133,18.133,2.133,18.133s1.067,1.067,2.133-4.267
	c0,0,7.467-38.4-7.467-54.4c-14.933-17.067-55.467-20.267-68.267,0C227.471,227.306,226.404,247.572,232.804,267.839z"/>
<g>
	<path style="fill:#F3705A;" d="M321.338,423.572c10.667-17.067,23.467-32,23.467-32l-13.867-10.667l8.533-4.267l-1.067-1.067
		l-35.2-39.467l-6.4,90.667C305.338,426.772,313.871,425.706,321.338,423.572z"/>
	<path style="fill:#F3705A;" d="M221.071,412.906c10.667,4.267,21.333,7.467,32,9.6l-6.4-85.333l-36.267,40.533l8.533,4.267
		l-13.867,10.667C204.004,391.572,211.471,401.172,221.071,412.906z"/>
</g>
<path style="fill:#FFD15C;" d="M481.338,442.772l-56.533-56.533l-57.6,57.6l56.533,56.533c16,16,41.6,16,57.6,0l0,0
	C496.271,484.372,496.271,458.772,481.338,442.772z"/>
<path style="fill:#344A5E;" d="M430.138,391.572l-57.6,57.6c-5.333,5.333-12.8,5.333-17.067,0l0,0c-5.333-5.333-5.333-12.8,0-17.067
	l57.6-57.6c5.333-5.333,12.8-5.333,17.067,0l0,0C434.404,379.839,434.404,387.306,430.138,391.572z"/>
<path style="fill:#415A6B;" d="M387.471,407.572c-61.867,61.867-163.2,61.867-226.133,0c-61.867-61.867-61.867-164.267,0-226.133
	s164.267-61.867,226.133,0C450.404,243.306,450.404,344.639,387.471,407.572z M189.071,209.172
	c-46.933,46.933-46.933,123.733,0,170.667c46.933,46.933,123.733,46.933,170.667,0s46.933-123.733,0-170.667
	S237.071,162.239,189.071,209.172z"/>
<g>
</g>
<g>
</g>
<g>
</g>
<g>
</g>
<g>
</g>
<g>
</g>
<g>
</g>
<g>
</g>
<g>
</g>
<g>
</g>
<g>
</g>
<g>
</g>
<g>
</g>
<g>
</g>
<g>
</g>
</svg>
