<?xml version="1.0" encoding="iso-8859-1"?>
<!-- Generator: Adobe Illustrator 19.0.0, SVG Export Plug-In . SVG Version: 6.00 Build 0)  -->
<svg version="1.1" id="Capa_1" xmlns="http://www.w3.org/2000/svg" xmlns:xlink="http://www.w3.org/1999/xlink" x="0px" y="0px"
	 viewBox="0 0 512 512" style="enable-background:new 0 0 512 512;" xml:space="preserve">
<g>
	<polygon style="fill:#F3705A;" points="512,0 442.667,9.6 459.733,26.667 423.467,61.867 450.133,88.533 485.333,52.267 
		502.4,69.333 	"/>
	<polygon style="fill:#F3705A;" points="0,0 69.333,9.6 52.267,26.667 88.533,61.867 61.867,88.533 26.667,52.267 9.6,69.333 	"/>
	<polygon style="fill:#F3705A;" points="512,512 442.667,502.4 459.733,485.333 423.467,450.133 450.133,423.467 485.333,459.733 
		502.4,442.667 	"/>
	<polygon style="fill:#F3705A;" points="0,512 69.333,502.4 52.267,485.333 88.533,450.133 61.867,423.467 26.667,459.733 
		9.6,442.667 	"/>
	<polygon style="fill:#F3705A;" points="512,256 456.533,214.4 456.533,237.867 405.333,237.867 405.333,274.133 456.533,274.133 
		456.533,297.6 	"/>
	<polygon style="fill:#F3705A;" points="0,256 55.467,214.4 55.467,237.867 106.667,237.867 106.667,274.133 55.467,274.133 
		55.467,297.6 	"/>
</g>
<path style="fill:#E8EAE9;" d="M403.2,43.733H203.733L90.667,156.8v293.333c0,9.6,7.467,18.133,18.133,18.133h294.4
	c9.6,0,18.133-7.467,18.133-18.133V61.867C421.333,52.267,412.8,43.733,403.2,43.733z"/>
<g>
	<path style="fill:#ADB3BA;" d="M90.667,156.8H185.6c9.6,0,18.133-7.467,18.133-18.133V43.733L90.667,156.8z"/>
	<rect x="235.733" y="145.067" style="fill:#ADB3BA;" width="149.333" height="25.6"/>
	<rect x="125.867" y="210.133" style="fill:#ADB3BA;" width="259.2" height="25.6"/>
	<rect x="125.867" y="276.267" style="fill:#ADB3BA;" width="259.2" height="25.6"/>
	<rect x="125.867" y="407.467" style="fill:#ADB3BA;" width="259.2" height="25.6"/>
</g>
<path style="fill:#66C6B9;" d="M244.267,392.533c-2.133,0-5.333-1.067-7.467-3.2l-28.8-28.8c-4.267-4.267-4.267-10.667,0-13.867
	c4.267-4.267,10.667-4.267,13.867,0l22.4,22.4l48-48c4.267-4.267,10.667-4.267,13.867,0c4.267,4.267,4.267,10.667,0,13.867
	L250.667,390.4C249.6,392.533,247.467,392.533,244.267,392.533z"/>
<g>
</g>
<g>
</g>
<g>
</g>
<g>
</g>
<g>
</g>
<g>
</g>
<g>
</g>
<g>
</g>
<g>
</g>
<g>
</g>
<g>
</g>
<g>
</g>
<g>
</g>
<g>
</g>
<g>
</g>
</svg>
