<?xml version="1.0" encoding="iso-8859-1"?>
<!-- Generator: Adobe Illustrator 19.0.0, SVG Export Plug-In . SVG Version: 6.00 Build 0)  -->
<svg version="1.1" id="Capa_1" xmlns="http://www.w3.org/2000/svg" xmlns:xlink="http://www.w3.org/1999/xlink" x="0px" y="0px"
	 viewBox="0 0 512 512" style="enable-background:new 0 0 512 512;" xml:space="preserve">
<path style="fill:#ADB3BA;" d="M125.867,512H444.8c16,0,29.867-12.8,29.867-29.867V71.467c0-16-12.8-29.867-29.867-29.867
	l-318.933,1.067c-16,0-29.867,12.8-29.867,28.8v410.667C96,499.2,109.867,512,125.867,512z"/>
<path style="fill:#E8EAE9;" d="M416,29.867C416,12.8,403.2,0,386.133,0H67.2c-16,0-29.867,12.8-29.867,29.867v410.667
	c0,16,12.8,29.867,29.867,29.867h229.333L416,350.933V29.867z"/>
<rect x="262.4" y="131.2" style="fill:#F3705A;" width="107.733" height="32"/>
<rect x="262.4" y="213.333" style="fill:#66C6B9;" width="107.733" height="32"/>
<g>
	<rect x="83.2" y="296.533" style="fill:#ADB3BA;" width="286.933" height="32"/>
	<rect x="83.2" y="378.667" style="fill:#ADB3BA;" width="160" height="32"/>
</g>
<path style="fill:#CED6E0;" d="M416,350.933h-89.6c-16,0-28.8,12.8-29.867,28.8v89.6L416,350.933z"/>
<g>
	<path style="fill:#415A6B;" d="M230.4,221.867v23.467H83.2v-22.4c0-40.533,33.067-73.6,73.6-73.6
		C197.333,148.267,230.4,181.333,230.4,221.867z"/>
	<circle style="fill:#415A6B;" cx="160" cy="89.6" r="40.533"/>
</g>
<g>
</g>
<g>
</g>
<g>
</g>
<g>
</g>
<g>
</g>
<g>
</g>
<g>
</g>
<g>
</g>
<g>
</g>
<g>
</g>
<g>
</g>
<g>
</g>
<g>
</g>
<g>
</g>
<g>
</g>
</svg>
