<?xml version="1.0" encoding="iso-8859-1"?>
<!-- Generator: Adobe Illustrator 19.0.0, SVG Export Plug-In . SVG Version: 6.00 Build 0)  -->
<svg version="1.1" id="Capa_1" xmlns="http://www.w3.org/2000/svg" xmlns:xlink="http://www.w3.org/1999/xlink" x="0px" y="0px"
	 viewBox="0 0 512.171 512.171" style="enable-background:new 0 0 512.171 512.171;" xml:space="preserve">
<polygon style="fill:#66C6B9;" points="311.019,391.637 290.752,411.904 256.619,376.704 221.419,411.904 201.152,391.637 
	241.685,351.104 241.685,304.171 270.485,304.171 270.485,351.104 "/>
<g>
	<path style="fill:#FFD15C;" d="M373.952,356.437c1.067,6.4-1.067,12.8-4.267,13.867c-4.267,1.067-8.533-4.267-9.6-10.667
		c-1.067-6.4,1.067-12.8,4.267-13.867C367.552,344.704,372.885,350.037,373.952,356.437z"/>
	<path style="fill:#FFD15C;" d="M447.552,359.637c-1.067,6.4-5.333,11.733-9.6,10.667s-6.4-7.467-4.267-13.867
		c2.133-6.4,5.333-11.733,9.6-10.667C446.485,346.837,448.619,352.171,447.552,359.637z"/>
</g>
<path style="fill:#415A6B;" d="M443.285,339.371c0,28.8-18.133,52.267-39.467,52.267c-21.333,0-40.533-23.467-40.533-52.267
	c0-44.8,18.133-52.267,39.467-52.267C424.085,287.104,443.285,294.571,443.285,339.371z"/>
<polygon style="fill:#CED6E0;" points="421.952,511.104 450.752,416.171 403.819,416.171 360.085,419.371 396.352,511.104 "/>
<polygon style="fill:#F3705A;" points="418.752,511.104 411.285,438.571 395.285,438.571 388.885,511.104 "/>
<polygon style="fill:#F05540;" points="411.285,438.571 418.752,432.171 403.819,416.171 387.819,432.171 395.285,438.571 "/>
<g>
	<path style="fill:#F3F3F3;" d="M378.219,390.571c0,0-1.067,10.667,11.733,17.067c12.8,7.467,12.8,8.533,12.8,8.533l-14.933,21.333
		l-16-24.533C372.885,412.971,371.819,404.437,378.219,390.571z"/>
	<path style="fill:#F3F3F3;" d="M428.352,390.571c0,0,1.067,10.667-11.733,17.067c-12.8,7.467-12.8,8.533-12.8,8.533l14.933,21.333
		l16-24.533C434.752,412.971,434.752,404.437,428.352,390.571z"/>
</g>
<path style="fill:#415A6B;" d="M338.752,483.371c0,0,2.133,17.067,3.2,27.733h-46.933c2.133-12.8,5.333-27.733,7.467-37.333
	c5.333-20.267,6.4-48,18.133-51.2c11.733-4.267,36.267,29.867,36.267,29.867L338.752,483.371z"/>
<path style="fill:#344A5E;" d="M338.752,511.104c0-16,0-27.733,0-27.733c-1.067-19.2-18.133-60.8-18.133-60.8
	c4.267-1.067,41.6-13.867,43.733-13.867c-2.133,2.133,13.867,65.067,13.867,65.067s9.6,18.133,18.133,38.4h-57.6V511.104z"/>
<g>
	<path style="fill:#415A6B;" d="M400.619,511.104h-9.6c-2.133-4.267-4.267-8.533-6.4-11.733c-6.4-12.8-27.733-59.733-27.733-64
		l9.6-8.533l-9.6-4.267l7.467-14.933c0,0,6.4-3.2,10.667-10.667c0,0,3.2,33.067,5.333,40.533s12.8,51.2,14.933,58.667
		C397.419,499.371,398.485,504.704,400.619,511.104z"/>
	<path style="fill:#415A6B;" d="M464.619,511.104c1.067-11.733,3.2-27.733,3.2-27.733l-18.133-30.933
		c0,0,24.533-34.133,36.267-29.867c11.733,4.267,12.8,32,18.133,51.2c3.2,9.6,5.333,24.533,7.467,37.333H464.619z"/>
</g>
<path style="fill:#344A5E;" d="M467.819,511.104h-58.667c8.533-20.267,18.133-38.4,18.133-38.4s16-62.933,13.867-65.067
	c2.133,1.067,40.533,12.8,43.733,13.867c0,0-17.067,41.6-18.133,60.8C467.819,483.371,467.819,495.104,467.819,511.104z"/>
<path style="fill:#415A6B;" d="M449.685,435.371c0,4.267-21.333,51.2-27.733,64c-1.067,3.2-3.2,7.467-6.4,11.733h-9.6
	c2.133-6.4,4.267-11.733,4.267-14.933c2.133-7.467,12.8-51.2,14.933-58.667c2.133-7.467,5.333-40.533,5.333-40.533
	c4.267,7.467,10.667,10.667,10.667,10.667l7.467,14.933l-9.6,4.267L449.685,435.371z"/>
<path style="fill:#F7B64C;" d="M378.219,372.437v18.133c0,0-1.067,10.667,11.733,17.067c12.8,7.467,12.8,8.533,12.8,8.533
	s0-1.067,12.8-8.533c12.8-7.467,11.733-17.067,11.733-17.067v-18.133H378.219z"/>
<path style="fill:#FFD15C;" d="M440.085,352.171c0,26.667-16,48-36.267,48c-20.267,0-37.333-21.333-37.333-48
	c0-9.6,2.133-19.2,6.4-26.667c2.133-4.267,7.467-6.4,11.733-4.267c6.4,2.133,12.8,3.2,19.2,3.2c6.4,0,12.8-1.067,19.2-3.2
	c4.267-2.133,9.6,0,11.733,4.267C437.952,332.971,440.085,342.571,440.085,352.171z"/>
<g>
	<path style="fill:#344A5E;" d="M311.019,108.971c1.067,12.8,2.133,25.6,3.2,38.4c1.067,12.8,2.133,25.6,7.467,37.333
		s13.867,22.4,25.6,26.667c-13.867-2.133-26.667-9.6-35.2-19.2c-10.667-11.733-16-28.8-17.067-44.8c-1.067-16,1.067-32,4.267-48"/>
	<path style="fill:#344A5E;" d="M308.885,97.237c0,0,8.533,54.4-16,76.8c-21.333,19.2-33.067,1.067-33.067,1.067L308.885,97.237z"/>
	<path style="fill:#344A5E;" d="M206.485,38.571c-6.4,8.533-6.4,48-7.467,59.733c-1.067,11.733-1.067,22.4-2.133,33.067
		c-3.2,34.133-21.333,67.2-49.067,87.467c12.8,5.333,26.667,7.467,40.533,4.267c13.867-3.2,25.6-10.667,33.067-22.4
		c6.4-11.733,7.467-26.667,5.333-40.533c-2.133-21.333-8.533-41.6-10.667-62.933c-2.133-21.333-1.067-43.733,10.667-61.867"/>
	<path style="fill:#344A5E;" d="M314.219,89.771c-2.133,12.8-4.267,13.867-4.267,13.867s-16,0-17.067-3.2c0-2.133,0-37.333,0-57.6
		c5.333,4.267,9.6,8.533,10.667,13.867c2.133,14.933,2.133,36.267,2.133,36.267h2.133c0,0,2.133-49.067,1.067-55.467
		C314.219,60.971,316.352,78.037,314.219,89.771z"/>
</g>
<path style="fill:#FFD15C;" d="M308.885,92.971c-1.067-11.733-1.067-22.4-1.067-34.133c-5.333-13.867-13.867-27.733-17.067-28.8
	c-4.267-2.133-40.533-9.6-44.8-9.6c-4.267,1.067-13.867,7.467-27.733,22.4s-7.467,44.8-7.467,44.8s0,0,1.067,21.333
	s12.8,38.4,12.8,38.4v17.067l-4.267,45.867l48,57.6l27.733-13.867l3.2-70.4l-5.333-30.933c0,0,3.2-1.067,6.4-8.533
	c3.2-7.467,6.4-35.2,6.4-35.2s2.133-6.4,3.2-13.867C308.885,94.037,308.885,94.037,308.885,92.971z"/>
<path style="fill:#F7B64C;" d="M270.485,196.437c-34.133-6.4,7.467-8.533,22.4-42.667c-33.067,35.2-68.267-5.333-68.267-5.333l0,0
	l0,0v17.067l-4.267,45.867l13.867,17.067C253.419,216.704,275.819,197.504,270.485,196.437z"/>
<path style="fill:#F05540;" d="M386.752,271.104c-2.133-12.8-4.267-24.533-5.333-33.067c-4.267-23.467-22.4-37.333-37.333-44.8
	c-9.6-4.267-19.2-9.6-27.733-14.933h-1.067l-54.4,29.867l-46.933-29.867c0,0-11.733,6.4-25.6,11.733
	c-14.933,4.267-42.667,19.2-48,49.067c-1.067,8.533-3.2,20.267-5.333,33.067h251.733V271.104z"/>
<g>
	<path style="fill:#FFD15C;" d="M215.019,98.304c3.2,10.667,2.133,21.333-2.133,22.4c-4.267,1.067-9.6-6.4-12.8-17.067
		c-3.2-10.667-2.133-21.333,2.133-22.4C205.419,80.171,211.819,87.637,215.019,98.304z"/>
	<path style="fill:#FFD15C;" d="M317.419,99.371c3.2-10.667,2.133-21.333-2.133-22.4s-9.6,6.4-12.8,17.067
		c-3.2,10.667-2.133,21.333,2.133,22.4C308.885,118.571,314.219,110.037,317.419,99.371z"/>
</g>
<path style="fill:#344A5E;" d="M308.885,95.104h-2.133c0,0,0-21.333-2.133-36.267c-1.067-5.333-5.333-10.667-10.667-13.867
	c-9.6-6.4-22.4-10.667-25.6-10.667c-5.333,0-19.2,1.067-27.733,6.4c-8.533,5.333-18.133,18.133-23.467,29.867
	s-5.333,35.2-5.333,35.2h-1.067c0-14.933-7.467-25.6-7.467-25.6s-2.133-16-1.067-24.533c0-8.533,9.6-34.133,18.133-42.667
	c9.6-8.533,30.933-16,52.267-11.733c22.4,4.267,28.8,18.133,35.2,29.867l0,0c2.133,3.2,2.133,5.333,2.133,8.533
	C311.019,46.037,308.885,95.104,308.885,95.104z"/>
<path style="fill:#F3F3F3;" d="M209.685,177.237l19.2,54.4c5.333-8.533,17.067-16,32-24.533c-16-13.867-28.8-28.8-34.133-43.733
	L209.685,177.237z"/>
<path style="fill:#344A5E;" d="M219.285,138.837c3.2,7.467,7.467,13.867,9.6,22.4c2.133,8.533,3.2,16,1.067,23.467
	c-2.133,8.533-7.467,14.933-12.8,21.333c-5.333,6.4-11.733,12.8-16,19.2c-4.267,7.467-7.467,16-6.4,24.533
	c-6.4-18.133-1.067-40.533,12.8-54.4c-11.733,8.533-20.267,20.267-25.6,33.067c-5.333-9.6-4.267-22.4,2.133-30.933
	c6.4-9.6,17.067-13.867,24.533-22.4c8.533-9.6,11.733-22.4,8.533-34.133"/>
<path style="fill:#F3F3F3;" d="M311.019,177.237l-19.2,54.4c-5.333-8.533-17.067-16-32-24.533c16-13.867,28.8-28.8,34.133-43.733
	L311.019,177.237z"/>
<path style="fill:#344A5E;" d="M292.885,153.771c-7.467,19.2-14.933,40.533-12.8,60.8c1.067,10.667,12.8,8.533,11.733,33.067
	c12.8-13.867,24.533-30.933,27.733-49.067c3.2-18.133-3.2-38.4-9.6-55.467"/>
<path style="fill:#CED6E0;" d="M239.552,508.971c-5.333-23.467-7.467-52.267-20.267-56.533c0,0,0,0-1.067,0
	c-7.467-2.133-52.267-17.067-52.267-17.067s-7.467-4.267-12.8-12.8c0,0-1.067,11.733-3.2,23.467h-29.867l-29.867,1.067
	c-1.067-12.8-3.2-25.6-3.2-25.6c-5.333,8.533-12.8,12.8-12.8,12.8s-44.8,14.933-52.267,18.133c0,0,0,0-1.067,0
	c-12.8,4.267-14.933,33.067-20.267,56.533H239.552z"/>
<polygon style="fill:#F3705A;" points="138.219,508.971 129.685,472.704 110.485,472.704 101.952,508.971 "/>
<polygon style="fill:#F05540;" points="129.685,472.704 138.219,463.104 120.085,444.971 101.952,463.104 110.485,472.704 "/>
<path style="fill:#F7B64C;" d="M90.219,415.104c0,0-1.067,11.733,14.933,20.267s14.933,9.6,14.933,9.6s0-1.067,14.933-9.6
	s14.933-20.267,14.933-20.267v-43.733c0,0,1.067-11.733-14.933-20.267c-14.933-8.533-14.933-9.6-14.933-9.6s0,1.067-14.933,9.6
	c-14.933,8.533-14.933,20.267-14.933,20.267L90.219,415.104z"/>
<path style="fill:#FFD15C;" d="M157.419,378.837c-1.067,16-5.333,24.533-19.2,37.333c-6.4,5.333-12.8,7.467-18.133,8.533
	c-5.333,0-11.733-2.133-18.133-8.533c-13.867-12.8-18.133-20.267-19.2-37.333c-8.533-45.867-2.133-66.133,4.267-73.6
	c4.267-5.333,24.533-4.267,33.067-4.267c8.533-1.067,28.8-1.067,33.067,4.267C159.552,311.637,158.485,361.771,157.419,378.837z"/>
<path style="fill:#344A5E;" d="M156.352,363.904c0,0-4.267-16-4.267-26.667c0-10.667,0-22.4-7.467-23.467
	c-7.467-1.067-35.2,6.4-51.2,4.267c-16-2.133-13.867,11.733-12.8,14.933c1.067,3.2,1.067,33.067,1.067,33.067h-2.133
	c0,0,0-8.533-4.267-16c-3.2-7.467-6.4-27.733-2.133-40.533c4.267-11.733,12.8-19.2,25.6-22.4s38.4-2.133,46.933,3.2
	c8.533,5.333,18.133,19.2,19.2,30.933c1.067,21.333-6.4,25.6-7.467,36.267c0,6.4,0,6.4,0,6.4"/>
<g>
	<path style="fill:#F3F3F3;" d="M90.219,415.104c0,0-1.067,11.733,14.933,20.267s14.933,9.6,14.933,9.6l-18.133,24.533l-19.2-28.8
		C83.819,441.771,82.752,431.104,90.219,415.104z"/>
	<path style="fill:#F3F3F3;" d="M149.952,415.104c0,0,1.067,11.733-14.933,20.267s-14.933,9.6-14.933,9.6l18.133,24.533l19.2-28.8
		C157.419,441.771,157.419,431.104,149.952,415.104z"/>
</g>
<g>
	<path style="fill:#FFD15C;" d="M145.685,363.904c1.067,8.533,5.333,14.933,9.6,13.867c3.2,0,5.333-7.467,4.267-16
		c-1.067-8.533-5.333-14.933-9.6-13.867C145.685,348.971,144.619,355.371,145.685,363.904z"/>
	<path style="fill:#FFD15C;" d="M72.085,363.904c1.067,8.533,5.333,14.933,9.6,13.867c3.2,0,5.333-7.467,4.267-16
		c-1.067-8.533-5.333-14.933-9.6-13.867C73.152,348.971,71.019,355.371,72.085,363.904z"/>
</g>
<path style="fill:#344A5E;" d="M80.619,340.437l2.133,22.4h-1.067c0,0,0-12.8-3.2-17.067c-3.2-4.267-3.2-4.267-3.2-4.267
	L80.619,340.437"/>
<ellipse transform="matrix(0.1041 -0.9946 0.9946 0.1041 -218.905 482.759)" style="fill:#FFD15C;" cx="158.51" cy="362.886" rx="14.934" ry="6.4"/>
<path style="fill:#344A5E;" d="M152.085,331.904v30.933h2.133c0-7.467,0-13.867,3.2-19.2L152.085,331.904z"/>
<g>
</g>
<g>
</g>
<g>
</g>
<g>
</g>
<g>
</g>
<g>
</g>
<g>
</g>
<g>
</g>
<g>
</g>
<g>
</g>
<g>
</g>
<g>
</g>
<g>
</g>
<g>
</g>
<g>
</g>
</svg>
