<?xml version="1.0" encoding="iso-8859-1"?>
<!-- Generator: Adobe Illustrator 19.0.0, SVG Export Plug-In . SVG Version: 6.00 Build 0)  -->
<svg version="1.1" id="Capa_1" xmlns="http://www.w3.org/2000/svg" xmlns:xlink="http://www.w3.org/1999/xlink" x="0px" y="0px"
	 viewBox="0 0 512 512" style="enable-background:new 0 0 512 512;" xml:space="preserve">
<polygon style="fill:#FFD15C;" points="164.267,246.149 153.6,347.482 282.667,347.482 282.667,248.282 "/>
<path style="fill:#E8EAE9;" d="M293.333,478.682l-10.667-188.8H281.6c-8.533,22.4-32,39.467-58.667,39.467
	s-50.133-17.067-58.667-39.467H163.2l-10.667,188.8H293.333z"/>
<g>
	<path style="fill:#FFD15C;" d="M275.2,278.149v-78.933c7.467-13.867,10.667-51.2,10.667-51.2V56.282L217.6,23.215l-56.533,34.133
		l-14.933,39.467l11.733,72.533c0,0,4.267,26.667,12.8,39.467v76.8L275.2,278.149z"/>
	
		<ellipse transform="matrix(0.24 -0.9708 0.9708 0.24 85.5275 392.3185)" style="fill:#FFD15C;" cx="293.323" cy="141.536" rx="27.734" ry="12.8"/>
	
		<ellipse transform="matrix(0.24 0.9708 -0.9708 0.24 255.1507 -31.9282)" style="fill:#FFD15C;" cx="147.967" cy="146.991" rx="27.734" ry="12.8"/>
</g>
<path style="fill:#415A6B;" d="M151.467,141.615c1.067,4.267,3.2,12.8,4.267,17.067h2.133c-1.067-4.267-2.133-12.8-2.133-18.133
	c1.067-7.467-1.067-20.267,3.2-28.8c4.267-7.467-1.067-19.2,0-23.467c1.067-4.267-4.267-12.8,22.4-23.467s42.667-18.133,62.933-16
	s36.267,25.6,27.733,42.667c0,0-2.133,7.467,2.133,12.8c4.267,5.333,6.4,13.867,6.4,21.333c0,6.4,0,25.6,0,33.067h3.2
	c2.133-3.2,2.133-21.333,8.533-36.267c5.333-12.8,8.533-25.6,9.6-39.467c2.133-28.8,0-59.733-38.4-61.867
	c0,0-6.4-27.733-52.267-19.2s-66.133,39.467-69.333,55.467c-3.2,16-2.133,44.8,0,55.467
	C144,124.549,149.333,135.215,151.467,141.615z"/>
<path style="fill:#F7B64C;" d="M216.533,245.082c-28.8,0-45.867-36.267-45.867-36.267v73.6c7.467-3.2,22.4-6.4,35.2-11.733
	c58.667-22.4,69.333-73.6,69.333-73.6S252.8,246.149,216.533,245.082z"/>
<path style="fill:#415A6B;" d="M445.867,478.682c0-9.6-22.4-86.4-25.6-133.333S403.2,295.215,403.2,295.215l-44.8-5.333
	c-21.333,19.2-18.133,110.933-11.733,188.8H445.867z"/>
<path style="fill:#344A5E;" d="M365.867,478.682c-4.267-35.2-7.467-66.133-6.4-81.067c3.2-44.8,42.667-102.4,42.667-102.4
	C372.267,280.282,297.6,267.482,297.6,267.482l-55.467,203.733l-1.067,7.467H365.867z"/>
<g>
	<path style="fill:#415A6B;" d="M256,478.682c11.733-35.2,26.667-75.733,33.067-89.6c7.467-16,14.933-46.933,19.2-67.2
		c4.267-21.333,2.133-43.733-8.533-62.933c-5.333-9.6-12.8-20.267-24.533-26.667c0,0-2.133,44.8-10.667,73.6
		c-6.4,21.333-21.333,110.933-26.667,173.867H256V478.682z"/>
	<path style="fill:#415A6B;" d="M100.267,478.682c6.4-77.867,9.6-169.6-11.733-188.8l-44.8,5.333c0,0-13.867,3.2-17.067,50.133
		C22.4,392.282,0,469.082,0,478.682H100.267z"/>
</g>
<path style="fill:#344A5E;" d="M80,478.682h124.8l-1.067-7.467l-55.467-203.733c0,0-74.667,13.867-104.533,27.733
	c0,0,39.467,57.6,42.667,102.4C87.467,412.549,84.267,443.482,80,478.682z"/>
<path style="fill:#415A6B;" d="M156.8,389.082c6.4,12.8,21.333,54.4,33.067,89.6H208c-5.333-62.933-20.267-152.533-26.667-173.867
	c-8.533-28.8-10.667-73.6-10.667-73.6c-10.667,7.467-18.133,17.067-24.533,26.667c-10.667,19.2-12.8,41.6-8.533,62.933
	S149.333,374.149,156.8,389.082z"/>
<path style="fill:#E8EAE9;" d="M512,285.615v206.933c0,10.667-8.533,19.2-19.2,19.2H331.733c-10.667,0-19.2-8.533-19.2-19.2V285.615
	c0-10.667,8.533-19.2,19.2-19.2H492.8C503.467,266.415,512,274.949,512,285.615z"/>
<g>
	<rect x="332.8" y="287.749" style="fill:#ADB3BA;" width="157.867" height="13.867"/>
	<rect x="332.8" y="321.882" style="fill:#ADB3BA;" width="157.867" height="13.867"/>
	<rect x="332.8" y="358.149" style="fill:#ADB3BA;" width="89.6" height="13.867"/>
</g>
<path style="fill:#66C6B9;" d="M453.333,470.149c5.333-7.467,7.467-17.067,7.467-26.667h-34.133L453.333,470.149z"/>
<path style="fill:#F3705A;" d="M411.733,443.482v-49.067c-26.667,0-49.067,22.4-49.067,49.067c0,26.667,22.4,49.067,49.067,49.067
	c13.867,0,25.6-5.333,35.2-14.933L411.733,443.482z"/>
<path style="fill:#415A6B;" d="M422.4,395.482v37.333h37.333C455.467,414.682,441.6,399.749,422.4,395.482z"/>
<g>
</g>
<g>
</g>
<g>
</g>
<g>
</g>
<g>
</g>
<g>
</g>
<g>
</g>
<g>
</g>
<g>
</g>
<g>
</g>
<g>
</g>
<g>
</g>
<g>
</g>
<g>
</g>
<g>
</g>
</svg>
