<?xml version="1.0" encoding="iso-8859-1"?>
<!-- Generator: Adobe Illustrator 19.0.0, SVG Export Plug-In . SVG Version: 6.00 Build 0)  -->
<svg version="1.1" id="Capa_1" xmlns="http://www.w3.org/2000/svg" xmlns:xlink="http://www.w3.org/1999/xlink" x="0px" y="0px"
	 viewBox="0 0 512 512" style="enable-background:new 0 0 512 512;" xml:space="preserve">
<path style="fill:#344A5E;" d="M3.2,465.067L0,512h194.133l-3.2-46.933c-1.067-14.933-12.8-26.667-27.733-27.733l-66.133-6.4
	l-67.2,6.4C16,438.4,4.267,450.133,3.2,465.067z"/>
<path style="fill:#F7B64C;" d="M123.733,427.733c0,14.933-27.733,24.533-27.733,24.533S68.267,441.6,68.267,427.733v-54.4h54.4
	L123.733,427.733z"/>
<polygon style="fill:#CED6E0;" points="76.8,512 110.933,512 131.2,454.4 125.867,449.067 97.067,452.267 64,449.067 75.733,508.8 
	"/>
<g>
	<polygon style="fill:#F05540;" points="103.467,470.4 108.8,465.067 97.067,452.267 84.267,465.067 89.6,470.4 	"/>
	<polygon style="fill:#F05540;" points="110.933,512 103.467,470.4 89.6,470.4 83.2,512 	"/>
</g>
<g>
	<ellipse style="fill:#FFD15C;" cx="97.067" cy="369.067" rx="44.8" ry="58.667"/>
	<path style="fill:#FFD15C;" d="M43.733,373.333c1.067,7.467,5.333,13.867,9.6,12.8c5.333,0,8.533-7.467,7.467-14.933
		c-1.067-7.467-5.333-12.8-9.6-12.8C46.933,358.4,42.667,364.8,43.733,373.333z"/>
	<path style="fill:#FFD15C;" d="M150.4,373.333c-1.067,7.467-5.333,13.867-9.6,12.8c-5.333,0-8.533-7.467-7.467-14.933
		c1.067-7.467,5.333-12.8,9.6-12.8S150.4,364.8,150.4,373.333z"/>
</g>
<g>
	<path style="fill:#415A6B;" d="M122.667,346.667c0,0,12.8,6.4,12.8,18.133v6.4h3.2c0,0,6.4-12.8,0-24.533
		c-6.4-12.8-14.933,0-14.933,0"/>
	<path style="fill:#415A6B;" d="M70.4,346.667c0,0-12.8,6.4-12.8,18.133v6.4h-3.2c0,0-6.4-12.8,0-24.533c6.4-12.8,14.933,0,14.933,0
		"/>
</g>
<path style="fill:#FFD15C;" d="M146.133,348.8c0-1.067,0-2.133,0-2.133c0-27.733-22.4-49.067-49.067-49.067S48,320,48,346.667
	c0,1.067,0,2.133,0,2.133H146.133z"/>
<path style="fill:#F05540;" d="M146.133,348.8c0-1.067,0-2.133,0-2.133c0-27.733-22.4-49.067-49.067-49.067S48,320,48,346.667
	c0,1.067,0,2.133,0,2.133H146.133z"/>
<g>
	<path style="fill:#F3705A;" d="M146.133,356.267h-99.2c-4.267,0-7.467-3.2-7.467-7.467s4.267-7.467,7.467-7.467h99.2
		c4.267,0,7.467,3.2,7.467,7.467S150.4,356.267,146.133,356.267z"/>
	<path style="fill:#F3705A;" d="M114.133,298.667L108.8,329.6c0,1.067-1.067,2.133-3.2,2.133H87.467
		c-1.067,0-2.133-1.067-2.133-2.133L80,298.667c0-1.067,1.067-3.2,2.133-3.2c4.267-1.067,9.6-2.133,14.933-2.133
		c5.333,0,10.667,1.067,14.933,2.133C113.067,295.467,114.133,297.6,114.133,298.667z"/>
</g>
<polygon style="fill:#F3F3F3;" points="123.733,422.4 97.067,452.267 114.133,469.333 132.267,432 "/>
<path style="fill:#415A6B;" d="M128,512c9.6-16,17.067-33.067,22.4-50.133L137.6,448l12.8-5.333l-23.467-16
	c-4.267,25.6-10.667,54.4-19.2,85.333H128z"/>
<polygon style="fill:#F3F3F3;" points="69.333,422.4 97.067,452.267 80,469.333 61.867,432 "/>
<path style="fill:#415A6B;" d="M66.133,512h19.2c-8.533-30.933-14.933-59.733-19.2-85.333l-22.4,16l12.8,5.333l-12.8,13.867
	C49.067,478.933,56.533,496,66.133,512z"/>
<path style="fill:#344A5E;" d="M321.067,465.067l-3.2,46.933H512l-3.2-46.933c-1.067-14.933-12.8-26.667-27.733-27.733l-65.067-6.4
	l-67.2,6.4C333.867,438.4,322.133,450.133,321.067,465.067z"/>
<path style="fill:#F7B64C;" d="M442.667,427.733c0,14.933-27.733,24.533-27.733,24.533S387.2,441.6,387.2,427.733v-54.4h54.4
	L442.667,427.733z"/>
<polygon style="fill:#CED6E0;" points="395.733,512 429.867,512 449.067,454.4 444.8,449.067 414.933,452.267 382.933,449.067 
	393.6,508.8 "/>
<g>
	<polygon style="fill:#F05540;" points="422.4,470.4 427.733,465.067 414.933,452.267 403.2,465.067 408.533,470.4 	"/>
	<polygon style="fill:#F05540;" points="428.8,512 422.4,470.4 408.533,470.4 401.067,512 	"/>
</g>
<g>
	<ellipse style="fill:#FFD15C;" cx="414.933" cy="369.067" rx="44.8" ry="58.667"/>
	<path style="fill:#FFD15C;" d="M361.6,373.333c1.067,7.467,5.333,13.867,9.6,12.8c5.333,0,8.533-7.467,7.467-14.933
		s-5.333-12.8-9.6-12.8C364.8,358.4,361.6,364.8,361.6,373.333z"/>
	<path style="fill:#FFD15C;" d="M468.267,373.333c-1.067,7.467-5.333,13.867-9.6,12.8c-5.333,0-8.533-7.467-7.467-14.933
		s5.333-12.8,9.6-12.8C465.067,358.4,469.333,364.8,468.267,373.333z"/>
</g>
<g>
	<path style="fill:#415A6B;" d="M441.6,346.667c0,0,12.8,6.4,12.8,18.133v6.4h3.2c0,0,6.4-12.8,0-24.533
		c-6.4-12.8-14.933,0-14.933,0"/>
	<path style="fill:#415A6B;" d="M389.333,346.667c0,0-12.8,6.4-12.8,18.133v6.4h-3.2c0,0-6.4-12.8,0-24.533
		c6.4-12.8,14.933,0,14.933,0"/>
</g>
<path style="fill:#FFD15C;" d="M465.067,348.8c0-1.067,0-2.133,0-2.133c0-27.733-22.4-49.067-49.067-49.067
	c-27.733,0-49.067,22.4-49.067,49.067c0,1.067,0,2.133,0,2.133H465.067z"/>
<path style="fill:#F05540;" d="M465.067,348.8c0-1.067,0-2.133,0-2.133c0-27.733-22.4-49.067-49.067-49.067
	c-27.733,0-49.067,22.4-49.067,49.067c0,1.067,0,2.133,0,2.133H465.067z"/>
<g>
	<path style="fill:#F3705A;" d="M465.067,356.267h-99.2c-4.267,0-7.467-3.2-7.467-7.467s3.2-7.467,7.467-7.467h99.2
		c4.267,0,7.467,3.2,7.467,7.467S468.267,356.267,465.067,356.267z"/>
	<path style="fill:#F3705A;" d="M432,298.667l-5.333,30.933c0,1.067-1.067,2.133-3.2,2.133h-18.133c-1.067,0-2.133-1.067-3.2-2.133
		l-4.267-30.933c0-1.067,1.067-3.2,2.133-3.2c4.267-1.067,9.6-2.133,14.933-2.133c5.333,0,10.667,1.067,14.933,2.133
		C432,295.467,432,297.6,432,298.667z"/>
</g>
<polygon style="fill:#F3F3F3;" points="442.667,422.4 414.933,452.267 432,469.333 450.133,432 "/>
<path style="fill:#415A6B;" d="M445.867,512c9.6-16,17.067-33.067,22.4-50.133L455.467,448l12.8-5.333l-22.4-16
	c-4.267,25.6-10.667,54.4-19.2,85.333H445.867z"/>
<polygon style="fill:#F3F3F3;" points="388.267,422.4 414.933,452.267 397.867,469.333 379.733,432 "/>
<g>
	<path style="fill:#415A6B;" d="M384,512h19.2c-8.533-30.933-14.933-59.733-19.2-85.333l-22.4,16L374.4,448l-12.8,13.867
		C366.933,478.933,374.4,496,384,512z"/>
	<path style="fill:#415A6B;" d="M297.6,38.4c0,42.667-18.133,72.533-40.533,72.533S216.533,81.067,216.533,38.4
		c0-35.2,18.133-38.4,40.533-38.4S297.6,3.2,297.6,38.4z"/>
</g>
<path style="fill:#F7B64C;" d="M231.467,85.333v22.4c0,0-5.333,23.467,3.2,38.4c26.667-5.333,56.533-8.533,48-38.4v-22.4H231.467z"
	/>
<polygon style="fill:#CED6E0;" points="283.733,224 308.267,140.8 246.4,140.8 217.6,132.267 219.733,224 "/>
<polygon style="fill:#F05540;" points="272,224 263.467,162.133 248.533,162.133 240,224 "/>
<polygon style="fill:#F3705A;" points="263.467,162.133 270.933,154.667 256,140.8 241.067,154.667 248.533,162.133 "/>
<path style="fill:#F3F3F3;" d="M230.4,108.8c0,0-2.133,7.467,0,11.733C232.533,124.8,256,140.8,256,140.8l-21.333,21.333
	L220.8,134.4l4.267-16c1.067-2.133,2.133-4.267,3.2-6.4C228.267,109.867,229.333,108.8,230.4,108.8z"/>
<path style="fill:#344A5E;" d="M232.533,224l-13.867-65.067l3.2-29.867l-46.933,19.2c-9.6,4.267-17.067,13.867-17.067,25.6
	l-3.2,50.133H232.533z"/>
<polygon style="fill:#415A6B;" points="219.733,224 238.933,224 225.067,117.333 202.667,158.933 214.4,157.867 199.467,170.667 "/>
<path style="fill:#F3F3F3;" d="M281.6,108.8c0,0,2.133,7.467,0,11.733C279.467,124.8,256,140.8,256,140.8l21.333,21.333L291.2,134.4
	l-4.267-16c-1.067-2.133-2.133-4.267-3.2-6.4C283.733,109.867,282.667,108.8,281.6,108.8z"/>
<path style="fill:#344A5E;" d="M357.333,224l-3.2-50.133c-1.067-10.667-7.467-20.267-17.067-25.6l-46.933-19.2l3.2,29.867
	L279.467,224H357.333z"/>
<polygon style="fill:#415A6B;" points="273.067,224 292.267,224 312.533,170.667 297.6,157.867 309.333,158.933 286.933,117.333 "/>
<g>
	<path style="fill:#FFD15C;" d="M293.333,64c-2.133-9.6-1.067-18.133-8.533-26.667l0,0C280.533,32,272,32,266.667,36.267
		c-6.4,5.333-14.933,8.533-25.6,8.533c-5.333,0-10.667-1.067-14.933-3.2c-2.133,4.267-4.267,18.133-4.267,19.2
		c-1.067,4.267-1.067,8.533-1.067,13.867c0,26.667,16,49.067,35.2,49.067c19.2,0,35.2-22.4,35.2-49.067c0-1.067,0-2.133,0-2.133
		C293.333,70.4,294.4,67.2,293.333,64z"/>
	
		<ellipse transform="matrix(0.1366 0.9906 -0.9906 0.1366 266.3716 -154.1981)" style="fill:#FFD15C;" cx="221.646" cy="75.713" rx="13.866" ry="6.4"/>
	
		<ellipse transform="matrix(0.1366 -0.9906 0.9906 0.1366 180.2099 356.2132)" style="fill:#FFD15C;" cx="294.457" cy="74.724" rx="13.866" ry="6.4"/>
</g>
<path style="fill:#E8EAE9;" d="M381.867,234.667H130.133c-8.533,0-14.933-6.4-14.933-14.933l0,0c0-8.533,6.4-14.933,14.933-14.933
	h252.8c8.533,0,14.933,6.4,14.933,14.933l0,0C396.8,228.267,390.4,234.667,381.867,234.667z"/>
<rect x="145.067" y="234.667" style="fill:#ADB3BA;" width="222.933" height="64"/>
<rect x="187.733" y="266.667" style="fill:#E8EAE9;" width="136.533" height="30.933"/>
<path style="fill:#66C6B9;" d="M306.133,423.467c-2.133,2.133-4.267,3.2-7.467,3.2c-2.133,0-4.267-1.067-6.4-2.133l-36.267-32
	l-36.267,30.933c-4.267,3.2-10.667,3.2-13.867-1.067s-3.2-10.667,1.067-13.867L246.4,374.4v-42.667c0-5.333,4.267-9.6,9.6-9.6
	s9.6,4.267,9.6,9.6V374.4l39.467,34.133C309.333,412.8,309.333,419.2,306.133,423.467z"/>
<g>
</g>
<g>
</g>
<g>
</g>
<g>
</g>
<g>
</g>
<g>
</g>
<g>
</g>
<g>
</g>
<g>
</g>
<g>
</g>
<g>
</g>
<g>
</g>
<g>
</g>
<g>
</g>
<g>
</g>
</svg>
