<?xml version="1.0" encoding="iso-8859-1"?>
<!-- Generator: Adobe Illustrator 19.0.0, SVG Export Plug-In . SVG Version: 6.00 Build 0)  -->
<svg version="1.1" id="Capa_1" xmlns="http://www.w3.org/2000/svg" xmlns:xlink="http://www.w3.org/1999/xlink" x="0px" y="0px"
	 viewBox="0 0 513.067 513.067" style="enable-background:new 0 0 513.067 513.067;" xml:space="preserve">
<path style="fill:#344A5E;" d="M420.427,512V382.933c0-94.933-420.267-94.933-420.267,0V512H420.427z"/>
<path style="fill:#F7B64C;" d="M274.293,314.667c0,34.133-64,58.667-64,58.667s-64-23.467-64-58.667v-128h128V314.667z"/>
<polygon style="fill:#CED6E0;" points="163.36,512 244.427,512 290.293,376.533 278.56,363.733 210.293,373.333 133.493,363.733 
	160.16,504.533 "/>
<g>
	<polygon style="fill:#F05540;" points="226.293,416 239.093,402.133 210.293,373.333 181.493,402.133 194.293,416 	"/>
	<polygon style="fill:#F05540;" points="242.293,512 226.293,416 194.293,416 178.293,512 	"/>
</g>
<g>
	<ellipse style="fill:#FFD15C;" cx="210.293" cy="177.067" rx="104.533" ry="137.6"/>
	<path style="fill:#FFD15C;" d="M86.56,186.667c1.067,18.133,11.733,30.933,23.467,29.867c11.733-1.067,19.2-16,18.133-34.133
		c-1.067-18.133-11.733-30.933-23.467-29.867C92.96,153.6,84.427,168.533,86.56,186.667z"/>
	<path style="fill:#FFD15C;" d="M334.027,186.667c-1.067,18.133-11.733,30.933-23.467,29.867c-11.733-1.067-19.2-16-18.133-34.133
		c1.067-18.133,11.733-30.933,23.467-29.867C327.627,153.6,336.16,168.533,334.027,186.667z"/>
</g>
<g>
	<path style="fill:#415A6B;" d="M272.16,125.867c0,0,28.8,16,30.933,42.667v16h6.4c0,0,14.933-28.8,0-58.667
		c-14.933-28.8-34.133,0-34.133,0"/>
	<path style="fill:#415A6B;" d="M148.427,125.867c0,0-28.8,16-30.933,42.667v16h-6.4c0,0-14.933-28.8,0-58.667s34.133,0,34.133,0"/>
</g>
<path style="fill:#FFD15C;" d="M325.493,129.067c0-2.133,0-4.267,0-6.4c0-64-52.267-116.267-116.267-116.267
	s-115.2,53.333-115.2,117.333c0,2.133,0,4.267,0,6.4h231.467V129.067z"/>
<path style="fill:#F05540;" d="M325.493,129.067c0-2.133,0-4.267,0-6.4c0-64-52.267-116.267-116.267-116.267
	s-115.2,53.333-115.2,117.333c0,2.133,0,4.267,0,6.4h231.467V129.067z"/>
<g>
	<path style="fill:#F3705A;" d="M325.493,147.2h-230.4c-9.6,0-17.067-7.467-17.067-17.067s7.467-17.067,17.067-17.067H326.56
		c9.6,0,17.067,7.467,17.067,17.067S335.093,147.2,325.493,147.2z"/>
	<path style="fill:#F3705A;" d="M249.76,12.8l-11.733,72.533c0,3.2-3.2,5.333-6.4,5.333h-41.6c-3.2,0-5.333-2.133-6.4-5.333
		l-12.8-72.533c0-3.2,1.067-6.4,4.267-7.467c10.667-3.2,22.4-5.333,35.2-5.333c11.733,0,24.533,2.133,35.2,5.333
		C248.693,6.4,249.76,9.6,249.76,12.8z"/>
</g>
<polygon style="fill:#F3F3F3;" points="274.293,302.933 210.293,373.333 249.76,412.8 292.427,325.333 "/>
<path style="fill:#415A6B;" d="M281.76,512c22.4-37.333,40.533-76.8,52.267-118.4l-29.867-30.933l29.867-12.8l-53.333-37.333
	c-9.6,59.733-24.533,128-43.733,200.533h44.8V512z"/>
<polygon style="fill:#F3F3F3;" points="146.293,302.933 210.293,373.333 170.827,412.8 128.16,325.333 "/>
<path style="fill:#415A6B;" d="M137.76,512h44.8c-19.2-72.533-34.133-140.8-43.733-200.533L85.493,348.8l29.867,12.8l-29.867,32
	C97.227,435.2,115.36,474.667,137.76,512z"/>
<rect x="319.028" y="363.734" transform="matrix(0.7071 -0.7071 0.7071 0.7071 -160.5768 387.8)" style="fill:#CED6E0;" width="137.599" height="48"/>
<path style="fill:#66C6B9;" d="M367.093,394.667l27.733-27.733c4.267-4.267,10.667-4.267,14.933,0l0,0
	c4.267,4.267,4.267,10.667,0,14.933L382.027,409.6c-4.267,4.267-10.667,4.267-14.933,0l0,0
	C362.827,404.267,362.827,397.867,367.093,394.667z"/>
<g>
	<path style="fill:#E8EAE9;" d="M294.56,446.933l-27.733,27.733c-6.4-19.2-2.133-40.533,12.8-55.467
		c20.267-20.267,53.333-21.333,74.667-2.133C377.76,438.4,378.827,473.6,356.427,496c-14.933,14.933-36.267,19.2-55.467,12.8
		l28.8-28.8c0-13.867,0-21.333,0-34.133l0,0C315.893,446.933,308.427,446.933,294.56,446.933z"/>
	<path style="fill:#E8EAE9;" d="M481.227,328.533l28.8-28.8c6.4,19.2,2.133,40.533-12.8,55.467
		c-20.267,20.267-53.333,21.333-74.667,2.133C399.093,336,398.027,300.8,420.427,278.4c14.933-14.933,36.267-19.2,55.467-12.8
		l-28.8,28.8c0,13.867,0,21.333,0,34.133l0,0C459.893,328.533,467.36,328.533,481.227,328.533z"/>
</g>
<g>
</g>
<g>
</g>
<g>
</g>
<g>
</g>
<g>
</g>
<g>
</g>
<g>
</g>
<g>
</g>
<g>
</g>
<g>
</g>
<g>
</g>
<g>
</g>
<g>
</g>
<g>
</g>
<g>
</g>
</svg>
