<?xml version="1.0" encoding="iso-8859-1"?>
<!-- Generator: Adobe Illustrator 19.0.0, SVG Export Plug-In . SVG Version: 6.00 Build 0)  -->
<svg version="1.1" id="Capa_1" xmlns="http://www.w3.org/2000/svg" xmlns:xlink="http://www.w3.org/1999/xlink" x="0px" y="0px"
	 viewBox="0 0 514.133 514.133" style="enable-background:new 0 0 514.133 514.133;" xml:space="preserve">
<path style="fill:#66C6B9;" d="M513.067,177.067V140.8c0-4.267-3.2-8.533-7.467-9.6l-34.133-7.467c-2.133-8.533-5.333-16-9.6-23.467
	l19.2-28.8c2.133-4.267,2.133-9.6-1.067-12.8l-25.6-25.6c-3.2-3.2-8.533-4.267-12.8-1.067l-28.8,19.2
	c-7.467-4.267-14.933-7.467-23.467-9.6l-7.467-34.133C380.8,3.2,377.6,0,372.267,0H336c-4.267,0-8.533,3.2-9.6,7.467L318.933,41.6
	c-8.533,2.133-16,5.333-22.4,9.6l-28.8-19.2c-4.267-2.133-9.6-2.133-12.8,1.067l-25.6,25.6c-3.2,3.2-4.267,8.533-1.067,12.8
	l19.2,28.8c-4.267,7.467-7.467,14.933-9.6,22.4l-34.133,8.533c-4.267,1.067-7.467,5.333-7.467,9.6v36.267
	c0,4.267,3.2,8.533,7.467,9.6l34.133,7.467c2.133,8.533,5.333,16,9.6,22.4l-19.2,28.8c-2.133,4.267-2.133,9.6,1.067,12.8l25.6,25.6
	c3.2,3.2,8.533,4.267,12.8,1.067l28.8-19.2c7.467,4.267,14.933,7.467,22.4,9.6l7.467,34.133c1.067,4.267,5.333,7.467,9.6,7.467
	h36.267c4.267,0,8.533-3.2,9.6-7.467l7.467-34.133c8.533-2.133,16-5.333,23.467-9.6l28.8,19.2c4.267,2.133,9.6,2.133,12.8-1.067
	l25.6-25.6c3.2-3.2,4.267-8.533,1.067-12.8l-19.2-28.8c4.267-7.467,7.467-14.933,9.6-23.467L505.6,185.6
	C509.867,185.6,513.067,181.333,513.067,177.067z"/>
<path style="fill:#F3F3F3;" d="M354.133,252.8c-52.267,0-93.867-41.6-93.867-93.867s42.667-93.867,93.867-93.867
	c52.267-1.067,94.933,41.6,94.933,93.867S406.4,252.8,354.133,252.8z"/>
<path style="fill:#344A5E;" d="M370.133,184.533c-2.133,0-5.333-1.067-7.467-3.2l-16-16c-2.133-2.133-3.2-4.267-3.2-7.467V118.4
	c0-5.333,4.267-9.6,9.6-9.6c5.333,0,9.6,4.267,9.6,9.6v36.267l12.8,12.8c4.267,4.267,4.267,10.667,0,13.867
	C375.467,183.467,373.333,184.533,370.133,184.533z"/>
<g>
	<circle style="fill:#CED6E0;" cx="354.133" cy="88.533" r="8.533"/>
	<circle style="fill:#CED6E0;" cx="354.133" cy="228.267" r="8.533"/>
	<circle style="fill:#CED6E0;" cx="404.267" cy="108.8" r="8.533"/>
	<circle style="fill:#CED6E0;" cx="305.067" cy="208" r="8.533"/>
	<circle style="fill:#CED6E0;" cx="424.533" cy="158.933" r="8.533"/>
	<circle style="fill:#CED6E0;" cx="284.8" cy="158.933" r="8.533"/>
	<circle style="fill:#CED6E0;" cx="404.267" cy="208" r="8.533"/>
	<circle style="fill:#CED6E0;" cx="305.067" cy="108.8" r="8.533"/>
</g>
<path style="fill:#344A5E;" d="M393.6,512l-12.8-82.133c-5.333-33.067-29.867-58.667-62.933-64l-118.4-21.333l-121.6,21.333
	c-33.067,5.333-57.6,32-62.933,64L1.067,512H393.6z"/>
<path style="fill:#F7B64C;" d="M250.667,334.933c0,28.8-53.333,49.067-53.333,49.067S144,363.733,144,334.933V228.267h106.667
	V334.933z"/>
<polygon style="fill:#CED6E0;" points="164.267,512 220.8,512 264.533,386.133 253.867,375.467 197.333,384 133.333,375.467 
	155.733,492.8 "/>
<g>
	<path style="fill:#F3705A;" d="M210.133,419.2l10.667-10.667c0,0-16-24.533-24.533-24.533s-24.533,24.533-24.533,24.533
		L182.4,419.2H210.133z"/>
	<polygon style="fill:#F3705A;" points="226.133,512 210.133,419.2 184.533,419.2 168.533,512 	"/>
</g>
<g>
	<ellipse style="fill:#FFD15C;" cx="197.333" cy="219.733" rx="87.467" ry="114.133"/>
	<path style="fill:#FFD15C;" d="M93.867,228.267c1.067,14.933,9.6,25.6,19.2,24.533c9.6-1.067,16-13.867,14.933-28.8
		c-1.067-14.933-9.6-25.6-19.2-24.533S92.8,213.333,93.867,228.267z"/>
	<path style="fill:#FFD15C;" d="M300.8,228.267c-1.067,14.933-9.6,25.6-19.2,24.533c-9.6-1.067-16-13.867-14.933-28.8
		c1.067-14.933,9.6-25.6,19.2-24.533S301.867,213.333,300.8,228.267z"/>
</g>
<g>
	<path style="fill:#415A6B;" d="M248.533,178.133c0,0,23.467,12.8,25.6,35.2v12.8h5.333c0,0,12.8-24.533,0-49.067
		c-12.8-24.533-27.733,0-27.733,0"/>
	<path style="fill:#415A6B;" d="M146.133,178.133c0,0-23.467,12.8-25.6,35.2v12.8H115.2c0,0-12.8-24.533,0-49.067s27.733,0,27.733,0
		"/>
</g>
<path style="fill:#FFD15C;" d="M293.333,180.267c0-2.133,0-3.2,0-5.333c0-53.333-42.667-96-96-96s-96,42.667-96,96
	c0,2.133,0,3.2,0,5.333H293.333z"/>
<path style="fill:#F05540;" d="M293.333,180.267c0-2.133,0-3.2,0-5.333c0-53.333-42.667-96-96-96s-96,42.667-96,96
	c0,2.133,0,3.2,0,5.333H293.333z"/>
<g>
	<path style="fill:#F3705A;" d="M293.333,195.2h-192c-8.533,0-14.933-6.4-14.933-14.933s6.4-14.933,14.933-14.933h192
		c8.533,0,14.933,6.4,14.933,14.933S301.867,195.2,293.333,195.2z"/>
	<path style="fill:#F3705A;" d="M230.4,83.2l-9.6,59.733c0,2.133-2.133,4.267-5.333,4.267h-35.2c-2.133,0-5.333-2.133-5.333-4.267
		l-9.6-59.733c0-2.133,1.067-5.333,3.2-6.4c9.6-3.2,19.2-4.267,28.8-4.267c10.667,0,20.267,2.133,28.8,4.267
		C229.333,77.867,230.4,81.067,230.4,83.2z"/>
</g>
<path style="fill:#F3F3F3;" d="M250.667,325.333c-12.8,25.6-29.867,45.867-53.333,58.667c11.733,8.533,22.4,19.2,33.067,33.067
	l36.267-72.533L250.667,325.333z"/>
<path style="fill:#415A6B;" d="M249.6,512c22.4-35.2,40.533-72.533,51.2-110.933l-24.533-25.6L300.8,364.8l-43.733-30.933
	C248.533,387.2,234.667,448,217.6,514.133h32V512z"/>
<path style="fill:#F3F3F3;" d="M144,325.333c10.667,22.4,28.8,41.6,53.333,58.667c-14.933,8.533-25.6,19.2-33.067,32L128,343.467
	L144,325.333z"/>
<path style="fill:#415A6B;" d="M145.067,512h33.067c-17.067-65.067-32-126.933-39.467-180.267l-43.733,30.933l24.533,10.667
	l-24.533,25.6C104.533,439.467,122.667,476.8,145.067,512z"/>
<g>
</g>
<g>
</g>
<g>
</g>
<g>
</g>
<g>
</g>
<g>
</g>
<g>
</g>
<g>
</g>
<g>
</g>
<g>
</g>
<g>
</g>
<g>
</g>
<g>
</g>
<g>
</g>
<g>
</g>
</svg>
