<?xml version="1.0" encoding="iso-8859-1"?>
<!-- Generator: Adobe Illustrator 19.0.0, SVG Export Plug-In . SVG Version: 6.00 Build 0)  -->
<svg version="1.1" id="Capa_1" xmlns="http://www.w3.org/2000/svg" xmlns:xlink="http://www.w3.org/1999/xlink" x="0px" y="0px"
	 viewBox="0 0 512.8 512.8" style="enable-background:new 0 0 512.8 512.8;" xml:space="preserve">
<path style="fill:#344A5E;" d="M469.067,512.757c-4.267-18.133-14.933-36.267-20.267-50.133
	c-7.467-18.133-26.667-71.467-26.667-86.4c-1.067-14.933-17.067-45.867-17.067-45.867l-80,96l35.2,85.333h108.8V512.757z"/>
<g>
	<path style="fill:#FFD15C;" d="M302.667,130.891c-3.2,14.933-9.6,25.6-13.867,23.467c-4.267-1.067-5.333-13.867-2.133-28.8
		c3.2-14.933,9.6-25.6,13.867-23.467C305.867,103.157,306.933,115.957,302.667,130.891z"/>
	<path style="fill:#FFD15C;" d="M155.467,147.957c-5.333,1.067-11.733-9.6-14.933-24.533c-3.2-14.933-1.067-27.733,4.267-28.8
		c5.333-1.067,14.933,8.533,17.067,23.467C166.133,133.024,160.8,146.891,155.467,147.957z"/>
	<path style="fill:#FFD15C;" d="M294.133,113.824c0,0-11.733,67.2-22.4,86.4c0,0-6.4,29.867-4.267,54.4
		c3.2,24.533,3.2,24.533,3.2,24.533l-64,17.067l-44.8-58.667c0,0,2.133-38.4,0-49.067c0,0-8.533-33.067-7.467-59.733
		s17.067-82.133,17.067-82.133s18.133-24.533,19.2-24.533s55.467-2.133,55.467-2.133l43.733,14.933
		C289.867,34.891,296.267,86.091,294.133,113.824z"/>
</g>
<path style="fill:#F7B64C;" d="M268.533,254.624c-2.133-21.333,2.133-46.933,3.2-53.333c-13.867,11.733-27.733,20.267-40.533,19.2
	c-45.867-1.067-69.333-34.133-69.333-34.133c17.067,41.6,70.4,65.067,107.733,75.733
	C268.533,259.957,268.533,257.824,268.533,254.624z"/>
<path style="fill:#415A6B;" d="M103.2,410.357c0,0-13.867-2.133-34.133,60.8c-4.267,11.733-6.4,25.6-8.533,41.6h309.333
	c-4.267-28.8-7.467-53.333-7.467-66.133c1.067-37.333,42.667-115.2,42.667-115.2c0-10.667-26.667-33.067-55.467-45.867
	c-28.8-12.8-77.867-39.467-77.867-39.467l-13.867,22.4l-24.533,1.067h-6.4l-55.467,10.667l-27.733-39.467
	c0,0-57.6,20.267-87.467,33.067c-28.8,13.867-44.8,43.733-44.8,43.733C74.4,291.957,103.2,410.357,103.2,410.357z"/>
<g>
	<path style="fill:#E8EAE9;" d="M234.4,512.757h65.067c-1.067-32-4.267-72.533-11.733-91.733
		c-12.8-34.133-33.067-72.533-38.4-81.067c-4.267-9.6-5.333-30.933-5.333-30.933l-5.333-9.6c0,0-16,5.333-16,13.867
		c0,0-1.067,35.2,0,73.6C223.733,417.824,230.133,479.691,234.4,512.757z"/>
	<path style="fill:#E8EAE9;" d="M209.867,281.291c0,0,12.8,21.333,12.8,33.067c0,0,17.067-6.4,21.333-4.267
		c0,0,6.4-20.267,7.467-25.6c1.067-5.333,0,0,0,0l-19.2-11.733h-6.4L209.867,281.291z"/>
</g>
<path style="fill:#415A6B;" d="M157.6,122.357h4.267c0,0,0-33.067,7.467-38.4c7.467-5.333,9.6-19.2,10.667-25.6
	c1.067-6.4,3.2-14.933,19.2-14.933s61.867,4.267,73.6,2.133c10.667-4.267,16,4.267,16,12.8s-1.067,24.533,3.2,32
	c4.267,7.467-1.067,38.4-1.067,38.4h3.2c0,0,2.133-22.4,8.533-25.6c0,0,3.2-35.2-3.2-56.533c-6.4-21.333-30.933-35.2-40.533-41.6
	c-9.6-6.4-56.533-8.533-74.667,5.333s-25.6,28.8-27.733,37.333s-7.467,46.933-7.467,46.933S160.8,101.024,157.6,122.357z"/>
<g>
	<path style="fill:#344A5E;" d="M267.467,226.891c0,0-3.2,13.867-8.533,21.333c-5.333,7.467-26.667,22.4-26.667,22.4
		s14.933,8.533,38.4,56.533c0,0,5.333-29.867,4.267-40.533c0-10.667-2.133-23.467-3.2-33.067
		C271.733,243.957,271.733,233.291,267.467,226.891"/>
	<path style="fill:#344A5E;" d="M161.867,209.824c0,0-1.067,12.8,17.067,26.667c18.133,14.933,46.933,34.133,46.933,34.133
		l-48,50.133c0,0-11.733-23.467-17.067-30.933c-5.333-7.467-21.333-26.667-20.267-44.8c0,0,5.333-11.733,8.533-17.067
		C152.267,222.624,156.533,213.024,161.867,209.824"/>
	<path style="fill:#344A5E;" d="M117.067,512.757c-2.133-25.6-19.2-44.8-13.867-102.4c0,0-28.8-117.333-91.733-92.8
		c0,0-8.533,27.733-8.533,46.933s0,51.2-2.133,70.4c-2.133,14.933,0,49.067,6.4,77.867H117.067z"/>
</g>
<path style="fill:#E8EAE9;" d="M512.8,279.157v212.267c0,11.733-9.6,21.333-21.333,21.333H340c-11.733,0-21.333-9.6-21.333-21.333
	V279.157c0-11.733,9.6-21.333,21.333-21.333h151.467C503.2,257.824,512.8,267.424,512.8,279.157z"/>
<g>
	<path style="fill:#66C6B9;" d="M490.4,427.424l-8.533-8.533l-44.8,44.8c-3.2,3.2-8.533,3.2-12.8,0l-22.4-22.4l-46.933,46.933
		c-3.2,3.2-7.467,3.2-9.6,0l0,0c-3.2-3.2-3.2-7.467,0-9.6l50.133-50.133c3.2-3.2,8.533-3.2,12.8,0l22.4,22.4l40.533-40.533
		l-8.533-8.533l29.867-3.2L490.4,427.424z"/>
	<path style="fill:#66C6B9;" d="M415.733,321.824l-25.6-25.6c7.467-4.267,16-7.467,25.6-7.467V321.824z"/>
</g>
<path style="fill:#F3705A;" d="M466.933,339.957c0,27.733-22.4,51.2-51.2,51.2c-27.733,0-51.2-22.4-51.2-51.2
	c0-13.867,5.333-26.667,14.933-36.267l36.267,36.267H466.933z"/>
<path style="fill:#FFD15C;" d="M425.333,279.157v51.2h51.2C476.533,302.624,454.133,279.157,425.333,279.157z"/>
<g>
</g>
<g>
</g>
<g>
</g>
<g>
</g>
<g>
</g>
<g>
</g>
<g>
</g>
<g>
</g>
<g>
</g>
<g>
</g>
<g>
</g>
<g>
</g>
<g>
</g>
<g>
</g>
<g>
</g>
</svg>
