<?xml version="1.0" encoding="iso-8859-1"?>
<!-- Generator: Adobe Illustrator 19.0.0, SVG Export Plug-In . SVG Version: 6.00 Build 0)  -->
<svg version="1.1" id="Capa_1" xmlns="http://www.w3.org/2000/svg" xmlns:xlink="http://www.w3.org/1999/xlink" x="0px" y="0px"
	 viewBox="0 0 512 512" style="enable-background:new 0 0 512 512;" xml:space="preserve">
<path style="fill:#F7B64C;" d="M178.133,173.378l-1.067,45.867c0,0-10.667,46.933,5.333,77.867
	c54.4-10.667,115.2-18.133,97.067-77.867v-45.867H178.133z"/>
<polygon style="fill:#CED6E0;" points="282.667,460.311 336,284.311 209.067,284.311 150.4,269.378 153.6,460.311 "/>
<polygon style="fill:#F3705A;" points="261.333,460.311 244.267,329.111 213.333,329.111 195.2,460.311 "/>
<polygon style="fill:#F05540;" points="244.267,329.111 258.133,314.178 228.267,284.311 198.4,314.178 213.333,329.111 "/>
<path style="fill:#F3F3F3;" d="M177.067,219.244c0,0-4.267,13.867,0,23.467c4.267,8.533,51.2,41.6,51.2,41.6l-43.733,43.733
	l-28.8-57.6l8.533-32c1.067-5.333,3.2-9.6,6.4-13.867C172.8,223.511,174.933,221.378,177.067,219.244z"/>
<path style="fill:#344A5E;" d="M182.4,460.311l-29.867-137.6l-3.2-60.8L51.2,299.244c-25.6,9.6-42.667,33.067-43.733,59.733
	L0,460.311H182.4z"/>
<path style="fill:#415A6B;" d="M156.8,460.311h38.4c-7.467-48-18.133-107.733-23.467-128c-8.533-35.2-6.4-94.933-6.4-94.933
	c-4.267,2.133-11.733,16-11.733,16c-7.467,9.6-14.933,20.267-19.2,32c-6.4,16-14.933,36.267-14.933,36.267L144,320.578
	l-30.933,26.667L156.8,460.311z"/>
<path style="fill:#F3F3F3;" d="M279.467,219.244c0,0,4.267,13.867,0,23.467c-4.267,8.533-51.2,41.6-51.2,41.6L272,328.044l28.8-57.6
	l-8.533-32c-1.067-5.333-3.2-9.6-6.4-13.867C283.733,223.511,281.6,221.378,279.467,219.244z"/>
<path style="fill:#344A5E;" d="M456.533,460.311l-7.467-102.4c-1.067-25.6-18.133-49.067-43.733-58.667L307.2,261.911l-3.2,60.8
	l-29.867,137.6L456.533,460.311L456.533,460.311z"/>
<path style="fill:#415A6B;" d="M261.333,460.311h38.4l43.733-114.133L313.6,319.511l24.533,1.067c0,0-8.533-20.267-14.933-36.267
	c-5.333-11.733-11.733-22.4-19.2-32c0,0-6.4-13.867-11.733-16c0,0,3.2,59.733-6.4,94.933
	C280.533,352.578,269.867,412.311,261.333,460.311z"/>
<path style="fill:#FFD15C;" d="M305.067,129.644c-5.333-19.2-3.2-37.333-16-53.333c-11.733-13.867-28.8-24.533-48-24.533
	c-21.333,0-38.4,1.067-55.467,12.8c-19.2,13.867-21.333,32-25.6,52.267c-1.067,3.2-1.067,5.333,0,8.533
	c-2.133,8.533-3.2,18.133-3.2,26.667c0,54.4,32,99.2,71.467,99.2s71.467-44.8,71.467-99.2c0-2.133,0-3.2,0-5.333
	C305.067,143.511,306.133,137.111,305.067,129.644z"/>
<path style="fill:#415A6B;" d="M308.267,124.311c0,0-4.267,5.333-7.467,12.8c0,1.067-1.067,1.067-1.067,2.133h-3.2
	c-1.067-13.867-1.067-30.933-3.2-34.133c-3.2-4.267-5.333-6.4-3.2-20.267c1.067-12.8-17.067-26.667-34.133-22.4
	s-34.133,4.267-51.2,0c-17.067-3.2-36.267,9.6-35.2,23.467c1.067,12.8,0,14.933-3.2,19.2c-2.133,2.133-3.2,20.267-3.2,34.133H160
	c0-1.067,0-1.067-1.067-2.133c-3.2-7.467-7.467-12.8-7.467-12.8S147.2,84.844,150.4,61.378c3.2-23.467,8.533-32,21.333-42.667
	c5.333-4.267,17.067-9.6,28.8-13.867c21.333-7.467,55.467-5.333,75.733,6.4c4.267,2.133,8.533,5.333,11.733,7.467
	c12.8,10.667,18.133,20.267,21.333,42.667S308.267,124.311,308.267,124.311z"/>
<g>
	
		<ellipse transform="matrix(0.1358 0.9907 -0.9907 0.1358 288.1769 -24.7185)" style="fill:#FFD15C;" cx="158.257" cy="152.827" rx="27.732" ry="12.8"/>
	
		<ellipse transform="matrix(0.1358 -0.9907 0.9907 0.1358 113.9155 434.7586)" style="fill:#FFD15C;" cx="306.167" cy="152.081" rx="27.732" ry="12.8"/>
</g>
<ellipse style="fill:#66C6B9;" cx="401.067" cy="400.578" rx="110.933" ry="110.933"/>
<g>
	<path style="fill:#FFFFFF;" d="M379.733,438.978l-54.4-28.8v-16l54.4-28.8v18.133l-38.4,18.133l38.4,18.133V438.978z"/>
	<path style="fill:#FFFFFF;" d="M385.067,451.778l20.267-101.333h11.733L396.8,451.778H385.067z"/>
	<path style="fill:#FFFFFF;" d="M421.333,438.978v-19.2l38.4-18.133l-38.4-18.133v-19.2l54.4,28.8v16L421.333,438.978z"/>
</g>
<g>
</g>
<g>
</g>
<g>
</g>
<g>
</g>
<g>
</g>
<g>
</g>
<g>
</g>
<g>
</g>
<g>
</g>
<g>
</g>
<g>
</g>
<g>
</g>
<g>
</g>
<g>
</g>
<g>
</g>
</svg>
