<?xml version="1.0" encoding="iso-8859-1"?>
<!-- Generator: Adobe Illustrator 19.0.0, SVG Export Plug-In . SVG Version: 6.00 Build 0)  -->
<svg version="1.1" id="Capa_1" xmlns="http://www.w3.org/2000/svg" xmlns:xlink="http://www.w3.org/1999/xlink" x="0px" y="0px"
	 viewBox="0 0 512 512" style="enable-background:new 0 0 512 512;" xml:space="preserve">
<g>
	<path style="fill:#F3705A;" d="M210.133,272.663c0,0,11.733-18.133,18.133-29.867c6.4-11.733,13.867-57.6,13.867-57.6l-16,2.133
		C226.133,186.263,208,255.597,210.133,272.663z"/>
	<path style="fill:#F3705A;" d="M120.533,242.797l18.133,11.733l9.6-42.667L105.6,158.53C105.6,158.53,76.8,212.93,120.533,242.797z
		"/>
</g>
<path style="fill:#FFD15C;" d="M216.533,388.93c11.733-48,16-93.867,0-126.933v-21.333c18.133-26.667,20.267-65.067,20.267-65.067
	L224,104.13c0,0-7.467-28.8-34.133-26.667c-25.6,2.133-53.333,19.2-53.333,19.2l-26.667,73.6c0,0-2.133,29.867,22.4,68.267v24.533
	c-13.867,42.667-12.8,85.333,0,125.867H216.533z"/>
<path style="fill:#E8EAE9;" d="M221.867,471.063l-5.333-129.067c1.067,41.6-88.533,41.6-87.467,0l-5.333,129.067L221.867,471.063
	L221.867,471.063z"/>
<g>
	<path style="fill:#344A5E;" d="M150.4,471.063l-49.067-183.467l-50.133,16c-13.867,4.267-24.533,17.067-27.733,30.933L0,471.063
		H150.4z"/>
	<path style="fill:#344A5E;" d="M349.867,471.063L325.333,334.53c-2.133-14.933-12.8-26.667-27.733-30.933l-50.133-16L198.4,471.063
		H349.867z"/>
</g>
<path style="fill:#F7B64C;" d="M132.267,237.463L132.267,237.463v57.6c77.867-22.4,84.267-55.467,84.267-55.467
	C188.8,263.063,161.067,261.997,132.267,237.463z"/>
<g>
	<path style="fill:#415A6B;" d="M218.667,327.063c-8.533,39.467-24.533,116.267-28.8,145.067h28.8
		c23.467-42.667,42.667-87.467,55.467-135.467l-26.667-17.067l17.067-4.267c0,0-10.667-21.333-17.067-26.667
		c-6.4-6.4-25.6-24.533-30.933-26.667C216.533,261.997,228.267,283.33,218.667,327.063z"/>
	<path style="fill:#415A6B;" d="M131.2,471.063H160c-4.267-27.733-20.267-105.6-28.8-145.067
		c-8.533-43.733,2.133-65.067,2.133-65.067C128,261.997,108.8,281.197,102.4,287.597c-7.467,6.4-17.067,26.667-17.067,26.667
		l17.067,4.267l-26.667,17.067C88.533,383.597,107.733,428.397,131.2,471.063z"/>
</g>
<path style="fill:#F3705A;" d="M197.333,88.13c0,0-19.2,27.733-45.867,52.267s-40.533,28.8-43.733,36.267
	c-3.2,6.4,0,46.933,20.267,69.333c8.533,10.667,14.933,23.467,14.933,37.333c0,1.067,0,2.133,0,3.2c0,0-32-16-45.867-61.867
	s-18.133-90.667-3.2-131.2s73.6-64,103.467-49.067s51.2,50.133,56.533,77.867c4.267,27.733,4.267,51.2,2.133,69.333
	c-2.133,16-4.267,34.133-24.533,71.467C220.8,276.93,217.6,308.93,217.6,308.93s-8.533-19.2-5.333-36.267
	c6.4-27.733,17.067-43.733,20.267-70.4c3.2-27.733-9.6-88.533-19.2-101.333S197.333,88.13,197.333,88.13z"/>
<path style="fill:#66C6B9;" d="M426.667,244.93c-17.067,48-39.467,93.867-66.133,137.6c-5.333,9.6-18.133,12.8-27.733,7.467l0,0
	c-9.6-5.333-13.867-17.067-9.6-26.667c20.267-46.933,43.733-91.733,72.533-134.4L426.667,244.93z"/>
<g>
	<path style="fill:#4ABAA5;" d="M397.867,216.13l37.333,19.2c3.2,1.067,4.267,5.333,3.2,8.533c-1.067,3.2-5.333,4.267-8.533,3.2
		l-37.333-19.2c-3.2-1.067-4.267-5.333-3.2-8.533C391.467,216.13,394.667,213.997,397.867,216.13z"/>
	<polygon style="fill:#4ABAA5;" points="405.333,133.997 370.133,202.263 461.867,249.197 497.067,180.93 	"/>
</g>
<g>
	
		<rect x="395.303" y="157.423" transform="matrix(-0.4548 0.8906 -0.8906 -0.4548 801.0739 -108.3534)" style="fill:#66C6B9;" width="76.8" height="67.2"/>
	<path style="fill:#66C6B9;" d="M408.533,120.13L408.533,120.13c-5.333-3.2-11.733-1.067-14.933,5.333l-37.333,72.533
		c-3.2,5.333-1.067,11.733,5.333,14.933l0,0c5.333,3.2,11.733,1.067,14.933-5.333l37.333-72.533
		C417.067,129.73,414.933,123.33,408.533,120.13z"/>
	<path style="fill:#66C6B9;" d="M505.6,170.263L505.6,170.263c-5.333-3.2-11.733-1.067-14.933,5.333l-37.333,72.533
		c-3.2,5.333-1.067,11.733,5.333,14.933l0,0c5.333,3.2,11.733,1.067,14.933-5.333l37.333-72.533
		C513.067,179.863,510.933,172.397,505.6,170.263z"/>
</g>
<path style="fill:#F3705A;" d="M477.867,413.463H350.933c-8.533,0-14.933,6.4-14.933,14.933l0,0c0,8.533,6.4,14.933,14.933,14.933
	h126.933c8.533,0,14.933-6.4,14.933-14.933l0,0C492.8,419.863,486.4,413.463,477.867,413.463z"/>
<path style="fill:#F05540;" d="M512,471.063H316.8l0,0c0-16,12.8-28.8,28.8-28.8h137.6C499.2,442.263,512,455.063,512,471.063
	L512,471.063z"/>
<g>
</g>
<g>
</g>
<g>
</g>
<g>
</g>
<g>
</g>
<g>
</g>
<g>
</g>
<g>
</g>
<g>
</g>
<g>
</g>
<g>
</g>
<g>
</g>
<g>
</g>
<g>
</g>
<g>
</g>
</svg>
