<?xml version="1.0" encoding="iso-8859-1"?>
<!-- Generator: Adobe Illustrator 19.0.0, SVG Export Plug-In . SVG Version: 6.00 Build 0)  -->
<svg version="1.1" id="Capa_1" xmlns="http://www.w3.org/2000/svg" xmlns:xlink="http://www.w3.org/1999/xlink" x="0px" y="0px"
	 viewBox="0 0 512 512" style="enable-background:new 0 0 512 512;" xml:space="preserve">
<polygon style="fill:#415A6B;" points="512,53.333 501.333,141.867 480,120.533 288,312.533 214.4,240 35.2,419.2 0,384 
	214.4,169.6 288,243.2 444.8,85.333 423.467,64 "/>
<polygon style="fill:#F3705A;" points="437.333,217.6 437.333,512 512,512 512,205.867 480,173.867 "/>
<polygon style="fill:#66C6B9;" points="309.333,512 384,512 384,270.933 309.333,345.6 "/>
<polygon style="fill:#8AD7F8;" points="181.333,327.467 181.333,512 256,512 256,336 214.4,294.4 "/>
<polygon style="fill:#FFD15C;" points="53.333,512 128,512 128,380.8 53.333,455.467 "/>
<path style="fill:#F3705A;" d="M299.733,65.067l14.933-11.733L307.2,35.2L288,36.267c-2.133-3.2-5.333-6.4-9.6-9.6l2.133-19.2
	L263.467,0l-12.8,14.933c-4.267-1.067-8.533-1.067-12.8,0L226.133,0L208,7.467l2.133,19.2c-3.2,2.133-6.4,5.333-9.6,9.6l-19.2-2.133
	l-7.467,18.133L188.8,64c-1.067,4.267-1.067,8.533,0,12.8l-14.933,11.733l7.467,18.133l19.2-2.133c2.133,3.2,5.333,6.4,9.6,9.6
	l-2.133,19.2l18.133,7.467l12.8-14.933c4.267,1.067,8.533,1.067,12.8,0l11.733,14.933l18.133-7.467l-2.133-19.2
	c3.2-2.133,6.4-5.333,9.6-9.6l19.2,2.133l7.467-18.133l-14.933-12.8C299.733,73.6,300.8,69.333,299.733,65.067z M235.733,90.667
	c-10.667-4.267-16-16-10.667-26.667c4.267-10.667,16-16,26.667-10.667c10.667,4.267,16,16,10.667,26.667
	C258.133,89.6,246.4,94.933,235.733,90.667z"/>
<path style="fill:#8AD7F8;" d="M156.8,94.933l11.733-22.4L150.4,55.467l-22.4,12.8c-5.333-2.133-10.667-4.267-16-6.4l-6.4-24.533H80
	l-6.4,25.6c-6.4,1.067-10.667,3.2-16,6.4L35.2,57.6L18.133,75.733l12.8,22.4c-2.133,5.333-4.267,10.667-6.4,16L0,120.533v25.6
	l24.533,6.4c2.133,5.333,4.267,10.667,6.4,14.933l-11.733,22.4l18.133,17.067l22.4-12.8c5.333,2.133,10.667,4.267,16,6.4
	l7.467,24.533h25.6l6.4-24.533c5.333-2.133,10.667-4.267,14.933-6.4l22.4,11.733l17.067-18.133l-12.8-22.4
	c2.133-5.333,4.267-10.667,6.4-16l24.533-7.467v-25.6l-24.533-6.4C162.133,105.6,158.933,100.267,156.8,94.933z M94.933,160
	C80,160,67.2,148.267,67.2,132.267c0-14.933,11.733-27.733,27.733-27.733c14.933,0,27.733,11.733,27.733,27.733
	C121.6,146.133,109.867,158.933,94.933,160z"/>
<path style="fill:#F05540;" d="M259.2,36.267c-19.2-8.533-41.6,1.067-50.133,20.267c-8.533,19.2,1.067,41.6,20.267,50.133
	s41.6-1.067,50.133-20.267C286.933,66.133,278.4,43.733,259.2,36.267z M263.467,78.933c-4.267,10.667-16,16-26.667,10.667
	c-10.667-5.333-16-16-10.667-26.667c4.267-10.667,16-16,26.667-10.667C262.4,56.533,267.733,68.267,263.467,78.933z"/>
<path style="fill:#55C0EB;" d="M92.8,84.267c-25.6,1.067-46.933,22.4-45.867,48c0,25.6,22.4,46.933,48,45.867
	c25.6,0,46.933-22.4,45.867-48C140.8,104.533,119.467,84.267,92.8,84.267z M94.933,160C80,160,67.2,148.267,67.2,132.267
	s11.733-27.733,27.733-27.733c14.933,0,27.733,11.733,27.733,27.733S109.867,158.933,94.933,160z"/>
<g>
</g>
<g>
</g>
<g>
</g>
<g>
</g>
<g>
</g>
<g>
</g>
<g>
</g>
<g>
</g>
<g>
</g>
<g>
</g>
<g>
</g>
<g>
</g>
<g>
</g>
<g>
</g>
<g>
</g>
</svg>
