<?xml version="1.0" encoding="iso-8859-1"?>
<!-- Generator: Adobe Illustrator 19.0.0, SVG Export Plug-In . SVG Version: 6.00 Build 0)  -->
<svg version="1.1" id="Capa_1" xmlns="http://www.w3.org/2000/svg" xmlns:xlink="http://www.w3.org/1999/xlink" x="0px" y="0px"
	 viewBox="0 0 515.497 515.497" style="enable-background:new 0 0 515.497 515.497;" xml:space="preserve">
<path style="fill:#4ABAA5;" d="M330.493,514.431c1.067-69.333,12.8-138.667,33.067-209.067c27.733,12.8,19.2,77.867,22.4,98.133
	c0,12.8,0,65.067,0,110.933H330.493z"/>
<path style="fill:#F3705A;" d="M148.093,98.431c0,42.667,1.067,85.333,1.067,128c0,14.933,1.067,30.933,9.6,42.667
	c9.6,12.8,25.6,17.067,41.6,19.2c17.067,3.2,34.133,4.267,51.2,4.267c7.467,0,14.933,0,21.333-3.2
	c9.6-4.267,17.067-13.867,20.267-23.467c3.2-10.667,4.267-21.333,4.267-32c1.067-14.933,1.067-28.8-1.067-43.733
	c-2.133-14.933-6.4-27.733-14.933-39.467c-9.6-11.733-24.533-20.267-39.467-24.533c-14.933-4.267-30.933-6.4-46.933-7.467"/>
<path style="fill:#FFD15C;" d="M138.493,271.231l19.2-30.933c0,0,10.667-7.467,11.733-17.067c1.067-9.6,0-20.267,0-20.267
	s-13.867-39.467-9.6-97.067l40.533-64l56.533-10.667l46.933,77.867c0,0,2.133,71.467-35.2,110.933c0,0-7.467,25.6-6.4,29.867
	l19.2,26.667l9.6,58.667l-50.133,24.533C241.96,359.764,158.76,322.431,138.493,271.231z"/>
<path style="fill:#F7B64C;" d="M148.093,266.964l7.467-22.4l2.133-4.267c0,0,10.667-7.467,11.733-17.067
	c1.067-9.6,0-20.267,0-20.267c56.533,76.8,100.267,17.067,100.267,17.067C218.493,301.097,148.093,266.964,148.093,266.964z"/>
<path style="fill:#E8EAE9;" d="M204.626,514.431l-61.867-246.4l24.533-3.2c18.133,43.733,96,77.867,107.733,61.867
	c10.667-16,8.533-50.133,8.533-50.133c20.267,13.867,32,161.067,37.333,237.867H204.626z"/>
<path style="fill:#4ABAA5;" d="M128.893,514.431H3.026c0-16-1.067-32-1.067-43.733c0-37.333,13.867-138.667,18.133-157.867
	c3.2-19.2,20.267-23.467,20.267-23.467s67.2,40.533,67.2,42.667L93.693,446.164C93.693,446.164,128.893,504.831,128.893,514.431z"/>
<g>
	<path style="fill:#66C6B9;" d="M95.826,514.431c-3.2-20.267-7.467-41.6-16-61.867c0,0,10.667-136.533-39.467-163.2
		c0,0,41.6-19.2,74.667-29.867c9.6-3.2,38.4-16,43.733-18.133c0,0,24.533,65.067,45.867,105.6
		c25.6,50.133,43.733,122.667,50.133,168.533H95.826V514.431z"/>
	<path style="fill:#66C6B9;" d="M340.093,514.431H289.96c2.133-5.333,5.333-10.667,8.533-17.067
		c28.8-60.8-14.933-212.267-35.2-247.467c0,0,21.333,14.933,30.933,21.333c9.6,6.4,69.333,34.133,69.333,34.133
		s8.533,54.4,0,100.267C358.226,431.231,347.56,476.031,340.093,514.431z"/>
</g>
<g>
	<path style="fill:#F3705A;" d="M227.026,56.831c0,0-11.733,0-35.2,23.467s-33.067,38.4-34.133,50.133
		c-2.133,11.733,11.733,93.867,11.733,93.867c-11.733,40.533-23.467,77.867-74.667,113.067c0,0,28.8-99.2,38.4-134.4
		s-9.6-64,8.533-123.733s57.6-82.133,100.267-78.933s66.133,42.667,71.467,67.2c5.333,24.533,1.067,109.867-4.267,130.133
		c-4.267,19.2-19.2,108.8-19.2,108.8l3.2-128c0,0,9.6-26.667,2.133-44.8c-6.4-18.133-1.067-51.2-14.933-64
		C267.56,60.031,247.293,52.564,227.026,56.831z"/>
	<path style="fill:#F3705A;" d="M311.293,183.764c0,0-7.467,78.933,3.2,124.8c10.667,45.867,19.2,55.467,19.2,55.467
		s-46.933-18.133-54.4-66.133s0-65.067,0-65.067"/>
	<path style="fill:#F3705A;" d="M261.16,319.231c6.4,14.933,17.067,28.8,24.533,42.667c7.467,14.933,11.733,32,6.4,48
		c13.867-10.667,17.067-30.933,14.933-49.067c-2.133-17.067-9.6-34.133-13.867-51.2c-5.333-24.533-4.267-50.133-3.2-75.733
		l-20.267-14.933C248.36,247.764,247.293,287.231,261.16,319.231z"/>
	<path style="fill:#F3705A;" d="M169.426,202.964c5.333,19.2,1.067,52.267-5.333,70.4c-5.333,14.933-14.933,28.8-20.267,44.8
		c-4.267,16-4.267,33.067,2.133,48c-9.6-3.2-16-13.867-17.067-23.467c-1.067-9.6,2.133-20.267,5.333-29.867
		c4.267-9.6,9.6-18.133,12.8-27.733c9.6-24.533,8.533-52.267-1.067-75.733"/>
	<path style="fill:#F3705A;" d="M166.226,198.697c9.6,19.2,7.467,42.667,2.133,62.933c-5.333,21.333-13.867,41.6-17.067,62.933
		c-4.267,25.6,0,52.267,10.667,75.733c-25.6-18.133-39.467-51.2-34.133-83.2c2.133-13.867,8.533-26.667,12.8-39.467
		c7.467-22.4,10.667-45.867,8.533-69.333"/>
	<path style="fill:#F3705A;" d="M185.426,60.031c-30.933,42.667-38.4,101.333-18.133,150.4c10.667,26.667,27.733,50.133,32,77.867
		c3.2,26.667-6.4,53.333-13.867,78.933c-7.467,25.6-12.8,55.467-1.067,78.933c-21.333-25.6-42.667-51.2-56.533-81.067
		c-22.4-50.133-20.267-109.867,5.333-157.867l4.267-115.2L185.426,60.031z"/>
</g>
<g>
	<path style="fill:#344A5E;" d="M270.76,271.231c-43.733,43.733-43.733,113.067,0,156.8s113.067,43.733,156.8,0
		s43.733-113.067,0-156.8C383.826,227.497,313.426,227.497,270.76,271.231z M404.093,404.564c-30.933,30.933-80,30.933-109.867,0
		s-30.933-80,0-109.867s80-29.867,109.867,0S433.96,373.631,404.093,404.564z"/>
	<path style="fill:#344A5E;" d="M451.026,421.631l-29.867,29.867c-3.2,3.2-8.533,3.2-11.733,0l0,0c-3.2-3.2-3.2-8.533,0-11.733
		l29.867-29.867c3.2-3.2,8.533-3.2,11.733,0l0,0C454.226,413.097,454.226,418.431,451.026,421.631z"/>
</g>
<path style="fill:#FFD15C;" d="M496.893,450.431l-46.933-28.8l-29.867,29.867l28.8,46.933c11.733,19.2,38.4,22.4,54.4,6.4l0,0
	C519.293,488.831,516.093,462.164,496.893,450.431z"/>
<g>
</g>
<g>
</g>
<g>
</g>
<g>
</g>
<g>
</g>
<g>
</g>
<g>
</g>
<g>
</g>
<g>
</g>
<g>
</g>
<g>
</g>
<g>
</g>
<g>
</g>
<g>
</g>
<g>
</g>
</svg>
