<?xml version="1.0" encoding="iso-8859-1"?>
<!-- Generator: Adobe Illustrator 19.0.0, SVG Export Plug-In . SVG Version: 6.00 Build 0)  -->
<svg version="1.1" id="Capa_1" xmlns="http://www.w3.org/2000/svg" xmlns:xlink="http://www.w3.org/1999/xlink" x="0px" y="0px"
	 viewBox="0 0 512.033 512.033" style="enable-background:new 0 0 512.033 512.033;" xml:space="preserve">
<polygon style="fill:#CED6E0;" points="250.667,349.333 253.867,298.133 232.533,233.067 196.267,249.067 157.867,230.933 
	140.8,253.333 138.667,349.333 "/>
<g>
	<path style="fill:#55C0EB;" d="M147.2,237.333l12.8,112h-43.733c-29.867,0-58.667-28.8-40.533-71.467
		c3.2-8.533,10.667-14.933,19.2-19.2L147.2,237.333z"/>
	<path style="fill:#55C0EB;" d="M276.267,349.333h-43.733l12.8-112l52.267,21.333C334.933,273.6,332.8,349.333,276.267,349.333z"/>
</g>
<polygon style="fill:#344A5E;" points="211.2,349.333 204.8,272.533 188.8,272.533 181.333,349.333 "/>
<polygon style="fill:#415A6B;" points="204.8,272.533 212.267,265.067 196.267,249.067 181.333,265.067 188.8,272.533 "/>
<g>
	
		<ellipse transform="matrix(0.1616 0.9869 -0.9869 0.1616 290.3636 -13.8269)" style="fill:#FFD15C;" cx="153.319" cy="163.975" rx="13.867" ry="7.467"/>
	
		<ellipse transform="matrix(0.1616 -0.9869 0.9869 0.1616 38.5626 374.9535)" style="fill:#FFD15C;" cx="239.953" cy="164.781" rx="13.867" ry="7.467"/>
</g>
<path style="fill:#E8EAE9;" d="M168.533,213.867c0,0,9.6,26.667,27.733,34.133l-21.333,21.333c0,0-16-28.8-17.067-38.4
	C157.867,232,163.2,220.267,168.533,213.867z"/>
<path style="fill:#8AD7F8;" d="M148.267,349.333H166.4c-3.2-35.2-6.4-73.6-7.467-83.2c-2.133-19.2,5.333-44.8,5.333-44.8
	c-19.2,17.067-22.4,17.067-32,33.067l7.467,6.4l-13.867,6.4C125.867,267.2,138.667,316.267,148.267,349.333z"/>
<path style="fill:#E8EAE9;" d="M224,213.867c0,0-9.6,26.667-27.733,34.133l21.333,21.333c0,0,16-28.8,17.067-38.4
	C234.667,232,230.4,220.267,224,213.867z"/>
<path style="fill:#8AD7F8;" d="M234.667,265.067c-1.067,10.667-5.333,49.067-7.467,83.2h18.133
	c8.533-32,21.333-81.067,21.333-81.067l-13.867-7.467l7.467-6.4c-9.6-14.933-12.8-14.933-32-33.067
	C229.333,221.333,236.8,246.933,234.667,265.067z"/>
<path style="fill:#F7B64C;" d="M168.533,188.267v25.6c0,0,9.6,26.667,27.733,34.133C214.4,240.533,224,213.867,224,213.867V187.2
	h-55.467V188.267z"/>
<path style="fill:#FFD15C;" d="M233.6,130.667c3.2-9.6-2.133-21.333-14.933-21.333c-1.067,0-2.133,0-3.2,0
	c-5.333-3.2-11.733-5.333-19.2-5.333c-24.533,0-43.733,26.667-43.733,59.733s19.2,59.733,43.733,59.733
	C220.8,223.467,240,196.8,240,163.733C241.067,150.933,237.867,140.267,233.6,130.667z"/>
<g>
	<path style="fill:#344A5E;" d="M156.8,162.667c0-6.4,1.067-20.267,4.267-23.467c4.267-3.2,1.067-7.467,5.333-13.867
		c4.267-6.4,12.8-9.6,26.667-10.667c14.933-1.067,28.8-3.2,35.2,5.333c6.4,7.467,9.6,36.267,9.6,43.733h1.067
		c1.067-6.4,12.8-53.333-6.4-53.333c0,0,1.067-21.333-29.867-23.467c-30.933-3.2-40.533,14.933-43.733,20.267
		c-4.267,5.333-6.4,26.667-6.4,32c0,5.333,2.133,17.067,2.133,24.533h2.133V162.667z"/>
	
		<rect x="312.529" y="315.2" transform="matrix(-0.7071 0.7071 -0.7071 -0.7071 828.2828 343.8474)" style="fill:#344A5E;" width="60.799" height="56.533"/>
</g>
<path style="fill:#F3705A;" d="M405.333,319.467l102.4,102.4c6.4,6.4,5.333,16-1.067,23.467l-60.8,60.8
	c-6.4,6.4-17.067,7.467-23.467,1.067L318.933,405.867c-6.4-6.4-5.333-16,1.067-23.467l60.8-60.8
	C388.267,314.133,398.933,314.133,405.333,319.467z"/>
<rect x="373.703" y="335.551" transform="matrix(0.7071 0.7071 -0.7071 0.7071 396.1216 -163.6216)" style="fill:#FFD15C;" width="43.733" height="121.599"/>
<path style="fill:#415A6B;" d="M57.6,58.133c-76.8,76.8-76.8,201.6,0,277.333c76.8,76.8,201.6,76.8,278.4,0s76.8-200.533,0-277.333
	C258.133-18.667,134.4-18.667,57.6,58.133z M299.733,300.267C243.2,356.8,150.4,356.8,93.867,300.267s-56.533-149.333,0-205.867
	s149.333-56.533,205.867,0S356.267,242.667,299.733,300.267z"/>
<g>
</g>
<g>
</g>
<g>
</g>
<g>
</g>
<g>
</g>
<g>
</g>
<g>
</g>
<g>
</g>
<g>
</g>
<g>
</g>
<g>
</g>
<g>
</g>
<g>
</g>
<g>
</g>
<g>
</g>
</svg>
