<?xml version="1.0" encoding="iso-8859-1"?>
<!-- Generator: Adobe Illustrator 19.0.0, SVG Export Plug-In . SVG Version: 6.00 Build 0)  -->
<svg version="1.1" id="Capa_1" xmlns="http://www.w3.org/2000/svg" xmlns:xlink="http://www.w3.org/1999/xlink" x="0px" y="0px"
	 viewBox="0 0 512 512" style="enable-background:new 0 0 512 512;" xml:space="preserve">
<path style="fill:#FFD15C;" d="M177.067,260.199c0,0,26.667,24.533,55.467-16c0,0,17.067,0,22.4-3.2
	c5.333-3.2,24.533,12.8,32,18.133c7.467,5.333,42.667,33.067,48,36.267c5.333,3.2,27.733,26.667,30.933,38.4
	s-5.333,17.067-6.4,18.133s-7.467,1.067-16-1.067c0,0,3.2,8.533-3.2,16c-7.467,7.467-14.933,5.333-20.267,3.2
	c0,0-1.067,13.867-12.8,14.933c0,0-2.133,4.267-17.067-2.133c0,0-2.133,17.067-17.067,18.133c0,0-55.467-12.8-72.533-20.267
	c-6.4-3.2-16-5.333-25.6-8.533c-20.267-6.4-38.4-17.067-53.333-32c-24.533-23.467-44.8-24.533-48-32
	c-3.2-8.533,41.6-94.933,41.6-94.933s35.2-2.133,54.4-9.6c8.533-3.2,20.267-6.4,29.867-9.6c12.8-3.2,25.6-3.2,37.333,1.067
	l50.133,13.867l11.733,35.2c0,0-44.8-18.133-62.933-18.133C218.667,226.065,177.067,260.199,177.067,260.199z"/>
<path style="fill:#E8EAE9;" d="M96,157.799c-21.333,33.067-43.733,66.133-67.2,98.133c-7.467,10.667-16,21.333-23.467,32L80,339.132
	c4.267-12.8,73.6-144,73.6-144L96,157.799z"/>
<polygon style="fill:#415A6B;" points="146.133,185.532 42.667,339.132 0,310.332 0,95.932 "/>
<path style="fill:#F7B64C;" d="M170.667,368.999c2.133,1.067,4.267,1.067,6.4,2.133H176c1.067-1.067,1.067-2.133,2.133-3.2
	s1.067-1.067,2.133-2.133c1.067-1.067,2.133-1.067,3.2-2.133c1.067,0,2.133-1.067,3.2-1.067c1.067,0,2.133-1.067,3.2-1.067h1.067
	c1.067,0,1.067,0,2.133,0c1.067,0,2.133,0,3.2,0c1.067,0,2.133,0,3.2,0c1.067,0,2.133,0,3.2,1.067c1.067,0,2.133,1.067,3.2,1.067
	c1.067,0,2.133,1.067,3.2,2.133c1.067,1.067,2.133,1.067,3.2,3.2v1.067v1.067c0,0,0,1.067,0,2.133c0,1.067,0,2.133,1.067,3.2
	c0,1.067,0,2.133,0,3.2s0,2.133,0,3.2l-2.133-2.133c1.067,0,2.133,0,3.2,0l0,0l0,0l0,0l0,0l0,0l0,0l0,0l0,0l0,0
	c0,0,1.067-1.067,2.133-1.067c2.133-2.133,4.267-3.2,6.4-5.333c2.133-2.133,4.267-3.2,7.467-5.333c1.067,0,1.067-1.067,2.133-1.067
	s1.067-1.067,2.133-1.067c1.067-1.067,3.2-1.067,4.267-1.067c3.2-1.067,6.4-1.067,9.6,0c1.067,1.067,3.2,1.067,4.267,2.133
	c1.067,1.067,2.133,2.133,3.2,3.2c1.067,1.067,2.133,2.133,2.133,4.267c1.067,1.067,1.067,3.2,1.067,4.267c0,1.067,0,3.2,0,4.267
	c0,1.067-1.067,3.2-2.133,4.267L256,387.132h1.067h1.067c1.067,0,1.067,1.067,2.133,1.067c0,0,1.067,0,1.067,1.067
	c0,0,1.067,0,1.067,1.067c0,0,1.067,0,1.067,1.067l1.067,1.067l1.067,1.067c0,0,0,1.067,1.067,1.067c0,0,0,1.067,1.067,1.067v1.067
	v1.067v1.067v1.067v1.067v-1.067v-1.067v-1.067v-1.067c0,0,0-1.067-1.067-1.067c0,0,0-1.067-1.067-1.067c0,0,0-1.067-1.067-1.067
	l-1.067-1.067c0,0-1.067,0-1.067-1.067c0,0-1.067,0-1.067-1.067c0,0-1.067,0-1.067-1.067H259.2c-1.067,0-1.067-1.067-2.133-1.067
	H256h-1.067h-1.067l1.067-1.067c0-1.067,1.067-2.133,1.067-4.267c0-1.067,0-2.133,0-4.267c0-2.133-2.133-5.333-3.2-6.4
	c-1.067-1.067-2.133-2.133-3.2-2.133c-1.067-1.067-2.133-1.067-3.2-2.133c-2.133-1.067-5.333-1.067-7.467,0
	c-1.067,0-2.133,1.067-4.267,1.067c-1.067,0-1.067,1.067-2.133,1.067s-1.067,1.067-2.133,1.067c-2.133,1.067-4.267,3.2-6.4,4.267
	l-7.467,5.333c-1.067,0-1.067,1.067-2.133,1.067h-1.067l0,0l0,0l0,0l0,0l0,0l0,0h-1.067c-1.067,0-2.133,0-2.133,0
	c-1.067,0-2.133,0-2.133,0h-2.133v-2.133c0-1.067,0-2.133,0-3.2s0-2.133,0-3.2s0-2.133-1.067-3.2v-1.067c0,0,0,0,0-1.067l0,0
	c0-1.067-1.067-1.067-2.133-2.133c-1.067-1.067-1.067-1.067-2.133-1.067c-2.133-1.067-3.2-1.067-5.333-2.133c-1.067,0-2.133,0-3.2,0
	c-1.067,0-2.133,0-3.2,0h-1.067h-1.067c-1.067,0-2.133,0-3.2,1.067c-1.067,0-2.133,1.067-3.2,1.067c-1.067,0-2.133,1.067-3.2,1.067
	c-1.067,0-2.133,1.067-2.133,2.133c-1.067,1.067-1.067,1.067-2.133,2.133l0,0l0,0C174.933,371.132,172.8,370.065,170.667,368.999z"
	/>
<path style="fill:#FFD15C;" d="M365.867,333.799c-3.2-11.733-25.6-34.133-30.933-38.4c-5.333-4.267-40.533-32-48-36.267
	c-7.467-5.333-26.667-20.267-32-18.133s-22.4,3.2-22.4,3.2c-28.8,40.533-55.467,16-55.467,16l13.867-23.467
	c0,0,7.467-24.533,21.333-28.8c13.867-4.267,45.867-10.667,52.267-11.733c5.333-2.133,29.867,8.533,49.067,9.6
	c19.2,1.067,44.8-5.333,52.267-8.533c6.4-4.267,24.533-17.067,24.533-17.067l51.2,76.8c0,0-26.667,25.6-28.8,34.133
	C408.533,308.199,365.867,333.799,365.867,333.799z"/>
<path style="fill:#F3F3F3;" d="M177.067,260.199c0,0,34.133-9.6,13.867-23.467L177.067,260.199z"/>
<path style="fill:#FFD15C;" d="M274.133,399.932c0,0-5.333,14.933-18.133,16c-12.8,1.067-19.2-4.267-19.2-11.733
	c0,0-11.733,1.067-19.2-5.333c-7.467-6.4-9.6-9.6-9.6-9.6s-14.933,10.667-24.533,6.4c-11.733-4.267-13.867-24.533-12.8-27.733
	l6.4,2.133c0,0,3.2-6.4,12.8-7.467c9.6-2.133,20.267,2.133,21.333,6.4c1.067,4.267,2.133,11.733,2.133,11.733s3.2,0,5.333-1.067
	c2.133-1.067,11.733-9.6,17.067-11.733c5.333-3.2,12.8-5.333,18.133-2.133c6.4,3.2,11.733,10.667,6.4,20.267
	C262.4,387.132,275.2,389.265,274.133,399.932z"/>
<g>
	<path style="fill:#F7B64C;" d="M343.467,349.799c0,0-3.2-3.2-9.6-8.533c-1.067-1.067-3.2-2.133-4.267-4.267l-1.067-1.067
		l-1.067-1.067c-1.067-1.067-2.133-1.067-3.2-2.133c-2.133-1.067-4.267-2.133-6.4-4.267c-2.133-1.067-4.267-2.133-6.4-4.267
		c-2.133-1.067-4.267-3.2-6.4-4.267c-2.133-1.067-4.267-3.2-6.4-4.267c-2.133-1.067-4.267-3.2-5.333-4.267
		c-2.133-1.067-3.2-2.133-4.267-4.267c0,3.2-1.067,2.133-1.067,2.133c-1.067-1.067-1.067-1.067-2.133-2.133s-2.133-2.133-3.2-3.2
		c-1.067-1.067-1.067-1.067-2.133-2.133l-1.067-1.067c0,0,0,0,1.067,1.067c0,0,1.067,1.067,2.133,2.133
		c1.067,1.067,2.133,1.067,3.2,2.133c1.067,1.067,2.133,2.133,4.267,3.2c1.067,1.067,3.2,2.133,5.333,3.2
		c2.133,1.067,3.2,2.133,5.333,3.2c4.267,2.133,8.533,5.333,12.8,7.467c2.133,1.067,4.267,3.2,6.4,4.267
		c2.133,1.067,4.267,3.2,6.4,4.267c1.067,1.067,2.133,1.067,3.2,2.133l1.067,1.067l1.067,1.067c2.133,1.067,3.2,3.2,4.267,4.267
		c3.2,2.133,5.333,5.333,6.4,6.4C343.467,348.732,343.467,349.799,343.467,349.799z"/>
	<path style="fill:#F7B64C;" d="M320,368.999c0,0-3.2-1.067-8.533-3.2c-2.133-1.067-5.333-2.133-8.533-3.2
		c-1.067-1.067-3.2-1.067-5.333-2.133c-1.067,0-2.133-1.067-2.133-1.067c-1.067,0-2.133-1.067-2.133-1.067
		c-1.067-1.067-3.2-2.133-4.267-3.2s-3.2-2.133-4.267-3.2c-3.2-2.133-5.333-4.267-7.467-6.4c-1.067-1.067-2.133-2.133-3.2-2.133
		c-1.067-1.067-2.133-1.067-2.133-2.133c-1.067,0-1.067-1.067-1.067-1.067h-1.067c0,0,0,0,1.067,0c0,0,1.067,0,2.133,1.067
		c1.067,0,2.133,1.067,3.2,1.067c1.067,1.067,2.133,1.067,3.2,2.133c2.133,1.067,5.333,3.2,7.467,5.333
		c1.067,1.067,3.2,2.133,4.267,3.2c1.067,1.067,3.2,2.133,4.267,3.2c1.067,0,1.067,1.067,2.133,1.067s1.067,1.067,2.133,1.067
		c1.067,1.067,3.2,2.133,4.267,2.133c1.067,1.067,3.2,1.067,4.267,2.133c1.067,1.067,3.2,1.067,4.267,2.133
		C316.8,366.865,320,368.999,320,368.999z"/>
	<path style="fill:#F7B64C;" d="M291.2,381.799c0,0-1.067,0-3.2,0s-4.267-1.067-7.467-1.067c-1.067,0-1.067,0-2.133,0h-1.067h-1.067
		c-2.133-1.067-3.2-1.067-5.333-2.133c-2.133-1.067-3.2-2.133-5.333-3.2c-1.067-1.067-3.2-2.133-4.267-3.2
		c-1.067-1.067-3.2-2.133-4.267-3.2c-1.067-1.067-3.2-2.133-4.267-3.2c-1.067-1.067-3.2-2.133-4.267-2.133
		c-1.067-1.067-3.2-1.067-4.267-2.133c-3.2-1.067-5.333-2.133-6.4-2.133c-2.133,0-2.133-1.067-2.133-1.067s1.067,0,3.2,0
		s4.267,1.067,7.467,1.067c1.067,0,3.2,1.067,4.267,1.067c2.133,1.067,3.2,1.067,5.333,2.133c3.2,2.133,6.4,4.267,9.6,6.4
		c1.067,1.067,3.2,2.133,4.267,3.2c1.067,1.067,3.2,2.133,4.267,3.2c1.067,1.067,3.2,2.133,4.267,2.133h1.067h1.067
		c1.067,0,1.067,0,2.133,1.067c3.2,1.067,5.333,1.067,6.4,2.133C290.133,380.732,291.2,381.799,291.2,381.799z"/>
	<path style="fill:#F7B64C;" d="M365.867,333.799c-1.067-3.2-3.2-6.4-5.333-9.6c-2.133-3.2-4.267-5.333-6.4-8.533
		c-4.267-5.333-9.6-10.667-14.933-14.933c-1.067-1.067-2.133-2.133-4.267-3.2c-1.067-1.067-3.2-2.133-4.267-3.2l-8.533-6.4
		l-17.067-12.8l-6.4-7.467c-3.2-2.133-5.333-4.267-8.533-6.4c-1.067-1.067-3.2-2.133-4.267-3.2c-1.067-1.067-3.2-2.133-4.267-3.2
		c-3.2-2.133-5.333-4.267-8.533-6.4c-3.2-2.133-6.4-4.267-8.533-5.333c-1.067-1.067-3.2-1.067-4.267-2.133c-1.067,0-1.067,0-2.133,0
		l0,0l0,0l0,0l0,0l0,0l0,0h-1.067H256h-1.067c-1.067,0-2.133,0-3.2,0c-2.133,0-3.2,0-5.333,1.067c-3.2,0-7.467,1.067-10.667,1.067
		l1.067-1.067l-2.133,3.2c-1.067,1.067-2.133,2.133-2.133,3.2c-1.067,1.067-2.133,2.133-3.2,3.2c-1.067,1.067-2.133,2.133-3.2,3.2
		c-1.067,1.067-2.133,2.133-3.2,3.2c-1.067,1.067-2.133,2.133-3.2,2.133c-1.067,1.067-2.133,1.067-3.2,2.133
		c-1.067,1.067-2.133,1.067-4.267,2.133c-1.067,0-1.067,0-2.133,1.067c-1.067,0-1.067,0-2.133,1.067c-1.067,0-1.067,0-2.133,0
		h-2.133H201.6h-2.133h-2.133c-1.067,0-1.067,0-2.133,0c-3.2,0-5.333-1.067-8.533-2.133c-1.067-1.067-2.133-1.067-4.267-2.133
		c-1.067-1.067-2.133-1.067-3.2-2.133l-1.067-1.067l1.067-1.067l7.467-11.733l7.467-11.733l0,0c0-2.133,1.067-3.2,2.133-4.267
		s1.067-3.2,2.133-4.267c1.067-3.2,3.2-6.4,5.333-8.533c2.133-3.2,4.267-5.333,6.4-7.467c1.067-1.067,3.2-2.133,4.267-3.2
		c1.067,0,2.133-1.067,2.133-1.067l2.133-1.067c6.4-2.133,12.8-3.2,19.2-4.267c6.4-1.067,12.8-2.133,19.2-4.267l-22.4,6.4
		c-6.4,1.067-12.8,3.2-19.2,5.333h-2.133c-1.067,0-1.067,1.067-2.133,1.067c-1.067,1.067-3.2,1.067-4.267,2.133
		c-2.133,2.133-4.267,4.267-6.4,7.467c-2.133,3.2-3.2,5.333-4.267,8.533c-1.067,1.067-1.067,3.2-2.133,4.267
		c-1.067,1.067-1.067,3.2-1.067,4.267l0,0l0,0l-6.4,11.733l-7.467,11.733v-2.133c1.067,1.067,2.133,1.067,3.2,2.133
		c1.067,1.067,2.133,1.067,3.2,2.133c2.133,1.067,5.333,2.133,7.467,2.133c1.067,0,1.067,0,2.133,0h2.133h2.133h2.133h2.133
		c1.067,0,1.067,0,2.133,0s1.067,0,2.133-1.067c1.067,0,1.067,0,2.133-1.067c1.067,0,2.133-1.067,3.2-2.133
		c1.067-1.067,2.133-1.067,3.2-2.133c1.067-1.067,2.133-1.067,3.2-2.133c1.067-1.067,2.133-2.133,3.2-2.133
		c1.067-1.067,2.133-2.133,3.2-3.2c1.067-1.067,2.133-2.133,3.2-3.2c1.067-1.067,2.133-2.133,2.133-3.2l2.133-3.2v-1.067h1.067
		c3.2,0,7.467,0,10.667-1.067c2.133,0,3.2,0,5.333-1.067c1.067,0,2.133,0,2.133,0h1.067h1.067H256l0,0l0,0h1.067
		c1.067,0,2.133,0,3.2,0c2.133,1.067,3.2,1.067,5.333,2.133c3.2,2.133,6.4,3.2,9.6,5.333c3.2,2.133,5.333,4.267,8.533,6.4
		c1.067,1.067,3.2,2.133,4.267,3.2c1.067,1.067,3.2,2.133,4.267,3.2c5.333,4.267,11.733,8.533,17.067,12.8l17.067,12.8l8.533,6.4
		c1.067,1.067,3.2,2.133,4.267,3.2c1.067,1.067,2.133,2.133,4.267,3.2c5.333,5.333,9.6,10.667,13.867,16
		c2.133,3.2,4.267,5.333,6.4,8.533C363.733,327.399,365.867,330.599,365.867,333.799z"/>
	<path style="fill:#F7B64C;" d="M231.467,243.132c0,0,0-1.067,1.067-2.133c0-1.067,1.067-4.267,1.067-6.4c0-2.133,0-4.267,0-6.4
		v-1.067v-1.067v-1.067c0,0,0,0,0,1.067c0,0,0,0,0,1.067v1.067c0,2.133,0,4.267,0,6.4c0,2.133,0,4.267,0,6.4s0,3.2,0,3.2
		L231.467,243.132z"/>
	<path style="fill:#F7B64C;" d="M236.8,404.199c0,0,2.133-1.067,4.267-2.133c1.067-1.067,3.2-2.133,4.267-2.133
		c1.067-1.067,3.2-2.133,4.267-3.2c2.133-1.067,3.2-2.133,4.267-3.2c1.067,0,1.067-1.067,2.133-1.067
		c1.067,0,1.067-1.067,2.133-1.067c1.067,0,1.067-1.067,1.067-1.067l1.067-1.067c1.067-1.067,1.067-1.067,1.067-1.067
		s0,0-1.067,1.067c0,0,0,1.067-1.067,1.067l-1.067,1.067c0,0-1.067,1.067-2.133,2.133c-1.067,1.067-1.067,1.067-2.133,2.133
		c-1.067,1.067-1.067,1.067-2.133,2.133c-1.067,1.067-1.067,1.067-2.133,2.133c-3.2,2.133-6.4,4.267-9.6,5.333
		c-1.067,1.067-2.133,1.067-3.2,1.067C236.8,404.199,236.8,404.199,236.8,404.199z"/>
	<path style="fill:#F7B64C;" d="M208,390.332c0,0,0-1.067,1.067-1.067l1.067-1.067l1.067-1.067c1.067-1.067,1.067-2.133,2.133-3.2
		c0,0,0-1.067,1.067-1.067l0,0l0,0v1.067c0,0,0,1.067-1.067,2.133c0,1.067-1.067,1.067-1.067,2.133
		c-1.067,1.067-2.133,2.133-2.133,2.133C209.067,389.265,208,390.332,208,390.332z"/>
</g>
<path style="fill:#E8EAE9;" d="M476.8,236.732c-18.133-27.733-38.4-54.4-58.667-80L358.4,190.865l84.267,142.933l67.2-46.933
	C498.133,269.799,487.467,252.732,476.8,236.732z"/>
<g>
	<path style="fill:#F3F3F3;" d="M266.667,405.265c0,0-4.267,4.267-8.533,5.333c-4.267,1.067-6.4-2.133-8.533-4.267
		c-2.133-2.133-1.067-6.4,0-8.533c1.067-2.133,7.467-5.333,7.467-5.333S266.667,402.065,266.667,405.265z"/>
	<path style="fill:#F3F3F3;" d="M236.8,377.532c0,0-5.333,6.4-2.133,13.867s12.8,3.2,16,1.067c2.133-1.067,9.6-6.4,9.6-6.4
		c-4.267-6.4-9.6-12.8-14.933-16L236.8,377.532z"/>
	<path style="fill:#F3F3F3;" d="M184.533,380.732c0,2.133,0,4.267,1.067,6.4c2.133,2.133,4.267,5.333,9.6,5.333
		c8.533,0,12.8-6.4,12.8-6.4s-11.733-5.333-17.067-16C190.933,371.132,185.6,373.265,184.533,380.732z"/>
</g>
<polygon style="fill:#415A6B;" points="512,95.932 512,310.332 469.333,339.132 365.867,185.532 "/>
<g>
</g>
<g>
</g>
<g>
</g>
<g>
</g>
<g>
</g>
<g>
</g>
<g>
</g>
<g>
</g>
<g>
</g>
<g>
</g>
<g>
</g>
<g>
</g>
<g>
</g>
<g>
</g>
<g>
</g>
</svg>
