<?xml version="1.0" encoding="iso-8859-1"?>
<!-- Generator: Adobe Illustrator 19.0.0, SVG Export Plug-In . SVG Version: 6.00 Build 0)  -->
<svg version="1.1" id="Capa_1" xmlns="http://www.w3.org/2000/svg" xmlns:xlink="http://www.w3.org/1999/xlink" x="0px" y="0px"
	 viewBox="0 0 514.133 514.133" style="enable-background:new 0 0 514.133 514.133;" xml:space="preserve">
<path style="fill:#F3705A;" d="M183.467,462.726h-5.333l-25.6-135.467H67.2l25.6,148.267c0,6.4,5.333,11.733,11.733,11.733h78.933
	C198.4,487.259,198.4,462.726,183.467,462.726z"/>
<path style="fill:#F05540;" d="M54.4,343.259L54.4,343.259c0,7.467,6.4,13.867,13.867,13.867h87.467
	c7.467,0,13.867-6.4,13.867-13.867l0,0c0-7.467-6.4-13.867-13.867-13.867h-86.4C60.8,330.459,54.4,335.793,54.4,343.259z"/>
<path id="SVGCleanerId_0" style="fill:#F3705A;" d="M451.2,171.526c-3.2,0-6.4,0-9.6,1.067v123.733c3.2,0,6.4,1.067,9.6,1.067
	c34.133,0,62.933-27.733,62.933-62.933S485.333,171.526,451.2,171.526z"/>
<path id="SVGCleanerId_1" style="fill:#66C6B9;" d="M0,159.793v148.267c0,11.733,9.6,21.333,21.333,21.333H169.6v-192H22.4
	C10.667,138.459,0,148.059,0,159.793z"/>
<polygon style="fill:#E8EAE9;" points="170.667,330.459 418.133,446.726 418.133,22.193 170.667,138.459 "/>
<path id="SVGCleanerId_2" style="fill:#66C6B9;" d="M429.867,468.059c-11.733,0-21.333-9.6-21.333-21.333V22.193
	c0-11.733,9.6-21.333,21.333-21.333c11.733,0,21.333,9.6,21.333,21.333v424.533C451.2,458.459,441.6,468.059,429.867,468.059z"/>
<path id="SVGCleanerId_3" style="fill:#4ABAA5;" d="M128,194.993H38.4c-5.333,0-9.6-4.267-9.6-9.6v-10.667
	c0-5.333,4.267-9.6,9.6-9.6H128c5.333,0,9.6,4.267,9.6,9.6v10.667C137.6,189.659,133.333,194.993,128,194.993z"/>
<path id="SVGCleanerId_4" style="fill:#4ABAA5;" d="M128,249.393H38.4c-5.333,0-9.6-4.267-9.6-9.6v-10.667
	c0-5.333,4.267-9.6,9.6-9.6H128c5.333,0,9.6,4.267,9.6,9.6v10.667C137.6,245.126,133.333,249.393,128,249.393z"/>
<path id="SVGCleanerId_5" style="fill:#4ABAA5;" d="M128,304.859H38.4c-5.333,0-9.6-4.267-9.6-9.6v-10.667
	c0-5.333,4.267-9.6,9.6-9.6H128c5.333,0,9.6,4.267,9.6,9.6v10.667C137.6,299.526,133.333,304.859,128,304.859z"/>
<g>
	<path id="SVGCleanerId_0_1_" style="fill:#F3705A;" d="M451.2,171.526c-3.2,0-6.4,0-9.6,1.067v123.733c3.2,0,6.4,1.067,9.6,1.067
		c34.133,0,62.933-27.733,62.933-62.933S485.333,171.526,451.2,171.526z"/>
</g>
<g>
	<path id="SVGCleanerId_1_1_" style="fill:#66C6B9;" d="M0,159.793v148.267c0,11.733,9.6,21.333,21.333,21.333H169.6v-192H22.4
		C10.667,138.459,0,148.059,0,159.793z"/>
</g>
<polygon style="fill:#E8EAE9;" points="170.667,330.459 418.133,446.726 418.133,22.193 170.667,138.459 "/>
<g>
	<path id="SVGCleanerId_2_1_" style="fill:#66C6B9;" d="M429.867,468.059c-11.733,0-21.333-9.6-21.333-21.333V22.193
		c0-11.733,9.6-21.333,21.333-21.333c11.733,0,21.333,9.6,21.333,21.333v424.533C451.2,458.459,441.6,468.059,429.867,468.059z"/>
</g>
<g>
	<path id="SVGCleanerId_3_1_" style="fill:#4ABAA5;" d="M128,194.993H38.4c-5.333,0-9.6-4.267-9.6-9.6v-10.667
		c0-5.333,4.267-9.6,9.6-9.6H128c5.333,0,9.6,4.267,9.6,9.6v10.667C137.6,189.659,133.333,194.993,128,194.993z"/>
</g>
<g>
	<path id="SVGCleanerId_4_1_" style="fill:#4ABAA5;" d="M128,249.393H38.4c-5.333,0-9.6-4.267-9.6-9.6v-10.667
		c0-5.333,4.267-9.6,9.6-9.6H128c5.333,0,9.6,4.267,9.6,9.6v10.667C137.6,245.126,133.333,249.393,128,249.393z"/>
</g>
<g>
	<path id="SVGCleanerId_5_1_" style="fill:#4ABAA5;" d="M128,304.859H38.4c-5.333,0-9.6-4.267-9.6-9.6v-10.667
		c0-5.333,4.267-9.6,9.6-9.6H128c5.333,0,9.6,4.267,9.6,9.6v10.667C137.6,299.526,133.333,304.859,128,304.859z"/>
</g>
<g>
	<path style="fill:#344A5E;" d="M193.067,193.926c-56.533,56.533-56.533,148.267,0,204.8c56.533,56.533,148.267,56.533,204.8,0
		s56.533-148.267,0-204.8S249.6,137.393,193.067,193.926z M368,368.859c-39.467,39.467-104.533,39.467-144,0s-39.467-104.533,0-144
		s104.533-39.467,144,0S407.467,328.326,368,368.859z"/>
	<path style="fill:#344A5E;" d="M429.867,390.193l-40.533,40.533c-4.267,4.267-10.667,4.267-13.867,0l-1.067-1.067
		c-4.267-4.267-4.267-10.667,0-13.867l40.533-40.533c4.267-4.267,10.667-4.267,13.867,0l1.067,1.067
		C434.133,379.526,434.133,385.926,429.867,390.193z"/>
</g>
<path style="fill:#FFD15C;" d="M490.667,428.593l-60.8-37.333L390.4,430.726l37.333,60.8c14.933,25.6,50.133,28.8,71.467,8.533l0,0
	C519.467,478.726,516.267,443.526,490.667,428.593z"/>
<g>
</g>
<g>
</g>
<g>
</g>
<g>
</g>
<g>
</g>
<g>
</g>
<g>
</g>
<g>
</g>
<g>
</g>
<g>
</g>
<g>
</g>
<g>
</g>
<g>
</g>
<g>
</g>
<g>
</g>
</svg>
