<?xml version="1.0" encoding="iso-8859-1"?>
<!-- Generator: Adobe Illustrator 19.0.0, SVG Export Plug-In . SVG Version: 6.00 Build 0)  -->
<svg version="1.1" id="Capa_1" xmlns="http://www.w3.org/2000/svg" xmlns:xlink="http://www.w3.org/1999/xlink" x="0px" y="0px"
	 viewBox="0 0 512 512" style="enable-background:new 0 0 512 512;" xml:space="preserve">
<rect x="193.067" y="401.067" style="fill:#CED6E0;" width="126.933" height="110.933"/>
<g>
	<path style="fill:#344A5E;" d="M396.8,512v-86.4c0-16-10.667-28.8-25.6-33.067l-44.8-12.8L276.267,512H396.8z"/>
	<path style="fill:#344A5E;" d="M235.733,512L185.6,379.733l-44.8,12.8c-14.933,4.267-25.6,18.133-25.6,33.067V512H235.733z"/>
</g>
<polygon style="fill:#F3705A;" points="268.8,436.267 279.467,424.533 256,401.067 232.533,424.533 243.2,436.267 "/>
<polygon style="fill:#F05540;" points="279.467,512 268.8,436.267 243.2,436.267 232.533,512 "/>
<path style="fill:#F3F3F3;" d="M297.6,355.2c0,0,0,11.733-7.467,18.133S256,401.067,256,401.067l25.6,43.733l32-66.133
	C312.533,378.667,307.2,359.467,297.6,355.2z"/>
<path style="fill:#415A6B;" d="M279.467,449.067c-3.2,13.867-9.6,36.267-13.867,62.933h25.6c0-1.067,1.067-2.133,1.067-3.2
	c10.667-23.467,44.8-89.6,44.8-89.6l-18.133-13.867H336c0,0-1.067-20.267-10.667-27.733c-9.6-6.4-12.8-9.6-17.067-14.933
	c-3.2-5.333-8.533-6.4-8.533-6.4s6.4,13.867,4.267,23.467C301.867,389.333,285.867,419.2,279.467,449.067z"/>
<path style="fill:#F3F3F3;" d="M214.4,355.2c0,0,0,11.733,7.467,18.133S256,401.067,256,401.067L230.4,444.8l-32-66.133
	C199.467,378.667,204.8,359.467,214.4,355.2z"/>
<path style="fill:#415A6B;" d="M219.733,508.8c0,1.067,1.067,2.133,1.067,3.2h25.6c-5.333-26.667-10.667-49.067-13.867-62.933
	c-6.4-29.867-23.467-59.733-24.533-69.333c-2.133-9.6,4.267-23.467,4.267-23.467s-4.267,1.067-8.533,6.4
	c-4.267,6.4-6.4,8.533-17.067,14.933C177.067,384,176,405.333,176,405.333h17.067L174.933,419.2
	C176,419.2,210.133,485.333,219.733,508.8z"/>
<path style="fill:#F7B64C;" d="M214.4,330.667V355.2c0,0,0,11.733,7.467,18.133c7.467,6.4,34.133,27.733,34.133,27.733
	s26.667-21.333,34.133-27.733S297.6,355.2,297.6,355.2v-24.533H214.4z"/>
<g>
	<path style="fill:#FFD15C;" d="M310.4,307.2c0,0-9.6,71.467-54.4,71.467s-50.133-57.6-50.133-62.933
		c0-5.333-7.467-44.8,5.333-71.467c11.733-26.667,58.667-30.933,78.933-20.267c20.267,10.667,24.533,12.8,25.6,26.667
		C315.733,263.467,313.6,297.6,310.4,307.2z"/>
	<path style="fill:#FFD15C;" d="M325.333,300.8c-1.067,10.667-7.467,20.267-12.8,20.267c-5.333,0-9.6-8.533-7.467-20.267
		c1.067-10.667,7.467-20.267,12.8-20.267S326.4,290.133,325.333,300.8z"/>
	<path style="fill:#FFD15C;" d="M187.733,300.8c1.067,10.667,7.467,20.267,12.8,20.267c5.333,0,9.6-8.533,7.467-20.267
		c-1.067-10.667-7.467-20.267-12.8-20.267C189.867,281.6,186.667,290.133,187.733,300.8z"/>
</g>
<g>
	<path style="fill:#415A6B;" d="M323.2,260.267c0,16-5.333,32-11.733,45.867v1.067c0,0-7.467-53.333-7.467-58.667
		c0-6.4-6.4-11.733-12.8-10.667c-20.267,4.267-40.533,4.267-59.733,0c-6.4-1.067-12.8,4.267-12.8,10.667
		c0,5.333-12.8,48-12.8,56.533c-5.333-13.867-9.6-28.8-11.733-42.667c-1.067-7.467-1.067-14.933,0-21.333
		c6.4-42.667,51.2-50.133,81.067-43.733c38.4,8.533,45.867,42.667,48,54.4C323.2,253.867,323.2,257.067,323.2,260.267z"/>
	<circle style="fill:#415A6B;" cx="99.2" cy="99.2" r="99.2"/>
</g>
<circle style="fill:#FFFFFF;" cx="99.2" cy="99.2" r="69.333"/>
<g>
	<circle style="fill:#F3705A;" cx="99.2" cy="74.667" r="28.8"/>
	<path style="fill:#F3705A;" d="M99.2,169.6c21.333,0,41.6-9.6,54.4-25.6c-11.733-17.067-30.933-28.8-54.4-28.8
		S56.533,126.933,44.8,144C58.667,158.933,77.867,169.6,99.2,169.6z"/>
</g>
<circle style="fill:#66C6B9;" cx="412.8" cy="99.2" r="99.2"/>
<circle style="fill:#FFFFFF;" cx="412.8" cy="99.2" r="69.333"/>
<g>
	<circle style="fill:#415A6B;" cx="412.8" cy="74.667" r="28.8"/>
	<path style="fill:#415A6B;" d="M412.8,169.6c21.333,0,41.6-9.6,54.4-25.6c-11.733-17.067-30.933-28.8-54.4-28.8
		s-42.667,11.733-54.4,28.8C371.2,158.933,390.4,169.6,412.8,169.6z"/>
</g>
<g>
	<polygon style="fill:#F3705A;" points="437.333,280.533 414.933,273.067 388.267,355.2 355.2,345.6 381.867,262.4 359.467,256 
		412.8,221.867 	"/>
	<polygon style="fill:#F3705A;" points="75.733,280.533 97.067,273.067 123.733,355.2 156.8,345.6 130.133,262.4 152.533,256 
		99.2,221.867 	"/>
</g>
<g>
</g>
<g>
</g>
<g>
</g>
<g>
</g>
<g>
</g>
<g>
</g>
<g>
</g>
<g>
</g>
<g>
</g>
<g>
</g>
<g>
</g>
<g>
</g>
<g>
</g>
<g>
</g>
<g>
</g>
</svg>
