<?xml version="1.0" encoding="iso-8859-1"?>
<!-- Generator: Adobe Illustrator 19.0.0, SVG Export Plug-In . SVG Version: 6.00 Build 0)  -->
<svg version="1.1" id="Capa_1" xmlns="http://www.w3.org/2000/svg" xmlns:xlink="http://www.w3.org/1999/xlink" x="0px" y="0px"
	 viewBox="0 0 510.933 510.933" style="enable-background:new 0 0 510.933 510.933;" xml:space="preserve">
<g>
	<path style="fill:#FFD15C;" d="M16,348.8c-3.2-1.067-5.333-4.267-7.467-6.4c-1.067-2.133-3.2-4.267-3.2-6.4
		c0,0-4.267-19.2,20.267-32c0,0-6.4-11.733,6.4-27.733C46.933,259.2,64,259.2,64,259.2l7.467,17.067L30.933,355.2L16,348.8z"/>
	<path style="fill:#FFD15C;" d="M295.467,456.533c0,0,13.867,11.733,27.733,11.733s23.467-6.4,28.8-14.933
		c0,0,12.8,9.6,24.533,4.267c11.733-5.333,17.067-12.8,17.067-24.533c0,0,3.2,11.733,17.067,10.667s20.267-19.2,19.2-27.733
		l-14.933-12.8L339.2,416C338.133,417.067,294.4,443.733,295.467,456.533z"/>
</g>
<path style="fill:#F7B64C;" d="M64,259.2c0,0-2.133,0-6.4,1.067c-4.267,14.933-11.733,28.8-22.4,40.533
	c-2.133,2.133-4.267,4.267-7.467,4.267c2.133,0,3.2,2.133,3.2,4.267s-1.067,3.2-2.133,5.333c-5.333,7.467-10.667,16-16,23.467
	c-1.067,2.133-2.133,4.267-3.2,5.333c2.133,2.133,4.267,3.2,6.4,5.333l13.867,7.467l41.6-80L64,259.2z"/>
<path style="fill:#FFD15C;" d="M313.6,66.133l1.067-4.267c0,0,5.333,0,10.667,3.2c5.333,3.2,9.6,11.733,6.4,19.2
	c0,0,12.8-1.067,19.2,8.533c6.4,9.6,5.333,22.4,0,32c0,0,8.533-4.267,14.933,0c7.467,4.267,12.8,18.133,12.8,21.333
	c0,3.2-2.133,5.333-2.133,5.333l-2.133,3.2c0,0-11.733-5.333-17.067-13.867s-13.867-14.933-13.867-14.933s-13.867-16-13.867-23.467
	c0-7.467-3.2-10.667-4.267-12.8c-1.067-2.133-8.533-12.8-9.6-14.933C314.667,72.533,313.6,66.133,313.6,66.133z"/>
<path id="SVGCleanerId_0" style="fill:#FFD15C;" d="M430.933,298.667c0-7.467-18.133-65.067-25.6-77.867
	c-7.467-12.8-34.133-65.067-34.133-65.067L352,129.067c0,0-4.267-3.2-9.6-7.467c-4.267-4.267-11.733-17.067-12.8-21.333
	c-1.067-5.333-5.333-12.8-9.6-19.2C315.733,74.667,277.333,0,277.333,0H38.4c0,0,40.533,36.267,57.6,51.2
	c16,14.933,65.067,67.2,65.067,67.2c-6.4,9.6-61.867,75.733-69.333,89.6c-7.467,13.867-22.4,44.8-34.133,62.933
	c-12.8,18.133-57.6,92.8-57.6,92.8v147.2h55.467c4.267-20.267,54.4-106.667,54.4-106.667s17.067,12.8,30.933,22.4
	c13.867,9.6,68.267,33.067,89.6,38.4c21.333,5.333,65.067-8.533,65.067-8.533s6.4-4.267,14.933-6.4
	c9.6-2.133,40.533-17.067,40.533-17.067s3.2-5.333,14.933-6.4c11.733-1.067,16-5.333,16-5.333l3.2-2.133c0,0,9.6,2.133,14.933,0
	c6.4-2.133,27.733-2.133,27.733-2.133l83.2-6.4V264.533L430.933,298.667z M246.4,313.6l-3.2-3.2
	c-3.2-8.533-34.133-10.667-34.133-10.667s25.6-10.667,30.933-13.867c5.333-3.2,18.133-7.467,19.2-8.533
	C246.4,288,246.4,313.6,246.4,313.6z"/>
<g>
	<path id="SVGCleanerId_0_1_" style="fill:#FFD15C;" d="M430.933,298.667c0-7.467-18.133-65.067-25.6-77.867
		c-7.467-12.8-34.133-65.067-34.133-65.067L352,129.067c0,0-4.267-3.2-9.6-7.467c-4.267-4.267-11.733-17.067-12.8-21.333
		c-1.067-5.333-5.333-12.8-9.6-19.2C315.733,74.667,277.333,0,277.333,0H38.4c0,0,40.533,36.267,57.6,51.2
		c16,14.933,65.067,67.2,65.067,67.2c-6.4,9.6-61.867,75.733-69.333,89.6c-7.467,13.867-22.4,44.8-34.133,62.933
		c-12.8,18.133-57.6,92.8-57.6,92.8v147.2h55.467c4.267-20.267,54.4-106.667,54.4-106.667s17.067,12.8,30.933,22.4
		c13.867,9.6,68.267,33.067,89.6,38.4c21.333,5.333,65.067-8.533,65.067-8.533s6.4-4.267,14.933-6.4
		c9.6-2.133,40.533-17.067,40.533-17.067s3.2-5.333,14.933-6.4c11.733-1.067,16-5.333,16-5.333l3.2-2.133c0,0,9.6,2.133,14.933,0
		c6.4-2.133,27.733-2.133,27.733-2.133l83.2-6.4V264.533L430.933,298.667z M246.4,313.6l-3.2-3.2
		c-3.2-8.533-34.133-10.667-34.133-10.667s25.6-10.667,30.933-13.867c5.333-3.2,18.133-7.467,19.2-8.533
		C246.4,288,246.4,313.6,246.4,313.6z"/>
</g>
<g>
	<path style="fill:#F3F3F3;" d="M37.333,340.267c4.267-8.533,12.8-11.733,22.4-13.867c0,0,4.267,10.667,2.133,16
		c-2.133,5.333-13.867,6.4-24.533,7.467V340.267z"/>
	<path style="fill:#F3F3F3;" d="M382.933,416c0,1.067,0,2.133,0,3.2c-1.067,3.2-4.267,7.467-19.2,6.4
		c-21.333-3.2-20.267-4.267-20.267-4.267S348.8,401.067,382.933,416z"/>
</g>
<g>
	<path style="fill:#F7B64C;" d="M414.933,302.933l-60.8,24.533c0,0-1.067,9.6-8.533,18.133c-7.467,9.6-20.267,11.733-20.267,11.733
		s7.467,12.8,8.533,18.133c0,0,20.267-3.2,30.933,7.467C375.467,393.6,385.067,404.267,384,416c0,0,8.533,1.067,9.6,4.267
		c0,0,25.6-5.333,34.133-3.2c0,0-8.533,1.067-19.2,2.133c-10.667,1.067-17.067,7.467-17.067,13.867c0,0,2.133-10.667,0-11.733
		c-2.133-1.067-9.6-2.133-10.667-1.067c0,0,2.133-5.333-1.067-10.667s-6.4-13.867-19.2-23.467c-12.8-8.533-28.8-12.8-38.4,10.667
		c0,0,3.2-8.533,5.333-12.8c2.133-4.267,0-17.067-7.467-23.467c0,0-2.133-6.4-6.4-9.6c-4.267-2.133-19.2,6.4-19.2,6.4
		s6.4-5.333,17.067-7.467c0,0,1.067-1.067-6.4-3.2c-7.467-1.067-16-1.067-19.2-3.2c0,0,9.6,1.067,13.867,1.067s9.6,1.067,9.6,1.067
		s-6.4-7.467-13.867-11.733c-7.467-4.267-14.933-6.4-14.933-6.4s20.267,5.333,26.667,12.8c6.4,7.467,12.8,12.8,13.867,13.867
		s14.933-3.2,20.267-12.8c4.267-9.6,13.867-27.733,18.133-33.067c4.267-5.333,8.533-11.733,13.867-12.8c5.333-1.067,41.6-3.2,48,0
		c6.4,3.2,8.533,3.2,8.533,3.2l0,0C425.6,298.667,420.267,300.8,414.933,302.933z"/>
	<path style="fill:#F7B64C;" d="M262.4,211.2c0,0,0,1.067,0,3.2c0,1.067,0,1.067,0,2.133c0,1.067,0,1.067,0,2.133s0,1.067,0,2.133
		c0,1.067,0,1.067,1.067,2.133c0,1.067,0,1.067,1.067,2.133c0,1.067,1.067,1.067,1.067,2.133c0,1.067,1.067,1.067,1.067,2.133
		l1.067,1.067l1.067,1.067c0,0,1.067,0,1.067,1.067l1.067,1.067c0,0,0,0-1.067,0c0,0-1.067,0-1.067-1.067l-1.067-1.067l-1.067-1.067
		l-1.067-1.067c0-1.067-1.067-1.067-1.067-2.133c0-1.067-1.067-1.067-1.067-2.133S262.4,224,262.4,222.933
		c0-1.067,0-1.067-1.067-2.133c0-1.067,0-1.067,0-2.133s0-1.067,0-2.133c0-1.067,0-2.133,0-3.2v-1.067
		C260.267,211.2,262.4,211.2,262.4,211.2z"/>
	<path style="fill:#F7B64C;" d="M368,425.6c0,0-5.333,2.133-8.533,7.467c-3.2,5.333-2.133,9.6-2.133,13.867c0,4.267-6.4,6.4-6.4,6.4
		s5.333-5.333,5.333-9.6c-1.067-4.267-1.067-6.4-5.333-6.4s-8.533,0-16,3.2c-7.467,3.2-16,7.467-18.133,8.533
		c-2.133,1.067-5.333,2.133-5.333,8.533c0,0,0-4.267-5.333-4.267c-5.333,0-10.667,2.133-10.667,2.133S310.4,448,318.933,443.733
		c8.533-4.267,12.8-8.533,19.2-10.667C345.6,433.067,357.333,423.467,368,425.6z"/>
	<path style="fill:#F7B64C;" d="M382.933,418.133c0,1.067,0,2.133-1.067,3.2c0,1.067-1.067,2.133-1.067,2.133
		c-1.067,1.067-1.067,1.067-2.133,2.133H377.6h-1.067c-2.133,0-3.2,0-5.333,1.067c-2.133,0-3.2,0-5.333,0c-1.067,0-2.133,0-3.2,0
		s-2.133,0-3.2,0l-5.333-1.067l-10.667-2.133l0,0l0,0c-6.4,2.133-13.867,5.333-21.333,6.4c-1.067,0-2.133,0-3.2,1.067
		c-1.067,0-2.133,0-3.2,0h-1.067H313.6h-1.067l0,0l0,0l0,0l0,0h-1.067H310.4h-1.067h-1.067c0,0-1.067,0-1.067-1.067
		c-2.133-1.067-3.2-2.133-5.333-2.133c-3.2-2.133-6.4-4.267-9.6-6.4c-3.2-2.133-6.4-4.267-8.533-7.467
		c-1.067-1.067-2.133-3.2-4.267-4.267c-1.067-1.067-2.133-3.2-3.2-4.267c-2.133-3.2-4.267-5.333-6.4-8.533
		c-4.267-6.4-8.533-11.733-12.8-18.133c-2.133-3.2-4.267-6.4-5.333-9.6c0-1.067-1.067-2.133-1.067-2.133
		c0-1.067-1.067-2.133-1.067-3.2c-1.067-2.133-1.067-3.2-2.133-5.333c-2.133-7.467-4.267-13.867-5.333-21.333
		c-1.067-3.2-1.067-7.467-1.067-11.733c0-2.133,0-4.267,0-5.333c0-2.133,0-3.2,1.067-5.333c1.067-3.2,1.067-7.467,2.133-10.667
		v-1.067v-1.067V300.8c0-1.067,0-2.133,1.067-3.2c1.067-2.133,1.067-3.2,2.133-5.333c3.2-6.4,8.533-12.8,14.933-17.067l1.067-1.067
		l1.067-1.067l2.133-1.067l4.267-3.2l9.6-5.333c1.067-1.067,3.2-2.133,4.267-3.2c1.067-1.067,3.2-2.133,4.267-3.2
		c3.2-2.133,6.4-4.267,8.533-6.4c3.2-2.133,5.333-4.267,8.533-6.4l1.067-1.067l1.067-1.067c1.067-1.067,1.067-1.067,2.133-2.133
		c1.067-1.067,1.067-1.067,1.067-2.133c0,0,0-1.067,1.067-1.067c0,0,0-1.067,1.067-1.067v-1.067l0,0l0,0l0,0l0,0V233.6l0,0l0,0
		v-1.067v-1.067c0,0,0,0,0-1.067c0-2.133,0-3.2,0-5.333c0-2.133-1.067-3.2-1.067-5.333s-1.067-3.2-2.133-5.333
		c-1.067-2.133-1.067-3.2-2.133-5.333V208v-1.067l1.067-1.067c-1.067-3.2-2.133-7.467-3.2-10.667
		c-2.133-7.467-4.267-13.867-6.4-21.333l0,0l0,0c0-1.067-1.067-3.2-1.067-4.267c-1.067-1.067-1.067-3.2-2.133-4.267
		c-1.067-1.067-2.133-1.067-4.267-2.133c-1.067,0-3.2,0-5.333,0c-2.133,0-3.2,0-5.333,1.067c-1.067,0-3.2,1.067-4.267,2.133
		c-3.2,1.067-5.333,4.267-7.467,6.4c-1.067,1.067-2.133,3.2-2.133,4.267c-1.067,1.067-1.067,3.2-2.133,4.267
		c0,1.067-1.067,3.2-1.067,5.333s-1.067,3.2-1.067,5.333c0,2.133-1.067,3.2-1.067,5.333c0,2.133,0,3.2-1.067,5.333
		c0,2.133,0,3.2,0,5.333c0,2.133,0,3.2,1.067,5.333l0,0l0,0c-1.067,0-3.2,0-4.267,0s-3.2,0-4.267,1.067
		c1.067-1.067,3.2-1.067,4.267-1.067s3.2,0,4.267,0l0,0c-1.067-2.133-1.067-3.2-1.067-5.333c0-2.133,0-3.2,0-5.333
		s0-3.2,1.067-5.333c0-2.133,0-3.2,1.067-5.333c0-2.133,1.067-3.2,1.067-5.333s1.067-3.2,1.067-5.333c0-2.133,1.067-3.2,2.133-5.333
		c1.067-1.067,1.067-3.2,2.133-4.267c2.133-3.2,4.267-5.333,7.467-7.467c3.2-2.133,6.4-3.2,10.667-3.2c2.133,0,3.2,0,5.333,0
		c1.067,0,2.133,0,3.2,1.067l0,0l0,0l0,0h1.067c0,0,0,0,1.067,0c0,0,0,0,1.067,0c1.067,1.067,2.133,3.2,3.2,4.267
		c1.067,2.133,1.067,3.2,1.067,5.333l0,0c2.133,7.467,4.267,13.867,6.4,21.333c1.067,3.2,2.133,7.467,3.2,10.667l1.067,2.133v1.067
		V208c0,2.133,1.067,3.2,2.133,5.333c1.067,2.133,1.067,3.2,2.133,5.333C320,220.8,320,221.867,320,224c0,2.133,0,4.267,0,6.4
		c0,0,0,0,0,1.067v1.067v1.067l0,0l0,0v1.067l0,0l0,0l0,0l0,0v1.067c0,0,0,1.067-1.067,1.067c0,0,0,1.067-1.067,1.067
		c-1.067,1.067-1.067,1.067-2.133,2.133c-1.067,1.067-1.067,1.067-2.133,2.133l-1.067,1.067l-3.2,3.2
		c-3.2,2.133-5.333,5.333-8.533,7.467c-3.2,2.133-6.4,4.267-9.6,6.4c-1.067,1.067-3.2,2.133-4.267,3.2s-3.2,2.133-4.267,3.2
		l-9.6,6.4l-4.267,3.2h-2.133H265.6l-1.067,1.067c-3.2,2.133-5.333,4.267-7.467,7.467c-2.133,3.2-4.267,5.333-5.333,8.533
		c-1.067,1.067-1.067,3.2-2.133,5.333c0,1.067,0,2.133-1.067,2.133v1.067v1.067V304c-1.067,3.2-1.067,7.467-2.133,10.667
		c0,2.133-1.067,3.2-1.067,5.333c0,1.067,0,2.133,0,2.133c0,1.067,0,2.133,0,2.133c0,3.2,0,7.467,1.067,10.667
		c1.067,7.467,3.2,13.867,5.333,21.333c1.067,2.133,1.067,3.2,2.133,5.333c0,1.067,1.067,2.133,1.067,2.133
		c0,1.067,1.067,1.067,1.067,2.133c2.133,3.2,3.2,6.4,5.333,9.6c4.267,6.4,7.467,11.733,11.733,18.133
		c2.133,3.2,4.267,6.4,6.4,8.533c1.067,1.067,2.133,3.2,3.2,4.267c1.067,1.067,2.133,3.2,3.2,4.267
		c2.133,2.133,5.333,4.267,8.533,6.4c3.2,2.133,5.333,4.267,8.533,6.4c1.067,1.067,3.2,2.133,4.267,2.133c0,0,1.067,0,1.067,1.067
		h1.067h1.067h1.067h1.067h1.067h1.067h1.067c1.067,0,2.133,0,2.133,0c1.067,0,2.133,0,2.133,0c7.467-1.067,13.867-3.2,21.333-6.4
		l0,0l0,0l0,0L352,422.4l5.333,1.067c1.067,0,2.133,0,2.133,0c1.067,0,2.133,0,2.133,0c2.133,0,3.2,0,5.333,0s3.2,0,5.333,0
		c1.067,0,2.133,0,2.133-1.067c1.067,0,1.067-1.067,2.133-1.067C380.8,421.333,381.867,419.2,382.933,418.133L382.933,418.133z"/>
	<path style="fill:#F7B64C;" d="M155.733,305.067H140.8h-14.933h-14.933H96l0,0l0,0c-1.067,0-2.133,0-2.133,0
		c-1.067,0-2.133,0-2.133,0c-1.067,0-2.133,0-2.133,0c-1.067,0-2.133,0-2.133,0H86.4h-1.067c0,0-1.067,0-1.067,1.067l0,0l0,0
		c-1.067,0-1.067,1.067-2.133,2.133L80,310.4c-2.133,3.2-5.333,5.333-7.467,8.533c-2.133,3.2-5.333,5.333-7.467,7.467l0,0l0,0
		c-6.4,2.133-8.533,3.2-10.667,3.2c-2.133,1.067-4.267,1.067-5.333,2.133c-2.133,1.067-4.267,2.133-5.333,3.2L42.667,336l0,0l0,0
		l0,0l0,0l0,0l0,0l0,0l0,0l0,0c0,0,0,0,0,1.067c0,0,0,1.067-1.067,1.067c-1.067,2.133-1.067,3.2-1.067,5.333
		c0,2.133,0,3.2,1.067,5.333l0,0l0,0l0,0l0,0l0,0l0,0l0,0l0,0l1.067,2.133c0,0,0,0,1.067,0l0,0c0,0,1.067,0,1.067,1.067
		c2.133,1.067,3.2,2.133,5.333,2.133c2.133,1.067,4.267,1.067,6.4,1.067c1.067,0,2.133,0,3.2,0c1.067,0,2.133,0,3.2,0
		c4.267,0,8.533,0,11.733-1.067c1.067,0,2.133,0,3.2-1.067c1.067,0,2.133-1.067,3.2-1.067s2.133-1.067,3.2-1.067
		s2.133-1.067,3.2-1.067c2.133-1.067,3.2-2.133,5.333-3.2c1.067,0,1.067-1.067,2.133-2.133l0,0l0,0l0,0l0,0l0,0l0,0l0,0l0,0l0,0
		l2.133-2.133c2.133,0,4.267,1.067,5.333,1.067c2.133,0,4.267,1.067,5.333,1.067c4.267,1.067,7.467,2.133,11.733,2.133
		c1.067,0,2.133,0,3.2,0c1.067,0,2.133,0,3.2,0c2.133,0,4.267,1.067,6.4,1.067c1.067,0,2.133,0,3.2,0s2.133,0,3.2,0
		c1.067,0,2.133,0,3.2,0h3.2h1.067v1.067c0,1.067,1.067,3.2,2.133,4.267c1.067,1.067,1.067,3.2,2.133,4.267
		c0,1.067,1.067,1.067,1.067,2.133c0,1.067,1.067,1.067,1.067,2.133c1.067,1.067,2.133,3.2,2.133,4.267l1.067,2.133
		c0,1.067,1.067,1.067,1.067,2.133l1.067,1.067l1.067,1.067c1.067,1.067,1.067,1.067,2.133,2.133l2.133,2.133l2.133,1.067l0,0l0,0
		l1.067,1.067l1.067,1.067l1.067,1.067c3.2,2.133,5.333,3.2,8.533,5.333c3.2,1.067,6.4,3.2,8.533,4.267
		c6.4,3.2,11.733,6.4,18.133,8.533c-6.4-2.133-12.8-5.333-18.133-8.533c-3.2-1.067-6.4-3.2-9.6-4.267
		c-3.2-1.067-6.4-3.2-8.533-4.267L166.4,380.8l-1.067-1.067l-1.067-1.067H163.2l0,0l-3.2,4.267l-2.133-2.133
		c-1.067-1.067-1.067-1.067-2.133-2.133l-1.067-1.067l-1.067-1.067c0-1.067-1.067-1.067-1.067-2.133l-1.067-2.133
		c-1.067,0-2.133-2.133-2.133-3.2s-1.067-1.067-1.067-2.133c0-1.067-1.067-1.067-1.067-2.133c-1.067-1.067-1.067-3.2-2.133-4.267
		c-1.067-1.067-1.067-3.2-2.133-5.333l1.067,1.067h-3.2c-1.067,0-2.133,0-3.2,0c-1.067,0-2.133,0-3.2,0c-1.067,0-2.133,0-3.2,0H128
		h-3.2c-1.067,0-2.133,0-3.2,0s-2.133,0-3.2,0c-4.267-1.067-7.467-1.067-11.733-2.133c-2.133,0-4.267-1.067-6.4-1.067
		c-2.133,0-4.267-1.067-6.4-1.067L96,349.867c0,1.067,0,1.067,0,1.067s0,0,0,1.067c0,0,0,0,0,1.067c0,0,0,0,0,1.067
		c0,0,0,1.067-1.067,1.067c0,0,0,0-1.067,1.067c-1.067,1.067-2.133,2.133-3.2,2.133c-2.133,1.067-4.267,2.133-6.4,3.2
		c-1.067,0-2.133,1.067-3.2,1.067c-1.067,0-2.133,1.067-3.2,1.067s-2.133,1.067-3.2,1.067c-1.067,0-2.133,0-3.2,1.067
		c0-4.266-4.267-4.266-8.533-4.266c-1.067,0-2.133,0-3.2,0c-1.067,0-2.133,0-3.2,0c-2.133,0-4.267-1.067-6.4-1.067
		c-2.133-1.067-4.267-1.067-6.4-2.133c0,0-1.067,0-1.067-1.067l-1.067-1.067c0,0,0,0-1.067-1.067h-1.067l0,0l0,0l0,0l0,0l0,0l0,0
		l-1.067-1.067c0,0,0,0-1.067-1.067s-1.067-2.133-2.133-3.2c0-1.067,0-2.133-1.067-3.2c0-2.133,0-5.333,1.067-7.467
		c0-1.067,0-1.067,1.067-2.133V336l0,0l0,0l0,0l0,0l0,0c0,0,0,0,1.067-1.067l1.067-1.067c2.133-1.067,4.267-2.133,6.4-3.2
		c2.133-1.067,4.267-1.067,6.4-2.133c2.133-1.067,4.267-1.067,6.4-2.133h-1.067L64,318.933c2.133-2.133,5.333-5.333,7.467-7.467
		l2.133-2.133c1.067-1.067,1.067-1.067,2.133-2.133H76.8c0,0,0,0,1.067,0c0,0,1.067,0,1.067-1.067L80,305.067h1.067
		c1.067,0,2.133,0,3.2-1.067c1.067,0,2.133,0,3.2,0c1.067,0,2.133,0,3.2,0c1.067,0,2.133,0,3.2,1.067l0,0l14.933,1.067l14.933,1.067
		l14.933,1.067L155.733,305.067z"/>
	<path style="fill:#F7B64C;" d="M144,354.133c0,0-3.2,5.333-6.4,8.533c-3.2,3.2-26.667,39.467-27.733,40.533
		c0-1.067,11.733-22.4,17.067-28.8c4.267-6.4,13.867-20.267,13.867-20.267L144,354.133z"/>
	<path style="fill:#F7B64C;" d="M233.6,288c0,0-10.667,7.467-23.467,7.467c-13.867,0-14.933,0-32,0s-41.6,4.267-49.067,4.267
		C121.6,299.733,108.8,304,108.8,304s52.267,0,68.267,4.267l0,0c8.533,4.267,19.2,2.133,26.667-4.267c3.2-3.2,6.4-5.333,9.6-6.4
		C221.867,295.467,230.4,292.267,233.6,288z"/>
	<path style="fill:#F7B64C;" d="M256,211.2c0,0-7.467,3.2-8.533,10.667C246.4,230.4,246.4,230.4,246.4,230.4s0-6.4-3.2-10.667
		c-3.2-4.267-4.267-9.6-11.733-12.8c-6.4-3.2-18.133-7.467-26.667-7.467c-9.6,0-35.2,6.4-43.733,14.933c0,0,29.867-22.4,35.2-25.6
		c5.333-3.2,7.467-7.467,7.467-7.467s-6.4,1.067-12.8,0c-6.4-1.067-9.6-2.133-9.6-2.133s14.933,0,19.2-1.067s5.333-3.2,5.333-3.2
		s-16-22.4-21.333-25.6c-5.333-4.267-25.6-29.867-25.6-29.867s14.933,14.933,18.133,18.133c3.2,4.267,32,39.467,37.333,45.867
		C221.867,187.733,238.933,211.2,256,211.2z"/>
	<path style="fill:#F7B64C;" d="M314.667,61.867c0,0,1.067,11.733,5.333,18.133c4.267,5.333,10.667,5.333,11.733,4.267
		c0,0-3.2,5.333-2.133,11.733c1.067,6.4,5.333,16,10.667,21.333s7.467,7.467,10.667,7.467c0,0,0,3.2,3.2,7.467
		c3.2,4.267,9.6,14.933,13.867,17.067c4.267,3.2,8.533,2.133,8.533,2.133c0,1.067,0,2.133,0,3.2c-1.067,3.2-5.333,3.2-7.467,1.067
		c-3.2-3.2-8.533-9.6-12.8-14.933c-4.267-7.467-11.733-13.867-14.933-17.067c-4.267-3.2-13.867-18.133-13.867-25.6
		C326.4,91.733,320,84.267,320,84.267S307.2,66.133,314.667,61.867z"/>
</g>
<path style="fill:#F3F3F3;" d="M284.8,203.733c6.4,0,18.133-2.133,18.133-9.6c0,0,0,0,0-1.067l-5.333-24.533
	c0,0-17.067,0-22.4,10.667l4.267,20.267C280.533,201.6,282.667,203.733,284.8,203.733z"/>
<path style="fill:#F7B64C;" d="M188.8,299.733l18.133-4.267c5.333,0,9.6,0,26.667-8.533c19.2-9.6,37.333-19.2,37.333-19.2
	L259.2,278.4c0,0-43.733,21.333-62.933,23.467c-19.2,2.133-19.2,2.133-19.2,2.133"/>
<g>
</g>
<g>
</g>
<g>
</g>
<g>
</g>
<g>
</g>
<g>
</g>
<g>
</g>
<g>
</g>
<g>
</g>
<g>
</g>
<g>
</g>
<g>
</g>
<g>
</g>
<g>
</g>
<g>
</g>
</svg>
