<?xml version="1.0" encoding="iso-8859-1"?>
<!-- Generator: Adobe Illustrator 19.0.0, SVG Export Plug-In . SVG Version: 6.00 Build 0)  -->
<svg version="1.1" id="Capa_1" xmlns="http://www.w3.org/2000/svg" xmlns:xlink="http://www.w3.org/1999/xlink" x="0px" y="0px"
	 viewBox="0 0 512.165 512.165" style="enable-background:new 0 0 512.165 512.165;" xml:space="preserve">
<path style="fill:#344A5E;" d="M155.283,394.667c0,0,7.467,3.2,13.867,3.2c6.4,0,18.133-10.667,18.133-10.667
	s17.067,12.8,20.267,13.867c3.2,1.067,19.2,2.133,22.4,1.067c3.2-1.067,4.267,1.067,4.267,3.2c0,1.067-7.467,5.333-11.733,6.4
	s-18.133,3.2-24.533,3.2s-14.933-2.133-19.2-1.067c-4.267,1.067-20.267,1.067-20.267,1.067S153.149,407.467,155.283,394.667z"/>
<g>
	<path style="fill:#415A6B;" d="M234.216,404.267c0,0-6.4,5.333-13.867,6.4c-7.467,2.133-18.133,4.267-26.667,2.133
		s-37.333-2.133-37.333-2.133V416c0,1.067,1.067,2.133,2.133,2.133h21.333c0,0,1.067,0,1.067-1.067V412.8c0,0,5.333,0,14.933,1.067
		c8.533,1.067,27.733-2.133,32-4.267C237.416,405.333,234.216,404.267,234.216,404.267z"/>
	<path style="fill:#415A6B;" d="M101.949,213.333c1.067,0,34.133,20.267,44.8,27.733s38.4,20.267,38.4,20.267
		s11.733,5.333,12.8,11.733c1.067,5.333,9.6,119.467,9.6,119.467s-21.333,5.333-29.867,6.4c-8.533,2.133-24.533,0-24.533,0
		s5.333-51.2,2.133-74.667c-3.2-22.4-3.2-30.933-3.2-30.933s-37.333-8.533-50.133-9.6c-12.8-1.067-12.8-1.067-12.8-1.067
		S96.616,214.4,101.949,213.333z"/>
</g>
<path style="fill:#344A5E;" d="M103.016,508.8l2.133-3.2c0,0,0-2.133-2.133-2.133c-3.2-1.067-11.733-2.133-16-4.267
	c-4.267-2.133-21.333-17.067-21.333-17.067l-32-2.133c0,0-6.4,6.4-5.333,17.067l2.133,3.2l18.133,5.333c0,0,17.067,6.4,32,6.4
	S103.016,508.8,103.016,508.8z"/>
<g>
	<path style="fill:#415A6B;" d="M28.349,505.6c4.267,1.067,11.733,3.2,17.067,3.2v-3.2c0,0,12.8,4.267,19.2,5.333
		c6.4,1.067,26.667,2.133,35.2,0c7.467-2.133,4.267-5.333,4.267-5.333s-2.133,4.267-5.333,4.267c-3.2,0-22.4,2.133-34.133,0
		c-10.667-2.133-16-5.333-21.333-7.467c-5.333-2.133-17.067-4.267-17.067-4.267l-1.067,5.333
		C26.216,503.467,27.283,505.6,28.349,505.6z"/>
	<path style="fill:#415A6B;" d="M101.949,283.733c0,0-19.2,104.533-21.333,119.467c-2.133,14.933-8.533,85.333-8.533,85.333
		s-9.6,0-23.467,0S31.549,480,31.549,480s5.333-19.2,5.333-25.6c0-6.4-1.067-61.867,2.133-81.067s1.067-82.133,7.467-97.067
		c6.4-14.933,54.4-5.333,54.4-5.333L101.949,283.733z"/>
</g>
<g>
	<path style="fill:#F3705A;" d="M42.216,314.667l1.067-13.867c0-1.067,1.067-3.2,3.2-3.2l0,0l24.533,1.067
		c1.067,0,1.067,0,2.133,1.067c0,1.067,1.067,1.067,1.067,2.133l-1.067,12.8h5.333l1.067-11.733c0-2.133-1.067-4.267-2.133-6.4
		c-1.067-2.133-3.2-3.2-6.4-3.2l-24.533-1.067c-5.333,0-8.533,3.2-8.533,8.533l-1.067,13.867H42.216L42.216,314.667z"/>
	<path style="fill:#F3705A;" d="M108.349,398.933L5.949,393.6c-3.2,0-5.333-3.2-5.333-5.333V310.4c0-3.2,2.133-5.333,5.333-5.333
		l102.4,5.333c3.2,0,5.333,3.2,5.333,5.333V393.6C113.683,396.8,110.483,398.933,108.349,398.933z"/>
</g>
<path style="fill:#FFD15C;" d="M65.683,11.733l10.667,3.2c0,0,5.333,11.733,5.333,13.867s0,3.2,1.067,4.267s7.467,9.6,7.467,9.6
	s1.067,2.133-1.067,3.2c-2.133,1.067-3.2,2.133-3.2,2.133s1.067,3.2,2.133,3.2c1.067,0,0,2.133-1.067,2.133c0,0,2.133,0,2.133,3.2
	c0,0-3.2,3.2-2.133,5.333c0,2.133,0,7.467-6.4,8.533c-6.4,0-8.533,0-8.533,0s-5.333,19.2-8.533,24.533
	c-3.2,5.333-3.2,5.333-3.2,5.333L36.883,72.533v-7.467C36.883,65.067,42.216,12.8,65.683,11.733z"/>
<path style="fill:#415A6B;" d="M36.883,65.067c0,0,9.6-1.067,11.733-13.867s8.533-10.667,9.6-7.467c0,2.133,1.067,5.333,1.067,5.333
	l3.2-1.067c0,0-1.067-6.4,1.067-9.6s2.133-10.667,0-13.867s6.4-7.467,10.667-8.533c4.267-1.067,7.467-9.6,4.267-11.733
	S62.483,0,51.816,0S27.283,5.333,21.949,11.733s-7.467,22.4-1.067,34.133S36.883,65.067,36.883,65.067z"/>
<ellipse transform="matrix(-0.1845 -0.9828 0.9828 -0.1845 17.9523 110.8147)" style="fill:#FFD15C;" cx="54.95" cy="47.959" rx="9.6" ry="5.333"/>
<path style="fill:#344A5E;" d="M37.949,77.867l-4.267,1.067c0,0-18.133,12.8-22.4,35.2S45.416,284.8,45.416,284.8
	s43.733,4.267,53.333-3.2c9.6-7.467,7.467-19.2,7.467-30.933c0-12.8-3.2-58.667-3.2-58.667s-7.467-38.4-12.8-46.933
	c-5.333-8.533-36.267-57.6-36.267-57.6L37.949,77.867z"/>
<path style="fill:#FFD15C;" d="M41.149,276.267c0,0,2.133,12.8,3.2,16c1.067,3.2,2.133,8.533,4.267,8.533
	c2.133,0,3.2-1.067,3.2-1.067s1.067,2.133,3.2,2.133c2.133,0,2.133-1.067,2.133-1.067s1.067,2.133,3.2,2.133
	c2.133,0,2.133-2.133,2.133-2.133s1.067,3.2,3.2,3.2c3.2,0,3.2-2.133,3.2-3.2s-1.067-7.467-1.067-8.533c0,0,2.133,4.267,5.333,2.133
	l-1.067-6.4c0,0-1.067-3.2-3.2-4.267C66.749,281.6,60.349,272,60.349,272L41.149,276.267z"/>
<path style="fill:#FFFFFF;" d="M63.549,272l2.133,4.267c-9.6,4.267-18.133,8.533-26.667,11.733l-2.133-12.8L63.549,272z"/>
<g>
	<path style="fill:#415A6B;" d="M23.016,98.133c6.4-9.6,14.933-7.467,23.467-1.067c1.067,1.067,2.133,2.133,2.133,2.133
		c3.2,4.267,11.733,18.133,8.533,36.267c-3.2,22.4-5.333,68.267-2.133,81.067c2.133,8.533,8.533,30.933,12.8,44.8
		c2.133,6.4-2.133,12.8-8.533,13.867c-7.467,2.133-18.133,4.267-24.533,6.4l0,0c-7.467,3.2-14.933-2.133-14.933-10.667
		c0-20.267-2.133-65.067-5.333-83.2C10.216,166.4,14.483,112,23.016,98.133z"/>
	<path style="fill:#415A6B;" d="M36.883,70.4c0,0,8.533,2.133,13.867,8.533s23.467,28.8,30.933,41.6
		c4.267,7.467,12.8,32,14.933,37.333c2.133,5.333,6.4,34.133,6.4,34.133s-8.533-22.4-11.733-33.067
		c-3.2-10.667-17.067-38.4-21.333-42.667s-25.6-30.933-36.267-37.333L36.883,70.4z"/>
</g>
<path style="fill:#FFFFFF;" d="M74.216,293.333c0,0-5.333-3.2-2.133-5.333L74.216,293.333z"/>
<polygon style="fill:#E8EAE9;" points="511.549,315.733 511.549,380.8 261.949,512 137.149,512 137.149,446.933 261.949,446.933 
	261.949,380.8 386.749,380.8 386.749,315.733 "/>
<g>
</g>
<g>
</g>
<g>
</g>
<g>
</g>
<g>
</g>
<g>
</g>
<g>
</g>
<g>
</g>
<g>
</g>
<g>
</g>
<g>
</g>
<g>
</g>
<g>
</g>
<g>
</g>
<g>
</g>
</svg>
