<?xml version="1.0" encoding="iso-8859-1"?>
<!-- Generator: Adobe Illustrator 19.0.0, SVG Export Plug-In . SVG Version: 6.00 Build 0)  -->
<svg version="1.1" id="Capa_1" xmlns="http://www.w3.org/2000/svg" xmlns:xlink="http://www.w3.org/1999/xlink" x="0px" y="0px"
	 viewBox="0 0 512 512" style="enable-background:new 0 0 512 512;" xml:space="preserve">
<path style="fill:#F3705A;" d="M94.933,122.233c0,27.733,1.067,55.467,1.067,83.2c0,9.6,0,20.267,6.4,27.733
	c6.4,8.533,17.067,10.667,26.667,12.8c10.667,2.133,22.4,3.2,33.067,3.2c4.267,0,9.6,0,13.867-2.133c6.4-3.2,10.667-8.533,12.8-16
	c2.133-6.4,2.133-13.867,3.2-20.267c0-9.6,1.067-19.2,0-28.8c-1.067-9.6-4.267-19.2-10.667-25.6c-6.4-7.467-16-12.8-25.6-16
	c-9.6-3.2-20.267-4.267-29.867-5.333"/>
<path style="fill:#FFD15C;" d="M88.533,234.233l12.8-20.267c0,0,6.4-5.333,7.467-11.733c1.067-6.4,0-12.8,0-12.8
	s-8.533-25.6-6.4-62.933l26.667-41.6l36.267-6.4l30.933,50.133c0,0,1.067,46.933-22.4,72.533c0,0-5.333,16-4.267,19.2l11.733,17.067
	l6.4,38.4l-33.067,16C155.733,292.899,101.333,268.366,88.533,234.233z"/>
<path style="fill:#F7B64C;" d="M94.933,232.099l5.333-14.933l2.133-3.2c0,0,6.4-5.333,7.467-11.733c1.067-6.4,0-12.8,0-12.8
	c37.333,50.133,65.067,11.733,65.067,11.733C140.8,254.499,94.933,232.099,94.933,232.099z"/>
<path style="fill:#E8EAE9;" d="M122.667,360.099l-32-126.933l16-2.133c11.733,28.8,62.933,51.2,69.333,40.533
	c7.467-10.667,5.333-33.067,5.333-33.067c10.667,7.467,18.133,71.467,22.4,121.6L122.667,360.099L122.667,360.099z"/>
<g>
	<path style="fill:#4ABAA5;" d="M0,360.099c1.067-26.667,9.6-86.4,11.733-98.133c2.133-12.8,12.8-14.933,12.8-14.933
		s27.733-12.8,48-19.2c6.4-2.133,24.533-10.667,28.8-11.733c0,0,16,42.667,29.867,69.333c11.733,22.4,20.267,51.2,26.667,76.8H0
		V360.099z"/>
	<path style="fill:#4ABAA5;" d="M198.4,360.099c5.333-45.867-17.067-119.467-28.8-138.667c0,0,13.867,9.6,20.267,13.867
		s44.8,22.4,44.8,22.4c18.133,8.533,12.8,50.133,13.867,64c0,4.267,1.067,20.267,1.067,38.4H198.4z"/>
</g>
<g>
	<path style="fill:#F3705A;" d="M146.133,95.566c0,0-7.467,0-23.467,14.933s-21.333,25.6-22.4,33.067
		c-1.067,7.467,7.467,61.867,7.467,61.867c-7.467,26.667-14.933,50.133-48,73.6c0,0,19.2-65.067,24.533-87.467
		c5.333-22.4-6.4-41.6,5.333-80s37.333-53.333,65.067-51.2s42.667,27.733,45.867,43.733c3.2,16,1.067,71.467-2.133,84.267
		c-3.2,12.8-12.8,71.467-12.8,71.467l2.133-83.2c0,0,6.4-17.067,2.133-28.8c-4.267-11.733-1.067-33.067-9.6-41.6
		C172.8,97.699,158.933,92.366,146.133,95.566z"/>
	<path style="fill:#F3705A;" d="M201.6,177.699c0,0-5.333,51.2,2.133,81.067s12.8,36.267,12.8,36.267s-29.867-11.733-35.2-43.733
		s0-42.667,0-42.667"/>
	<path style="fill:#F3705A;" d="M168.533,266.233c4.267,9.6,11.733,18.133,16,27.733c5.333,9.6,7.467,21.333,4.267,30.933
		c9.6-7.467,11.733-20.267,9.6-32c-2.133-11.733-6.4-22.4-9.6-33.067c-3.2-16-3.2-33.067-2.133-49.067l-12.8-9.6
		C160,219.299,158.933,244.899,168.533,266.233z"/>
	<path style="fill:#F3705A;" d="M108.8,190.499c3.2,12.8,1.067,34.133-3.2,45.867c-3.2,9.6-9.6,19.2-12.8,28.8
		c-3.2,10.667-3.2,21.333,1.067,32c-6.4-2.133-9.6-8.533-10.667-14.933s1.067-12.8,4.267-19.2c2.133-6.4,6.4-11.733,8.533-18.133
		c6.4-16,6.4-34.133-1.067-49.067"/>
</g>
<path style="fill:#CED6E0;" d="M469.333,196.899l-1.067,1.067l1.067,12.8c0,1.067,8.533,6.4,8.533,6.4s8.533-12.8,4.267-16
	C476.8,197.966,469.333,196.899,469.333,196.899z"/>
<path style="fill:#F3705A;" d="M484.267,238.499l16-4.267l11.733,9.6v116.267H379.733
	C379.733,360.099,462.933,244.899,484.267,238.499z"/>
<g>
	<path style="fill:#FFD15C;" d="M472.533,173.433l-4.267,20.267c0,0,2.133,17.067,10.667,24.533l-68.267,51.2
		c0,0-4.267-30.933-6.4-36.267c0,0-11.733,1.067-17.067-11.733c-4.267-12.8-8.533-20.267-10.667-26.667
		c-2.133-6.4-6.4-21.333-6.4-32c0-10.667-3.2-12.8-2.133-16c0-3.2,0-9.6,0-9.6s1.067-22.4,3.2-26.667c0,0,16-11.733,38.4-12.8
		c22.4-1.067,49.067,1.067,49.067,1.067L472.533,173.433z"/>
	<path style="fill:#FFD15C;" d="M477.867,217.166l-84.267,67.2c0,0,10.667-49.067,9.6-52.267c0,0-11.733,1.067-17.067-11.733
		c-4.267-12.8-8.533-20.267-10.667-26.667c-2.133-5.333-6.4-21.333-6.4-32c0-10.667-3.2-12.8-2.133-16c0-3.2,0-9.6,0-9.6
		s1.067-22.4,3.2-26.667c0,0,16-11.733,38.4-12.8c22.4-1.067,49.067,1.067,49.067,1.067l14.933,74.667l-4.267,20.267
		C467.2,193.699,470.4,210.766,477.867,217.166z"/>
</g>
<path id="SVGCleanerId_0" style="fill:#415A6B;" d="M366.933,137.166c0,0,2.133-20.267,3.2-23.467c2.133-3.2,8.533-5.333,13.867-3.2
	c5.333,2.133,29.867,0,36.267-2.133s23.467-3.2,24.533,6.4s0,12.8,3.2,18.133c4.267,6.4,8.533,18.133,8.533,22.4l5.333,1.067
	c0,0,2.133-6.4,4.267-8.533c2.133-2.133,6.4,0,6.4,3.2s-7.467,34.133-6.4,41.6c0,0,2.133-9.6,3.2-12.8s6.4-43.733,7.467-53.333
	s0-30.933-10.667-43.733c-10.667-12.8-25.6-19.2-41.6-21.333s-36.267,11.733-42.667,18.133s-17.067,13.867-13.867,32
	C368,112.633,364.8,129.699,366.933,137.166z"/>
<g>
	<path id="SVGCleanerId_0_1_" style="fill:#415A6B;" d="M366.933,137.166c0,0,2.133-20.267,3.2-23.467
		c2.133-3.2,8.533-5.333,13.867-3.2c5.333,2.133,29.867,0,36.267-2.133s23.467-3.2,24.533,6.4s0,12.8,3.2,18.133
		c4.267,6.4,8.533,18.133,8.533,22.4l5.333,1.067c0,0,2.133-6.4,4.267-8.533c2.133-2.133,6.4,0,6.4,3.2s-7.467,34.133-6.4,41.6
		c0,0,2.133-9.6,3.2-12.8s6.4-43.733,7.467-53.333s0-30.933-10.667-43.733c-10.667-12.8-25.6-19.2-41.6-21.333
		s-36.267,11.733-42.667,18.133s-17.067,13.867-13.867,32C368,112.633,364.8,129.699,366.933,137.166z"/>
</g>
<ellipse transform="matrix(0.3167 -0.9485 0.9485 0.3167 165.8836 558.1177)" style="fill:#FFD15C;" cx="470.322" cy="163.922" rx="20.266" ry="10.666"/>
<path style="fill:#F7B64C;" d="M460.8,191.566c-2.133,5.333-10.667,48-61.867,71.467c-1.067-9.6,5.333-27.733,4.267-30.933
	c0,0,14.933,1.067,29.867-9.6C448,212.899,458.667,197.966,460.8,191.566z"/>
<polyline style="fill:#CED6E0;" points="406.4,247.033 400,276.899 420.267,248.099 440.533,261.966 445.867,293.966 
	369.067,360.099 357.333,360.099 391.467,264.099 406.4,247.033 "/>
<g>
	<path style="fill:#E8EAE9;" d="M403.2,232.099c0,0,2.133,6.4,2.133,10.667c1.067,4.267,1.067,4.267,1.067,4.267
		c-3.2,9.6-7.467,16-13.867,21.333l0,0c0-4.267,1.067-7.467,3.2-10.667c1.067-1.067,1.067-2.133,1.067-3.2l-5.333-7.467
		L403.2,232.099"/>
	<path style="fill:#E8EAE9;" d="M487.467,221.433l-48,60.8l-19.2-34.133c0,0,46.933-32,51.2-35.2
		c3.2-2.133,8.533-7.467,8.533-10.667c-1.067-2.133-10.667-4.267-10.667-4.267v-2.133c13.867,2.133,14.933,7.467,14.933,7.467
		L487.467,221.433z"/>
</g>
<path style="fill:#F3705A;" d="M403.2,235.299l-1.067-2.133c0,0-7.467,0-16,6.4s-25.6,39.467-28.8,49.067
	c-2.133,9.6-19.2,71.467-19.2,71.467h19.2c0,0,33.067-86.4,35.2-91.733c2.133-5.333,6.4-18.133,6.4-18.133L403.2,235.299z"/>
<path style="fill:#F05540;" d="M484.267,209.699c0,0,1.067,5.333-4.267,10.667c-5.333,5.333-17.067,16-22.4,22.4
	c-5.333,6.4-28.8,36.267-41.6,50.133c-12.8,13.867-46.933,68.267-46.933,68.267h23.467l81.067-80l-4.267-18.133l20.267-4.267
	c0,0,8.533-13.867,10.667-22.4c1.067-2.133,0-4.267-1.067-6.4c-2.133-3.2-5.333-7.467-6.4-9.6
	C490.667,216.099,488.533,210.766,484.267,209.699"/>
<path id="SVGCleanerId_1" style="fill:#344A5E;" d="M134.4,450.766v-2.133l10.667-48L134.4,360.099c0,0-11.733,6.4-13.867,18.133
	c-2.133,11.733-3.2,18.133-7.467,26.667c-4.267,9.6-7.467,14.933-7.467,19.2c0,4.267-4.267,18.133-9.6,26.667H134.4z"/>
<g>
	<path id="SVGCleanerId_1_1_" style="fill:#344A5E;" d="M134.4,450.766v-2.133l10.667-48L134.4,360.099
		c0,0-11.733,6.4-13.867,18.133c-2.133,11.733-3.2,18.133-7.467,26.667c-4.267,9.6-7.467,14.933-7.467,19.2
		c0,4.267-4.267,18.133-9.6,26.667H134.4z"/>
</g>
<g>
	<path style="fill:#415A6B;" d="M133.333,450.766h69.333c1.067-26.667,2.133-50.133,3.2-57.6
		c3.2-20.267,10.667-58.667,10.667-58.667s-10.667,2.133-22.4,7.467c-12.8,5.333-13.867,7.467-25.6,8.533s-33.067,9.6-33.067,9.6
		s-14.933,14.933,0,88.533L133.333,450.766z"/>
	<path style="fill:#415A6B;" d="M304,450.766h101.333c3.2-13.867,6.4-28.8,7.467-34.133c2.133-8.533,7.467-52.267-4.267-60.8
		c-10.667-8.533-36.267-13.867-53.333-8.533c-17.067,5.333-43.733,48-40.533,71.467c0,0-8.533,17.067-10.667,26.667
		C305.067,447.566,304,448.633,304,450.766z"/>
</g>
<path style="fill:#344A5E;" d="M385.067,450.766l-69.333-33.067c1.067-8.533,14.933-41.6,42.667-58.667
	c27.733-17.067,51.2-4.267,51.2-4.267s0-3.2-10.667-8.533c-10.667-5.333-48-11.733-55.467-16c-6.4-4.267-21.333-7.467-21.333-7.467
	c-19.2,14.933-112,119.467-112,119.467s-1.067,1.067-4.267,8.533H385.067z"/>
<ellipse style="fill:#415A6B;" cx="295.467" cy="298.233" rx="3.2" ry="8.533"/>
<path style="fill:#FFD15C;" d="M199.467,216.099l-1.067,18.133c0,0,0,39.467,2.133,49.067c2.133,9.6,9.6,18.133,16,22.4
	c0,0,4.267,12.8,3.2,24.533c-1.067,11.733-18.133,32-18.133,32l30.933,13.867l69.333-66.133l-7.467-7.467c0,0,0-20.267,1.067-21.333
	c0,0,3.2-19.2,2.133-35.2c-1.067-16-2.133-32-2.133-32l-9.6-37.333c0,0-74.667-8.533-81.067,2.133
	C199.467,189.433,197.333,204.366,199.467,216.099z"/>
<path style="fill:#415A6B;" d="M284.8,152.099c-19.2-19.2-57.6-11.733-71.467,5.333s-20.267,22.4-19.2,42.667
	c2.133,18.133,4.267,30.933,4.267,35.2h1.067c1.067-3.2,3.2-13.867,2.133-23.467c-1.067-11.733-2.133-12.8,3.2-19.2
	c5.333-6.4,12.8-8.533,20.267-6.4c6.4,2.133,27.733,5.333,41.6,2.133c13.867-4.267,22.4,9.6,20.267,16
	c-2.133,5.333-3.2,9.6-1.067,10.667c2.133,1.067,10.667,14.933,9.6,33.067h2.133c0,0-3.2-11.733,4.267-19.2
	c0,0,2.133-13.867,2.133-27.733C305.067,185.166,304,171.299,284.8,152.099z"/>
<path style="fill:#F7B64C;" d="M295.467,285.433c0,0-4.267,13.867-34.133,27.733c-29.867,12.8-44.8-6.4-44.8-6.4
	s4.267,12.8,3.2,24.533c-1.067,8.533-10.667,22.4-14.933,28.8l0,0c0,0,0,0,43.733-26.667
	C293.333,306.766,295.467,285.433,295.467,285.433z"/>
<path style="fill:#CED6E0;" d="M204.8,365.433l-4.267,61.867l54.4-40.533l-3.2-40.533H240c0,0-6.4,7.467-8.533,13.867
	c-1.067,5.333-1.067,7.467-1.067,7.467l-1.067-6.4l-8.533-14.933L204.8,365.433z"/>
<path style="fill:#344A5E;" d="M182.4,450.766H208c4.267-22.4,7.467-43.733,9.6-54.4c3.2-25.6,0-52.267-2.133-62.933
	c0,0-7.467,10.667-13.867,16c-6.4,5.333-20.267,20.267-20.267,20.267l8.533,10.667L166.4,394.233
	C166.4,395.299,174.933,421.966,182.4,450.766z"/>
<g>
	<path style="fill:#FFD15C;" d="M313.6,244.899c-1.067,10.667-7.467,18.133-12.8,18.133c-5.333-1.067-8.533-9.6-6.4-20.267
		s7.467-18.133,12.8-18.133C311.467,225.699,314.667,234.233,313.6,244.899z"/>
	<path style="fill:#FFD15C;" d="M190.933,244.899c1.067,10.667,7.467,18.133,12.8,18.133c5.333-1.067,8.533-9.6,6.4-20.267
		c-1.067-10.667-7.467-18.133-12.8-18.133C193.067,225.699,189.867,234.233,190.933,244.899z"/>
</g>
<path style="fill:#F3F3F3;" d="M295.467,290.766c0,0,3.2,3.2,1.067,7.467s-5.333,10.667-16,18.133S240,345.166,240,345.166
	l6.4,42.667l64-72.533l-9.6-21.333c0,0-2.133-4.267-5.333-5.333L295.467,290.766z"/>
<path style="fill:#415A6B;" d="M215.467,450.766c2.133-3.2,4.267-5.333,6.4-7.467c19.2-22.4,55.467-49.067,60.8-53.333l-3.2-17.067
	l25.6-7.467c0,0,13.867-28.8,16-35.2s3.2-7.467,0-13.867c-3.2-6.4-8.533-12.8-9.6-17.067c-1.067-5.333-10.667-5.333-10.667-5.333
	s6.4,8.533,1.067,17.067c-5.333,8.533-52.267,42.667-75.733,81.067c-9.6,16-19.2,38.4-27.733,59.733h17.067V450.766z"/>
<path style="fill:#F3F3F3;" d="M218.667,316.366c0,0,6.4,34.133,10.667,43.733l-8.533-5.333l-2.133,16c0,0-5.333-13.867-4.267-25.6
	C215.467,333.433,216.533,319.566,218.667,316.366z"/>
<path style="fill:#344A5E;" d="M134.4,450.766v-2.133H97.067c0,1.067-1.067,2.133-1.067,2.133H134.4z"/>
<path style="fill:#415A6B;" d="M405.333,450.766c3.2-12.8,5.333-26.667,7.467-33.067h-97.067c0,0-8.533,17.067-10.667,26.667
	c-1.067,2.133-1.067,4.267-2.133,6.4H405.333z"/>
<g>
</g>
<g>
</g>
<g>
</g>
<g>
</g>
<g>
</g>
<g>
</g>
<g>
</g>
<g>
</g>
<g>
</g>
<g>
</g>
<g>
</g>
<g>
</g>
<g>
</g>
<g>
</g>
<g>
</g>
</svg>
