<?xml version="1.0" encoding="iso-8859-1"?>
<!-- Generator: Adobe Illustrator 19.0.0, SVG Export Plug-In . SVG Version: 6.00 Build 0)  -->
<svg version="1.1" id="Capa_1" xmlns="http://www.w3.org/2000/svg" xmlns:xlink="http://www.w3.org/1999/xlink" x="0px" y="0px"
	 viewBox="0 0 512 512" style="enable-background:new 0 0 512 512;" xml:space="preserve">
<path style="fill:#F7B64C;" d="M141.867,292.267c0,0,21.333,2.133,36.267,14.933c14.933,12.8,19.2,18.133,24.533,27.733
	c5.333,8.533,13.867,18.133,4.267,21.333s-9.6,3.2-9.6,3.2L141.867,292.267z"/>
<path style="fill:#FFD15C;" d="M418.133,347.733c3.2-7.467,0-24.533,0-24.533l-38.4-43.733c0,0-69.333-21.333-84.267-26.667
	c-16-5.333-33.067-16-57.6-20.267c-25.6-4.267-45.867-14.933-72.533-28.8C138.667,189.867,60.8,144,45.867,126.933
	c-12.8-12.8-35.2-24.533-45.867-29.867V220.8c49.067,24.533,116.267,58.667,132.267,66.133c25.6,10.667,84.267,37.333,84.267,37.333
	c2.133,21.333,27.733,53.333,32,60.8s29.867,26.667,35.2,28.8c5.333,2.133,12.8,1.067,17.067-3.2s10.667-6.4,13.867-6.4
	s8.533,2.133,14.933,0c6.4-2.133,12.8-9.6,12.8-9.6s6.4,1.067,16-2.133c8.533-3.2,13.867-13.867,13.867-13.867
	s7.467,8.533,18.133,9.6c10.667,1.067,18.133-10.667,18.133-10.667c9.6,2.133,13.867-5.333,13.867-5.333L418.133,347.733z"/>
<path style="fill:#F7B64C;" d="M171.733,298.667c-1.067-2.133-2.133-3.2-3.2-4.267c-4.267-6.4-8.533-11.733-21.333-19.2
	c-11.733-6.4-35.2-14.933-53.333-21.333c-5.333-2.133-10.667-4.267-14.933-5.333c-8.533-3.2-27.733-11.733-48-21.333
	C20.267,222.933,9.6,217.6,0,213.333v8.533C49.067,246.4,116.267,280.533,132.267,288c11.733,5.333,29.867,12.8,45.867,20.267
	C176,304,173.867,300.8,171.733,298.667z"/>
<path style="fill:#ADB3BA;" d="M309.333,375.467c0,0-28.8,5.333-52.267-2.133s-35.2-23.467-62.933-30.933c0,0,21.333-8.533,49.067,0
	C268.8,350.933,293.333,372.267,309.333,375.467z"/>
<path style="fill:#CED6E0;" d="M264.533,374.4c0,0-23.467,5.333-48-2.133s-35.2-23.467-62.933-30.933c0,0,21.333-8.533,49.067,0
	C229.333,350.933,248.533,371.2,264.533,374.4z"/>
<path style="fill:#ADB3BA;" d="M163.2,342.4c-3.2-1.067-6.4-2.133-9.6-2.133V361.6c7.467,4.267,14.933,8.533,23.467,11.733
	c24.533,7.467,48,2.133,48,2.133C209.067,371.2,189.867,350.933,163.2,342.4z"/>
<g>
	<path style="fill:#CED6E0;" d="M153.6,357.333v19.2c17.067,2.133,30.933-1.067,30.933-1.067C176,373.333,166.4,364.8,153.6,357.333
		z"/>
	<path style="fill:#CED6E0;" d="M512,339.2c-22.4-4.267-38.4,2.133-38.4,2.133c17.067,4.267,27.733,11.733,38.4,19.2V339.2z"/>
</g>
<path style="fill:#ADB3BA;" d="M512,357.333C503.467,352,493.867,345.6,482.133,342.4c-26.667-8.533-49.067,0-49.067,0
	c27.733,7.467,38.4,22.4,62.933,30.933c5.333,2.133,10.667,2.133,14.933,3.2L512,357.333L512,357.333z"/>
<path style="fill:#CED6E0;" d="M504.533,374.4c0,0-23.467,5.333-48-2.133s-35.2-23.467-62.933-30.933c0,0,21.333-8.533,49.067,0
	C469.333,350.933,488.533,371.2,504.533,374.4z"/>
<path style="fill:#ADB3BA;" d="M465.067,374.4c0,0-23.467,5.333-48-2.133s-35.2-23.467-62.933-30.933c0,0,21.333-8.533,49.067,0
	C429.867,350.933,449.067,371.2,465.067,374.4z"/>
<path style="fill:#CED6E0;" d="M425.6,374.4c0,0-22.4,5.333-46.933-2.133c-24.533-7.467-35.2-23.467-62.933-30.933
	c0,0,21.333-8.533,49.067,0C390.4,350.933,409.6,371.2,425.6,374.4z"/>
<path style="fill:#ADB3BA;" d="M387.2,375.467c0,0-24.533,5.333-49.067-2.133s-35.2-23.467-62.933-30.933c0,0,21.333-8.533,49.067,0
	C350.933,350.933,371.2,372.267,387.2,375.467z"/>
<path style="fill:#CED6E0;" d="M348.8,375.467c0,0-24.533,5.333-49.067-2.133c-24.533-7.467-35.2-25.6-62.933-32
	c0,0,21.333-7.467,49.067,2.133C311.467,350.933,332.8,372.267,348.8,375.467z"/>
<path style="fill:#FFD15C;" d="M224,378.667c-2.133-8.533-16-30.933-21.333-35.2c-5.333-4.267-27.733-32-35.2-40.533
	C160,294.4,160,288,144,279.467c-14.933-8.533-50.133-20.267-67.2-26.667c-11.733-4.267-48-21.333-76.8-34.133v112
	c9.6,4.267,17.067,7.467,19.2,9.6c7.467,6.4,10.667,24.533,17.067,33.067c7.467,8.533,43.733,35.2,43.733,35.2
	s11.733,7.467,24.533,2.133s17.067-1.067,20.267-2.133c3.2-1.067,16-7.467,18.133-10.667c0,0,6.4,7.467,17.067,4.267
	c10.667-3.2,16-13.867,17.067-18.133c0,0,13.867,26.667,30.933,25.6C225.067,408.533,226.133,387.2,224,378.667z"/>
<path style="fill:#F7B64C;" d="M178.133,384l-1.067-7.467l1.067,10.667C177.067,385.067,178.133,384,178.133,384L178.133,384z"/>
<g>
	<path style="fill:#FFD15C;" d="M421.333,371.2c0,0-4.267,8.533-13.867,5.333c-17.067-3.2-26.667-22.4-27.733-40.533
		c0,0,3.2-6.4,6.4-10.667c7.467-8.533,14.933-11.733,22.4-12.8l8.533,9.6c0,0,3.2,17.067,0,24.533L421.333,371.2z"/>
	<path style="fill:#FFD15C;" d="M407.467,376.533c0,0-7.467,12.8-18.133,10.667c-10.667-1.067-18.133-9.6-18.133-9.6
		s-5.333,10.667-13.867,13.867c-8.533,3.2-16,2.133-16,2.133s-6.4,7.467-12.8,9.6c-6.4,2.133-10.667,0-14.933,0
		c-3.2,0-9.6,3.2-13.867,6.4c-4.267,4.267-11.733,4.267-17.067,3.2c0,0-1.067,0-2.133-1.067l-6.4-19.2c0,0-4.267-6.4-6.4-13.867
		c-2.133-7.467-5.333-16-8.533-21.333c-2.133-5.333-4.267-8.533-4.267-12.8c0-4.267-1.067-8.533,1.067-12.8
		c2.133-4.267,16-7.467,19.2-2.133c0,0,1.067-9.6,7.467-13.867c7.467-4.267,21.333,2.133,23.467,8.533c0,0,1.067-6.4,5.333-8.533
		s10.667-3.2,16,0C332.8,318.933,336,326.4,336,326.4s-1.067-6.4,4.267-9.6c5.333-3.2,14.933-1.067,20.267,2.133
		c4.267,3.2,11.733,11.733,14.933,16l0,0c0,1.067,0,2.133,0,3.2c0,5.333,1.067,11.733,7.467,22.4
		C395.733,375.467,407.467,376.533,407.467,376.533z"/>
</g>
<g>
	<path style="fill:#F7B64C;" d="M363.733,318.933c-5.333-3.2-13.867-4.267-19.2-2.133c-5.333,3.2-4.267,9.6-4.267,9.6
		s-2.133-7.467-8.533-10.667c-5.333-3.2-12.8-2.133-16,0c-4.267,2.133-5.333,8.533-5.333,8.533
		c-2.133-6.4-17.067-11.733-23.467-8.533c-7.467,4.267-7.467,14.933-7.467,14.933c0-1.067-1.067-1.067-2.133-2.133l0,0
		c1.067-3.2,1.067-6.4,0-8.533c-1.067-2.133-4.267-4.267-7.467-4.267c4.267,0,8.533,0,13.867-1.067
		c-5.333-3.2-9.6-7.467-11.733-13.867c2.133,5.333,7.467,8.533,12.8,9.6c2.133,0,3.2,0,5.333,0c5.333,0,9.6,0,14.933,0
		c2.133,0,3.2,0,5.333,0c3.2-1.067,5.333-2.133,8.533-3.2c4.267-1.067,8.533,0,11.733,1.067c4.267,1.067,7.467,3.2,11.733,4.267
		c4.267,1.067,9.6,0,13.867,1.067C358.4,315.733,361.6,316.8,363.733,318.933z"/>
	<path style="fill:#F7B64C;" d="M371.2,378.667c0,0,0-1.067-1.067-2.133c-1.067-1.067-2.133-3.2-4.267-5.333s-4.267-4.267-6.4-7.467
		c-2.133-2.133-5.333-5.333-7.467-8.533c-2.133-3.2-4.267-6.4-5.333-10.667c-1.067-2.133-1.067-3.2-2.133-5.333
		c-1.067-1.067-1.067-3.2-1.067-4.267c-1.067-3.2-2.133-5.333-2.133-6.4c-1.067-1.067-1.067-2.133-1.067-2.133l0,0
		c0,0,1.067,1.067,2.133,2.133c1.067,1.067,2.133,3.2,3.2,6.4c1.067,2.133,3.2,5.333,4.267,9.6c1.067,3.2,2.133,7.467,4.267,9.6
		c2.133,3.2,4.267,6.4,7.467,8.533c1.067,1.067,2.133,3.2,3.2,4.267c1.067,1.067,2.133,2.133,3.2,4.267
		c2.133,2.133,3.2,4.267,4.267,6.4C371.2,377.6,372.267,377.6,371.2,378.667L371.2,378.667z"/>
	<path style="fill:#F7B64C;" d="M342.4,393.6c0,0-1.067,0-3.2-2.133c-1.067-1.067-1.067-2.133-2.133-3.2
		c-1.067-1.067-1.067-3.2-2.133-5.333c-1.067-3.2-3.2-7.467-5.333-11.733c-2.133-4.267-4.267-8.533-7.467-12.8
		c-1.067-2.133-3.2-4.267-4.267-6.4c-1.067-2.133-3.2-4.267-4.267-6.4c-1.067-2.133-2.133-4.267-3.2-6.4
		c-1.067-2.133-1.067-4.267-1.067-6.4c0-2.133,0-3.2,0-5.333c0-1.067,0-3.2,0-4.267c0-2.133,0-3.2,0-3.2l0,0c0,0,0,1.067,1.067,3.2
		c0,1.067,0,2.133,1.067,4.267c0,1.067,0,3.2,1.067,5.333c0,2.133,1.067,3.2,1.067,5.333c1.067,2.133,2.133,4.267,3.2,5.333
		c1.067,2.133,2.133,4.267,3.2,6.4c1.067,2.133,3.2,4.267,4.267,6.4c3.2,4.267,5.333,8.533,7.467,12.8
		c2.133,4.267,3.2,8.533,4.267,11.733c0,2.133,1.067,3.2,1.067,5.333c1.067,1.067,1.067,2.133,2.133,3.2
		C340.267,392.533,341.333,393.6,342.4,393.6L342.4,393.6L342.4,393.6z"/>
	<path style="fill:#F7B64C;" d="M306.133,407.467c0,0,0-1.067,0-3.2c0-2.133-1.067-5.333-1.067-9.6c0-2.133-1.067-4.267-1.067-6.4
		c-1.067-2.133-1.067-4.267-3.2-6.4c-1.067-2.133-3.2-4.267-4.267-6.4c-1.067-2.133-3.2-4.267-4.267-6.4
		c-2.133-4.267-4.267-9.6-6.4-13.867c-1.067-2.133-1.067-4.267-2.133-6.4c-1.067-2.133-1.067-4.267-2.133-6.4
		c-1.067-2.133-1.067-3.2-2.133-5.333c-1.067-1.067-1.067-3.2-1.067-4.267c-1.067-2.133-1.067-3.2-1.067-3.2l0,0
		c0,0,1.067,1.067,2.133,3.2c1.067,1.067,1.067,2.133,2.133,3.2c1.067,1.067,1.067,3.2,2.133,5.333
		c1.067,2.133,1.067,4.267,2.133,6.4c1.067,2.133,1.067,4.267,2.133,6.4c1.067,4.267,3.2,9.6,5.333,13.867
		c1.067,2.133,2.133,4.267,3.2,6.4c1.067,2.133,3.2,4.267,4.267,6.4c1.067,2.133,2.133,4.267,3.2,6.4c0,2.133,1.067,4.267,1.067,6.4
		c0,4.267,1.067,7.467,1.067,9.6C307.2,405.333,307.2,407.467,306.133,407.467L306.133,407.467z"/>
	<path style="fill:#F7B64C;" d="M379.733,337.067L379.733,337.067c-3.2-4.267-6.4-7.467-9.6-10.667
		c-2.133-2.133-3.2-3.2-5.333-4.267c-2.133-1.067-4.267-2.133-5.333-3.2c-2.133-1.067-4.267-1.067-6.4-1.067
		c-2.133,0-4.267,0-6.4,1.067c0,0-1.067,0-1.067,1.067l0,0l0,0c0,0,0,0-1.067,0c-1.067,1.067-1.067,1.067-2.133,2.133
		c0,1.067-1.067,2.133-1.067,3.2c0,1.067,0,2.133,0,3.2c0,0,0,1.067-1.067,1.067c0,0-1.067,0-1.067-1.067l0,0
		c-1.067-1.067-1.067-3.2-2.133-4.267c-1.067-1.067-2.133-3.2-3.2-4.267c-1.067-1.067-1.067-1.067-2.133-1.067l-1.067-1.067
		c0,0-1.067,0-1.067-1.067c-1.067-1.067-3.2-1.067-4.267-1.067c-3.2,0-6.4,0-9.6,2.133c0,0-1.067,0-1.067,1.067c0,0,0,0-1.067,1.067
		c0,1.067-1.067,1.067-1.067,2.133s-1.067,1.067-1.067,2.133c0,1.067-1.067,1.067-1.067,2.133c0,1.067-1.067,1.067-1.067,1.067
		s-1.067,0-1.067-1.067l0,0v-1.067l-1.067-1.067l-1.067-1.067l-1.067-1.067c-1.067,0-1.067-1.067-2.133-1.067S301.867,320,300.8,320
		s-2.133-1.067-2.133-1.067c-1.067,0-2.133-1.067-2.133-1.067c-1.067,0-2.133,0-2.133,0c-1.067,0-2.133,0-2.133,0H291.2h-1.067
		h-1.067H288l-1.067,1.067L285.867,320c-1.067,1.067-1.067,1.067-2.133,2.133c0,1.067-1.067,1.067-1.067,2.133
		c0,1.067-1.067,1.067-1.067,2.133c0,1.067-1.067,2.133-1.067,2.133c0,1.067,0,2.133,0,2.133c0,1.067-1.067,1.067-1.067,1.067H278.4
		c-1.067-1.067-2.133-2.133-4.267-2.133s-3.2,0-5.333,0c-2.133,0-3.2,1.067-5.333,1.067c-1.067,1.067-3.2,1.067-4.267,3.2
		c-1.067,1.067-1.067,3.2-1.067,4.267c0,2.133,0,3.2,0,5.333v3.2c0,1.067,0,2.133,0,2.133c0,2.133,1.067,3.2,1.067,5.333
		c3.2,6.4,6.4,12.8,8.533,20.267c1.067,2.133,1.067,3.2,1.067,5.333s1.067,3.2,1.067,5.333c1.067,3.2,2.133,6.4,4.267,9.6
		c-2.133-3.2-3.2-6.4-5.333-9.6c-1.067-2.133-1.067-3.2-1.067-5.333s-1.067-3.2-1.067-5.333c-2.133-6.4-5.333-12.8-8.533-20.267
		c-1.067-2.133-1.067-3.2-2.133-5.333c0-1.067,0-2.133,0-3.2v-3.2c0-2.133,0-3.2,0-5.333c0-2.133,1.067-4.267,2.133-5.333
		c1.067-2.133,3.2-3.2,4.267-3.2c2.133-1.067,3.2-1.067,5.333-1.067c2.133,0,4.267,0,5.333,0c2.133,0,4.267,1.067,5.333,3.2h-2.133
		c0-1.067,0-2.133,0-3.2c0-1.067,0-2.133,1.067-3.2c0-1.067,1.067-2.133,1.067-2.133c0-1.067,1.067-2.133,1.067-2.133
		c1.067-1.067,1.067-1.067,2.133-2.133l1.067-1.067l1.067-1.067c1.067,0,2.133-1.067,3.2-1.067H288h1.067
		c4.267,0,7.467,1.067,10.667,2.133c1.067,0,2.133,1.067,2.133,1.067c1.067,0,2.133,1.067,2.133,2.133l1.067,1.067l1.067,1.067
		l1.067,1.067c0,0,0,1.067,1.067,1.067h-2.133c0-1.067,0-2.133,1.067-2.133c0-1.067,1.067-2.133,1.067-2.133
		c0-1.067,1.067-1.067,2.133-2.133l1.067-1.067c0,0,1.067,0,1.067-1.067c3.2-1.067,7.467-2.133,10.667-2.133c1.067,0,2.133,0,3.2,0
		c1.067,0,2.133,0,2.133,1.067c0,0,1.067,0,1.067,1.067c0,0,1.067,0,1.067,1.067c1.067,1.067,1.067,1.067,2.133,2.133
		c1.067,1.067,2.133,3.2,3.2,4.267c1.067,1.067,2.133,3.2,2.133,5.333H336c0-1.067,0-2.133,0-3.2c0-1.067,0-2.133,1.067-3.2
		s1.067-2.133,2.133-3.2c0,0,0,0,1.067,0l0,0l0,0c1.067,0,1.067,0,2.133-1.067c2.133-1.067,4.267-1.067,7.467,0
		c2.133,0,4.267,1.067,6.4,2.133c2.133,1.067,4.267,2.133,6.4,3.2c2.133,1.067,3.2,3.2,5.333,5.333
		C374.4,329.6,377.6,332.8,379.733,337.067L379.733,337.067L379.733,337.067z"/>
	<path style="fill:#F7B64C;" d="M407.467,376.533c-2.133,0-4.267-1.067-6.4-2.133c-1.067,0-2.133-1.067-3.2-1.067
		s-2.133-1.067-3.2-2.133c-1.067-1.067-2.133-1.067-2.133-2.133C391.467,368,390.4,368,390.4,366.933
		c-1.067-1.067-1.067-2.133-2.133-2.133c-1.067-1.067-1.067-2.133-2.133-3.2c-2.133-4.267-4.267-7.467-5.333-11.733
		c-1.067-2.133-1.067-4.267-1.067-6.4c0-2.133,0-4.267,0-6.4l0,0c-1.067-2.133-3.2-4.267-4.267-6.4
		c-2.133-2.133-3.2-4.267-5.333-6.4c-2.133-2.133-4.267-3.2-6.4-5.333c-1.067-1.067-2.133-2.133-3.2-3.2
		c-1.067-1.067-1.067-2.133-2.133-3.2c0,1.067,1.067,1.067,1.067,2.133l1.067,1.067c1.067,1.067,2.133,2.133,3.2,2.133
		c2.133,1.067,4.267,3.2,6.4,5.333c2.133,2.133,4.267,4.267,5.333,6.4c2.133,2.133,3.2,4.267,4.267,6.4l0,0l0,0
		c0,2.133,0,4.267,0,6.4s1.067,4.267,1.067,6.4c1.067,4.267,3.2,7.467,5.333,11.733c0,1.067,1.067,2.133,2.133,3.2
		c1.067,1.067,1.067,2.133,2.133,2.133c1.067,1.067,1.067,2.133,2.133,2.133c1.067,1.067,1.067,1.067,2.133,2.133
		c2.133,1.067,3.2,2.133,5.333,3.2C403.2,375.467,405.333,376.533,407.467,376.533z"/>
	<path style="fill:#F7B64C;" d="M379.733,336c0,0,2.133-4.267,5.333-8.533c1.067-2.133,3.2-3.2,5.333-5.333
		c1.067-1.067,2.133-2.133,2.133-2.133s-1.067,1.067-2.133,2.133c-1.067,1.067-3.2,3.2-4.267,5.333
		C384,331.733,381.867,336,381.867,336H379.733z"/>
</g>
<g>
</g>
<g>
</g>
<g>
</g>
<g>
</g>
<g>
</g>
<g>
</g>
<g>
</g>
<g>
</g>
<g>
</g>
<g>
</g>
<g>
</g>
<g>
</g>
<g>
</g>
<g>
</g>
<g>
</g>
</svg>
