<?xml version="1.0" encoding="iso-8859-1"?>
<!-- Generator: Adobe Illustrator 19.0.0, SVG Export Plug-In . SVG Version: 6.00 Build 0)  -->
<svg version="1.1" id="Capa_1" xmlns="http://www.w3.org/2000/svg" xmlns:xlink="http://www.w3.org/1999/xlink" x="0px" y="0px"
	 viewBox="0 0 512.354 512.354" style="enable-background:new 0 0 512.354 512.354;" xml:space="preserve">
<path style="fill:#344A5E;" d="M422.667,359.957l-62.933,62.933c-6.4,6.4-18.133,6.4-24.533,0l-1.067-1.067
	c-6.4-6.4-6.4-18.133,0-24.533l62.933-62.933c6.4-6.4,18.133-6.4,24.533,0l1.067,1.067
	C430.133,341.824,430.133,353.557,422.667,359.957z"/>
<path style="fill:#415A6B;" d="M63.2,63.424c-84.267,84.267-84.267,220.8,0,305.067s220.8,84.267,305.067,0s84.267-220.8,0-305.067
	S147.467-20.843,63.2,63.424z M327.733,326.89c-61.867,61.867-161.067,61.867-221.867,0c-60.8-60.8-60.8-161.067,0-221.867
	s161.067-61.867,221.867,0S388.533,266.09,327.733,326.89z"/>
<path style="fill:#FFD15C;" d="M482.4,397.29l-59.733-36.267L360.8,422.89l36.267,59.733c21.333,34.133,68.267,39.467,97.067,11.733
	l0,0C522.933,465.557,516.533,418.624,482.4,397.29z"/>
<g>
	<rect x="327.733" y="189.29" style="fill:#F3705A;" width="8.533" height="69.333"/>
	<path style="fill:#F3705A;" d="M336.267,258.624c-3.2-3.2-5.333-3.2-8.533,0l-7.467,12.8c8.533,3.2,17.067,3.2,24.533,0
		L336.267,258.624z"/>
</g>
<path style="fill:#F05540;" d="M295.733,305.557V189.29H136.8v116.267C190.133,288.49,242.4,288.49,295.733,305.557z"/>
<polygon style="fill:#F3705A;" points="349.067,189.29 215.733,252.224 83.467,189.29 215.733,127.424 "/>
<g>
</g>
<g>
</g>
<g>
</g>
<g>
</g>
<g>
</g>
<g>
</g>
<g>
</g>
<g>
</g>
<g>
</g>
<g>
</g>
<g>
</g>
<g>
</g>
<g>
</g>
<g>
</g>
<g>
</g>
</svg>
