<?xml version="1.0" encoding="iso-8859-1"?>
<!-- Generator: Adobe Illustrator 19.0.0, SVG Export Plug-In . SVG Version: 6.00 Build 0)  -->
<svg version="1.1" id="Capa_1" xmlns="http://www.w3.org/2000/svg" xmlns:xlink="http://www.w3.org/1999/xlink" x="0px" y="0px"
	 viewBox="0 0 512 512" style="enable-background:new 0 0 512 512;" xml:space="preserve">
<polygon style="fill:#CED6E0;" points="307.2,419.2 204.8,419.2 162.133,478.933 349.867,478.933 "/>
<path style="fill:#415A6B;" d="M512,32v320H0V32C0,13.867,13.867,0,32,0h448C498.133,0,512,13.867,512,32z"/>
<rect x="42.667" y="42.667" style="fill:#F3F3F3;" width="426.667" height="266.667"/>
<g>
	<path style="fill:#E8EAE9;" d="M361.6,472.533H150.4c-19.2,0-35.2,16-35.2,35.2V512h282.667v-4.267
		C396.8,487.467,381.867,472.533,361.6,472.533z"/>
	<path style="fill:#E8EAE9;" d="M512,352v44.8c0,18.133-13.867,32-32,32H32c-18.133,0-32-13.867-32-32V352H512z"/>
</g>
<circle style="fill:#415A6B;" cx="253.867" cy="389.333" r="14.933"/>
<path style="fill:#F3705A;" d="M162.133,208h-23.467c0-3.2,0-5.333,0-6.4c0-7.467,1.067-13.867,3.2-18.133
	c2.133-4.267,7.467-9.6,14.933-16s11.733-9.6,12.8-11.733c2.133-3.2,3.2-6.4,3.2-9.6c0-5.333-2.133-8.533-5.333-12.8
	c-4.267-3.2-9.6-5.333-16-5.333s-11.733,2.133-16,5.333s-7.467,9.6-8.533,17.067l-23.467-3.2c1.067-10.667,5.333-19.2,13.867-26.667
	c8.533-7.467,19.2-10.667,33.067-10.667s25.6,4.267,34.133,11.733c8.533,7.467,12.8,16,12.8,26.667c0,5.333-1.067,10.667-4.267,16
	c-3.2,5.333-9.6,11.733-20.267,20.267c-5.333,4.267-8.533,7.467-9.6,10.667C162.133,196.267,161.067,201.6,162.133,208z
	 M138.667,242.133V217.6H163.2v24.533H138.667z"/>
<polygon style="fill:#415A6B;" points="269.867,230.4 269.867,199.467 215.467,199.467 215.467,151.467 269.867,151.467 
	269.867,121.6 324.267,176 "/>
<path style="fill:#66C6B9;" d="M386.133,209.067l-7.467-70.4v-32h28.8v32l-6.4,70.4H386.133z M379.733,245.333v-26.667H406.4v26.667
	H379.733z"/>
<g>
</g>
<g>
</g>
<g>
</g>
<g>
</g>
<g>
</g>
<g>
</g>
<g>
</g>
<g>
</g>
<g>
</g>
<g>
</g>
<g>
</g>
<g>
</g>
<g>
</g>
<g>
</g>
<g>
</g>
</svg>
