<?xml version="1.0" encoding="iso-8859-1"?>
<!-- Generator: Adobe Illustrator 19.0.0, SVG Export Plug-In . SVG Version: 6.00 Build 0)  -->
<svg version="1.1" id="Capa_1" xmlns="http://www.w3.org/2000/svg" xmlns:xlink="http://www.w3.org/1999/xlink" x="0px" y="0px"
	 viewBox="0 0 512 512" style="enable-background:new 0 0 512 512;" xml:space="preserve">
<path style="fill:#F3705A;" d="M270.933,0v241.067H512C512,107.733,404.267,0,270.933,0z"/>
<path style="fill:#FFD15C;" d="M345.6,181.333V140.8c-12.8-3.2-21.333-8.533-27.733-16c-6.4-7.467-8.533-14.933-8.533-25.6
	s3.2-19.2,9.6-26.667c6.4-7.467,14.933-11.733,26.667-12.8V51.2h13.867v9.6C370.133,61.867,377.6,65.067,384,71.467
	c6.4,6.4,9.6,13.867,11.733,22.4l-24.533,3.2c-1.067-7.467-5.333-12.8-11.733-14.933v37.333c14.933,4.267,25.6,9.6,30.933,16
	c5.333,6.4,8.533,14.933,8.533,25.6c0,11.733-3.2,21.333-10.667,28.8s-17.067,12.8-28.8,14.933v18.133H345.6v-17.067
	c-10.667-1.067-20.267-5.333-26.667-12.8c-6.4-6.4-11.733-17.067-12.8-28.8l24.533-3.2c1.067,5.333,3.2,9.6,5.333,12.8
	C339.2,177.067,342.4,180.267,345.6,181.333z M345.6,81.067c-4.267,1.067-6.4,3.2-8.533,6.4c-2.133,3.2-3.2,6.4-3.2,10.667
	c0,3.2,1.067,6.4,3.2,9.6c2.133,3.2,5.333,5.333,9.6,7.467V81.067H345.6z M359.467,183.467c4.267-1.067,8.533-3.2,11.733-6.4
	c3.2-3.2,4.267-7.467,4.267-12.8c0-4.267-1.067-7.467-4.267-10.667c-2.133-3.2-6.4-5.333-12.8-7.467v37.333H359.467z"/>
<path style="fill:#66C6B9;" d="M482.133,270.933h-198.4l147.2,147.2C462.933,377.6,482.133,326.4,482.133,270.933z"/>
<path style="fill:#415A6B;" d="M241.067,29.867C107.733,29.867,0,137.6,0,270.933S107.733,512,241.067,512
	C307.2,512,368,485.333,411.733,441.6L241.067,270.933L241.067,29.867L241.067,29.867z"/>
<g>
</g>
<g>
</g>
<g>
</g>
<g>
</g>
<g>
</g>
<g>
</g>
<g>
</g>
<g>
</g>
<g>
</g>
<g>
</g>
<g>
</g>
<g>
</g>
<g>
</g>
<g>
</g>
<g>
</g>
</svg>
