<?xml version="1.0" encoding="iso-8859-1"?>
<!-- Generator: Adobe Illustrator 19.0.0, SVG Export Plug-In . SVG Version: 6.00 Build 0)  -->
<svg version="1.1" id="Capa_1" xmlns="http://www.w3.org/2000/svg" xmlns:xlink="http://www.w3.org/1999/xlink" x="0px" y="0px"
	 viewBox="0 0 512 512" style="enable-background:new 0 0 512 512;" xml:space="preserve">
<path style="fill:#E8EAE9;" d="M446.933,108.8v375.467c0,14.933-12.8,27.733-27.733,27.733H92.8
	c-14.933,0-27.733-12.8-27.733-27.733V108.8c0-14.933,12.8-27.733,27.733-27.733h327.467C435.2,81.067,446.933,93.867,446.933,108.8
	z"/>
<g>
	<rect x="119.467" y="113.067" style="fill:#415A6B;" width="273.067" height="39.467"/>
	<rect x="97.067" y="185.6" style="fill:#415A6B;" width="317.867" height="91.733"/>
</g>
<rect x="185.6" y="312.533" style="fill:#FFD15C;" width="64" height="71.467"/>
<rect x="97.067" y="312.533" style="fill:#66C6B9;" width="64" height="71.467"/>
<rect x="274.133" y="312.533" style="fill:#55C0EB;" width="58.667" height="71.467"/>
<rect x="356.267" y="312.533" style="fill:#F3705A;" width="58.667" height="167.467"/>
<g>
	<rect x="274.133" y="408.533" style="fill:#415A6B;" width="58.667" height="71.467"/>
	<rect x="97.067" y="408.533" style="fill:#415A6B;" width="64" height="71.467"/>
	<rect x="185.6" y="408.533" style="fill:#415A6B;" width="64" height="71.467"/>
</g>
<polygon style="fill:#FFD15C;" points="356.267,0 336,20.267 316.8,0 296.533,20.267 276.267,0 256,20.267 235.733,0 
	216.533,20.267 196.267,0 176,20.267 155.733,0 139.733,16 139.733,133.333 372.267,133.333 372.267,16 "/>
<g>
	<rect x="166.4" y="90.667" style="fill:#F7B64C;" width="119.467" height="20.267"/>
	<rect x="166.4" y="51.2" style="fill:#F7B64C;" width="180.267" height="21.333"/>
</g>
<g>
</g>
<g>
</g>
<g>
</g>
<g>
</g>
<g>
</g>
<g>
</g>
<g>
</g>
<g>
</g>
<g>
</g>
<g>
</g>
<g>
</g>
<g>
</g>
<g>
</g>
<g>
</g>
<g>
</g>
</svg>
