<?xml version="1.0" encoding="iso-8859-1"?>
<!-- Generator: Adobe Illustrator 19.0.0, SVG Export Plug-In . SVG Version: 6.00 Build 0)  -->
<svg version="1.1" id="Capa_1" xmlns="http://www.w3.org/2000/svg" xmlns:xlink="http://www.w3.org/1999/xlink" x="0px" y="0px"
	 viewBox="0 0 512 512" style="enable-background:new 0 0 512 512;" xml:space="preserve">
<path style="fill:#415A6B;" d="M442.667,32v448c0,18.133-13.867,32-32,32H101.333c-18.133,0-32-13.867-32-32V32
	c0-18.133,13.867-32,32-32h309.333C427.733,0,442.667,13.867,442.667,32z"/>
<circle style="fill:#344A5E;" cx="256" cy="457.6" r="26.667"/>
<rect x="112" y="42.667" style="fill:#FFFFFF;" width="288" height="360.533"/>
<g>
	<path style="fill:#F3705A;" d="M278.4,262.4c0,0,7.467-11.733,11.733-19.2c4.267-7.467,8.533-37.333,8.533-37.333L288,206.933
		C289.067,205.867,277.333,250.667,278.4,262.4z"/>
	<path style="fill:#F3705A;" d="M220.8,243.2l11.733,7.467l6.4-27.733l-27.733-35.2C211.2,187.733,192,222.933,220.8,243.2z"/>
</g>
<path style="fill:#FFD15C;" d="M283.733,338.133c7.467-32,10.667-60.8,0-83.2v-13.867c11.733-17.067,12.8-42.667,12.8-42.667
	L288,151.467c0,0-5.333-19.2-22.4-17.067c-17.067,1.067-35.2,12.8-35.2,12.8l-17.067,48c0,0-1.067,19.2,14.933,44.8v16
	c-8.533,27.733-8.533,55.467,0,82.133H283.733z"/>
<path style="fill:#E8EAE9;" d="M286.933,403.2l-3.2-96c1.067,27.733-57.6,27.733-56.533,0l-3.2,96H286.933z"/>
<path style="fill:#F7B64C;" d="M228.267,238.933L228.267,238.933c1.067,11.733-2.133,24.533-6.4,38.4
	C273.067,262.4,283.733,240,283.733,240C265.6,256,246.4,254.933,228.267,238.933z"/>
<path style="fill:#66C6B9;" d="M332.8,403.2h48c-5.333-44.8-14.933-109.867-29.867-116.267L320,360.533l21.333,4.267
	C341.333,364.8,334.933,380.8,332.8,403.2z"/>
<path style="fill:#4ABAA5;" d="M333.867,403.2c3.2-21.333,8.533-38.4,8.533-38.4c-4.267-26.667,8.533-77.867,8.533-77.867
	l-48-14.933l-35.2,131.2L333.867,403.2L333.867,403.2z"/>
<g>
	<path style="fill:#66C6B9;" d="M265.6,396.8c0,2.133,0,4.267-1.067,7.467h12.8c19.2-30.933,33.067-64,43.733-100.267L304,293.333
		l10.667-3.2c0,0-6.4-13.867-10.667-17.067c-4.267-4.267-17.067-16-20.267-17.067c0,0,7.467,13.867,1.067,42.667
		C278.4,327.467,266.667,385.067,265.6,396.8z"/>
	<path style="fill:#66C6B9;" d="M179.2,403.2c-2.133-22.4-8.533-38.4-9.6-38.4l21.333-4.267L160,286.933
		c-13.867,6.4-24.533,71.467-29.867,116.267H179.2z"/>
</g>
<path style="fill:#4ABAA5;" d="M169.6,364.8c0,0,5.333,17.067,8.533,38.4H243.2L208,272l-48,14.933
	C160,286.933,173.867,339.2,169.6,364.8z"/>
<path style="fill:#66C6B9;" d="M234.667,403.2h12.8c0-2.133,0-5.333-1.067-7.467c-1.067-11.733-13.867-70.4-19.2-99.2
	c-5.333-28.8,1.067-42.667,1.067-42.667c-3.2,1.067-16,12.8-20.267,17.067S197.333,288,197.333,288L208,291.2l-17.067,10.667
	C200.533,339.2,215.467,372.267,234.667,403.2z"/>
<path style="fill:#F3705A;" d="M270.933,141.867c0,0-12.8,18.133-29.867,34.133c-17.067,16-26.667,18.133-28.8,23.467
	c-2.133,4.267,0,30.933,12.8,45.867c6.4,7.467,9.6,16,9.6,24.533c0,1.067,0,1.067,0,2.133c0,0-20.267-10.667-29.867-40.533
	c-9.6-29.867-11.733-58.667-2.133-86.4c9.6-26.667,48-41.6,67.2-32s34.133,33.067,36.267,51.2c3.2,18.133,3.2,33.067,2.133,45.867
	c-1.067,10.667-3.2,22.4-16,46.933c-6.4,9.6-8.533,29.867-8.533,29.867s-5.333-11.733-3.2-23.467
	c4.267-18.133,11.733-28.8,13.867-45.867c2.133-18.133-6.4-57.6-12.8-66.133C276.267,141.867,270.933,141.867,270.933,141.867z"/>
<g>
</g>
<g>
</g>
<g>
</g>
<g>
</g>
<g>
</g>
<g>
</g>
<g>
</g>
<g>
</g>
<g>
</g>
<g>
</g>
<g>
</g>
<g>
</g>
<g>
</g>
<g>
</g>
<g>
</g>
</svg>
