<?xml version="1.0" encoding="iso-8859-1"?>
<!-- Generator: Adobe Illustrator 19.0.0, SVG Export Plug-In . SVG Version: 6.00 Build 0)  -->
<svg version="1.1" id="Capa_1" xmlns="http://www.w3.org/2000/svg" xmlns:xlink="http://www.w3.org/1999/xlink" x="0px" y="0px"
	 viewBox="0 0 512 512" style="enable-background:new 0 0 512 512;" xml:space="preserve">
<g>
	<rect x="294.897" y="297.6" style="fill:#E8EAE9;" width="16" height="78.933"/>
	<path style="fill:#E8EAE9;" d="M303.43,421.333c-14.933,0-26.667-11.733-26.667-26.667S288.497,368,303.43,368
		c14.933,0,26.667,11.733,26.667,26.667S318.363,421.333,303.43,421.333z M303.43,384c-6.4,0-10.667,5.333-10.667,10.667
		c0,6.4,5.333,10.667,10.667,10.667c5.333,0,10.667-5.333,10.667-10.667C314.097,388.267,309.83,384,303.43,384z"/>
	<path style="fill:#E8EAE9;" d="M487.963,39.467v252.8c0,17.067-13.867,32-32,32H150.897c-17.067,0-32-13.867-32-32v-252.8H487.963z
		"/>
</g>
<g>
	<rect x="161.563" y="231.467" style="fill:#ADB3BA;" width="189.867" height="33.067"/>
	<rect x="161.563" y="158.933" style="fill:#ADB3BA;" width="283.733" height="33.067"/>
	<rect x="161.563" y="86.4" style="fill:#ADB3BA;" width="283.733" height="33.067"/>
</g>
<path style="fill:#F3705A;" d="M487.963,0H118.897C105.03,0,94.363,10.667,94.363,24.533l0,0c0,13.867,10.667,24.533,24.533,24.533
	h368c13.867,0,24.533-10.667,24.533-24.533l0,0C512.497,10.667,501.83,0,487.963,0z"/>
<g>
	<circle style="fill:#FFD15C;" cx="186.097" cy="222.933" r="20.267"/>
	<circle style="fill:#FFD15C;" cx="126.363" cy="226.133" r="23.467"/>
	<path style="fill:#FFD15C;" d="M101.83,270.933c2.133,10.667,6.4,18.133,11.733,17.067c5.333-1.067,6.4-9.6,5.333-19.2
		c-2.133-10.667-6.4-18.133-11.733-17.067C101.83,252.8,100.763,261.333,101.83,270.933z"/>
</g>
<path style="fill:#F7B64C;" d="M124.23,333.867c0,0-1.067,14.933,18.133,25.6c18.133,10.667,19.2,11.733,19.2,11.733
	s0-1.067,19.2-11.733c18.133-10.667,18.133-25.6,18.133-25.6v-54.4c0,0,1.067-14.933-18.133-25.6
	c-18.133-10.667-19.2-11.733-19.2-11.733s0,1.067-19.2,11.733c-18.133,10.667-18.133,25.6-18.133,25.6L124.23,333.867z"/>
<g>
	<path style="fill:#8AD7F8;" d="M70.897,512c-1.067-17.067-4.267-41.6-4.267-41.6l26.667-45.867c0,0-36.267-50.133-53.333-44.8
		c-17.067,5.333-19.2,46.933-26.667,76.8c-5.333,14.933-9.6,37.333-12.8,55.467H70.897z"/>
	<path style="fill:#8AD7F8;" d="M252.23,512h70.4c-3.2-18.133-7.467-40.533-11.733-55.467c-8.533-29.867-9.6-70.4-26.667-76.8
		c-17.067-5.333-53.333,44.8-53.333,44.8l26.667,45.867C256.497,470.4,253.297,494.933,252.23,512z"/>
</g>
<path style="fill:#55C0EB;" d="M257.563,512h-192c1.067-24.533,0-41.6,0-41.6c-2.133-28.8-26.667-89.6-26.667-89.6
	c6.4-2.133,65.067-21.333,65.067-21.333s9.6-5.333,16-16c0,0,2.133,16,3.2,30.933l36.267-2.133h37.333
	c2.133-14.933,3.2-28.8,3.2-28.8c6.4,10.667,16,16,16,16s59.733,19.2,66.133,21.333c0,0-24.533,61.867-26.667,89.6
	C256.497,470.4,256.497,487.467,257.563,512z"/>
<polygon style="fill:#F05540;" points="173.297,405.333 183.963,394.667 161.563,372.267 139.163,394.667 149.83,405.333 "/>
<polygon style="fill:#F3705A;" points="191.43,512 173.297,405.333 149.83,405.333 131.697,512 "/>
<g>
	<path style="fill:#8AD7F8;" d="M124.23,333.867c0,0-1.067,14.933,18.133,25.6c18.133,10.667,19.2,11.733,19.2,11.733l-22.4,32
		l-25.6-50.133L124.23,333.867z"/>
	<path style="fill:#8AD7F8;" d="M197.83,333.867c0,0,1.067,14.933-18.133,25.6c-18.133,10.667-19.2,11.733-19.2,11.733l22.4,30.933
		l26.667-49.067L197.83,333.867z"/>
</g>
<path style="fill:#FFD15C;" d="M209.563,268.8c0,42.667-22.4,76.8-50.133,76.8s-50.133-34.133-50.133-76.8s22.4-76.8,50.133-76.8
	C188.23,192,209.563,226.133,209.563,268.8z"/>
<path style="fill:#344A5E;" d="M202.097,189.867c-13.867-19.2-55.467-14.933-66.133-12.8c-44.8,9.6-34.133,66.133-28.8,76.8
	c4.267,9.6,6.4,20.267,6.4,20.267h2.133c0,0-2.133-36.267-3.2-40.533c-1.067-4.267-2.133-21.333,17.067-18.133
	c19.2,4.267,54.4-5.333,62.933-4.267s7.467,28.8,7.467,28.8v30.933h7.467l-1.067-8.533c0,0,1.067,2.133,4.267-4.267
	C214.897,229.333,212.763,204.8,202.097,189.867z"/>
<ellipse transform="matrix(0.1041 -0.9946 0.9946 0.1041 -73.4758 447.5474)" style="fill:#FFD15C;" cx="211.68" cy="264.557" rx="18.134" ry="8.534"/>
<g>
</g>
<g>
</g>
<g>
</g>
<g>
</g>
<g>
</g>
<g>
</g>
<g>
</g>
<g>
</g>
<g>
</g>
<g>
</g>
<g>
</g>
<g>
</g>
<g>
</g>
<g>
</g>
<g>
</g>
</svg>
