<?xml version="1.0" encoding="iso-8859-1"?>
<!-- Generator: Adobe Illustrator 19.0.0, SVG Export Plug-In . SVG Version: 6.00 Build 0)  -->
<svg version="1.1" id="Capa_1" xmlns="http://www.w3.org/2000/svg" xmlns:xlink="http://www.w3.org/1999/xlink" x="0px" y="0px"
	 viewBox="0 0 512 512" style="enable-background:new 0 0 512 512;" xml:space="preserve">
<g>
	<path style="fill:#CED6E0;" d="M256,512c-21.333,0-38.4-17.067-38.4-38.4c0-21.333,17.067-38.4,38.4-38.4s38.4,17.067,38.4,38.4
		C294.4,494.933,277.333,512,256,512z M256,455.467c-9.6,0-17.067,7.467-17.067,17.067S246.4,490.667,256,490.667
		c9.6,0,17.067-7.467,17.067-17.067S265.6,455.467,256,455.467z"/>
	<rect x="245.333" y="325.333" style="fill:#CED6E0;" width="21.333" height="119.467"/>
</g>
<path style="fill:#F3705A;" d="M481.067,61.867H30.933C13.867,61.867,0,48,0,30.933l0,0C0,13.867,13.867,0,30.933,0h450.133
	C498.133,0,512,13.867,512,30.933l0,0C512,48,498.133,61.867,481.067,61.867z"/>
<path style="fill:#E8EAE9;" d="M481.067,61.867v279.467c0,18.133-14.933,32-32,32H62.933c-18.133,0-32-13.867-32-32V61.867H481.067z
	"/>
<polygon style="fill:#ADB3BA;" points="124.8,288 110.933,274.133 210.133,173.867 301.867,235.733 386.133,147.2 401.067,161.067 
	304,262.4 212.267,199.467 "/>
<circle style="fill:#415A6B;" cx="118.4" cy="281.6" r="32"/>
<circle style="fill:#344A5E;" cx="118.4" cy="281.6" r="16"/>
<circle style="fill:#66C6B9;" cx="211.2" cy="186.667" r="32"/>
<circle style="fill:#4ABAA5;" cx="211.2" cy="186.667" r="16"/>
<circle style="fill:#F3705A;" cx="302.933" cy="248.533" r="32"/>
<circle style="fill:#F05540;" cx="302.933" cy="248.533" r="16"/>
<circle style="fill:#FFD15C;" cx="393.6" cy="154.667" r="32"/>
<circle style="fill:#F7B64C;" cx="393.6" cy="154.667" r="16"/>
<g>
</g>
<g>
</g>
<g>
</g>
<g>
</g>
<g>
</g>
<g>
</g>
<g>
</g>
<g>
</g>
<g>
</g>
<g>
</g>
<g>
</g>
<g>
</g>
<g>
</g>
<g>
</g>
<g>
</g>
</svg>
