<?xml version="1.0" encoding="iso-8859-1"?>
<!-- Generator: Adobe Illustrator 19.0.0, SVG Export Plug-In . SVG Version: 6.00 Build 0)  -->
<svg version="1.1" id="Capa_1" xmlns="http://www.w3.org/2000/svg" xmlns:xlink="http://www.w3.org/1999/xlink" x="0px" y="0px"
	 viewBox="0 0 512 512" style="enable-background:new 0 0 512 512;" xml:space="preserve">
<g>
	<rect x="193.067" y="430.933" style="fill:#415A6B;" width="114.133" height="26.667"/>
	<path style="fill:#415A6B;" d="M66.133,270.933h80v-26.667H52.267c-7.467,0-13.867,6.4-13.867,13.867V320H23.467l28.8,35.2
		l28.8-35.2H66.133V270.933z"/>
	<path style="fill:#415A6B;" d="M468.267,130.133V68.267c0-7.467-6.4-13.867-13.867-13.867H347.733v26.667H441.6v49.067h-16
		l28.8,35.2l28.8-35.2L468.267,130.133L468.267,130.133z"/>
</g>
<path style="fill:#8AD7F8;" d="M208,396.8v93.867C208,502.4,198.4,512,186.667,512H21.333C9.6,512,0,502.4,0,490.667V396.8
	c0-11.733,9.6-21.333,21.333-21.333h165.333C198.4,375.467,208,385.067,208,396.8z"/>
<path style="fill:#66C6B9;" d="M0,115.2V21.333C0,9.6,9.6,0,21.333,0h336c11.733,0,21.333,9.6,21.333,21.333V115.2
	c0,11.733-9.6,21.333-21.333,21.333h-336C9.6,136.533,0,126.933,0,115.2z"/>
<path style="fill:#FFD15C;" d="M512,209.067v93.867c0,11.733-9.6,21.333-21.333,21.333h-355.2c-11.733,0-21.333-9.6-21.333-21.333
	v-93.867c0-11.733,9.6-21.333,21.333-21.333h355.2C502.4,187.733,512,197.333,512,209.067z"/>
<path style="fill:#F3705A;" d="M512,396.8v93.867C512,502.4,502.4,512,490.667,512H315.733C304,512,294.4,502.4,294.4,490.667V396.8
	c0-11.733,9.6-21.333,21.333-21.333h174.933C502.4,375.467,512,385.067,512,396.8z"/>
<g>
	<rect x="28.8" y="26.667" style="fill:#FFFFFF;" width="321.067" height="16"/>
	<rect x="28.8" y="60.8" style="fill:#FFFFFF;" width="321.067" height="16"/>
	<rect x="28.8" y="93.867" style="fill:#FFFFFF;" width="179.2" height="16"/>
	<rect x="142.933" y="214.4" style="fill:#FFFFFF;" width="340.267" height="16"/>
	<rect x="142.933" y="248.533" style="fill:#FFFFFF;" width="340.267" height="16"/>
	<rect x="142.933" y="281.6" style="fill:#FFFFFF;" width="189.867" height="16"/>
	<rect x="320" y="402.133" style="fill:#FFFFFF;" width="165.333" height="16"/>
	<rect x="320" y="436.267" style="fill:#FFFFFF;" width="165.333" height="16"/>
	<rect x="320" y="469.333" style="fill:#FFFFFF;" width="92.8" height="16"/>
	<rect x="21.333" y="402.133" style="fill:#FFFFFF;" width="165.333" height="16"/>
	<rect x="21.333" y="436.267" style="fill:#FFFFFF;" width="165.333" height="16"/>
	<rect x="21.333" y="469.333" style="fill:#FFFFFF;" width="92.8" height="16"/>
</g>
<g>
</g>
<g>
</g>
<g>
</g>
<g>
</g>
<g>
</g>
<g>
</g>
<g>
</g>
<g>
</g>
<g>
</g>
<g>
</g>
<g>
</g>
<g>
</g>
<g>
</g>
<g>
</g>
<g>
</g>
</svg>
