<?xml version="1.0" encoding="iso-8859-1"?>
<!-- Generator: Adobe Illustrator 19.0.0, SVG Export Plug-In . SVG Version: 6.00 Build 0)  -->
<svg version="1.1" id="Capa_1" xmlns="http://www.w3.org/2000/svg" xmlns:xlink="http://www.w3.org/1999/xlink" x="0px" y="0px"
	 viewBox="0 0 512 512" style="enable-background:new 0 0 512 512;" xml:space="preserve">
<path style="fill:#8AD7F8;" d="M261.333,45.867L301.867,86.4c73.6,20.267,128,87.467,128,168.533c0,20.267-3.2,40.533-10.667,58.667
	l51.2-13.867l17.067,62.933c16-32,24.533-69.333,24.533-107.733C512,130.133,422.4,25.6,304,3.2L261.333,45.867z"/>
<path style="fill:#66C6B9;" d="M72.533,355.2l14.933-55.467c-3.2-13.867-5.333-28.8-5.333-43.733
	c0-85.333,61.867-156.8,142.933-171.733l-37.333-37.333L233.6,1.067C102.4,11.733,0,121.6,0,254.933
	c0,29.867,5.333,57.6,13.867,84.267L72.533,355.2z"/>
<g>
	<path style="fill:#F3705A;" d="M434.133,364.8l-55.467,14.933c-32,30.933-74.667,50.133-122.667,50.133
		c-53.333,0-100.267-23.467-133.333-61.867L108.8,419.2l-62.933-17.067C92.8,468.267,169.6,510.933,256,510.933
		c77.867,0,147.2-34.133,194.133-88.533L434.133,364.8z"/>
	<path style="fill:#F3705A;" d="M306.133,236.8c-2.133-8.533-1.067-26.667-4.267-35.2C297.6,190.933,294.4,183.467,288,173.867
		l-12.8,4.267v82.133c3.2,4.267,6.4,8.533,10.667,12.8C302.933,288,328.533,294.4,352,300.8
		C331.733,281.6,311.467,262.4,306.133,236.8z"/>
</g>
<g>
	<path style="fill:#344A5E;" d="M368,355.2c-2.133-17.067-4.267-33.067-5.333-41.6c-2.133-24.533-14.933-25.6-14.933-25.6
		c-4.267-4.267-44.8-17.067-44.8-17.067s-4.267,29.867-8.533,54.4c-1.067,6.4-4.267,17.067-8.533,29.867H368z"/>
	<path style="fill:#344A5E;" d="M226.133,355.2c-4.267-12.8-7.467-23.467-8.533-29.867c-3.2-24.533-8.533-54.4-8.533-54.4
		s-41.6,11.733-44.8,17.067c0,0-12.8,1.067-14.933,25.6c-1.067,8.533-3.2,24.533-5.333,41.6H226.133z"/>
</g>
<g>
	<path style="fill:#FFD15C;" d="M228.267,299.733L249.6,332.8l35.2-45.867v-49.067c6.4-19.2,9.6-52.267,9.6-52.267l2.133-20.267
		c0,0-4.267-28.8-20.267-34.133c-16-5.333-49.067,1.067-53.333,11.733c-4.267,10.667-6.4,43.733-6.4,43.733s4.267,35.2,12.8,52.267
		v60.8H228.267z"/>
	<path style="fill:#FFD15C;" d="M227.2,253.867l-21.333,44.8L227.2,355.2h55.467l16-51.2L284.8,253.867v-16
		c6.4-19.2,9.6-52.267,9.6-52.267l2.133-20.267c0,0-4.267-28.8-20.267-34.133c-16-5.333-49.067,1.067-53.333,11.733
		s-6.4,43.733-6.4,43.733s4.267,35.2,12.8,52.267L227.2,253.867L227.2,253.867z"/>
</g>
<path style="fill:#F7B64C;" d="M236.8,283.733c38.4-19.2,46.933-45.867,46.933-45.867l0,0c0,0-12.8,21.333-28.8,20.267
	S227.2,237.867,227.2,237.867l0,0v16l0,0L206.933,294.4C216.533,291.2,234.667,284.8,236.8,283.733z"/>
<path style="fill:#E8EAE9;" d="M297.6,355.2v-85.333h-5.333c-1.067,19.2-17.067,35.2-37.333,35.2s-36.267-14.933-37.333-35.2h-4.267
	V355.2H297.6z"/>
<g>
	<path style="fill:#FFD15C;" d="M301.867,195.2c-1.067,8.533-5.333,14.933-9.6,14.933s-6.4-6.4-5.333-14.933
		c1.067-8.533,5.333-14.933,9.6-14.933C300.8,180.267,302.933,187.733,301.867,195.2z"/>
	<path style="fill:#FFD15C;" d="M209.067,195.2c1.067,8.533,5.333,14.933,9.6,14.933s6.4-6.4,5.333-14.933
		c-1.067-8.533-5.333-14.933-9.6-14.933S208,187.733,209.067,195.2z"/>
</g>
<path style="fill:#F3705A;" d="M215.467,186.667c0,0,2.133-16,5.333-25.6c3.2-9.6,7.467-14.933,19.2-19.2
	c11.733-4.267,22.4-4.267,32,0c9.6,4.267,18.133,19.2,20.267,26.667C294.4,176,294.4,185.6,294.4,185.6s1.067,1.067,2.133-4.267
	c0,0,7.467-37.333-7.467-53.333c-14.933-16-54.4-19.2-66.133,0C210.133,146.133,209.067,166.4,215.467,186.667z"/>
<g>
	<path style="fill:#415A6B;" d="M289.067,304c-1.067,9.6-6.4,28.8-12.8,50.133H300.8c11.733-22.4,24.533-48,24.533-48l-13.867-9.6
		l7.467-3.2l-1.067-1.067c-6.4-10.667-14.933-21.333-24.533-28.8c-3.2-3.2-8.533-6.4-9.6-8.533
		C283.733,253.867,291.2,278.4,289.067,304z"/>
	<path style="fill:#415A6B;" d="M211.2,355.2h24.533c-6.4-21.333-11.733-41.6-12.8-50.133c-3.2-25.6,4.267-51.2,4.267-51.2
		c-1.067,2.133-6.4,6.4-9.6,8.533c-9.6,8.533-18.133,18.133-24.533,28.8L192,293.333l7.467,3.2l-13.867,9.6
		C186.667,307.2,199.467,332.8,211.2,355.2z"/>
</g>
<g>
</g>
<g>
</g>
<g>
</g>
<g>
</g>
<g>
</g>
<g>
</g>
<g>
</g>
<g>
</g>
<g>
</g>
<g>
</g>
<g>
</g>
<g>
</g>
<g>
</g>
<g>
</g>
<g>
</g>
</svg>
