<?xml version="1.0" encoding="iso-8859-1"?>
<!-- Generator: Adobe Illustrator 19.0.0, SVG Export Plug-In . SVG Version: 6.00 Build 0)  -->
<svg version="1.1" id="Capa_1" xmlns="http://www.w3.org/2000/svg" xmlns:xlink="http://www.w3.org/1999/xlink" x="0px" y="0px"
	 viewBox="0 0 512 512" style="enable-background:new 0 0 512 512;" xml:space="preserve">
<polygon style="fill:#FFD15C;" points="291.2,158.933 317.867,242.133 197.333,242.133 209.067,166.4 "/>
<path style="fill:#55C0EB;" d="M295.467,305.067V168.533C288,184.533,272,195.2,254.933,195.2
	c-18.133,0-33.067-10.667-40.533-26.667v136.533C214.4,305.067,295.467,305.067,295.467,305.067z"/>
<g>
	<path style="fill:#FFD15C;" d="M294.4,74.667c0,0-1.067,34.133-6.4,49.067c0,0-2.133,6.4,0,14.933c3.2,9.6,6.4,22.4,19.2,36.267
		h-86.4l-4.267-16c-1.067,0,1.067-10.667,5.333-20.267c1.067-2.133,0-3.2,0-5.333c0,0-11.733-22.4-11.733-36.267S208,73.6,208,73.6
		s-7.467-56.533,40.533-45.867S298.667,33.067,294.4,74.667z"/>
	
		<ellipse transform="matrix(-0.9712 -0.2383 0.2383 -0.9712 559.2876 242.5232)" style="fill:#FFD15C;" cx="294.303" cy="87.455" rx="6.4" ry="14.933"/>
	<path style="fill:#FFD15C;" d="M204.8,89.6c2.133,7.467,6.4,13.867,9.6,12.8c3.2-1.067,5.333-8.533,3.2-16
		c-2.133-7.467-6.4-13.867-9.6-12.8C203.733,74.667,202.667,82.133,204.8,89.6z"/>
</g>
<path style="fill:#415A6B;" d="M217.6,54.4c0,0-3.2-6.4-1.067-13.867c2.133-7.467,4.267-8.533,8.533-5.333
	c4.267,2.133,29.867,5.333,40.533,2.133c10.667-3.2,21.333-1.067,20.267,7.467c-1.067,8.533-3.2,14.933-1.067,19.2
	s7.467,26.667,6.4,30.933c0,0,1.067-1.067,2.133-4.267c1.067-3.2,0-11.733,2.133-20.267s6.4-34.133-4.267-49.067
	C281.6,5.333,258.133,0,241.067,0c-16,0-29.867,16-36.267,27.733c-4.267,7.467-2.133,12.8-2.133,22.4
	c0,8.533,1.067,17.067,2.133,26.667c1.067,6.4,2.133,16,2.133,16H208c0,0-2.133-14.933,2.133-21.333
	C217.6,62.933,218.667,61.867,217.6,54.4"/>
<path style="fill:#F7B64C;" d="M288,124.8L288,124.8c0-1.067-11.733,20.267-19.2,26.667c-6.4,5.333-20.267,6.4-26.667,2.133
	c-9.6-4.267-18.133-21.333-18.133-21.333c1.067,9.6-6.4,14.933-6.4,14.933l4.267,27.733H236.8c9.6,0,19.2-3.2,26.667-8.533
	c1.067-1.067,3.2-2.133,4.267-3.2C284.8,146.133,286.933,128,288,124.8z"/>
<path style="fill:#415A6B;" d="M398.933,305.067C400,286.933,391.467,240,387.2,211.2c-5.333-29.867-17.067-30.933-17.067-30.933
	h-20.267c-20.267,5.333-22.4,71.467-20.267,124.8C329.6,305.067,398.933,305.067,398.933,305.067z"/>
<path style="fill:#344A5E;" d="M348.8,305.067c-1.067-21.333-2.133-39.467-2.133-49.067c1.067-37.333,23.467-76.8,23.467-76.8
	c-9.6-11.733-58.667-25.6-58.667-25.6c-16,28.8-28.8,87.467-40.533,150.4H348.8V305.067z"/>
<g>
	<path style="fill:#415A6B;" d="M263.467,305.067h10.667c5.333-18.133,10.667-37.333,14.933-48
		c9.6-25.6,36.267-75.733,36.267-75.733l-16-9.6h11.733c0,0-2.133-10.667-10.667-20.267c-7.467-9.6-22.4-13.867-22.4-13.867
		s8.533,23.467-5.333,56.533C275.2,215.467,266.667,264.533,263.467,305.067z"/>
	<path style="fill:#415A6B;" d="M182.4,305.067c2.133-53.333,0-120.533-20.267-124.8h-20.267c0,0-11.733,1.067-17.067,30.933
		c-4.267,28.8-12.8,75.733-11.733,93.867C113.067,305.067,182.4,305.067,182.4,305.067z"/>
</g>
<path style="fill:#344A5E;" d="M163.2,305.067h77.867c-12.8-64-25.6-121.6-40.533-150.4c0,0-48,13.867-58.667,25.6
	c0,0,22.4,38.4,23.467,76.8C165.333,265.6,164.267,283.733,163.2,305.067z"/>
<path style="fill:#415A6B;" d="M224,257.067c4.267,10.667,9.6,29.867,14.933,48H249.6c-3.2-40.533-12.8-89.6-20.267-109.867
	c-12.8-34.133-5.333-56.533-5.333-56.533s-14.933,4.267-22.4,13.867c-7.467,9.6-10.667,20.267-10.667,20.267h11.733l-14.933,8.533
	C187.733,181.333,214.4,231.467,224,257.067z"/>
<path style="fill:#E8EAE9;" d="M64,310.4L64,310.4c0,11.733,9.6,21.333,21.333,21.333h341.333c11.733,0,21.333-9.6,21.333-21.333
	l0,0c0-11.733-9.6-21.333-21.333-21.333H85.333C73.6,289.067,64,298.667,64,310.4z"/>
<rect x="100.267" y="331.733" style="fill:#CED6E0;" width="312.533" height="180.267"/>
<path style="fill:#E8EAE9;" d="M357.333,512v-49.067c-28.8,0-53.333-23.467-53.333-53.333h-96c0,28.8-23.467,53.333-52.267,53.333
	V512H357.333z"/>
<g>
</g>
<g>
</g>
<g>
</g>
<g>
</g>
<g>
</g>
<g>
</g>
<g>
</g>
<g>
</g>
<g>
</g>
<g>
</g>
<g>
</g>
<g>
</g>
<g>
</g>
<g>
</g>
<g>
</g>
</svg>
