<?xml version="1.0" encoding="iso-8859-1"?>
<!-- Generator: Adobe Illustrator 19.0.0, SVG Export Plug-In . SVG Version: 6.00 Build 0)  -->
<svg version="1.1" id="Capa_1" xmlns="http://www.w3.org/2000/svg" xmlns:xlink="http://www.w3.org/1999/xlink" x="0px" y="0px"
	 viewBox="0 0 512 512" style="enable-background:new 0 0 512 512;" xml:space="preserve">
<g>
	<path style="fill:#415A6B;" d="M92.8,386.133V329.6h327.467v56.533h26.667v-70.4c0-7.467-6.4-13.867-13.867-13.867H78.933
		c-7.467,0-13.867,6.4-13.867,13.867v70.4H92.8z"/>
	<rect x="243.2" y="247.467" style="fill:#415A6B;" width="26.667" height="138.667"/>
</g>
<circle style="fill:#F3705A;" cx="78.933" cy="433.067" r="78.933"/>
<circle style="fill:#F05540;" cx="78.933" cy="433.067" r="46.933"/>
<circle style="fill:#66C6B9;" cx="433.067" cy="433.067" r="78.933"/>
<circle style="fill:#4ABAA5;" cx="433.067" cy="433.067" r="46.933"/>
<circle style="fill:#E8EAE9;" cx="256" cy="433.067" r="78.933"/>
<circle style="fill:#CED6E0;" cx="256" cy="433.067" r="46.933"/>
<circle style="fill:#FFD15C;" cx="256" cy="130.133" r="130.133"/>
<circle style="fill:#F7B64C;" cx="256" cy="130.133" r="90.667"/>
<path style="fill:#FFD15C;" d="M250.667,165.333V134.4c-9.6-3.2-17.067-6.4-21.333-12.8s-6.4-12.8-6.4-20.267
	c0-8.533,2.133-14.933,7.467-20.267s11.733-8.533,20.267-9.6V64h10.667v7.467c7.467,1.067,13.867,3.2,18.133,7.467
	S286.933,89.6,288,97.067L269.867,99.2c-1.067-5.333-4.267-9.6-8.533-11.733v28.8c11.733,3.2,20.267,7.467,24.533,12.8
	c4.267,5.333,6.4,11.733,6.4,19.2c0,8.533-3.2,16-8.533,22.4c-5.333,6.4-12.8,9.6-22.4,11.733v13.867h-10.667V182.4
	c-8.533-1.067-14.933-4.267-20.267-9.6c-5.333-5.333-8.533-12.8-10.667-22.4l19.2-2.133c1.067,4.267,2.133,7.467,4.267,10.667
	C245.333,161.067,248.533,163.2,250.667,165.333z M250.667,87.467c-3.2,1.067-5.333,2.133-6.4,5.333
	c-1.067,3.2-2.133,5.333-2.133,7.467s1.067,5.333,2.133,7.467c1.067,2.133,4.267,4.267,7.467,5.333v-25.6H250.667z M261.333,166.4
	c3.2-1.067,6.4-2.133,8.533-5.333c2.133-3.2,3.2-6.4,3.2-9.6s-1.067-6.4-3.2-8.533s-5.333-4.267-9.6-5.333v28.8H261.333z"/>
<g>
</g>
<g>
</g>
<g>
</g>
<g>
</g>
<g>
</g>
<g>
</g>
<g>
</g>
<g>
</g>
<g>
</g>
<g>
</g>
<g>
</g>
<g>
</g>
<g>
</g>
<g>
</g>
<g>
</g>
</svg>
