<?xml version="1.0" encoding="iso-8859-1"?>
<!-- Generator: Adobe Illustrator 19.0.0, SVG Export Plug-In . SVG Version: 6.00 Build 0)  -->
<svg version="1.1" id="Capa_1" xmlns="http://www.w3.org/2000/svg" xmlns:xlink="http://www.w3.org/1999/xlink" x="0px" y="0px"
	 viewBox="0 0 512 512" style="enable-background:new 0 0 512 512;" xml:space="preserve">
<polygon style="fill:#CED6E0;" points="172.8,408.814 182.4,368.281 331.733,369.347 347.733,408.814 "/>
<polygon style="fill:#F3F3F3;" points="182.4,368.281 189.867,339.48 320,340.547 331.733,369.347 "/>
<polygon style="fill:#CED6E0;" points="320,340.547 450.133,340.547 482.133,371.481 331.733,369.347 "/>
<polygon style="fill:#F3F3F3;" points="347.733,408.814 512,408.814 482.133,371.481 331.733,369.347 "/>
<polygon style="fill:#CED6E0;" points="320,340.547 309.333,317.081 194.133,316.014 189.867,339.48 "/>
<polygon style="fill:#F3F3F3;" points="309.333,317.081 424.533,317.081 450.133,340.547 320,340.547 "/>
<polygon style="fill:#CED6E0;" points="424.533,317.081 406.4,298.947 301.867,298.947 309.333,317.081 "/>
<polygon style="fill:#F3F3F3;" points="301.867,298.947 199.467,297.881 194.133,316.014 309.333,317.081 "/>
<polygon style="fill:#CED6E0;" points="199.467,297.881 202.667,281.881 295.467,282.947 301.867,298.947 "/>
<polygon style="fill:#F3F3F3;" points="0,408.814 35.2,367.214 182.4,368.281 172.8,408.814 "/>
<polygon style="fill:#CED6E0;" points="35.2,367.214 60.8,338.414 189.867,339.48 182.4,368.281 "/>
<polygon style="fill:#F3F3F3;" points="189.867,339.48 194.133,316.014 80,316.014 60.8,338.414 "/>
<polygon style="fill:#CED6E0;" points="199.467,297.881 96,296.814 80,316.014 194.133,316.014 "/>
<g>
	<polygon style="fill:#F3F3F3;" points="96,296.814 109.867,281.881 202.667,281.881 199.467,297.881 	"/>
	<polygon style="fill:#F3F3F3;" points="295.467,282.947 389.333,282.947 406.4,298.947 301.867,298.947 	"/>
</g>
<path style="fill:#66C6B9;" d="M260.267,177.347c0,0-24.533-2.133-28.8-4.267c-4.267-2.133-2.133-6.4-2.133-6.4
	s-7.467-9.6-2.133-19.2c5.333-9.6,34.133-19.2,37.333-21.333c4.267-2.133,7.467-6.4,8.533-10.667s6.4-10.667,8.533-4.267
	c0,0,4.267-3.2,4.267,3.2c0,3.2,2.133,10.667,3.2,12.8c1.067,2.133,27.733,25.6,27.733,66.133c0,0-3.2,44.8-14.933,67.2H236.8
	c0,0-19.2-9.6-12.8-32c1.067-5.333,4.267-10.667,8.533-13.867C245.333,205.081,253.867,191.214,260.267,177.347z"/>
<path style="fill:#4ABAA5;" d="M329.6,346.947c0-10.667-26.667-18.133-58.667-18.133s-58.667,8.533-58.667,18.133
	c0,14.933,26.667,18.133,58.667,18.133S329.6,361.881,329.6,346.947z"/>
<path style="fill:#66C6B9;" d="M329.6,328.814c0,14.933-26.667,18.133-58.667,18.133c-33.067,0-58.667-4.267-58.667-18.133
	c0-2.133,1.067-4.267,2.133-5.333c14.933-14.933,24.533-35.2,24.533-56.533v-5.333H304v5.333c0,21.333,9.6,41.6,23.467,56.533
	C329.6,325.614,329.6,326.681,329.6,328.814z"/>
<path style="fill:#4ABAA5;" d="M307.2,260.547h-74.667c-4.267,0-7.467,3.2-7.467,7.467v5.333c0,4.267,3.2,7.467,7.467,7.467H307.2
	c4.267,0,7.467-3.2,7.467-7.467v-5.333C314.667,263.747,311.467,260.547,307.2,260.547z"/>
<path style="fill:#415A6B;" d="M341.333,355.481l-5.333,3.2c0,0,0,1.067,0,2.133c0,1.067,8.533,2.133,12.8,2.133
	s8.533-3.2,9.6-5.333c1.067-2.133,6.4-4.267,6.4-4.267v2.133c0,0,3.2,0,6.4-1.067c2.133-1.067,3.2-3.2,3.2-5.333v-3.2
	L341.333,355.481z"/>
<path style="fill:#344A5E;" d="M353.067,339.48c0,0,0,3.2-3.2,6.4c-3.2,4.267-8.533,6.4-11.733,8.533
	c-3.2,2.133-3.2,5.333-3.2,5.333s5.333,3.2,13.867,2.133c7.467-1.067,8.533-6.4,14.933-9.6c6.4-3.2,8.533-4.267,9.6-5.333
	c1.067-1.067-2.133-7.467-2.133-8.533S353.067,339.48,353.067,339.48z"/>
<path style="fill:#415A6B;" d="M436.267,353.347c0,0-1.067,5.333,1.067,8.533c2.133,3.2,10.667,3.2,13.867,2.133
	c3.2-1.067,5.333-3.2,3.2-9.6c-2.133-6.4-6.4-4.267-6.4-4.267L436.267,353.347z"/>
<g>
	<path style="fill:#344A5E;" d="M436.267,339.48c0,0,2.133,4.267,1.067,8.533s-3.2,9.6,1.067,11.733s12.8,3.2,13.867,1.067
		c2.133-2.133,1.067-7.467,0-10.667s-3.2-11.733-4.267-12.8c-1.067-1.067-1.067-1.067-1.067-1.067L436.267,339.48z"/>
	<path style="fill:#344A5E;" d="M346.667,197.614c0,0-1.067,30.933-2.133,38.4c-1.067,7.467,0,6.4,5.333,6.4
		s5.333-1.067,5.333-1.067C353.067,224.281,354.133,205.081,346.667,197.614z"/>
</g>
<path style="fill:#415A6B;" d="M353.067,216.814c0,0-6.4,17.067-8.533,27.733c-2.133,10.667-4.267,21.333-5.333,25.6
	c-1.067,4.267-1.067,8.533,0,16c1.067,7.467,12.8,54.4,12.8,54.4s5.333,1.067,9.6,1.067c5.333,0,8.533-3.2,8.533-3.2
	S368,324.547,364.8,318.147c-2.133-6.4-1.067-12.8-2.133-18.133c-1.067-5.333-3.2-7.467-2.133-11.733s-1.067-12.8-1.067-12.8
	l13.867-25.6c0,0,13.867,14.933,17.067,20.267c3.2,6.4,7.467,10.667,10.667,16c4.267,5.333,11.733,19.2,12.8,22.4
	c1.067,3.2,7.467,16,10.667,21.333c3.2,5.333,6.4,12.8,6.4,12.8s4.267,2.133,8.533,1.067c4.267-1.067,5.333-3.2,5.333-3.2
	s-2.133-13.867-7.467-23.467c-5.333-9.6-9.6-25.6-11.733-28.8c-2.133-3.2-2.133-6.4-4.267-8.533c-2.133-2.133-3.2-4.267-4.267-5.333
	c-1.067-1.067,1.067-1.067-1.067-5.333c-2.133-4.267-7.467-22.4-7.467-29.867s0-12.8-5.333-20.267c-5.333-7.467-5.333-6.4-5.333-6.4
	L353.067,216.814z"/>
<path style="fill:#344A5E;" d="M353.067,132.547l3.2,1.067c0,0,8.533-2.133,14.933,2.133c7.467,5.333,11.733,20.267,13.867,28.8
	c2.133,8.533,6.4,19.2,10.667,26.667c4.267,8.533,16,30.933,16,30.933s-19.2,17.067-34.133,20.267
	c-14.933,3.2-18.133-8.533-20.267-12.8c-2.133-4.267-10.667-30.933-10.667-30.933s-8.533-18.133-6.4-34.133
	C342.4,150.681,353.067,132.547,353.067,132.547z"/>
<path style="fill:#FFD15C;" d="M310.4,157.081c0,0-2.133-3.2-3.2-4.267c-1.067-1.067-3.2-7.467-3.2-7.467s0-3.2-1.067-5.333
	c-1.067-1.067-4.267-4.267-4.267-4.267s-2.133,0,0,3.2l1.067,1.067c0,0-5.333-3.2-6.4-4.267c-2.133,0-1.067,1.067-1.067,1.067
	s-1.067-1.067-2.133-1.067c-1.067,1.067,1.067,2.133,2.133,3.2s3.2,3.2,4.267,4.267s1.067,2.133,1.067,2.133
	s-1.067-1.067-2.133-2.133c-1.067-1.067-3.2-2.133-3.2-3.2c-1.067-1.067-1.067-2.133-2.133-2.133c-1.067,0,0,2.133,1.067,3.2
	c1.067,1.067,3.2,3.2,4.267,4.267c1.067,1.067,2.133,3.2,3.2,5.333c1.067,3.2,5.333,6.4,6.4,7.467s2.133,3.2,2.133,3.2
	S309.333,158.147,310.4,157.081z"/>
<path style="fill:#344A5E;" d="M338.133,147.481c0,0-2.133,1.067-4.267,11.733c-2.133,10.667,5.333,30.933,11.733,38.4
	c5.333,7.467,5.333,7.467,5.333,7.467s-12.8-36.267-12.8-45.867C338.133,148.547,338.133,147.481,338.133,147.481z"/>
<path style="fill:#F3705A;" d="M338.133,147.481c0,0-1.067,2.133-1.067,4.267s-2.133,17.067,0,23.467c2.133,6.4,2.133,6.4,2.133,6.4
	s0-26.667,1.067-29.867c1.067-3.2,1.067-3.2,1.067-3.2L338.133,147.481z"/>
<path style="fill:#FFD15C;" d="M355.2,133.614l-4.267-6.4l-14.933-16l-11.733-1.067l-3.2,6.4c0,0-2.133,6.4-2.133,7.467
	c0,2.133,1.067,2.133,1.067,3.2s-3.2,4.267-2.133,6.4s2.133,2.133,2.133,2.133s1.067,2.133,1.067,3.2c0,1.067,0,1.067,1.067,1.067
	c0,0-1.067,1.067,1.067,2.133s0,3.2,2.133,4.267c2.133,1.067,8.533-2.133,9.6-2.133s6.4,5.333,8.533,8.533
	C346.667,145.347,349.867,138.947,355.2,133.614z"/>
<g>
	<path style="fill:#E8EAE9;" d="M342.4,150.681l-3.2-3.2c0,0,7.467-12.8,12.8-17.067v7.467L342.4,150.681z"/>
	<path style="fill:#E8EAE9;" d="M306.133,168.814c0,0-2.133-1.067-3.2-2.133s3.2-9.6,6.4-9.6l2.133,1.067L306.133,168.814z"/>
</g>
<g>
	<path style="fill:#415A6B;" d="M321.067,115.481L321.067,115.481c1.067,0,3.2-2.133,5.333-2.133c2.133,0,1.067,5.333,1.067,6.4
		c1.067,1.067,4.267,1.067,4.267,3.2s0,4.267,0,4.267h2.133c0,0,0-4.267,2.133-5.333c2.133-1.067,4.267-1.067,5.333,2.133
		c1.067,3.2,8.533,7.467,10.667,7.467c2.133,0,2.133-5.333,2.133-10.667c0-5.333-1.067-14.933-12.8-17.067
		c-9.6-2.133-18.133,2.133-22.4,7.467C316.8,111.214,317.867,115.481,321.067,115.481z"/>
	<path style="fill:#415A6B;" d="M353.067,128.281c0,0-3.2,3.2-5.333,9.6c-2.133,6.4-9.6,21.333-10.667,26.667
		c-1.067,6.4,8.533,27.733,11.733,34.133c0,0-6.4-19.2-5.333-29.867c1.067-9.6,10.667-34.133,14.933-36.267L353.067,128.281z"/>
	<path style="fill:#415A6B;" d="M347.733,151.747c0,0,1.067-11.733,11.733-12.8c10.667-1.067,13.867,3.2,14.933,7.467
		c1.067,5.333,0,12.8-2.133,17.067c-3.2,4.267-19.2,16-24.533,18.133c-5.333,3.2-8.533,3.2-14.933,2.133
		c-6.4-2.133-16-6.4-26.667-8.533c0,0-1.067-9.6,2.133-13.867c3.2-4.267,4.267-3.2,4.267-3.2s11.733,4.267,14.933,4.267
		c3.2,1.067,5.333,0,6.4,0c2.133,0,3.2,0,3.2,0S347.733,154.947,347.733,151.747z"/>
</g>
<g>
</g>
<g>
</g>
<g>
</g>
<g>
</g>
<g>
</g>
<g>
</g>
<g>
</g>
<g>
</g>
<g>
</g>
<g>
</g>
<g>
</g>
<g>
</g>
<g>
</g>
<g>
</g>
<g>
</g>
</svg>
