<?xml version="1.0" encoding="iso-8859-1"?>
<!-- Generator: Adobe Illustrator 19.0.0, SVG Export Plug-In . SVG Version: 6.00 Build 0)  -->
<svg version="1.1" id="Capa_1" xmlns="http://www.w3.org/2000/svg" xmlns:xlink="http://www.w3.org/1999/xlink" x="0px" y="0px"
	 viewBox="0 0 512.651 512.651" style="enable-background:new 0 0 512.651 512.651;" xml:space="preserve">
<path style="fill:#344A5E;" d="M474.459,60.592v295.467h-435.2V60.592c0-11.733,9.6-21.333,21.333-21.333h393.6
	C464.859,40.325,474.459,48.859,474.459,60.592z"/>
<rect x="76.592" y="77.659" style="fill:#E8EAE9;" width="360.533" height="242.133"/>
<path style="fill:#344A5E;" d="M9.392,430.725l-8.533,3.2v21.333c0,10.667,8.533,18.133,18.133,18.133h474.667
	c10.667,0,18.133-8.533,18.133-18.133v-21.333l-8.533-3.2H9.392z"/>
<path style="fill:#415A6B;" d="M475.525,356.059H38.192L0.859,430.725c-2.133,2.133,0,6.4,3.2,6.4h504.533c3.2,0,5.333-3.2,3.2-6.4
	L475.525,356.059z"/>
<path style="fill:#F3705A;" d="M196.059,204.592v69.333c0,5.333-4.267,9.6-9.6,9.6h-29.867c-5.333,0-9.6-4.267-9.6-9.6v-69.333
	c0-5.333,4.267-9.6,9.6-9.6h29.867C191.792,194.992,196.059,199.259,196.059,204.592z"/>
<path style="fill:#FFD15C;" d="M281.392,153.392v119.467c0,5.333-4.267,9.6-9.6,9.6h-29.867c-5.333,0-9.6-4.267-9.6-9.6V153.392
	c0-5.333,4.267-9.6,9.6-9.6h29.867C277.125,144.859,281.392,149.125,281.392,153.392z"/>
<path style="fill:#4ABAA5;" d="M366.725,103.259v170.667c0,5.333-4.267,9.6-9.6,9.6h-29.867c-5.333,0-9.6-4.267-9.6-9.6V103.259
	c0-5.333,4.267-9.6,9.6-9.6h29.867C362.459,93.659,366.725,97.925,366.725,103.259z"/>
<polygon style="fill:#344A5E;" points="206.725,416.859 225.925,377.392 287.792,377.392 306.992,416.859 "/>
<g>
</g>
<g>
</g>
<g>
</g>
<g>
</g>
<g>
</g>
<g>
</g>
<g>
</g>
<g>
</g>
<g>
</g>
<g>
</g>
<g>
</g>
<g>
</g>
<g>
</g>
<g>
</g>
<g>
</g>
</svg>
