<?xml version="1.0" encoding="iso-8859-1"?>
<!-- Generator: Adobe Illustrator 19.0.0, SVG Export Plug-In . SVG Version: 6.00 Build 0)  -->
<svg version="1.1" id="Capa_1" xmlns="http://www.w3.org/2000/svg" xmlns:xlink="http://www.w3.org/1999/xlink" x="0px" y="0px"
	 viewBox="0 0 512 512" style="enable-background:new 0 0 512 512;" xml:space="preserve">
<path style="fill:#F3705A;" d="M82.133,190.4c0,0,5.333,64-9.6,97.067S44.8,328,43.733,329.067
	c-1.067,0,45.867-10.667,45.867-10.667l34.133-46.933l1.067-43.733L82.133,190.4"/>
<path style="fill:#F7B64C;" d="M107.733,229.867h60.8v44.8c6.4,29.867,11.733,59.733,0,77.867c0,44.8-60.8,44.8-60.8,0
	c-13.867-27.733-17.067-54.4,0-77.867L107.733,229.867L107.733,229.867z"/>
<path style="fill:#F3F3F3;" d="M182.4,399.467H94.933l9.6-77.867c6.4,11.733,19.2,20.267,34.133,20.267
	c14.933,0,26.667-8.533,34.133-20.267L182.4,399.467z"/>
<path style="fill:#F3705A;" d="M194.133,190.4c0,30.933-24.533,56.533-55.467,56.533S82.133,222.4,82.133,190.4
	s24.533-56.533,56.533-56.533C169.6,133.867,194.133,159.467,194.133,190.4z"/>
<path style="fill:#FFD15C;" d="M183.467,218.133c0,36.267-20.267,66.133-44.8,66.133S92.8,254.4,92.8,218.133
	c0-10.667,2.133-20.267,4.267-28.8c5.333-14.933,18.133-6.4,40.533-6.4s35.2-9.6,40.533,6.4
	C182.4,197.867,183.467,207.467,183.467,218.133z"/>
<path style="fill:#66C6B9;" d="M48,399.467H0C17.067,334.4,23.467,302.4,37.333,305.6C37.333,305.6,50.133,367.467,48,399.467z"/>
<path style="fill:#4ABAA5;" d="M48,399.467c2.133-32-10.667-93.867-10.667-93.867L89.6,286.4l6.4,4.267l22.4,108.8H48z"/>
<g>
	<path style="fill:#66C6B9;" d="M129.067,399.467H102.4c-12.8-22.4-24.533-48-34.133-74.667l17.067-9.6l-17.067-9.6l1.067-1.067
		c10.667-10.667,22.4-19.2,35.2-27.733c2.133-1.067,3.2-2.133,4.267-3.2c0,0-3.2,39.467,5.333,67.2
		C117.333,352.533,122.667,376,129.067,399.467z"/>
	<path style="fill:#66C6B9;" d="M276.267,399.467C259.2,334.4,252.8,302.4,238.933,305.6c0,0-12.8,61.867-10.667,93.867H276.267z"/>
</g>
<path style="fill:#4ABAA5;" d="M228.267,399.467h-70.4l22.4-108.8l6.4-4.267l52.267,19.2
	C238.933,305.6,226.133,367.467,228.267,399.467z"/>
<path style="fill:#66C6B9;" d="M147.2,399.467h26.667c12.8-22.4,24.533-48,34.133-74.667l-17.067-9.6L208,305.6l-1.067-1.067
	c-10.667-10.667-22.4-20.267-35.2-27.733c-2.133-1.067-3.2-2.133-4.267-3.2c0,0,3.2,39.467-5.333,67.2
	C160,352.533,153.6,376,147.2,399.467z"/>
<g>
	<path style="fill:#F3705A;" d="M238.933,318.4c-12.8-1.067-25.6-10.667-29.867-23.467c-12.8,21.333-13.867,50.133-3.2,72.533
		c-9.6-6.4-17.067-16-22.4-25.6c-5.333-10.667-8.533-21.333-11.733-32c-3.2-12.8-7.467-25.6-5.333-38.4
		c1.067-9.6,5.333-18.133,8.533-26.667c7.467-21.333,10.667-43.733,9.6-67.2h4.267c6.4-6.4,6.4,43.733,13.867,68.267
		C210.133,272.533,221.867,297.067,238.933,318.4z"/>
	<path style="fill:#F3705A;" d="M99.2,238.4c4.267,12.8,10.667,26.667,8.533,39.467c-1.067,9.6-7.467,18.133-13.867,24.533
		c-6.4,7.467-13.867,13.867-19.2,21.333s-9.6,17.067-8.533,26.667c-6.4-16-6.4-33.067,0-48
		c4.267-10.667,11.733-20.267,14.933-30.933C92.8,241.6,78.933,205.333,92.8,176.533l7.467-3.2
		C92.8,194.667,92.8,217.067,99.2,238.4z"/>
</g>
<g>
	<path style="fill:#FFD15C;" d="M333.867,201.067c2.133,8.533-1.067,17.067-6.4,18.133c-5.333,1.067-10.667-5.333-12.8-13.867
		c-1.067-8.533,1.067-17.067,6.4-18.133C327.467,186.133,332.8,192.533,333.867,201.067z"/>
	<path style="fill:#FFD15C;" d="M428.8,205.333c-2.133,8.533-7.467,14.933-12.8,13.867c-5.333-1.067-7.467-8.533-6.4-18.133
		c2.133-8.533,7.467-14.933,12.8-13.867C427.733,188.267,430.933,195.733,428.8,205.333z"/>
</g>
<path style="fill:#415A6B;" d="M423.467,178.667c0,37.333-22.4,67.2-51.2,67.2c-28.8,0-51.2-29.867-51.2-67.2
	c0-57.6,22.4-67.2,51.2-67.2C401.067,111.467,423.467,121.067,423.467,178.667z"/>
<polygon style="fill:#CED6E0;" points="395.733,399.467 433.067,277.867 372.267,277.867 316.8,281.067 363.733,399.467 "/>
<polygon style="fill:#F3705A;" points="391.467,399.467 382.933,307.733 362.667,307.733 354.133,399.467 "/>
<polygon style="fill:#F05540;" points="382.933,307.733 392.533,298.133 372.267,277.867 353.067,298.133 362.667,307.733 "/>
<g>
	<path style="fill:#F3F3F3;" d="M340.267,245.867c0,0-1.067,12.8,16,22.4c16,9.6,16,10.667,16,10.667l-19.2,26.667l-21.333-30.933
		C332.8,274.667,332.8,262.933,340.267,245.867z"/>
	<path style="fill:#F3F3F3;" d="M404.267,245.867c0,0,1.067,12.8-16,22.4c-16,9.6-16,10.667-16,10.667l19.2,26.667l21.333-30.933
		C411.733,274.667,412.8,262.933,404.267,245.867z"/>
</g>
<path style="fill:#415A6B;" d="M290.133,363.2c0,0,3.2,21.333,4.267,36.267h-60.8c3.2-16,6.4-35.2,10.667-48
	c7.467-25.6,8.533-61.867,23.467-66.133c14.933-4.267,46.933,38.4,46.933,38.4L290.133,363.2z"/>
<path style="fill:#344A5E;" d="M289.067,399.467c0-21.333,0-36.267,0-36.267c-2.133-24.533-23.467-77.867-23.467-77.867
	c5.333-1.067,53.333-17.067,56.533-18.133c-3.2,3.2,18.133,84.267,18.133,84.267s12.8,23.467,23.467,49.067h-74.667V399.467z"/>
<g>
	<path style="fill:#415A6B;" d="M369.067,399.467h-12.8c-8.533-16-42.667-87.467-43.733-97.067l12.8-10.667L313.6,286.4l9.6-20.267
		c0,0,8.533-4.267,13.867-13.867c0,0,4.267,42.667,7.467,52.267c3.2,9.6,16,66.133,18.133,75.733
		C364.8,384.533,366.933,392,369.067,399.467z"/>
	<path style="fill:#415A6B;" d="M451.2,399.467c1.067-14.933,4.267-36.267,4.267-36.267L432,323.733c0,0,32-43.733,46.933-38.4
		c14.933,5.333,17.067,40.533,23.467,66.133c3.2,12.8,7.467,32,9.6,48H451.2z"/>
</g>
<path style="fill:#344A5E;" d="M455.467,399.467h-75.733C390.4,373.867,403.2,350.4,403.2,350.4s20.267-80,18.133-84.267
	c3.2,1.067,51.2,17.067,56.533,18.133c0,0-21.333,53.333-23.467,77.867C455.467,363.2,455.467,379.2,455.467,399.467z"/>
<path style="fill:#415A6B;" d="M432,302.4c-1.067,8.533-34.133,80-43.733,97.067h-11.733c2.133-8.533,5.333-16,6.4-19.2
	c2.133-9.6,16-66.133,19.2-75.733c3.2-9.6,7.467-52.267,7.467-52.267c5.333,9.6,13.867,13.867,13.867,13.867l9.6,20.267
	l-13.867,5.333L432,302.4z"/>
<path style="fill:#F7B64C;" d="M340.267,222.4v23.467c0,0-1.067,12.8,16,22.4c16,9.6,16,10.667,16,10.667s0-1.067,16-10.667
	c16-9.6,16-22.4,16-22.4V222.4H340.267z"/>
<path style="fill:#FFD15C;" d="M420.267,195.733c0,34.133-21.333,61.867-46.933,61.867c-26.667,0-46.933-27.733-46.933-61.867
	c0-12.8,3.2-24.533,8.533-34.133c7.467-13.867,17.067-1.067,39.467-1.067c22.4,0,32-11.733,39.467,1.067
	C417.067,171.2,420.267,182.933,420.267,195.733z"/>
<g>
</g>
<g>
</g>
<g>
</g>
<g>
</g>
<g>
</g>
<g>
</g>
<g>
</g>
<g>
</g>
<g>
</g>
<g>
</g>
<g>
</g>
<g>
</g>
<g>
</g>
<g>
</g>
<g>
</g>
</svg>
