<?xml version="1.0" encoding="iso-8859-1"?>
<!-- Generator: Adobe Illustrator 19.0.0, SVG Export Plug-In . SVG Version: 6.00 Build 0)  -->
<svg version="1.1" id="Capa_1" xmlns="http://www.w3.org/2000/svg" xmlns:xlink="http://www.w3.org/1999/xlink" x="0px" y="0px"
	 viewBox="0 0 512 512" style="enable-background:new 0 0 512 512;" xml:space="preserve">
<g>
	<path style="fill:#415A6B;" d="M118.4,273.6c0,0,6.4-9.6,9.6-16c3.2-6.4,7.467-29.867,7.467-29.867l-8.533,1.067
		C125.867,228.8,117.333,264,118.4,273.6z"/>
	<path style="fill:#415A6B;" d="M71.467,257.6l9.6,6.4l5.333-22.4L64,213.867C64,213.867,48,242.667,71.467,257.6z"/>
</g>
<path style="fill:#FFD15C;" d="M121.6,333.333c5.333-25.6,8.533-49.067,0-66.133v-11.733c9.6-13.867,10.667-34.133,10.667-34.133
	l-6.4-37.333c0,0-4.267-14.933-17.067-13.867c-12.8,1.067-27.733,9.6-27.733,9.6l-13.867,38.4c0,0-1.067,16,11.733,35.2v12.8
	c-7.467,22.4-6.4,44.8,0,66.133H121.6V333.333z"/>
<path style="fill:#F3705A;" d="M124.8,386.667l-3.2-76.8c1.067,22.4-45.867,22.4-45.867,0l-3.2,76.8H124.8z"/>
<path style="fill:#F7B64C;" d="M77.867,255.467L77.867,255.467L73.6,285.333c40.533-11.733,48-28.8,48-28.8
	C106.667,268.267,92.8,268.267,77.867,255.467z"/>
<path style="fill:#E8EAE9;" d="M161.067,386.667h38.4c-4.267-35.2-11.733-87.467-23.467-92.8l-24.533,58.667l17.067,3.2
	C167.467,355.733,163.2,368.533,161.067,386.667z"/>
<path style="fill:#CED6E0;" d="M162.133,386.667c3.2-17.067,6.4-30.933,6.4-30.933c-3.2-21.333,7.467-61.867,7.467-61.867
	l-38.4-11.733l-27.733,104.533H162.133z"/>
<g>
	<path style="fill:#E8EAE9;" d="M107.733,380.267c0,2.133,0,3.2,0,5.333H118.4c14.933-24.533,26.667-51.2,34.133-80l-13.867-8.533
		l8.533-2.133c0,0-5.333-10.667-8.533-13.867s-13.867-12.8-16-13.867c0,0,5.333,11.733,1.067,34.133
		C119.467,323.733,107.733,371.733,107.733,380.267z"/>
	<path style="fill:#E8EAE9;" d="M38.4,386.667c-2.133-18.133-7.467-30.933-7.467-30.933l17.067-3.2l-24.533-58.667
		c-11.733,5.333-19.2,57.6-23.467,92.8H38.4z"/>
</g>
<path style="fill:#CED6E0;" d="M30.933,355.733c0,0,4.267,13.867,6.4,30.933H89.6L61.867,282.133l-38.4,11.733
	C23.467,293.867,34.133,334.4,30.933,355.733z"/>
<path style="fill:#E8EAE9;" d="M82.133,386.667H92.8c0-2.133,0-4.267,0-5.333c-1.067-9.6-10.667-56.533-14.933-78.933
	c-4.267-22.4,1.067-34.133,1.067-34.133c-3.2,1.067-12.8,10.667-16,13.867c-4.267,2.133-9.6,12.8-9.6,12.8l8.533,2.133L48,305.6
	C55.467,334.4,67.2,361.067,82.133,386.667z"/>
<path style="fill:#415A6B;" d="M112,177.6c0,0-9.6,13.867-23.467,27.733c-13.867,12.8-21.333,14.933-22.4,18.133
	c-1.067,3.2,0,24.533,10.667,36.267c4.267,5.333,7.467,12.8,7.467,19.2c0,1.067,0,1.067,0,2.133c0,0-17.067-8.533-23.467-32
	s-9.6-46.933-2.133-68.267s38.4-33.067,53.333-25.6s26.667,26.667,28.8,40.533c2.133,13.867,2.133,26.667,1.067,36.267
	c-1.067,8.533-2.133,18.133-12.8,37.333c-5.333,7.467-7.467,24.533-7.467,24.533s-4.267-9.6-3.2-19.2
	c3.2-14.933,9.6-22.4,10.667-36.267c2.133-14.933-5.333-45.867-9.6-52.267C115.2,177.6,112,177.6,112,177.6z"/>
<polygon style="fill:#ADB3BA;" points="437.333,386.667 437.333,302.4 358.4,302.4 350.933,386.667 "/>
<g>
	<path style="fill:#344A5E;" d="M512,386.667H405.333c12.8-46.933,26.667-94.933,26.667-94.933l12.8-1.067l49.067,26.667l0,0
		c0,0,9.6,0,11.733,20.267C507.733,350.4,509.867,371.733,512,386.667z"/>
	<path style="fill:#344A5E;" d="M343.467,291.733c0,0,14.933,46.933,26.667,94.933H263.467c2.133-14.933,4.267-36.267,5.333-49.067
		c2.133-19.2,11.733-20.267,11.733-20.267l0,0l49.067-26.667L343.467,291.733z"/>
</g>
<polygon style="fill:#F3705A;" points="397.867,329.067 406.4,320.533 388.267,302.4 370.133,320.533 378.667,329.067 "/>
<polygon style="fill:#F05540;" points="406.4,386.667 397.867,329.067 378.667,329.067 370.133,386.667 "/>
<path style="fill:#F3F3F3;" d="M420.267,267.2c0,0,0,8.533-5.333,13.867C409.6,286.4,388.267,302.4,388.267,302.4l19.2,34.133
	l24.533-51.2C432,284.267,427.733,270.4,420.267,267.2z"/>
<path style="fill:#415A6B;" d="M406.4,339.733c-2.133,10.667-6.4,26.667-10.667,46.933H416
	c8.533-18.133,34.133-69.333,34.133-69.333l-13.867-10.667h12.8c0,0-1.067-16-8.533-21.333c-7.467-5.333-9.6-7.467-12.8-11.733
	s-6.4-5.333-6.4-5.333s4.267,10.667,3.2,18.133C424.533,293.867,411.733,316.267,406.4,339.733z"/>
<path style="fill:#F3F3F3;" d="M355.2,267.2c0,0,0,8.533,5.333,13.867C365.867,286.4,387.2,302.4,387.2,302.4L368,336.533
	l-24.533-51.2C343.467,284.267,348.8,270.4,355.2,267.2z"/>
<path style="fill:#415A6B;" d="M359.467,386.667h20.267c-4.267-19.2-8.533-36.267-10.667-46.933
	c-5.333-23.467-18.133-45.867-19.2-53.333s3.2-18.133,3.2-18.133s-3.2,1.067-6.4,5.333s-5.333,6.4-12.8,11.733
	c-7.467,5.333-8.533,21.333-8.533,21.333h12.8l-13.867,10.667C325.333,317.333,352,367.467,359.467,386.667z"/>
<path style="fill:#F7B64C;" d="M355.2,248v19.2c0,0,0,8.533,5.333,13.867C365.867,286.4,387.2,302.4,387.2,302.4
	s21.333-17.067,26.667-21.333c5.333-5.333,5.333-13.867,5.333-13.867V248H355.2z"/>
<g>
	<path style="fill:#FFD15C;" d="M429.867,229.867c0,0-7.467,55.467-41.6,55.467s-39.467-44.8-39.467-49.067
		s-5.333-35.2,4.267-55.467c9.6-20.267,45.867-24.533,60.8-16s19.2,9.6,19.2,20.267C434.133,195.733,433.067,222.4,429.867,229.867z
		"/>
	<path style="fill:#FFD15C;" d="M441.6,224.533c-1.067,8.533-5.333,16-9.6,16c-4.267,0-7.467-7.467-6.4-16
		c1.067-8.533,5.333-16,9.6-16S442.667,216,441.6,224.533z"/>
	<path style="fill:#FFD15C;" d="M334.933,224.533c1.067,8.533,5.333,16,9.6,16c4.267,0,7.467-7.467,6.4-16
		c-1.067-8.533-5.333-16-9.6-16C337.067,209.6,333.867,216,334.933,224.533z"/>
</g>
<path style="fill:#415A6B;" d="M437.333,216c-5.333,9.6-6.4,13.867-6.4,13.867s2.133-23.467-4.267-32
	c-3.2-4.267-2.133-9.6-2.133-13.867c0-5.333-4.267-9.6-9.6-8.533c-16,3.2-30.933,3.2-46.933,0c-5.333-1.067-9.6,3.2-9.6,8.533
	c0,4.267-2.133,8.533-5.333,13.867c-5.333,7.467-4.267,24.533-4.267,29.867c-1.067-3.2-3.2-6.4-5.333-8.533
	c-5.333-5.333-8.533-13.867-6.4-21.333l0,0c1.067-8.533,5.333-28.8,13.867-36.267c8.533-7.467,27.733-23.467,52.267-17.067
	c24.533,7.467,38.4,37.333,39.467,45.867C443.733,198.933,442.667,206.4,437.333,216z"/>
<path style="fill:#FFD15C;" d="M265.6,244.8h-49.067v9.6c-7.467,24.533-7.467,49.067,0,73.6H265.6c6.4-27.733,9.6-54.4,0-73.6V244.8
	z"/>
<path style="fill:#415A6B;" d="M268.8,386.667l5.333-113.067c-2.133,39.467-65.067,39.467-67.2,0l5.333,113.067H268.8z"/>
<path style="fill:#4ABAA5;" d="M309.333,386.667H352C347.733,347.2,338.133,289.6,325.333,283.2l-26.667,65.067l19.2,3.2
	C317.867,352.533,311.467,366.4,309.333,386.667z"/>
<path style="fill:#66C6B9;" d="M310.4,386.667c3.2-19.2,7.467-34.133,7.467-34.133c-3.2-23.467,7.467-69.333,7.467-69.333
	l-42.667-13.867L251.733,385.6H310.4V386.667z"/>
<g>
	<path style="fill:#4ABAA5;" d="M249.6,380.267c0,2.133,0,4.267-1.067,6.4h11.733c17.067-27.733,29.867-57.6,38.4-88.533
		l-14.933-10.667l9.6-2.133c0,0-6.4-11.733-9.6-16c-4.267-3.2-14.933-14.933-18.133-14.933c0,0,6.4,12.8,1.067,37.333
		C261.333,316.267,250.667,369.6,249.6,380.267z"/>
	<path style="fill:#4ABAA5;" d="M173.867,386.667c-2.133-20.267-7.467-34.133-8.533-34.133l19.2-3.2l-26.667-65.067
		c-12.8,5.333-21.333,64-26.667,103.467h42.667V386.667z"/>
</g>
<path style="fill:#66C6B9;" d="M164.267,352.533c0,0,4.267,14.933,7.467,34.133h57.6L198.4,270.4l-42.667,13.867
	C156.8,283.2,168.533,329.067,164.267,352.533z"/>
<path style="fill:#4ABAA5;" d="M221.867,386.667H233.6c0-2.133,0-4.267-1.067-6.4c-1.067-10.667-11.733-62.933-17.067-87.467
	c-5.333-24.533,1.067-37.333,1.067-37.333c-2.133,0-13.867,10.667-17.067,13.867c-4.267,3.2-9.6,16-9.6,16l9.6,2.133l-14.933,9.6
	C193.067,329.067,205.867,358.933,221.867,386.667z"/>
<circle style="fill:#E8EAE9;" cx="241.067" cy="194.667" r="70.4"/>
<circle style="fill:#CED6E0;" cx="241.067" cy="194.667" r="49.067"/>
<path style="fill:#E8EAE9;" d="M237.867,213.867V196.8c-5.333-1.067-9.6-4.267-11.733-7.467c-2.133-3.2-4.267-7.467-4.267-11.733
	s1.067-8.533,4.267-11.733c3.2-3.2,6.4-5.333,11.733-5.333v-4.267h6.4v4.267c4.267,0,7.467,2.133,10.667,4.267
	c2.133,2.133,4.267,5.333,5.333,9.6l-10.667,1.067c-1.067-3.2-2.133-5.333-5.333-6.4v16c6.4,2.133,10.667,4.267,13.867,7.467
	c2.133,3.2,3.2,6.4,3.2,10.667c0,5.333-1.067,9.6-4.267,12.8c-3.2,3.2-7.467,5.333-12.8,6.4v7.467h-6.4v-6.4
	c-4.267-1.067-8.533-2.133-11.733-5.333c-3.2-3.2-5.333-7.467-5.333-12.8l10.667-1.067c0,2.133,1.067,4.267,2.133,5.333
	C234.667,210.667,236.8,212.8,237.867,213.867z M237.867,170.133c-2.133,1.067-3.2,1.067-4.267,3.2
	c-1.067,1.067-1.067,3.2-1.067,4.267c0,1.067,0,3.2,1.067,4.267c1.067,1.067,2.133,2.133,4.267,3.2V170.133z M244.267,214.933
	c2.133,0,4.267-1.067,5.333-3.2c1.067-2.133,2.133-3.2,2.133-5.333s-1.067-3.2-2.133-4.267c-1.067-1.067-3.2-2.133-5.333-3.2
	V214.933z"/>
<g>
</g>
<g>
</g>
<g>
</g>
<g>
</g>
<g>
</g>
<g>
</g>
<g>
</g>
<g>
</g>
<g>
</g>
<g>
</g>
<g>
</g>
<g>
</g>
<g>
</g>
<g>
</g>
<g>
</g>
</svg>
