<?xml version="1.0" encoding="iso-8859-1"?>
<!-- Generator: Adobe Illustrator 19.0.0, SVG Export Plug-In . SVG Version: 6.00 Build 0)  -->
<svg version="1.1" id="Capa_1" xmlns="http://www.w3.org/2000/svg" xmlns:xlink="http://www.w3.org/1999/xlink" x="0px" y="0px"
	 viewBox="0 0 513.067 513.067" style="enable-background:new 0 0 513.067 513.067;" xml:space="preserve">
<path style="fill:#344A5E;" d="M108.8,434.523c0,0,20.267,56.533,32,65.067c11.733,9.6,29.867,6.4,43.733,1.067
	c13.867-4.267,102.4-53.333,119.467-107.733c17.067-54.4-121.6-86.4-163.2-84.267C99.2,311.856,108.8,434.523,108.8,434.523z"/>
<path style="fill:#E8EAE9;" d="M260.267,434.523c0,0,51.2-19.2,54.4-87.467c3.2-68.267-107.733-56.533-107.733-56.533
	S149.333,407.856,260.267,434.523z"/>
<path id="SVGCleanerId_0" style="fill:#FFD15C;" d="M195.2,386.523c0,0,81.067,16,115.2,5.333c0,0,43.733,9.6,82.133,6.4
	c38.4-3.2,99.2-46.933,99.2-46.933s21.333-8.533,19.2-32s-23.467-28.8-35.2-30.933c-11.733-2.133-14.933-3.2-14.933-3.2
	s2.133-40.533,0-50.133c-3.2-9.6-2.133-28.8,0-41.6c2.133-11.733,11.733-43.733,13.867-85.333c2.133-41.6,3.2-74.667-23.467-78.933
	c-26.667-4.267-34.133,59.733-34.133,74.667s-9.6,34.133-11.733,53.333c-2.133,20.267-6.4,26.667-9.6,28.8
	c-3.2,2.133-9.6,1.067-21.333-6.4c-11.733-7.467-32-9.6-42.667,1.067c-10.667,10.667-13.867,8.533-19.2,6.4
	c-5.333-2.133-25.6-9.6-35.2,2.133c-9.6,11.733-11.733,12.8-22.4,9.6c-9.6-2.133-38.4,6.4-48,34.133
	c-10.667,27.733,5.333,73.6,2.133,93.867h-32L195.2,386.523z"/>
<g>
	<path id="SVGCleanerId_0_1_" style="fill:#FFD15C;" d="M195.2,386.523c0,0,81.067,16,115.2,5.333c0,0,43.733,9.6,82.133,6.4
		c38.4-3.2,99.2-46.933,99.2-46.933s21.333-8.533,19.2-32s-23.467-28.8-35.2-30.933c-11.733-2.133-14.933-3.2-14.933-3.2
		s2.133-40.533,0-50.133c-3.2-9.6-2.133-28.8,0-41.6c2.133-11.733,11.733-43.733,13.867-85.333c2.133-41.6,3.2-74.667-23.467-78.933
		c-26.667-4.267-34.133,59.733-34.133,74.667s-9.6,34.133-11.733,53.333c-2.133,20.267-6.4,26.667-9.6,28.8
		c-3.2,2.133-9.6,1.067-21.333-6.4c-11.733-7.467-32-9.6-42.667,1.067c-10.667,10.667-13.867,8.533-19.2,6.4
		c-5.333-2.133-25.6-9.6-35.2,2.133c-9.6,11.733-11.733,12.8-22.4,9.6c-9.6-2.133-38.4,6.4-48,34.133
		c-10.667,27.733,5.333,73.6,2.133,93.867h-32L195.2,386.523z"/>
</g>
<path style="fill:#FFD15C;" d="M394.667,359.856c1.067-5.333,6.4-103.467,8.533-117.333c2.133-13.867-5.333-27.733-5.333-27.733
	c-9.6-12.8-16-23.467-20.267-30.933c-2.133-1.067-3.2-2.133-5.333-3.2c-11.733-7.467-32-9.6-42.667,1.067
	c-10.667,10.667-13.867,8.533-19.2,6.4s-25.6-9.6-35.2,2.133c-9.6,11.733-11.733,12.8-22.4,9.6c-9.6-2.133-38.4,6.4-48,34.133
	c0,1.067-1.067,3.2-1.067,4.267c1.067,16,5.333,30.933,7.467,38.4c3.2,14.933,12.8,40.533,17.067,52.267
	s21.333,14.933,21.333,14.933c21.333,8.533,25.6-6.4,26.667-17.067c0-5.333-6.4-66.133-6.4-66.133s2.133,20.267,6.4,29.867
	s5.333,36.267,7.467,43.733c2.133,7.467,3.2,19.2,26.667,22.4c23.467,3.2,24.533-23.467,24.533-23.467
	c2.133-18.133-5.333-73.6-5.333-73.6l12.8,7.467c0,0,0,94.933,0,99.2c0,4.267,9.6,17.067,27.733,14.933
	C390.4,379.056,392.533,365.189,394.667,359.856z"/>
<path style="fill:#FFFFFF;" d="M353.067,370.523c0,0,0-14.933,1.067-19.2c1.067-5.333,8.533-8.533,14.933-8.533
	c5.333,0,16,1.067,17.067,8.533s4.267,17.067-1.067,22.4C377.6,377.99,354.133,377.99,353.067,370.523z"/>
<g>
	<path style="fill:#F7B64C;" d="M429.867,321.456c-1.067,8.533,2.133,19.2,9.6,23.467c-3.2-2.133-7.467-4.267-9.6-7.467
		c-3.2-3.2-4.267-7.467-2.133-11.733c-3.2,8.533-3.2,19.2,1.067,27.733c4.267,8.533,10.667,16,20.267,19.2
		c-8.533-3.2-17.067-9.6-23.467-16c-2.133-2.133-4.267-4.267-5.333-7.467c-1.067-3.2-1.067-6.4-1.067-10.667
		c0-10.667,2.133-21.333,6.4-30.933c4.267-9.6,11.733-18.133,21.333-22.4C434.133,296.923,430.933,312.923,429.867,321.456z"/>
	<path style="fill:#F7B64C;" d="M343.467,267.056c0,0,0,1.067,0,3.2s0,5.333,0,9.6c0,7.467,1.067,19.2,1.067,32
		c0,6.4,0,13.867,0,21.333s0,16,0,24.533c0,2.133,0,4.267,0,6.4v2.133v1.067l0,0l0,0l0,0l0,0c0,0,0,0,0,1.067l0,0
		c0,0,0,1.067,1.067,1.067c1.067,2.133,2.133,3.2,3.2,4.267c1.067,1.067,3.2,2.133,5.333,3.2c3.2,2.133,7.467,3.2,11.733,3.2h1.067
		H368h1.067h2.133h2.133h1.067c1.067,0,2.133-1.067,3.2-1.067h1.067h1.067l1.067-1.067l1.067-1.067l1.067-1.067
		c1.067-1.067,3.2-3.2,4.267-4.267c1.067-2.133,2.133-3.2,2.133-5.333c0-1.067,1.067-2.133,1.067-3.2v-2.133l0,0l0,0l0,0l0,0v-1.067
		c0-2.133,0-4.267,1.067-6.4c0-2.133,0-4.267,1.067-6.4c0-4.267,1.067-8.533,1.067-12.8c1.067-17.067,2.133-32,3.2-45.867
		c1.067-6.4,1.067-12.8,2.133-18.133C400,264.923,400,259.59,400,256.39c0-4.267,1.067-7.467,1.067-8.533c0-2.133,0-3.2,0-3.2
		s0,1.067,0,3.2c0,2.133,0,5.333-1.067,8.533c0,7.467-1.067,19.2-1.067,32c0,6.4-1.067,13.867-1.067,21.333s-1.067,16-1.067,24.533
		c0,4.267,0,8.533-1.067,12.8c0,2.133,0,4.267,0,6.4c0,2.133,0,4.267-1.067,6.4v1.067l0,0l0,0l0,0l0,0v1.067
		c0,1.067-1.067,2.133-1.067,3.2c-1.067,2.133-2.133,4.267-3.2,6.4c-2.133,4.267-6.4,7.467-10.667,9.6
		c-1.067,0-2.133,1.067-3.2,1.067H374.4h-2.133h-2.133l0,0l0,0l0,0l0,0h-1.067h-2.133c-1.067,0-1.067,0-2.133,0
		c-4.267,0-9.6-1.067-13.867-3.2c-4.267-2.133-7.467-5.333-10.667-9.6c0,0,0-1.067-1.067-2.133c0-1.067,0-2.133,0-2.133l0,0l0,0l0,0
		l0,0v-1.067v-1.067c0-2.133,0-4.267,0-6.4c0-17.067,0-32,1.067-45.867c0-13.867,0-24.533,1.067-32c0-4.267,0-7.467,0-9.6
		C343.467,268.123,343.467,267.056,343.467,267.056z"/>
	<path style="fill:#F7B64C;" d="M276.267,290.523c1.067,2.133,2.133,4.267,2.133,7.467c1.067,2.133,1.067,5.333,2.133,7.467
		c1.067,5.333,2.133,9.6,2.133,14.933l1.067,7.467c0,1.067,0,2.133,1.067,3.2c0,1.067,0,1.067,0,2.133v2.133
		c1.067,2.133,1.067,4.267,2.133,6.4c1.067,2.133,2.133,4.267,4.267,5.333c1.067,1.067,2.133,1.067,3.2,2.133l1.067,1.067
		l1.067,1.067l2.133,1.067c1.067,0,1.067,0,2.133,1.067l2.133,1.067h2.133h2.133h2.133h2.133l0,0l0,0h1.067c1.067,0,1.067,0,2.133,0
		s1.067,0,2.133,0c1.067,0,1.067,0,2.133,0c1.067,0,1.067,0,2.133,0c2.133,0,4.267-1.067,6.4-3.2c2.133-1.067,3.2-3.2,4.267-5.333
		c1.067-2.133,2.133-4.267,2.133-6.4c1.067-2.133,1.067-4.267,1.067-7.467l0,0l0,0c0-1.067,0-3.2,0-4.267s0-3.2,0-4.267v-4.267
		v-4.267c0-3.2,0-6.4,0-9.6c0-3.2,0-6.4,0-9.6c0-6.4-1.067-11.733-1.067-18.133l-3.2-18.133c1.067,6.4,2.133,11.733,3.2,18.133
		c0,3.2,1.067,6.4,1.067,9.6l1.067,9.6c0,3.2,1.067,6.4,1.067,9.6s0,6.4,1.067,9.6v4.267v4.267c0,1.067,0,3.2,0,4.267
		c0,1.067,0,3.2,0,4.267l0,0c0,3.2,0,5.333-1.067,7.467c-1.067,2.133-1.067,5.333-3.2,7.467c-1.067,2.133-3.2,4.267-5.333,6.4
		c-2.133,2.133-5.333,3.2-7.467,3.2c-1.067,0-1.067,0-2.133,0c-1.067,0-1.067,0-2.133,0c-1.067,0-1.067,0-2.133,0s-1.067,0-2.133,0
		h-1.067l0,0H310.4h-2.133h-2.133H304h-2.133l-2.133-1.067c-1.067,0-1.067,0-2.133-1.067l-2.133-1.067
		c-1.067,0-1.067-1.067-2.133-1.067c-1.067,0-1.067-1.067-2.133-1.067c-1.067-1.067-2.133-1.067-3.2-2.133
		c-2.133-2.133-3.2-4.267-4.267-6.4c-1.067-2.133-2.133-5.333-2.133-7.467v-2.133c0-1.067,0-1.067,0-2.133s0-2.133,0-4.267
		l-1.067-7.467c0-5.333-1.067-9.6-1.067-14.933c0-2.133-1.067-5.333-1.067-7.467C277.333,295.856,277.333,293.723,276.267,290.523z"
		/>
	<path style="fill:#F7B64C;" d="M212.267,276.656c1.067,3.2,2.133,6.4,3.2,9.6c1.067,3.2,2.133,6.4,3.2,9.6l7.467,19.2l3.2,9.6
		l1.067,2.133v1.067l0,0l0,0l0,0l0,0l0,0l0,0v1.067v1.067l0,0l1.067,1.067c0,1.067,1.067,1.067,1.067,2.133
		c1.067,1.067,2.133,2.133,3.2,3.2c1.067,0,1.067,1.067,2.133,1.067c1.067,0,1.067,1.067,2.133,1.067
		c1.067,1.067,3.2,1.067,4.267,2.133c1.067,0,3.2,1.067,4.267,1.067l0,0l0,0l3.2,1.067c1.067,0,2.133,0,3.2,1.067
		c2.133,0,4.267,1.067,6.4,0c2.133,0,4.267-1.067,5.333-2.133s3.2-2.133,4.267-4.267c1.067-2.133,2.133-3.2,2.133-5.333
		s1.067-4.267,1.067-6.4c0-1.067,0-2.133,0-3.2s0-2.133,0-3.2v-6.4L272,286.256l-1.067-12.8c0-4.267,0-8.533-1.067-12.8
		c1.067,4.267,1.067,8.533,2.133,12.8l2.133,12.8c1.067,4.267,1.067,8.533,2.133,12.8l1.067,12.8l1.067,6.4c0,1.067,0,2.133,0,3.2
		c0,1.067,0,2.133,0,3.2c0,2.133,0,4.267-1.067,7.467c0,2.133-1.067,4.267-2.133,6.4c-1.067,2.133-3.2,4.267-5.333,5.333
		s-4.267,2.133-7.467,2.133c-2.133,0-5.333,0-7.467,0c-1.067,0-2.133,0-3.2-1.067l-3.2-1.067l0,0c-2.133,0-3.2-1.067-5.333-1.067
		c-2.133-1.067-3.2-1.067-5.333-2.133c-1.067,0-2.133-1.067-2.133-1.067c-1.067,0-1.067-1.067-2.133-1.067
		c-1.067-1.067-3.2-2.133-4.267-3.2c-1.067-1.067-1.067-1.067-2.133-2.133l-1.067-1.067v-1.067v-1.067v-1.067l0,0l0,0l0,0v-1.067
		l-1.067-2.133l-3.2-9.6c-1.067-3.2-2.133-6.4-3.2-9.6c-1.067-3.2-2.133-6.4-3.2-9.6c-1.067-3.2-2.133-6.4-3.2-9.6
		c0-2.133-1.067-3.2-1.067-5.333C212.267,279.856,212.267,278.789,212.267,276.656z"/>
</g>
<path style="fill:#FFFFFF;" d="M465.067,291.589c0,0,8.533,28.8,2.133,49.067c0,0,11.733,0,13.867-13.867
	C483.2,312.923,476.8,296.923,465.067,291.589z"/>
<path style="fill:#F3F3F3;" d="M204.8,283.056c0,0,7.467,28.8,4.267,44.8c0,0-7.467,81.067,52.267,106.667
	c-49.067,7.467-99.2,4.267-151.467-7.467c0,0,9.6-126.933,43.733-138.667C186.667,275.589,204.8,283.056,204.8,283.056z"/>
<g>
	<path style="fill:#415A6B;" d="M205.867,233.989c-5.333,13.867-4.267,32-2.133,49.067c-41.6,17.067-72.533,148.267-68.267,190.933
		c4.267,42.667,46.933,27.733,48,27.733c-1.067,1.067-21.333,19.2-39.467,6.4c-16-11.733-83.2-112-91.733-135.467
		c-8.533-22.4-22.4-50.133,21.333-112c32-44.8,106.667-46.933,142.933-44.8C212.267,221.189,209.067,226.523,205.867,233.989z"/>
	<path style="fill:#415A6B;" d="M51.2,75.056L40.533,34.523h8.533l6.4,26.667L60.8,34.523h8.533l5.333,26.667l6.4-26.667H89.6
		L78.933,75.056H70.4l-5.333-25.6l-5.333,25.6H51.2z"/>
	<path style="fill:#415A6B;" d="M100.267,75.056L89.6,34.523h8.533l6.4,26.667l5.333-26.667h8.533l5.333,26.667l6.4-26.667h8.533
		L128,75.056h-8.533l-5.333-25.6l-5.333,25.6H100.267z"/>
	<path style="fill:#415A6B;" d="M149.333,75.056l-10.667-40.533h8.533l6.4,26.667l5.333-26.667h8.533l5.333,26.667l6.4-26.667h8.533
		l-10.667,40.533h-8.533l-5.333-25.6l-5.333,25.6H149.333z"/>
</g>
<path style="fill:#8AD7F8;" d="M481.067,0.389H30.933C13.867,0.389,0,14.256,0,31.323v48c0,17.067,13.867,30.933,30.933,30.933
	h451.2c17.067,0,30.933-13.867,30.933-30.933v-48C512,14.256,498.133,0.389,481.067,0.389z M19.2,78.256V31.323
	c0-6.4,5.333-11.733,11.733-11.733h294.4c5.333,0,9.6,4.267,9.6,9.6v50.133c0,5.333-4.267,9.6-9.6,9.6h-294.4
	C24.533,89.989,19.2,84.656,19.2,78.256z M492.8,78.256c0,6.4-5.333,11.733-11.733,11.733H416c-5.333,0-9.6-4.267-9.6-9.6v-51.2
	c0-5.333,4.267-9.6,9.6-9.6h66.133c6.4,0,11.733,5.333,11.733,11.733v46.933H492.8z"/>
<g>
</g>
<g>
</g>
<g>
</g>
<g>
</g>
<g>
</g>
<g>
</g>
<g>
</g>
<g>
</g>
<g>
</g>
<g>
</g>
<g>
</g>
<g>
</g>
<g>
</g>
<g>
</g>
<g>
</g>
</svg>
