<?xml version="1.0" encoding="iso-8859-1"?>
<!-- Generator: Adobe Illustrator 19.0.0, SVG Export Plug-In . SVG Version: 6.00 Build 0)  -->
<svg version="1.1" id="Capa_1" xmlns="http://www.w3.org/2000/svg" xmlns:xlink="http://www.w3.org/1999/xlink" x="0px" y="0px"
	 viewBox="0 0 512.59 512.59" style="enable-background:new 0 0 512.59 512.59;" xml:space="preserve">
<path style="fill:#F7B64C;" d="M334.695,110.456v28.8c0,0-6.4,29.867,3.2,49.067c34.133-6.4,71.467-11.733,60.8-49.067v-28.8
	H334.695z"/>
<polyline style="fill:#4ABAA5;" points="366.695,179.79 432.828,179.79 391.228,318.456 319.761,318.456 317.628,170.19 
	353.895,179.79 366.695,179.79 "/>
<polygon style="fill:#415A6B;" points="391.228,320.59 376.295,207.523 357.095,207.523 341.095,320.59 "/>
<polygon style="fill:#344A5E;" points="376.295,207.523 384.828,197.923 366.695,179.79 347.495,197.923 357.095,207.523 "/>
<path style="fill:#66C6B9;" d="M334.695,139.256c0,0-3.2,8.533,0,14.933c3.2,5.333,32,26.667,32,26.667l-27.733,27.733
	l-17.067-37.333l5.333-20.267c1.067-3.2,2.133-6.4,4.267-8.533C331.495,141.39,332.561,140.323,334.695,139.256z"/>
<path style="fill:#CED6E0;" d="M344.295,320.59l-25.6-117.333l-2.133-38.4l-61.867,23.467c-16,6.4-26.667,20.267-27.733,37.333
	l-5.333,94.933H344.295z"/>
<path style="fill:#F3F3F3;" d="M332.561,320.59h17.067c-4.267-24.533-14.933-92.8-20.267-110.933c-5.333-22.4-3.2-59.733-3.2-59.733
	c-3.2,1.067-7.467,9.6-7.467,9.6c-5.333,6.4-8.533,12.8-11.733,20.267c-4.267,9.6-9.6,22.4-9.6,22.4l14.933-1.067l-19.2,17.067
	L332.561,320.59z"/>
<path style="fill:#66C6B9;" d="M398.695,139.256c0,0,3.2,8.533,0,14.933c-3.2,6.4-32,26.667-32,26.667l27.733,27.733l18.133-36.267
	l-6.4-21.333c-1.067-3.2-2.133-6.4-4.267-8.533C400.828,141.39,399.762,140.323,398.695,139.256z"/>
<path style="fill:#CED6E0;" d="M510.695,320.59l-6.4-93.867c-1.067-17.067-11.733-30.933-27.733-37.333l-61.867-23.467
	l-1.067,37.333l-25.6,117.333H510.695z"/>
<path style="fill:#F3F3F3;" d="M381.628,320.59h17.067l39.467-102.4l-19.2-17.067l14.933,1.067c0,0-5.333-12.8-9.6-22.4
	c-3.2-7.467-7.467-13.867-11.733-20.267c0,0-4.267-8.533-7.467-9.6c0,0,2.133,37.333-3.2,59.733
	C397.628,227.79,385.895,294.99,381.628,320.59z"/>
<path style="fill:#FFD15C;" d="M413.628,82.723c-3.2-11.733-2.133-23.467-10.667-33.067c-7.467-8.533-18.133-14.933-29.867-14.933
	c-12.8,0-23.467,1.067-35.2,8.533c-11.733,7.467-12.8,19.2-14.933,32c0,2.133,0,3.2,0,5.333c-1.067,5.333-2.133,10.667-2.133,17.067
	c0,34.133,20.267,61.867,44.8,61.867s44.8-27.733,44.8-61.867c0-1.067,0-2.133,0-3.2C413.628,90.19,414.695,86.99,413.628,82.723z"
	/>
<path style="fill:#415A6B;" d="M416.828,78.456c0,0-3.2,3.2-4.267,7.467v1.067h-2.133c0-8.533-1.067-19.2-2.133-21.333
	c-3.2-1.067-4.267-3.2-3.2-11.733c1.067-8.533-10.667-16-21.333-13.867c-10.667,2.133-21.333,2.133-32,0
	c-10.667-2.133-22.4,6.4-21.333,14.933s0,9.6-2.133,11.733c-1.067,2.133-2.133,12.8-2.133,21.333h-2.133V86.99
	c-2.133-4.267-4.267-7.467-4.267-7.467s-3.2-25.6-1.067-40.533c2.133-14.933,5.333-20.267,12.8-26.667
	c3.2-3.2,10.667-6.4,18.133-8.533c13.867-5.333,35.2-3.2,46.933,3.2c3.2,1.067,5.333,3.2,7.467,5.333
	c7.467,6.4,11.733,12.8,12.8,26.667C418.961,53.923,416.828,78.456,416.828,78.456z"/>
<g>
	
		<ellipse transform="matrix(0.1366 0.9906 -0.9906 0.1366 374.1999 -236.1643)" style="fill:#FFD15C;" cx="322.583" cy="96.589" rx="17.066" ry="7.466"/>
	
		<ellipse transform="matrix(0.1366 -0.9906 0.9906 0.1366 262.3465 494.195)" style="fill:#FFD15C;" cx="414.683" cy="96.595" rx="17.066" ry="7.466"/>
</g>
<path style="fill:#415A6B;" d="M82.961,68.856c0,0,8.533,34.133,16,46.933l11.733-11.733L82.961,68.856z"/>
<path style="fill:#FFD15C;" d="M86.161,47.523l1.067,24.533c0,0,3.2,29.867,14.933,52.267v8.533l-22.4,44.8l43.733,25.6l52.267-9.6
	l-9.6-50.133l-4.267-12.8v-3.2c0,0,18.133-26.667,14.933-57.6s-3.2-30.933-3.2-30.933l-44.8-19.2
	C129.895,19.79,92.561,13.39,86.161,47.523z"/>
<path style="fill:#E8EAE9;" d="M175.761,320.59l-5.333-166.4h-2.133c-6.4,13.867-20.267,23.467-36.267,23.467
	s-29.867-9.6-36.267-23.467h-2.133l-4.267,166.4H175.761z"/>
<path style="fill:#415A6B;" d="M98.961,116.856c0,0-9.6-21.333-9.6-30.933s-2.133-17.067,3.2-22.4
	c4.267-6.4,2.133-11.733,2.133-18.133s9.6-13.867,17.067-13.867s22.4,2.133,32,12.8s20.267,29.867,22.4,37.333
	c2.133,7.467,8.533,30.933-3.2,55.467c0,0,9.6-13.867,8.533-32c0,0,3.2,9.6-4.267,37.333c0,0,4.267-8.533,7.467-27.733
	c2.133-17.067,0-35.2-7.467-51.2c-1.067-3.2-3.2-6.4-5.333-9.6c0,0,16,19.2,16,51.2c0,0,16-30.933,12.8-56.533
	c-1.067-16-14.933-34.133-29.867-41.6s-33.067-9.6-49.067-3.2s-29.867,16-34.133,25.6s-3.2,30.933,0,43.733
	S88.295,106.19,98.961,116.856z"/>
<path style="fill:#F7B64C;" d="M103.228,124.323v8.533l-7.467,26.667c53.333-3.2,66.133-32,66.133-32
	C135.228,157.39,103.228,124.323,103.228,124.323z"/>
<path style="fill:#F3705A;" d="M262.161,320.59c-3.2-37.333-7.467-91.733-8.533-112c-1.067-34.133-8.533-36.267-8.533-36.267
	l-22.4,16l-11.733,29.867v102.4H262.161z"/>
<path style="fill:#F05540;" d="M217.361,320.59c0-21.333,1.067-48,2.133-71.467c2.133-48,25.6-76.8,25.6-76.8l-65.067-22.4l-4.267,0
	c-8.533,23.467-19.2,117.333-24.533,170.667H217.361z"/>
<g>
	<path style="fill:#F3705A;" d="M154.428,320.59c7.467-36.267,17.067-86.4,23.467-102.4c9.6-24.533,9.6-24.533,9.6-24.533l-9.6-16
		l18.133,3.2c0,0-5.333-23.467-14.933-32c-8.533-8.533-13.867-17.067-18.133-18.133c0,0,1.067,32-8.533,76.8
		c-6.4,26.667-7.467,77.867-7.467,113.067H154.428z"/>
	<path style="fill:#F3705A;" d="M54.161,320.59V217.123l-11.733-29.867l-23.467-16c0,0-7.467,2.133-8.533,36.267
		c-1.067,21.333-5.333,75.733-8.533,112h52.267V320.59z"/>
</g>
<path style="fill:#F05540;" d="M46.695,320.59h67.2c-5.333-53.333-16-146.133-24.533-170.667l-5.333-1.067l-65.067,22.4
	c0,0,23.467,29.867,25.6,76.8C45.628,271.523,46.695,299.256,46.695,320.59z"/>
<path style="fill:#F3705A;" d="M77.628,193.656c0,0,0,0,9.6,24.533c6.4,14.933,16,66.133,23.467,102.4h7.467
	c0-35.2-1.067-85.333-7.467-113.067c-9.6-43.733-8.533-76.8-8.533-76.8c-5.333,1.067-9.6,9.6-18.133,18.133
	c-8.533,8.533-14.933,32-14.933,32l18.133-3.2L77.628,193.656z"/>
<polygon style="fill:#FFD15C;" points="299.495,329.123 333.628,434.723 182.161,434.723 197.095,339.79 "/>
<path style="fill:#E8EAE9;" d="M304.828,512.59V341.923c-9.6,19.2-28.8,33.067-51.2,33.067s-41.6-12.8-51.2-33.067V512.59H304.828z"
	/>
<g>
	<path style="fill:#FFD15C;" d="M303.761,224.59c0,0-1.067,42.667-8.533,60.8c0,0-3.2,7.467,1.067,18.133
		c4.267,11.733,8.533,28.8,23.467,45.867H212.028l-5.333-20.267c-1.067,0,1.067-12.8,7.467-25.6c1.067-2.133,0-4.267,0-7.467
		c0,0-13.867-27.733-14.933-45.867c0-17.067-2.133-28.8-2.133-28.8s-9.6-71.467,51.2-57.6
		C309.095,177.656,309.095,171.256,303.761,224.59z"/>
	
		<ellipse transform="matrix(0.2383 -0.9712 0.9712 0.2383 -3.1162 477.1182)" style="fill:#FFD15C;" cx="302.612" cy="240.546" rx="18.133" ry="8.533"/>
	<path style="fill:#FFD15C;" d="M190.695,242.723c2.133,9.6,7.467,17.067,12.8,14.933c4.267-1.067,6.4-10.667,4.267-20.267
		c-2.133-9.6-7.467-17.067-12.8-14.933C190.695,223.523,188.561,233.123,190.695,242.723z"/>
</g>
<path style="fill:#415A6B;" d="M207.761,198.99c0,0-3.2-8.533-1.067-17.067c2.133-8.533,5.333-10.667,10.667-7.467
	c5.333,3.2,37.333,6.4,51.2,2.133s26.667-1.067,25.6,8.533c-1.067,10.667-4.267,18.133-1.067,24.533
	c4.267,5.333,9.6,33.067,8.533,38.4c0,0,2.133-1.067,2.133-5.333c0-3.2,0-14.933,3.2-25.6c3.2-10.667,7.467-42.667-4.267-61.867
	c-12.8-19.2-41.6-26.667-62.933-26.667s-37.333,20.267-45.867,34.133c-5.333,8.533-3.2,16-3.2,27.733
	c0,10.667,1.067,22.4,3.2,33.067c1.067,8.533,2.133,19.2,2.133,19.2h2.133c0,0-3.2-18.133,3.2-26.667s6.4-9.6,6.4-18.133"/>
<path style="fill:#F7B64C;" d="M295.228,286.456L295.228,286.456c0-1.067-14.933,25.6-23.467,33.067
	c-8.533,6.4-25.6,7.467-33.067,3.2c-11.733-5.333-23.467-26.667-23.467-26.667c1.067,11.733-8.533,18.133-8.533,18.133l5.333,34.133
	h19.2c11.733,0,24.533-3.2,34.133-10.667c2.133-1.067,3.2-3.2,5.333-4.267C290.961,314.19,294.161,291.79,295.228,286.456z"/>
<path style="fill:#415A6B;" d="M434.961,512.59c1.067-22.4-9.6-82.133-14.933-118.4c-6.4-38.4-21.333-38.4-21.333-38.4h-25.6
	c-25.6,6.4-27.733,89.6-25.6,156.8L434.961,512.59L434.961,512.59z"/>
<path style="fill:#344A5E;" d="M372.028,512.59c-2.133-26.667-3.2-49.067-3.2-60.8c1.067-46.933,28.8-96,28.8-96
	c-12.8-14.933-72.533-32-72.533-32c-20.267,36.267-36.267,108.8-51.2,188.8H372.028z"/>
<g>
	<path style="fill:#415A6B;" d="M264.295,512.59h13.867c6.4-22.4,12.8-45.867,18.133-59.733c11.733-32,44.8-94.933,44.8-94.933
		l-19.2-12.8h14.933c0,0-3.2-12.8-12.8-25.6c-9.6-11.733-27.733-17.067-27.733-17.067s10.667,28.8-6.4,71.467
		C279.228,400.59,268.561,461.39,264.295,512.59z"/>
	<path style="fill:#415A6B;" d="M164.028,512.59c2.133-67.2-1.067-150.4-25.6-156.8h-25.6c0,0-14.933,1.067-21.333,38.4
		c-6.4,36.267-17.067,96-16,118.4H164.028z"/>
</g>
<path style="fill:#344A5E;" d="M138.428,512.59h98.133c-16-80-32-152.533-51.2-188.8c0,0-60.8,17.067-72.533,32
	c0,0,27.733,49.067,28.8,96C141.628,463.523,140.561,485.923,138.428,512.59z"/>
<path style="fill:#415A6B;" d="M215.228,452.856c5.333,13.867,11.733,37.333,18.133,59.733h12.8c-4.267-51.2-16-112-25.6-137.6
	c-17.067-42.667-6.4-71.467-6.4-71.467s-18.133,5.333-27.733,17.067c-9.6,11.733-12.8,25.6-12.8,25.6h14.933l-19.2,12.8
	C169.361,357.923,202.428,420.856,215.228,452.856z"/>
<g>
</g>
<g>
</g>
<g>
</g>
<g>
</g>
<g>
</g>
<g>
</g>
<g>
</g>
<g>
</g>
<g>
</g>
<g>
</g>
<g>
</g>
<g>
</g>
<g>
</g>
<g>
</g>
<g>
</g>
</svg>
