<?xml version="1.0" encoding="iso-8859-1"?>
<!-- Generator: Adobe Illustrator 19.0.0, SVG Export Plug-In . SVG Version: 6.00 Build 0)  -->
<svg version="1.1" id="Capa_1" xmlns="http://www.w3.org/2000/svg" xmlns:xlink="http://www.w3.org/1999/xlink" x="0px" y="0px"
	 viewBox="0 0 512.282 512.282" style="enable-background:new 0 0 512.282 512.282;" xml:space="preserve">
<path style="fill:#CED6E0;" d="M140.941,355.2c2.133,0,3.2,2.133,3.2,3.2s0,3.2-1.067,5.333c-3.2,4.267-5.333,9.6-7.467,13.867h224
	c5.333-5.333,9.6-11.733,9.6-20.267c0-2.133,0-4.267-1.067-6.4c0-1.067,0-3.2,1.067-4.267c1.067-1.067,2.133-2.133,4.267-2.133
	c12.8-1.067,21.333-11.733,21.333-23.467c0-12.8-10.667-23.467-23.467-23.467c-7.467,0-14.933,4.267-19.2,10.667
	c-1.067,1.067-2.133,2.133-4.267,2.133l0,0c-2.133,0-3.2-1.067-4.267-2.133c-5.333-8.533-16-13.867-25.6-13.867
	c-8.533,0-16,3.2-21.333,8.533c-1.067,1.067-2.133,1.067-3.2,1.067h-1.067c-4.267-1.067-8.533-2.133-12.8-2.133
	c-1.067,0-1.067,0-2.133,0l0,0c-2.133,0-5.333-2.133-5.333-4.267l-10.667-101.333h-10.667l-10.667,102.4
	c0,2.133-1.067,3.2-3.2,4.267c-1.067,0-1.067,0-2.133,0s-2.133,0-3.2-1.067c-8.533-8.533-20.267-12.8-32-12.8
	c-8.533,0-17.067,2.133-23.467,6.4c-1.067,0-2.133,1.067-3.2,1.067c-1.067,0-2.133,0-3.2-1.067c-5.333-4.267-12.8-6.4-20.267-6.4
	c-18.133,0-34.133,14.933-34.133,34.133C115.341,338.133,126.008,352,140.941,355.2z"/>
<path style="fill:#ADB3BA;" d="M139.874,360.533c-4.267,5.333-7.467,10.667-8.533,18.133h10.667c1.067-4.267,3.2-7.467,5.333-10.667
	c2.133-3.2,3.2-6.4,2.133-9.6c-1.067-3.2-4.267-6.4-7.467-6.4c-12.8-3.2-22.4-14.933-22.4-27.733c0-16,12.8-28.8,28.8-28.8
	c6.4,0,11.733,2.133,17.067,5.333c2.133,1.067,4.267,2.133,6.4,2.133c2.133,0,4.267,0,5.333-1.067c6.4-4.267,13.867-6.4,21.333-6.4
	c10.667,0,21.333,4.267,28.8,11.733c2.133,2.133,4.267,3.2,7.467,3.2c1.067,0,2.133,0,3.2-1.067c4.267-1.067,6.4-4.267,6.4-8.533
	l10.667-98.133h2.133l9.6,96c1.067,5.333,5.333,9.6,10.667,9.6c0,0,0,0,1.067,0h1.067c4.267,0,7.467,1.067,10.667,2.133
	c1.067,0,2.133,0,3.2,0c2.133,0,5.333-1.067,7.467-3.2c5.333-4.267,10.667-7.467,18.133-7.467c8.533,0,17.067,4.267,21.333,11.733
	c2.133,3.2,5.333,4.267,8.533,4.267l0,0c3.2,0,6.4-2.133,8.533-4.267c3.2-5.333,9.6-7.467,14.933-7.467
	c10.667,0,19.2,8.533,19.2,19.2c0,9.6-7.467,18.133-17.067,18.133c-3.2,0-5.333,2.133-7.467,4.267
	c-2.133,2.133-2.133,5.333-2.133,8.533c0,1.067,1.067,3.2,1.067,5.333c0,9.6-6.4,17.067-14.933,20.267h18.133
	c4.267-5.333,7.467-12.8,7.467-20.267c0-2.133,0-5.333-1.067-7.467c14.933-1.067,26.667-13.867,26.667-28.8
	c0-16-12.8-28.8-28.8-28.8c-9.6,0-18.133,5.333-23.467,12.8c-6.4-9.6-18.133-16-30.933-16c-9.6,0-18.133,4.267-24.533,9.6
	c-4.267-1.067-9.6-2.133-13.867-2.133c-1.067,0-1.067,0-2.133,0l-10.667-105.6h-22.4l-10.667,105.6
	c-9.6-9.6-22.4-14.933-36.267-14.933c-9.6,0-19.2,3.2-26.667,7.467c-6.4-4.267-13.867-7.467-23.467-7.467
	c-21.333,0-39.467,17.067-39.467,39.467C110.008,341.333,122.808,356.267,139.874,360.533z"/>
<g>
	<path style="fill:#344A5E;" d="M74.808,433.067l50.133,50.133c22.4,8.533,39.467-115.2,35.2-128
		c-2.133-5.333-5.333-7.467-8.533-7.467C148.408,347.733,74.808,433.067,74.808,433.067z"/>
	<path style="fill:#344A5E;" d="M438.541,430.933l-53.333,46.933c-22.4,6.4-32-117.333-26.667-129.067
		c2.133-5.333,6.4-7.467,8.533-7.467S438.541,430.933,438.541,430.933z"/>
</g>
<path style="fill:#F7B64C;" d="M344.674,419.2l2.133,18.133c0,0,4.267,10.667,0,17.067c-4.267,6.4-9.6,7.467-21.333,2.133
	c0,0,5.333,12.8,0,19.2c-5.333,7.467-16,4.267-19.2,2.133c0,0,4.267,7.467-2.133,14.933s-17.067,3.2-17.067,3.2s0,7.467-3.2,10.667
	c-3.2,2.133-9.6,4.267-22.4-3.2l-13.867,2.133l-21.333-22.4l-16,7.467l-7.467-8.533l-29.867-17.067l-12.8-11.733
	c0,0-7.467-6.4-12.8-9.6s-61.867-20.267-61.867-20.267l53.333-60.8c0,0,35.2,10.667,39.467,11.733
	c4.267,1.067,14.933-4.267,22.4-8.533c5.333-2.133,25.6-12.8,34.133-17.067c2.133-1.067,5.333-2.133,7.467-1.067l37.333,2.133
	c4.267,0,9.6,3.2,11.733,6.4l12.8,20.267L344.674,419.2z"/>
<g>
	<path style="fill:#FFD15C;" d="M208.141,400c0,0,14.933,14.933,30.933-17.067c0,0,8.533-3.2,10.667-4.267c0,0,3.2,0,9.6,4.267
		c6.4,3.2,25.6,16,35.2,20.267c9.6,5.333,25.6,14.933,33.067,18.133c7.467,3.2,19.2,14.933,19.2,14.933s4.267-2.133,6.4-4.267
		c0,0,16-3.2,33.067-3.2s18.133-1.067,18.133-1.067L355.341,355.2c0,0-25.6,5.333-32,7.467c-6.4,2.133-10.667,4.267-21.333,0
		c-8.533-4.267-30.933-11.733-40.533-14.933c-3.2-1.067-5.333-1.067-8.533,0l-26.667,7.467c-5.333,1.067-9.6,5.333-10.667,10.667
		c-2.133,7.467-4.267,17.067-4.267,18.133l-3.2,13.867"/>
	<path style="fill:#FFD15C;" d="M161.208,453.333c0,0,5.333-2.133,10.667,3.2c5.333,5.333,5.333,8.533,7.467,9.6
		c2.133,1.067,4.267,1.067,6.4,1.067c2.133,0,9.6-13.867,18.133-11.733c8.533,2.133,11.733,7.467,11.733,11.733s-7.467,16-7.467,16
		s5.333-4.267,7.467-7.467c2.133-3.2,14.933-18.133,23.467-12.8c8.533,5.333,5.333,16,5.333,16s8.533-3.2,12.8,3.2
		c4.267,6.4,3.2,9.6,2.133,13.867c-2.133,3.2-3.2,5.333-3.2,5.333l5.333,2.133c0,0-6.4,10.667-17.067,8.533
		c-10.667-2.133-13.867-9.6-12.8-16c0,0-10.667,11.733-18.133,5.333c-8.533-6.4-8.533-10.667-7.467-14.933
		c0,0-7.467,6.4-17.067,2.133c-8.533-4.267-9.6-12.8-8.533-18.133c0,0-6.4,5.333-11.733,3.2
		C164.408,471.467,153.741,465.067,161.208,453.333z"/>
</g>
<path style="fill:#F3F3F3;" d="M342.541,357.333c0,0,27.733,38.4,21.333,81.067l99.2,4.267l-22.4-105.6L342.541,357.333z"/>
<path style="fill:#415A6B;" d="M358.541,348.8c0,0,4.267-8.533,6.4-4.267c4.267,6.4,35.2,123.733,20.267,133.333L512.141,448
	l-33.067-129.067L364.941,339.2C364.941,339.2,357.474,340.267,358.541,348.8z"/>
<path style="fill:#F3F3F3;" d="M171.874,366.933c0,0-29.867,36.267-26.667,80l-99.2-2.133l28.8-103.467L171.874,366.933z"/>
<path style="fill:#415A6B;" d="M160.141,356.267c0,0-3.2-8.533-6.4-4.267c-4.267,6.4-43.733,121.6-28.8,132.267l-124.8-38.4
	l40.533-126.933l113.067,27.733C153.741,346.667,161.208,347.733,160.141,356.267z"/>
<path style="fill:#F05540;" d="M289.208,194.133V80c0-29.867-11.733-58.667-33.067-80c-21.333,21.333-33.067,50.133-33.067,80
	v114.133H289.208z"/>
<path style="fill:#CED6E0;" d="M307.341,102.4L307.341,102.4c9.6,9.6,14.933,22.4,14.933,35.2V240h-29.867V138.667
	C292.408,124.8,297.741,112,307.341,102.4L307.341,102.4z"/>
<polygon style="fill:#415A6B;" points="288.141,252.8 292.408,241.067 322.274,241.067 325.474,252.8 "/>
<path style="fill:#CED6E0;" d="M204.941,102.4L204.941,102.4c9.6,9.6,14.933,22.4,14.933,35.2V240h-29.867V138.667
	C190.008,124.8,195.341,112,204.941,102.4L204.941,102.4z"/>
<polygon style="fill:#415A6B;" points="186.808,252.8 190.008,241.067 219.874,241.067 224.141,252.8 "/>
<path style="fill:#E8EAE9;" d="M256.141,78.933L256.141,78.933c10.667,10.667,17.067,25.6,17.067,40.533v2.133
	c2.133,72.533,28.8,62.933,42.667,71.467s10.667,29.867,10.667,29.867h-140.8c0,0-3.2-20.267,10.667-29.867
	c13.867-8.533,40.533,0,42.667-71.467v-2.133C239.074,104.533,245.474,89.6,256.141,78.933L256.141,78.933z"/>
<path style="fill:#415A6B;" d="M273.208,134.4c0-4.267-1.067-8.533-1.067-12.8v-2.133c0-14.933-6.4-29.867-17.067-40.533
	c-10.667,10.667-17.067,25.6-17.067,40.533v2.133c0,4.267,0,8.533-1.067,12.8H273.208z"/>
<g>
	<circle style="fill:#344A5E;" cx="422.541" cy="438.4" r="12.8"/>
	<circle style="fill:#344A5E;" cx="92.941" cy="438.4" r="12.8"/>
</g>
<g>
</g>
<g>
</g>
<g>
</g>
<g>
</g>
<g>
</g>
<g>
</g>
<g>
</g>
<g>
</g>
<g>
</g>
<g>
</g>
<g>
</g>
<g>
</g>
<g>
</g>
<g>
</g>
<g>
</g>
</svg>
