<?xml version="1.0" encoding="iso-8859-1"?>
<!-- Generator: Adobe Illustrator 19.0.0, SVG Export Plug-In . SVG Version: 6.00 Build 0)  -->
<svg version="1.1" id="Capa_1" xmlns="http://www.w3.org/2000/svg" xmlns:xlink="http://www.w3.org/1999/xlink" x="0px" y="0px"
	 viewBox="0 0 512.293 512.293" style="enable-background:new 0 0 512.293 512.293;" xml:space="preserve">
<path style="fill:#344A5E;" d="M20.56,333.881c-6.4,45.867-9.6,90.667-7.467,136.533h181.333l-81.067-108.8l-25.6-55.467"/>
<polygon style="fill:#CED6E0;" points="156.026,211.214 159.226,211.214 194.426,218.681 137.893,372.281 99.493,370.148 
	113.36,211.214 "/>
<g>
	<path style="fill:#344A5E;" d="M97.36,160.014c0,0-20.267,6.4-27.733,6.4c-7.467,0-26.667-3.2-34.133-3.2l18.133,50.133
		l3.2,152.533l3.2,16l58.667-1.067v-137.6L97.36,160.014z"/>
	<path style="fill:#344A5E;" d="M192.293,189.881c0,0,23.467,4.267,25.6,14.933c2.133,11.733-13.867,83.2-21.333,100.267
		s-40.533,116.267-40.533,116.267l-19.2-7.467l3.2-30.933l41.6-177.067L192.293,189.881z"/>
</g>
<path style="fill:#415A6B;" d="M177.36,187.748l13.867,12.8l-7.467,5.333l11.733,6.4c5.333,52.267-44.8,117.333-55.467,169.6
	c0,0,8.533-52.267,16-78.933c7.467-26.667,22.4-105.6,19.2-115.2L177.36,187.748L177.36,187.748z"/>
<path style="fill:#FFD15C;" d="M226.426,125.881c0,4.267-6.4,9.6-6.4,9.6s2.133,17.067-4.267,28.8
	c-6.4,11.733-10.667,17.067-12.8,24.533c-2.133,7.467-6.4,12.8-26.667,6.4l-5.333,19.2l-11.733-2.133h-3.2h-34.133l2.133-61.867
	c0,0-3.2-68.267,13.867-74.667c17.067-6.4,87.467,9.6,87.467,9.6v10.667C224.293,93.881,227.493,121.614,226.426,125.881z"/>
<g>
	<path style="fill:#F3705A;" d="M145.36,212.281c1.067,0,4.267,9.6,6.4,26.667c4.267-2.133,9.6-2.133,13.867,0l7.467-22.4
		l-12.8-5.333h-3.2L145.36,212.281z"/>
	<path style="fill:#F3705A;" d="M162.426,232.548l2.133,6.4c0,0,6.4,21.333,4.267,40.533s-30.933,112-30.933,112l-28.8-16
		c0,0,27.733-40.533,34.133-73.6c6.4-33.067,7.467-57.6,8.533-61.867c1.067-4.267,3.2-6.4,3.2-6.4h7.467V232.548z"/>
</g>
<path style="fill:#415A6B;" d="M147.493,131.214l6.4,1.067c0,0,4.267-14.933,4.267-20.267c1.067-5.333,13.867-3.2,17.067-8.533
	c3.2-5.333,0-14.933,8.533-16s37.333-2.133,40.533,6.4c0,0,4.267,2.133,4.267-8.533s-17.067-23.467-29.867-32
	c-12.8-8.533-45.867-19.2-59.733-3.2s-19.2,50.133-17.067,73.6s2.133,24.533,2.133,24.533s3.2-24.533,8.533-34.133
	C137.893,105.614,147.493,114.148,147.493,131.214z"/>
<path style="fill:#FFD15C;" d="M142.16,120.548c1.067,9.6-2.133,17.067-7.467,17.067c-5.333,0-10.667-7.467-11.733-17.067
	s2.133-17.067,7.467-17.067C135.76,103.481,142.16,110.948,142.16,120.548z"/>
<path style="fill:#F7B64C;" d="M141.093,151.481c0,0,1.067,30.933,30.933,59.733l4.267-16
	C176.293,195.214,151.76,183.481,141.093,151.481z"/>
<g>
	<path style="fill:#E8EAE9;" d="M124.026,151.481c0,0,2.133,27.733,32,59.733l-39.467,14.933l-6.4-65.067
		C109.093,161.081,116.56,149.348,124.026,151.481z"/>
	<path style="fill:#E8EAE9;" d="M179.493,196.281l-3.2-1.067c0,0-4.267,10.667-16,16c0,0,11.733,5.333,11.733,10.667
		L179.493,196.281z"/>
</g>
<g>
	<path style="fill:#415A6B;" d="M170.96,232.548c-4.267,25.6-10.667,55.467-14.933,70.4c-7.467,26.667-16,78.933-16,78.933
		c9.6-45.867,49.067-101.333,55.467-149.333H170.96z"/>
	<path style="fill:#415A6B;" d="M253.093,357.348c-7.467,10.667-71.467,26.667-71.467,26.667s-1.067-10.667-6.4-20.267
		c-4.267-7.467-12.8-16-26.667-17.067c0,0,18.133-7.467,25.6-7.467c3.2,0,6.4-1.067,10.667-3.2
		c5.333-2.133,10.667-5.333,10.667-5.333l-3.2-13.867c2.133-5.333,3.2-8.533,4.267-10.667
		c7.467-17.067,23.467-88.533,21.333-100.267v-1.067c2.133,4.267,5.333,10.667,6.4,18.133c2.133,11.733,4.267,18.133,5.333,22.4
		c1.067,4.267,5.333,29.867,8.533,35.2C240.293,284.814,260.56,347.748,253.093,357.348z"/>
	<path style="fill:#415A6B;" d="M120.826,151.481c0,0-3.2,8.533,0,29.867s7.467,62.933,7.467,93.867s-10.667,105.6-10.667,105.6
		s-1.067-65.067-6.4-97.067s-21.333-80-21.333-80l12.8-5.333l-12.8-10.667c0,0-1.067-21.333,6.4-25.6
		C104.826,154.681,120.826,151.481,120.826,151.481z"/>
</g>
<polygon style="fill:#F3705A;" points="512.293,458.681 512.293,363.748 287.226,347.748 37.626,438.414 37.626,458.681 "/>
<path style="fill:#CED6E0;" d="M140.026,410.681c0,0,12.8,6.4,24.533,2.133c11.733-4.267,11.733-51.2,10.667-55.467
	c0,0-22.4,3.2-24.533,5.333C148.56,364.814,140.026,410.681,140.026,410.681z"/>
<path style="fill:#E8EAE9;" d="M295.76,325.348l-6.4,61.867c0,2.133-2.133,4.267-4.267,4.267h-29.867
	c-2.133,0-4.267-2.133-4.267-4.267l-6.4-61.867H295.76z"/>
<g>
	<path style="fill:#66C6B9;" d="M293.626,369.081l3.2-28.8c0-2.133-1.067-3.2-3.2-3.2h-48c-2.133,0-3.2,1.067-3.2,3.2l3.2,28.8
		c0,1.067,1.067,2.133,3.2,2.133h42.667C292.56,371.214,293.626,370.148,293.626,369.081z"/>
	<path style="fill:#66C6B9;" d="M298.96,317.881h-57.6c-2.133,0-3.2,1.067-3.2,3.2v1.067c0,2.133,1.067,3.2,3.2,3.2h57.6
		c2.133,0,3.2-1.067,3.2-3.2v-1.067C302.16,318.948,300.026,317.881,298.96,317.881z"/>
</g>
<polygon style="fill:#E8EAE9;" points="245.626,307.214 293.626,307.214 297.893,317.881 241.36,317.881 "/>
<path style="fill:#CED6E0;" d="M358.693,380.814l-12.8,42.667l-102.4-22.4c-1.067,0-2.133,0-2.133,0L358.693,380.814z"/>
<g>
	<polygon style="fill:#ADB3BA;" points="354.426,393.614 346.96,416.014 294.693,404.281 	"/>
	<path style="fill:#ADB3BA;" d="M346.96,423.481l-3.2,6.4h-1.067v1.067l-105.6-26.667l0,0l0,0c1.067-2.133,3.2-4.267,5.333-3.2
		L346.96,423.481z"/>
</g>
<rect x="37.626" y="438.414" style="fill:#F05540;" width="474.667" height="32"/>
<path style="fill:#E8EAE9;" d="M509.093,286.948l-35.2,110.933l-121.6,32c-1.067,0-3.2,1.067-4.267,1.067s-3.2,0-4.267-1.067v-2.133
	l39.467-137.6c2.133-8.533,10.667-13.867,19.2-13.867l100.267-1.067C506.96,276.281,511.226,281.614,509.093,286.948z"/>
<path style="fill:#FFD15C;" d="M168.826,359.481l6.4-2.133c0,0,12.8,2.133,13.867,1.067c1.067-1.067,9.6-4.267,12.8-6.4
	s25.6-14.933,29.867-13.867s20.267,11.733,20.267,11.733s19.2,3.2,22.4,8.533c3.2,6.4,5.333,12.8,1.067,18.133
	c0,0,8.533,5.333,5.333,12.8c-3.2,7.467-13.867,2.133-13.867,2.133s0,16-6.4,17.067c-6.4,1.067-9.6-1.067-9.6-1.067
	s0,5.333-9.6,7.467c-8.533,2.133-21.333,1.067-34.133,1.067c-12.8,0-66.133-10.667-66.133-10.667S146.426,365.881,168.826,359.481z"
	/>
<g>
	<path style="fill:#F7B64C;" d="M275.493,375.481L275.493,375.481c-8.533-4.267-26.667-6.4-29.867-7.467
		c-3.2-1.067-6.4-5.333-3.2-3.2c3.2,1.067,16,3.2,23.467,5.333C274.426,371.214,275.493,375.481,275.493,375.481z"/>
	<path style="fill:#F7B64C;" d="M265.893,391.481c0,0,0,2.133,0,5.333c-1.067,0-1.067,0-2.133,0c-3.2-1.067-22.4-7.467-23.467-8.533
		c-1.067-2.133,3.2-1.067,6.4,0C249.893,388.281,265.893,391.481,265.893,391.481z"/>
	<path style="fill:#F7B64C;" d="M248.826,406.414c0,0,0,1.067-1.067,2.133c-2.133-1.067-6.4-2.133-9.6-3.2
		c-4.267-1.067-2.133-2.133,1.067-2.133C243.493,404.281,248.826,406.414,248.826,406.414z"/>
</g>
<path style="fill:#E8EAE9;" d="M141.093,356.281l12.8-1.067l21.333,2.133c0,0-12.8,6.4-20.267,20.267
	c-8.533,13.867-10.667,34.133-3.2,35.2c7.467,1.067,12.8,0,12.8,0s-9.6,5.333-14.933,4.267c-5.333-1.067-23.467-2.133-23.467-2.133
	l-12.8-28.8L141.093,356.281z"/>
<path style="fill:#415A6B;" d="M34.426,163.214c0,0,17.067,7.467,23.467,44.8s1.067,51.2,2.133,66.133
	c1.067,14.933,7.467,39.467,6.4,46.933c-1.067,7.467,2.133,17.067,2.133,17.067s29.867,11.733,40.533,12.8
	c9.6,1.067,44.8,4.267,44.8,4.267s-24.533,16-27.733,35.2c-4.267,19.2,4.267,27.733,4.267,27.733s-30.933-1.067-38.4-4.267
	c-7.467-3.2-69.333-24.533-69.333-24.533s-16-11.733-16-26.667s0-68.267-3.2-77.867c-2.133-9.6-1.067-60.8-3.2-67.2
	C-0.774,210.148-0.774,162.148,34.426,163.214z"/>
<g>
</g>
<g>
</g>
<g>
</g>
<g>
</g>
<g>
</g>
<g>
</g>
<g>
</g>
<g>
</g>
<g>
</g>
<g>
</g>
<g>
</g>
<g>
</g>
<g>
</g>
<g>
</g>
<g>
</g>
</svg>
