<?xml version="1.0" encoding="iso-8859-1"?>
<!-- Generator: Adobe Illustrator 19.0.0, SVG Export Plug-In . SVG Version: 6.00 Build 0)  -->
<svg version="1.1" id="Capa_1" xmlns="http://www.w3.org/2000/svg" xmlns:xlink="http://www.w3.org/1999/xlink" x="0px" y="0px"
	 viewBox="0 0 512.114 512.114" style="enable-background:new 0 0 512.114 512.114;" xml:space="preserve">
<ellipse style="fill:#ADB3BA;" cx="101.568" cy="486.514" rx="54.4" ry="25.6"/>
<path style="fill:#CED6E0;" d="M131.435,486.514c0,7.467-12.8,13.867-29.867,13.867c-16,0-29.867-6.4-29.867-13.867
	c0-2.133,1.067-4.267,2.133-5.333c12.8-13.867,20.267-32,20.267-51.2v-53.333c0-19.2-7.467-36.267-20.267-51.2
	c-1.067-2.133-2.133-3.2-2.133-5.333c0-7.467,12.8-13.867,29.867-13.867c16,0,29.867,6.4,29.867,13.867
	c0,2.133-1.067,4.267-2.133,5.333c-12.8,13.867-20.267,32-20.267,51.2v53.333c0,19.2,7.467,36.267,20.267,51.2
	C130.368,482.248,131.435,484.381,131.435,486.514z"/>
<ellipse style="fill:#E8EAE9;" cx="101.568" cy="297.714" rx="101.333" ry="29.867"/>
<polygon style="fill:#344A5E;" points="178.368,308.381 179.435,306.248 154.902,273.181 68.502,277.448 85.568,314.781 "/>
<g>
	<path style="fill:#415A6B;" d="M85.568,312.648l90.667-4.267c0,0,2.133,0,4.267-2.133v2.133c0,2.133-1.067,3.2-3.2,3.2l0,0
		c-1.067,0-91.733,5.333-91.733,5.333V312.648z"/>
	<path style="fill:#415A6B;" d="M85.568,316.914c-1.067,0-2.133,0-2.133-1.067l-40.533-82.133l0,0l-10.667-25.6
		c0-1.067,0-2.133,1.067-3.2c1.067,0,2.133,0,3.2,1.067l10.667,24.533l40.533,82.133C87.702,314.781,87.702,316.914,85.568,316.914
		L85.568,316.914z"/>
</g>
<rect x="214.635" y="394.781" style="fill:#E8EAE9;" width="36.267" height="36.267"/>
<path style="fill:#CED6E0;" d="M258.368,427.848c1.067,3.2,1.067,6.4,0,9.6l-17.067,11.733l-1.067-4.267
	c0,0-20.267,17.067-42.667,21.333c-22.4,4.267-44.8,2.133-38.4-10.667l87.467-27.733H258.368z"/>
<path style="fill:#66C6B9;" d="M210.368,409.714c0,0-7.467,11.733-13.867,17.067c-5.333,5.333-17.067,12.8-25.6,16
	c-8.533,3.2-17.067,11.733-11.733,18.133c5.333,6.4,29.867,6.4,40.533,2.133s29.867-12.8,36.267-19.2
	c6.4-6.4,21.333-10.667,21.333-16s-8.533-22.4-8.533-22.4s-4.267,12.8-9.6,16c-5.333,3.2-10.667,3.2-10.667,3.2
	S223.168,408.648,210.368,409.714z"/>
<g>
	<path style="fill:#ADB3BA;" d="M265.835,422.514c-3.2,0-5.333-1.067-7.467-3.2c-2.133-3.2-3.2-6.4-2.133-10.667
		c8.533-24.533,28.8-83.2,34.133-99.2l0,0c1.067-3.2,4.267-6.4,7.467-6.4l88.533-18.133c5.333-1.067,9.6,2.133,11.733,6.4
		l29.867,74.667c1.067,3.2,1.067,5.333,0,8.533c-1.067,2.133-3.2,4.267-6.4,5.333l-152.533,42.667
		C267.968,422.514,266.902,422.514,265.835,422.514z M296.768,312.648c-5.333,16-25.6,74.667-34.133,99.2c0,1.067,0,2.133,1.067,3.2
		c0,1.067,1.067,1.067,3.2,1.067l152.533-42.667c1.067,0,2.133-1.067,2.133-2.133c0-1.067,0-2.133,0-3.2l-29.867-74.667
		c-1.067-1.067-2.133-2.133-4.267-2.133l-88.533,18.133C297.835,310.514,296.768,310.514,296.768,312.648L296.768,312.648z"/>
	<path style="fill:#ADB3BA;" d="M405.568,442.781c-2.133,0-3.2,0-5.333-1.067l-139.733-81.067c-4.267-2.133-6.4-7.467-4.267-11.733
		l16-50.133c1.067-4.267,6.4-7.467,10.667-7.467l99.2,12.8c4.267,1.067,7.467,4.267,8.533,8.533l24.533,118.4
		c1.067,4.267-1.067,8.533-4.267,10.667C409.835,441.714,407.702,442.781,405.568,442.781z M281.835,297.714
		c-1.067,0-3.2,1.067-3.2,2.133l-16,50.133c0,1.067,0,3.2,2.133,4.267l139.733,81.067c2.133,1.067,3.2,0,4.267,0
		c0,0,2.133-1.067,1.067-3.2l-24.533-118.4c0-1.067-1.067-2.133-3.2-3.2L281.835,297.714L281.835,297.714z"/>
</g>
<path style="fill:#F3705A;" d="M498.368,178.248c0,0,7.467,24.533-16,57.6c-23.467,32-41.6,62.933-46.933,75.733
	c-6.4,13.867-22.4,20.267-33.067,22.4c-10.667,2.133-67.2,6.4-101.333-5.333s-67.2-24.533-69.333-52.267
	c-2.133-27.733,5.333-80,29.867-103.467s104.533-45.867,142.933-40.533C441.835,138.781,498.368,178.248,498.368,178.248z"/>
<path style="fill:#F05540;" d="M488.768,218.781c-5.333,14.933-10.667,18.133-61.867,54.4c-30.933,21.333-80,32-115.2,37.333
	c-12.8,2.133-26.667-1.067-37.333-8.533c-11.733-8.533-19.2-22.4-21.333-43.733c-5.333-53.333,24.533-77.867,55.467-93.867
	s145.067-53.333,163.2-34.133C488.768,149.448,494.102,204.914,488.768,218.781z"/>
<path style="fill:#FFD15C;" d="M291.435,176.114c0,0-2.133,6.4-5.333,10.667c-3.2,3.2-3.2,3.2-3.2,3.2l-18.133-10.667
	c0,0,10.667-7.467,13.867-11.733c3.2-4.267,5.333-5.333,5.333-5.333L291.435,176.114z"/>
<path style="fill:#415A6B;" d="M360.768,185.714l38.4,29.867c0,0-1.067,51.2-21.333,60.8c-20.267,9.6-34.133,10.667-54.4,17.067
	c-20.267,6.4-25.6,17.067-32,26.667c-6.4,9.6-33.067,83.2-35.2,89.6c-2.133,6.4-13.867,9.6-22.4,8.533
	c-8.533-1.067-29.867-9.6-29.867-9.6s35.2-115.2,37.333-123.733c2.133-8.533,1.067-17.067,19.2-26.667
	c18.133-9.6,33.067-12.8,40.533-17.067c8.533-4.267,25.6-12.8,25.6-12.8L360.768,185.714L360.768,185.714z"/>
<path style="fill:#344A5E;" d="M239.168,245.448c0,0-5.333,12.8-1.067,19.2c4.267,5.333,7.467,6.4,10.667,7.467
	c4.267,1.067,7.467,3.2,8.533,5.333s49.067-4.267,43.733-12.8C295.702,256.114,239.168,245.448,239.168,245.448z"/>
<path style="fill:#415A6B;" d="M347.968,207.048h-16c0,0-7.467-4.267-9.6-4.267s-21.333-9.6-33.067-17.067
	c-10.667-6.4-22.4-17.067-30.933-19.2s-28.8-1.067-29.867,13.867c-1.067,14.933,8.533,70.4,7.467,75.733
	c-1.067,5.333,2.133,9.6,2.133,9.6s-2.133-5.333-1.067-7.467c1.067-2.133,6.4,3.2,11.733,3.2c5.333,0,12.8,0,19.2-2.133
	c7.467-2.133,28.8,3.2,33.067,6.4l-5.333-21.333l44.8-13.867L347.968,207.048z"/>
<path style="fill:#344A5E;" d="M331.968,220.914c0,1.067,0,1.067,0,2.133l-4.267,5.333c0,0-18.133,8.533-25.6,12.8
	c-1.067,1.067-3.2,1.067-5.333,2.133c-1.067-9.6-5.333-18.133-9.6-26.667c-3.2-7.467-7.467-16-13.867-22.4
	c-4.267-4.267-9.6-7.467-14.933-10.667c6.4,1.067,12.8,5.333,17.067,10.667c4.267,5.333,7.467,10.667,10.667,17.067
	c2.133,4.267,4.267,8.533,8.533,11.733c3.2,2.133,8.533,3.2,12.8,3.2c2.133,0,4.267,0,6.4-1.067c3.2-1.067,4.267-4.267,5.333-7.467
	c0-3.2,0-6.4,0-9.6c1.067,3.2,3.2,5.333,4.267,8.533c0,1.067,1.067,2.133,2.133,3.2
	C325.568,221.981,329.835,220.914,331.968,220.914z"/>
<path style="fill:#E8EAE9;" d="M292.502,154.781l-11.733,7.467c0,0,8.533,8.533,10.667,12.8l16-10.667L292.502,154.781z"/>
<path style="fill:#415A6B;" d="M289.302,154.781c0,0,17.067,17.067,22.4,23.467c0,0,13.867-7.467,21.333-12.8s24.533-16,28.8-17.067
	c4.267-1.067,9.6-2.133,9.6-2.133s22.4-43.733,29.867-50.133s5.333-9.6,5.333-9.6s-13.867,6.4-18.133,10.667s-6.4,6.4-7.467,8.533
	c-1.067,2.133-3.2,3.2-4.267,4.267c-1.067,1.067-2.133,3.2-6.4,3.2c-4.267,1.067-8.533,4.267-13.867,6.4
	c-5.333,2.133-14.933,3.2-19.2,6.4c-4.267,3.2-4.267,3.2-8.533,6.4C323.435,135.581,289.302,154.781,289.302,154.781z"/>
<path style="fill:#344A5E;" d="M420.502,89.714l-8.533-5.333c0,0-4.267-1.067-13.867,8.533s-18.133,27.733-22.4,37.333
	c-4.267,9.6-17.067,43.733-26.667,55.467c-8.533,11.733-18.133,21.333-18.133,21.333l12.8,1.067c0,0,26.667-53.333,33.067-64
	c6.4-10.667,29.867-44.8,36.267-49.067C419.435,90.781,420.502,89.714,420.502,89.714z"/>
<path style="fill:#FFD15C;" d="M429.035,10.781c0,0-11.733,2.133-14.933,8.533c-2.133,7.467-8.533,16-8.533,19.2
	s2.133,7.467,2.133,7.467s-5.333,6.4-5.333,8.533c0,2.133,4.267,6.4,4.267,6.4s-1.067,7.467,1.067,8.533c0,0-2.133,1.067,0,5.333
	c0,0,1.067,3.2,0,8.533c-1.067,5.333,12.8,7.467,13.867,7.467v30.933l48-27.733l-1.067-13.867l3.2-51.2
	C463.168,8.648,450.368,0.114,429.035,10.781z"/>
<path style="fill:#415A6B;" d="M415.168,19.314c0,0,2.133-4.267,8.533-4.267c6.4,0,12.8,2.133,16,2.133c3.2,0,6.4,0,6.4,0
	s-5.333,8.533-5.333,11.733s5.333,7.467,5.333,10.667c0,3.2-1.067,11.733-1.067,11.733h3.2c0,0,3.2-7.467,8.533-10.667
	c5.333-3.2,11.733,4.267,10.667,14.933s1.067,24.533,1.067,24.533s5.333-2.133,6.4-7.467c1.067-5.333,6.4-12.8,7.467-16
	c1.067-3.2,9.6-21.333,5.333-28.8s-10.667-8.533-10.667-8.533s-1.067-18.133-30.933-19.2S409.835,5.448,415.168,19.314z"/>
<path style="fill:#F7B64C;" d="M459.968,68.381c-21.333,22.4-37.333,22.4-37.333,22.4v13.867
	C450.368,87.581,459.968,68.381,459.968,68.381z"/>
<path style="fill:#CED6E0;" d="M421.568,95.048h5.333l17.067,23.467l-54.4,97.067c0,0-11.733-8.533-19.2-10.667
	c-8.533-2.133-17.067-12.8-17.067-12.8l6.4-21.333l36.267-59.733l22.4-21.333L421.568,95.048z"/>
<g>
	<path style="fill:#55C0EB;" d="M421.568,95.048c0,0,3.2,0,5.333,1.067c2.133,0,2.133,0,2.133,0v10.667c0,0-7.467-1.067-10.667,3.2
		c0,0-4.267-3.2-8.533-3.2c0,0,1.067-7.467,5.333-10.667C419.435,93.981,421.568,95.048,421.568,95.048z"/>
	<path style="fill:#55C0EB;" d="M417.302,105.714l1.067,5.333c0,0-3.2,9.6-5.333,13.867c-2.133,4.267-11.733,22.4-22.4,36.267
		c-9.6,13.867-24.533,40.533-33.067,49.067s-13.867,12.8-13.867,12.8l-23.467,3.2c0,0,2.133-8.533,4.267-10.667
		c3.2-3.2,16-11.733,22.4-20.267c6.4-8.533,23.467-37.333,29.867-42.667c5.333-5.333,33.067-41.6,35.2-44.8
		C413.035,103.581,417.302,105.714,417.302,105.714z"/>
</g>
<g>
	<path style="fill:#F3F3F3;" d="M467.435,74.781c0,0-2.133,4.267-7.467,6.4c-5.333,2.133-33.067,13.867-33.067,13.867v25.6
		l42.667-28.8L467.435,74.781z"/>
	<path style="fill:#F3F3F3;" d="M421.568,90.781v3.2c0,0-2.133-1.067-5.333,3.2c-3.2,4.267-5.333,6.4-8.533,6.4l10.667-13.867
		C420.502,90.781,421.568,90.781,421.568,90.781z"/>
</g>
<path style="fill:#415A6B;" d="M419.435,90.781l-12.8,7.467l-10.667,4.267c0,0-9.6,9.6-13.867,19.2
	c-4.267,9.6-11.733,21.333-14.933,28.8c-3.2,6.4-14.933,32-20.267,39.467c0,0,18.133-24.533,25.6-36.267
	c7.467-11.733,16-25.6,20.267-32C399.168,114.248,417.302,97.181,419.435,90.781z"/>
<path style="fill:#344A5E;" d="M471.702,93.981c0,0,3.2,2.133,11.733,5.333c8.533,3.2,23.467,10.667,25.6,14.933l-40.533,98.133
	c0,0-38.4,35.2-45.867,41.6c-7.467,7.467-39.467,23.467-50.133,34.133c0,0-11.733-8.533-13.867-10.667
	c-2.133-3.2-1.067-5.333,0-5.333c1.067-1.067,11.733-42.667,12.8-50.133s9.6-32,9.6-32s9.6-26.667,26.667-44.8
	C424.768,127.048,465.302,93.981,471.702,93.981z"/>
<path style="fill:#FFD15C;" d="M389.568,231.581c0,0-4.267,1.067-5.333,1.067c-2.133,0-5.333-3.2-16-3.2
	c-10.667,0-16,1.067-18.133,2.133c-2.133,1.067-4.267,5.333-4.267,7.467c0,2.133,2.133,4.267,3.2,4.267c0,0,0,4.267,5.333,5.333
	c0,0-1.067,6.4,4.267,6.4c0,0,1.067,5.333,4.267,5.333c4.267,0,5.333-2.133,5.333-2.133s17.067,2.133,21.333,0
	c4.267-2.133,6.4-5.333,13.867-7.467c7.467-1.067,7.467-1.067,7.467-1.067L389.568,231.581z"/>
<g>
	<path style="fill:#415A6B;" d="M468.502,80.114c0,0-4.267,5.333-9.6,8.533c-5.333,3.2-26.667,22.4-43.733,40.533
		c-16,18.133-23.467,28.8-29.867,43.733c-6.4,14.933-5.333,18.133-5.333,18.133l0,0c6.4-14.933,17.067-27.733,29.867-37.333
		c2.133-2.133,5.333-3.2,6.4-4.267c4.267-3.2,35.2-27.733,35.2-27.733l-5.333-6.4c0,0,10.667-2.133,11.733-3.2
		c0,0,4.267-7.467,8.533-10.667c4.267-3.2,5.333-4.267,5.333-6.4C471.702,92.914,469.568,81.181,468.502,80.114z"/>
	<path style="fill:#415A6B;" d="M461.035,145.181c0,0,3.2-16,13.867-26.667c10.667-10.667,27.733-12.8,34.133-4.267
		c6.4,7.467,0,29.867,0,34.133s-4.267,9.6-4.267,13.867c-1.067,4.267,3.2,8.533,3.2,14.933c0,6.4-3.2,30.933-10.667,39.467
		c-7.467,8.533-11.733,6.4-19.2,10.667s-30.933,11.733-40.533,18.133c-10.667,7.467-33.067,12.8-33.067,12.8s-11.733-12.8-16-17.067
		s-3.2-14.933-3.2-14.933s10.667-2.133,14.933-4.267c4.267-2.133,19.2-7.467,21.333-7.467c3.2,0,30.933-21.333,30.933-21.333
		s1.067-4.267,2.133-6.4c2.133-2.133,1.067-5.333,1.067-9.6s1.067-6.4,2.133-7.467c1.067-1.067,1.067-5.333,1.067-9.6
		S461.035,145.181,461.035,145.181z"/>
</g>
<path style="fill:#E8EAE9;" d="M302.102,274.248c0,0-34.133,2.133-36.267,0v-13.867c1.067,0,1.067,0,2.133-1.067
	c7.467-2.133,28.8,3.2,33.067,6.4L302.102,274.248z"/>
<path style="fill:#CED6E0;" d="M299.968,307.314l1.067,5.333c0,0,4.267,0,10.667-3.2c6.4-3.2,18.133-9.6,16-20.267l-10.667-2.133
	l-13.867,5.333"/>
<path style="fill:#E8EAE9;" d="M307.435,275.314l11.733,4.267c0,0,6.4,6.4,7.467,9.6l-20.267,4.267c-2.133,0-3.2,2.133-3.2,3.2
	l-3.2,14.933l-4.267-4.267c0,0-10.667,5.333-16,10.667c-5.333,5.333-24.533,10.667-34.133,9.6
	c-10.667-1.067-26.667-5.333-27.733-8.533c-2.133-3.2-3.2-6.4-1.067-10.667c3.2-3.2,22.4-8.533,30.933-10.667
	C255.168,296.648,307.435,275.314,307.435,275.314z"/>
<path style="fill:#66C6B9;" d="M217.835,320.114c-5.333-7.467-1.067-12.8,3.2-13.867c4.267-2.133,23.467-10.667,30.933-16
	c7.467-5.333,8.533-16,11.733-19.2c3.2-2.133,5.333,2.133,11.733,1.067c6.4,0,26.667-7.467,26.667-7.467
	c6.4,1.067,18.133,13.867,18.133,13.867c-5.333-3.2-18.133,6.4-22.4,9.6c-4.267,4.267-14.933,9.6-20.267,10.667
	c-5.333,1.067-14.933,0-25.6,2.133c-10.667,3.2-20.267,4.267-24.533,5.333c-4.267,0-8.533,1.067-10.667,4.267
	C214.635,314.781,217.835,319.048,217.835,320.114L217.835,320.114L217.835,320.114z"/>
<g>
</g>
<g>
</g>
<g>
</g>
<g>
</g>
<g>
</g>
<g>
</g>
<g>
</g>
<g>
</g>
<g>
</g>
<g>
</g>
<g>
</g>
<g>
</g>
<g>
</g>
<g>
</g>
<g>
</g>
</svg>
