<?xml version="1.0" encoding="iso-8859-1"?>
<!-- Generator: Adobe Illustrator 19.0.0, SVG Export Plug-In . SVG Version: 6.00 Build 0)  -->
<svg version="1.1" id="Capa_1" xmlns="http://www.w3.org/2000/svg" xmlns:xlink="http://www.w3.org/1999/xlink" x="0px" y="0px"
	 viewBox="0 0 512 512" style="enable-background:new 0 0 512 512;" xml:space="preserve">
<path style="fill:#415A6B;" d="M90.667,317.867l333.867,5.333c5.333,0,10.667-4.267,10.667-10.667L425.6,38.4
	c0-5.333-5.333-9.6-10.667-9.6l-332.8,14.933c-5.333,0-9.6,5.333-9.6,10.667l8.533,253.867
	C81.067,313.6,85.333,317.867,90.667,317.867z"/>
<polygon style="fill:#F3F3F3;" points="408.533,296.533 105.6,292.267 99.2,86.4 401.067,72.533 "/>
<path style="fill:#FFD15C;" d="M398.933,221.867c0,0-3.2-42.667,13.867-50.133c16-8.533,22.4,2.133,24.533,7.467
	c2.133,5.333,2.133,27.733,2.133,27.733s2.133,0,10.667,8.533c9.6,8.533,14.933,13.867,21.333,18.133
	c5.333,5.333,7.467,9.6,7.467,20.267c0,10.667-5.333,40.533-6.4,60.8c-1.067,21.333-5.333,43.733,0,62.933
	c4.267,19.2,4.267,19.2,4.267,19.2l-78.933,8.533l-5.333-14.933c0,0-4.267-27.733-5.333-35.2c-2.133-7.467-18.133-41.6-5.333-71.467
	C393.6,254.933,400,248.533,398.933,221.867z"/>
<path style="fill:#FFFFFF;" d="M409.6,179.2c0,0,5.333-9.6,14.933-8.533c9.6,1.067,9.6,8.533,9.6,8.533s0,14.933-5.333,16
	c-6.4,2.133-13.867,0-16-3.2C410.667,189.867,409.6,182.4,409.6,179.2z"/>
<path style="fill:#F7B64C;" d="M438.4,203.733c0,0,0,1.067,0,3.2c0,2.133,0,5.333,0,8.533c0,2.133,0,3.2,0,5.333
	c0,2.133,0,4.267-1.067,6.4v1.067v1.067v1.067v1.067c0,0,0,1.067,0,2.133c0,2.133,0,4.267,1.067,6.4c0,2.133,1.067,4.267,1.067,6.4
	c1.067,2.133,1.067,4.267,2.133,6.4c0,0,0,1.067,0,2.133c0,1.067,0,1.067,0,2.133c0,1.067,0,2.133,0,3.2c0,2.133,0,4.267,0,5.333
	c0,3.2,0,6.4,0,8.533c0,2.133,0,3.2,0,3.2s0-1.067,0-3.2s0-5.333-1.067-8.533c0-2.133,0-3.2-1.067-5.333c0-1.067,0-2.133,0-3.2
	s0-2.133-1.067-3.2c-1.067-2.133-1.067-4.267-2.133-6.4c-1.067-2.133-1.067-4.267-1.067-6.4c0-2.133-1.067-4.267-1.067-7.467
	c0-1.067,0-2.133,0-3.2c0-1.067,0-1.067,0-2.133c0,0,0-1.067,1.067-1.067c1.067-2.133,1.067-4.267,1.067-5.333
	c0-2.133,1.067-4.267,1.067-5.333C437.333,208,438.4,203.733,438.4,203.733z"/>
<path style="fill:#E8EAE9;" d="M384,402.133c0,0,6.4-23.467,40.533-32s50.133,6.4,50.133,6.4l18.133,30.933l-99.2,25.6L384,402.133z
	"/>
<path style="fill:#415A6B;" d="M384,418.133c0,0,41.6-28.8,69.333-32c28.8-4.267,30.933,2.133,30.933,2.133L512,434.133
	l-103.467,40.533L384,418.133z"/>
<path style="fill:#FFD15C;" d="M113.067,230.4c0,0,2.133-42.667-13.867-50.133s-22.4,1.067-23.467,7.467
	c-2.133,5.333-2.133,27.733-2.133,27.733s-2.133,0-10.667,8.533S48,237.867,41.6,242.133c-6.4,4.267-7.467,9.6-7.467,20.267
	c0,10.667,5.333,39.467,6.4,60.8c1.067,21.333,5.333,43.733,0,62.933c-4.267,19.2-4.267,19.2-4.267,19.2l78.933,8.533l5.333-14.933
	c0,0,4.267-27.733,5.333-35.2c2.133-7.467,18.133-41.6,5.333-71.467C118.4,262.4,112,257.067,113.067,230.4z"/>
<path style="fill:#FFFFFF;" d="M101.333,187.733c0,0-5.333-9.6-14.933-7.467c-9.6,2.133-9.6,8.533-9.6,8.533s0,14.933,5.333,16
	c6.4,2.133,13.867,0,16-3.2C100.267,198.4,102.4,190.933,101.333,187.733z"/>
<path style="fill:#F7B64C;" d="M73.6,212.267c0,0,0,1.067,0,3.2c0,2.133,0,5.333,0,8.533c0,2.133,0,3.2,0,5.333
	c0,2.133,0,4.267,1.067,6.4v1.067v1.067v1.067V240c0,0,0,1.067,0,2.133c0,2.133,0,4.267-1.067,6.4c0,2.133-1.067,4.267-1.067,6.4
	c-1.067,2.133-1.067,4.267-1.067,6.4c0,0,0,1.067,0,2.133s0,1.067,0,2.133c0,1.067,0,2.133,0,3.2c0,2.133,0,4.267,0,5.333
	c0,3.2,0,6.4,0,8.533c0,2.133,0,3.2,0,3.2s0-1.067,0-3.2s0-5.333,1.067-8.533c0-2.133,0-3.2,1.067-5.333c0-1.067,0-2.133,0-3.2
	s0-2.133,1.067-3.2c0-2.133,1.067-4.267,1.067-6.4c1.067-2.133,1.067-4.267,1.067-6.4s1.067-4.267,1.067-7.467
	c0-1.067,0-2.133,0-3.2c0-1.067,0-1.067,0-2.133c0,0,0-1.067-1.067-1.067c-1.067-2.133-1.067-4.267-1.067-5.333
	c0-3.2-1.067-5.333-1.067-6.4C73.6,216.533,73.6,212.267,73.6,212.267z"/>
<path style="fill:#E8EAE9;" d="M128,410.667c0,0-6.4-23.467-40.533-32s-50.133,6.4-50.133,6.4L19.2,416l99.2,25.6L128,410.667z"/>
<path style="fill:#415A6B;" d="M128,426.667c0,0-41.6-27.733-69.333-32S27.733,396.8,27.733,396.8L0,442.667L103.467,483.2
	L128,426.667z"/>
<polygon style="fill:#F3705A;" points="146.133,273.067 132.267,272 131.2,256 146.133,256 "/>
<polygon style="fill:#415A6B;" points="186.667,245.333 187.733,273.067 202.667,273.067 201.6,245.333 "/>
<polygon style="fill:#55C0EB;" points="243.2,250.667 244.267,274.133 258.133,274.133 258.133,250.667 "/>
<polygon style="fill:#FFD15C;" points="213.333,211.2 215.467,274.133 230.4,274.133 228.267,211.2 "/>
<polygon style="fill:#66C6B9;" points="157.867,228.267 160,273.067 174.933,273.067 172.8,228.267 "/>
<g>
	<polygon style="fill:#F3705A;" points="286.933,275.2 272,274.133 268.8,196.267 283.733,196.267 	"/>
	<path style="fill:#F3705A;" d="M331.733,98.133L331.733,98.133c-25.6,0-45.867,21.333-44.8,48s22.4,48,49.067,48
		c12.8,0,24.533-5.333,33.067-13.867l-34.133-34.133L331.733,98.133z"/>
</g>
<path style="fill:#FFD15C;" d="M365.867,112c-8.533-8.533-20.267-13.867-34.133-13.867l2.133,48L365.867,112z"/>
<path style="fill:#415A6B;" d="M333.867,146.133L368,180.267c8.533-8.533,12.8-20.267,12.8-34.133H333.867z"/>
<path style="fill:#66C6B9;" d="M365.867,112l-32,34.133H380.8l0,0C379.733,132.267,374.4,120.533,365.867,112z"/>
<g>
</g>
<g>
</g>
<g>
</g>
<g>
</g>
<g>
</g>
<g>
</g>
<g>
</g>
<g>
</g>
<g>
</g>
<g>
</g>
<g>
</g>
<g>
</g>
<g>
</g>
<g>
</g>
<g>
</g>
</svg>
