<?xml version="1.0" encoding="iso-8859-1"?>
<!-- Generator: Adobe Illustrator 19.0.0, SVG Export Plug-In . SVG Version: 6.00 Build 0)  -->
<svg version="1.1" id="Capa_1" xmlns="http://www.w3.org/2000/svg" xmlns:xlink="http://www.w3.org/1999/xlink" x="0px" y="0px"
	 viewBox="0 0 512.586 512.586" style="enable-background:new 0 0 512.586 512.586;" xml:space="preserve">
<g>
	<path style="fill:#415A6B;" d="M402.426,273.653c0,0,11.733,27.733,5.333,56.533s-9.6,73.6-9.6,73.6h-89.6l-30.933-145.067
		L402.426,273.653z"/>
	<path style="fill:#415A6B;" d="M86.693,300.319c0,0-10.667,26.667,10.667,55.467v51.2h57.6h61.867c0,0-10.667-43.733-12.8-56.533
		c-2.133-12.8-3.2-38.4-6.4-42.667c-3.2-4.267-3.2-4.267-3.2-4.267S110.16,265.119,86.693,300.319z"/>
</g>
<path style="fill:#344A5E;" d="M173.093,363.253c-5.333,0,8.533-10.667,12.8-13.867c4.267-4.267-9.6,4.267-12.8,3.2
	c-3.2-2.133,5.333-12.8,5.333-16c0-3.2-5.333,8.533-8.533,10.667s-1.067-2.133,0-6.4s-3.2,4.267-3.2,8.533
	c0,5.333-2.133,12.8-4.267,20.267s-5.333,38.4-5.333,38.4h28.8C184.826,393.119,177.36,362.186,173.093,363.253z"/>
<path style="fill:#F3F3F3;" d="M192.293,127.519c0,0,5.333,18.133,5.333,32c-1.067,13.867,1.067,36.267,2.133,42.667
	c2.133,7.467,3.2,19.2,3.2,27.733c0,9.6,6.4,64,6.4,64s-13.867,3.2-21.333,6.4c-8.533,2.133-8.533,2.133-8.533,2.133
	S176.293,134.986,192.293,127.519z"/>
<path style="fill:#344A5E;" d="M202.96,221.386l35.2-17.067c1.067,0,0-1.067,0-1.067h-23.467l0,0l-29.867,10.667
	c-1.067,0,0,1.067,0,1.067L202.96,221.386L202.96,221.386z"/>
<g>
	<path style="fill:#FFD15C;" d="M179.493,57.119c0,0,1.067,21.333-13.867,35.2c0,0-6.4,17.067-3.2,30.933
		c3.2,13.867,3.2,13.867,3.2,13.867l-30.933,2.133l-8.533-35.2l2.133-28.8c0,0-2.133-11.733-1.067-18.133
		c1.067-6.4-1.067-41.6,17.067-44.8s33.067,3.2,35.2,13.867C181.626,35.786,179.493,57.119,179.493,57.119z"/>
	
		<ellipse transform="matrix(-0.0801 -0.9968 0.9968 -0.0801 83.577 182.9061)" style="fill:#FFD15C;" cx="126.188" cy="52.887" rx="9.6" ry="4.267"/>
	
		<ellipse transform="matrix(0.119 -0.9929 0.9929 0.119 100.4306 227.4818)" style="fill:#FFD15C;" cx="178.402" cy="57.148" rx="9.6" ry="4.267"/>
</g>
<path style="fill:#415A6B;" d="M127.226,57.119h3.2c0,0-1.067-16,2.133-20.267c3.2-4.267,2.133-13.867,6.4-14.933
	c4.267-1.067,24.533,7.467,35.2,5.333c0,0,4.267-1.067,4.267,4.267c0,6.4,0,24.533,0,24.533h1.067c0,0,3.2-20.267,3.2-29.867
	s-6.4-19.2-16-23.467c-9.6-4.267-37.333-5.333-35.2,10.667c0,0-5.333,4.267-5.333,18.133
	C126.16,42.186,127.226,57.119,127.226,57.119z"/>
<path style="fill:#F7B64C;" d="M147.493,93.386c-9.6-3.2-19.2-18.133-19.2-18.133s4.267,14.933,14.933,22.4
	c5.333,4.267,12.8,7.467,19.2,10.667c1.067-8.533,4.267-16,4.267-16S156.026,97.653,147.493,93.386z"/>
<path style="fill:#CED6E0;" d="M120.826,93.386c0,0-28.8,13.867-38.4,24.533c0,0,9.6-8.533,18.133-4.267
	c8.533,4.267,8.533,49.067,2.133,56.533c-6.4,7.467-24.533,50.133-20.267,87.467s-1.067,60.8-1.067,60.8s12.8-18.133,24.533-21.333
	c11.733-3.2,29.867,3.2,37.333,8.533c7.467,5.333,30.933,17.067,40.533,13.867c9.6-3.2,11.733-13.867,11.733-13.867
	s-10.667-51.2-10.667-61.867s-3.2-28.8,0-41.6c2.133-12.8,10.667-50.133,9.6-59.733s-5.333-23.467-8.533-27.733
	c-3.2-4.267-18.133-7.467-18.133-7.467s-8.533,13.867-8.533,20.267c0,0-4.267-12.8-11.733-19.2
	C138.96,101.919,120.826,93.386,120.826,93.386z"/>
<g>
	<path style="fill:#F3F3F3;" d="M128.293,82.719c0,0,10.667,18.133,19.2,26.667c0,0-13.867-3.2-19.2,4.267l-7.467-19.2
		L128.293,82.719z"/>
	<path style="fill:#F3F3F3;" d="M165.626,93.386c0,0-5.333,13.867-4.267,25.6c0,0,8.533-4.267,9.6-5.333
		c2.133-1.067,4.267,3.2,4.267,3.2s-1.067-4.267-5.333-11.733C165.626,97.653,165.626,93.386,165.626,93.386z"/>
	<path style="fill:#F3F3F3;" d="M184.826,266.186c0-8.533,0-7.467-2.133-25.6c-3.2-19.2-7.467-52.267-7.467-59.733
		s-9.6-54.4-13.867-60.8c-1.067,3.2-2.133,6.4-2.133,8.533c0,0,5.333,21.333,6.4,28.8c1.067,7.467,5.333,26.667,5.333,36.267
		c0,9.6,8.533,53.333,8.533,60.8s-1.067,18.133,0,21.333c1.067,3.2,3.2,40.533,3.2,45.867c1.067,0,2.133,0,3.2-1.067
		c2.133-1.067,3.2-1.067,4.267-2.133c0-4.267,0-10.667,0-19.2C186.96,286.453,184.826,274.719,184.826,266.186z"/>
</g>
<path style="fill:#FFD15C;" d="M147.493,214.986c0,0,4.267,1.067,5.333,0c2.133-1.067,14.933-7.467,17.067-7.467
	s14.933-1.067,18.133,0l6.4,1.067c0,0,0,4.267-3.2,4.267l0,0c0,0,11.733,1.067,12.8,1.067c1.067,0,0,4.267-3.2,5.333
	c0,0-3.2,6.4-6.4,6.4c-3.2,0-3.2,0-3.2,0s1.067,5.333-5.333,6.4c0,0-2.133,5.333-7.467,6.4c-5.333,1.067-14.933,2.133-18.133,1.067
	c-3.2-1.067-5.333-1.067-10.667-2.133c-5.333-1.067-5.333-1.067-5.333-1.067L147.493,214.986"/>
<path style="fill:#F3F3F3;" d="M149.626,213.919c-1.067,3.2-2.133,28.8-2.133,28.8s-19.2,0-22.4,0c-3.2,0-27.733-1.067-37.333-3.2
	c-1.067,0-2.133-1.067-4.267-1.067c-9.6-2.133-23.467-5.333-28.8-8.533s-7.467-3.2-8.533-8.533c0-5.333,0-27.733,3.2-39.467
	c3.2-10.667,9.6-25.6,14.933-38.4s18.133-25.6,18.133-25.6l0,0l6.4-3.2l0,0c3.2-1.067,7.467-2.133,11.733,0
	c8.533,4.267,8.533,49.067,2.133,56.533l0,0c-3.2,4.267-12.8,30.933-13.867,33.067c0,0,0,0,4.267,2.133
	c4.267,2.133,9.6,4.267,13.867,5.333c4.267,1.067,4.267,0,9.6,0c5.333,0,8.533,2.133,8.533,2.133L149.626,213.919z"/>
<path style="fill:#FFD15C;" d="M377.893,74.186c0,0-1.067,16-4.267,22.4l7.467,28.8l-41.6,26.667l-7.467-21.333l3.2-16l1.067-13.867
	c0,0-8.533-10.667-8.533-27.733s0-18.133,0-18.133s1.067-22.4,23.467-20.267c21.333,2.133,25.6,13.867,26.667,19.2
	S377.893,74.186,377.893,74.186z"/>
<path style="fill:#415A6B;" d="M327.76,73.119h1.067c0,0,0-5.333,0-11.733s-2.133-13.867,2.133-18.133s26.667-5.333,34.133-4.267
	c7.467,2.133,7.467,6.4,7.467,11.733s2.133,21.333,2.133,21.333s5.333-14.933,2.133-28.8c-3.2-13.867-12.8-20.267-25.6-21.333
	c-11.733,0-23.467,5.333-26.667,13.867C321.36,44.319,327.76,73.119,327.76,73.119z"/>
<g>
	
		<ellipse transform="matrix(0.074 -0.9973 0.9973 0.074 278.1399 441.5228)" style="fill:#FFD15C;" cx="376.819" cy="70.99" rx="7.467" ry="4.267"/>
	<path style="fill:#FFD15C;" d="M322.426,70.986c0,4.267,3.2,7.467,5.333,7.467s4.267-3.2,3.2-7.467c0-4.267-3.2-7.467-5.333-7.467
		C323.493,62.453,322.426,65.653,322.426,70.986z"/>
</g>
<path style="fill:#F7B64C;" d="M372.56,96.586c-5.333,7.467-18.133,13.867-25.6,11.733s-10.667-7.467-10.667-7.467l-1.067,13.867
	l-2.133,9.6C367.226,114.719,372.56,96.586,372.56,96.586z"/>
<path style="fill:#F05540;" d="M335.226,113.653c0,0,1.067,17.067,14.933,17.067c13.867,0,25.6-17.067,27.733-20.267l21.333,6.4
	c0,0,22.4,7.467,23.467,23.467c0,0-2.133,49.067-7.467,65.067c-5.333,16-9.6,36.267-7.467,52.267c2.133,16,2.133,38.4,2.133,38.4
	s-32-13.867-55.467-10.667c-23.467,3.2-67.2,1.067-67.2,1.067s8.533-126.933,10.667-136.533c3.2-9.6,4.267-22.4,11.733-26.667
	C317.093,117.919,335.226,113.653,335.226,113.653z"/>
<path style="fill:#FFD15C;" d="M329.893,249.119c0,0,21.333,1.067,27.733-10.667c6.4-10.667-34.133-16-34.133-16L329.893,249.119z"
	/>
<g>
	<path style="fill:#F3705A;" d="M309.626,122.186c0,0-12.8,6.4-17.067,24.533c-4.267,11.733-4.267,30.933-6.4,36.267
		c-2.133,5.333-6.4,26.667-6.4,26.667l-1.067,34.133c0,0,32,8.533,46.933,8.533c14.933-1.067,14.933-1.067,14.933-1.067
		s-11.733-6.4-11.733-18.133s0-11.733,0-11.733l-23.467-13.867c0,0-2.133-10.667-2.133-24.533
		C303.226,169.119,304.293,129.653,309.626,122.186z"/>
	<polygon style="fill:#F3705A;" points="80.293,393.119 55.76,491.253 466.426,491.253 448.293,393.119 	"/>
</g>
<rect x="55.76" y="491.253" style="fill:#F05540;" width="410.667" height="21.333"/>
<path style="fill:#F3705A;" d="M370.426,174.453c0,0-1.067-17.067,8.533-29.867c9.6-12.8,30.933-13.867,39.467-4.267
	s-1.067,37.333-9.6,55.467s-26.667,41.6-39.467,44.8c-12.8,3.2-20.267,8.533-33.067,2.133c-12.8-5.333-40.533-22.4-40.533-22.4
	s2.133-18.133,18.133-18.133c0,0,5.333,3.2,10.667,3.2c5.333,1.067,22.4,2.133,26.667,0s14.933-17.067,17.067-20.267
	C370.426,182.986,370.426,174.453,370.426,174.453z"/>
<path style="fill:#FFD15C;" d="M351.226,205.386c0,0,8.533-4.267,9.6-7.467c0,0,7.467-7.467,5.333-8.533c0,0,3.2-3.2,2.133-5.333
	s-4.267,1.067-5.333,3.2c-1.067,1.067-8.533,9.6-8.533,11.733C353.36,201.119,352.293,202.186,351.226,205.386z"/>
<g>
	<path style="fill:#415A6B;" d="M229.626,294.986h26.667l2.133-92.8l-20.267,11.733
		C229.626,239.519,226.426,266.186,229.626,294.986z"/>
	<path style="fill:#415A6B;" d="M280.826,211.786c0,0,14.933,14.933,18.133,35.2c3.2,20.267-2.133,56.533-2.133,56.533l-25.6-10.667
		L280.826,211.786z"/>
</g>
<path style="fill:#F7B64C;" d="M281.893,321.653c3.2-11.733,4.267-21.333,3.2-24.533c-3.2-10.667-3.2-27.733-3.2-27.733
	l-38.4-10.667c0,0,1.067,19.2,0,25.6c-1.067,6.4-13.867,10.667-13.867,10.667l6.4,26.667H281.893z"/>
<path style="fill:#66C6B9;" d="M189.093,363.253h146.133l-4.267-56.533c-1.067-10.667-8.533-19.2-19.2-20.267l-27.733-3.2
	c-1.067,10.667-21.333,28.8-21.333,28.8s-20.267-18.133-21.333-28.8l-27.733,3.2c-10.667,1.067-19.2,9.6-19.2,20.267
	L189.093,363.253z"/>
<g>
	<path style="fill:#FFD15C;" d="M288.293,243.786c0,20.267-10.667,37.333-23.467,37.333c-12.8,0-23.467-17.067-23.467-37.333
		c0-54.4,10.667-37.333,23.467-37.333C277.626,206.453,288.293,189.386,288.293,243.786z"/>
	
		<ellipse transform="matrix(0.0919 -0.9958 0.9958 0.0919 20.0242 509.5636)" style="fill:#FFD15C;" cx="289.379" cy="243.804" rx="8.534" ry="3.2"/>
	
		<ellipse transform="matrix(0.0919 0.9958 -0.9958 0.0919 460.607 -16.8526)" style="fill:#FFD15C;" cx="239.543" cy="244.1" rx="8.534" ry="3.2"/>
</g>
<g>
	<path style="fill:#415A6B;" d="M256.293,210.719c0,0-12.8,1.067-17.067,14.933c-4.267,13.867-4.267,35.2-1.067,43.733
		s6.4,24.533,2.133,30.933c-4.267,6.4-12.8,4.267-16-1.067c-3.2-5.333-7.467-10.667-11.733-11.733c0,0,5.333-2.133,6.4,0
		c2.133,2.133,5.333,9.6,7.467,9.6s9.6,1.067,9.6-6.4s-2.133-19.2-4.267-26.667s-4.267-34.133,1.067-45.867
		c5.333-11.733,13.867-30.933,32-28.8c18.133,2.133,26.667,17.067,29.867,26.667c3.2,9.6,6.4,36.267,6.4,41.6
		c0,5.333-2.133,18.133-2.133,23.467s1.067,13.867,4.267,18.133c0,0-11.733-6.4-11.733-14.933s2.133-33.067,0-42.667
		C291.493,230.986,279.76,207.519,256.293,210.719z"/>
	<path style="fill:#415A6B;" d="M265.893,198.986v-10.667c0,0-12.8-2.133-22.4,6.4c-8.533,8.533-16,24.533-17.067,38.4
		c-1.067,13.867-2.133,44.8-6.4,50.133s-12.8,2.133-17.067,5.333c0,0,3.2-1.067,9.6,2.133c6.4,2.133,9.6,9.6,17.067,9.6
		c7.467,1.067,8.533-1.067,9.6-7.467c1.067-7.467-1.067-14.933-3.2-21.333c-2.133-6.4-3.2-21.333-2.133-30.933
		C234.96,229.919,239.226,204.319,265.893,198.986"/>
</g>
<path style="fill:#F3F3F3;" d="M329.893,433.653H194.426c-2.133,0-4.267-2.133-4.267-4.267l-6.4-78.933
	c0-3.2,2.133-5.333,4.267-5.333h148.267c3.2,0,5.333,2.133,4.267,5.333l-6.4,78.933C334.16,432.586,332.026,433.653,329.893,433.653
	z"/>
<ellipse style="fill:#CED6E0;" cx="261.626" cy="389.919" rx="12.8" ry="7.467"/>
<g>
</g>
<g>
</g>
<g>
</g>
<g>
</g>
<g>
</g>
<g>
</g>
<g>
</g>
<g>
</g>
<g>
</g>
<g>
</g>
<g>
</g>
<g>
</g>
<g>
</g>
<g>
</g>
<g>
</g>
</svg>
