<?xml version="1.0" encoding="iso-8859-1"?>
<!-- Generator: Adobe Illustrator 19.0.0, SVG Export Plug-In . SVG Version: 6.00 Build 0)  -->
<svg version="1.1" id="Capa_1" xmlns="http://www.w3.org/2000/svg" xmlns:xlink="http://www.w3.org/1999/xlink" x="0px" y="0px"
	 viewBox="0 0 512.665 512.665" style="enable-background:new 0 0 512.665 512.665;" xml:space="preserve">
<g>
	<path style="fill:#FFD15C;" d="M317.027,115.594c-2.133,11.733-7.467,21.333-13.867,20.267c-6.4,0-9.6-10.667-7.467-22.4
		c2.133-11.733,7.467-21.333,13.867-20.267C314.893,94.26,319.16,104.927,317.027,115.594z"/>
	<path style="fill:#FFD15C;" d="M178.36,115.594c2.133,11.733,7.467,21.333,13.867,20.267c6.4,0,9.6-10.667,7.467-22.4
		c-2.133-11.733-7.467-21.333-13.867-20.267C179.427,94.26,176.227,104.927,178.36,115.594z"/>
	<path style="fill:#FFD15C;" d="M299.96,150.794c-3.2,9.6-3.2,39.467-3.2,39.467l-7.467,12.8
		c-5.333,8.533-14.933,20.267-29.867,34.133c0,0-23.467-16-37.333-26.667c-13.867-10.667-18.133-20.267-18.133-20.267
		s-1.067-22.4-3.2-27.733c-1.067-5.333-11.733-24.533-13.867-46.933c-2.133-22.4-1.067-62.933,5.333-80s39.467-24.533,60.8-22.4
		c21.333,1.067,42.667,11.733,45.867,20.267c4.267,8.533,6.4,77.867,6.4,77.867v5.333
		C305.293,115.594,302.093,141.194,299.96,150.794z"/>
</g>
<path style="fill:#4ABAA5;" d="M311.693,197.727c0,0,32,13.867,58.667,23.467c26.667,9.6,55.467,34.133,55.467,34.133
	s-40.533,23.467-57.6,64c-17.067,40.533,28.8,137.6,28.8,137.6s-73.6,39.467-122.667,38.4c-49.067,0-139.733-16-139.733-16
	l-23.467-46.933l20.267-85.333c2.133-10.667,2.133-21.333-2.133-30.933c-9.6-23.467-27.733-62.933-53.333-67.2
	c0,0,39.467-19.2,55.467-23.467c16-4.267,59.733-27.733,59.733-27.733l60.8,24.533l3.2,1.067L311.693,197.727z"/>
<path style="fill:#F7B64C;" d="M298.893,153.994L298.893,153.994c-10.667,20.267-35.2,34.133-57.6,34.133
	c-21.333-1.067-40.533-25.6-40.533-25.6c1.067,5.333,3.2,27.733,3.2,27.733s3.2,8.533,18.133,20.267
	c3.2,2.133,6.4,5.333,10.667,7.467C287.16,197.727,298.893,153.994,298.893,153.994z"/>
<path style="fill:#415A6B;" d="M186.893,115.594h3.2c-1.067-4.267-4.267-27.733-2.133-33.067c2.133-5.333,6.4-20.267,5.333-36.267
	c-1.067-14.933,26.667-18.133,26.667-18.133l57.6,2.133c23.467,5.333,17.067,21.333,19.2,32c2.133,9.6,4.267,18.133,6.4,30.933
	c2.133,8.533,0,17.067-1.067,22.4h3.2c2.133-9.6,6.4-28.8,6.4-36.267c0-11.733-6.4-85.333-71.467-78.933
	C175.16,5.727,181.56,68.66,181.56,85.727C181.56,100.66,185.827,112.394,186.893,115.594z"/>
<g>
	<path style="fill:#E8EAE9;" d="M295.693,172.127c0,0-17.067,28.8-43.733,46.933c0,0,49.067,14.933,55.467,30.933
		c0,0,6.4-28.8,6.4-43.733C313.827,191.327,295.693,172.127,295.693,172.127z"/>
	<path style="fill:#E8EAE9;" d="M250.893,219.06c0,0-20.267,6.4-34.133,21.333c-13.867,14.933-21.333,17.067-21.333,17.067
		s-12.8-37.333-11.733-51.2c1.067-13.867,17.067-30.933,17.067-30.933S199.693,197.727,250.893,219.06z"/>
</g>
<path style="fill:#66C6B9;" d="M451.427,441.994c-6.4,16-12.8,20.267-12.8,29.867c0,9.6-4.267,20.267-21.333,23.467
	c-17.067,3.2-68.267,8.533-75.733,8.533c-6.4,0-25.6,2.133-30.933,2.133c5.333-1.067,24.533-3.2,26.667-10.667
	c0-2.133,1.067-7.467,1.067-12.8c0-13.867-2.133-33.067-12.8-37.333c0,0,24.533-6.4,26.667-7.467c2.133-1.067,6.4-6.4,9.6-12.8
	c3.2-7.467,2.133-32,2.133-42.667c0-6.4,0-23.467,1.067-35.2l0,0c0-7.467,0-12.8,0-12.8l0,0c0-5.333,1.067-9.6,3.2-13.867
	c17.067-40.533,56.533-64,57.6-64l0,0c0,0,16,33.067,19.2,51.2c4.267,18.133,4.267,74.667,4.267,81.067
	C448.227,395.06,458.893,425.994,451.427,441.994z"/>
<path style="fill:#FFD15C;" d="M281.827,436.66c0,0,6.4-9.6,23.467-13.867c17.067-3.2,22.4-4.267,22.4-4.267
	s10.667-18.133,23.467-6.4c0,0,0,5.333-2.133,10.667c0,0-1.067,6.4-4.267,10.667c0,0-1.067,7.467-4.267,12.8
	c0,0-3.2,1.067-1.067,7.467c2.133,5.333,0,17.067,0,17.067s1.067,14.933,0,21.333c-1.067,5.333-1.067,9.6-11.733,12.8
	c-10.667,2.133-23.467-1.067-27.733-2.133c-4.267-1.067-29.867-10.667-25.6-28.8C276.493,454.794,281.827,436.66,281.827,436.66z"/>
<g>
	<path style="fill:#F7B64C;" d="M339.427,462.26h-64c-1.067,3.2-2.133,6.4-2.133,10.667c-4.267,18.133,21.333,27.733,25.6,28.8
		c4.267,1.067,17.067,4.267,27.733,2.133s10.667-6.4,11.733-12.8c1.067-5.333,0-21.333,0-21.333S338.36,466.527,339.427,462.26z"/>
	<path style="fill:#F7B64C;" d="M309.56,433.46c-4.267-2.133-8.533-4.267-10.667-5.333c-1.067-1.067-2.133-1.067-3.2-1.067
		s-2.133,1.067-3.2,1.067c2.133,0,4.267,1.067,5.333,2.133c2.133,1.067,5.333,3.2,10.667,5.333c6.4,3.2,13.867,7.467,16,8.533l0,0
		l1.067-2.133l0,0C322.36,440.927,314.893,436.66,309.56,433.46z"/>
	<path style="fill:#F7B64C;" d="M327.693,418.527c0,0-6.4,7.467-8.533,10.667c-2.133,3.2-2.133,6.4-2.133,6.4s5.333,6.4,8.533,6.4
		c3.2,1.067,7.467-2.133,10.667,0c3.2,2.133,4.267,3.2,4.267,3.2s0-4.267-4.267-5.333l3.2-3.2c0,0-6.4,0-8.533-1.067
		C328.76,434.527,320.227,431.327,327.693,418.527z"/>
</g>
<path style="fill:#FFD15C;" d="M298.893,501.727c-1.067,1.067-4.267,2.133-9.6,5.333c-8.533,4.267-11.733,6.4-16,5.333
	s-10.667-9.6-11.733-13.867c-1.067-4.267-2.133-8.533-4.267-14.933c-2.133-6.4,1.067-10.667,2.133-11.733s2.133-1.067,2.133-1.067
	s-7.467-9.6-7.467-14.933c0-4.267,6.4-11.733,11.733-7.467c0,0-5.333-6.4,0-10.667c5.333-5.333,10.667-1.067,14.933,2.133
	c4.267,3.2,6.4,4.267,6.4,4.267s-7.467-6.4-5.333-12.8c3.2-6.4,10.667-3.2,14.933-1.067c4.267,2.133,22.4,12.8,25.6,13.867
	c3.2,1.067,10.667,5.333,10.667,5.333s7.467,12.8,3.2,20.267c-5.333,7.467-7.467,5.333-10.667,8.533
	c-2.133,3.2,1.067,3.2-4.267,7.467C319.16,488.927,299.96,500.66,298.893,501.727z"/>
<g>
	<path style="fill:#F7B64C;" d="M318.093,469.727L318.093,469.727c-1.067,0-1.067,0-2.133-1.067c0,0-1.067-1.067-2.133-1.067
		c-1.067,0-1.067-1.067-2.133-2.133c0,0,0,0,0-1.067c0,0,0,0,0-1.067l-1.067-1.067l0,0l0,0c0,0,0,0,0-1.067l-1.067-1.067
		l-1.067-1.067l-1.067-1.067c-1.067-1.067-2.133-2.133-3.2-2.133c-1.067-1.067-2.133-2.133-3.2-2.133l-1.067-1.067
		c0,0,0,0-1.067-1.067c0,0,0,0-1.067-1.067c-1.067-1.067-2.133-1.067-2.133-2.133c-1.067-1.067-1.067-1.067-2.133-2.133
		c-1.067-1.067-2.133-2.133-3.2-3.2l-1.067-1.067l0,0c0,0,1.067,0,1.067,1.067c1.067,1.067,2.133,1.067,4.267,2.133
		c1.067,0,2.133,1.067,2.133,2.133c1.067,1.067,2.133,1.067,3.2,2.133c0,0,0,0,1.067,1.067c0,0,0,0,1.067,1.067l1.067,1.067
		c1.067,1.067,2.133,1.067,3.2,2.133c1.067,1.067,2.133,2.133,3.2,2.133c1.067,1.067,2.133,2.133,2.133,2.133l1.067,1.067
		c0,0,0,0,0,1.067l0,0l0,0c0,0,0,0,0,1.067c0,0,0,0,0,1.067c0,0,0,0,0,1.067c0,0,0,0,0,1.067c1.067,1.067,1.067,1.067,1.067,2.133
		c0,1.067,1.067,1.067,1.067,1.067C317.027,468.66,318.093,469.727,318.093,469.727L318.093,469.727z"/>
	<path style="fill:#F7B64C;" d="M302.093,484.66L302.093,484.66c0-1.067,0-1.067-1.067-2.133c0-1.067-1.067-1.067-2.133-2.133
		l-1.067-1.067c0,0,0,0-1.067,0c0,0,0,0-1.067,0c-1.067-1.067-2.133-1.067-3.2-2.133c-1.067-1.067-2.133-2.133-3.2-3.2
		c-1.067-1.067-2.133-2.133-3.2-3.2c0,0,0-1.067-1.067-1.067l0,0l0,0l0,0l0,0l0,0l0,0l0,0c0,0,0-1.067-1.067-1.067l-1.067-1.067
		c-1.067-1.067-2.133-2.133-3.2-3.2s-2.133-2.133-3.2-3.2c-1.067-1.067-2.133-2.133-3.2-3.2c0,0,0,0-1.067-1.067l0,0l0,0l0,0l0,0
		v-1.067c0,0,0,0,0-1.067c-1.067-1.067-1.067-2.133-2.133-3.2c-1.067-1.067-1.067-1.067-1.067-2.133
		c-2.133-1.067-2.133-2.133-2.133-2.133l0,0l1.067,1.067c0,0,1.067,1.067,2.133,2.133c1.067,1.067,1.067,1.067,2.133,2.133
		c0,0,0,0,1.067,1.067c0,0,0,1.067,1.067,1.067l0,0l0,0l0,0l0,0l0,0l0,0l0,0c0,0,0,0,1.067,1.067c1.067,1.067,2.133,2.133,3.2,3.2
		c1.067,1.067,2.133,2.133,3.2,3.2c1.067,1.067,2.133,2.133,3.2,3.2l1.067,1.067l1.067,1.067l0,0l0,0l0,0l0,0l0,0
		c0,0,0,1.067,1.067,1.067c1.067,1.067,2.133,2.133,3.2,3.2c1.067,1.067,2.133,2.133,3.2,3.2c1.067,1.067,2.133,2.133,3.2,3.2
		c0,0,0,0,1.067,0c0,0,0,0,1.067,0l1.067,1.067c1.067,1.067,1.067,1.067,2.133,2.133C301.027,483.594,301.027,484.66,302.093,484.66
		L302.093,484.66z"/>
	<path style="fill:#F7B64C;" d="M283.96,496.394c0,0,0,0-1.067-1.067l-1.067-1.067c0,0-1.067-1.067-1.067-2.133
		c-1.067-1.067-1.067-1.067-2.133-2.133l0,0l0,0c0,0,0,0-1.067,0c0,0,0,0-1.067-1.067c0,0,0,0-1.067-1.067
		c-1.067-1.067-1.067-1.067-2.133-2.133c-1.067-1.067-1.067-2.133-2.133-2.133c-1.067-1.067-1.067-2.133-2.133-2.133
		c-1.067-1.067-1.067-2.133-2.133-2.133l-1.067-1.067c0,0,0,0,0-1.067c0,0,0,0,0-1.067s-1.067-1.067-1.067-2.133
		c-1.067-1.067-2.133-2.133-2.133-3.2c0,0,0-1.067-1.067-1.067l0,0l0,0c0,0,0,0,1.067,1.067l1.067,1.067
		c0,0,1.067,1.067,1.067,2.133c1.067,1.067,1.067,1.067,2.133,2.133c0,0,0,0,0,1.067c0,0,0,0,0,1.067l1.067,1.067
		c1.067,1.067,1.067,2.133,2.133,2.133c1.067,1.067,1.067,2.133,2.133,2.133c1.067,1.067,1.067,2.133,2.133,2.133l1.067,1.067
		l1.067,1.067c0,0,0,0,0,1.067l0,0l0,0l0,0c1.067,1.067,1.067,1.067,2.133,2.133c0,1.067,1.067,1.067,1.067,2.133
		c0,1.067,1.067,1.067,1.067,2.133C283.96,495.327,283.96,496.394,283.96,496.394L283.96,496.394z"/>
</g>
<path style="fill:#66C6B9;" d="M202.893,505.994c-5.333,0-24.533-2.133-30.933-2.133c-7.467,0-58.667-5.333-75.733-8.533
	c-17.067-3.2-21.333-12.8-21.333-23.467c0-10.667-6.4-13.867-12.8-29.867c-6.4-16-2.133-49.067-2.133-56.533
	s-2.133-67.2,2.133-85.333c3.2-18.133,12.8-54.4,12.8-54.4s2.133,0,5.333,0c-2.133,1.067-3.2,1.067-3.2,1.067
	c27.733,5.333,48,53.333,56.533,74.667c0,2.133,0,3.2,0,6.4l0,0c0,2.133,1.067,5.333,2.133,8.533
	c4.267,14.933,17.067,38.4,17.067,43.733c0,10.667-1.067,36.267,2.133,42.667c3.2,7.467,7.467,12.8,9.6,12.8
	c2.133,1.067,26.667,7.467,26.667,7.467c-10.667,4.267-13.867,23.467-12.8,37.333c0,1.067,0,2.133,0,3.2
	c0,4.267,1.067,7.467,1.067,9.6C178.36,502.794,197.56,505.994,202.893,505.994z"/>
<path style="fill:#FFD15C;" d="M231.693,436.66c0,0-6.4-9.6-23.467-13.867c-17.067-3.2-22.4-4.267-22.4-4.267
	s-10.667-18.133-23.467-6.4c0,0,0,5.333,2.133,10.667c0,0,1.067,6.4,4.267,10.667c0,0,1.067,7.467,4.267,12.8
	c0,0,3.2,1.067,1.067,7.467c-2.133,6.4,0,17.067,0,17.067s-1.067,14.933,0,21.333c1.067,5.333,1.067,9.6,11.733,12.8
	c10.667,2.133,23.467-1.067,27.733-2.133c4.267-1.067,29.867-10.667,25.6-28.8C237.027,454.794,231.693,436.66,231.693,436.66z"/>
<g>
	<path style="fill:#F7B64C;" d="M175.16,462.26h64c1.067,3.2,2.133,6.4,2.133,10.667c4.267,18.133-21.333,27.733-25.6,28.8
		c-4.267,1.067-17.067,4.267-27.733,2.133s-10.667-6.4-11.733-12.8c-1.067-5.333,0-21.333,0-21.333S175.16,466.527,175.16,462.26z"
		/>
	<path style="fill:#F7B64C;" d="M205.027,433.46c4.267-2.133,8.533-4.267,10.667-5.333c1.067-1.067,2.133-1.067,3.2-1.067
		c1.067,0,2.133,1.067,3.2,1.067c-2.133,0-4.267,1.067-5.333,2.133c-2.133,1.067-5.333,3.2-10.667,5.333
		c-6.4,3.2-13.867,7.467-16,8.533l0,0l-1.067-2.133l0,0C191.16,440.927,198.627,436.66,205.027,433.46z"/>
	<path style="fill:#F7B64C;" d="M186.893,418.527c0,0,6.4,7.467,8.533,10.667c2.133,3.2,2.133,6.4,2.133,6.4s-5.333,6.4-8.533,6.4
		c-3.2,1.067-7.467-2.133-10.667,0c-3.2,2.133-4.267,3.2-4.267,3.2s0-4.267,4.267-5.333l-2.133-3.2c0,0,6.4,0,8.533-1.067
		C186.893,433.46,194.36,431.327,186.893,418.527z"/>
</g>
<path style="fill:#FFD15C;" d="M214.627,501.727c1.067,1.067,4.267,2.133,9.6,5.333c8.533,4.267,11.733,6.4,16,5.333
	s10.667-9.6,11.733-13.867c1.067-4.267,2.133-8.533,4.267-14.933c2.133-5.333-1.067-10.667-2.133-11.733
	c-1.067-1.067-2.133-1.067-2.133-1.067s7.467-9.6,7.467-14.933c0-4.267-6.4-11.733-11.733-7.467c0,0,5.333-6.4,0-10.667
	c-5.333-5.333-10.667-1.067-14.933,2.133c-4.267,3.2-6.4,4.267-6.4,4.267s7.467-6.4,5.333-12.8c-3.2-6.4-10.667-3.2-14.933-1.067
	c-4.267,2.133-22.4,12.8-25.6,13.867c-3.2,1.067-10.667,5.333-10.667,5.333s-9.6,11.733-4.267,19.2s7.467,5.333,10.667,8.533
	c2.133,3.2-1.067,3.2,4.267,7.467C195.427,488.927,213.56,500.66,214.627,501.727z"/>
<g>
	<path style="fill:#F7B64C;" d="M195.427,469.727L195.427,469.727c1.067,0,1.067,0,2.133-1.067c0,0,1.067-1.067,2.133-1.067
		s1.067-1.067,2.133-2.133c0,0,0,0,0-1.067c0,0,0,0,0-1.067l1.067-1.067l0,0l0,0c0,0,0,0,0-1.067l1.067-1.067l1.067-1.067
		l1.067-1.067c1.067-1.067,2.133-2.133,3.2-2.133c1.067-1.067,2.133-2.133,3.2-2.133l1.067-1.067c0,0,0,0,1.067-1.067
		c0,0,0,0,1.067-1.067c1.067-1.067,2.133-1.067,2.133-2.133c1.067-1.067,1.067-1.067,2.133-2.133c1.067-1.067,2.133-2.133,3.2-3.2
		l1.067-1.067l0,0c0,0-1.067,0-1.067,1.067c-1.067,1.067-2.133,1.067-4.267,2.133c-1.067,0-2.133,1.067-2.133,2.133
		c-1.067,1.067-2.133,1.067-3.2,2.133c0,0,0,0-1.067,1.067c0,0,0,0-1.067,1.067l-1.067,1.067c-1.067,1.067-2.133,1.067-3.2,2.133
		c-1.067,1.067-2.133,2.133-3.2,2.133c-1.067,1.067-2.133,2.133-2.133,2.133l-1.067,1.067c0,0,0,0,0,1.067l0,0l0,0c0,0,0,0,0,1.067
		c0,0,0,0,0,1.067c0,0,0,0,0,1.067c0,0,0,0,0,1.067c-1.067,1.067-1.067,1.067-1.067,2.133c0,1.067-1.067,1.067-1.067,1.067
		C196.493,468.66,196.493,469.727,195.427,469.727L195.427,469.727z"/>
	<path style="fill:#F7B64C;" d="M212.493,484.66L212.493,484.66c0-1.067,0-1.067,1.067-2.133c0-1.067,1.067-1.067,2.133-2.133
		l1.067-1.067c0,0,0,0,1.067,0c0,0,0,0,1.067,0c1.067-1.067,2.133-1.067,3.2-2.133c1.067-1.067,2.133-2.133,3.2-3.2
		c1.067-1.067,2.133-2.133,3.2-3.2c0,0,0-1.067,1.067-1.067l0,0l0,0l0,0l0,0l0,0l0,0l0,0c0,0,0-1.067,1.067-1.067l1.067-1.067
		c1.067-1.067,2.133-2.133,3.2-3.2c1.067-1.067,2.133-2.133,3.2-3.2c1.067-1.067,2.133-2.133,3.2-3.2c0,0,0,0,1.067-1.067l0,0l0,0
		l0,0l0,0v-1.067c0,0,0,0,0-1.067c1.067-1.067,1.067-2.133,2.133-3.2c1.067-1.067,1.067-1.067,1.067-2.133
		c1.067-1.067,1.067-2.133,1.067-2.133l0,0l-1.067,1.067c0,0-1.067,1.067-2.133,2.133c-1.067,1.067-1.067,1.067-2.133,2.133
		c0,0,0,0-1.067,1.067c0,0,0,1.067-1.067,1.067l0,0l0,0l0,0l0,0l0,0l0,0l0,0c0,0,0,0-1.067,1.067c-1.067,1.067-2.133,2.133-3.2,3.2
		c-1.067,1.067-2.133,2.133-3.2,3.2c-1.067,1.067-2.133,2.133-3.2,3.2l-1.067,1.067l-1.067,1.067l0,0l0,0l0,0l0,0l0,0
		c0,0,0,1.067-1.067,1.067c-1.067,1.067-2.133,2.133-3.2,3.2c-1.067,1.067-2.133,2.133-3.2,3.2c-1.067,1.067-2.133,2.133-3.2,3.2
		c0,0,0,0-1.067,0c0,0,0,0-1.067,0l-1.067,1.067c-1.067,1.067-1.067,1.067-2.133,2.133
		C212.493,483.594,212.493,484.66,212.493,484.66L212.493,484.66z"/>
	<path style="fill:#F7B64C;" d="M229.56,496.394c0,0,0,0,1.067-1.067l1.067-1.067c0,0,1.067-1.067,1.067-2.133
		c1.067-1.067,1.067-1.067,2.133-2.133l0,0l0,0c0,0,0,0,1.067,0c0,0,0,0,1.067-1.067c0,0,0,0,1.067-1.067
		c1.067-1.067,1.067-1.067,2.133-2.133c1.067-1.067,1.067-2.133,2.133-2.133c1.067-1.067,1.067-2.133,2.133-2.133
		c1.067-1.067,1.067-2.133,2.133-2.133l1.067-1.067c0,0,0,0,0-1.067c0,0,0,0,0-1.067s1.067-1.067,1.067-2.133
		c1.067-1.067,2.133-2.133,2.133-3.2c0,0,0-1.067,1.067-1.067l0,0l0,0c0,0,0,0-1.067,1.067l-1.067,1.067
		c0,0-1.067,1.067-1.067,2.133c-1.067,1.067-1.067,1.067-2.133,2.133c0,0,0,0,0,1.067c0,0,0,0,0,1.067l-1.067,1.067
		c-1.067,1.067-1.067,2.133-2.133,2.133c-1.067,1.067-1.067,2.133-2.133,2.133c-1.067,1.067-1.067,2.133-2.133,2.133l-1.067,1.067
		l-1.067,1.067c0,0,0,0,0,1.067l0,0l0,0l0,0c-1.067,1.067-1.067,1.067-2.133,2.133c0,1.067-1.067,1.067-1.067,2.133
		c0,1.067-1.067,1.067-1.067,2.133C229.56,495.327,229.56,496.394,229.56,496.394L229.56,496.394z"/>
</g>
<path style="fill:#415A6B;" d="M261.56,324.66l-8.533,1.067c-1.067-3.2-3.2-7.467-5.333-10.667l5.333-6.4
	c2.133-3.2,2.133-7.467-1.067-9.6l-5.333-4.267c-3.2-2.133-7.467-2.133-9.6,1.067l-5.333,6.4c-3.2-1.067-7.467-3.2-10.667-3.2
	l-1.067-8.533c0-4.267-4.267-6.4-7.467-6.4l-7.467,1.067c-4.267,0-6.4,4.267-6.4,7.467l1.067,8.533
	c-3.2,1.067-7.467,3.2-10.667,5.333l-6.4-5.333c-3.2-2.133-7.467-2.133-9.6,1.067l-4.267,5.333c-2.133,3.2-2.133,7.467,1.067,9.6
	l6.4,5.333c-1.067,3.2-3.2,7.467-3.2,10.667l-8.533,1.067c-4.267,0-6.4,4.267-6.4,7.467l1.067,7.467c0,4.267,4.267,6.4,7.467,6.4
	l8.533-1.067c1.067,3.2,3.2,7.467,5.333,10.667l-5.333,6.4c-2.133,3.2-2.133,7.467,1.067,9.6l5.333,4.267
	c3.2,2.133,7.467,2.133,9.6-1.067l5.333-6.4c3.2,1.067,7.467,3.2,10.667,3.2l1.067,8.533c0,4.267,4.267,6.4,7.467,6.4l7.467-1.067
	c4.267,0,6.4-4.267,6.4-7.467l-1.067-8.533c3.2-1.067,7.467-3.2,9.6-5.333l6.4,5.333c3.2,2.133,7.467,2.133,9.6-1.067l4.267-5.333
	c2.133-3.2,2.133-7.467-1.067-9.6l-6.4-5.333c1.067-3.2,3.2-7.467,3.2-10.667l8.533-1.067c4.267,0,6.4-4.267,6.4-7.467l-1.067-7.467
	C269.027,326.794,265.827,324.66,261.56,324.66z M215.693,354.527c-7.467,1.067-14.933-4.267-14.933-12.8
	c-1.067-7.467,4.267-14.933,12.8-14.933c7.467-1.067,14.933,4.267,14.933,12.8C228.493,345.994,223.16,353.46,215.693,354.527z"/>
<path style="fill:#344A5E;" d="M211.427,312.927c-14.933,2.133-26.667,14.933-24.533,30.933
	c2.133,14.933,14.933,26.667,30.933,24.533c14.933-2.133,26.667-14.933,24.533-30.933
	C240.227,322.527,226.36,310.794,211.427,312.927z M215.693,354.527c-7.467,1.067-14.933-4.267-14.933-12.8
	c-1.067-7.467,4.267-14.933,12.8-14.933c7.467-1.067,14.933,4.267,14.933,12.8C228.493,345.994,223.16,353.46,215.693,354.527z"/>
<path style="fill:#F3F3F3;" d="M329.827,341.727l-5.333,3.2c-2.133-2.133-4.267-4.267-6.4-5.333l2.133-6.4
	c1.067-3.2-1.067-5.333-3.2-6.4l-5.333-1.067c-3.2-1.067-5.333,1.067-6.4,3.2l-2.133,6.4c-3.2,0-5.333,0-8.533,1.067l-3.2-5.333
	c-1.067-2.133-4.267-3.2-6.4-2.133l-4.267,2.133c-2.133,1.067-3.2,4.267-2.133,6.4l3.2,5.333c-2.133,2.133-4.267,4.267-5.333,6.4
	l-6.4-2.133c-3.2-1.067-5.333,1.067-6.4,3.2l-1.067,5.333c-1.067,3.2,1.067,5.333,3.2,6.4l6.4,2.133c0,3.2,0,5.333,1.067,8.533
	l-6.4,4.267c-2.133,1.067-3.2,4.267-2.133,6.4l2.133,4.267c1.067,2.133,4.267,3.2,6.4,2.133l5.333-3.2
	c2.133,2.133,4.267,4.267,6.4,5.333l-2.133,6.4c-1.067,3.2,1.067,5.333,3.2,6.4l5.333,1.067c3.2,1.067,5.333-1.067,6.4-3.2
	l2.133-6.4c3.2,0,5.333,0,8.533-1.067l3.2,5.333c1.067,2.133,4.267,3.2,6.4,2.133l4.267-2.133c2.133-1.067,3.2-4.267,2.133-6.4
	l-3.2-5.333c2.133-2.133,4.267-4.267,5.333-6.4l6.4,2.133c3.2,1.067,5.333-1.067,6.4-3.2l1.067-5.333c1.067-3.2-1.067-5.333-3.2-6.4
	l-6.4-2.133c0-3.2,0-5.333-1.067-8.533l5.333-3.2c2.133-1.067,3.2-4.267,2.133-6.4l-2.133-4.267
	C335.16,341.727,331.96,340.66,329.827,341.727z M306.36,374.794c-5.333,3.2-10.667,1.067-13.867-4.267
	c-3.2-5.333-1.067-10.667,4.267-13.867s10.667-1.067,13.867,4.267C313.827,366.26,311.693,372.66,306.36,374.794z"/>
<path style="fill:#CED6E0;" d="M292.493,348.127c-9.6,5.333-13.867,18.133-8.533,27.733c5.333,9.6,18.133,13.867,27.733,8.533
	c9.6-5.333,13.867-18.133,8.533-27.733C313.827,347.06,302.093,342.794,292.493,348.127z M306.36,374.794
	c-5.333,3.2-10.667,1.067-13.867-4.267c-3.2-5.333-1.067-10.667,4.267-13.867s10.667-1.067,13.867,4.267
	C313.827,366.26,311.693,372.66,306.36,374.794z"/>
<g>
</g>
<g>
</g>
<g>
</g>
<g>
</g>
<g>
</g>
<g>
</g>
<g>
</g>
<g>
</g>
<g>
</g>
<g>
</g>
<g>
</g>
<g>
</g>
<g>
</g>
<g>
</g>
<g>
</g>
</svg>
