<?xml version="1.0" encoding="iso-8859-1"?>
<!-- Generator: Adobe Illustrator 19.0.0, SVG Export Plug-In . SVG Version: 6.00 Build 0)  -->
<svg version="1.1" id="Capa_1" xmlns="http://www.w3.org/2000/svg" xmlns:xlink="http://www.w3.org/1999/xlink" x="0px" y="0px"
	 viewBox="0 0 512 512" style="enable-background:new 0 0 512 512;" xml:space="preserve">
<path style="fill:#F3705A;" d="M268.8,486.4c-134.4,0-243.2-108.8-243.2-243.2S134.4,0,268.8,0S512,108.8,512,243.2
	S403.2,486.4,268.8,486.4z"/>
<path style="fill:#F3F3F3;" d="M268.8,434.133c-105.6,0-190.933-85.333-190.933-190.933S163.2,52.267,268.8,52.267
	S459.733,137.6,459.733,243.2S374.4,434.133,268.8,434.133z"/>
<path style="fill:#F3705A;" d="M268.8,382.933C192,382.933,129.067,320,129.067,243.2S192,103.467,268.8,103.467
	S408.533,166.4,408.533,243.2S345.6,382.933,268.8,382.933z"/>
<path style="fill:#F3F3F3;" d="M268.8,330.667c-48,0-87.467-39.467-87.467-87.467s39.467-87.467,87.467-87.467
	s87.467,39.467,87.467,87.467S316.8,330.667,268.8,330.667z"/>
<circle style="fill:#F3705A;" cx="268.8" cy="243.2" r="36.267"/>
<g>
	<path style="fill:#FFD15C;" d="M123.733,249.6c0,0,3.2,21.333,6.4,26.667l2.133,77.867L192,388.267L240,352c0,0-3.2-29.867,0-44.8
		c4.267-14.933,12.8-21.333,13.867-48c2.133-26.667,6.4-77.867,2.133-97.067S220.8,128,189.867,131.2
		c-30.933,2.133-64,1.067-68.267,14.933C117.333,160,123.733,249.6,123.733,249.6z"/>
	
		<ellipse transform="matrix(0.0891 0.996 -0.996 0.0891 347.1508 97.1456)" style="fill:#FFD15C;" cx="120.464" cy="238.367" rx="24.533" ry="12.8"/>
	
		<ellipse transform="matrix(0.0624 -0.9981 0.9981 0.0624 -9.866 482.2942)" style="fill:#FFD15C;" cx="251.751" cy="246.398" rx="24.534" ry="12.801"/>
</g>
<path style="fill:#415A6B;" d="M131.2,245.333H128c0,0-13.867-28.8-14.933-42.667C112,188.8,99.2,109.867,155.733,115.2
	c0,0,6.4-42.667,64-25.6s57.6,83.2,55.467,97.067c-3.2,10.667-17.067,53.333-20.267,65.067h-3.2
	c1.067-3.2,2.133-14.933,2.133-23.467c-1.067-9.6-1.067-27.733,0-40.533c0-12.8-4.267-32-10.667-33.067
	c-6.4-1.067-45.867,1.067-66.133-4.267S140.8,163.2,140.8,176c0,12.8-2.133,23.467-5.333,37.333
	C133.333,227.2,132.267,242.133,131.2,245.333z"/>
<path style="fill:#F7B64C;" d="M193.067,332.8C226.133,329.6,240,304,240,304l0,0v1.067c-12.8,39.467-64,52.267-98.133,55.467
	l-10.667-6.4l-2.133-77.867C134.4,292.267,160,337.067,193.067,332.8z"/>
<path style="fill:#8AD7F8;" d="M362.667,512v-66.133c0-32-19.2-60.8-48-73.6c-35.2-16-76.8-32-76.8-32L197.333,371.2l-13.867,1.067
	l-45.867-5.333l-16-33.067c0,0-39.467,18.133-73.6,33.067c-29.867,12.8-48,41.6-48,73.6V512H362.667z"/>
<g>
	<path style="fill:#415A6B;" d="M205.867,369.067l-8.533,1.067l-13.867,1.067l-26.667,7.467c8.533,8.533,16,17.067,21.333,25.6
		l21.333,2.133c4.267-9.6,10.667-17.067,20.267-23.467L205.867,369.067z"/>
	<path style="fill:#415A6B;" d="M169.6,512h61.867c-1.067-6.4-2.133-11.733-3.2-16c-10.667-37.333-28.8-72.533-27.733-88.533
		c1.067-16-17.067-18.133-17.067-18.133l-4.267,16c0,0-14.933,52.267-10.667,81.067C169.6,490.667,169.6,500.267,169.6,512z"/>
</g>
<g>
	<path style="fill:#F3F3F3;" d="M130.133,312.533c0,0,16,44.8,53.333,58.667c0,0-26.667,29.867-39.467,53.333
		c0,0-18.133-37.333-23.467-49.067c-5.333-10.667-11.733-24.533-4.267-41.6C123.733,318.933,130.133,312.533,130.133,312.533z"/>
	<path style="fill:#F3F3F3;" d="M237.867,327.467c0,0-16,24.533-40.533,42.667c0,0,14.933,11.733,26.667,32
		c11.733,20.267,11.733,20.267,11.733,20.267s12.8-43.733,12.8-54.4C248.533,358.4,237.867,327.467,237.867,327.467z"/>
</g>
<g>
</g>
<g>
</g>
<g>
</g>
<g>
</g>
<g>
</g>
<g>
</g>
<g>
</g>
<g>
</g>
<g>
</g>
<g>
</g>
<g>
</g>
<g>
</g>
<g>
</g>
<g>
</g>
<g>
</g>
</svg>
