<?xml version="1.0" encoding="iso-8859-1"?>
<!-- Generator: Adobe Illustrator 19.0.0, SVG Export Plug-In . SVG Version: 6.00 Build 0)  -->
<svg version="1.1" id="Capa_1" xmlns="http://www.w3.org/2000/svg" xmlns:xlink="http://www.w3.org/1999/xlink" x="0px" y="0px"
	 viewBox="0 0 513.364 513.364" style="enable-background:new 0 0 513.364 513.364;" xml:space="preserve">
<path style="fill:#344A5E;" d="M190.549,512.298c0-71.467-11.733-142.933-32-214.4c-26.667,12.8-19.2,75.733-21.333,97.067
	c-1.067,11.733-1.067,71.467-1.067,118.4h54.4V512.298z"/>
<path style="fill:#F3705A;" d="M369.749,95.231c0,41.6-1.067,84.267-1.067,125.867c0,14.933-1.067,29.867-9.6,41.6
	c-9.6,11.733-25.6,17.067-40.533,19.2c-16,3.2-33.067,4.267-50.133,4.267c-7.467,0-13.867,0-21.333-3.2
	c-9.6-4.267-16-13.867-20.267-23.467c-3.2-9.6-4.267-20.267-4.267-30.933c-1.067-13.867-1.067-28.8,1.067-42.667
	c2.133-13.867,6.4-27.733,16-39.467c9.6-11.733,23.467-19.2,38.4-24.533c14.933-4.267,29.867-6.4,45.867-7.467"/>
<path style="fill:#FFD15C;" d="M378.282,263.764l-19.2-29.867c0,0-10.667-7.467-11.733-17.067c-1.067-9.6,0-19.2,0-19.2
	s13.867-38.4,9.6-96l-39.467-61.867l-55.467-9.6l-45.867,75.733c0,0-2.133,70.4,34.133,108.8c0,0,7.467,24.533,6.4,29.867
	l-18.133,26.667l-9.6,57.6l49.067,24.533C278.016,351.231,359.082,313.898,378.282,263.764z"/>
<path style="fill:#F7B64C;" d="M369.749,259.498l-7.467-22.4l-2.133-4.267c0,0-10.667-7.467-11.733-17.067s0-19.2,0-19.2
	c-55.467,75.733-98.133,17.067-98.133,17.067C300.416,292.564,369.749,259.498,369.749,259.498z"/>
<path style="fill:#E8EAE9;" d="M312.149,512.298l64-251.733l-24.533-3.2c-18.133,42.667-94.933,76.8-105.6,60.8
	c-10.667-16-8.533-49.067-8.533-49.067c-21.333,13.867-33.067,171.733-37.333,243.2H312.149z"/>
<path style="fill:#344A5E;" d="M430.549,479.231c-1.067,7.467-2.133,19.2-2.133,33.067h82.133c1.067-19.2,2.133-38.4,2.133-53.333
	c0-36.267-13.867-136.533-17.067-154.667c-3.2-19.2-20.267-23.467-20.267-23.467s-66.133,40.533-66.133,42.667l12.8,112
	C422.016,435.498,434.816,458.964,430.549,479.231z"/>
<g>
	<path style="fill:#415A6B;" d="M183.082,512.298h52.267c-4.267-8.533-8.533-17.067-12.8-26.667
		c-28.8-59.733,13.867-208,34.133-243.2c0,0-20.267,13.867-29.867,21.333c-9.6,6.4-68.267,34.133-68.267,34.133
		s-8.533,53.333,0,98.133C163.882,423.764,175.616,471.764,183.082,512.298z"/>
	<path style="fill:#415A6B;" d="M419.882,512.298c2.133-22.4,7.467-48,17.067-71.467c0,0-10.667-134.4,38.4-160
		c0,0-41.6-19.2-72.533-29.867c-9.6-3.2-37.333-16-43.733-18.133c0,0-24.533,64-44.8,103.467
		c-27.733,53.333-44.8,131.2-50.133,174.933h155.733V512.298z"/>
</g>
<g>
	<path style="fill:#F3705A;" d="M291.882,53.631c0,0,10.667,0,35.2,22.4s32,38.4,34.133,49.067
		c2.133,10.667-11.733,92.8-11.733,92.8c11.733,39.467,22.4,75.733,72.533,110.933c0,0-27.733-97.067-37.333-131.2
		c-9.6-34.133,9.6-62.933-8.533-120.533c-18.133-57.6-56.533-80-98.133-76.8s-65.067,42.667-69.333,66.133
		s-1.067,107.733,3.2,126.933s19.2,106.667,19.2,106.667l-3.2-125.867c0,0-9.6-26.667-2.133-43.733
		c6.4-18.133,1.067-50.133,14.933-62.933C252.416,56.831,272.682,49.364,291.882,53.631z"/>
	<path style="fill:#F3705A;" d="M209.749,178.431c0,0,7.467,77.867-3.2,122.667c-11.733,44.8-19.2,54.4-19.2,54.4
		s45.867-18.133,53.333-65.067c8.533-48,0-64,0-64"/>
	<path style="fill:#F3705A;" d="M258.816,310.698c-6.4,14.933-17.067,27.733-24.533,42.667c-7.467,14.933-11.733,32-6.4,46.933
		c-13.867-10.667-17.067-30.933-14.933-48c2.133-17.067,9.6-33.067,13.867-50.133c5.333-24.533,4.267-49.067,3.2-73.6l20.267-14.933
		C270.549,240.298,272.682,279.764,258.816,310.698z"/>
	<path style="fill:#F3705A;" d="M348.415,196.564c-5.333,19.2-1.067,51.2,5.333,69.333c5.333,14.933,14.933,28.8,19.2,43.733
		c4.267,16,4.267,32-1.067,48c9.6-3.2,14.933-13.867,16-23.467s-2.133-20.267-5.333-28.8c-4.267-9.6-9.6-18.133-12.8-26.667
		c-9.6-23.467-8.533-51.2,1.067-73.6"/>
</g>
<path style="fill:#66C6B9;" d="M255.616,405.631v-41.6l-34.133-7.467c-2.133-5.333-4.267-11.733-6.4-17.067l18.133-29.867
	l-29.867-29.867l-29.867,19.2c-5.333-3.2-10.667-5.333-17.067-6.4l-7.467-34.133h-41.6l-7.467,34.133
	c-5.333,2.133-11.733,4.267-16,6.4l-29.867-18.133l-30.933,28.8l18.133,29.867c-3.2,5.333-5.333,10.667-6.4,17.067l-34.133,7.467
	v41.6l34.133,7.467c2.133,5.333,4.267,11.733,6.4,17.067l-18.133,29.867l29.867,29.867l29.867-18.133c5.333,3.2,10.667,5.333,16,6.4
	l8.533,34.133h41.6l7.467-34.133c5.333-2.133,11.733-4.267,17.067-6.4l29.867,18.133l29.867-29.867l-19.2-29.867
	c3.2-5.333,5.333-10.667,6.4-17.067L255.616,405.631z M127.616,423.764c-21.333,0-38.4-17.067-38.4-38.4
	c0-21.333,17.067-38.4,38.4-38.4s38.4,17.067,38.4,38.4C166.016,405.631,148.949,423.764,127.616,423.764z"/>
<path style="fill:#4ABAA5;" d="M127.616,320.298c-35.2,0-65.067,28.8-65.067,64s28.8,64,65.067,64c35.2,0,64-28.8,64-64
	C192.682,349.098,163.882,320.298,127.616,320.298z M127.616,423.764c-21.333,0-38.4-17.067-38.4-38.4
	c0-21.333,17.067-38.4,38.4-38.4s38.4,17.067,38.4,38.4C166.016,405.631,148.949,423.764,127.616,423.764z"/>
<g>
</g>
<g>
</g>
<g>
</g>
<g>
</g>
<g>
</g>
<g>
</g>
<g>
</g>
<g>
</g>
<g>
</g>
<g>
</g>
<g>
</g>
<g>
</g>
<g>
</g>
<g>
</g>
<g>
</g>
</svg>
