<?xml version="1.0" encoding="iso-8859-1"?>
<!-- Generator: Adobe Illustrator 19.0.0, SVG Export Plug-In . SVG Version: 6.00 Build 0)  -->
<svg version="1.1" id="Capa_1" xmlns="http://www.w3.org/2000/svg" xmlns:xlink="http://www.w3.org/1999/xlink" x="0px" y="0px"
	 viewBox="0 0 512 512" style="enable-background:new 0 0 512 512;" xml:space="preserve">
<g>
	<polygon style="fill:#CED6E0;" points="218.667,216.533 141.867,345.6 141.867,304 194.133,216.533 	"/>
	<polygon style="fill:#CED6E0;" points="285.867,216.533 310.4,216.533 409.6,402.133 141.867,402.133 141.867,380.8 373.333,380.8 
			"/>
</g>
<circle style="fill:#F3F3F3;" cx="256" cy="147.2" r="109.867"/>
<path style="fill:#344A5E;" d="M344.533,243.2c-2.133-11.733-4.267-23.467-6.4-25.6c-4.267-5.333-11.733-6.4-24.533-12.8
	c-12.8-6.4-22.4-8.533-22.4-8.533s5.333,33.067,10.667,67.2C320,256,337.067,248.533,344.533,243.2z"/>
<path style="fill:#FFD15C;" d="M304,112l-3.2,9.6c0,0,1.067,21.333-1.067,29.867c-2.133,8.533-9.6,19.2-18.133,24.533l-7.467,29.867
	l-48-13.867l2.133-27.733c0,0,0-23.467-1.067-28.8c0-5.333-5.333-32,10.667-43.733s29.867-16,41.6-10.667S310.4,89.6,304,112z"/>
<path style="fill:#415A6B;" d="M230.4,133.333h5.333c0,0-1.067-11.733,1.067-16c2.133-4.267,5.333-8.533,6.4-12.8
	c0-4.267,8.533-10.667,21.333-9.6s34.133,0,36.267,10.667c2.133,9.6,1.067,18.133,1.067,18.133s4.267-5.333,6.4-17.067
	c1.067-14.933-10.667-32-22.4-39.467s-44.8-7.467-55.467,7.467s-8.533,40.533-8.533,44.8c1.067,4.267,8.533,3.2,8.533,3.2V133.333z"
	/>
<ellipse transform="matrix(-0.117 -0.9931 0.9931 -0.117 122.2791 371.0703)" style="fill:#FFD15C;" cx="226.099" cy="131.176" rx="13.866" ry="7.466"/>
<path style="fill:#F7B64C;" d="M281.6,176c0,0-7.467,4.267-18.133,1.067c-10.667-3.2-27.733-18.133-29.867-23.467
	c0,0,7.467,36.267,41.6,50.133L281.6,176z"/>
<path style="fill:#CED6E0;" d="M304,261.333L284.8,195.2l-19.2,2.133h-1.067L256,196.267l-30.933-6.4l9.6,84.267
	C254.933,276.267,281.6,269.867,304,261.333z"/>
<g>
	<path style="fill:#4ABAA5;" d="M288,266.667c-3.2-10.667-6.4-20.267-9.6-24.533c-7.467-11.733-7.467-24.533-7.467-24.533L268.8,208
		l-5.333,1.067l-4.267,7.467c0,0-2.133,9.6-3.2,19.2c-1.067,7.467,3.2,27.733,6.4,37.333C269.867,272,279.467,269.867,288,266.667z"
		/>
	<path style="fill:#4ABAA5;" d="M253.867,199.467c7.467-1.067,16,0,22.4,2.133c-3.2,5.333-5.333,10.667-6.4,17.067
		c-4.267-2.133-8.533-3.2-11.733-2.133c-2.133-4.267-5.333-8.533-9.6-12.8"/>
</g>
<path style="fill:#344A5E;" d="M231.467,274.133c6.4,1.067,12.8,1.067,20.267,0c-13.867-38.4-35.2-97.067-35.2-97.067
	s-53.333,18.133-64,23.467c-3.2,1.067-6.4,5.333-9.6,10.667C165.333,241.067,194.133,268.8,231.467,274.133z"/>
<path style="fill:#415A6B;" d="M320,256c-2.133-20.267-5.333-32-5.333-32L304,218.667l8.533-2.133c0,0-8.533-10.667-14.933-16
	c-6.4-6.4-16-11.733-16-11.733v9.6c7.467,10.667,13.867,38.4,18.133,66.133C307.2,261.333,313.6,258.133,320,256z"/>
<g>
	<path style="fill:#E8EAE9;" d="M281.6,178.133c0,0-4.267,12.8-16,19.2c0,0,11.733,7.467,18.133,22.4c0,0-1.067-13.867,0-24.533
		C284.8,184.533,282.667,179.2,281.6,178.133z"/>
	<path style="fill:#E8EAE9;" d="M228.267,163.2c0,0,6.4,13.867,36.267,35.2L240,217.6l-21.333-34.133L228.267,163.2z"/>
</g>
<path style="fill:#415A6B;" d="M240,274.133c7.467,0,14.933,0,22.4-2.133c-9.6-32-24.533-69.333-29.867-82.133
	c-6.4-14.933-7.467-22.4-7.467-22.4s-11.733,7.467-11.733,14.933c0,6.4-5.333,21.333-5.333,21.333l11.733,8.533L208,217.6
	C209.067,217.6,224,245.333,240,274.133z"/>
<path style="fill:#F3705A;" d="M256,0c-81.067,0-147.2,66.133-147.2,147.2S174.933,294.4,256,294.4s147.2-66.133,147.2-147.2
	S337.067,0,256,0z M256,258.133c-60.8,0-109.867-49.067-109.867-109.867S195.2,38.4,256,38.4s109.867,49.067,109.867,109.867
	C365.867,208,316.8,258.133,256,258.133z"/>
<circle style="fill:#F3F3F3;" cx="120.533" cy="391.467" r="89.6"/>
<path style="fill:#FFD15C;" d="M97.067,377.6c0,0,0,11.733,3.2,18.133L96,424.533l16,24.533l27.733-14.933
	c0,0,1.067-26.667,2.133-35.2c0,0,5.333-9.6,6.4-27.733s3.2-39.467-17.067-42.667c-20.267-3.2-29.867,2.133-33.067,6.4
	C94.933,339.2,97.067,377.6,97.067,377.6z"/>
<path style="fill:#CED6E0;" d="M102.4,486.4c-2.133,0-6.4-1.067-11.733-1.067L73.6,441.6l45.867-7.467
	c29.867-7.467,39.467,10.667,39.467,10.667l-13.867,42.667C131.2,488.533,116.267,487.467,102.4,486.4z"/>
<g>
	<polygon style="fill:#F3705A;" points="112,456.533 104.533,448 119.467,433.067 134.4,448 125.867,456.533 	"/>
	<polygon style="fill:#F3705A;" points="112,456.533 104.533,448 119.467,433.067 134.4,448 125.867,456.533 	"/>
	<polygon style="fill:#F3705A;" points="108.8,488.533 112,456.533 125.867,456.533 130.133,488.533 	"/>
</g>
<g>
	<path style="fill:#FFD15C;" d="M91.733,373.333c0,5.333,2.133,9.6,5.333,9.6s4.267-4.267,3.2-9.6c-1.067-5.333-2.133-9.6-5.333-9.6
		S91.733,368,91.733,373.333z"/>
	<path style="fill:#FFD15C;" d="M153.6,374.4c-1.067,5.333-3.2,9.6-6.4,8.533s-3.2-4.267-2.133-9.6c1.067-5.333,3.2-9.6,6.4-8.533
		C153.6,363.733,154.667,369.067,153.6,374.4z"/>
</g>
<path style="fill:#415A6B;" d="M93.867,334.933c5.333-12.8,14.933-8.533,14.933-8.533c21.333-19.2,44.8,2.133,46.933,12.8
	c3.2,10.667-2.133,25.6-2.133,26.667c0,1.067-4.267,8.533-4.267,10.667h-1.067c0-2.133,0-11.733-2.133-14.933
	c-1.067-4.267,1.067-13.867,2.133-18.133c0-4.267-7.467-3.2-19.2-3.2S108.8,332.8,108.8,332.8c-5.333,5.333-7.467,19.2-7.467,23.467
	s-1.067,16-1.067,18.133h-3.2c0,0,0-1.067,0-4.267C96,368,88.533,347.733,93.867,334.933z"/>
<path style="fill:#F7B64C;" d="M100.267,395.733c2.133,7.467,8.533,18.133,20.267,19.2c11.733,1.067,22.4-16,22.4-16
	c-1.067,6.4-2.133,25.6-2.133,33.067C101.333,430.933,100.267,395.733,100.267,395.733z"/>
<path style="fill:#344A5E;" d="M70.4,482.133c-9.6-9.6-20.267-17.067-33.067-21.333V448c0-10.667,7.467-19.2,18.133-21.333
	l29.867-6.4L99.2,485.333C94.933,485.333,81.067,484.267,70.4,482.133z"/>
<path style="fill:#FFFFFF;" d="M98.133,409.6c0,0,5.333,11.733,21.333,23.467c0,0-13.867,6.4-17.067,13.867l-11.733-25.6
	L98.133,409.6z"/>
<path style="fill:#415A6B;" d="M102.4,486.4c-2.133,0-9.6-1.067-17.067-2.133c-10.667-22.4-20.267-44.8-20.267-51.2l10.667-2.133
	l-3.2-4.267c0,0,8.533-4.267,13.867-8.533c5.333-4.267,6.4-5.333,9.6-5.333C96,412.8,100.267,457.6,102.4,486.4L102.4,486.4z"/>
<path style="fill:#344A5E;" d="M152.533,484.267c-4.267,2.133-9.6,2.133-14.933,3.2l13.867-66.133l29.867,6.4
	c9.6,2.133,17.067,10.667,18.133,21.333v7.467C185.6,467.2,169.6,477.867,152.533,484.267z"/>
<path style="fill:#FFFFFF;" d="M140.8,409.6c0,0-5.333,11.733-21.333,23.467c0,0,13.867,6.4,17.067,13.867l11.733-25.6L140.8,409.6z
	"/>
<path style="fill:#415A6B;" d="M153.6,483.2h-1.067c-5.333,2.133-10.667,3.2-17.067,3.2c3.2-28.8,6.4-74.667,6.4-74.667
	c3.2,0,4.267,2.133,9.6,5.333c5.333,3.2,13.867,8.533,13.867,8.533l-3.2,4.267L172.8,432
	C173.867,439.467,164.267,461.867,153.6,483.2z"/>
<path style="fill:#4ABAA5;" d="M0,391.467C0,457.6,54.4,512,120.533,512s120.533-54.4,120.533-120.533
	s-54.4-120.533-120.533-120.533S0,325.333,0,391.467z M30.933,391.467c0-50.133,40.533-89.6,89.6-89.6
	c50.133,0,89.6,40.533,89.6,89.6c0,50.133-40.533,89.6-89.6,89.6C70.4,481.067,30.933,441.6,30.933,391.467z"/>
<circle style="fill:#F3F3F3;" cx="391.467" cy="391.467" r="89.6"/>
<g>
	<path style="fill:#FFD15C;" d="M374.4,387.2c0,0,1.067,8.533,2.133,10.667L377.6,428.8l23.467,13.867l19.2-14.933
		c0,0-1.067-11.733,0-18.133c2.133-5.333,5.333-8.533,5.333-19.2c1.067-10.667,2.133-30.933,1.067-38.4
		c-2.133-7.467-13.867-13.867-25.6-12.8c-12.8,1.067-25.6,1.067-26.667,6.4C372.267,350.933,374.4,387.2,374.4,387.2z"/>
	
		<ellipse transform="matrix(0.0891 0.996 -0.996 0.0891 720.4643 -23.8008)" style="fill:#FFD15C;" cx="373.245" cy="381.992" rx="9.6" ry="5.333"/>
	
		<ellipse transform="matrix(0.0624 -0.9981 0.9981 0.0624 13.6405 786.8582)" style="fill:#FFD15C;" cx="425.597" cy="386.169" rx="9.6" ry="5.334"/>
</g>
<path style="fill:#415A6B;" d="M377.6,385.067h-1.067c0,0-5.333-11.733-6.4-17.067c0-5.333-5.333-36.267,17.067-35.2
	c0,0,2.133-17.067,25.6-9.6s23.467,33.067,21.333,38.4c-1.067,4.267-6.4,21.333-8.533,25.6h-1.067c0-1.067,1.067-6.4,1.067-9.6
	c0-4.267,0-10.667,0-16c0-5.333-2.133-12.8-4.267-12.8c-2.133,0-18.133,1.067-26.667-2.133c-8.533-2.133-13.867,5.333-13.867,10.667
	s-1.067,9.6-2.133,14.933C378.667,378.667,377.6,384,377.6,385.067z"/>
<path style="fill:#F7B64C;" d="M402.133,420.267c12.8-1.067,19.2-11.733,19.2-11.733l0,0l0,0c-5.333,16-25.6,21.333-38.4,22.4
	l-4.267-2.133l-1.067-30.933C378.667,404.267,389.333,421.333,402.133,420.267z"/>
<path style="fill:#F3705A;" d="M454.4,473.6c-24.533,7.467-52.267,11.733-74.667,14.933c-1.067,0-1.067,0-2.133,0
	c-21.333,0-44.8-2.133-59.733-16c-2.133-2.133-4.267-4.267-6.4-7.467c0-5.333,1.067-8.533,1.067-10.667
	c2.133-7.467,12.8-13.867,25.6-21.333c11.733-7.467,35.2-13.867,35.2-13.867l6.4,12.8l18.133,2.133h5.333l16-12.8
	c0,0,5.333,2.133,9.6,4.267c4.267,2.133,33.067,12.8,40.533,18.133c5.333,4.267,9.6,7.467,11.733,13.867
	C472.533,464,464,469.333,454.4,473.6z"/>
<g>
	<path style="fill:#415A6B;" d="M407.467,434.133h-3.2h-5.333l-10.667,3.2c3.2,3.2,6.4,6.4,8.533,9.6l8.533,1.067
		c1.067-4.267,4.267-6.4,7.467-9.6L407.467,434.133z"/>
	<path style="fill:#415A6B;" d="M392.533,486.4c0-3.2,0-5.333,0-6.4c-2.133-11.733,4.267-32,4.267-32l2.133-6.4
		c0,0,6.4,1.067,6.4,7.467c0,6.4,6.4,19.2,10.667,34.133C407.467,484.267,400,485.333,392.533,486.4z"/>
</g>
<g>
	<path style="fill:#F3F3F3;" d="M377.6,411.733c0,0,6.4,18.133,21.333,23.467c0,0-10.667,11.733-16,21.333
		c0,0-7.467-14.933-9.6-19.2c-2.133-4.267-4.267-9.6-2.133-16C373.333,414.933,377.6,411.733,377.6,411.733z"/>
	<path style="fill:#F3F3F3;" d="M420.267,418.133c0,0-6.4,9.6-16,17.067c0,0,6.4,5.333,10.667,12.8
		c4.267,7.467,4.267,7.467,4.267,7.467s5.333-17.067,5.333-21.333C423.467,429.867,420.267,418.133,420.267,418.133z"/>
</g>
<path style="fill:#55C0EB;" d="M270.933,391.467c0,66.133,54.4,120.533,120.533,120.533S512,457.6,512,391.467
	s-54.4-120.533-120.533-120.533S270.933,325.333,270.933,391.467z M301.867,391.467c0-50.133,40.533-89.6,89.6-89.6
	c50.133,0,89.6,40.533,89.6,89.6c0,50.133-40.533,89.6-89.6,89.6C341.333,481.067,301.867,441.6,301.867,391.467z"/>
<g>
</g>
<g>
</g>
<g>
</g>
<g>
</g>
<g>
</g>
<g>
</g>
<g>
</g>
<g>
</g>
<g>
</g>
<g>
</g>
<g>
</g>
<g>
</g>
<g>
</g>
<g>
</g>
<g>
</g>
</svg>
