<?xml version="1.0" encoding="iso-8859-1"?>
<!-- Generator: Adobe Illustrator 19.0.0, SVG Export Plug-In . SVG Version: 6.00 Build 0)  -->
<svg version="1.1" id="Capa_1" xmlns="http://www.w3.org/2000/svg" xmlns:xlink="http://www.w3.org/1999/xlink" x="0px" y="0px"
	 viewBox="0 0 512 512" style="enable-background:new 0 0 512 512;" xml:space="preserve">
<g>
	<polygon style="fill:#415A6B;" points="341.333,113.067 221.867,182.4 221.867,219.733 341.333,149.333 	"/>
	<polygon style="fill:#415A6B;" points="341.333,346.667 221.867,276.267 221.867,313.6 341.333,384 	"/>
</g>
<path style="fill:#E8EAE9;" d="M140.8,361.6c-58.667,0-105.6-48-105.6-105.6c0-58.667,48-105.6,105.6-105.6
	c58.667,0,105.6,48,105.6,105.6C247.467,314.667,199.467,361.6,140.8,361.6z"/>
<path style="fill:#344A5E;" d="M180.267,369.067c7.467-2.133,14.933-4.267,21.333-6.4c8.533-4.267,17.067-8.533,25.6-13.867
	c-2.133-9.6-5.333-17.067-6.4-20.267c-4.267-7.467-10.667-17.067-16-18.133c-5.333-1.067-7.467-1.067-14.933-6.4
	c-7.467-4.267-20.267-7.467-20.267-7.467s0,4.267,1.067,11.733C171.733,314.667,178.133,353.067,180.267,369.067z"/>
<path style="fill:#FFD15C;" d="M171.733,237.867c0,0,1.067,17.067-7.467,30.933L160,320l-49.067-10.667l2.133-36.267
	c0,0-2.133-30.933-2.133-32c0-1.067-3.2-22.4,3.2-42.667c6.4-20.267,25.6-23.467,36.267-22.4c10.667,1.067,25.6,9.6,25.6,19.2
	C176,205.867,172.8,233.6,171.733,237.867z"/>
<path style="fill:#CED6E0;" d="M178.133,370.133l-7.467-71.467l-35.2,2.133l-18.133,3.2l35.2,70.4
	C161.067,373.333,169.6,372.267,178.133,370.133z"/>
<g>
	<polygon style="fill:#F3705A;" points="149.333,306.133 151.467,307.2 151.467,304 	"/>
	<path style="fill:#F3705A;" d="M176,371.2c-2.133-10.667-3.2-21.333-5.333-25.6c-5.333-12.8-11.733-34.133-11.733-34.133
		l-6.4-4.267l-1.067,5.333c0,0,1.067,13.867,0,22.4c-2.133,4.267-2.133,22.4-2.133,40.533C157.867,374.4,166.4,372.267,176,371.2z"
		/>
	<path style="fill:#F3705A;" d="M141.867,296.533h7.467h7.467l5.333,2.133c0,0-3.2,9.6-3.2,12.8
		c-2.133-1.067-5.333-1.067-7.467,1.067c0,0-4.267-9.6-8.533-12.8C136.533,297.6,141.867,296.533,141.867,296.533z"/>
</g>
<ellipse transform="matrix(-0.2165 0.9763 -0.9763 -0.2165 435.0497 116.1659)" style="fill:#FFD15C;" cx="170.911" cy="232.655" rx="12.8" ry="6.4"/>
<path style="fill:#415A6B;" d="M112,236.8h4.267c0,0-3.2-12.8-1.067-19.2c2.133-6.4,4.267-5.333,4.267-13.867s0-13.867,6.4-14.933
	c6.4-2.133,28.8,2.133,36.267,3.2c7.467,1.067,10.667,10.667,11.733,14.933c0,4.267,0,24.533,0,24.533h1.067
	c0,0,1.067-14.933,3.2-24.533c2.133-8.533,0-34.133-26.667-40.533s-42.667,9.6-46.933,21.333c-4.267,10.667-1.067,34.133,0,36.267
	C106.667,225.067,113.067,232.533,112,236.8z"/>
<ellipse transform="matrix(-0.2165 -0.9763 0.9763 -0.2165 -96.8295 389.3482)" style="fill:#FFD15C;" cx="107.818" cy="233.529" rx="12.8" ry="6.4"/>
<path style="fill:#F7B64C;" d="M146.133,279.467c-12.8-3.2-26.667-17.067-29.867-21.333c0,0,9.6,19.2,28.8,28.8
	c8.533,4.267,13.867,6.4,18.133,8.533l2.133-25.6C164.267,268.8,157.867,282.667,146.133,279.467z"/>
<path style="fill:#F3F3F3;" d="M113.067,270.933c0,0,21.333,19.2,36.267,24.533l-13.867,22.4L107.733,281.6L113.067,270.933z"/>
<path style="fill:#344A5E;" d="M54.4,340.267c32,34.133,68.267,39.467,107.733,34.133c-9.6-20.267-24.533-48-29.867-53.333
	c-7.467-8.533-13.867-21.333-13.867-21.333L104.533,288c0,0-38.4,20.267-43.733,22.4c-4.267,2.133-10.667,8.533-12.8,23.467
	C49.067,334.933,52.267,337.067,54.4,340.267z"/>
<g>
	<path style="fill:#415A6B;" d="M119.467,306.133l-5.333,4.267c0,0,29.867,33.067,44.8,64c3.2,0,6.4-1.067,9.6-1.067
		c-2.133-7.467-4.267-14.933-6.4-20.267c-7.467-17.067-30.933-51.2-40.533-60.8s-13.867-14.933-13.867-14.933L99.2,288
		c2.133,2.133,11.733,16,11.733,16L119.467,306.133z"/>
	<path style="fill:#415A6B;" d="M173.867,371.2c4.267-1.067,8.533-2.133,12.8-3.2c3.2-25.6,0-53.333,0-53.333l-11.733-5.333
		l5.333-3.2L166.4,292.267c0,0-5.333-1.067-1.067,10.667C167.467,312.533,172.8,347.733,173.867,371.2z"/>
</g>
<path style="fill:#F3F3F3;" d="M163.2,282.667c0,0-3.2,10.667-7.467,13.867l7.467,14.933c0,0,5.333-11.733,5.333-18.133
	C168.533,286.933,163.2,282.667,163.2,282.667z"/>
<path style="fill:#F3705A;" d="M140.8,115.2C62.933,115.2,0,178.133,0,256s62.933,140.8,140.8,140.8S281.6,333.867,281.6,256
	S218.667,115.2,140.8,115.2z M140.8,361.6c-58.667,0-105.6-46.933-105.6-105.6s48-105.6,105.6-105.6s105.6,48,105.6,105.6
	C247.467,314.667,199.467,361.6,140.8,361.6z"/>
<path style="fill:#E8EAE9;" d="M396.8,483.2c-48,0-86.4-38.4-86.4-86.4s38.4-86.4,86.4-86.4s86.4,38.4,86.4,86.4
	C483.2,444.8,444.8,483.2,396.8,483.2z"/>
<path style="fill:#FFD15C;" d="M421.333,378.667c0,0-1.067,13.867-4.267,19.2L416,425.6l-21.333,12.8l-18.133-18.133l-1.067-21.333
	c0,0-4.267-14.933-4.267-27.733c0-13.867,0-13.867,0-13.867s-1.067-17.067,16-20.267s26.667-2.133,30.933,3.2
	C422.4,346.667,421.333,378.667,421.333,378.667z"/>
<path style="fill:#F7B64C;" d="M400,411.733c-8.533-1.067-18.133-7.467-23.467-12.8l0,0l0,0c2.133,3.2,10.667,14.933,25.6,21.333
	c5.333,2.133,11.733,3.2,17.067,3.2V396.8C418.133,397.867,408.533,412.8,400,411.733z"/>
<g>
	
		<ellipse transform="matrix(0.1971 -0.9804 0.9804 0.1971 -27.8796 714.6553)" style="fill:#FFD15C;" cx="422.375" cy="374.349" rx="8.533" ry="4.267"/>
	
		<ellipse transform="matrix(0.3295 0.9442 -0.9442 0.3295 605.5866 -96.2145)" style="fill:#FFD15C;" cx="370.534" cy="378.26" rx="8.534" ry="4.267"/>
</g>
<path style="fill:#415A6B;" d="M372.267,378.667h1.067c0-1.067-1.067-9.6,0-12.8c1.067-4.267,3.2-5.333,3.2-10.667
	c0-5.333,2.133-9.6,6.4-10.667s21.333,2.133,27.733,1.067c6.4-1.067,8.533,5.333,8.533,11.733c0,5.333,2.133,10.667,2.133,13.867
	v5.333h1.067c1.067-5.333,9.6-32-1.067-34.133c0,0,2.133-13.867-14.933-17.067c-17.067-2.133-28.8,2.133-33.067,12.8
	C368,348.8,368,366.933,369.067,371.2C370.133,374.4,371.2,377.6,372.267,378.667z"/>
<path style="fill:#CED6E0;" d="M424.533,487.467l1.067-51.2l-6.4-11.733L396.8,432l-5.333,1.067l-10.667-6.4
	c-5.333-3.2-11.733,1.067-11.733,6.4L368,486.4C387.2,491.733,405.333,490.667,424.533,487.467z"/>
<g>
	<path style="fill:#344A5E;" d="M467.2,474.667l-1.067-24.533c0-9.6-6.4-18.133-16-20.267l-24.533-6.4c0,0,0,37.333-4.267,66.133
		C436.267,485.333,452.267,481.067,467.2,474.667z"/>
	<path style="fill:#344A5E;" d="M336,474.667c11.733,6.4,24.533,10.667,36.267,12.8C368,458.667,368,421.333,368,421.333
		l-24.533,6.4c-9.6,2.133-16,10.667-16,20.267l-1.067,21.333C329.6,471.467,332.8,472.533,336,474.667z"/>
</g>
<path style="fill:#F3F3F3;" d="M418.133,409.6c0,0-1.067,11.733-20.267,22.4c0,0,17.067,10.667,19.2,14.933
	c0,0,5.333-20.267,5.333-24.533C421.333,417.067,418.133,409.6,418.133,409.6z"/>
<path style="fill:#415A6B;" d="M414.933,488.533c4.267-1.067,9.6-1.067,13.867-2.133c7.467-28.8,8.533-49.067,8.533-49.067
	l-8.533-1.067l7.467-5.333c0,0-4.267-5.333-9.6-8.533c-5.333-3.2-5.333-7.467-7.467-9.6c0,0,2.133,25.6,0,43.733
	C418.133,462.933,416,475.733,414.933,488.533z"/>
<path style="fill:#F3F3F3;" d="M376.533,409.6c0,0,1.067,11.733,20.267,22.4c0,0-17.067,10.667-19.2,14.933
	c0,0-5.333-20.267-5.333-24.533C372.267,417.067,376.533,409.6,376.533,409.6z"/>
<path style="fill:#415A6B;" d="M364.8,486.4c4.267,1.067,9.6,2.133,13.867,3.2c-2.133-13.867-3.2-25.6-4.267-33.067
	c-2.133-18.133,0-43.733,0-43.733c-2.133,2.133-3.2,6.4-7.467,9.6c-4.267,3.2-9.6,8.533-9.6,8.533l7.467,5.333l-8.533,1.067
	C356.267,437.333,357.333,457.6,364.8,486.4z"/>
<g>
	<polygon style="fill:#F3705A;" points="403.2,452.267 410.667,445.867 396.8,432 382.933,445.867 390.4,452.267 	"/>
	<path style="fill:#F3705A;" d="M406.4,489.6l-3.2-37.333h-13.867l-3.2,37.333C393.6,490.667,400,490.667,406.4,489.6z"/>
</g>
<path style="fill:#55C0EB;" d="M396.8,281.6c-64,0-115.2,51.2-115.2,115.2S332.8,512,396.8,512S512,460.8,512,396.8
	S460.8,281.6,396.8,281.6z M396.8,483.2c-48,0-86.4-38.4-86.4-86.4s38.4-86.4,86.4-86.4s86.4,38.4,86.4,86.4
	C483.2,444.8,444.8,483.2,396.8,483.2z"/>
<path style="fill:#E8EAE9;" d="M396.8,201.6c-48,0-86.4-38.4-86.4-86.4s38.4-86.4,86.4-86.4s86.4,38.4,86.4,86.4
	C483.2,163.2,444.8,201.6,396.8,201.6z"/>
<g>
	<path style="fill:#FFD15C;" d="M420.267,103.467c-2.133,6.4,0,11.733,3.2,11.733c3.2,0,7.467-5.333,8.533-10.667
		c2.133-6.4,0-11.733-3.2-11.733S421.333,97.067,420.267,103.467z"/>
	<path style="fill:#FFD15C;" d="M369.067,82.133V89.6c0,0-2.133,29.867,6.4,38.4v30.933H406.4
		c5.333-5.333,8.533-8.533,13.867-13.867v-19.2c0,0,2.133-9.6,2.133-12.8c0-3.2,0-7.467,0-7.467s7.467-21.333,4.267-33.067
		C423.467,60.8,396.8,48,387.2,52.267C377.6,55.467,368,65.067,369.067,82.133z"/>
</g>
<path style="fill:#415A6B;" d="M422.4,104.533c0,0,1.067-5.333,0-9.6s-4.267-10.667-4.267-18.133s0-10.667-4.267-12.8
	c-4.267-2.133-20.267-6.4-35.2-2.133c-4.267,1.067-7.467,4.267-7.467,8.533c-1.067,4.267-1.067,12.8-1.067,14.933
	s-1.067,4.267-1.067,4.267s-5.333-26.667,8.533-40.533c13.867-13.867,32-6.4,42.667-1.067c10.667,5.333,12.8,16,13.867,20.267
	c0,4.267-2.133,20.267-5.333,26.667C427.733,96,427.733,97.067,422.4,104.533L422.4,104.533z"/>
<path style="fill:#F7B64C;" d="M375.467,128c0,0,7.467,7.467,18.133,7.467c11.733-1.067,25.6-10.667,28.8-19.2
	c0,0-5.333,18.133-18.133,29.867c-6.4,6.4-16,10.667-24.533,13.867h-4.267V128z"/>
<path style="fill:#CED6E0;" d="M386.133,210.133l13.867-54.4l-5.333-2.133l-7.467-1.067h-2.133l-16,1.067l-9.6,53.333
	C366.933,210.133,375.467,211.2,386.133,210.133z"/>
<path style="fill:#F05540;" d="M382.933,210.133l6.4-35.2L384,161.067l-10.667,13.867c0,0-6.4,18.133-10.667,33.067
	C369.067,210.133,375.467,210.133,382.933,210.133z"/>
<path style="fill:#F3705A;" d="M393.6,166.4l-7.467,9.6c0,0-6.4-6.4-13.867-1.067c0,0,5.333-20.267,4.267-21.333
	c0-1.067,7.467-1.067,7.467-1.067h3.2C388.267,152.533,393.6,162.133,393.6,166.4z"/>
<g>
	<path style="fill:#E8EAE9;" d="M421.333,124.8c0,0,0,3.2-5.333,7.467c-5.333,4.267-13.867,8.533-20.267,12.8
		c-6.4,4.267-8.533,6.4-8.533,6.4l7.467,22.4l33.067-32C426.667,142.933,424.533,133.333,421.333,124.8z"/>
	<path style="fill:#E8EAE9;" d="M375.467,133.333c0,0,0,6.4,2.133,10.667c2.133,4.267,7.467,7.467,7.467,7.467s-6.4,5.333-8.533,9.6
		c-2.133,5.333-5.333,9.6-5.333,9.6l-1.067-20.267C370.133,150.4,373.333,139.733,375.467,133.333z"/>
</g>
<path style="fill:#344A5E;" d="M391.467,210.133c11.733-1.067,22.4-3.2,33.067-6.4c0-2.133,0-3.2,0-4.267
	c1.067-3.2,6.4-20.267,20.267-34.133c13.867-13.867,27.733-7.467,27.733-7.467c-2.133-1.067-16-9.6-24.533-13.867
	c-8.533-4.267-13.867-5.333-13.867-5.333s-18.133,20.267-39.467,38.4c-11.733,9.6-18.133,23.467-22.4,33.067
	C378.667,210.133,385.067,210.133,391.467,210.133z"/>
<path style="fill:#415A6B;" d="M337.067,193.067c1.067-16,2.133-30.933,2.133-30.933V160c0,0-4.267-1.067-7.467,5.333
	c-2.133,3.2-3.2,6.4-5.333,10.667C329.6,182.4,332.8,187.733,337.067,193.067z"/>
<path style="fill:#344A5E;" d="M357.333,206.933c-1.067-3.2-1.067-5.333-1.067-6.4c0-12.8,10.667-51.2,10.667-51.2
	s-5.333,1.067-10.667,4.267s-14.933,5.333-18.133,7.467c-2.133,2.133-7.467,9.6-9.6,22.4
	C337.067,193.067,345.6,201.6,357.333,206.933z"/>
<g>
	<path style="fill:#415A6B;" d="M353.067,204.8c4.267,2.133,9.6,4.267,14.933,4.267c0-10.667,0-22.4,1.067-24.533
		c0-1.067,0-3.2,1.067-5.333c2.133-9.6,2.133-19.2,2.133-28.8c0-4.267,0-8.533,1.067-11.733c-3.2,5.333-4.267,6.4-7.467,9.6
		c-3.2,3.2-7.467,5.333-7.467,5.333v4.267l-9.6,5.333c-1.067,3.2-1.067,16,3.2,37.333
		C353.067,202.667,353.067,203.733,353.067,204.8z"/>
	<path style="fill:#415A6B;" d="M373.333,210.133c3.2-7.467,8.533-14.933,17.067-20.267c16-10.667,38.4-25.6,38.4-25.6l-3.2-5.333
		l10.667-3.2c0,0,0-10.667,1.067-13.867c1.067-4.267-2.133-2.133-5.333-5.333c-3.2-3.2-6.4-6.4-8.533-5.333
		c0,0-2.133,4.267-8.533,9.6c-5.333,5.333-33.067,32-37.333,41.6c-3.2,5.333-5.333,18.133-6.4,26.667
		C371.2,210.133,372.267,210.133,373.333,210.133z"/>
	<path style="fill:#415A6B;" d="M454.4,194.133c4.267-1.067,8.533-3.2,12.8-4.267c4.267-5.333,9.6-9.6,13.867-13.867
		c-1.067-12.8-8.533-17.067-8.533-17.067l0,0l0,0C470.4,157.867,457.6,153.6,444.8,166.4c-13.867,13.867-19.2,30.933-20.267,34.133
		c-1.067,1.067-2.133,3.2-3.2,4.267C433.067,201.6,443.733,198.4,454.4,194.133z"/>
</g>
<path style="fill:#66C6B9;" d="M396.8,0c-64,0-115.2,51.2-115.2,115.2s51.2,115.2,115.2,115.2S512,179.2,512,115.2S460.8,0,396.8,0z
	 M396.8,201.6c-48,0-86.4-38.4-86.4-86.4s38.4-86.4,86.4-86.4s86.4,38.4,86.4,86.4C483.2,163.2,444.8,201.6,396.8,201.6z"/>
<g>
</g>
<g>
</g>
<g>
</g>
<g>
</g>
<g>
</g>
<g>
</g>
<g>
</g>
<g>
</g>
<g>
</g>
<g>
</g>
<g>
</g>
<g>
</g>
<g>
</g>
<g>
</g>
<g>
</g>
</svg>
