<?xml version="1.0" encoding="iso-8859-1"?>
<!-- Generator: Adobe Illustrator 19.0.0, SVG Export Plug-In . SVG Version: 6.00 Build 0)  -->
<svg version="1.1" id="Capa_1" xmlns="http://www.w3.org/2000/svg" xmlns:xlink="http://www.w3.org/1999/xlink" x="0px" y="0px"
	 viewBox="0 0 511.728 511.728" style="enable-background:new 0 0 511.728 511.728;" xml:space="preserve">
<path style="fill:#415A6B;" d="M344.48,498.412L344.48,498.412c0-2.133,0-2.133,0-4.267c0-2.133,0-5.333-1.067-9.6
	c0-8.533,0-20.267,0-35.2c0-7.467,0-14.933,0-23.467c0-2.133,0-4.267,0-6.4c0-1.067,0-2.133,0-3.2s0-2.133,0-3.2
	c0-4.267,0-8.533,1.067-12.8c0-2.133,0-4.267,1.067-6.4c0-2.133,0-4.267,1.067-6.4c0-1.067,0-2.133,0-3.2s0-2.133,0-3.2
	c0-2.133,1.067-4.267,1.067-7.467c1.067-9.6,3.2-19.2,5.333-27.733c2.133-9.6,4.267-18.133,6.4-27.733
	c2.133-9.6,3.2-18.133,4.267-26.667c0-8.533,0-17.067,1.067-25.6s1.067-16,3.2-22.4c0-2.133,1.067-3.2,1.067-5.333
	s1.067-3.2,1.067-5.333c0-1.067,1.067-3.2,1.067-4.267c0-1.067,1.067-3.2,1.067-4.267c2.133-5.333,3.2-10.667,5.333-13.867
	c2.133-3.2,3.2-6.4,4.267-8.533c1.067-2.133,2.133-3.2,2.133-3.2s-1.067,1.067-2.133,3.2c-1.067,2.133-2.133,5.333-4.267,8.533
	c-2.133,3.2-4.267,7.467-5.333,13.867c0,1.067-1.067,3.2-1.067,4.267c0,1.067-1.067,3.2-1.067,4.267c0,1.067-1.067,3.2-1.067,5.333
	s0,3.2-1.067,5.333c-1.067,7.467-1.067,14.933-2.133,22.4c0,8.533,0,17.067,0,25.6c0,9.6-1.067,18.133-3.2,27.733
	c-1.067,9.6-3.2,18.133-5.333,27.733c-1.067,9.6-3.2,18.133-4.267,27.733c0,2.133,0,4.267-1.067,6.4c0,1.067,0,2.133,0,3.2
	s0,2.133,0,3.2c0,2.133,0,4.267,0,6.4c0,2.133,0,4.267,0,6.4c0,4.267,0,8.533,0,12.8c0,1.067,0,2.133,0,3.2s0,2.133,0,3.2
	c0,2.133,0,4.267,0,6.4c0,8.533,0,16,0,22.4c0,13.867,1.067,25.6,2.133,34.133c0,4.267,1.067,7.467,1.067,9.6
	c0,1.067,0,2.133,0,2.133v1.067L344.48,498.412z"/>
<path style="fill:#FFD15C;" d="M260.213,504.812c2.133-4.267,8.533-4.267,12.8-4.267c5.333,0,10.667,0,16,0
	c1.067,0,2.133,0,3.2-1.067c2.133-1.067,3.2-3.2,5.333-4.267c2.133-2.133,6.4-2.133,8.533-3.2c2.133-2.133,4.267-5.333,7.467-5.333
	c2.133,0,3.2,1.067,5.333,1.067s3.2-2.133,4.267-3.2c2.133,0,4.267,2.133,6.4,2.133c2.133,0,3.2-1.067,5.333-3.2
	c1.067-1.067,4.267-2.133,5.333-1.067l1.067,1.067c1.067,1.067,2.133,1.067,2.133,0c1.067,0,2.133,0,3.2,1.067
	c2.133,1.067,4.267,2.133,6.4,1.067c2.133-1.067,3.2-3.2,5.333-2.133c1.067,1.067,2.133,2.133,3.2,2.133s1.067-1.067,2.133-2.133
	c1.067-1.067,2.133,0,3.2,1.067s1.067,2.133,1.067,3.2c2.133-1.067,4.267-2.133,5.333-1.067c1.067,0,1.067,1.067,1.067,2.133
	c1.067,2.133,4.267,2.133,6.4,1.067c2.133,0,4.267-1.067,6.4-1.067c5.333,0,9.6,6.4,14.933,6.4c3.2,0,6.4-1.067,8.533,1.067
	c1.067,1.067,1.067,2.133,2.133,2.133c1.067,0,2.133,0,3.2,0s1.067,1.067,2.133,2.133c2.133,2.133,6.4,2.133,10.667,2.133
	c5.333,0,9.6-1.067,14.933-1.067c1.067,0,2.133,0,3.2,1.067s0,2.133,0,3.2c-1.067,1.067-3.2,2.133-5.333,2.133
	c-10.667,0-20.267,1.067-30.933,1.067c-6.4,0-12.8,0-19.2,1.067c-4.267,0-8.533,0-12.8,0c-2.133,0-4.267-1.067-6.4-1.067
	c-2.133,0-5.333,0-7.467,0c-5.333,0-10.667,1.067-16,1.067c-4.267,0-9.6,1.067-13.867,1.067c-7.467,0-14.933,1.067-21.333,0
	c-6.4,0-12.8-1.067-20.267-1.067c-6.4,0-12.8,1.067-19.2,1.067C269.813,511.212,264.48,510.145,260.213,504.812"/>
<path style="fill:#66C6B9;" d="M343.413,402.412c-1.067-16-5.333-32-11.733-48l0,0c-2.133-5.333-5.333-10.667-8.533-14.933
	c-8.533-12.8-22.4-21.333-36.267-25.6c-14.933-4.267-29.867-6.4-44.8-7.467c-10.667-1.067-21.333-2.133-32,0
	c14.933,8.533,20.267,28.8,34.133,38.4c4.267,3.2,8.533,4.267,12.8,6.4c18.133,7.467,36.267,12.8,53.333,22.4
	c17.067,9.6,30.933,25.6,35.2,43.733L343.413,402.412z"/>
<g>
	<path style="fill:#415A6B;" d="M346.613,442.945C346.613,442.945,346.613,441.878,346.613,442.945c0-1.067,0-1.067,0-2.133
		c0-1.067,0-3.2,0-5.333c0-2.133,0-5.333-1.067-8.533c-1.067-3.2-1.067-6.4-2.133-10.667c-1.067-4.267-2.133-8.533-4.267-12.8
		c-1.067-2.133-2.133-4.267-3.2-6.4c0-1.067-1.067-2.133-2.133-3.2s-1.067-2.133-2.133-3.2c-1.067-1.067-1.067-2.133-2.133-3.2
		c-1.067-1.067-1.067-2.133-2.133-3.2c-1.067-2.133-3.2-4.267-4.267-6.4c-1.067-1.067-2.133-2.133-2.133-3.2
		c-1.067-1.067-2.133-2.133-2.133-3.2l-3.2-3.2l-1.067-1.067l-1.067-1.067c-2.133-2.133-4.267-4.267-5.333-5.333
		s-2.133-2.133-3.2-3.2c-1.067-1.067-2.133-2.133-3.2-2.133c-1.067-1.067-2.133-2.133-3.2-2.133c-1.067-1.067-2.133-2.133-3.2-2.133
		c-1.067-1.067-2.133-1.067-3.2-2.133c-1.067-1.067-2.133-1.067-3.2-2.133c-4.267-3.2-8.533-5.333-12.8-7.467
		c-4.267-2.133-7.467-4.267-11.733-6.4c-2.133-1.067-3.2-2.133-5.333-2.133c-2.133-1.067-3.2-1.067-5.333-2.133
		c-1.067-1.067-3.2-1.067-4.267-2.133c-1.067-1.067-2.133-1.067-3.2-1.067c-4.267-2.133-7.467-3.2-7.467-3.2
		s2.133,1.067,7.467,2.133c1.067,0,2.133,1.067,3.2,1.067c1.067,1.067,3.2,1.067,4.267,2.133s3.2,1.067,5.333,2.133
		c2.133,1.067,3.2,2.133,5.333,2.133c4.267,2.133,7.467,4.267,11.733,6.4s8.533,5.333,12.8,7.467c1.067,1.067,2.133,1.067,3.2,2.133
		c1.067,1.067,2.133,1.067,3.2,2.133c1.067,1.067,2.133,1.067,3.2,2.133c1.067,1.067,2.133,2.133,3.2,2.133
		c1.067,1.067,2.133,2.133,3.2,2.133c1.067,1.067,2.133,2.133,3.2,3.2c2.133,2.133,4.267,4.267,6.4,5.333l1.067,1.067l1.067,1.067
		l3.2,3.2c1.067,1.067,2.133,2.133,2.133,3.2c1.067,1.067,2.133,2.133,2.133,3.2c2.133,2.133,3.2,4.267,4.267,6.4
		c1.067,1.067,1.067,2.133,2.133,3.2s1.067,2.133,2.133,3.2c1.067,1.067,1.067,2.133,2.133,3.2c1.067,1.067,1.067,2.133,2.133,3.2
		c1.067,2.133,2.133,4.267,3.2,6.4c2.133,4.267,3.2,8.533,4.267,12.8c1.067,4.267,2.133,7.467,3.2,10.667
		c1.067,3.2,1.067,6.4,1.067,8.533c0,2.133,0,4.267,0,5.333s0,1.067,0,1.067l0,0L346.613,442.945z"/>
	<path style="fill:#415A6B;" d="M275.146,335.212c0,0,0,0,1.067,0c1.067,0,2.133-1.067,3.2-1.067c1.067,0,3.2-1.067,4.267-1.067
		s2.133,0,2.133,0c1.067,0,2.133,0,3.2,0c2.133,0,3.2,0,5.333,0c2.133,0,3.2,0,4.267,0c1.067,0,1.067,0,2.133,0
		c1.067,0,1.067,0,1.067,0c1.067,0,1.067,0,1.067,0s0,0-1.067,0h-1.067c-1.067,0-1.067,0-2.133,0c-1.067,0-3.2,0-4.267,0
		c-2.133,0-3.2,0-5.333,1.067c-2.133,0-3.2,0-5.333,1.067c-2.133,0-3.2,0-4.267,1.067c-1.067,0-2.133,0-3.2,0
		C275.146,335.212,275.146,335.212,275.146,335.212z"/>
	<path style="fill:#415A6B;" d="M283.68,339.478C283.68,339.478,283.68,340.545,283.68,339.478c0,1.067,0,2.133,0,2.133
		c0,1.067,0,3.2,0,5.333c0,2.133,0,4.267,0,5.333s0,1.067,0,2.133v1.067c0,0,0-1.067,0-2.133c0-1.067,0-3.2,0-5.333
		c0-2.133,0-4.267,1.067-5.333C282.613,341.612,282.613,340.545,283.68,339.478C283.68,340.545,283.68,339.478,283.68,339.478z"/>
	<path style="fill:#415A6B;" d="M259.146,326.678c0,0,0,1.067,0,3.2c0,1.067,0,2.133,0,3.2c0,1.067,0,2.133,0,3.2
		c0,1.067,0,2.133,0,3.2s0,2.133,0,3.2c0,1.067,0,2.133,0,2.133v1.067c0,0,0,0,0-1.067v-1.067v-1.067c0-1.067,0-2.133,0-3.2
		c0-1.067,0-1.067,0-2.133c0-1.067,0-1.067,0-2.133s0-2.133,0-3.2c0-1.067,0-2.133,1.067-3.2
		C258.08,328.812,258.08,327.745,259.146,326.678L259.146,326.678z"/>
</g>
<path style="fill:#66C6B9;" d="M439.413,295.745c0-4.267,1.067-9.6,3.2-13.867l0,0c1.067-1.067,1.067-3.2,2.133-4.267
	c2.133-3.2,6.4-6.4,10.667-7.467c4.267-1.067,8.533-2.133,12.8-2.133c3.2,0,6.4-1.067,9.6,0c-4.267,2.133-5.333,8.533-9.6,11.733
	c-1.067,1.067-2.133,1.067-3.2,2.133c-5.333,2.133-10.667,4.267-14.933,6.4c-4.267,3.2-8.533,7.467-9.6,12.8L439.413,295.745z"/>
<g>
	<path style="fill:#415A6B;" d="M436.213,308.545C436.213,308.545,436.213,307.478,436.213,308.545c0-1.067,0-2.133,0-2.133
		c0-1.067,0-2.133,0-2.133c0-1.067,0-2.133,1.067-3.2c0-1.067,0-1.067,1.067-2.133c0-1.067,0-1.067,1.067-2.133
		c0-1.067,1.067-1.067,1.067-2.133s1.067-1.067,1.067-2.133c0,0,0-1.067,1.067-1.067c0,0,0-1.067,1.067-1.067
		c0-1.067,1.067-1.067,1.067-2.133s1.067-1.067,1.067-2.133c1.067-1.067,1.067-1.067,2.133-2.133l2.133-2.133l1.067-1.067
		c0,0,1.067,0,1.067-1.067c1.067,0,1.067-1.067,2.133-1.067c0,0,1.067,0,1.067-1.067c0,0,1.067,0,1.067-1.067
		c1.067-1.067,2.133-1.067,3.2-2.133c1.067-1.067,2.133-1.067,3.2-2.133c0,0,1.067,0,1.067-1.067c0,0,1.067,0,1.067-1.067
		c1.067,0,2.133-1.067,2.133-1.067c1.067,0,2.133-1.067,2.133-1.067s-1.067,0-2.133,1.067c-1.067,0-1.067,1.067-2.133,1.067
		c0,0-1.067,0-1.067,1.067l-1.067,1.067c-1.067,1.067-2.133,1.067-3.2,2.133c-1.067,1.067-2.133,2.133-3.2,2.133
		c0,0-1.067,0-1.067,1.067c0,0-1.067,0-1.067,1.067c-1.067,0-1.067,1.067-2.133,1.067c0,0-1.067,0-1.067,1.067l-1.067,1.067
		l-2.133,3.2c-1.067,1.067-1.067,1.067-1.067,2.133s-1.067,1.067-1.067,2.133c0,1.067-1.067,1.067-1.067,2.133
		c0,0,0,1.067-1.067,1.067v1.067c0,1.067-1.067,1.067-1.067,2.133c0,1.067,0,1.067-1.067,2.133c0,1.067,0,1.067-1.067,2.133
		c0,1.067,0,1.067,0,2.133c0,1.067,0,2.133,0,3.2s0,2.133,0,2.133c0,1.067,0,1.067,0,1.067l0,0L436.213,308.545z"/>
	<path style="fill:#415A6B;" d="M458.613,276.545h-1.067c-1.067,0-2.133,0-3.2,0s-2.133,0-3.2,0h-1.067l0,0c0,0,0,0,1.067,0h1.067
		h1.067c1.067,0,2.133,0,3.2,1.067C458.613,275.478,458.613,276.545,458.613,276.545z"/>
	<path style="fill:#415A6B;" d="M456.48,277.612L456.48,277.612c1.067,1.067,1.067,2.133,1.067,2.133c0,1.067,0,1.067,0,2.133v1.067
		c0,0,0,0,0-1.067c0,0,0-1.067,0-2.133C456.48,279.745,456.48,278.678,456.48,277.612L456.48,277.612z"/>
	<path style="fill:#415A6B;" d="M462.88,273.345C462.88,273.345,463.946,274.412,462.88,273.345
		c1.067,1.067,1.067,2.133,1.067,2.133c0,1.067,0,1.067,0,2.133c0,1.067,0,1.067,0,1.067s0,0,0-1.067c0,0,0-1.067,0-2.133
		C462.88,275.478,462.88,275.478,462.88,273.345C462.88,274.412,462.88,273.345,462.88,273.345z"/>
</g>
<path style="fill:#66C6B9;" d="M435.146,296.812c-1.067-4.267-3.2-8.533-6.4-12.8l0,0c-1.067-1.067-2.133-3.2-3.2-4.267
	c-3.2-3.2-7.467-4.267-11.733-5.333c-4.267-1.067-8.533,0-12.8,0c-3.2,0-6.4,1.067-9.6,2.133c4.267,2.133,7.467,7.467,11.733,9.6
	c1.067,1.067,2.133,1.067,4.267,1.067c5.333,1.067,10.667,2.133,16,3.2c5.333,2.133,10.667,5.333,11.733,10.667V296.812z"/>
<g>
	<path style="fill:#415A6B;" d="M436.213,308.545C436.213,308.545,436.213,307.478,436.213,308.545c0-1.067,0-1.067,0-2.133
		c0-1.067,0-1.067-1.067-2.133c0-1.067-1.067-2.133-1.067-3.2c0,0,0-1.067-1.067-1.067c0-1.067-1.067-1.067-1.067-2.133
		s-1.067-1.067-1.067-2.133c0-1.067-1.067-1.067-1.067-2.133c0,0,0-1.067-1.067-1.067c0,0,0-1.067-1.067-1.067
		c0-1.067-1.067-1.067-1.067-2.133c-1.067,0-1.067-1.067-2.133-1.067c-1.067,0-1.067-1.067-2.133-1.067l-2.133-1.067l-1.067-1.067
		c0,0-1.067,0-1.067-1.067c-1.067,0-1.067-1.067-2.133-1.067c0,0-1.067,0-1.067-1.067h-1.067c-1.067-1.067-2.133-1.067-4.267-2.133
		c-1.067,0-2.133-1.067-3.2-1.067s-1.067,0-2.133-1.067h-1.067c-1.067,0-2.133,0-2.133-1.067c-1.067,0-2.133,0-2.133,0
		s1.067,0,2.133,0c1.067,0,1.067,0,2.133,0h1.067c0,0,1.067,0,2.133,0c1.067,0,2.133,1.067,4.267,1.067
		c1.067,0,2.133,1.067,4.267,1.067h1.067h1.067c1.067,0,1.067,1.067,2.133,1.067h1.067l1.067,1.067l2.133,1.067
		c1.067,0,1.067,1.067,2.133,1.067c1.067,0,1.067,1.067,2.133,1.067c1.067,1.067,1.067,1.067,2.133,2.133c0,0,1.067,0,1.067,1.067
		c0,0,0,1.067,1.067,1.067c0,1.067,1.067,1.067,1.067,2.133c0,1.067,1.067,1.067,1.067,2.133c0,1.067,1.067,1.067,1.067,2.133
		s1.067,1.067,1.067,2.133c1.067,1.067,1.067,2.133,1.067,3.2s1.067,2.133,1.067,2.133c0,1.067,0,1.067,0,2.133v1.067
		L436.213,308.545z"/>
	<path style="fill:#415A6B;" d="M411.68,280.812c0,0,0,0,1.067-1.067c1.067,0,2.133-1.067,2.133-1.067h1.067h1.067
		c1.067,0,1.067,0,1.067,0l0,0c0,0,0,0-1.067,0s-2.133,1.067-2.133,1.067C413.813,279.745,412.746,280.812,411.68,280.812
		C411.68,280.812,411.68,280.812,411.68,280.812z"/>
	<path style="fill:#415A6B;" d="M413.813,281.878C413.813,281.878,414.88,282.945,413.813,281.878c0,1.067,1.067,2.133,1.067,2.133
		c0,1.067,0,1.067,0,2.133v1.067c0,0,0,0,0-1.067c0,0,0-1.067,0-2.133C413.813,284.012,413.813,282.945,413.813,281.878
		C413.813,282.945,413.813,281.878,413.813,281.878z"/>
	<path style="fill:#415A6B;" d="M406.346,279.745L406.346,279.745c0,1.067,1.067,2.133,1.067,3.2c0,1.067,0,1.067,0,2.133v1.067
		c0,0,0,0-1.067-1.067c0,0,0-1.067,0-2.133C406.346,281.878,406.346,280.812,406.346,279.745L406.346,279.745z"/>
	<path style="fill:#415A6B;" d="M343.413,445.078c0,0,0-1.067,1.067-3.2c0-2.133,1.067-4.267,2.133-7.467
		c0-2.133,1.067-3.2,2.133-5.333c1.067-2.133,1.067-4.267,2.133-6.4c1.067-2.133,2.133-4.267,2.133-7.467
		c1.067-2.133,2.133-5.333,3.2-7.467c2.133-5.333,4.267-11.733,7.467-17.067c3.2-6.4,6.4-11.733,9.6-18.133
		c3.2-6.4,7.467-12.8,11.733-19.2c4.267-6.4,9.6-12.8,13.867-18.133c5.333-6.4,10.667-11.733,16-17.067c3.2-2.133,6.4-4.267,9.6-6.4
		l1.067-1.067l0,0l0,0l0,0h1.067c1.067,0,2.133-1.067,2.133-1.067c2.133-1.067,3.2-2.133,5.333-2.133
		c6.4-3.2,13.867-5.333,20.267-6.4c6.4-1.067,12.8-2.133,18.133-2.133s10.667,0,16,0c4.267,0,8.533,0,11.733,1.067
		c3.2,1.067,5.333,2.133,7.467,2.133c1.067,0,1.067,1.067,2.133,1.067h1.067c0,0,0,0-1.067,0c0,0-1.067,0-2.133-1.067
		c-2.133-1.067-4.267-1.067-7.467-2.133c-1.067-1.067-5.333-1.067-10.667-1.067c-4.267,0-9.6,0-16,1.067
		c-5.333,1.067-11.733,1.067-18.133,3.2c-6.4,1.067-12.8,3.2-19.2,6.4c-2.133,1.067-3.2,2.133-4.267,2.133
		c-1.067,0-1.067,1.067-2.133,1.067h-1.067l0,0l0,0l0,0l-1.067,1.067c-3.2,2.133-5.333,4.267-8.533,6.4
		c-5.333,5.333-10.667,10.667-14.933,17.067c-4.267,6.4-9.6,11.733-12.8,18.133c-4.267,6.4-7.467,12.8-11.733,19.2
		c-3.2,6.4-6.4,12.8-8.533,18.133c-3.2,6.4-5.333,11.733-6.4,17.067c-1.067,3.2-2.133,5.333-2.133,7.467
		c-1.067,2.133-1.067,5.333-2.133,7.467c-1.067,2.133-1.067,4.267-2.133,6.4c-1.067,2.133-1.067,3.2-1.067,5.333
		c-1.067,3.2-1.067,5.333-2.133,7.467c0,2.133-1.067,3.2-1.067,3.2L343.413,445.078z"/>
</g>
<path style="fill:#66C6B9;" d="M360.48,361.878c4.267-8.533,9.6-16,17.067-22.4l0,0c2.133-2.133,5.333-4.267,7.467-6.4
	c7.467-5.333,17.067-6.4,25.6-5.333c8.533,1.067,17.067,3.2,25.6,6.4c6.4,2.133,11.733,4.267,17.067,7.467
	c-9.6,1.067-17.067,10.667-26.667,12.8c-3.2,1.067-5.333,1.067-8.533,0c-11.733,0-22.4-1.067-34.133,0
	c-10.667,2.133-22.4,6.4-28.8,16L360.48,361.878z"/>
<g>
	<path style="fill:#415A6B;" d="M347.68,382.145c0,0,0,0,0-1.067s1.067-2.133,1.067-3.2c1.067-1.067,1.067-3.2,2.133-4.267
		c1.067-2.133,2.133-3.2,4.267-5.333c1.067-2.133,3.2-4.267,5.333-5.333c2.133-2.133,4.267-4.267,6.4-5.333
		c2.133-2.133,5.333-3.2,7.467-5.333c1.067-1.067,3.2-1.067,4.267-2.133c1.067-1.067,3.2-1.067,4.267-2.133
		c1.067-1.067,3.2-1.067,4.267-2.133c1.067,0,1.067,0,2.133-1.067c1.067,0,1.067,0,2.133-1.067c1.067,0,1.067,0,2.133-1.067
		c1.067,0,1.067,0,2.133-1.067c1.067,0,1.067,0,2.133-1.067c1.067,0,1.067,0,2.133,0c3.2-1.067,5.333-1.067,8.533-1.067
		c3.2,0,5.333-1.067,7.467-1.067c1.067,0,2.133,0,3.2,0s2.133,0,3.2,0s2.133,0,3.2,0s2.133,0,2.133,0c3.2,0,4.267,0,4.267,0
		s-1.067,0-4.267,0c-1.067,0-1.067,0-2.133,0c-1.067,0-2.133,0-3.2,0s-2.133,0-3.2,0s-2.133,0-3.2,0c-2.133,0-5.333,0-7.467,1.067
		c-3.2,0-5.333,1.067-8.533,1.067c-1.067,0-1.067,0-2.133,0c-1.067,0-1.067,0-2.133,1.067c-1.067,0-1.067,0-2.133,1.067
		c-1.067,0-1.067,0-2.133,1.067c-1.067,0-1.067,0-2.133,1.067c-1.067,0-1.067,1.067-2.133,1.067c-1.067,0-3.2,1.067-4.267,2.133
		c-1.067,1.067-3.2,1.067-4.267,2.133c-1.067,1.067-3.2,1.067-4.267,2.133c-2.133,2.133-5.333,3.2-7.467,5.333
		c-2.133,2.133-4.267,4.267-6.4,5.333c-2.133,2.133-3.2,4.267-5.333,5.333c-1.067,2.133-2.133,3.2-3.2,5.333
		c-1.067,2.133-2.133,3.2-2.133,4.267c-1.067,1.067-1.067,2.133-1.067,3.2s0,1.067,0,1.067H347.68z"/>
	<path style="fill:#415A6B;" d="M412.746,340.545c0,0-1.067,0-2.133-1.067c-1.067,0-1.067-1.067-2.133-1.067
		c-1.067,0-2.133-1.067-2.133-1.067c-2.133-1.067-3.2-2.133-5.333-3.2c-1.067,0-1.067-1.067-2.133-1.067h-1.067c0,0,0,0,1.067,0
		c0,0,0,0,1.067,0h1.067c1.067,0,2.133,1.067,2.133,1.067c1.067,0,2.133,1.067,3.2,1.067c2.133,1.067,3.2,2.133,4.267,3.2
		C410.613,339.478,411.68,339.478,412.746,340.545C411.68,340.545,412.746,340.545,412.746,340.545z"/>
	<path style="fill:#415A6B;" d="M406.346,341.612v1.067c0,1.067,0,2.133-1.067,3.2c0,1.067-1.067,2.133-1.067,3.2
		s-1.067,1.067-1.067,1.067v-1.067c0-1.067,0-2.133,1.067-3.2c0-1.067,1.067-2.133,1.067-3.2
		C406.346,341.612,406.346,341.612,406.346,341.612z"/>
	<path style="fill:#415A6B;" d="M422.346,339.478c0,0,0,1.067,0,2.133c0,1.067,0,2.133-1.067,4.267c0,1.067-1.067,2.133-1.067,3.2
		l-1.067,1.067l0,0c0,0,0-1.067,0-2.133c0-1.067,1.067-2.133,1.067-3.2s1.067-2.133,1.067-3.2
		C422.346,340.545,422.346,339.478,422.346,339.478z"/>
</g>
<path style="fill:#66C6B9;" d="M372.213,266.945c3.2-6.4,7.467-11.733,12.8-17.067l0,0c2.133-2.133,3.2-3.2,5.333-4.267
	c5.333-3.2,11.733-4.267,18.133-4.267c6.4,0,12.8,2.133,19.2,4.267c4.267,1.067,8.533,3.2,12.8,5.333
	c-7.467,1.067-12.8,7.467-19.2,9.6c-2.133,0-4.267,0-6.4,0c-8.533,0-16-1.067-24.533,0s-16,5.333-20.267,11.733L372.213,266.945z"/>
<g>
	<path style="fill:#415A6B;" d="M362.613,281.878C362.613,281.878,362.613,280.812,362.613,281.878
		c1.067-1.067,1.067-2.133,1.067-3.2c1.067-2.133,2.133-4.267,5.333-7.467c2.133-3.2,5.333-5.333,8.533-8.533
		c2.133-1.067,3.2-2.133,5.333-3.2c2.133-1.067,4.267-2.133,6.4-3.2c1.067,0,2.133-1.067,3.2-1.067s2.133-1.067,3.2-1.067
		s1.067,0,2.133,0c1.067,0,1.067,0,2.133,0c1.067,0,2.133,0,3.2-1.067c2.133,0,4.267-1.067,6.4-1.067c2.133,0,4.267,0,5.333,0
		s2.133,0,2.133,0c1.067,0,1.067,0,2.133,0c1.067,0,2.133,0,3.2,0c2.133,0,3.2,0,3.2,0s-1.067,0-3.2,0c-1.067,0-2.133,0-3.2,0
		s-1.067,0-2.133,0c-1.067,0-2.133,0-2.133,0c-2.133,0-3.2,0-5.333,1.067c-2.133,0-4.267,1.067-6.4,1.067
		c-1.067,0-2.133,0-3.2,1.067c0,0-1.067,0-2.133,0c0,0-1.067,0-1.067,1.067c-1.067,0-2.133,1.067-3.2,1.067s-2.133,1.067-3.2,1.067
		c-2.133,1.067-4.267,2.133-6.4,3.2c-2.133,1.067-3.2,2.133-5.333,4.267c-3.2,2.133-6.4,5.333-8.533,8.533
		c-2.133,3.2-3.2,5.333-4.267,6.4c0,1.067-1.067,1.067-1.067,2.133v1.067L362.613,281.878z"/>
	<path style="fill:#415A6B;" d="M409.546,252.012c0,0-1.067,0-2.133-1.067c0,0-1.067-1.067-2.133-1.067
		c-1.067,0-1.067-1.067-2.133-1.067c-1.067-1.067-2.133-1.067-3.2-2.133c0,0-1.067,0-1.067-1.067l0,0c0,0,0,0,1.067,0h1.067
		c1.067,0,1.067,0,2.133,1.067c1.067,0,1.067,1.067,2.133,1.067c1.067,1.067,2.133,2.133,3.2,2.133
		C409.546,250.945,409.546,252.012,409.546,252.012z"/>
	<path style="fill:#415A6B;" d="M406.346,252.012c0,0,0,0,0,1.067s0,1.067,0,2.133s-1.067,2.133-1.067,2.133
		c0,1.067-1.067,1.067-1.067,1.067s0,0,0-1.067c0-1.067,0-1.067,1.067-2.133C404.213,255.212,405.28,254.145,406.346,252.012
		C405.28,253.078,406.346,252.012,406.346,252.012z"/>
	<path style="fill:#415A6B;" d="M417.013,250.945c0,0,0,0,0,1.067c0,1.067,0,2.133,0,3.2c0,1.067-1.067,2.133-1.067,2.133
		c0,1.067-1.067,1.067-1.067,1.067s0,0,0-1.067c0-1.067,0-2.133,1.067-2.133c0-1.067,1.067-2.133,1.067-2.133
		C417.013,252.012,417.013,250.945,417.013,250.945z"/>
</g>
<path style="fill:#66C6B9;" d="M350.88,306.412c-3.2-6.4-7.467-11.733-12.8-17.067l0,0c-2.133-2.133-3.2-3.2-5.333-4.267
	c-5.333-3.2-11.733-4.267-18.133-4.267s-12.8,2.133-19.2,4.267c-4.267,1.067-8.533,3.2-12.8,5.333c7.467,1.067,12.8,7.467,19.2,9.6
	c2.133,0,4.267,0,6.4,0c8.533,0,16-1.067,24.533,0s16,5.333,20.267,11.733L350.88,306.412z"/>
<g>
	<path style="fill:#415A6B;" d="M357.28,322.412C357.28,322.412,357.28,321.345,357.28,322.412c0-1.067-1.067-2.133-1.067-3.2
		c-1.067-2.133-2.133-4.267-4.267-6.4c-2.133-3.2-4.267-5.333-8.533-8.533c-2.133-1.067-3.2-2.133-5.333-4.267
		c-2.133-1.067-4.267-2.133-6.4-3.2c-1.067,0-2.133-1.067-3.2-1.067s-2.133-1.067-3.2-1.067c-1.067,0-1.067,0-1.067-1.067
		c-1.067,0-1.067,0-2.133,0s-2.133-1.067-3.2-1.067c-2.133,0-4.267-1.067-6.4-1.067c-2.133,0-4.267,0-5.333-1.067
		c-1.067,0-2.133,0-2.133,0c-1.067,0-1.067,0-2.133,0s-2.133,0-3.2,0c-2.133,0-3.2,0-3.2,0s1.067,0,3.2,0c1.067,0,2.133,0,3.2,0
		c1.067,0,1.067,0,2.133,0c1.067,0,2.133,0,2.133,0c2.133,0,3.2,0,5.333,0c2.133,0,4.267,0,6.4,1.067c1.067,0,2.133,0,3.2,1.067
		c1.067,0,1.067,0,2.133,0c1.067,0,1.067,0,2.133,0c1.067,0,2.133,1.067,3.2,1.067c1.067,0,2.133,1.067,3.2,1.067
		c2.133,1.067,4.267,2.133,6.4,3.2c2.133,1.067,4.267,2.133,5.333,3.2c3.2,2.133,6.4,5.333,8.533,8.533
		c2.133,3.2,4.267,5.333,5.333,7.467c0,1.067,1.067,2.133,1.067,2.133v1.067L357.28,322.412z"/>
	<path style="fill:#415A6B;" d="M312.48,291.478c0,0,0-1.067,1.067-1.067c1.067-1.067,2.133-2.133,3.2-2.133
		s1.067-1.067,2.133-1.067s1.067,0,2.133-1.067c1.067,0,1.067,0,1.067,0h1.067l0,0c0,0-1.067,0-1.067,1.067
		c-1.067,1.067-2.133,1.067-3.2,2.133c-1.067,0-1.067,1.067-2.133,1.067c-1.067,0-1.067,1.067-2.133,1.067
		C313.546,290.412,312.48,291.478,312.48,291.478z"/>
	<path style="fill:#415A6B;" d="M316.746,291.478C316.746,291.478,317.813,292.545,316.746,291.478
		c1.067,1.067,1.067,2.133,1.067,3.2s0,2.133,1.067,2.133c0,1.067,0,1.067,0,1.067s0,0-1.067-1.067c0-1.067-1.067-1.067-1.067-2.133
		c0-1.067,0-2.133,0-2.133C316.746,292.545,316.746,291.478,316.746,291.478z"/>
	<path style="fill:#415A6B;" d="M305.013,290.412c0,0,0,0,1.067,1.067c0,1.067,1.067,2.133,1.067,2.133c0,1.067,0,2.133,1.067,2.133
		c0,1.067,0,1.067,0,1.067s0,0-1.067-1.067c0-1.067-1.067-1.067-1.067-2.133c0-1.067,0-2.133,0-3.2
		C305.013,291.478,305.013,290.412,305.013,290.412z"/>
</g>
<path style="fill:#F7B64C;" d="M355.146,302.145v-28.8c-8.533-2.133-14.933-6.4-19.2-11.733s-6.4-11.733-6.4-18.133
	c0-7.467,2.133-13.867,7.467-18.133c4.267-5.333,10.667-7.467,18.133-8.533v-6.4h9.6v6.4c7.467,1.067,12.8,3.2,17.067,7.467
	c4.267,4.267,7.467,9.6,8.533,16l-17.067,2.133c-1.067-5.333-4.267-8.533-8.533-10.667v26.667c10.667,3.2,18.133,6.4,22.4,11.733
	c4.267,4.267,6.4,10.667,6.4,18.133c0,8.533-2.133,14.933-7.467,20.267c-5.333,5.333-11.733,8.533-20.267,10.667v12.8h-9.6v-12.8
	c-7.467-1.067-13.867-4.267-19.2-8.533c-5.333-5.333-7.467-11.733-9.6-20.267l18.133-2.133c1.067,3.2,2.133,6.4,4.267,9.6
	C349.813,298.945,351.946,301.078,355.146,302.145z M355.146,230.678c-2.133,1.067-4.267,2.133-6.4,4.267
	c-1.067,2.133-2.133,4.267-2.133,7.467c0,2.133,1.067,4.267,2.133,6.4c1.067,2.133,3.2,3.2,6.4,5.333V230.678z M364.746,303.212
	c3.2-1.067,6.4-2.133,8.533-4.267c2.133-2.133,3.2-5.333,3.2-8.533c0-3.2-1.067-5.333-3.2-7.467
	c-2.133-2.133-4.267-4.267-8.533-5.333V303.212z"/>
<g>
	<circle style="fill:#FFD15C;" cx="413.813" cy="499.478" r="2.133"/>
	<circle style="fill:#FFD15C;" cx="408.48" cy="496.278" r="1.067"/>
	<circle style="fill:#FFD15C;" cx="412.746" cy="495.212" r="1.067"/>
	<circle style="fill:#FFD15C;" cx="421.28" cy="501.612" r="1.067"/>
	<circle style="fill:#FFD15C;" cx="424.48" cy="504.812" r="1.067"/>
	<circle style="fill:#FFD15C;" cx="401.013" cy="495.212" r="1.067"/>
	<circle style="fill:#FFD15C;" cx="404.213" cy="498.412" r="1.067"/>
	<circle style="fill:#FFD15C;" cx="390.346" cy="490.945" r="1.067"/>
	<circle style="fill:#FFD15C;" cx="397.813" cy="498.412" r="3.2"/>
	<circle style="fill:#FFD15C;" cx="383.946" cy="490.945" r="1.067"/>
	<circle style="fill:#FFD15C;" cx="375.413" cy="490.945" r="1.067"/>
	<circle style="fill:#FFD15C;" cx="380.746" cy="493.078" r="1.067"/>
	<circle style="fill:#FFD15C;" cx="385.013" cy="496.278" r="1.067"/>
	<circle style="fill:#FFD15C;" cx="387.146" cy="499.478" r="1.067"/>
	<circle style="fill:#FFD15C;" cx="371.146" cy="486.678" r="1.067"/>
	<circle style="fill:#FFD15C;" cx="373.28" cy="489.878" r="1.067"/>
	<circle style="fill:#FFD15C;" cx="376.48" cy="484.545" r="1.067"/>
	<circle style="fill:#FFD15C;" cx="380.746" cy="488.812" r="1.067"/>
	<circle style="fill:#FFD15C;" cx="387.146" cy="490.945" r="1.067"/>
	<circle style="fill:#FFD15C;" cx="395.68" cy="489.878" r="1.067"/>
	<circle style="fill:#FFD15C;" cx="396.746" cy="494.145" r="1.067"/>
	<circle style="fill:#FFD15C;" cx="399.946" cy="489.878" r="1.067"/>
	<circle style="fill:#FFD15C;" cx="405.28" cy="490.945" r="1.067"/>
	<circle style="fill:#FFD15C;" cx="410.613" cy="490.945" r="1.067"/>
	<circle style="fill:#FFD15C;" cx="291.146" cy="499.478" r="2.133"/>
	<circle style="fill:#FFD15C;" cx="297.546" cy="496.278" r="1.067"/>
	<circle style="fill:#FFD15C;" cx="293.28" cy="495.212" r="1.067"/>
	<circle style="fill:#FFD15C;" cx="284.746" cy="501.612" r="1.067"/>
	<circle style="fill:#FFD15C;" cx="281.546" cy="504.812" r="1.067"/>
	<circle style="fill:#FFD15C;" cx="305.013" cy="495.212" r="1.067"/>
	<circle style="fill:#FFD15C;" cx="301.813" cy="498.412" r="1.067"/>
	<circle style="fill:#FFD15C;" cx="314.613" cy="490.945" r="1.067"/>
	<circle style="fill:#FFD15C;" cx="308.213" cy="498.412" r="3.2"/>
	<circle style="fill:#FFD15C;" cx="322.08" cy="490.945" r="1.067"/>
	<circle style="fill:#FFD15C;" cx="329.546" cy="490.945" r="1.067"/>
	<circle style="fill:#FFD15C;" cx="325.28" cy="493.078" r="1.067"/>
	<circle style="fill:#FFD15C;" cx="321.013" cy="496.278" r="1.067"/>
	<circle style="fill:#FFD15C;" cx="318.88" cy="499.478" r="1.067"/>
	<circle style="fill:#FFD15C;" cx="334.88" cy="486.678" r="1.067"/>
	<circle style="fill:#FFD15C;" cx="332.746" cy="489.878" r="1.067"/>
	<circle style="fill:#FFD15C;" cx="328.48" cy="484.545" r="1.067"/>
	<circle style="fill:#FFD15C;" cx="325.28" cy="488.812" r="1.067"/>
	<circle style="fill:#FFD15C;" cx="317.813" cy="490.945" r="1.067"/>
	<circle style="fill:#FFD15C;" cx="310.346" cy="489.878" r="1.067"/>
	<circle style="fill:#FFD15C;" cx="309.28" cy="494.145" r="1.067"/>
	<circle style="fill:#FFD15C;" cx="306.08" cy="489.878" r="1.067"/>
	<circle style="fill:#FFD15C;" cx="300.746" cy="490.945" r="1.067"/>
	<circle style="fill:#FFD15C;" cx="295.413" cy="490.945" r="1.067"/>
</g>
<g>
	<path style="fill:#F7B64C;" d="M249.546,63.212c0,0,5.333,2.133,6.4-2.133l-3.2-1.067c0,0-1.067-1.067-2.133-2.133
		s-8.533-4.267-8.533-4.267s-8.533,0-11.733,0s-17.067,16-17.067,16l7.467,9.6c0,0,6.4-5.333,8.533-6.4
		c1.067-1.067,8.533,0,11.733,0c3.2,0,3.2,0,3.2,0L249.546,63.212z"/>
	<path style="fill:#F7B64C;" d="M146.08,490.945l-5.333-8.533c0,0-5.333-11.733-9.6-17.067c-3.2-6.4-7.467-17.067-7.467-23.467
		c0-6.4,0-76.8,0-76.8l-24.533-3.2l10.667,99.2l11.733,25.6L146.08,490.945z"/>
</g>
<path style="fill:#344A5E;" d="M140.746,482.412c0,0,1.067,2.133-2.133,3.2c-4.267,1.067-9.6-1.067-11.733-3.2
	c-2.133-2.133-17.067-22.4-17.067-22.4l3.2,22.4c0,0,16,19.2,29.867,21.333c13.867,1.067,16-8.533,16-8.533
	S159.946,486.678,140.746,482.412z"/>
<path style="fill:#FFD15C;" d="M79.946,461.078l2.133-7.467c0,0,3.2-13.867,1.067-20.267c-2.133-6.4-14.933-60.8-14.933-73.6
	c0-12.8,38.4-4.267,38.4-4.267s2.133,33.067,1.067,44.8c-1.067,11.733,0,49.067,3.2,58.667c3.2,9.6,12.8,28.8,16,32s3.2,3.2,3.2,3.2
	s2.133,7.467-6.4,7.467s-18.133-3.2-20.267-7.467c-3.2-4.267-24.533-34.133-24.533-34.133"/>
<path style="fill:#415A6B;" d="M115.146,181.612c0,0-8.533,16-8.533,20.267s9.6,22.4,12.8,41.6c3.2,19.2,11.733,117.333,9.6,133.333
	c0,0-10.667,5.333-26.667,1.067s-34.133-1.067-34.133-1.067s-5.333-58.667-7.467-80s-10.667-41.6-16-50.133
	c0,0-34.133-54.4,7.467-93.867c0,0,21.333-1.067,30.933,0C93.813,153.878,115.146,181.612,115.146,181.612z"/>
<path style="fill:#CED6E0;" d="M178.08,78.145c0,0,10.667-3.2,19.2-5.333c8.533-1.067,21.333-6.4,21.333-6.4
	s4.267,11.733,7.467,13.867c0,0-7.467,4.267-11.733,6.4c-3.2,2.133-7.467,4.267-10.667,6.4c-2.133,2.133-3.2,2.133-5.333,3.2
	c-2.133,1.067-6.4,5.333-9.6,7.467c-3.2,2.133-11.733,9.6-11.733,9.6s2.133,16-6.4,25.6s-56.533,42.667-56.533,42.667
	s-22.4-10.667-37.333-19.2c-14.933-8.533-24.533-9.6-24.533-9.6s12.8-12.8,20.267-18.133c6.4-5.333,38.4-55.467,38.4-55.467
	s14.933-25.6,38.4-25.6l10.667,28.8L178.08,78.145z"/>
<path style="fill:#F05540;" d="M135.413,290.412l-10.667,80c-1.067,5.333-6.4,9.6-11.733,9.6L9.546,366.145
	c-5.333-1.067-9.6-6.4-8.533-11.733l10.667-80c1.067-5.333,6.4-9.6,11.733-8.533l103.467,13.867
	C132.213,278.678,136.48,284.012,135.413,290.412z"/>
<path style="fill:#F3705A;" d="M137.546,288.278l-5.333,38.4l-128-17.067l5.333-38.4c1.067-5.333,5.333-8.533,9.6-8.533h1.067
	l108.8,13.867C134.346,277.612,138.613,281.878,137.546,288.278z"/>
<path style="fill:#FFFFFF;" d="M76.746,316.012l-1.067,9.6l-21.333-3.2l1.067-9.6c0-1.067,1.067-1.067,2.133-1.067l0,0l17.067,2.133
	C75.68,313.878,76.746,314.945,76.746,316.012z"/>
<path style="fill:#F3705A;" d="M95.946,288.278C95.946,288.278,94.88,288.278,95.946,288.278l-42.667-5.333
	c-4.267-1.067-7.467-4.267-6.4-8.533l2.133-17.067c0-4.267,4.267-7.467,8.533-6.4l41.6,5.333c4.267,1.067,7.467,4.267,6.4,8.533l0,0
	l-2.133,17.067C102.346,285.078,99.146,288.278,95.946,288.278z M57.546,258.412L57.546,258.412l-2.133,17.067l0,0l40.533,5.333l0,0
	l2.133-17.067l0,0L57.546,258.412L57.546,258.412z"/>
<path style="fill:#FFD15C;" d="M90.613,255.212l-5.333-1.067c0,0-5.333,8.533-4.267,13.867c0,1.067-7.467,0-7.467-1.067
	c0,1.067-6.4-1.067-5.333-2.133c0,1.067-4.267,0-4.267-1.067c0,1.067-5.333,0-4.267-2.133c0,0-2.133-7.467,0-12.8
	s5.333-10.667,5.333-10.667l20.267-7.467l2.133,10.667c0,0,0,2.133,2.133,4.267C90.613,247.745,90.613,255.212,90.613,255.212z"/>
<path style="fill:#E8EAE9;" d="M97.013,88.812c3.2-6.4,7.467-11.733,12.8-17.067c5.333-4.267,10.667-7.467,18.133-6.4
	c16,1.067,16,24.533,10.667,40.533c-5.333,16-12.8,18.133-20.267,27.733c-7.467,9.6-21.333,23.467-21.333,28.8
	c0,5.333,2.133,8.533-2.133,13.867c-4.267,5.333-4.267,4.267-4.267,9.6s-1.067,57.6-1.067,57.6s-14.933,4.267-26.667-1.067
	c0,0,2.133-7.467,2.133-12.8c0-5.333-3.2-25.6-2.133-29.867c1.067-5.333,2.133-8.533,2.133-16c0-8.533,1.067-14.933,3.2-20.267
	c1.067-5.333,7.467-19.2,10.667-28.8C81.013,127.212,91.68,100.545,97.013,88.812z"/>
<g>
	<path style="fill:#415A6B;" d="M189.813,21.612c-3.2,7.467-9.6,12.8-14.933,10.667c-5.333-2.133-6.4-9.6-3.2-17.067
		c3.2-7.467,9.6-12.8,14.933-10.667C191.946,5.612,193.013,13.078,189.813,21.612z"/>
	<path style="fill:#415A6B;" d="M178.08,17.345c-2.133,4.267-5.333,7.467-8.533,6.4s-3.2-5.333-1.067-9.6s5.333-7.467,8.533-6.4
		S180.213,13.078,178.08,17.345z"/>
</g>
<path style="fill:#FFD15C;" d="M149.28,53.612c0,0,18.133-3.2,24.533-11.733s12.8-24.533,25.6-26.667s30.933,0,35.2,5.333
	s5.333,8.533,5.333,11.733s-5.333,17.067-5.333,17.067s-3.2,2.133-4.267,3.2c0,0,1.067,10.667,0,12.8
	c-1.067,2.133-2.133,3.2-6.4,2.133c0,0,0,2.133,0,4.267c0,2.133-1.067,2.133-2.133,2.133c0,0,0,3.2-2.133,3.2
	c-2.133,0-3.2,3.2-4.267,5.333c-1.067,2.133-11.733-1.067-18.133-5.333c-6.4-4.267-21.333,7.467-21.333,7.467s5.333,11.733,0,21.333
	c-5.333,9.6-7.467,9.6-7.467,9.6L149.28,53.612z"/>
<path style="fill:#415A6B;" d="M172.746,42.945c0,0,3.2,3.2,7.467-2.133c4.267-5.333,8.533-11.733,12.8-10.667
	c4.267,1.067,7.467,4.267,6.4,10.667l3.2,1.067c0,0,5.333-5.333,10.667-7.467c5.333-2.133,8.533-3.2,10.667-5.333
	c2.133-3.2,6.4-7.467,8.533-6.4c2.133,1.067,7.467,6.4,7.467,10.667c0,0,4.267-5.333-1.067-14.933s-17.067-16-29.867-18.133
	c-13.867-2.133-21.333,8.533-26.667,13.867C175.946,20.545,170.613,36.545,172.746,42.945z"/>
<ellipse style="fill:#FFD15C;" cx="194.08" cy="37.612" rx="6.4" ry="9.6"/>
<path style="fill:#F7B64C;" d="M193.013,52.545c0,0-1.067,10.667,0,21.333c2.133,0,3.2,0,4.267,1.067
	c3.2,2.133,7.467,4.267,11.733,5.333C203.68,76.012,196.213,67.478,193.013,52.545z"/>
<g>
	<path style="fill:#E8EAE9;" d="M163.146,49.345c0,0,0,12.8,0,21.333s5.333,21.333,5.333,21.333l-17.067,1.067l-2.133-39.467
		c0,0,5.333-1.067,7.467-3.2C158.88,48.278,162.08,48.278,163.146,49.345z"/>
	<path style="fill:#E8EAE9;" d="M183.413,78.145c0,0,3.2,13.867,3.2,16l-8.533,6.4c0,0,0-14.933-1.067-18.133
		C179.146,80.278,181.28,79.212,183.413,78.145z"/>
	<path style="fill:#E8EAE9;" d="M161.013,87.745l7.467,5.333c0,0,2.133,16,1.067,20.267l-9.6-21.333L161.013,87.745z"/>
	<path style="fill:#E8EAE9;" d="M183.413,96.278c0,0-7.467,16-13.867,17.067l8.533-11.733L183.413,96.278z"/>
</g>
<path style="fill:#415A6B;" d="M82.08,453.612c0,0,6.4,7.467,9.6,14.933s9.6,18.133,17.067,22.4c7.467,4.267,19.2,2.133,19.2-1.067
	c0,0,11.733,2.133,14.933,6.4c3.2,4.267,1.067,8.533-3.2,11.733c-4.267,3.2-24.533,5.333-27.733,2.133
	c-3.2-2.133-4.267-12.8-12.8-21.333s-14.933-8.533-14.933-8.533v24.533h-3.2c0,0-1.067-22.4-7.467-33.067
	C67.146,462.145,78.88,452.545,82.08,453.612z"/>
<g>
	<path style="fill:#CED6E0;" d="M345.546,95.212l-57.6,21.333l-2.133,4.267c-2.133,3.2-6.4,5.333-9.6,3.2l-34.133-19.2
		c-3.2-2.133-5.333-6.4-3.2-10.667l25.6-46.933l48,26.667l-8.533,16l40.533-1.067L345.546,95.212z"/>
	<path style="fill:#CED6E0;" d="M241.013,89.878c-7.467-4.267-10.667-16-6.4-26.667c2.133-6.4,7.467-10.667,11.733-12.8
		c3.2-1.067,7.467-1.067,9.6,1.067c7.467,4.267,9.6,16,5.333,26.667l0,0c-2.133,6.4-7.467,10.667-11.733,12.8
		C247.413,92.012,244.213,92.012,241.013,89.878z M254.88,56.812c-1.067-1.067-3.2-1.067-5.333,0c-3.2,1.067-6.4,4.267-8.533,9.6
		c-3.2,7.467-2.133,17.067,3.2,19.2c1.067,0,2.133,0,4.267,0c3.2-1.067,6.4-4.267,8.533-9.6l0,0
		C260.213,67.478,259.146,58.945,254.88,56.812z"/>
	<path style="fill:#CED6E0;" d="M310.346,67.478c3.2-7.467-2.133-18.133-13.867-24.533c-10.667-6.4-23.467-5.333-27.733,1.067
		L310.346,67.478z"/>
</g>
<path style="fill:#E8EAE9;" d="M310.346,73.878l-48-26.667c-2.133-1.067-2.133-3.2-1.067-4.267c1.067-2.133,3.2-2.133,4.267-1.067
	l48,26.667c2.133,1.067,2.133,3.2,1.067,4.267C314.613,74.945,312.48,74.945,310.346,73.878z"/>
<path style="fill:#FFD15C;" d="M241.013,74.945l-6.4-4.267c-1.067-1.067,0-4.267,2.133-2.133c-2.133-3.2,1.067-6.4,3.2-4.267
	c-2.133-2.133,1.067-4.267,3.2-2.133c-1.067-1.067,1.067-3.2,2.133-2.133l7.467,5.333c1.067,1.067-1.067,3.2-2.133,2.133
	c1.067,1.067-2.133,3.2-3.2,3.2c1.067,1.067-2.133,4.267-3.2,3.2c1.067,1.067-1.067,3.2-2.133,2.133L241.013,74.945z"/>
<g>
	<path style="fill:#8AD7F8;" d="M354.08,112.278c-1.067-2.133-8.533-4.267-8.533-4.267s3.2,6.4,4.267,7.467
		c1.067,1.067,3.2,1.067,4.267,1.067C355.146,115.478,355.146,113.345,354.08,112.278z"/>
	<path style="fill:#8AD7F8;" d="M361.546,126.145c0-2.133-5.333-6.4-5.333-6.4s0,6.4,1.067,8.533c0,1.067,2.133,2.133,3.2,2.133
		C361.546,130.412,362.613,128.278,361.546,126.145z"/>
	<path style="fill:#8AD7F8;" d="M363.68,143.212c0-2.133-2.133-8.533-3.2-8.533c0,0-2.133,6.4-3.2,7.467
		c0,2.133,1.067,3.2,2.133,3.2C361.546,146.412,363.68,145.345,363.68,143.212z"/>
	<path style="fill:#8AD7F8;" d="M363.68,100.545c-2.133-2.133-11.733-6.4-11.733-5.333c0,0,4.267,9.6,6.4,11.733
		c1.067,2.133,4.267,2.133,6.4,1.067C364.746,105.878,365.813,102.678,363.68,100.545z"/>
	<path style="fill:#8AD7F8;" d="M375.413,122.945c-1.067-3.2-8.533-10.667-8.533-9.6c0,0,0,10.667,1.067,12.8
		c1.067,2.133,3.2,4.267,5.333,3.2C374.346,128.278,376.48,125.078,375.413,122.945z"/>
	<path style="fill:#8AD7F8;" d="M377.546,147.478c1.067-3.2-4.267-12.8-4.267-12.8s-3.2,9.6-4.267,11.733
		c0,2.133,1.067,5.333,3.2,5.333C375.413,151.745,377.546,150.678,377.546,147.478z"/>
	<path style="fill:#8AD7F8;" d="M374.346,104.812c-1.067-2.133-7.467-4.267-7.467-4.267s3.2,6.4,4.267,7.467
		c1.067,1.067,3.2,1.067,4.267,1.067C375.413,108.012,375.413,105.878,374.346,104.812z"/>
	<path style="fill:#8AD7F8;" d="M381.813,118.678c0-2.133-5.333-6.4-5.333-6.4s0,6.4,1.067,8.533c0,1.067,2.133,2.133,3.2,2.133
		C381.813,121.878,381.813,120.812,381.813,118.678z"/>
	<path style="fill:#8AD7F8;" d="M382.88,134.678c0-2.133-2.133-8.533-2.133-8.533s-2.133,6.4-3.2,7.467c0,1.067,1.067,3.2,2.133,3.2
		C381.813,137.878,382.88,136.812,382.88,134.678z"/>
</g>
<g>
</g>
<g>
</g>
<g>
</g>
<g>
</g>
<g>
</g>
<g>
</g>
<g>
</g>
<g>
</g>
<g>
</g>
<g>
</g>
<g>
</g>
<g>
</g>
<g>
</g>
<g>
</g>
<g>
</g>
</svg>
