<?xml version="1.0" encoding="iso-8859-1"?>
<!-- Generator: Adobe Illustrator 19.0.0, SVG Export Plug-In . SVG Version: 6.00 Build 0)  -->
<svg version="1.1" id="Capa_1" xmlns="http://www.w3.org/2000/svg" xmlns:xlink="http://www.w3.org/1999/xlink" x="0px" y="0px"
	 viewBox="0 0 512.706 512.706" style="enable-background:new 0 0 512.706 512.706;" xml:space="preserve">
<g>
	<path style="fill:#FFD15C;" d="M68.973,352.601c0,0,5.333,14.933,4.267,30.933s-1.067,16-1.067,16l56.533,18.133l-4.267-20.267
		l2.133-20.267c0,0,13.867-12.8,12.8-42.667c-1.067-29.867,0-29.867,0-29.867s0-20.267-17.067-24.533s-42.667,1.067-48,7.467
		C68.973,293.934,64.706,339.801,68.973,352.601z"/>
	<path style="fill:#FFD15C;" d="M59.373,344.068c2.133,7.467,7.467,11.733,11.733,10.667c4.267-1.067,5.333-7.467,2.133-14.933
		c-3.2-7.467-7.467-11.733-11.733-10.667C57.239,330.201,56.173,336.601,59.373,344.068z"/>
	<path style="fill:#FFD15C;" d="M142.573,339.801c-1.067,7.467-4.267,13.867-8.533,13.867c-4.267,0-6.4-6.4-5.333-13.867
		c1.067-7.467,4.267-13.867,8.533-13.867C141.506,327.001,143.639,332.334,142.573,339.801z"/>
</g>
<path style="fill:#415A6B;" d="M63.639,292.868c4.267-10.667,21.333-22.4,33.067-24.533c11.733-2.133,30.933,2.133,38.4,13.867
	c7.467,10.667,9.6,36.267,7.467,42.667c-1.067,5.333-2.133,12.8-2.133,13.867h-2.133c0-3.2,1.067-16,0-20.267
	c-2.133-5.333-4.267-11.733-4.267-17.067c0-5.333-2.133-10.667-9.6-13.867c-8.533-3.2-39.467,1.067-42.667,3.2
	c-4.267,2.133-5.333,8.533-5.333,12.8c0,5.333-4.267,12.8-5.333,16s0,18.133,0,18.133h-4.267c0,0-3.2-6.4-4.267-11.733
	C61.506,321.668,58.306,304.601,63.639,292.868z"/>
<path style="fill:#F7B64C;" d="M99.906,381.401c17.067,6.4,27.733-4.267,27.733-4.267l-2.133,20.267l2.133,8.533
	c-44.8-13.867-55.467-42.667-55.467-42.667S81.773,376.068,99.906,381.401z"/>
<polygon style="fill:#CED6E0;" points="112.706,512.601 72.173,408.068 113.773,401.668 115.906,401.668 130.839,405.934 
	141.506,419.801 143.639,499.801 138.306,512.601 "/>
<g>
	<path style="fill:#F3705A;" d="M121.239,512.601l-14.933-67.2c0,0,7.467-20.267,8.533-25.6c1.067-6.4,1.067-6.4,1.067-6.4
		l10.667,6.4c0,0,7.467,9.6,10.667,21.333c3.2,12.8,9.6,60.8,9.6,60.8l-3.2,10.667H121.239z"/>
	<path style="fill:#F3705A;" d="M104.173,407.001c0,0,8.533,4.267,10.667,12.8c4.267-2.133,7.467-2.133,11.733,0l2.133-14.933
		l-12.8-1.067h-2.133L104.173,407.001z"/>
</g>
<path style="fill:#344A5E;" d="M14.573,512.601c-2.133-7.467-4.267-12.8-5.333-17.067c-3.2-13.867-11.733-56.533-8.533-70.4
	s20.267-16,32-16s21.333-8.533,21.333-8.533l12.8-5.333c0,0,33.067,23.467,49.067,66.133c5.333,14.933,11.733,34.133,16,51.2H14.573
	z"/>
<g>
	<path style="fill:#F3F3F3;" d="M74.306,378.201c0,0,6.4,5.333,12.8,8.533c6.4,3.2,26.667,14.933,26.667,14.933l-18.133,20.267
		l-28.8-30.933L74.306,378.201z"/>
	<path style="fill:#F3F3F3;" d="M115.906,401.668L115.906,401.668c7.467,5.333,12.8,12.8,17.067,21.333l1.067,1.067
		c0,0-2.133-16-3.2-23.467s-4.267-13.867-4.267-13.867S123.373,398.468,115.906,401.668z"/>
</g>
<g>
	<path style="fill:#415A6B;" d="M128.706,512.601c-7.467-21.333-16-43.733-22.4-55.467c-17.067-26.667-28.8-34.133-28.8-34.133
		l5.333-8.533H72.173c0,0-13.867-11.733-16-12.8c-2.133-1.067-1.067-1.067,0-3.2c1.067-1.067,5.333-5.333,8.533-8.533
		c3.2-3.2,5.333-3.2,5.333-3.2s3.2,6.4,7.467,9.6c4.267,3.2,25.6,19.2,38.4,46.933c7.467,14.933,14.933,42.667,21.333,69.333
		L128.706,512.601L128.706,512.601z"/>
	<path style="fill:#415A6B;" d="M148.973,512.601h-10.667c0-20.267,3.2-38.4,3.2-50.133c0-18.133-10.667-56.533-10.667-56.533
		s3.2,2.133,6.4,5.333c3.2,3.2,11.733,9.6,11.733,9.6l-5.333,2.133l10.667,3.2c3.2,11.733,2.133,58.667-1.067,70.4
		C152.173,499.801,151.106,505.134,148.973,512.601z"/>
</g>
<path style="fill:#344A5E;" d="M143.639,500.868c-1.067,3.2-1.067,7.467-1.067,11.733h76.8c-2.133-3.2-3.2-5.333-4.267-6.4
	c-3.2-4.267-7.467-13.867-8.533-17.067c-1.067-4.267-2.133-9.6-4.267-16c-2.133-6.4-1.067-9.6-4.267-19.2
	c-6.4-23.467-36.267-26.667-43.733-30.933c-8.533-3.2-9.6-5.333-9.6-5.333s-3.2-1.067-3.2,4.267
	C140.439,425.134,146.839,476.334,143.639,500.868z"/>
<path style="fill:#E8EAE9;" d="M496.706,137.134H383.639l-56.533,56.533v166.4c0,8.533,7.467,16,16,16h153.6c8.533,0,16-7.467,16-16
	V153.134C512.706,144.601,505.239,137.134,496.706,137.134z"/>
<g>
	<rect x="353.773" y="332.334" style="fill:#ADB3BA;" width="132.267" height="14.933"/>
	<rect x="353.773" y="295.001" style="fill:#ADB3BA;" width="132.267" height="14.933"/>
	<rect x="353.773" y="257.668" style="fill:#ADB3BA;" width="132.267" height="14.933"/>
	<rect x="353.773" y="220.334" style="fill:#ADB3BA;" width="132.267" height="14.933"/>
	<rect x="402.839" y="183.001" style="fill:#ADB3BA;" width="83.2" height="14.933"/>
</g>
<path style="fill:#CED6E0;" d="M327.106,193.668h38.4c9.6,0,18.133-8.533,18.133-18.133v-38.4L327.106,193.668z"/>
<g>
	
		<ellipse transform="matrix(0.1194 -0.9928 0.9928 0.1194 49.2914 199.7893)" style="fill:#FFD15C;" cx="137.273" cy="72.108" rx="12.801" ry="5.334"/>
	
		<ellipse transform="matrix(0.1194 0.9928 -0.9928 0.1194 130.4651 -1.9805)" style="fill:#FFD15C;" cx="66.349" cy="72.557" rx="12.801" ry="5.334"/>
	<path style="fill:#FFD15C;" d="M125.506,138.201v-28.8c9.6-11.733,9.6-40.533,9.6-40.533V57.134c0,0,2.133-27.733-7.467-34.133
		c-9.6-6.4-57.6,0-59.733,9.6s0,36.267,0,36.267s0,22.4,6.4,35.2v32L125.506,138.201z"/>
</g>
<path style="fill:#344A5E;" d="M68.973,68.868c0,0,5.333-10.667,4.267-20.267s-2.133-12.8,1.067-14.933s36.267-1.067,42.667-3.2
	c6.4-2.133,11.733,4.267,10.667,7.467c-1.067,3.2,1.067,13.867,3.2,17.067c1.067,3.2,3.2,9.6,3.2,13.867h2.133
	c0,0,6.4-26.667,3.2-41.6c-3.2-14.933-14.933-23.467-32-26.667s-39.467,9.6-42.667,23.467
	C61.506,37.934,67.906,68.868,68.973,68.868L68.973,68.868z"/>
<path style="fill:#F7B64C;" d="M74.306,104.068c0,0,7.467,20.267,51.2,34.133v-27.733
	C109.506,121.134,93.506,117.934,74.306,104.068z"/>
<polygon style="fill:#CED6E0;" points="141.506,234.201 142.573,231.001 140.439,151.001 129.773,138.201 114.839,133.934 
	112.706,133.934 71.106,140.334 108.439,234.201 "/>
<g>
	<path style="fill:#F3705A;" d="M144.706,234.201l1.067-2.133c0,0-6.4-48-9.6-59.733c-3.2-11.733-10.667-21.333-10.667-21.333
		l-10.667-6.4c0,0,0,1.067-1.067,6.4c-1.067,6.4-8.533,25.6-8.533,25.6l12.8,57.6L144.706,234.201L144.706,234.201z"/>
	<path style="fill:#F3705A;" d="M103.106,138.201c0,0,8.533,4.267,9.6,11.733c4.267-2.133,7.467-2.133,10.667,0l2.133-14.933
		l-12.8-1.067h-2.133L103.106,138.201z"/>
</g>
<g>
	<path style="fill:#344A5E;" d="M141.506,232.068c3.2-23.467-2.133-75.733-3.2-80c0-4.267,3.2-4.267,3.2-4.267
		s2.133,2.133,9.6,5.333c7.467,3.2,34.133,7.467,43.733,30.933c4.267,9.6,2.133,12.8,4.267,19.2c2.133,6.4,3.2,11.733,4.267,16
		c1.067,3.2,4.267,9.6,6.4,14.933h-69.333C141.506,233.134,141.506,232.068,141.506,232.068z"/>
	<path style="fill:#344A5E;" d="M11.373,234.201h116.267c-4.267-14.933-8.533-28.8-13.867-41.6c-16-42.667-48-66.133-48-66.133
		l-11.733,5.333c0,0-10.667,8.533-21.333,8.533c-10.667,1.067-27.733,2.133-30.933,16s4.267,55.467,8.533,70.4
		C10.306,228.868,10.306,231.001,11.373,234.201z"/>
</g>
<g>
	<path style="fill:#F3F3F3;" d="M73.239,110.468c0,0,6.4,5.333,12.8,8.533c6.4,3.2,26.667,14.933,26.667,14.933l-18.133,20.267
		l-28.8-30.933L73.239,110.468z"/>
	<path style="fill:#F3F3F3;" d="M114.839,133.934L114.839,133.934c7.467,5.333,12.8,12.8,17.067,21.333l1.067,1.067
		c0,0-2.133-16-3.2-23.467c-1.067-7.467-4.267-13.867-4.267-13.867S122.306,130.734,114.839,133.934z"/>
</g>
<g>
	<path style="fill:#415A6B;" d="M71.106,146.734h10.667l-5.333,7.467c0,0,10.667,7.467,27.733,34.133
		c6.4,9.6,12.8,27.733,19.2,45.867h8.533c-5.333-23.467-12.8-46.933-19.2-59.733c-12.8-27.733-33.067-43.733-38.4-46.933
		c-4.267-3.2-7.467-9.6-7.467-9.6s1.067,0-2.133,4.267c-3.2,3.2-7.467,7.467-8.533,8.533c-1.067,1.067-2.133,2.133,0,3.2
		C57.239,135.001,71.106,146.734,71.106,146.734z"/>
	<path style="fill:#415A6B;" d="M137.239,234.201h12.8c1.067-3.2,1.067-5.333,2.133-7.467c4.267-11.733,5.333-57.6,1.067-69.333
		l-10.667-3.2l5.333-2.133c0,0-8.533-6.4-11.733-8.533c-3.2-3.2-6.4-5.333-6.4-5.333s11.733,38.4,10.667,55.467
		C140.439,203.268,138.306,218.201,137.239,234.201z"/>
</g>
<path style="fill:#66C6B9;" d="M303.639,245.934v21.333h-36.267v145.067c0,5.333-4.267,10.667-10.667,10.667h-50.133v-21.333h39.467
	V112.601h-39.467V91.268h50.133c6.4,0,10.667,4.267,10.667,10.667v144H303.639z"/>
<g>
</g>
<g>
</g>
<g>
</g>
<g>
</g>
<g>
</g>
<g>
</g>
<g>
</g>
<g>
</g>
<g>
</g>
<g>
</g>
<g>
</g>
<g>
</g>
<g>
</g>
<g>
</g>
<g>
</g>
</svg>
