<?xml version="1.0" encoding="iso-8859-1"?>
<!-- Generator: Adobe Illustrator 19.0.0, SVG Export Plug-In . SVG Version: 6.00 Build 0)  -->
<svg version="1.1" id="Capa_1" xmlns="http://www.w3.org/2000/svg" xmlns:xlink="http://www.w3.org/1999/xlink" x="0px" y="0px"
	 viewBox="0 0 512.156 512.156" style="enable-background:new 0 0 512.156 512.156;" xml:space="preserve">
<path style="fill:#FFD15C;" d="M63.011,35.356c0,0-4.267-12.8-4.267-16s4.267-3.2,5.333-2.133c1.067,1.067,5.333,0,7.467,2.133
	s7.467,9.6,7.467,13.867s1.067,17.067,1.067,17.067l7.467,10.667l-7.467,9.6c0,0-5.333-7.467-6.4-10.667
	c-1.067-3.2-8.533-6.4-8.533-10.667S63.011,35.356,63.011,35.356z"/>
<path style="fill:#415A6B;" d="M87.545,56.689L75.811,68.423c0,0,17.067,18.133,24.533,27.733s21.333,17.067,30.933,18.133
	s51.2-3.2,51.2-3.2l-2.133-29.867c0,0-32,12.8-39.467,13.867s-16-5.333-16-5.333L87.545,56.689z"/>
<path style="fill:#CED6E0;" d="M124.878,421.489c10.667,3.2,13.867-3.2,13.867,2.133c1.067,5.333,14.933,7.467,22.4,13.867
	c7.467,6.4,13.867,4.267,17.067,10.667c3.2,6.4,1.067,11.733,20.267,17.067c19.2,5.333,12.8,4.267,13.867,8.533
	c1.067,4.267,4.267,12.8,11.733,13.867c7.467,2.133,19.2,7.467,25.6,11.733c6.4,4.267,17.067,5.333,23.467,4.267
	c5.333-1.067,7.467,3.2,7.467,7.467h190.933c-2.133-5.333-4.267-9.6-6.4-13.867c-5.333-14.933-17.067-28.8-35.2-35.2
	c-16-6.4-66.133-56.533-66.133-56.533c-6.4,0-16-12.8-27.733-13.867c-19.2-2.133-53.333-16-67.2-14.933s-25.6,9.6-25.6,9.6
	s-44.8-4.267-55.467-4.267c-9.6,0-14.933,3.2-20.267,3.2c-4.267,0-13.867-1.067-20.267,0s-19.2,7.467-23.467,11.733
	s-17.067,6.4-19.2,11.733C103.545,412.956,115.278,418.289,124.878,421.489z"/>
<g>
	<polygon style="fill:#ADB3BA;" points="268.878,405.489 308.345,416.156 303.011,418.289 352.078,440.689 342.478,442.823 
		358.478,459.889 	"/>
	<polygon style="fill:#ADB3BA;" points="353.145,476.956 169.678,409.756 285.945,440.689 276.345,442.823 	"/>
	<polygon style="fill:#ADB3BA;" points="188.878,437.489 214.478,455.623 221.945,472.689 263.545,489.756 233.678,469.489 
		224.078,448.156 176.078,421.489 211.278,448.156 	"/>
	<polygon style="fill:#ADB3BA;" points="255.011,471.623 315.811,512.156 324.345,512.156 289.145,480.156 311.545,479.089 
		229.411,439.623 264.611,471.623 	"/>
	<polygon style="fill:#ADB3BA;" points="383.011,512.156 343.545,485.489 371.278,512.156 	"/>
	<polygon style="fill:#ADB3BA;" points="406.478,510.023 409.678,512.156 439.545,512.156 377.678,442.823 424.611,512.156 	"/>
</g>
<path style="fill:#FFD15C;" d="M208.078,58.823l1.067-2.133c0,0-1.067-1.067-1.067-6.4c1.067-5.333-6.4-37.333-6.4-37.333
	l-22.4-4.267c0,0-6.4,7.467-5.333,13.867c0,0,1.067,1.067,0,3.2c-1.067,2.133-6.4,6.4-6.4,6.4s-2.133,3.2,0,4.267
	s2.133,1.067,2.133,1.067s0,2.133,0,4.267c0,2.133,1.067,2.133,1.067,2.133s-2.133,1.067-1.067,4.267s1.067,6.4,3.2,6.4
	c2.133,1.067,9.6,0,11.733,2.133c2.133,2.133,4.267,19.2,4.267,19.2L208.078,58.823z"/>
<path style="fill:#E8EAE9;" d="M208.078,57.756c-11.733,5.333-22.4,10.667-32,17.067l1.067,9.6l34.133-17.067l-1.067-8.533
	C210.211,57.756,209.145,56.689,208.078,57.756z"/>
<path style="fill:#F7B64C;" d="M217.678,366.023v-9.6c0,0-4.267-1.067-6.4-7.467c-2.133-7.467-6.4-19.2-7.467-30.933
	c-1.067-10.667-11.733-26.667-16-35.2s-4.267-7.467-4.267-7.467l-12.8,20.267c0,0,19.2,43.733,22.4,54.4
	c4.267,10.667,2.133,30.933,0,34.133c-2.133,3.2-3.2,5.333-3.2,5.333l10.667,7.467C201.678,395.889,212.345,372.423,217.678,366.023
	z"/>
<g>
	<path style="fill:#F05540;" d="M223.011,362.823c0,0,1.067,5.333,0,9.6s0,19.2,0,19.2h-2.133c0,0,0-16-5.333-17.067
		S223.011,362.823,223.011,362.823z"/>
	<path style="fill:#F05540;" d="M193.145,384.156c0,0-3.2,2.133-6.4,4.267c-4.267,1.067-6.4,5.333-4.267,8.533
		s16,5.333,20.267,2.133c4.267-3.2,4.267-7.467,6.4-12.8c2.133-5.333,5.333-10.667,8.533-12.8c3.2-2.133,6.4-6.4,5.333-10.667
		c-1.067-5.333-5.333-6.4-5.333-6.4s-2.133,7.467-5.333,13.867c-3.2,6.4-8.533,18.133-11.733,19.2
		C196.345,390.556,191.011,388.423,193.145,384.156z"/>
</g>
<path style="fill:#FFD15C;" d="M149.411,417.223l-2.133-4.267c0,0,0-3.2,2.133-7.467c2.133-4.267,5.333-9.6,6.4-14.933
	c2.133-4.267,3.2-16,5.333-20.267c2.133-4.267,0-65.067,0-65.067l24.533-4.267c0,0,6.4,21.333,1.067,35.2
	c-5.333,13.867-9.6,30.933-9.6,35.2c1.067,4.267,1.067,6.4,1.067,6.4s2.133,7.467,1.067,11.733c-1.067,4.267-10.667,11.733-12.8,16
	S149.411,417.223,149.411,417.223z"/>
<g>
	<path style="fill:#F3705A;" d="M148.345,404.423c0,0-1.067,2.133,1.067,4.267c2.133,2.133,7.467,2.133,10.667-1.067
		c3.2-2.133,16-18.133,18.133-23.467c1.067-5.333,1.067-7.467,1.067-7.467s6.4,5.333,5.333,10.667
		c-1.067,5.333-9.6,9.6-13.867,17.067c-4.267,7.467-4.267,11.733-6.4,13.867c-2.133,2.133-11.733,4.267-18.133,2.133
		c-6.4-2.133-9.6-6.4-8.533-7.467C137.678,410.823,148.345,404.423,148.345,404.423z"/>
	<path style="fill:#F3705A;" d="M176.078,394.823v20.267h1.067c0,0,1.067-16,4.267-21.333c3.2-5.333,2.133-8.533,2.133-8.533
		L176.078,394.823z"/>
</g>
<path style="fill:#344A5E;" d="M149.411,307.356c0,0,22.4,11.733,39.467-4.267c0,0,4.267-8.533,2.133-14.933s-3.2-48,1.067-61.867
	c4.267-13.867,7.467-36.267,0-52.267s-7.467-16-7.467-16l-44.8,21.333c0,0,0,25.6,4.267,56.533
	C149.411,266.823,149.411,307.356,149.411,307.356z"/>
<path style="fill:#415A6B;" d="M132.345,186.823c0,0,5.333,11.733,17.067,13.867c11.733,2.133,48,1.067,48,1.067
	s6.4-19.2-1.067-34.133c-7.467-13.867-6.4-22.4-4.267-27.733c3.2-5.333,24.533-26.667,24.533-45.867s-2.133-33.067-2.133-33.067
	s-6.4,0-18.133,5.333s-32,18.133-38.4,26.667c-6.4,8.533-14.933,37.333-20.267,46.933
	C132.345,149.489,130.211,180.423,132.345,186.823z"/>
<path style="fill:#F3705A;" d="M173.945,17.223c0,0,2.133,0,6.4-1.067c3.2-2.133,13.867-2.133,11.733,2.133
	c-2.133,3.2-3.2,8.533-1.067,13.867s4.267,4.267,4.267,7.467c0,3.2,0,2.133,0,2.133h2.133c0,0,2.133-4.267,5.333-4.267
	s5.333,13.867,5.333,13.867s5.333-2.133,6.4-14.933c2.133-12.8,2.133-20.267-3.2-26.667c-5.333-6.4-10.667-8.533-18.133-9.6
	S171.811,3.356,173.945,17.223z"/>
<rect x="40.611" y="24.689" style="fill:#415A6B;" width="41.6" height="13.867"/>
<rect x="83.278" y="25.756" style="fill:#344A5E;" width="35.2" height="10.667"/>
<g>
	<rect x="118.478" y="27.889" style="fill:#415A6B;" width="20.267" height="7.467"/>
	<polygon style="fill:#415A6B;" points="143.011,25.756 143.011,36.423 137.678,35.356 137.678,27.889 	"/>
</g>
<g>
	<path style="fill:#FFD15C;" d="M71.545,52.423c0,0-4.267-4.267-4.267-8.533s0-5.333-2.133-7.467c-1.067-3.2-2.133-4.267-1.067-6.4
		s4.267-1.067,5.333,1.067c1.067,1.067,4.267,5.333,4.267,6.4s3.2,5.333,3.2,5.333L71.545,52.423z"/>
	<path style="fill:#FFD15C;" d="M108.878,62.023c0,0-3.2-5.333-3.2-7.467c0-3.2,1.067-8.533,2.133-10.667
		c1.067-2.133,1.067-4.267,1.067-4.267s-2.133-4.267-3.2-7.467c-2.133-2.133-4.267-6.4-4.267-6.4c0-2.133,3.2-3.2,3.2-1.067
		c0,0,4.267,6.4,5.333,8.533c1.067,2.133,2.133,3.2,2.133,3.2s0-2.133,0-3.2s-1.067-2.133-1.067-2.133l-5.333-7.467
		c0,0,1.067-1.067,4.267-1.067c2.133,0,6.4,4.267,7.467,5.333c1.067,1.067,1.067,7.467,1.067,7.467v-7.467
		c0,0-5.333-5.333-7.467-5.333c0,0,3.2,0,6.4,0c2.133,0,5.333,2.133,5.333,4.267s2.133,10.667,2.133,11.733s2.133,2.133,0,5.333
		s-5.333,9.6-5.333,14.933c0,5.333,0,5.333,0,5.333L108.878,62.023z"/>
</g>
<path style="fill:#344A5E;" d="M179.278,83.356c6.4-5.333,13.867-8.533,22.4-8.533c2.133,0,5.333,0,7.467,1.067
	c9.6,4.267,7.467,20.267,3.2,27.733c-4.267,6.4-14.933,16-26.667,18.133c-11.733,3.2-26.667,5.333-37.333,3.2
	c-10.667-2.133-16-2.133-23.467-6.4c-7.467-5.333-24.533-52.267-24.533-52.267s7.467-8.533,13.867-9.6
	c6.4-1.067,6.4,2.133,6.4,2.133s5.333,18.133,7.467,22.4c2.133,3.2,4.267,9.6,5.333,10.667c1.067,0,4.267,4.267,4.267,4.267
	s3.2,2.133,6.4,1.067s18.133-3.2,24.533-6.4C171.811,89.756,176.078,86.556,179.278,83.356z"/>
<path style="fill:#F3705A;" d="M210.211,127.089c7.467-5.333,14.933-13.867,12.8-22.4c-1.067-5.333,0-10.667,1.067-16
	c2.133-5.333,4.267-10.667,6.4-14.933c2.133-6.4,2.133-13.867,1.067-20.267c-1.067-9.6-10.667-16-17.067-23.467l0,6.4
	c4.267,5.333,5.333,13.867,3.2,20.267c-1.067,7.467-4.267,14.933-6.4,22.4s-3.2,16-2.133,23.467c0,1.067,0,2.133,1.067,3.2
	C212.345,113.223,212.345,119.623,210.211,127.089L210.211,127.089z"/>
<path style="fill:#415A6B;" d="M214.478,40.689c1.067,1.067,1.067,2.133,2.133,0c1.067-2.133,3.2-4.267,5.333-5.333
	c0-5.333-2.133-7.467-6.4-7.467C213.411,32.156,213.411,36.423,214.478,40.689z"/>
<g>
</g>
<g>
</g>
<g>
</g>
<g>
</g>
<g>
</g>
<g>
</g>
<g>
</g>
<g>
</g>
<g>
</g>
<g>
</g>
<g>
</g>
<g>
</g>
<g>
</g>
<g>
</g>
<g>
</g>
</svg>
