<?xml version="1.0" encoding="iso-8859-1"?>
<!-- Generator: Adobe Illustrator 19.0.0, SVG Export Plug-In . SVG Version: 6.00 Build 0)  -->
<svg version="1.1" id="Capa_1" xmlns="http://www.w3.org/2000/svg" xmlns:xlink="http://www.w3.org/1999/xlink" x="0px" y="0px"
	 viewBox="0 0 512 512" style="enable-background:new 0 0 512 512;" xml:space="preserve">
<circle style="fill:#55C0EB;" cx="256" cy="256" r="256"/>
<g>
	<path style="fill:#F3F3F3;" d="M33.067,130.133c1.067,2.133,2.133,2.133,4.267,3.2c1.067,1.067,2.133,1.067,3.2,2.133
		c0,0,1.067,0,2.133,1.067c0-1.067-1.067-2.133-1.067-2.133c-2.133-3.2-4.267-5.333-6.4-7.467c5.333-8.533,10.667-17.067,16-24.533
		c0,1.067,0,1.067,0,2.133s-1.067,2.133-1.067,3.2c2.133,1.067,4.267,0,6.4,0c0,3.2,0,3.2,2.133,4.267c0-1.067,0-2.133,0-2.133
		s2.133,0,3.2,0c-1.067-1.067,1.067-2.133,2.133-3.2c-1.067,1.067-2.133,1.067-2.133,1.067c-1.067,0-1.067,1.067-2.133,0
		c0-1.067,0-3.2,1.067-5.333c0,1.067,1.067,2.133,1.067,3.2c1.067,0,1.067,1.067,2.133,1.067v2.133c0,1.067,0,1.067,0,2.133
		c0,2.133,0,3.2,3.2,3.2c1.067,0,3.2,0,4.267,1.067c1.067,0,1.067,0,2.133,1.067c2.133,2.133,4.267,4.267,6.4,6.4
		c1.067,1.067,1.067,2.133,0,3.2c-1.067,1.067-1.067,2.133-2.133,3.2c0,1.067,0,2.133,0,2.133c1.067,1.067,2.133,0,2.133,0
		c1.067-1.067,2.133-1.067,3.2,0c2.133,0,4.267,1.067,5.333,1.067H89.6c0,2.133,0,3.2,0,4.267s0,2.133-1.067,3.2
		c-1.067,1.067-2.133,2.133-3.2,3.2c1.067,1.067,2.133,0,3.2-1.067c4.267-1.067,7.467-3.2,9.6-5.333
		c1.067,1.067,2.133,2.133,2.133,3.2c0,1.067,0,2.133,2.133,3.2c0-1.067,0-2.133-1.067-3.2c-1.067-2.133,0-3.2,1.067-5.333
		c0,1.067,1.067,2.133,1.067,3.2c0,1.067,0,2.133,1.067,3.2c2.133,3.2,3.2,6.4,0,9.6c0,1.067,1.067,2.133,1.067,2.133
		c0,2.133,0,3.2-1.067,5.333c-1.067,0-2.133,1.067-3.2,1.067l0,0c1.067,0,2.133,1.067,3.2,1.067c-1.067,1.067-2.133,2.133-2.133,3.2
		c1.067,1.067,1.067,2.133,2.133,3.2c0,2.133,0,3.2,2.133,3.2l1.067,1.067c1.067,1.067,4.267,2.133,6.4,0l1.067-1.067
		c-2.133,0-3.2,0-5.333-1.067c-1.067,0-1.067-1.067-2.133-1.067c-1.067-2.133-2.133-5.333-1.067-7.467c0-1.067,0-2.133,0-3.2
		c1.067-1.067,1.067-3.2,1.067-4.267c-1.067-2.133,0-4.267,0-6.4c0-1.067,0-3.2,0-4.267c-1.067-2.133-1.067-4.267,0-6.4
		c1.067,0,1.067,0,2.133,0c-1.067-2.133,0-3.2,1.067-3.2c1.067,1.067,2.133,2.133,3.2,3.2c0,0,1.067,1.067,1.067,2.133
		c0,2.133,1.067,3.2,1.067,5.333c0,1.067,1.067,3.2,2.133,4.267c1.067,1.067,2.133,2.133,2.133,2.133c0,2.133-1.067,3.2-1.067,4.267
		s-1.067,2.133-2.133,3.2c-1.067,0-1.067,1.067-1.067,1.067c-1.067,1.067-2.133,2.133-1.067,4.267
		c2.133-1.067,3.2-2.133,5.333-2.133c1.067-1.067,2.133-1.067,2.133-2.133c1.067-2.133,3.2-3.2,4.267-3.2c1.067,0,2.133,0,3.2-1.067
		c2.133,0,3.2-1.067,4.267-2.133c0,0,0,0,1.067-1.067c1.067,2.133,1.067,2.133,0,3.2c-1.067,1.067-2.133,2.133-2.133,3.2
		c-1.067,1.067-1.067,2.133-1.067,4.267c2.133,0,2.133-1.067,3.2-3.2c0,1.067,1.067,1.067,1.067,2.133c2.133,0,3.2,0,5.333-1.067
		c1.067-1.067,1.067,0,2.133,1.067c0,0,0,1.067-1.067,1.067c2.133,1.067,2.133,3.2,5.333,2.133c-2.133-1.067-3.2-2.133-2.133-4.267
		c2.133,0,3.2,0,4.267,1.067c1.067,1.067,3.2,2.133,4.267,4.267c1.067,1.067,2.133,2.133,3.2,3.2c1.067,2.133,3.2,2.133,4.267,1.067
		c0,0,0-1.067,1.067-1.067c-1.067,0-1.067-1.067-2.133-1.067c-1.067-1.067-2.133-2.133,0-3.2c1.067-1.067,3.2-2.133,5.333-2.133
		c0,1.067-1.067,2.133-1.067,4.267c0,1.067,1.067,2.133,1.067,3.2c-2.133,3.2-2.133,4.267-1.067,5.333
		c2.133-1.067,1.067-3.2,2.133-4.267c1.067,1.067,2.133,3.2,3.2,4.267c1.067,1.067,2.133,2.133,4.267,3.2
		c-2.133,3.2-2.133,3.2,0,5.333c1.067-2.133,3.2-3.2,5.333-4.267c0,1.067,1.067,2.133,0,2.133c-1.067,1.067-2.133,1.067-3.2,2.133
		c0,1.067,1.067,1.067,1.067,2.133c1.067-1.067,1.067-2.133,2.133-2.133c1.067-1.067,2.133-1.067,2.133-3.2
		c0-1.067,1.067-3.2,0-4.267v-1.067c2.133,0,3.2-1.067,4.267-3.2c-1.067,0-1.067,0-2.133,0c-2.133,1.067-4.267,1.067-6.4,2.133
		c-1.067,0-2.133,0-3.2,0c-2.133-1.067-3.2-2.133-3.2-4.267c0-1.067,0-2.133,1.067-3.2c1.067,0,2.133-1.067,2.133-2.133
		c2.133-3.2,4.267-5.333,8.533-7.467c3.2-1.067,5.333-3.2,9.6-2.133h1.067v-1.067c0-1.067-1.067-1.067-2.133-2.133
		c2.133-2.133,4.267-3.2,6.4-3.2c1.067,0,2.133,0,2.133,0c3.2,0,6.4,0,9.6,3.2c1.067,1.067,1.067,1.067,2.133,1.067
		c2.133,0,3.2,0,4.267,2.133c1.067,1.067,2.133,3.2,4.267,3.2c2.133,1.067,3.2,2.133,4.267,4.267c0,1.067,1.067,2.133,2.133,2.133
		c0,1.067,1.067,1.067,1.067,1.067c1.067,1.067,0,2.133-1.067,2.133c0-2.133-2.133-2.133-3.2-3.2c-1.067,1.067-1.067,1.067,0,2.133
		s2.133,3.2,3.2,4.267c1.067,2.133,2.133,3.2,3.2,5.333c0,2.133,0,4.267,2.133,4.267v1.067l1.067,1.067
		c5.333,3.2,8.533,7.467,10.667,12.8c1.067,1.067,1.067,3.2,0,4.267v1.067c0,1.067,0,2.133,0,2.133
		c-1.067,1.067-2.133,2.133-3.2,4.267c-1.067,1.067-3.2,2.133-4.267,1.067c-1.067-1.067-2.133-1.067-2.133-2.133
		c-1.067,0-1.067-1.067-2.133-1.067v1.067c-1.067,2.133-1.067,4.267-2.133,6.4c0,1.067,0,1.067,1.067,1.067
		c2.133-1.067,2.133-3.2,3.2-4.267c4.267,2.133,4.267,3.2,4.267,8.533l0,0c0,2.133,1.067,4.267,3.2,5.333c0-1.067,0-2.133,0-3.2
		c1.067,1.067,2.133,3.2,3.2,4.267c1.067,1.067,2.133,3.2,3.2,4.267c1.067,1.067,2.133,2.133,3.2,4.267
		c1.067,2.133,3.2,3.2,5.333,3.2c1.067,0,1.067,0,2.133,0c0,1.067,0,2.133,0,2.133c2.133,0,3.2-2.133,5.333,0
		c-1.067,1.067-3.2,3.2-4.267,4.267c-2.133,1.067-2.133,3.2-3.2,5.333c0,1.067,0,3.2,1.067,4.267c1.067,1.067,2.133,1.067,3.2,1.067
		c3.2,0,5.333,0,8.533,0c2.133,0,4.267,1.067,3.2,3.2c0,1.067,0,3.2,0,4.267c1.067,2.133,1.067,4.267,0,6.4
		c0,2.133-1.067,2.133-3.2,3.2c-1.067,0-2.133,1.067-3.2,1.067c-1.067,0-1.067,1.067-1.067,1.067
		c-2.133-1.067-3.2-1.067-5.333-1.067c-3.2,0-5.333-2.133-5.333-5.333c0-2.133-1.067-3.2-2.133-4.267
		c-1.067-1.067-3.2-2.133-4.267-3.2c0,0,0-1.067,1.067-1.067c0-1.067-1.067-2.133-2.133-2.133H246.4
		c-2.133,1.067-3.2,1.067-5.333-1.067c-1.067-1.067-2.133-2.133-3.2-2.133c0,1.067-1.067,1.067-1.067,2.133
		c-2.133,3.2-5.333,5.333-8.533,7.467c0,0,0,0-1.067,0c-3.2,2.133-3.2,2.133-2.133,5.333l0,0c2.133-1.067,3.2,0,5.333,1.067
		c-2.133,1.067-3.2,2.133-5.333,2.133c0-1.067,0-1.067-1.067-2.133c-2.133,0-3.2-2.133-4.267-3.2c0-1.067,1.067-2.133,1.067-3.2
		c-1.067,1.067-2.133,1.067-3.2,1.067c-1.067-1.067,0-2.133,1.067-3.2c1.067-1.067,3.2-2.133,4.267-3.2
		c2.133-1.067,4.267-3.2,5.333-5.333c1.067-2.133,1.067-2.133-1.067-3.2c0,0,0,0-1.067,1.067c-2.133,3.2-5.333,5.333-8.533,7.467
		c0,0-1.067,0-1.067,1.067c-1.067,1.067-2.133,2.133-2.133,3.2c-1.067,2.133-1.067,3.2-2.133,5.333c0,2.133-2.133,3.2-3.2,3.2
		c-1.067-1.067-2.133-2.133-1.067-3.2c0-1.067,0-2.133,0-3.2c-2.133,1.067-3.2,1.067-4.267,2.133c0-3.2-2.133-3.2-4.267-3.2
		c0,1.067,0,1.067,1.067,1.067c1.067,1.067,1.067,3.2,0,4.267c0,0,0,1.067,0,2.133c1.067,2.133,0,3.2-1.067,4.267
		c-3.2-1.067-5.333-1.067-8.533-2.133c-1.067,0-2.133,0-3.2,0c-1.067,1.067-2.133,1.067-3.2,0c-1.067,0-2.133-1.067-2.133,0
		c0,1.067,0,2.133,0,2.133v1.067c-1.067,4.267-1.067,6.4-1.067,8.533v1.067c2.133,2.133,3.2,2.133,5.333,1.067
		c1.067-1.067,2.133-1.067,3.2,0h1.067c4.267,0,7.467,0,10.667-2.133l1.067-1.067c1.067-1.067,2.133,0,3.2,0
		c1.067,1.067,1.067,2.133,2.133,3.2c1.067,1.067,2.133,2.133,3.2,1.067c2.133-1.067,4.267-1.067,6.4-2.133
		c2.133-1.067,3.2-2.133,5.333-2.133s2.133,0,3.2-2.133c0-1.067,0-2.133,1.067-3.2c1.067-1.067,1.067-3.2,0-4.267
		c2.133-2.133,2.133-2.133,5.333-2.133c4.267,0,8.533,1.067,11.733,1.067c1.067,0,3.2,1.067,4.267,1.067
		c2.133,1.067,3.2,2.133,5.333,2.133c2.133,0,4.267,0,6.4-1.067c1.067,2.133,3.2,4.267,4.267,5.333
		c3.2,2.133,4.267,5.333,5.333,8.533c0,1.067,1.067,2.133,2.133,3.2c3.2,2.133,6.4,5.333,7.467,8.533c0,1.067,1.067,2.133,2.133,3.2
		c1.067,1.067,1.067,2.133,1.067,3.2c-1.067,2.133-1.067,4.267,0,6.4c1.067,3.2,1.067,6.4,2.133,9.6c0,2.133,0,2.133-1.067,3.2
		c-2.133,1.067-3.2,3.2-4.267,4.267c-1.067,2.133-3.2,4.267-5.333,6.4c-1.067,1.067-2.133,2.133-3.2,2.133
		c-5.333,3.2-4.267,3.2-10.667,2.133c-2.133,0-3.2-1.067-5.333,0c-2.133,1.067-4.267,0-6.4-1.067
		c-1.067-1.067-3.2-2.133-5.333-1.067c-2.133,0-3.2,1.067-4.267,2.133c-1.067,1.067-2.133,2.133-3.2,1.067
		c-2.133,0-3.2,0-4.267,1.067c0,0-1.067,1.067-1.067,2.133c0,2.133,1.067,4.267,1.067,6.4c1.067,3.2,1.067,3.2-2.133,5.333
		c0,0-1.067,0-1.067,1.067c-1.067,1.067-2.133,2.133-3.2,3.2c-1.067,2.133-1.067,3.2-2.133,5.333v1.067c0,1.067,0,2.133-1.067,3.2
		c-1.067,3.2-1.067,3.2,1.067,5.333C224,374.4,224,374.4,224,375.467c1.067,2.133,1.067,4.267,1.067,6.4
		c0,1.067,0,2.133-1.067,2.133c-2.133,1.067-3.2,3.2-3.2,6.4c0,0,0,1.067-1.067,1.067c-1.067,1.067-1.067,2.133-1.067,3.2
		c0,3.2,0,5.333-1.067,8.533c-1.067,2.133-2.133,5.333-4.267,7.467c-1.067,2.133-2.133,3.2-1.067,5.333c0,3.2-3.2,5.333-5.333,4.267
		c-3.2-1.067-6.4-2.133-9.6-2.133c-4.267-1.067-8.533-3.2-10.667-7.467c-1.067-2.133-3.2-4.267-4.267-7.467
		c0-1.067-1.067-2.133-1.067-3.2s-1.067-2.133-2.133-2.133c-1.067,0-1.067-1.067-2.133-2.133c-1.067-1.067-1.067-3.2-1.067-4.267
		c0-1.067,0-1.067,0-2.133c1.067-2.133,1.067-2.133,0-3.2c-2.133-2.133-4.267-3.2-6.4-5.333c-1.067-1.067-2.133-2.133-2.133-3.2
		c0-2.133-1.067-4.267-1.067-6.4c0-1.067,0-3.2,1.067-4.267c1.067-2.133,2.133-4.267,1.067-6.4c0-1.067,0-1.067,0-2.133
		c1.067-2.133,0-4.267-2.133-6.4c-4.267-4.267-8.533-9.6-13.867-13.867c-1.067-1.067-2.133-2.133-3.2-3.2
		c-2.133-3.2-3.2-7.467-4.267-11.733c2.133-1.067,2.133-1.067,5.333,0c3.2,0,5.333,1.067,8.533,1.067s3.2,0,4.267-2.133
		c1.067-2.133,2.133-4.267,3.2-6.4v-1.067c0-2.133,1.067-2.133,2.133-3.2c3.2-1.067,4.267-3.2,5.333-5.333
		c0-1.067,1.067-2.133,1.067-3.2c2.133-5.333,4.267-10.667,7.467-16c0,0,0,0,0-1.067c-1.067,1.067-1.067,1.067-2.133,2.133
		c0-1.067,0-2.133-1.067-3.2c-1.067,1.067-1.067,1.067-1.067,2.133c-1.067,4.267-3.2,8.533-6.4,11.733
		c-1.067,2.133-2.133,3.2-2.133,5.333c0,1.067,0,2.133-1.067,3.2c-1.067,1.067-1.067,1.067-2.133,2.133
		c-2.133,2.133-4.267,4.267-5.333,7.467c0,0,0,1.067-1.067,1.067C158.933,320,158.933,320,156.8,320s-4.267-1.067-5.333-2.133
		c-5.333-2.133-9.6-5.333-13.867-7.467c-2.133-1.067-3.2-2.133-5.333-3.2c0-1.067,0-1.067,1.067-2.133c-1.067,0-2.133,0-3.2,0
		c-1.067-2.133-1.067-3.2-2.133-5.333c2.133-1.067,3.2-2.133,4.267-3.2c1.067,0,2.133-1.067,2.133-2.133
		c0-1.067,1.067-2.133,2.133-2.133c1.067,2.133,3.2,3.2,6.4,3.2c1.067,0,2.133,0,2.133-2.133c0-1.067,0-2.133,0-3.2
		c2.133,0,3.2-1.067,4.267-2.133c1.067-1.067,2.133-3.2,2.133-4.267c0-1.067,0-1.067,1.067-2.133c-1.067-1.067-2.133,0-3.2,1.067
		c-3.2,2.133-5.333,3.2-8.533,5.333c-2.133,1.067-3.2,2.133-5.333,0c-1.067,1.067-2.133,2.133-2.133,3.2
		c-1.067,1.067-1.067,1.067-2.133,1.067c-3.2,0-6.4,1.067-9.6,0c-2.133,0-4.267,0-6.4,2.133c-1.067,1.067-3.2,3.2-4.267,4.267
		c-1.067,2.133-2.133,2.133-4.267,2.133c-1.067,0-1.067,0-2.133,0v1.067c0,3.2,0,6.4-1.067,9.6c0,1.067-1.067,2.133-1.067,2.133
		c-1.067,1.067-2.133,2.133-2.133,3.2c-1.067,3.2-2.133,5.333-3.2,8.533c0,1.067-1.067,2.133-1.067,2.133
		c-2.133-1.067-4.267-2.133-4.267-4.267c0-2.133-1.067-5.333-1.067-7.467c0-1.067,0-2.133-2.133-3.2
		c-1.067,0-1.067-1.067-1.067-1.067c-2.133,1.067-6.4-2.133-10.667-6.4c-1.067,0-1.067-1.067-2.133-1.067c-2.133,0-4.267,0-6.4,0
		c0,1.067-1.067,2.133-1.067,3.2s-1.067,2.133-2.133,3.2c-1.067,1.067-2.133,3.2-1.067,5.333c0,1.067,0,2.133-1.067,3.2
		s-2.133-1.067-2.133-1.067c-1.067-1.067-2.133-2.133-3.2-2.133c0,1.067,0,1.067,0,1.067c1.067,2.133,0,3.2,0,5.333
		c0,1.067,0,2.133,0,3.2c0,0,0,1.067,0,2.133c-1.067,1.067-1.067,2.133,0,3.2c0,1.067,0,2.133,0,2.133
		c-2.133,2.133-4.267,5.333-6.4,8.533c0,1.067-1.067,1.067-1.067,2.133c2.133-2.133,4.267-3.2,5.333-4.267
		c2.133-1.067,4.267-2.133,6.4-2.133c-1.067,1.067-2.133,2.133-2.133,4.267c0,1.067,0,2.133-2.133,2.133s-2.133,1.067-1.067,2.133
		c1.067,2.133,0,3.2-1.067,4.267c-1.067,1.067-2.133,1.067-3.2,2.133c0-2.133,2.133-3.2,2.133-5.333
		c-1.067,1.067-1.067,1.067-2.133,2.133c-2.133,2.133-4.267,4.267-6.4,7.467c-4.267,5.333-8.533,4.267-6.4,0V355.2
		c-2.133-1.067-3.2,0-4.267,1.067h0c1.067-2.133,3.2-3.2,5.333-3.2c1.067,0,2.133,0,2.133-1.067c1.067-1.067,3.2-2.133,4.267-4.267
		c1.067-1.067,2.133-2.133,1.067-3.2c-1.067,0-2.133,0-3.2,1.067c0-2.133,0-3.2,0-5.333c0-1.067,0-2.133,1.067-2.133
		s1.067-1.067,2.133-1.067c2.133-1.067,4.267-3.2,5.333-5.333c0-1.067,0-1.067-1.067-2.133l-1.067-1.067
		c3.2-2.133,3.2-2.133,2.133-4.267c-3.2-1.067-5.333,0-6.4,2.133l-1.067,1.067c-1.067,1.067-2.133,2.133-1.067,4.267
		c-5.333-2.133-8.533-5.333-11.733-9.6c2.133-4.267,5.333-8.533,9.6-10.667c-2.133-2.133-3.2-3.2-4.267-5.333
		c-1.067-1.067-2.133-2.133-4.267-1.067h-1.067c-1.067,0-2.133-1.067-3.2-1.067c-3.2,0-5.333-1.067-8.533-3.2
		c-3.2-1.067-5.333-4.267-7.467-6.4c-1.067-2.133-2.133-4.267-3.2-5.333S9.6,285.867,9.6,284.8c0,0,0-1.067,1.067-1.067l1.067-1.067
		c1.067-2.133,2.133-4.267,3.2-7.467c0,0,0,0,0-1.067c-1.067-1.067-2.133-1.067-3.2-2.133c-1.067-1.067-1.067-1.067-1.067-2.133
		c0-1.067,1.067-1.067,2.133-1.067s2.133,1.067,3.2,1.067c-1.067-2.133,0-3.2,1.067-3.2c0,0,1.067,0,1.067-1.067
		c-4.267-1.067-6.4-4.267-9.6-5.333c0,2.133,2.133,2.133,2.133,4.267c-2.133,0-4.267-2.133-6.4-1.067c0,3.2,0,3.2-2.133,6.4
		c0,1.067-1.067,2.133-1.067,3.2c0,1.067,0,1.067,0,2.133C0,267.733,0,262.4,0,256C0,210.133,11.733,167.467,33.067,130.133z"/>
	<path style="fill:#F3F3F3;" d="M501.333,200.533c0,0-1.067,0-2.133,1.067c-1.067,1.067-3.2,1.067-4.267,2.133
		c-1.067,1.067-3.2,2.133-4.267,2.133c-1.067,0-2.133,1.067-2.133,2.133c0,1.067,0,1.067,0,2.133c0,2.133-1.067,3.2-2.133,4.267
		c-2.133,1.067-3.2,3.2-5.333,5.333c-1.067,1.067-2.133,2.133-3.2,2.133s-2.133,1.067-2.133,2.133
		c-1.067,2.133-2.133,4.267-3.2,5.333c-1.067,1.067-1.067,2.133-1.067,3.2c1.067,2.133,0,3.2-2.133,4.267
		c-2.133,1.067-3.2,2.133-3.2,4.267c0,1.067-1.067,2.133-1.067,2.133c-1.067,3.2-1.067,5.333,0,8.533c0,1.067,1.067,2.133,1.067,3.2
		c1.067,2.133,1.067,5.333,0,7.467c-2.133,3.2-3.2,7.467-5.333,10.667c-1.067,2.133-3.2,4.267-5.333,5.333
		c-1.067,0-2.133,1.067-2.133,1.067c-1.067,2.133-2.133,3.2-3.2,6.4c0,1.067-1.067,3.2-2.133,3.2c-1.067,0-1.067,1.067-1.067,3.2
		c0,0,0,1.067,1.067,1.067c0,0,0,0-1.067,1.067c-2.133,1.067-4.267,2.133-4.267,5.333L441.6,300.8c-2.133,0-3.2,1.067-3.2,3.2
		c-2.133-1.067-2.133-1.067-1.067-2.133c1.067-1.067,2.133-2.133,2.133-3.2c1.067-3.2,4.267-5.333,5.333-8.533
		c1.067-1.067,1.067-2.133,2.133-3.2c1.067-1.067,1.067-1.067-1.067-2.133l-1.067,1.067c-1.067,3.2-3.2,5.333-5.333,8.533
		c0,0,0,0,0,1.067c-1.067,1.067-1.067,2.133-2.133,2.133c-3.2,2.133-5.333,4.267-7.467,7.467c-1.067,1.067-1.067,1.067,0,2.133
		c0,0,0,1.067,1.067,1.067c-2.133,2.133-4.267,4.267-6.4,5.333c-3.2,1.067-7.467,2.133-10.667,4.267H412.8
		c-1.067-1.067-2.133-2.133-3.2-3.2c-1.067,1.067-1.067,1.067-2.133,2.133c-2.133,0-3.2,2.133-4.267,2.133
		c-1.067,1.067-3.2,2.133-5.333,2.133c-2.133-1.067-2.133,1.067-3.2,2.133c-1.067,2.133-2.133,3.2-3.2,5.333
		c-2.133,2.133-3.2,3.2-5.333,4.267c-2.133,1.067-3.2,1.067-5.333,0c-1.067-1.067-2.133-1.067-3.2,0c-1.067,0-2.133,1.067-3.2,2.133
		c-1.067,2.133-1.067,3.2,1.067,5.333c1.067,1.067,2.133,3.2,4.267,4.267c2.133,2.133,2.133,4.267,2.133,7.467
		c0,1.067,0,2.133,1.067,3.2c2.133,2.133,2.133,3.2,0,5.333c-3.2,3.2-4.267,6.4-5.333,9.6c0,2.133-1.067,4.267-2.133,5.333
		c-1.067,2.133-3.2,3.2-5.333,4.267c-2.133,1.067-3.2,2.133-5.333,2.133c-1.067,0-1.067,1.067-1.067,2.133
		c1.067,3.2,0,7.467,0,10.667c1.067,3.2,1.067,5.333,1.067,8.533c1.067,0,1.067,0,2.133,1.067c-1.067,0-1.067,1.067-1.067,1.067
		c-1.067,0-1.067,1.067-1.067,2.133c1.067,3.2,1.067,5.333,1.067,8.533c0,3.2,1.067,5.333,3.2,7.467
		c0,1.067,1.067,1.067,1.067,2.133c0,2.133,0,3.2-1.067,5.333c1.067,1.067,1.067,2.133,1.067,4.267c0,1.067,0,2.133,0,3.2
		s0,3.2,1.067,3.2l1.067,1.067c0,1.067-1.067,3.2,0,4.267l0,0c-1.067,1.067,0,2.133,1.067,3.2s1.067,2.133,0,3.2
		c-1.067-1.067,0-2.133-2.133-2.133c0,1.067,0,1.067,0,1.067c1.067,1.067,1.067,3.2,1.067,5.333c0,1.067,0,1.067,0,2.133
		c0,2.133,0,4.267,0,6.4c0,0,0,0,0,1.067c-2.133,3.2-4.267,5.333-5.333,8.533l-1.067,1.067c0,1.067-1.067,1.067-2.133,2.133
		c-2.133,1.067-5.333,1.067-7.467,3.2c-1.067-1.067-2.133-2.133-2.133-3.2c-1.067-1.067-2.133-2.133-3.2-1.067
		c-1.067,0-1.067,0-2.133-1.067c1.067,0,2.133,0,3.2-1.067c2.133,0,4.267-1.067,5.333-3.2c1.067-1.067,1.067-1.067,1.067-2.133
		c0-2.133,0-3.2,1.067-5.333c0,0,1.067-1.067,1.067-2.133c-1.067-1.067-2.133-1.067-2.133-2.133c0-1.067-1.067-1.067-1.067-2.133
		c0-2.133-1.067-2.133-2.133-3.2c-2.133-1.067-2.133-3.2,0-5.333c0,0,1.067,0,1.067-1.067c1.067-1.067,1.067-2.133,1.067-3.2
		c-1.067-1.067-2.133-1.067-3.2-1.067c0-3.2,0-3.2-2.133-5.333c-1.067-1.067-1.067-1.067,0-2.133
		c1.067-1.067,1.067-1.067,2.133-2.133c-1.067,0-1.067-1.067-2.133-1.067c-3.2,0-4.267-1.067-4.267-4.267
		c0-1.067-1.067-1.067-2.133-2.133c-1.067,0-3.2,0-4.267,0c-2.133,0-3.2-1.067-4.267-3.2c0-1.067-1.067-2.133-1.067-2.133
		c1.067-1.067,1.067-2.133,2.133-3.2c-1.067,0-3.2-1.067-4.267-1.067c-2.133,0-3.2-1.067-4.267-2.133c-2.133-3.2-5.333-6.4-6.4-9.6
		c0,0,0-1.067-1.067-1.067C320,404.267,320,403.2,320,401.067c0-1.067,0-2.133,0-2.133c0-1.067,0-2.133-1.067-2.133
		c-2.133-1.067-3.2-3.2-6.4-3.2c-1.067,0-1.067,0-2.133-1.067c-1.067,0-1.067-1.067-2.133-1.067s-2.133,0-2.133-1.067
		s-1.067-2.133-1.067-3.2S304,385.067,304,385.067c-1.067,0-1.067-1.067-1.067-2.133c0-2.133,0-5.333-1.067-7.467
		c0-2.133,0-4.267,0-5.333c-1.067-1.067-2.133-1.067-2.133-2.133c-1.067-2.133-3.2-3.2-4.267-4.267
		c-2.133-2.133-2.133-6.4,1.067-8.533c1.067-1.067,3.2-2.133,4.267-3.2c1.067-1.067,3.2-2.133,4.267-2.133c1.067,0,2.133,0,3.2,0
		s1.067,0,2.133-1.067s1.067-1.067,3.2,0c0-2.133,2.133-3.2,4.267-4.267c1.067,1.067,3.2,3.2,4.267,4.267l0,0
		c0-1.067-1.067-2.133-1.067-3.2c2.133-1.067,4.267,2.133,6.4,1.067c-1.067-1.067-1.067-1.067-1.067-2.133l-1.067-1.067
		c-1.067-1.067-1.067-1.067,0-2.133c-5.333,3.2-5.333,2.133-5.333,0c0-1.067,1.067-1.067,1.067-2.133
		c1.067,2.133,2.133,4.267,3.2,5.333c1.067-1.067,2.133-1.067,3.2-2.133c1.067,1.067,1.067,1.067,2.133,2.133
		c2.133-2.133,3.2-4.267,2.133-7.467c0-2.133,0-3.2,2.133-4.267c1.067,0,1.067-1.067,2.133-2.133s2.133-2.133,3.2-3.2
		c-1.067-1.067-2.133-2.133-1.067-3.2l0,0c0,0,0,0,1.067,0c2.133,1.067,3.2,1.067,5.333,0c1.067-1.067,1.067,0,2.133,0
		c1.067,0,2.133,1.067,3.2-1.067c0,0,1.067-1.067,2.133-1.067c1.067,0,3.2,0,4.267,0c1.067,0,2.133,0,3.2,1.067
		c1.067-1.067,1.067-1.067,1.067-2.133c1.067,1.067,1.067,1.067,2.133,1.067c1.067,0,1.067,1.067,2.133,1.067
		c2.133,0,3.2,1.067,4.267,3.2c1.067,3.2,2.133,3.2,5.333,2.133c1.067,0,2.133-1.067,3.2,0h1.067c1.067,0,2.133-1.067,3.2-1.067
		C384,326.4,384,326.4,384,323.2c0-2.133,0-3.2-1.067-5.333c2.133-1.067,4.267-2.133,6.4-2.133c2.133-1.067,3.2-2.133,4.267-4.267
		c-1.067-3.2-2.133-5.333-3.2-7.467c0-1.067,0-2.133,1.067-2.133c2.133,0,3.2,0,5.333,0c1.067,0,1.067,1.067,1.067,1.067
		c0,1.067,1.067,2.133,1.067,3.2c0,1.067,1.067,2.133,2.133,2.133c1.067,0,3.2,0,4.267,0c3.2-1.067,4.267-3.2,4.267-5.333
		c0-1.067,0-2.133,0-3.2c0-2.133,0-4.267-1.067-6.4c0-1.067,1.067-2.133,1.067-3.2c0-1.067,0-2.133-1.067-2.133
		c-2.133-1.067-4.267-3.2-7.467-3.2c-1.067,0-2.133,0-4.267,1.067c-1.067,0-3.2,0-4.267-1.067c-2.133-2.133-3.2-2.133-5.333,0
		c-1.067,0-1.067,1.067-2.133,1.067c-1.067,0-2.133,0-2.133,0c-2.133,0-3.2,2.133-3.2,3.2c0,2.133-1.067,4.267-2.133,5.333
		c0,0-1.067,1.067-2.133,1.067c0-1.067,0-2.133,0-3.2c0-2.133,0-4.267,2.133-6.4c1.067-2.133,1.067-5.333,0-7.467
		c-2.133-2.133-4.267-4.267-7.467-5.333c-1.067-1.067-2.133-1.067-3.2-2.133c1.067-1.067,1.067-3.2,0-4.267
		s-1.067-2.133-2.133-4.267c-1.067-2.133-2.133-3.2-3.2-3.2s-2.133-1.067-2.133-1.067c-1.067,0-2.133-1.067-3.2-1.067
		C357.333,256,358.4,256,358.4,256c-1.067-3.2-6.4-7.467-10.667-8.533c1.067,1.067,2.133,3.2,1.067,5.333c0,0-1.067,0-1.067-1.067
		c-3.2-2.133-6.4-4.267-9.6-5.333c0,0-1.067,0-1.067-1.067c0-1.067,1.067-3.2,2.133-4.267c1.067,1.067,2.133,2.133,2.133,3.2
		c2.133-1.067,4.267-1.067,5.333-2.133c0-1.067,0-2.133-2.133-2.133v-3.2c2.133,0,4.267,0,6.4-1.067
		c-1.067,0-1.067-1.067-2.133-1.067c-2.133-1.067-4.267-1.067-5.333,1.067c-1.067,1.067-1.067,1.067-3.2,1.067
		c1.067-1.067,2.133-2.133,2.133-3.2c0,0,0,0-1.067,0c-2.133,1.067-4.267,0-6.4-2.133c-1.067-1.067-2.133-1.067-3.2-2.133l0,0
		c0,3.2,3.2,6.4,3.2,9.6c-2.133,0-4.267,1.067-6.4,1.067c1.067,0,1.067,1.067,2.133,1.067c-2.133,3.2-2.133,3.2-5.333,0
		c0,0,0,0-1.067,0c-2.133,1.067-3.2,1.067-3.2-1.067c0-2.133,0-3.2,1.067-4.267c1.067-1.067,3.2-2.133,4.267-3.2
		c4.267,2.133,4.267,2.133,3.2,0c-1.067-1.067-1.067-2.133,0-3.2c1.067-1.067,0-2.133,0-3.2c0,0,0-1.067,0-2.133
		c0-1.067,3.2-3.2,5.333-2.133c-1.067-1.067,0-2.133,1.067-2.133l1.067-1.067c2.133-1.067,3.2-3.2,4.267-5.333
		c1.067-1.067,0-2.133,0-2.133v-1.067c1.067-3.2,3.2-6.4,4.267-9.6c0-1.067,1.067-1.067,1.067-2.133c2.133,3.2,3.2,6.4,5.333,8.533
		c2.133-1.067,4.267-3.2,3.2-5.333c0-3.2,0-4.267,3.2-5.333c1.067-1.067,2.133-1.067,3.2-3.2c0-1.067,1.067-2.133,2.133-3.2
		c1.067,0,1.067-1.067,2.133-1.067l1.067,1.067c1.067,0,1.067-1.067,2.133-1.067c3.2-1.067,4.267,0,4.267,3.2c0,1.067,0,2.133,0,3.2
		c0,1.067,0,2.133,0,3.2c-1.067,1.067,0,2.133,1.067,3.2c1.067,1.067,1.067,1.067,0,2.133c-1.067,1.067-1.067,1.067-2.133,2.133
		c-2.133,2.133-2.133,5.333-1.067,7.467c1.067,1.067,2.133,3.2,3.2,4.267s1.067,1.067,1.067,3.2s0,3.2-1.067,5.333
		c0,1.067,0,2.133,0,2.133c0,1.067,1.067,2.133,2.133,1.067l1.067-1.067c1.067-1.067,2.133-2.133,3.2-3.2c0,0-1.067-1.067,0-1.067
		c1.067-1.067,0-2.133-1.067-3.2c1.067-1.067,2.133-2.133,3.2-3.2c1.067-1.067,2.133-1.067,2.133-2.133
		c1.067-2.133,3.2-5.333,4.267-7.467c1.067-2.133,3.2-3.2,6.4-4.267c2.133,0,3.2,0,3.2,2.133c1.067,2.133,3.2,4.267,4.267,6.4
		c0,0,0,0,1.067,0c2.133-2.133,2.133-4.267,3.2-6.4c1.067-4.267,0-8.533-3.2-12.8c-1.067-1.067-3.2-3.2-4.267-5.333l-1.067-1.067
		c0-2.133-2.133-3.2-3.2-4.267c-1.067,0-2.133-1.067-2.133-2.133c0-1.067-1.067-1.067-2.133-1.067
		c1.067,2.133,1.067,3.2,2.133,5.333c-2.133,0-3.2,0-4.267,2.133c-2.133-1.067-2.133-3.2-3.2-5.333
		c-2.133,1.067-3.2,2.133-6.4,2.133c1.067-4.267,5.333-5.333,8.533-8.533c0,0-1.067,0-1.067-1.067
		c-2.133-1.067-2.133-2.133-2.133-3.2s0-1.067-1.067-2.133s-1.067-2.133-1.067-3.2c0-2.133,0-4.267,0-6.4
		c-1.067-2.133,0-2.133,1.067-3.2c1.067-1.067,3.2-2.133,5.333-3.2c-2.133-1.067-4.267-1.067-6.4-2.133
		c-1.067,0-2.133,0-2.133,1.067c0,1.067-1.067,2.133-2.133,1.067v-1.067c0-1.067-1.067-1.067-2.133-2.133
		c0,0-1.067,1.067-2.133,1.067c-2.133,4.267-5.333,7.467-7.467,11.733c-1.067,1.067-1.067,3.2-1.067,4.267s-1.067,2.133-2.133,2.133
		c-1.067,0-1.067,0-2.133,0c-1.067,0-2.133,1.067-3.2,1.067c1.067,1.067,2.133,2.133,2.133,3.2c1.067-1.067,1.067-1.067,2.133-2.133
		c1.067-1.067,1.067-1.067,2.133-1.067c2.133-1.067,3.2,0,3.2,2.133c0,1.067,0,2.133-1.067,3.2H368c1.067,0,2.133,0,3.2,0
		c2.133,0,2.133,0,3.2,2.133c0,1.067,1.067,2.133,1.067,3.2c0,0,0,1.067,0,2.133c-1.067,0-2.133-1.067-2.133-1.067
		c-1.067,0-2.133-1.067-3.2-1.067c-2.133-1.067-2.133-1.067-3.2,1.067c-1.067,1.067-1.067,2.133-2.133,3.2
		c-1.067,1.067-2.133,2.133-2.133,3.2c-1.067,1.067-2.133,2.133-3.2,2.133s-1.067,0-2.133,1.067c-2.133,0-3.2,1.067-5.333,1.067
		c2.133-2.133,4.267-4.267,5.333-6.4c-1.067,1.067-3.2,2.133-4.267,3.2c-1.067,1.067-2.133,2.133-4.267,3.2
		c0-1.067,1.067-2.133,1.067-3.2c-1.067-1.067-2.133-1.067-3.2-2.133c1.067-1.067,2.133-2.133,3.2-3.2
		c3.2-2.133,4.267-5.333,4.267-9.6V172.8c-1.067,0-1.067,1.067-2.133,1.067c-1.067,1.067-3.2,2.133-3.2,4.267
		c0,1.067-1.067,3.2-3.2,3.2c0-1.067,0-2.133,0-2.133c0-2.133,0-4.267-2.133-5.333c-1.067-1.067-1.067-1.067,0-2.133l1.067-1.067
		c3.2-3.2,6.4-5.333,10.667-8.533c1.067-1.067,1.067-1.067,2.133-2.133c1.067-2.133,1.067-3.2-1.067-4.267l-1.067-1.067
		c1.067-1.067,2.133-1.067,3.2-1.067s1.067,1.067,3.2,0l-1.067-1.067l-1.067-1.067c1.067-1.067,3.2-2.133,4.267-2.133
		c1.067,0,2.133,0,3.2-1.067c-1.067-1.067-2.133-1.067-3.2-2.133c1.067-1.067,1.067-3.2,2.133-4.267
		c1.067,1.067,1.067,2.133,2.133,4.267c2.133-1.067,3.2-2.133,3.2-4.267s0-3.2,2.133-4.267c0,0,1.067-1.067,1.067-2.133V134.4
		c0-1.067,1.067-3.2,2.133-3.2c2.133,0,4.267,0,6.4,0c-2.133,2.133-4.267,3.2-7.467,4.267c1.067,1.067,1.067,2.133,2.133,3.2
		c0,1.067,1.067,2.133,1.067,3.2c1.067-1.067,2.133-2.133,2.133-3.2c1.067,1.067,1.067,2.133,2.133,3.2c0-2.133,0-4.267,0-6.4
		s1.067-4.267,2.133-6.4c3.2,2.133,5.333,4.267,7.467,6.4v1.067c-1.067,1.067-2.133,2.133-1.067,4.267v1.067c0,1.067,0,3.2,0,4.267
		c1.067,0,2.133-1.067,2.133-2.133s1.067-2.133,1.067-4.267c0,0,1.067-1.067,0-1.067c-1.067-1.067,0-2.133,0-3.2
		c-1.067-2.133-3.2-4.267-4.267-6.4c2.133,0,4.267,0,6.4,1.067c0,0,1.067,0,1.067,1.067c2.133,4.267,4.267,7.467,3.2,11.733
		c0,1.067-1.067,2.133-2.133,2.133c-1.067,0-2.133,1.067-3.2,1.067l0,0c1.067,0,2.133,1.067,4.267,1.067
		c-3.2,2.133-6.4,4.267-8.533,5.333c0,2.133,1.067,4.267-1.067,5.333c2.133,1.067,3.2,2.133,3.2,4.267
		c0,1.067,1.067,3.2,2.133,4.267c2.133-2.133,3.2-3.2,2.133-5.333V160c0-2.133,0-2.133,1.067-3.2c1.067,0,1.067,0,2.133-1.067
		c0,2.133,0,3.2,1.067,5.333c2.133,0,1.067-1.067,1.067-2.133c0-3.2,0-3.2,2.133-5.333c2.133-1.067,2.133-1.067,1.067-3.2
		c-1.067-1.067,0-2.133,1.067-3.2s2.133-2.133,2.133-3.2c1.067-2.133,1.067-3.2,0-4.267c-1.067-1.067-1.067-1.067-1.067-2.133
		c1.067-1.067,2.133-2.133,3.2-3.2c-1.067,0-2.133-1.067-3.2-1.067s-2.133,1.067-3.2,1.067c0-1.067,0-1.067-1.067-2.133
		c0-2.133-1.067-4.267-3.2-6.4c0,0,0-1.067-1.067-1.067c2.133-1.067,5.333,0,7.467,0c2.133,0,3.2,1.067,4.267,2.133
		c0,1.067,0,3.2,0,4.267c0,1.067,0,2.133,0,3.2c-1.067,3.2,0,5.333,2.133,7.467c1.067,1.067,1.067,2.133,0,3.2
		c-1.067,1.067-1.067,2.133,0,3.2c1.067,1.067,0,2.133-1.067,2.133c-1.067,1.067-2.133,1.067-3.2,2.133c0,0-1.067,1.067-1.067,2.133
		c0,3.2,0,6.4,3.2,8.533l0,0c0,1.067,0,1.067-1.067,2.133c2.133,0,3.2-1.067,2.133-2.133c-1.067-2.133,0-3.2,1.067-4.267
		c-3.2-2.133-3.2-6.4,0-8.533c1.067,1.067,2.133,2.133,4.267,3.2c2.133,1.067,2.133,2.133,0,3.2c-1.067,0-1.067,1.067-2.133,1.067
		c0,0-1.067,1.067-2.133,1.067C414.933,160,416,160,416,160c0,1.067,0,1.067,0,2.133c1.067,0,2.133,0,2.133,0
		c3.2,0,6.4-1.067,9.6-3.2c2.133-1.067,2.133-1.067,3.2,1.067c0,0,0,0,1.067,1.067c1.067,1.067,1.067,2.133,0,3.2
		c-1.067,2.133-1.067,3.2,1.067,5.333c1.067-1.067,1.067-2.133,2.133-3.2c1.067-1.067,1.067-2.133,2.133-3.2
		c1.067-1.067,1.067-1.067,2.133,0c3.2,1.067,5.333,1.067,8.533,0c0,0,0,0,0-1.067c0,0,0,0-1.067,0c-2.133-1.067-2.133-3.2,0-4.267
		c1.067,0,2.133,0,3.2,0s2.133,0,3.2-1.067c2.133-1.067,4.267-2.133,6.4-3.2c1.067-1.067,2.133-1.067,3.2,1.067l1.067,1.067
		c1.067-2.133,1.067-3.2,2.133-4.267c1.067,2.133,2.133,3.2,2.133,4.267c1.067-2.133,2.133-5.333,4.267-6.4
		c1.067,1.067,1.067,1.067,1.067,2.133s1.067,2.133,2.133,2.133c1.067,0,1.067-1.067,2.133-1.067c2.133,2.133,3.2,5.333,5.333,7.467
		c1.067,0,2.133-1.067,2.133-2.133c0-2.133,1.067-2.133,3.2-1.067c0,1.067-1.067,2.133,0,4.267c1.067-1.067,2.133-1.067,3.2-2.133
		s2.133-1.067,2.133-2.133c5.333,13.867,9.6,27.733,12.8,41.6l0,0C504.533,200.533,503.467,201.6,501.333,200.533z"/>
	<path style="fill:#F3F3F3;" d="M283.733,162.133C283.733,162.133,283.733,161.067,283.733,162.133
		C283.733,161.067,283.733,161.067,283.733,162.133c-3.2,2.133-3.2,2.133-5.333,0c-3.2-2.133-6.4-4.267-9.6-6.4
		c-1.067-1.067-3.2-2.133-4.267-3.2c2.133-1.067,4.267-2.133,6.4-2.133c1.067,0,2.133,0,2.133-1.067s0-1.067-1.067-2.133
		c-1.067,0-1.067-1.067-2.133-1.067c1.067-2.133,1.067-2.133,0-3.2c-3.2,1.067-2.133,5.333-5.333,6.4
		c-1.067-1.067-1.067-1.067-2.133-2.133c-2.133-2.133-2.133-2.133,0-4.267c2.133-3.2,4.267-5.333,6.4-7.467l1.067-1.067
		c-1.067-1.067-3.2,0-4.267,0c0-1.067-1.067-2.133-1.067-3.2c-2.133,1.067-2.133,1.067-4.267,0c-1.067-3.2,2.133-3.2,3.2-5.333
		c-2.133-1.067-3.2-1.067-5.333-2.133c1.067-3.2,4.267-4.267,4.267-7.467c-2.133,0-3.2,2.133-4.267,2.133
		c1.067-3.2,2.133-6.4,5.333-8.533c1.067,0,1.067-1.067,1.067-2.133c-1.067-1.067-1.067-2.133-2.133-3.2
		c-1.067-1.067-1.067-1.067-2.133,0c-1.067,1.067-1.067,1.067-2.133,2.133v-5.333c1.067,0,3.2,1.067,4.267,0
		c0-1.067-1.067-2.133-2.133-3.2c1.067,0,3.2,1.067,4.267,1.067c1.067-2.133,1.067-3.2-1.067-4.267
		c-1.067-1.067-1.067-1.067-1.067-3.2v-1.067c0-1.067,0-2.133-1.067-3.2l-1.067-1.067c-2.133-1.067-2.133-2.133-2.133-4.267v-1.067
		c0-1.067,0-2.133-1.067-3.2c0-1.067-1.067-2.133-1.067-3.2l0,0h1.067c1.067,2.133,2.133,1.067,3.2,1.067
		c0-2.133-1.067-3.2-2.133-4.267c-3.2,2.133-3.2,2.133-5.333-1.067v-1.067c1.067-1.067,1.067-2.133,3.2-2.133
		c1.067,0,2.133,0,4.267,0c1.067,0,1.067,2.133,3.2,1.067c-1.067-1.067-2.133-2.133-2.133-2.133c-3.2,1.067-3.2,1.067-4.267,0
		c-1.067-1.067-2.133-1.067-3.2-1.067c-1.067,0-1.067,0-2.133-1.067c-2.133-2.133-4.267-4.267-5.333-7.467
		c-1.067-1.067-1.067-2.133,0-2.133c-1.067-1.067,0-2.133,2.133-4.267c3.2-2.133,5.333-2.133,6.4,1.067v1.067
		c0,1.067,1.067,1.067,1.067,2.133c1.067,1.067,3.2,1.067,3.2-1.067c0,0,0-1.067,1.067-1.067c1.067,1.067,2.133,2.133,3.2,4.267
		c1.067,1.067,1.067,2.133,2.133,3.2c0,1.067,0,2.133,1.067,3.2c1.067,2.133,1.067,2.133,3.2,1.067
		c-4.267-5.333-6.4-11.733-4.267-19.2c2.133,1.067,4.267,2.133,5.333,5.333c1.067,2.133,2.133,4.267,5.333,4.267
		c-1.067-1.067-1.067-1.067-2.133-2.133c-1.067,1.067-2.133,1.067-2.133,0c-1.067-1.067,0-3.2,1.067-3.2
		c2.133,0,5.333,0,7.467,1.067s3.2,2.133,5.333,3.2c1.067,0,1.067,1.067,2.133,0c-2.133-4.267-7.467-7.467-11.733-6.4
		c-1.067,0-2.133,0-3.2,0c-2.133-1.067-4.267-2.133-6.4-3.2c-2.133-1.067-2.133-3.2-1.067-4.267c1.067-1.067,3.2-2.133,4.267-3.2
		c1.067,0,1.067,1.067,2.133,1.067c-1.067-2.133-1.067-4.267,0-6.4c1.067,0,1.067,1.067,2.133,1.067
		c1.067,2.133,3.2,2.133,5.333,1.067c2.133-1.067,4.267,0,6.4,1.067c2.133,1.067,4.267,2.133,7.467,2.133l-1.067-1.067
		c-2.133-1.067-4.267-2.133-5.333-3.2c-2.133-1.067-3.2-1.067-5.333-1.067c-1.067,0-2.133,0-2.133,0c-2.133,0-4.267-1.067-5.333-3.2
		c2.133-1.067,4.267-3.2,7.467-3.2c2.133,0,5.333,0,6.4-2.133h5.333c2.133,1.067,2.133,2.133,1.067,4.267
		c1.067,0,1.067,0,2.133-1.067c0,0,0,1.067,1.067,1.067s1.067,0,2.133-1.067c2.133,2.133-1.067,3.2-2.133,4.267
		c1.067,0,2.133,0,4.267,1.067c-3.2,3.2-3.2,3.2-3.2,3.2l1.067,1.067c0,1.067-1.067,1.067-1.067,2.133c2.133,0,3.2-2.133,5.333-3.2
		c1.067-1.067,2.133-3.2,4.267-4.267c0,1.067,0,2.133-1.067,2.133c1.067,0,2.133,0,3.2,0c0,1.067,0,2.133,0,3.2
		c-4.267,1.067-5.333,1.067-6.4,2.133c-2.133,1.067-2.133,4.267-2.133,5.333C304,40.533,304,38.4,307.2,37.333
		c2.133,0,4.267-1.067,7.467-1.067c-3.2,3.2-5.333,6.4-8.533,8.533c2.133,1.067,3.2-1.067,4.267-1.067
		c0,2.133,2.133,4.267-1.067,5.333c1.067,1.067,1.067,1.067,2.133,1.067c2.133-2.133,4.267-4.267,6.4-7.467
		C316.8,41.6,316.8,41.6,315.733,41.6c1.067-1.067,1.067-2.133,2.133-3.2l1.067,1.067c1.067-1.067,1.067-1.067,2.133,0
		c1.067,0,1.067,1.067,1.067,2.133c0,2.133,0,3.2-2.133,5.333c-1.067,1.067-1.067,2.133,0,3.2c1.067-1.067,3.2-2.133,3.2-4.267
		c0-1.067,0-2.133,1.067-2.133c0,0,0,0,1.067,0c0,1.067,0,1.067,0,2.133c1.067-1.067,2.133-2.133,3.2-3.2
		c2.133,3.2,6.4,4.267,9.6,5.333c-1.067,1.067-1.067,2.133-1.067,3.2c0,1.067-1.067,1.067-1.067,2.133
		c1.067-1.067,2.133-2.133,3.2-3.2c2.133-1.067,2.133,1.067,4.267,2.133v1.067c-1.067,1.067-3.2,2.133-2.133,4.267v1.067
		c0,0,0,1.067,0,2.133c1.067,0,2.133-1.067,3.2-1.067c2.133,2.133,4.267,4.267,6.4,6.4c0,1.067,1.067,2.133,2.133,2.133
		c1.067,0,2.133,0,2.133,1.067s0,2.133,1.067,3.2l0,0c-2.133,2.133-4.267,2.133-5.333,2.133c-2.133,0-3.2-1.067-5.333,0l1.067,1.067
		c0,0,1.067,0,1.067,1.067c-1.067,1.067-1.067,2.133-2.133,3.2c1.067,1.067,2.133,2.133,2.133,2.133
		c2.133,2.133,4.267,2.133,6.4,3.2c1.067,0,2.133,0,3.2,2.133c0,0,1.067,1.067,2.133,1.067c1.067,1.067,3.2,1.067,4.267,2.133
		c1.067,1.067,1.067,2.133,0,3.2c-1.067,1.067-1.067,1.067-2.133,2.133c-1.067,1.067-1.067,2.133-2.133,3.2
		c0,1.067,0,1.067,1.067,3.2c-1.067,0-1.067,0-2.133-1.067c-1.067,0-1.067-1.067-2.133-1.067c-1.067-1.067-2.133,0-3.2,1.067
		c2.133,0,3.2,0,4.267,0c1.067,1.067,2.133,2.133,3.2,2.133h1.067h1.067c0,1.067,0,1.067,0,1.067c-1.067,1.067-2.133,3.2-3.2,5.333
		l-1.067,1.067c-1.067,1.067-3.2,2.133-4.267,2.133c-2.133,0-4.267,0-6.4-2.133c-1.067-1.067-2.133-1.067-3.2,0
		c-3.2,1.067-5.333,3.2-7.467,5.333c0,0-1.067,1.067-1.067,2.133c0,3.2-1.067,6.4-2.133,9.6c0,1.067-1.067,2.133-1.067,4.267
		c-1.067,1.067-2.133,2.133-3.2,4.267c1.067,2.133,1.067,2.133,1.067,3.2c2.133,2.133,2.133,2.133,1.067,4.267
		c-2.133-1.067-4.267-2.133-6.4-2.133c0,3.2-2.133,5.333-1.067,8.533c1.067,0,1.067,0,3.2-1.067s2.133-1.067,3.2,1.067
		c-1.067,1.067-2.133,1.067-3.2,2.133c1.067,0,2.133,0,3.2,1.067c0,2.133-2.133,4.267-3.2,6.4c-1.067-1.067-2.133-2.133-2.133-3.2
		v-1.067v-1.067c-3.2,0-3.2,1.067-2.133,3.2c0,1.067,1.067,1.067,1.067,2.133c0,2.133,1.067,3.2,2.133,4.267
		c2.133,2.133,3.2,4.267,2.133,7.467c0,1.067-1.067,2.133-1.067,3.2c-1.067,3.2-3.2,5.333-5.333,6.4c0,0-1.067,0-1.067,1.067
		c1.067,0,1.067,1.067,2.133,1.067c2.133,1.067,3.2,1.067,1.067,4.267c-1.067,1.067-1.067,1.067-2.133,2.133
		c-1.067,1.067-2.133,3.2-3.2,4.267c-2.133,2.133-2.133,2.133,0,5.333c-1.067,0-1.067,0-2.133,0c-2.133,0-3.2,1.067-4.267,2.133
		c0,1.067-1.067,2.133-2.133,2.133c0-2.133-1.067-3.2-1.067-5.333c-1.067-4.267-2.133-7.467-5.333-10.667
		c-1.067-1.067-1.067-2.133-1.067-4.267s0-3.2-2.133-5.333c-1.067-1.067-2.133-2.133-3.2-3.2c-1.067-1.067-2.133-2.133-3.2-1.067
		c-1.067-1.067-2.133-1.067-3.2-2.133c-1.067-1.067-2.133-3.2-4.267-4.267C283.733,165.333,282.667,163.2,283.733,162.133z"/>
</g>
<g>
	<path style="fill:#344A5E;" d="M190.933,267.733l-10.667-9.6h-6.4L179.2,361.6l30.933-13.867
		C211.2,346.667,199.467,277.333,190.933,267.733z"/>
	<ellipse style="fill:#344A5E;" cx="193.067" cy="359.467" rx="18.133" ry="25.6"/>
</g>
<path style="fill:#66C6B9;" d="M39.467,512L64,436.267L167.467,425.6c0,0,9.6,30.933,21.333,86.4H39.467z"/>
<path style="fill:#344A5E;" d="M195.2,496c1.067,4.267,1.067,9.6,2.133,16h-13.867c-5.333-22.4-9.6-44.8-12.8-52.267
	c-5.333-14.933-16-88.533-16-88.533s3.2-84.267-2.133-102.4c-4.267-18.133-5.333-21.333-5.333-21.333l6.4,1.067
	c0,0,25.6,6.4,29.867,11.733C187.733,265.6,198.4,288,198.4,307.2c-1.067,19.2-9.6,52.267-10.667,84.267
	C184.533,423.467,192,474.667,195.2,496z"/>
<path style="fill:#E8EAE9;" d="M195.2,378.667c0,0,4.267-4.267,5.333-10.667c1.067-6.4-1.067-16-7.467-21.333
	c-5.333-6.4-11.733-5.333-11.733-5.333l-10.667,3.2L195.2,378.667z"/>
<path style="fill:#FFD15C;" d="M74.667,176l4.267,34.133l55.467,43.733v-44.8c0,0,16-11.733,14.933-44.8c0,0,2.133-19.2-2.133-32
	s-7.467-25.6-19.2-29.867c-10.667-4.267-42.667,4.267-50.133,10.667C71.467,118.4,64,161.067,74.667,176z"/>
<path style="fill:#415A6B;" d="M76.8,161.067l-2.133,2.133L64,155.733c0,0-4.267-19.2,2.133-35.2s24.533-28.8,35.2-30.933
	c10.667-2.133,18.133-2.133,25.6,3.2c7.467,5.333,16,13.867,18.133,22.4c3.2,8.533,7.467,26.667,6.4,35.2
	c-1.067,8.533-2.133,13.867-2.133,13.867H147.2c0,0,2.133-12.8,0-19.2c-2.133-7.467-3.2-7.467-4.267-14.933
	c0-6.4-3.2-14.933-9.6-18.133c-6.4-3.2-25.6-3.2-35.2,0c-3.2,1.067-6.4,2.133-8.533,3.2c-4.267,2.133-7.467,7.467-6.4,13.867
	c0,2.133,0,5.333-1.067,6.4C77.867,141.867,74.667,153.6,76.8,161.067z"/>
<ellipse transform="matrix(0.2964 0.9551 -0.9551 0.2964 209.8229 52.6065)" style="fill:#FFD15C;" cx="69.208" cy="168.708" rx="16.001" ry="6.4"/>
<path style="fill:#F7B64C;" d="M134.4,208v34.133c-37.333-14.933-53.333-52.267-53.333-52.267C102.4,217.6,134.4,208,134.4,208z"/>
<polygon style="fill:#66C6B9;" points="134.4,228.267 128,232.533 123.733,232.533 94.933,236.8 134.4,327.467 157.867,381.867 
	155.733,267.733 "/>
<g>
	<path style="fill:#344A5E;" d="M128,249.6c0,0-8.533,24.533-6.4,41.6c1.067,17.067,27.733,69.333,27.733,69.333l13.867-42.667
		l-7.467-51.2l-13.867-18.133l-11.733-7.467L128,249.6"/>
	<path style="fill:#344A5E;" d="M115.2,235.733c0,0,7.467,6.4,12.8,13.867c0,0,6.4-4.267,12.8,0c0,0-3.2-13.867-5.333-16
		c-2.133-3.2-7.467,0-7.467,0h-4.267L115.2,235.733z"/>
</g>
<path style="fill:#E8EAE9;" d="M77.867,206.933c0,0,7.467,6.4,18.133,10.667s27.733,14.933,27.733,14.933s-17.067,16-18.133,26.667
	c-1.067,10.667-1.067,10.667-1.067,10.667l-35.2-48C73.6,217.6,76.8,204.8,77.867,206.933z"/>
<path style="fill:#344A5E;" d="M19.2,512c6.4-51.2,13.867-120.533,12.8-128c-2.133-11.733-20.267-54.4-28.8-88.533
	S7.467,252.8,7.467,252.8c10.667-13.867,26.667-10.667,35.2-12.8c8.533-2.133,18.133-9.6,18.133-9.6l27.733,3.2
	c0,0,35.2,43.733,44.8,66.133s27.733,97.067,27.733,97.067s1.067,16,3.2,41.6c1.067,13.867,1.067,44.8-4.267,72.533H19.2V512z"/>
<path style="fill:#FFD15C;" d="M152.533,409.6c0,0-32,1.067-30.933-14.933s21.333-16,21.333-16l20.267,12.8L152.533,409.6z"/>
<path style="fill:#E8EAE9;" d="M145.067,387.2c0,0,3.2,18.133,0,25.6l39.467,3.2l-4.267-32L145.067,387.2z"/>
<path style="fill:#2E4454;" d="M155.733,423.467c0,0,2.133,0,6.4,0c6.4,0,16-1.067,24.533-1.067c7.467,0,14.933-1.067,17.067-1.067
	c5.333,0,32-4.267,34.133-7.467c3.2-3.2,9.6-16,9.6-28.8c0-12.8-10.667-29.867-10.667-29.867s-10.667-17.067-13.867-21.333
	c-3.2-4.267-6.4-6.4-9.6-10.667c-3.2-3.2-3.2-8.533-3.2-8.533s2.133-6.4-2.133-13.867c-4.267-8.533-7.467-14.933-7.467-14.933
	s-2.133-14.933-9.6-22.4c-7.467-6.4-10.667-7.467-10.667-7.467c1.067,1.067,1.067,1.067,2.133,2.133
	c4.267,5.333,14.933,27.733,13.867,46.933c0,9.6-2.133,21.333-5.333,35.2l0,0c0,0,9.6,20.267,10.667,22.4
	c1.067,3.2,1.067,6.4-4.267,7.467c-1.067,0-5.333,1.067-10.667,2.133c-10.667,2.133-25.6,3.2-32,4.267c-2.133,0-3.2,0-3.2,0
	C162.133,394.667,155.733,423.467,155.733,423.467z"/>
<path style="fill:#415A6B;" d="M155.733,382.933c-8.533-24.533-26.667-71.467-35.2-87.467C108.8,273.067,86.4,256,86.4,256
	l5.333-6.4L80,248.533c0,0-18.133-14.933-20.267-16c0,0,2.133-4.267,5.333-6.4c3.2-2.133,5.333-7.467,7.467-7.467
	c0,0,25.6,17.067,38.4,35.2c11.733,18.133,25.6,42.667,34.133,70.4C150.4,342.4,155.733,368,158.933,384h-3.2V382.933z"/>
<path style="fill:#E8EAE9;" d="M134.4,218.667c0,0-2.133,9.6-6.4,13.867c0,0,7.467,0,9.6,8.533s2.133,8.533,2.133,8.533
	s0-8.533-2.133-13.867C136.533,231.467,138.667,220.8,134.4,218.667z"/>
<g>
	<path style="fill:#415A6B;" d="M157.867,384c-3.2-16-8.533-40.533-7.467-46.933c0-9.6,0-51.2-2.133-62.933
		c-2.133-10.667-9.6-40.533-9.6-40.533s5.333,8.533,14.933,13.867l-3.2,2.133c0,0,9.6,3.2,12.8,11.733
		c3.2,9.6,4.267,46.933,4.267,57.6c0,7.467-3.2,43.733-5.333,64h-4.267V384z"/>
	<path style="fill:#415A6B;" d="M3.2,295.467c4.267,18.133,11.733,38.4,18.133,55.467l0,0c18.133,22.4,56.533,43.733,62.933,46.933
		s8.533,4.267,12.8,5.333c4.267,1.067,12.8,0,17.067,1.067c4.267,1.067,7.467,0,12.8-1.067c2.133,0,18.133-4.267,34.133-7.467
		c19.2-4.267,38.4-8.533,38.4-8.533c-5.333-16-25.6-43.733-25.6-43.733s-14.933,1.067-26.667,2.133c-5.333,0-10.667,0-12.8,0
		c-6.4-1.067-23.467-2.133-24.533-3.2c-2.133-1.067-9.6,2.133-12.8,4.267c-3.2,1.067-5.333,1.067-6.4-5.333
		c-2.133-6.4-6.4-9.6-8.533-17.067c-2.133-6.4-5.333-28.8-21.333-53.333c-8.533-12.8-19.2-19.2-28.8-22.4
		c-8.533-3.2-18.133-1.067-24.533,6.4l0,0C6.4,252.8-5.333,261.333,3.2,295.467z"/>
</g>
<g>
</g>
<g>
</g>
<g>
</g>
<g>
</g>
<g>
</g>
<g>
</g>
<g>
</g>
<g>
</g>
<g>
</g>
<g>
</g>
<g>
</g>
<g>
</g>
<g>
</g>
<g>
</g>
<g>
</g>
</svg>
