<?xml version="1.0" encoding="iso-8859-1"?>
<!-- Generator: Adobe Illustrator 19.0.0, SVG Export Plug-In . SVG Version: 6.00 Build 0)  -->
<svg version="1.1" id="Capa_1" xmlns="http://www.w3.org/2000/svg" xmlns:xlink="http://www.w3.org/1999/xlink" x="0px" y="0px"
	 viewBox="0 0 513.038 513.038" style="enable-background:new 0 0 513.038 513.038;" xml:space="preserve">
<g>
	<path style="fill:#F3705A;" d="M258.652,265.572c0,0,13.867-21.333,20.267-34.133c6.4-12.8,16-66.133,16-66.133l-18.133,2.133
		C276.786,168.505,256.519,246.372,258.652,265.572z"/>
	<path style="fill:#F3705A;" d="M156.252,232.505l21.333,13.867l11.733-49.067l-48-60.8
		C140.252,136.505,106.119,198.372,156.252,232.505z"/>
</g>
<path style="fill:#FFD15C;" d="M266.119,397.838c12.8-55.467,18.133-106.667,0-145.067v-24.533
	c21.333-30.933,22.4-74.667,22.4-74.667l-14.933-81.067c0,0-8.533-33.067-38.4-29.867c-29.867,3.2-60.8,21.333-60.8,21.333
	l-30.933,83.2c0,0-2.133,34.133,25.6,77.867v27.733c-16,49.067-14.933,97.067,0,144h97.067V397.838z"/>
<path style="fill:#E8EAE9;" d="M272.519,513.038l-6.4-167.467c2.133,48-101.333,48-99.2,0l-6.4,167.467H272.519z"/>
<path style="fill:#F7B64C;" d="M170.119,226.105L170.119,226.105l-11.733,66.133c88.533-25.6,107.733-64,107.733-64
	C234.119,254.905,202.119,253.838,170.119,226.105z"/>
<path style="fill:#415A6B;" d="M352.519,513.038h84.267c-9.6-77.867-26.667-192-51.2-202.667l-53.333,129.067l37.333,7.467
	C367.452,445.838,356.786,473.572,352.519,513.038z"/>
<path style="fill:#344A5E;" d="M354.652,513.038c6.4-37.333,14.933-67.2,14.933-67.2c-6.4-45.867,16-135.467,16-135.467
	l-83.2-26.667l-61.867,229.333H354.652z"/>
<g>
	<path style="fill:#415A6B;" d="M235.186,501.305c0,4.267-1.067,7.467-1.067,11.733h22.4c33.067-54.4,58.667-113.067,75.733-174.933
		l-29.867-19.2l19.2-5.333c0,0-11.733-23.467-19.2-30.933c-7.467-6.4-29.867-28.8-35.2-29.867c0,0,12.8,24.533,2.133,73.6
		C258.652,375.438,236.252,479.972,235.186,501.305z"/>
	<path style="fill:#415A6B;" d="M84.786,513.038c-4.267-39.467-14.933-67.2-17.067-67.2l37.333-7.467l-53.333-128
		c-24.533,10.667-41.6,124.8-51.2,202.667H84.786z"/>
</g>
<path style="fill:#344A5E;" d="M67.719,445.838c0,0,8.533,29.867,14.933,67.2h114.133l-60.8-229.333l-84.267,26.667
	C51.719,310.372,74.119,399.972,67.719,445.838z"/>
<path style="fill:#415A6B;" d="M180.786,513.038h22.4c0-4.267-1.067-8.533-1.067-11.733c-2.133-20.267-23.467-123.733-34.133-172.8
	s2.133-73.6,2.133-73.6c-6.4,1.067-27.733,23.467-35.2,29.867c-7.467,6.4-19.2,30.933-19.2,30.933l19.2,5.333l-29.867,19.2
	C122.119,399.972,147.719,458.638,180.786,513.038z"/>
<path style="fill:#F3705A;" d="M244.786,55.438c0,0-21.333,30.933-52.267,59.733s-45.867,32-50.133,40.533
	c-3.2,7.467,0,53.333,22.4,80c10.667,11.733,17.067,26.667,17.067,42.667c0,1.067,0,3.2,0,4.267c0,0-36.267-18.133-52.267-71.467
	s-21.333-103.467-4.267-150.4s83.2-72.533,117.333-55.467s58.667,57.6,64,88.533c5.333,30.933,5.333,57.6,3.2,78.933
	c-2.133,18.133-5.333,39.467-27.733,82.133c-11.733,16-14.933,52.267-14.933,52.267s-9.6-21.333-6.4-41.6
	c6.4-32,20.267-49.067,23.467-80c4.267-32-10.667-100.267-21.333-115.2C253.319,56.505,244.786,55.438,244.786,55.438z"/>
<circle style="fill:#FFD15C;" cx="385.586" cy="386.105" r="126.933"/>
<circle style="fill:#F7B64C;" cx="385.586" cy="386.105" r="88.533"/>
<path style="fill:#FFD15C;" d="M380.252,420.238v-29.867c-9.6-3.2-16-6.4-20.267-11.733c-4.267-5.333-6.4-11.733-6.4-20.267
	c0-7.467,2.133-14.933,7.467-20.267s11.733-8.533,20.267-9.6v-7.467h10.667v7.467c7.467,1.067,13.867,3.2,18.133,7.467
	c4.267,4.267,7.467,9.6,8.533,17.067l-18.133,2.133c-1.067-5.333-4.267-9.6-8.533-11.733v27.733
	c11.733,3.2,19.2,7.467,23.467,11.733c4.267,5.333,6.4,11.733,6.4,19.2c0,8.533-2.133,16-7.467,22.4
	c-5.333,6.4-12.8,9.6-22.4,10.667v13.867h-10.667v-12.8c-8.533-1.067-14.933-4.267-20.267-9.6
	c-5.333-5.333-8.533-10.667-10.667-20.267l19.2-2.133c1.067,4.267,2.133,7.467,4.267,9.6
	C375.986,417.038,378.119,419.172,380.252,420.238z M380.252,344.505c-3.2,1.067-5.333,2.133-6.4,5.333
	c-2.133,2.133-2.133,5.333-2.133,7.467c0,2.133,1.067,5.333,2.133,7.467c1.067,2.133,4.267,4.267,7.467,5.333v-25.6H380.252z
	 M390.919,421.305c3.2-1.067,6.4-2.133,8.533-5.333c2.133-2.133,3.2-5.333,3.2-9.6c0-3.2-1.067-6.4-3.2-8.533
	c-2.133-2.133-5.333-4.267-9.6-5.333v28.8H390.919z"/>
<g>
</g>
<g>
</g>
<g>
</g>
<g>
</g>
<g>
</g>
<g>
</g>
<g>
</g>
<g>
</g>
<g>
</g>
<g>
</g>
<g>
</g>
<g>
</g>
<g>
</g>
<g>
</g>
<g>
</g>
</svg>
