<?xml version="1.0" encoding="iso-8859-1"?>
<!-- Generator: Adobe Illustrator 19.0.0, SVG Export Plug-In . SVG Version: 6.00 Build 0)  -->
<svg version="1.1" id="Capa_1" xmlns="http://www.w3.org/2000/svg" xmlns:xlink="http://www.w3.org/1999/xlink" x="0px" y="0px"
	 viewBox="0 0 513.128 513.128" style="enable-background:new 0 0 513.128 513.128;" xml:space="preserve">
<path style="fill:#ADB3BA;" d="M273.128,256.782c1.067,2.133,1.067,4.267,1.067,7.467c0,17.067-16,30.933-36.267,30.933
	s-37.333-13.867-38.4-30.933c0-6.4,2.133-11.733,5.333-16c-12.8-13.867-18.133-35.2-18.133-35.2h1.067
	c6.4,16,27.733,27.733,53.333,27.733c28.8,0,52.267-14.933,53.333-35.2C294.461,219.448,286.994,236.515,273.128,256.782z"/>
<g>
	<path style="fill:#CED6E0;" d="M294.461,203.448c1.067,24.533-23.467,44.8-53.333,44.8s-54.4-20.267-55.467-44.8
		s23.467-44.8,53.333-44.8C268.861,158.648,294.461,177.848,294.461,203.448z"/>
	<path style="fill:#CED6E0;" d="M291.261,289.849c0-1.067,1.067-4.267,1.067-6.4h-18.133c-3.2,8.533-4.267,16-4.267,16l5.333,10.667
		l16-2.133l1.067-7.467C292.328,299.448,291.261,291.982,291.261,289.849z"/>
</g>
<path style="fill:#344A5E;" d="M292.328,299.448c0,0-1.067,6.4-7.467,6.4c-6.4,0-10.667-6.4-14.933-7.467c0,0-6.4,10.667-9.6,12.8
	c-3.2,2.133-13.867,11.733-17.067,12.8c-1.067,1.067-2.133,2.133-3.2,3.2c0,1.067,0,2.133,1.067,2.133
	c5.333,1.067,22.4,3.2,30.933-4.267c0,0,5.333-4.267,7.467-5.333v3.2c0,0,10.667-1.067,16-5.333l-1.067-5.333
	C294.461,313.315,296.594,307.982,292.328,299.448z"/>
<path style="fill:#66C6B9;" d="M299.794,242.915c0,0,2.133-23.467,4.267-33.067c2.133-9.6,4.267-32,5.333-40.533
	c1.067-8.533,4.267-27.733,23.467-34.133c19.2-6.4,61.867,6.4,61.867,6.4l-25.6,67.2L299.794,242.915z"/>
<ellipse style="fill:#344A5E;" cx="381.928" cy="161.848" rx="16" ry="24.533"/>
<path style="fill:#4ABAA5;" d="M493.928,185.315l10.667,9.6l8.533,8.533c0,0-17.067,17.067-30.933,37.333s-69.333,60.8-107.733,60.8
	s-39.467-2.133-39.467-2.133s-3.2-14.933,2.133-26.667C341.394,262.115,493.928,185.315,493.928,185.315z"/>
<path style="fill:#3AA590;" d="M334.994,299.448c0,0,1.067-20.267,13.867-29.867c19.2-14.933,74.667-12.8,81.067-14.933
	c6.4-3.2,37.333-42.667,52.267-52.267c14.933-9.6,23.467-8.533,23.467-8.533s-27.733-42.667-27.733-52.267c0-9.6-8.533-16-19.2-16
	c-10.667,0-67.2,59.733-67.2,59.733s-42.667-4.267-56.533-3.2c-13.867,1.067-17.067,28.8-17.067,28.8s12.8,45.867,13.867,57.6
	C331.794,280.249,330.728,294.115,334.994,299.448z"/>
<path style="fill:#344A5E;" d="M422.461,240.782c0,0,2.133,12.8-22.4,13.867s-66.133,4.267-70.4,5.333
	c-4.267,1.067-8.533,7.467-13.867,13.867c-6.4,6.4-26.667,27.733-26.667,27.733s-8.533-7.467-12.8-8.533
	c-4.267-1.067-7.467-4.267-7.467-4.267s14.933-20.267,22.4-28.8c5.333-6.4,20.267-20.267,27.733-28.8
	c4.267-3.2,8.533-6.4,13.867-6.4l75.733-10.667L422.461,240.782z"/>
<path style="fill:#E8EAE9;" d="M295.528,303.715c-1.067,3.2-1.067,9.6-1.067,9.6l-2.133,7.467h-16l-4.267-10.667
	c0,0,7.467-19.2,16-26.667l11.733,9.6C299.794,293.048,295.528,301.582,295.528,303.715z"/>
<path style="fill:#415A6B;" d="M294.461,313.315c0,0-2.133,5.333-8.533,5.333c-6.4,0-9.6-8.533-13.867-9.6
	c0,0-7.467,9.6-11.733,10.667c-4.267,2.133-16,8.533-18.133,9.6c-1.067,0-2.133,2.133-3.2,3.2c-1.067,1.067,0,2.133,1.067,2.133
	c5.333,2.133,22.4,6.4,30.933,1.067c0,0,6.4-3.2,8.533-3.2v3.2c0,0,10.667,1.067,16-2.133v-5.333
	C294.461,327.182,297.661,322.915,294.461,313.315z"/>
<path style="fill:#CED6E0;" d="M357.394,231.182l40.533-7.467c0,0,2.133-1.067,0-4.267c-1.067-3.2-26.667-30.933-26.667-30.933
	l18.133,33.067l-33.067,6.4L357.394,231.182z"/>
<path style="fill:#F3705A;" d="M452.328,126.648l-42.667,68.267l-6.4,23.467c0,0-34.133-20.267-34.133-34.133l37.333-51.2
	l21.333-19.2L452.328,126.648z"/>
<path id="SVGCleanerId_0" style="fill:#415A6B;" d="M422.461,99.982c0,0-7.467,1.067-11.733,5.333
	c-4.267,3.2-7.467,5.333-8.533,7.467c-1.067,1.067-2.133,0-5.333,1.067c-2.133,1.067-5.333,5.333-8.533,6.4
	c-3.2,1.067-8.533,2.133-12.8,5.333c-4.267,3.2-6.4,3.2-8.533,5.333c-2.133,2.133-8.533,12.8-9.6,16
	c-1.067,3.2-2.133,5.333-3.2,8.533s-5.333,17.067-5.333,17.067s11.733-6.4,19.2,4.267c0,0,6.4-17.067,7.467-19.2
	c1.067-2.133,2.133-5.333,4.267-6.4c1.067,0,8.533-4.267,8.533-4.267l28.8-36.267C420.328,109.582,422.461,99.982,422.461,99.982z"
	/>
<g>
	<path id="SVGCleanerId_0_1_" style="fill:#415A6B;" d="M422.461,99.982c0,0-7.467,1.067-11.733,5.333
		c-4.267,3.2-7.467,5.333-8.533,7.467c-1.067,1.067-2.133,0-5.333,1.067c-2.133,1.067-5.333,5.333-8.533,6.4
		c-3.2,1.067-8.533,2.133-12.8,5.333c-4.267,3.2-6.4,3.2-8.533,5.333c-2.133,2.133-8.533,12.8-9.6,16
		c-1.067,3.2-2.133,5.333-3.2,8.533s-5.333,17.067-5.333,17.067s11.733-6.4,19.2,4.267c0,0,6.4-17.067,7.467-19.2
		c1.067-2.133,2.133-5.333,4.267-6.4c1.067,0,8.533-4.267,8.533-4.267l28.8-36.267C420.328,109.582,422.461,99.982,422.461,99.982z"
		/>
</g>
<path style="fill:#344A5E;" d="M434.194,111.715l-11.733-13.867c0,0-7.467,5.333-12.8,13.867
	c-5.333,8.533-14.933,24.533-18.133,33.067c-3.2,7.467-5.333,14.933-7.467,17.067c-2.133,2.133-7.467,2.133-9.6,7.467
	c-2.133,5.333-4.267,14.933-4.267,14.933c0,1.067,8.533-6.4,13.867-13.867c5.333-6.4,37.333-54.4,37.333-54.4"/>
<path style="fill:#415A6B;" d="M432.061,119.182l-7.467-5.333c0,0-13.867,8.533-21.333,19.2s-23.467,40.533-27.733,45.867
	c-4.267,5.333-5.333,5.333-5.333,5.333s14.933-9.6,27.733-29.867C397.928,153.315,420.328,123.448,432.061,119.182z"/>
<path style="fill:#F3F3F3;" d="M433.128,125.582c0,0-1.067-1.067-3.2,0c-3.2,1.067-5.333,7.467-5.333,7.467l4.267-12.8l10.667,3.2
	C437.394,125.582,436.328,127.715,433.128,125.582z"/>
<path style="fill:#344A5E;" d="M460.861,124.515c0,0,11.733,20.267,14.933,25.6c3.2,4.267,6.4,9.6,5.333,16
	c0,0-2.133-7.467-8.533-9.6c-6.4-2.133-21.333,5.333-25.6,16c-4.267,10.667-8.533,71.467-17.067,78.933
	c-8.533,7.467-10.667,5.333-14.933-1.067c-5.333-7.467-20.267-28.8-13.867-42.667C407.528,193.848,460.861,124.515,460.861,124.515z
	"/>
<path style="fill:#FFD15C;" d="M426.728,77.582c0,0-5.333,6.4-6.4,12.8c0,0,0,2.133,1.067,4.267s0,3.2,0,3.2s-5.333,5.333-5.333,6.4
	c0,2.133,1.067,3.2,3.2,3.2c0,0-1.067,4.267,1.067,4.267c0,0-2.133,1.067-1.067,2.133c1.067,1.067-2.133,6.4,3.2,7.467
	c5.333,1.067,8.533,0,10.667,1.067c2.133,1.067,3.2,12.8,3.2,12.8l24.533-13.867l-3.2-9.6v-25.6L426.728,77.582z"/>
<path style="fill:#415A6B;" d="M426.728,75.448c0,0-3.2,8.533,1.067,9.6c5.333,2.133,12.8,1.067,12.8,7.467
	c-1.067,6.4-1.067,8.533,0,9.6c1.067,2.133,0,7.467,0,7.467h2.133c0,0,2.133-5.333,6.4-6.4c4.267-1.067,8.533,9.6,8.533,9.6
	s8.533-7.467,11.733-16c3.2-9.6-1.067-23.467-11.733-28.8C446.994,62.648,430.994,65.848,426.728,75.448z"/>
<path style="fill:#F3F3F3;" d="M457.661,113.848c0,0-1.067,6.4-7.467,8.533s-17.067,3.2-17.067,3.2l1.067,16l21.333-13.867
	c3.2-2.133,5.333-7.467,3.2-11.733L457.661,113.848z"/>
<g>
	<path style="fill:#415A6B;" d="M458.728,117.048c0,0-3.2,6.4-12.8,17.067s-27.733,34.133-34.133,44.8s-10.667,28.8-10.667,28.8
		s16-19.2,26.667-30.933c10.667-11.733,20.267-25.6,20.267-25.6l-1.067-6.4l7.467-1.067l3.2-5.333
		C461.928,131.982,462.994,123.448,458.728,117.048L458.728,117.048z"/>
	<path style="fill:#415A6B;" d="M357.394,215.182c0,0-10.667,16-13.867,21.333c-4.267,5.333-7.467,8.533-9.6,12.8
		c-2.133,4.267-18.133,28.8-23.467,35.2c-4.267,6.4-11.733,13.867-11.733,13.867s-6.4-5.333-10.667-7.467
		c-4.267-2.133-6.4-5.333-6.4-5.333s8.533-25.6,11.733-34.133c2.133-8.533,13.867-25.6,17.067-30.933
		c3.2-5.333,2.133-7.467,5.333-9.6s3.2-1.067,5.333-4.267c2.133-3.2,26.667-20.267,26.667-20.267L357.394,215.182z"/>
</g>
<path style="fill:#ADB3BA;" d="M358.461,230.115l38.4-6.4c1.067,0,1.067-1.067,1.067-2.133l-41.6-51.2c0,0-1.067-1.067-1.067,0
	l-35.2,6.4c-1.067,0-1.067,1.067-1.067,2.133l38.4,51.2C357.394,229.048,358.461,230.115,358.461,230.115z"/>
<path style="fill:#FFD15C;" d="M369.128,172.515l3.2,5.333c0,0,0,1.067,0,3.2c0,1.067-1.067,4.267-1.067,4.267l-1.067,3.2
	c0,0-4.267-1.067-3.2-5.333c0,0,0-2.133,0-3.2c0,0-5.333-2.133-6.4-3.2c-1.067,0-1.067,0-1.067,0s3.2,3.2,2.133,5.333
	s-3.2-1.067-4.267-2.133c-1.067-1.067-1.067-1.067-1.067-1.067s2.133,4.267,2.133,5.333c0,0,2.133,3.2,2.133,4.267
	c0,0,2.133,2.133,0,4.267l-2.133-1.067c0,0-2.133-1.067-3.2-2.133c-1.067-1.067-5.333-2.133-5.333-3.2
	c-1.067-1.067-2.133-7.467-2.133-8.533c0-1.067,5.333-7.467,5.333-7.467l6.4-4.267L369.128,172.515z"/>
<path style="fill:#CED6E0;" d="M356.328,230.115L356.328,230.115l1.067,1.067l0,0C356.328,231.182,356.328,231.182,356.328,230.115
	l-39.467-52.267l-2.133-30.933h1.067l41.6,52.267l1.067,5.333L356.328,230.115z"/>
<path style="fill:#E8EAE9;" d="M357.394,231.182L357.394,231.182c-1.067,0-1.067,0-1.067-1.067v-27.733c0-1.067,0-2.133-1.067-3.2
	l-40.533-52.267v-1.067l0,0h1.067l40.533,52.267c1.067,1.067,1.067,2.133,1.067,4.267v27.733
	C358.461,231.182,358.461,231.182,357.394,231.182z"/>
<path style="fill:#66C6B9;" d="M329.661,323.982c0,0,6.4-33.067,9.6-40.533s7.467-11.733,24.533-10.667
	c17.067,1.067,70.4,4.267,87.467-11.733c17.067-17.067,24.533-30.933,32-41.6c7.467-10.667,24.533-19.2,28.8-16
	c0,0,2.133,2.133-1.067,7.467c-3.2,5.333-48,72.533-48,72.533s-1.067,4.267-8.533,11.733s-32,30.933-67.2,40.533
	C354.194,344.249,332.861,333.582,329.661,323.982z"/>
<path style="fill:#FFD15C;" d="M411.794,208.782l-4.267,11.733c0,0-7.467-1.067-8.533-1.067c-2.133,0-7.467,1.067-10.667,1.067
	c-3.2,0-8.533-2.133-11.733-4.267c-3.2-2.133-3.2-3.2-3.2-3.2s-2.133-2.133-2.133-4.267c0,0-3.2-3.2-3.2-4.267
	c1.067-2.133,4.267,1.067,5.333,1.067h1.067c-1.067-1.067-3.2-2.133-3.2-4.267h3.2c0,0,2.133,0,3.2,0s3.2,0,4.267-1.067
	c2.133,0,3.2,0,5.333,1.067c1.067,1.067,3.2,2.133,5.333,2.133c3.2,1.067,4.267,2.133,7.467,3.2
	C403.261,208.782,411.794,208.782,411.794,208.782z"/>
<path style="fill:#E8EAE9;" d="M408.594,207.715h-3.2c1.067,5.333,1.067,10.667,0,14.933l8.533,1.067L408.594,207.715z"/>
<g>
	<path style="fill:#415A6B;" d="M478.994,182.115c-3.2,4.267-5.333,4.267-7.467,8.533s-6.4,13.867-6.4,16s0,4.267-1.067,6.4
		c-1.067,1.067-5.333,12.8-11.733,13.867c-1.067,0-7.467,0-13.867,0c-12.8,0-28.8,1.067-28.8,1.067s1.067-19.2-1.067-22.4
		c0,0,8.533,2.133,11.733,2.133c4.267,0,11.733-1.067,12.8-1.067c2.133,0,5.333,0,6.4-2.133c0-1.067,0-4.267,1.067-6.4
		c1.067-1.067,4.267-16,6.4-22.4l0,0c0-2.133,1.067-3.2,1.067-3.2l0,0c0-1.067,0-1.067,1.067-2.133
		c4.267-10.667,20.267-17.067,25.6-16c5.333,2.133,8.533,8.533,8.533,9.6l0,0C481.128,165.048,482.194,177.848,478.994,182.115z"/>
	<path style="fill:#415A6B;" d="M357.394,152.248c0,1.067,0,1.067-1.067,2.133c-1.067,3.2-5.333,17.067-5.333,17.067
		s11.733-6.4,19.2,4.267c0,0,6.4-17.067,7.467-19.2c1.067-1.067,1.067-2.133,2.133-3.2h-22.4V152.248z"/>
</g>
<path style="fill:#FFD15C;" d="M49.128,255.715c0,0-8.533,11.733-9.6,18.133c-2.133,6.4-2.133,11.733-2.133,12.8
	c0,1.067,3.2,5.333,3.2,5.333l24.533-14.933L49.128,255.715z"/>
<path style="fill:#F3705A;" d="M56.594,269.582c0,0-8.533-3.2-8.533-8.533c0-5.333,0-5.333,1.067-10.667
	c1.067-5.333,1.067-10.667,3.2-12.8c2.133-2.133,12.8-9.6,18.133-7.467c4.267,1.067,6.4,5.333,6.4,5.333s-10.667,13.867-12.8,19.2
	C61.928,259.982,56.594,269.582,56.594,269.582z"/>
<path style="fill:#66C6B9;" d="M147.261,240.782c0,0-11.733-30.933-30.933-33.067c0,0-75.733,88.533-85.333,87.467l45.867,12.8
	L147.261,240.782z"/>
<path style="fill:#3AA590;" d="M24.594,305.849l6.4-11.733c0,0,12.8,0,27.733,1.067c14.933,1.067,50.133-26.667,59.733-32
	c8.533-6.4,27.733-25.6,27.733-25.6l72.533,72.533l-57.6,59.733c0,0-20.267,12.8-40.533,9.6
	c-20.267-3.2-87.467-46.933-87.467-46.933L24.594,305.849z"/>
<path style="fill:#415A6B;" d="M120.594,347.448c0,0,17.067,11.733,32,3.2c14.933-8.533,29.867-27.733,34.133-35.2l0,0
	c3.2-6.4,10.667-8.533,17.067-5.333c1.067,0,2.133,1.067,3.2,1.067c4.267,1.067,8.533-2.133,8.533-2.133s0-18.133,1.067-23.467
	c1.067-5.333,2.133-12.8,2.133-12.8l-65.067-7.467L120.594,347.448z"/>
<path style="fill:#344A5E;" d="M242.194,224.782l-21.333,49.067l-61.867-49.067h-1.067l18.133-48c1.067-1.067,2.133-2.133,3.2-1.067
	l60.8,44.8C242.194,221.582,243.261,222.648,242.194,224.782z"/>
<polygon style="fill:#8AD7F8;" points="163.261,223.715 179.261,181.048 237.928,223.715 219.794,265.315 "/>
<path style="fill:#CED6E0;" d="M219.794,275.982l-42.667,39.467c-1.067,1.067-3.2,1.067-4.267,0l-58.667-49.067
	c-2.133-1.067-2.133-4.267,0-5.333l40.533-34.133c1.067-1.067,3.2-1.067,4.267,0l59.733,44.8
	C221.928,271.715,221.928,273.849,219.794,275.982z"/>
<polygon style="fill:#ADB3BA;" points="206.994,277.048 189.928,293.048 134.461,252.515 153.661,237.582 "/>
<path style="fill:#F05540;" d="M107.794,341.048c1.067,1.067,2.133,2.133,4.267,3.2c3.2,2.133,10.667,5.333,19.2,3.2
	c11.733-2.133,26.667-18.133,27.733-25.6c1.067-7.467-18.133-40.533-25.6-46.933c-7.467-6.4-16-18.133-23.467-24.533
	c-8.533-6.4-11.733-9.6-19.2-12.8c-7.467-3.2-19.2-6.4-23.467-4.267c-4.267,2.133-16,17.067-13.867,25.6
	c2.133,8.533,26.667,48,32,54.4C88.594,319.715,103.528,335.715,107.794,341.048z"/>
<path style="fill:#FFD15C;" d="M71.528,246.115c0,0,9.6,4.267,21.333,7.467c12.8,3.2,17.067,4.267,17.067,4.267
	s-7.467-6.4-8.533-7.467c-1.067-1.067,0-9.6,0-9.6s9.6-1.067,13.867-11.733c4.267-10.667,5.333-10.667,5.333-16c0-6.4,0-6.4,0-6.4
	l-40.533,23.467c0,0-2.133,8.533-2.133,9.6C75.794,240.782,68.328,241.848,71.528,246.115z"/>
<g>
	<path style="fill:#415A6B;" d="M103.528,191.715c0,0,10.667-1.067,16,5.333c5.333,6.4,1.067,22.4-4.267,30.933
		c0,0,3.2-8.533,3.2-10.667c0,0-6.4,8.533-6.4,10.667c0,2.133,0,2.133,0,2.133h-1.067c0,0,0-4.267-5.333-1.067
		c-4.267,3.2-9.6,7.467-8.533,12.8c0,0-10.667,3.2-19.2-4.267c0,0-1.067-8.533-5.333-8.533l-3.2-4.267c0,0,1.067-2.133,1.067-7.467
		C71.528,210.915,75.794,185.315,103.528,191.715z"/>
	<path style="fill:#415A6B;" d="M71.528,229.048c0,0-3.2,3.2-1.067,7.467c1.067,5.333,8.533,10.667,8.533,16
		c0,5.333-3.2,23.467-7.467,26.667c0,0,2.133-4.267,2.133-7.467c0,0-6.4,1.067-7.467,5.333s0,9.6,0,9.6s-9.6-2.133-8.533-10.667
		s6.4-16,4.267-25.6s-2.133-21.333,8.533-27.733"/>
</g>
<path style="fill:#F3705A;" d="M70.461,232.249c1.067,0,2.133-1.067,3.2-2.133c-2.133-2.133-3.2-4.267-3.2-7.467
	c-2.133,0-3.2,2.133-3.2,3.2C68.328,227.982,69.394,230.115,70.461,232.249z"/>
<path style="fill:#FFD15C;" d="M112.061,309.048c0,0,16,26.667,18.133,29.867c2.133,3.2,8.533,6.4,10.667,6.4s5.333-4.267,6.4-9.6
	c1.067-5.333,3.2-25.6,4.267-26.667c1.067-2.133,2.133-6.4,2.133-6.4s5.333-2.133,5.333-10.667c0,0,0-1.067,1.067-2.133
	c1.067-1.067,3.2-4.267,3.2-5.333c1.067-1.067,1.067-2.133,1.067-2.133c0-1.067,1.067-4.267,1.067-4.267s-2.133-1.067-3.2,2.133
	c0,0-3.2,4.267-4.267,4.267h-1.067c0,0,2.133-4.267,2.133-6.4c1.067-2.133,1.067-8.533,1.067-8.533s-3.2-1.067-4.267,4.267
	c0,0-1.067,3.2-1.067,4.267s-1.067,3.2-1.067,3.2h-1.067c0,0,1.067-4.267,1.067-6.4s1.067-7.467,1.067-7.467s-3.2-2.133-4.267,2.133
	s-2.133,8.533-2.133,9.6s-2.133,0-2.133,0s-1.067-6.4-1.067-7.467s-2.133-1.067-3.2,1.067c0,2.133,0,7.467,0,8.533
	s-2.133,3.2-2.133,3.2s0-3.2,0-4.267c0,0,1.067-4.267-3.2-5.333v4.267c0,0-1.067,3.2-1.067,4.267c0,1.067,0,5.333,0,9.6
	s3.2,6.4,2.133,8.533c0,2.133-2.133,13.867-2.133,13.867l-4.267-16L112.061,309.048z"/>
<path style="fill:#F3705A;" d="M112.061,311.182c0,0-11.733-6.4-13.867-14.933s7.467-24.533,17.067-23.467
	c9.6,1.067,21.333,14.933,20.267,27.733C135.528,299.448,133.394,310.115,112.061,311.182z"/>
<path style="fill:#66C6B9;" d="M96.061,437.049l6.4,10.667c0,0,59.733-10.667,90.667-29.867
	c30.933-19.2,43.733-45.867,43.733-45.867l1.067-65.067c0,0-53.333,49.067-72.533,58.667s-59.733,5.333-78.933,3.2
	c-19.2-2.133-17.067,30.933-17.067,30.933L96.061,437.049z"/>
<path style="fill:#4ABAA5;" d="M96.061,437.049c0,0-12.8-18.133-18.133-28.8s-7.467-14.933-2.133-20.267
	c5.333-5.333,12.8-10.667,20.267-11.733s20.267,4.267,27.733,5.333c7.467,1.067,36.267,8.533,60.8-11.733
	c24.533-20.267,46.933-36.267,52.267-53.333c5.333-17.067-8.533-12.8-13.867-10.667c-5.333,2.133-26.667,20.267-30.933,25.6
	s-37.333,38.4-50.133,40.533c-12.8,2.133-43.733-11.733-51.2-17.067c-7.467-5.333-58.667-52.267-59.733-56.533
	s-2.133-4.267-2.133-4.267s-17.067,1.067-25.6,16c-8.533,14.933,2.133,25.6,4.267,28.8s38.4,52.267,38.4,52.267
	s13.867,2.133,22.4,9.6S96.061,437.049,96.061,437.049z"/>
<g>
</g>
<g>
</g>
<g>
</g>
<g>
</g>
<g>
</g>
<g>
</g>
<g>
</g>
<g>
</g>
<g>
</g>
<g>
</g>
<g>
</g>
<g>
</g>
<g>
</g>
<g>
</g>
<g>
</g>
</svg>
