<?xml version="1.0" encoding="iso-8859-1"?>
<!-- Generator: Adobe Illustrator 19.0.0, SVG Export Plug-In . SVG Version: 6.00 Build 0)  -->
<svg version="1.1" id="Capa_1" xmlns="http://www.w3.org/2000/svg" xmlns:xlink="http://www.w3.org/1999/xlink" x="0px" y="0px"
	 viewBox="0 0 512 512" style="enable-background:new 0 0 512 512;" xml:space="preserve">
<path style="fill:#2A4051;" d="M268.8,485.37h-23.467c0,2.133-1.067,4.267-1.067,5.333c-1.067,4.267-1.067,8.533,1.067,12.8
	c2.133,4.267,5.333,6.4,11.733,7.467c6.4,1.067,17.067-2.133,14.933-13.867C270.933,490.704,268.8,488.57,268.8,485.37z"/>
<g>
	<path style="fill:#415A6B;" d="M246.4,470.437c0,0,0,13.867-1.067,18.133c-1.067,4.267-1.067,8.533,1.067,11.733
		c2.133,4.267,5.333,6.4,11.733,7.467c6.4,1.067,16,0,13.867-11.733c-2.133-11.733-4.267-13.867-3.2-20.267
		c1.067-6.4,0-10.667-2.133-12.8C264.533,460.837,246.4,470.437,246.4,470.437z"/>
	<path style="fill:#415A6B;" d="M297.6,326.437l1.067,4.267c0,0,6.4,8.533,1.067,13.867c-5.333,6.4-11.733-1.067-14.933-4.267
		c-4.267-3.2-10.667-17.067-10.667-21.333s-8.533-17.067-11.733-20.267c-3.2-3.2,0-9.6,4.267-12.8
		c3.2-3.2,13.867,1.067,14.933,5.333C283.733,296.57,297.6,326.437,297.6,326.437z"/>
</g>
<path style="fill:#2A4051;" d="M325.333,238.97c0,0,4.267,10.667,8.533,23.467c4.267,12.8,9.6,39.467,10.667,43.733
	s1.067,18.133-6.4,21.333c-6.4,3.2-28.8-4.267-28.8-4.267l-9.6,7.467c0,0-22.4-4.267-24.533-16c-1.067-11.733,0-25.6,0-25.6
	l20.267,4.267l-12.8-13.867c0,0-7.467,2.133-9.6,1.067c0,0-9.6,35.2-8.533,54.4c1.067,19.2-3.2,55.467-2.133,72.533
	s1.067,29.867,3.2,39.467c2.133,9.6,3.2,16,3.2,16s-2.133,14.933-9.6,14.933c-7.467-1.067-11.733-6.4-11.733-6.4
	s-1.067-12.8-6.4-23.467c-5.333-10.667-11.733-37.333-12.8-52.267s-3.2-36.267-3.2-44.8c0-9.6-8.533-60.8-9.6-76.8
	c-1.067-17.067,0-64,0-64l108.8-10.667L325.333,238.97z"/>
<path style="fill:#FFD15C;" d="M358.4,165.37c0,0,5.333,11.733,9.6,13.867c4.267,2.133-4.267,10.667-4.267,10.667
	s-2.133,3.2,5.333,5.333c7.467,2.133,13.867-1.067,14.933-5.333c1.067-4.267,5.333-5.333-1.067-11.733c-6.4-6.4-16-25.6-16-25.6
	L358.4,165.37z"/>
<path style="fill:#F3F3F3;" d="M371.2,156.837l3.2,5.333c-3.2,5.333-7.467,8.533-13.867,9.6l-4.267-5.333L371.2,156.837z"/>
<g>
	
		<ellipse transform="matrix(0.2239 -0.9746 0.9746 0.2239 170.7236 312.6451)" style="fill:#FFD15C;" cx="281.669" cy="49.126" rx="9.6" ry="4.267"/>
	
		<ellipse transform="matrix(0.2239 0.9746 -0.9746 0.2239 227.0047 -191.84)" style="fill:#FFD15C;" cx="233.957" cy="46.615" rx="9.6" ry="4.267"/>
	<path style="fill:#FFD15C;" d="M281.6,36.304l-1.067,8.533c0,0-2.133,16-6.4,22.4l-1.067,40.533l-38.4,4.267L233.6,85.37
		l2.133-27.733c0,0-3.2-9.6-2.133-21.333c2.133-11.733,5.333-27.733,11.733-29.867c6.4-2.133,24.533,1.067,29.867,4.267
		C281.6,12.837,283.733,29.904,281.6,36.304z"/>
</g>
<path style="fill:#415A6B;" d="M233.6,42.704h2.133c0,0-1.067-4.267,1.067-10.667c2.133-6.4,3.2-7.467,4.267-11.733
	c1.067-4.267,3.2-6.4,5.333-6.4s20.267,2.133,24.533,1.067s6.4,1.067,7.467,8.533c1.067,7.467,0,7.467,1.067,11.733
	c1.067,3.2,0,10.667,0,10.667h1.067c0,0,4.267-9.6,4.267-20.267s-4.267-19.2-13.867-22.4c-9.6-3.2-23.467-3.2-30.933,0
	c-8.533,3.2-9.6,17.067-9.6,25.6S233.6,42.704,233.6,42.704z"/>
<path style="fill:#F7B64C;" d="M253.867,81.104c-10.667-2.133-18.133-17.067-18.133-17.067l-1.067,21.333l0,14.933
	c2.133,0,5.333-1.067,8.533-2.133c25.6-5.333,32-30.933,32-30.933C273.067,73.637,265.6,83.237,253.867,81.104z"/>
<path style="fill:#CED6E0;" d="M263.467,90.704l4.267-2.133l16-11.733c0,0,30.933,34.133,34.133,61.867c3.2,28.8,0,61.867,0,61.867
	s-8.533,29.867-36.267,35.2c-27.733,5.333-56.533-6.4-56.533-6.4l4.267-146.133L263.467,90.704z"/>
<g>
	<path style="fill:#55C0EB;" d="M265.6,94.97l5.333,7.467c0,0,6.4,23.467,7.467,32c1.067,8.533,1.067,116.267,1.067,116.267
		L268.8,264.57l-11.733-11.733c0,0,5.333-67.2,4.267-76.8c-1.067-9.6,3.2-72.533,3.2-72.533L265.6,94.97z"/>
	<path style="fill:#55C0EB;" d="M270.933,102.437c-2.133,0-3.2,0-5.333,0c0,0-2.133-8.533-6.4-9.6l2.133-1.067
		c0,0,3.2,1.067,5.333,0c2.133-1.067,6.4-3.2,6.4-3.2S270.933,99.237,270.933,102.437z"/>
</g>
<g>
	<path style="fill:#F3F3F3;" d="M275.2,75.77c0,0-3.2,9.6-7.467,12.8l11.733,10.667l3.2-24.533L275.2,75.77z"/>
	<path style="fill:#F3F3F3;" d="M234.667,70.437c0,0,7.467,16,28.8,20.267L252.8,105.637L226.133,82.17L234.667,70.437z"/>
</g>
<g>
	<path style="fill:#344A5E;" d="M248.533,168.57l1.067,29.867c0,0-14.933,50.133-29.867,72.533c-14.933,22.4-20.267,16-25.6,11.733
		s-12.8-12.8-12.8-12.8S192,206.971,195.2,190.971s4.267-44.8,4.267-44.8s-6.4,3.2-14.933,7.467s-25.6,6.4-35.2,2.133
		c-9.6-4.267-5.333-21.333-3.2-26.667c2.133-5.333,12.8-19.2,16-23.467c3.2-4.267,28.8-18.133,36.267-20.267
		c7.467-2.133,22.4-8.533,22.4-8.533l14.933,19.2C235.733,96.037,250.667,149.37,248.533,168.57z"/>
	<path style="fill:#344A5E;" d="M278.4,65.104c0,0,4.267-2.133,10.667-3.2c5.333-1.067,11.733,1.067,16,4.267
		c4.267,3.2,7.467,22.4,11.733,25.6c4.267,3.2,21.333,21.333,23.467,24.533c2.133,3.2,16,16,19.2,21.333
		c4.267,5.333,12.8,17.067,12.8,17.067s2.133,11.733-16,14.933c0,0-13.867-10.667-20.267-18.133c-6.4-7.467-17.067-16-17.067-16
		s6.4,39.467,6.4,53.333s-3.2,29.867,0,38.4c3.2,9.6,0,10.667,0,10.667s-8.533-25.6-9.6-39.467
		c-1.067-13.867-1.067-53.333-3.2-69.333C310.4,113.104,278.4,65.104,278.4,65.104z"/>
</g>
<g>
	<path style="fill:#415A6B;" d="M277.333,64.037l-2.133,4.267v8.533c0,0,23.467,26.667,30.933,44.8
		c7.467,18.133,10.667,77.867,10.667,77.867s2.133-30.933,2.133-50.133s-5.333-39.467-10.667-53.333
		c-5.333-13.867-7.467-18.133-7.467-18.133l-7.467,1.067l4.267-6.4L277.333,64.037z"/>
	<path style="fill:#415A6B;" d="M235.733,65.104c0,3.2,0,6.4,1.067,8.533c1.067,7.467,5.333,23.467,8.533,30.933
		c5.333,10.667,7.467,43.733,7.467,57.6c0,14.933-2.133,36.267-2.133,36.267s-2.133-30.933-4.267-50.133s-5.333-22.4-12.8-34.133
		s-10.667-16-10.667-16l4.267-2.133l-6.4-4.267c0,0-1.067-11.733,0-14.933C221.867,73.637,234.667,65.104,235.733,65.104
		L235.733,65.104z"/>
</g>
<path style="fill:#FFD15C;" d="M164.267,118.437l-3.2-11.733c0,0,9.6-8.533,12.8-13.867c3.2-5.333,3.2-11.733,4.267-14.933
	c1.067-3.2,0-10.667,2.133-12.8c0,0-1.067-1.067,2.133-6.4c2.133-5.333,5.333-7.467,5.333-7.467L192,42.704
	c1.067-3.2,5.333-1.067,4.267,1.067c0,0-2.133,3.2-3.2,5.333c-1.067,2.133,3.2,2.133,3.2,3.2c-1.067,1.067-2.133,2.133-3.2,3.2
	c-1.067,1.067,1.067,2.133,1.067,2.133s1.067,4.267-1.067,4.267c0,0,1.067,12.8,1.067,16h1.067c0,0,4.267-9.6,6.4-11.733
	s4.267-1.067,6.4,0c1.067,1.067,1.067,3.2-1.067,6.4c-2.133,3.2-7.467,8.533-7.467,10.667s0,4.267-2.133,8.533
	c-2.133,4.267-9.6,11.733-9.6,11.733v3.2c0,0-1.067,7.467-5.333,10.667C179.2,119.504,164.267,118.437,164.267,118.437z"/>
<path style="fill:#F3F3F3;" d="M161.067,106.704c0,0-1.067,20.267,2.133,24.533c3.2,4.267,21.333-13.867,22.4-18.133
	c1.067-4.267,1.067-5.333,1.067-5.333s-1.067,5.333-5.333,7.467S165.333,114.17,161.067,106.704z"/>
<path style="fill:#F3705A;" d="M512,261.37c0-1.067-39.467,2.133-69.333-5.333c-29.867-10.667-120.533-24.533-136.533-25.6
	c-16-3.2-58.667-2.133-82.133,3.2c-24.533,4.267-68.267,17.067-91.733,24.533c-23.467,6.4-46.933,12.8-46.933,12.8
	s-39.467,11.733-57.6,13.867C9.6,286.97,0,283.77,0,283.77s37.333-10.667,58.667-23.467C80,245.37,131.2,235.77,166.4,232.57
	c36.267-3.2,58.667-6.4,68.267-10.667s68.267-3.2,119.467-1.067c25.6,1.067,66.133,8.533,99.2,19.2
	C486.4,249.637,512,261.37,512,261.37z"/>
<g>
</g>
<g>
</g>
<g>
</g>
<g>
</g>
<g>
</g>
<g>
</g>
<g>
</g>
<g>
</g>
<g>
</g>
<g>
</g>
<g>
</g>
<g>
</g>
<g>
</g>
<g>
</g>
<g>
</g>
</svg>
