<?xml version="1.0" encoding="iso-8859-1"?>
<!-- Generator: Adobe Illustrator 19.0.0, SVG Export Plug-In . SVG Version: 6.00 Build 0)  -->
<svg version="1.1" id="Capa_1" xmlns="http://www.w3.org/2000/svg" xmlns:xlink="http://www.w3.org/1999/xlink" x="0px" y="0px"
	 viewBox="0 0 512.16 512.16" style="enable-background:new 0 0 512.16 512.16;" xml:space="preserve">
<g>
	<polygon style="fill:#344A5E;" points="159.8,251.893 173.667,257.226 193.933,215.626 149.133,160.16 	"/>
	<ellipse style="fill:#344A5E;" cx="344.333" cy="279.626" rx="13.867" ry="22.4"/>
</g>
<g>
	<path style="fill:#FFD15C;" d="M295.267,72.693c-1.067,7.467-5.333,12.8-8.533,12.8c-3.2,0-5.333-6.4-5.333-13.867
		c1.067-7.467,5.333-12.8,8.533-12.8C294.2,58.826,296.333,65.226,295.267,72.693z"/>
	<path style="fill:#FFD15C;" d="M208.867,72.693c1.067,7.467,4.267,12.8,8.533,12.8c3.2,0,5.333-6.4,5.333-13.867
		c-2.133-7.467-5.333-12.8-9.6-12.8C209.933,58.826,207.8,65.226,208.867,72.693z"/>
	<path style="fill:#FFD15C;" d="M283.533,94.026c-2.133,6.4-2.133,24.533-2.133,24.533l-4.267,8.533
		c-3.2,5.333-9.6,12.8-18.133,21.333c0,0-13.867-9.6-23.467-17.067c-8.533-6.4-10.667-12.8-10.667-12.8s-1.067-13.867-2.133-17.067
		c-1.067-3.2-7.467-14.933-8.533-28.8c-1.067-13.867-1.067-39.467,3.2-50.133c3.2-10.667,24.533-14.933,37.333-13.867
		c13.867,1.067,26.667,7.467,28.8,12.8c2.133,4.267,4.267,48,4.267,48v3.2C287.8,72.693,285.667,88.693,283.533,94.026z"/>
</g>
<path style="fill:#F7B64C;" d="M283.533,96.16L283.533,96.16c-6.4,12.8-22.4,21.333-35.2,21.333c-13.867,0-25.6-16-25.6-16
	c1.067,3.2,2.133,17.067,2.133,17.067s2.133,5.333,10.667,12.8c2.133,1.067,4.267,3.2,6.4,5.333
	C276.067,123.893,283.533,96.16,283.533,96.16z"/>
<path style="fill:#415A6B;" d="M362.467,437.493c-3.2-4.267-3.2-9.6-4.267-14.933c-2.133-8.533-4.267-17.067-7.467-25.6h-121.6
	v45.867h-41.6v69.333h86.4l2.133-25.6l2.133,25.6h86.4v-70.4C364.6,440.693,363.533,439.626,362.467,437.493z"/>
<path style="fill:#4ABAA5;" d="M329.4,380.96c0,0-77.867,16-109.867,5.333c-33.067-10.667-7.467-242.133-7.467-242.133l45.867,3.2
	l34.133-10.667L329.4,380.96z"/>
<path style="fill:#344A5E;" d="M212.067,135.626c0,0-20.267,9.6-32,12.8c-11.733,3.2-32,11.733-32,11.733
	s21.333,53.333,23.467,87.467S185.4,361.76,166.2,469.493c0,0,25.6,57.6,69.333,21.333C265.4,466.293,262.2,339.36,262.2,339.36
	s-1.067-29.867-11.733-64C239.8,241.226,212.067,135.626,212.067,135.626z"/>
<path style="fill:#2B4151;" d="M191.8,428.96c0,0,14.933,9.6,21.333-41.6l-24.533,2.133L191.8,428.96z"/>
<path style="fill:#CED6E0;" d="M199.267,420.426l3.2,6.4c0,0,12.8,8.533,16-39.467L199.267,420.426z"/>
<path style="fill:#344A5E;" d="M291,129.226c0,0,20.267,7.467,32,9.6c11.733,3.2,26.667,7.467,26.667,7.467l6.4,20.267
	c0,0-18.133,105.6-12.8,145.067c5.333,39.467,29.867,142.933,29.867,142.933s3.2,4.267-10.667,14.933
	c-12.8,10.667-19.2,14.933-24.533,7.467c-5.333-6.4-56.533-89.6-55.467-121.6s9.6-212.267,9.6-212.267L291,129.226z"/>
<path style="fill:#66C6B9;" d="M282.467,118.56c0,0-5.333,11.733-23.467,28.8c0,0,17.067,8.533,23.467,26.667
	c0,0,8.533-30.933,7.467-38.4C289.933,129.226,282.467,118.56,282.467,118.56z"/>
<g>
	<path style="fill:#415A6B;" d="M284.6,122.826c0,0,4.267,26.667,4.267,36.267c0,9.6-4.267,196.267-4.267,196.267
		s8.533-70.4,13.867-90.667s19.2-110.933,19.2-110.933l-11.733-2.133l8.533-7.467c0,0-17.067-13.867-22.4-17.067
		C285.667,124.96,287.8,122.826,284.6,122.826z"/>
	<path style="fill:#415A6B;" d="M398.733,296.693c-2.133,5.333-8.533,16-13.867,19.2s-6.4,7.467-8.533,11.733
		S371,332.96,364.6,336.16c-5.333,4.267-12.8,10.667-21.333,20.267c-8.533,9.6-10.667,5.333-10.667,5.333s7.467,2.133,8.533-23.467
		c0-2.133,0-4.267,0-5.333c0-10.667-3.2-19.2-5.333-24.533c0-1.067-1.067-1.067-1.067-2.133c0-1.067-1.067-2.133-2.133-3.2
		s-1.067-2.133-2.133-2.133c2.133,0,9.6-2.133,11.733-3.2c2.133-2.133,5.333-1.067,5.333-4.267c0-3.2,2.133-5.333,2.133-5.333
		l-9.6-19.2c0,0,0,0,5.333-20.267c5.333-20.267,3.2-99.2,3.2-99.2s4.267,2.133,5.333,6.4c2.133,4.267,4.267,14.933,7.467,22.4
		c3.2,7.467,16,43.733,16,48c1.067,4.267,8.533,35.2,11.733,40.533c3.2,5.333,8.533,19.2,8.533,22.4
		C400.867,288.16,399.8,291.36,398.733,296.693z"/>
</g>
<path style="fill:#344A5E;" d="M344.333,348.96c0,0-4.267,13.867-10.667,12.8c-6.4-1.067-12.8-51.2-1.067-61.867l25.6,13.867
	L344.333,348.96z"/>
<path style="fill:#ADB3BA;" d="M337.933,345.76c0,0-2.133,2.133-4.267,0s-4.267-32,4.267-38.4c8.533-6.4,21.333,4.267,21.333,4.267
	L337.933,345.76z"/>
<g>
	<path style="fill:#CED6E0;" d="M301.667,187.893l2.133-4.267l-1.067,2.133l1.067-2.133c0,0-10.667-4.267-8.533-17.067L291,165.493
		C287.8,179.36,296.333,186.826,301.667,187.893z"/>
	<path style="fill:#CED6E0;" d="M281.4,264.693c1.067,0,2.133,0,2.133-1.067c8.533-12.8,4.267-26.667-1.067-40.533
		c-3.2-8.533-6.4-17.067-7.467-26.667c-1.067-17.067,3.2-39.467,12.8-42.667c8.533-3.2,11.733,3.2,12.8,3.2
		c1.067,1.067,1.067,3.2,0,4.267c0,1.067-1.067,2.133-2.133,3.2c-1.067,1.067-2.133,1.067-4.267,0c-1.067,0-2.133-1.067-3.2-2.133
		c-1.067-1.067-2.133-1.067-3.2-1.067c-1.067,1.067-1.067,2.133-1.067,3.2c1.067,2.133,3.2,4.267,5.333,4.267
		c2.133,1.067,5.333,0,7.467-1.067c2.133-1.067,4.267-3.2,4.267-5.333c1.067-2.133,0-5.333-1.067-7.467
		c-2.133-3.2-7.467-9.6-18.133-5.333c-12.8,5.333-16,30.933-14.933,46.933c1.067,9.6,4.267,19.2,7.467,27.733
		c5.333,13.867,9.6,26.667,2.133,37.333C280.333,262.56,280.333,263.626,281.4,264.693L281.4,264.693z"/>
	<circle style="fill:#CED6E0;" cx="291" cy="162.293" r="4.267"/>
	<path style="fill:#CED6E0;" d="M369.933,208.16l1.067-4.267v2.133v-2.133c0,0,11.733,2.133,16-9.6l4.267,1.067
		C387,208.16,375.267,209.226,369.933,208.16z"/>
	<path style="fill:#CED6E0;" d="M345.4,283.893c-1.067,0-1.067-1.067-1.067-2.133c0-14.933,10.667-24.533,23.467-34.133
		c7.467-5.333,14.933-11.733,20.267-19.2c10.667-13.867,18.133-35.2,12.8-42.667c-5.333-7.467-11.733-4.267-12.8-3.2
		c-1.067,1.067-2.133,2.133-2.133,3.2c0,1.067,0,3.2,0,4.267c1.067,1.067,2.133,2.133,3.2,2.133s3.2,0,4.267,0
		c1.067-1.067,2.133,0,3.2,1.067s0,2.133-1.067,3.2c-2.133,1.067-5.333,1.067-7.467,1.067c-2.133-1.067-4.267-2.133-5.333-4.267
		c-1.067-2.133-1.067-5.333-1.067-7.467c1.067-2.133,2.133-4.267,4.267-5.333c3.2-2.133,11.733-4.267,18.133,4.267
		c8.533,10.667-3.2,35.2-12.8,48c-6.4,8.533-13.867,13.867-21.333,20.267c-11.733,9.6-22.4,17.067-21.333,29.867
		C348.6,282.826,347.533,283.893,345.4,283.893L345.4,283.893z"/>
	<circle style="fill:#CED6E0;" cx="392.333" cy="192.16" r="4.267"/>
</g>
<path style="fill:#E8EAE9;" d="M373.133,216.693c-8.533,28.8-25.6,54.4-49.067,73.6c-9.6,7.467-14.933,18.133-13.867,29.867
	c0,7.467,2.133,13.867,4.267,21.333c2.133,5.333,2.133,12.8,1.067,18.133l-49.067-14.933c2.133-6.4,5.333-11.733,10.667-14.933
	c5.333-4.267,10.667-9.6,14.933-14.933c6.4-9.6,8.533-21.333,4.267-33.067c-9.6-28.8-10.667-59.733-2.133-88.533l5.333-19.2
	c13.867,2.133,27.733,4.267,40.533,8.533c12.8,4.267,25.6,8.533,38.4,14.933L373.133,216.693z"/>
<path style="fill:#F3705A;" d="M320.867,368.16l-16,53.333l-65.067-19.2l16-53.333c1.067-3.2,4.267-5.333,7.467-4.267l53.333,16
	C320.867,361.76,321.933,364.96,320.867,368.16z"/>
<polygon style="fill:#F05540;" points="229.133,406.56 240.867,402.293 305.933,421.493 313.4,431.093 "/>
<rect x="263.074" y="359.242" transform="matrix(0.2821 -0.9594 0.9594 0.2821 -163.8793 544.2802)" style="fill:#F3F3F3;" width="37.334" height="44.801"/>
<circle style="fill:#CED6E0;" cx="328.333" cy="223.093" r="22.4"/>
<polygon style="fill:#E8EAE9;" points="332.6,208.16 334.733,218.826 344.333,223.093 334.733,227.36 333.667,238.026 326.2,230.56 
	316.6,232.693 320.867,224.16 315.533,214.56 326.2,215.626 "/>
<g>
	
		<rect x="283.629" y="357.629" transform="matrix(0.2821 -0.9594 0.9594 0.2821 -152.6639 541.1086)" style="fill:#ADB3BA;" width="3.2" height="29.867"/>
	
		<rect x="280.951" y="366.444" transform="matrix(0.2821 -0.9594 0.9594 0.2821 -163.0441 544.8676)" style="fill:#ADB3BA;" width="3.2" height="29.867"/>
	
		<rect x="278.379" y="375.27" transform="matrix(0.2821 -0.9594 0.9594 0.2821 -173.3579 548.7365)" style="fill:#ADB3BA;" width="3.2" height="29.867"/>
</g>
<rect x="226.447" y="419.451" transform="matrix(0.9594 0.2821 -0.2821 0.9594 130.3518 -59.0298)" style="fill:#F3705A;" width="87.468" height="7.467"/>
<path style="fill:#FFD15C;" d="M326.2,294.56c0,0-1.067-3.2-2.133-4.267c-1.067-1.067,0-4.267-3.2-6.4
	c-3.2-2.133-6.4-1.067-8.533,3.2c-2.133,4.267-3.2,7.467-3.2,7.467s2.133,4.267,7.467,3.2c1.067,1.067,1.067,2.133,0,3.2
	c0,0-1.067,0-4.267,1.067c-2.133,1.067-7.467,2.133-8.533,2.133s-7.467,2.133-7.467,5.333c0,3.2,2.133,4.267,2.133,4.267
	s-7.467,0-8.533,2.133c-2.133,2.133,0,6.4,3.2,7.467c0,0-2.133,2.133-1.067,6.4c1.067,4.267,10.667,4.267,10.667,4.267
	s-3.2,6.4,2.133,7.467c5.333,2.133,16,0,17.067,0c1.067,0,6.4,1.067,9.6,0c3.2-1.067,9.6-6.4,9.6-6.4l10.667-5.333l-7.467-22.4
	c0,0-6.4,3.2-7.467,3.2s0-3.2-2.133-5.333c-2.133-2.133-2.133-6.4-4.267-8.533C327.267,295.626,326.2,294.56,326.2,294.56z"/>
<path style="fill:#E8EAE9;" d="M336.867,307.36c0,0,4.267,25.6,1.067,33.067c-3.2,7.467-5.333,5.333-5.333,5.333
	s2.133,3.2,6.4,1.067s20.267-17.067,20.267-17.067S359.267,308.426,336.867,307.36z"/>
<path style="fill:#FFD15C;" d="M351.8,327.626l-9.6,4.267c0-10.667-3.2-19.2-5.333-24.533c1.067,0,7.467-3.2,7.467-3.2
	L351.8,327.626z"/>
<g>
	<path style="fill:#F7B64C;" d="M317.667,299.893c0,0,1.067,0,3.2-1.067s3.2-2.133,4.267-4.267l0,0
		c-1.067,1.067-2.133,2.133-4.267,2.133c1.067-1.067,2.133-3.2,2.133-4.267c-1.067,3.2-3.2,4.267-6.4,5.333l0,0
		C317.667,298.826,317.667,298.826,317.667,299.893z"/>
	<path style="fill:#F7B64C;" d="M298.467,313.76c0,0,0,0,1.067,0c1.067,0,2.133,0,3.2,0c1.067,0,2.133,0,4.267,0
		c1.067,0,1.067,0,2.133,0c1.067,0,1.067,0,2.133-1.067c1.067,0,2.133,0,2.133,0c1.067,0,2.133,0,2.133,0c1.067,0,3.2,0,4.267,0
		c1.067,0,2.133,0,3.2,0s1.067,0,1.067,0s0,0-1.067,0c-1.067,0-2.133,0-3.2,1.067c-1.067,0-2.133,0-4.267,1.067
		c-1.067,0-3.2,0-4.267,1.067c-1.067,0-1.067,0-2.133,1.067c-1.067,0-2.133,0-2.133,0c-1.067,0-3.2,0-4.267,0
		C299.533,313.76,298.467,313.76,298.467,313.76z"/>
	<path style="fill:#F7B64C;" d="M292.067,322.293c0,0,0,0,1.067,0c1.067,0,2.133,0,3.2,0s3.2,0,5.333,0c2.133,0,4.267,0,6.4,0
		c2.133,0,4.267,0,6.4,0s3.2,0,5.333,0c1.067,0,3.2,0,3.2-1.067c1.067,0,1.067,0,1.067,0s0,0-1.067,0h-1.067
		c-1.067,0-1.067,0-2.133,1.067c-1.067,0-3.2,1.067-5.333,1.067c-2.133,0-4.267,0-6.4,0s-4.267,0-6.4,0c-2.133,0-3.2,0-5.333,0
		c-1.067,0-3.2,0-3.2,0C293.133,322.293,292.067,322.293,292.067,322.293z"/>
	<path style="fill:#F7B64C;" d="M301.667,331.893C301.667,331.893,302.733,331.893,301.667,331.893c1.067,0,2.133,0,3.2,0
		s2.133,0,3.2,0c1.067,0,2.133,0,4.267,0c1.067,0,1.067,0,2.133,0c1.067,0,1.067,0,2.133,0c1.067,0,2.133,0,3.2-1.067
		c1.067,0,2.133,0,2.133,0c1.067,0,1.067,0,1.067,0s0,0-1.067,0c-1.067,0-1.067,1.067-2.133,1.067s-2.133,1.067-3.2,1.067
		c-1.067,0-1.067,0-2.133,0c-1.067,0-1.067,0-2.133,0c-3.2,0-5.333,0-7.467-1.067C304.867,332.96,303.8,332.96,301.667,331.893
		C302.733,331.893,301.667,331.893,301.667,331.893z"/>
</g>
<path style="fill:#415A6B;" d="M399.8,283.893h-50.133l1.067,2.133c0,0-2.133,2.133-2.133,5.333c0,3.2-2.133,3.2-5.333,4.267
	c-2.133,1.067-9.6,3.2-11.733,3.2c0,1.067,1.067,2.133,2.133,2.133c1.067,1.067,1.067,2.133,2.133,3.2
	c0,1.067,1.067,1.067,1.067,2.133c2.133,5.333,5.333,13.867,5.333,24.533c0,2.133,0,4.267,0,5.333
	c-1.067,25.6-8.533,23.467-8.533,23.467s2.133,4.267,10.667-5.333s16-17.067,21.333-20.267c5.333-4.267,9.6-5.333,11.733-8.533
	c2.133-4.267,3.2-8.533,8.533-11.733c5.333-3.2,11.733-13.867,13.867-19.2c2.133-5.333,3.2-8.533,2.133-10.667
	C400.867,286.026,400.867,284.96,399.8,283.893z"/>
<path style="fill:#66C6B9;" d="M224.867,118.56c0,0,2.133,5.333,10.667,12.8c8.533,7.467,23.467,17.067,23.467,17.067
	s-4.267,3.2-8.533,12.8c-3.2,8.533-10.667,16-10.667,16s-11.733-19.2-17.067-26.667c-5.333-7.467-7.467-10.667-7.467-10.667
	S221.667,121.76,224.867,118.56z"/>
<path style="fill:#415A6B;" d="M224.867,118.56c0,0-5.333,14.933,4.267,55.467c9.6,40.533,30.933,119.467,32,139.733
	c1.067,20.267,1.067,25.6,1.067,25.6s-2.133-21.333-11.733-50.133c-9.6-28.8-51.2-117.333-51.2-117.333l14.933-10.667l-11.733-5.333
	c0,0,0-12.8,4.267-18.133c4.267-5.333,7.467-8.533,9.6-12.8S224.867,118.56,224.867,118.56z"/>
<path style="fill:#FFD15C;" d="M245.133,387.36c0,0,1.067,8.533-5.333,10.667c-6.4,2.133-6.4,1.067-9.6,2.133
	c-2.133,1.067-3.2,12.8-3.2,12.8l53.333,16c0,0,2.133,5.333-2.133,7.467l-6.4-1.067c0,0-8.533-2.133-12.8-1.067
	c-4.267,1.067-12.8-1.067-17.067-2.133c-4.267-1.067-8.533,1.067-13.867,0s-20.267-16-23.467-18.133
	c-4.267-2.133-17.067-8.533-17.067-8.533l17.067-20.267l9.6,1.067c0,0,7.467,0,11.733,0s6.4,2.133,8.533,1.067
	C235.533,387.36,245.133,387.36,245.133,387.36z"/>
<path style="fill:#F3F3F3;" d="M213.133,387.36h5.333c0,0-16,26.667-16,39.467l-27.733-25.6L213.133,387.36z"/>
<g>
	<path style="fill:#415A6B;" d="M213.133,387.36c-3.2,1.067-11.733,9.6-16,20.267c-5.333,9.6-5.333,21.333-5.333,21.333
		s-7.467-6.4-17.067-14.933c-9.6-8.533-21.333-20.267-29.867-29.867c-17.067-20.267-35.2-51.2-38.4-57.6
		c-3.2-6.4,0-17.067,3.2-23.467s5.333-30.933,12.8-52.267c7.467-21.333,17.067-55.467,17.067-59.733s1.067-4.267,2.133-9.6
		c2.133-5.333,1.067-4.267,2.133-12.8c3.2-9.6,5.333-8.533,5.333-8.533s21.333,53.333,23.467,87.467c0,3.2,0,5.333,1.067,9.6
		c0,4.267-1.067,10.667-1.067,13.867c-1.067,6.4-6.4,28.8-7.467,36.267s-8.533,13.867-8.533,13.867s11.733,13.867,13.867,20.267
		c2.133,4.267,5.333,7.467,8.533,10.667c1.067,1.067,2.133,2.133,4.267,3.2c5.333,3.2,4.267,6.4,8.533,13.867s4.267,1.067,8.533,6.4
		C204.6,379.893,213.133,387.36,213.133,387.36z"/>
	<path style="fill:#415A6B;" d="M214.2,72.693h2.133c0-2.133-2.133-17.067-1.067-20.267c1.067-3.2,4.267-12.8,3.2-22.4
		c0-9.6,17.067-11.733,17.067-11.733L271.8,19.36c13.867,3.2,10.667,13.867,11.733,19.2c1.067,5.333,3.2,11.733,4.267,19.2
		c1.067,5.333,0,10.667,0,13.867l0,0c1.067-6.4,3.2-18.133,3.2-22.4c0-6.4-3.2-52.267-43.733-49.067S211,42.826,211,53.493
		C211,63.093,213.133,70.56,214.2,72.693z"/>
</g>
<g>
</g>
<g>
</g>
<g>
</g>
<g>
</g>
<g>
</g>
<g>
</g>
<g>
</g>
<g>
</g>
<g>
</g>
<g>
</g>
<g>
</g>
<g>
</g>
<g>
</g>
<g>
</g>
<g>
</g>
</svg>
