<?xml version="1.0" encoding="iso-8859-1"?>
<!-- Generator: Adobe Illustrator 19.0.0, SVG Export Plug-In . SVG Version: 6.00 Build 0)  -->
<svg version="1.1" id="Capa_1" xmlns="http://www.w3.org/2000/svg" xmlns:xlink="http://www.w3.org/1999/xlink" x="0px" y="0px"
	 viewBox="0 0 512 512" style="enable-background:new 0 0 512 512;" xml:space="preserve">
<rect x="183.467" y="364.8" style="fill:#F3705A;" width="144" height="147.2"/>
<rect x="183.467" y="364.8" style="fill:#F05540;" width="144" height="32"/>
<path style="fill:#415A6B;" d="M272,368l1.067,4.267c0,0-7.467,2.133-8.533,1.067c-1.067,0-2.133-2.133-2.133-2.133
	s-2.133,0-5.333,3.2c-4.267,3.2-6.4,4.267-14.933,4.267s-9.6-2.133-9.6-3.2l25.6-5.333L272,368z"/>
<g>
	<path style="fill:#344A5E;" d="M268.8,355.2c0,0,4.267,9.6,2.133,12.8c0,0-6.4,1.067-10.667,2.133
		c-4.267,1.067-4.267,3.2-7.467,5.333c-3.2,1.067-5.333,3.2-10.667,2.133s-10.667-1.067-10.667-1.067s0-3.2,4.267-4.267
		c0,0,2.133-1.067,5.333-4.267c3.2-3.2,6.4-7.467,9.6-9.6s3.2-3.2,3.2-3.2H268.8z"/>
	<path style="fill:#344A5E;" d="M290.133,390.4c0,0,1.067-3.2,1.067-5.333c0-2.133-1.067-5.333-1.067-8.533
		c0-3.2-2.133-10.667-3.2-12.8c-1.067-1.067-1.067-1.067-1.067-1.067H272c0,0-1.067,10.667-1.067,13.867c0,3.2,0,6.4-1.067,9.6
		c0,3.2,0,5.333,0,5.333s1.067,2.133,2.133,3.2C273.067,395.733,288,396.8,290.133,390.4z"/>
</g>
<path style="fill:#415A6B;" d="M268.8,357.333c-2.133,3.2-7.467,2.133-7.467,2.133s-4.267-1.067-8.533-1.067
	c-3.2,0-4.267,1.067-4.267,1.067s-1.067-6.4-2.133-9.6c0-3.2-2.133-5.333-5.333-11.733c-1.067-2.133-4.267-7.467-6.4-12.8h23.467
	c2.133,6.4,4.267,10.667,4.267,11.733c2.133,2.133,4.267,4.267,4.267,4.267l3.2,2.133
	C269.867,343.467,270.933,353.067,268.8,357.333z"/>
<path style="fill:#344A5E;" d="M269.867,343.467l-3.2-2.133l0,0l0,0c0,5.333,1.067,11.733,2.133,17.067
	c1.067,0,1.067-1.067,1.067-1.067C270.933,353.067,269.867,343.467,269.867,343.467z"/>
<g>
	<path style="fill:#415A6B;" d="M274.133,216.533v9.6c0,0,2.133,16,2.133,21.333c0,5.333,0,11.733,0,13.867
		c0,2.133,2.133,2.133,2.133,4.267c0,2.133,0,4.267,0,6.4c1.067,2.133,4.267,6.4,4.267,12.8c1.067,6.4,3.2,49.067,3.2,49.067
		S288,348.8,286.933,355.2c0,6.4-2.133,10.667-2.133,10.667s-4.267-1.067-9.6,0c-5.333,1.067-7.467,0-7.467,0s0-13.867,0-24.533
		S260.267,304,260.267,300.8s1.067-3.2,0-6.4c-1.067-3.2-3.2-10.667-4.267-13.867c-1.067-4.267-3.2-8.533-4.267-13.867
		c-1.067-6.4-3.2-6.4-3.2-9.6c0-3.2-1.067-2.133-2.133-4.267s0-1.067-1.067-4.267c-1.067-3.2-5.333-13.867-5.333-13.867
		s-1.067,23.467-1.067,25.6c0,2.133,1.067,5.333,1.067,7.467c0,2.133-1.067,2.133,0,4.267c1.067,2.133,2.133,11.733,2.133,11.733
		s2.133,1.067,2.133,3.2s2.133,5.333,3.2,7.467c1.067,3.2,12.8,40.533,14.933,42.667c2.133,2.133,4.267,4.267,4.267,4.267
		l-5.333,18.133c0,0-4.267-1.067-8.533-1.067c-3.2,0-4.267,1.067-4.267,1.067s-1.067-6.4-2.133-9.6c0-3.2-2.133-5.333-5.333-11.733
		c-3.2-6.4-16-25.6-19.2-38.4c0,0-5.333-4.267-5.333-9.6c-1.067-5.333-7.467-25.6-9.6-38.4c-3.2-13.867-7.467-44.8-6.4-50.133
		c1.067-5.333,12.8-27.733,12.8-27.733L272,192L274.133,216.533z"/>
	<path style="fill:#415A6B;" d="M286.933,333.867c0,0-2.133-42.667-3.2-49.067c-1.067-6.4-4.267-10.667-4.267-12.8
		c-1.067-2.133,0-3.2,0-6.4s-2.133-3.2-2.133-4.267c0-1.067,0-8.533,0-13.867c0-5.333-2.133-21.333-2.133-21.333v-9.6L273.067,192
		l-59.733-19.2c0,0-11.733,22.4-12.8,27.733c-1.067,5.333,3.2,36.267,6.4,50.133c2.133,11.733,7.467,26.667,8.533,35.2
		c3.2-2.133,6.4-4.267,8.533-6.4c3.2-2.133,5.333-4.267,8.533-7.467c1.067-1.067,3.2-2.133,4.267-4.267
		c1.067-1.067,2.133-1.067,2.133-2.133c0-2.133-1.067-5.333-1.067-7.467c0-2.133,1.067-25.6,1.067-25.6s4.267,11.733,5.333,13.867
		s0,2.133,1.067,4.267c1.067,2.133,1.067,1.067,2.133,4.267c0,3.2,2.133,3.2,3.2,9.6c1.067,6.4,3.2,10.667,4.267,13.867
		c1.067,4.267,3.2,10.667,4.267,13.867c1.067,3.2,0,3.2,0,6.4s7.467,32,8.533,42.667c0,10.667,3.2,24.533,3.2,24.533
		s2.133,1.067,7.467,0c5.333-1.067,9.6,0,9.6,0s1.067-4.267,2.133-10.667C289.067,348.8,286.933,333.867,286.933,333.867z"/>
</g>
<path style="fill:#FFD15C;" d="M277.333,99.2v-2.133c0,0,0-5.333,0-8.533c0-2.133,1.067-14.933,0-20.267s-7.467-11.733-11.733-12.8
	c-4.267-1.067-14.933,3.2-16,4.267c-1.067,1.067-3.2,8.533-3.2,12.8c0,4.267,4.267,21.333,4.267,21.333V99.2l8.533,18.133
	l21.333,2.133l-1.067-14.933L277.333,99.2z"/>
<path style="fill:#F7B64C;" d="M257.067,113.067c4.267-1.067,10.667-3.2,12.8-6.4c4.267-4.267,6.4-12.8,6.4-13.867l0,0
	c-1.067,1.067-5.333,7.467-6.4,9.6c-2.133,3.2-7.467,3.2-10.667,2.133c-3.2-1.067-7.467-6.4-8.533-7.467l0,0l0,0v3.2
	L257.067,113.067z"/>
<path style="fill:#344A5E;" d="M282.667,202.667c0,0-2.133,2.133-5.333,2.133s-5.333-6.4-4.267-10.667s2.133-8.533,4.267-9.6
	c0,0,5.333,0,8.533,2.133C289.067,188.8,282.667,202.667,282.667,202.667z"/>
<path style="fill:#ADB3BA;" d="M281.6,199.467c0,0-3.2,2.133-4.267,2.133s-2.133,0-2.133,0s-4.267-4.267,1.067-14.933
	c0,0,3.2-1.067,6.4,1.067C284.8,189.867,281.6,199.467,281.6,199.467z"/>
<path style="fill:#CED6E0;" d="M194.133,28.8c0-3.2,14.933-4.267,14.933-1.067l-6.4,4.267C198.4,32,194.133,32,194.133,28.8z"/>
<path style="fill:#344A5E;" d="M196.267,40.533L192,35.2c0,0-1.067-7.467,17.067-3.2c0,0-2.133,6.4-4.267,8.533
	C202.667,42.667,196.267,40.533,196.267,40.533z"/>
<path style="fill:#CED6E0;" d="M254.933,102.4c0,0,3.2,2.133,4.267,3.2c1.067,2.133,1.067,3.2,2.133,5.333s2.133,4.267,2.133,4.267
	s2.133-2.133,5.333-2.133s5.333-1.067,5.333-1.067s3.2-1.067,5.333-3.2c2.133-2.133,2.133-2.133,2.133-2.133l2.133,4.267l-11.733,80
	c0,0-8.533,3.2-21.333,1.067c-12.8-2.133-9.6,0-22.4-3.2c-11.733-3.2-25.6,4.267-25.6,4.267L254.933,102.4z"/>
<path style="fill:#344A5E;" d="M284.8,107.733c0,0,5.333,3.2,8.533,7.467s11.733,8.533,11.733,8.533s-6.4,18.133-10.667,25.6
	c-4.267,7.467-16,20.267-18.133,25.6c-3.2,4.267-1.067,51.2-1.067,51.2s0-6.4-1.067-11.733s-5.333-23.467-5.333-23.467
	s0-14.933,2.133-27.733C273.067,150.4,284.8,107.733,284.8,107.733z"/>
<path style="fill:#415A6B;" d="M280.533,101.333c0,0,2.133,3.2,3.2,5.333s3.2,2.133,4.267,4.267
	c1.067,2.133,1.067,4.267,1.067,4.267l-4.267,2.133l3.2,5.333c0,0-4.267,12.8-7.467,18.133c-2.133,5.333-9.6,16-10.667,20.267
	c-1.067,3.2-3.2,22.4-3.2,30.933c0,0-2.133-18.133,0-32c2.133-13.867,8.533-32,9.6-36.267
	C279.467,118.4,281.6,105.6,280.533,101.333z"/>
<path style="fill:#344A5E;" d="M232.533,87.467l1.067-2.133c0,0,6.4-3.2,8.533-2.133c2.133,1.067,3.2,3.2,4.267,5.333
	c2.133,2.133,4.267,5.333,4.267,5.333v17.067c0,0-8.533,24.533-9.6,29.867c-1.067,5.333-1.067,11.733-5.333,21.333
	S218.667,192,214.4,198.4c-4.267,5.333-11.733,8.533-14.933,6.4c-3.2-1.067-13.867-10.667-13.867-10.667s11.733-25.6,19.2-39.467
	c7.467-13.867,14.933-32,14.933-32s-1.067-4.267-1.067-5.333c0-2.133-1.067-4.267-1.067-4.267L232.533,87.467z"/>
<path style="fill:#FFD15C;" d="M218.667,8.533c-1.067-1.067-3.2-1.067-3.2-1.067L213.333,6.4c0,0,1.067-1.067,1.067-2.133
	s-1.067-2.133-2.133-3.2c-1.067-1.067-2.133,0-2.133,0C209.067,0,206.933,0,206.933,0s-1.067,0-2.133,0
	c-1.067,1.067,0,2.133-2.133,1.067c-2.133,0-3.2,2.133-3.2,2.133c-1.067-1.067-3.2,1.067-3.2,1.067s-2.133,7.467-2.133,9.6
	s1.067,4.267,1.067,6.4c0,2.133,0,13.867,0,13.867H208c0,0,0-12.8,1.067-13.867c1.067-1.067,6.4-3.2,7.467-4.267
	c1.067-1.067,3.2-3.2,3.2-5.333C219.733,9.6,219.733,9.6,218.667,8.533z M212.267,9.6C213.333,9.6,213.333,9.6,212.267,9.6
	C213.333,9.6,213.333,9.6,212.267,9.6C213.333,10.667,213.333,10.667,212.267,9.6z"/>
<path style="fill:#E8EAE9;" d="M214.4,6.4c0,0,0,1.067,0,2.133s1.067,1.067,2.133,1.067c0,0,1.067,0,0-1.067V7.467
	c0,0,0-1.067-1.067-1.067L214.4,6.4z"/>
<g>
	<path style="fill:#F7B64C;" d="M200.533,8.533c0,1.067,0,1.067,0,2.133l0,0l0,0c0,0,0,0,1.067,1.067c0,0,0,0,1.067,0l0,0l0,0
		c1.067,0,1.067,0,2.133,0l0,0l0,0h1.067h1.067l0,0l0,0l0,0c0,0,0,0,1.067-1.067l0,0l0,0l0,0l0,0l0,0l0,0c0,0,0,1.067,1.067,1.067
		l0,0l0,0l0,0l0,0l0,0c0,0,1.067,0,1.067-1.067V9.6V8.533V7.467l0,0c0,0,0,0,1.067,0c0,0-1.067,0-1.067,1.067V9.6v1.067v1.067
		c0,0,0,1.067-1.067,1.067l0,0l0,0l0,0c0,0,0,0-1.067,0c0,0,0,0-1.067,0l0,0c0,0,0,0,0-1.067l0,0c0,0,0,0-1.067,0H204.8l0,0
		c0,0,0,1.067-1.067,1.067l0,0l0,0l0,0l0,0l0,0l0,0l0,0c0,0,0,0-1.067,0c0,0,0,0-1.067,0l0,0l0,0c-1.067,0-1.067,1.067-2.133,1.067
		l0,0l0,0H198.4c0,0,0,0-1.067-1.067l0,0l0,0C199.467,9.6,199.467,9.6,200.533,8.533z"/>
	<path style="fill:#F7B64C;" d="M203.733,11.733L203.733,11.733c0-1.067,0-1.067,0-2.133c0,0,0,0,0-1.067V7.467
		c0-1.067,0-1.067,0-2.133V4.267l0,0l0,0L202.667,3.2C201.6,2.133,201.6,2.133,201.6,2.133l0,0c0,0,1.067,0,1.067,1.067l1.067,1.067
		l0,0l0,0v1.067c0,1.067,0,1.067,0,2.133v1.067V9.6C204.8,10.667,203.733,11.733,203.733,11.733L203.733,11.733z"/>
	<path style="fill:#F7B64C;" d="M203.733,1.067L203.733,1.067c1.067,0,1.067,1.067,1.067,1.067s0,0,1.067,1.067c0,0,0,0,1.067,1.067
		c0,0,0,0,1.067,1.067l0,0l0,0c0,0,0,0,0,1.067v1.067v1.067c0,1.067,0,1.067,0,2.133v1.067l0,0c0,0,0-1.067,0-2.133
		c0,0,0-1.067,0-2.133V6.4V5.333l0,0l0,0l0,0c0,0,0-1.067-1.067-1.067L205.867,3.2C204.8,2.133,204.8,2.133,203.733,1.067
		C203.733,2.133,203.733,1.067,203.733,1.067z"/>
	<path style="fill:#F7B64C;" d="M209.067,10.667L209.067,10.667c1.067,0,1.067-1.067,1.067-1.067l0,0l0,0c0,0,0,0,0-1.067
		s0-1.067,0-2.133s0-1.067,0-2.133V3.2V2.133c0,0,0,0,0-1.067l0,0l0,0l0,0l0,0l0,0l0,0l0,0l0,0c0,0,0,1.067,0,2.133v1.067v1.067
		c0,1.067,0,1.067,0,2.133v1.067l0,0l0,0C210.133,10.667,209.067,10.667,209.067,10.667L209.067,10.667z"/>
	<path style="fill:#F7B64C;" d="M199.467,10.667L199.467,10.667L199.467,10.667c-1.067,0-1.067,0-1.067,0s-1.067,0-1.067-1.067l0,0
		l0,0c0,0,0,0,1.067,0L199.467,10.667L199.467,10.667L199.467,10.667L199.467,10.667z"/>
	<path style="fill:#F7B64C;" d="M199.467,9.6L199.467,9.6L199.467,9.6c-1.067,0-1.067-1.067-1.067-1.067s0-1.067-1.067-1.067l0,0
		l0,0c0,0,0,1.067,1.067,1.067C198.4,8.533,199.467,8.533,199.467,9.6L199.467,9.6L199.467,9.6L199.467,9.6z"/>
</g>
<path style="fill:#F3F3F3;" d="M194.133,28.8c1.067,1.067,11.733,2.133,14.933-1.067v12.8h-14.933V28.8z"/>
<path style="fill:#415A6B;" d="M210.133,32c0,0-2.133,4.267-5.333,5.333c-4.267,2.133-9.6,0-11.733-2.133
	c0,0,1.067,14.933,1.067,19.2c0,3.2,1.067,12.8,1.067,16c0,3.2,0,3.2,1.067,4.267c1.067,1.067,7.467,16,9.6,19.2
	c2.133,3.2,8.533,10.667,9.6,12.8c1.067,2.133,3.2,6.4,3.2,6.4s10.667-6.4,13.867-13.867c3.2-7.467,1.067-13.867,1.067-13.867
	s-2.133,0-4.267-1.067c-2.133-1.067-4.267-5.333-5.333-8.533c-1.067-3.2-5.333-5.333-6.4-7.467
	c-1.067-2.133-4.267-11.733-4.267-11.733s-1.067-6.4-2.133-8.533C211.2,45.867,210.133,32,210.133,32z"/>
<path style="fill:#344A5E;" d="M250.667,93.867L246.4,96l2.133,1.067c0,0-1.067,4.267-3.2,14.933c-3.2,10.667-5.333,35.2-6.4,40.533
	c-1.067,5.333-3.2,8.533-3.2,8.533s3.2-4.267,7.467-21.333c4.267-17.067,10.667-29.867,10.667-29.867L250.667,93.867z"/>
<g>
	<path style="fill:#F3F3F3;" d="M250.667,96c0,0,4.267,5.333,6.4,7.467c2.133,2.133,2.133,2.133,2.133,2.133s-3.2-3.2-5.333-1.067
		c-1.067,2.133-2.133,6.4-2.133,6.4S249.6,100.267,250.667,96z"/>
	<path style="fill:#F3F3F3;" d="M272,113.067c0,0,4.267-2.133,5.333-1.067c1.067,1.067,2.133,2.133,0,5.333c0,0,0,1.067,1.067,0
		c1.067-1.067,3.2-4.267,4.267-7.467c1.067-2.133,0-9.6-5.333-12.8c0,0-1.067,3.2,0,5.333s2.133,3.2,2.133,3.2
		S277.333,110.933,272,113.067z"/>
</g>
<path style="fill:#FFD15C;" d="M278.4,185.6c0,0-2.133,1.067-3.2,0c-1.067,0-7.467-5.333-7.467-5.333h-6.4c0,0-1.067,0-2.133,1.067
	L256,182.4c0,0-1.067,2.133,4.267,3.2c0,0-2.133,1.067-1.067,4.267c0,0-1.067,0-1.067,2.133c0,2.133,1.067,2.133,1.067,2.133
	s-1.067,1.067,1.067,3.2c0,0-1.067,1.067,0,3.2c1.067,1.067,2.133,2.133,3.2,2.133c0,0,5.333,0,6.4,0s3.2-1.067,5.333-2.133
	c2.133-1.067,6.4-2.133,8.533-2.133c0,0,2.133-3.2,1.067-6.4C283.733,188.8,278.4,185.6,278.4,185.6z"/>
<path style="fill:#E8EAE9;" d="M275.2,185.6c0,0,3.2,0,4.267,2.133c1.067,2.133,2.133,5.333,2.133,9.6s-3.2,4.267-5.333,4.267
	c-2.133,0-1.067,0-1.067,0s0,1.067,2.133,1.067s5.333-1.067,6.4-3.2c1.067-1.067,1.067-1.067,1.067-1.067s2.133-7.467,1.067-9.6
	c-1.067-2.133-6.4-2.133-6.4-2.133H278.4L275.2,185.6z"/>
<path style="fill:#415A6B;" d="M306.133,138.667c0,4.267,0,7.467,0,10.667c-1.067,2.133-1.067,3.2-1.067,7.467s0,17.067-1.067,19.2
	c0,2.133,0,2.133,0,3.2c0,2.133,0,2.133-1.067,4.267c-1.067,2.133-1.067,4.267-2.133,5.333c-1.067,2.133-8.533,6.4-9.6,7.467
	c-1.067,1.067-11.733,8.533-11.733,8.533s4.267-6.4,4.267-10.667s0-9.6-7.467-9.6c0,0,4.267-2.133,5.333-3.2
	c1.067-1.067,1.067-1.067,1.067-1.067s0-2.133,0-3.2c0-1.067,0,0-1.067-2.133c0-2.133,0-8.533,1.067-12.8
	c4.267-5.333,7.467-10.667,9.6-13.867c4.267-7.467,10.667-25.6,10.667-25.6s2.133-1.067,2.133,5.333
	C306.133,135.467,306.133,134.4,306.133,138.667z"/>
<g>
	
		<ellipse transform="matrix(0.1422 -0.9898 0.9898 0.1422 159.8061 342.1595)" style="fill:#FFD15C;" cx="277.318" cy="78.877" rx="6.4" ry="2.133"/>
	
		<ellipse transform="matrix(0.1422 0.9898 -0.9898 0.1422 296.392 -174.5062)" style="fill:#FFD15C;" cx="248.88" cy="83.755" rx="6.4" ry="2.133"/>
</g>
<g>
	<path style="fill:#415A6B;" d="M247.467,81.067L247.467,81.067c1.067,0-1.067-7.467,0-9.6c0-3.2,1.067-6.4,2.133-8.533
		c1.067-2.133,2.133-3.2,4.267-3.2c1.067,1.067,7.467,1.067,10.667-1.067s7.467,2.133,8.533,3.2c1.067,1.067,3.2,6.4,3.2,8.533
		c0,2.133,1.067,6.4,2.133,7.467c0,1.067,0,1.067,0,1.067h1.067c0,0,1.067-9.6,0-14.933C278.4,58.667,272,53.333,264.533,51.2
		c-7.467-1.067-12.8,4.267-14.933,9.6C247.467,66.133,245.333,76.8,247.467,81.067z"/>
	<path style="fill:#415A6B;" d="M270.933,392.533c0,0,0,2.133,1.067,2.133c1.067,0,6.4,0,8.533,0c2.133,0,4.267,0,6.4-1.067
		c3.2-2.133,3.2-7.467,3.2-7.467s1.067,4.267-1.067,6.4c-2.133,3.2-4.267,3.2-8.533,4.267c-4.267,0-7.467,0-8.533,0
		C270.933,395.733,269.867,394.667,270.933,392.533z"/>
</g>
<rect x="0" y="392.533" style="fill:#66C6B9;" width="144" height="119.467"/>
<rect x="0" y="392.533" style="fill:#4ABAA5;" width="144" height="32"/>
<rect x="368" y="432" style="fill:#8AD7F8;" width="144" height="80"/>
<rect x="368" y="432" style="fill:#55C0EB;" width="144" height="32"/>
<path style="fill:#344A5E;" d="M460.8,428.8c0,0-1.067,2.133,0,6.4s3.2,6.4,3.2,10.667s3.2,8.533,7.467,10.667
	c4.267,1.067,10.667,2.133,10.667-2.133c1.067-4.267-1.067-6.4-2.133-9.6c-1.067-3.2-3.2-8.533-4.267-11.733
	C474.667,429.867,468.267,424.533,460.8,428.8z"/>
<path style="fill:#FFD15C;" d="M473.6,432c0,0,3.2,5.333,4.267,9.6c1.067,4.267,1.067,5.333,0,5.333s-2.133-2.133-6.4-1.067
	c-4.267,1.067-5.333,1.067-5.333-1.067c-1.067-1.067-1.067-3.2-2.133-7.467c-1.067-4.267-1.067-7.467-1.067-7.467
	S472.533,430.933,473.6,432z"/>
<path style="fill:#344A5E;" d="M423.467,428.8c0,0,1.067,2.133,0,6.4s-3.2,6.4-3.2,10.667s-3.2,8.533-7.467,10.667
	c-4.267,1.067-10.667,2.133-10.667-2.133c-1.067-4.267,1.067-6.4,2.133-9.6c1.067-3.2,3.2-8.533,4.267-11.733
	C409.6,429.867,416,424.533,423.467,428.8z"/>
<path style="fill:#FFD15C;" d="M410.667,432c0,0-3.2,5.333-4.267,9.6c-1.067,4.267-1.067,5.333,0,5.333s2.133-2.133,6.4-1.067
	c4.267,1.067,5.333,1.067,5.333-1.067c1.067-1.067,1.067-3.2,2.133-7.467c1.067-4.267,1.067-7.467,1.067-7.467
	S411.733,430.933,410.667,432z"/>
<path style="fill:#415A6B;" d="M460.8,435.2c0,0,2.133,2.133,6.4,1.067c4.267-1.067,8.533,0,10.667-1.067
	c1.067-1.067,4.267-8.533,3.2-12.8c-1.067-3.2-3.2-7.467-2.133-13.867c1.067-5.333-3.2-49.067-3.2-61.867
	c0-11.733,3.2-26.667,1.067-36.267c-2.133-9.6-2.133-9.6-2.133-9.6h-53.333l-8.533,4.267c0,0,0,13.867,3.2,23.467
	c2.133,9.6-2.133,45.867-3.2,55.467c0,9.6,1.067,38.4,0,41.6c-1.067,3.2-1.067,7.467-1.067,7.467s2.133,2.133,5.333,1.067
	c3.2-1.067,8.533-1.067,8.533-1.067s0-8.533,3.2-14.933c3.2-6.4,3.2-33.067,4.267-37.333c1.067-4.267,3.2-19.2,4.267-24.533
	c1.067-5.333,6.4-36.267,6.4-36.267l2.133-3.2c0,0,1.067,2.133,2.133,6.4c1.067,4.267,5.333,19.2,5.333,25.6
	c1.067,6.4,5.333,23.467,5.333,26.667c0,4.267,1.067,26.667,1.067,33.067C459.733,414.933,460.8,435.2,460.8,435.2z"/>
<path style="fill:#344A5E;" d="M440.533,243.2l2.133,9.6v52.267c0,5.333-4.267,10.667-10.667,10.667h-20.267
	c-2.133,0-4.267-2.133-4.267-4.267c0-6.4,0-18.133,2.133-26.667c2.133-12.8,6.4-56.533,6.4-56.533s-1.067-28.8-8.533-34.133
	c0,0,10.667-2.133,17.067-5.333s7.467-2.133,7.467-2.133L440.533,243.2z"/>
<path style="fill:#FFD15C;" d="M436.267,261.333c0,0-13.867,1.067-17.067-7.467l14.933-1.067L436.267,261.333z"/>
<path style="fill:#F3705A;" d="M457.6,151.467c2.133,0,4.267,1.067,5.333,3.2s1.067,4.267,1.067,6.4c0,2.133-1.067,4.267-1.067,6.4
	c-1.067,6.4,0,12.8,2.133,18.133c2.133,5.333,6.4,10.667,11.733,13.867c-4.267,0-8.533,0-12.8-1.067
	c-4.267-1.067-8.533-4.267-10.667-7.467c-2.133-3.2-3.2-6.4-3.2-9.6c-1.067-4.267-1.067-8.533,0-12.8
	c1.067-4.267,3.2-8.533,5.333-11.733"/>
<rect x="433.067" y="172.8" style="fill:#F7B64C;" width="19.2" height="27.733"/>
<path style="fill:#E8EAE9;" d="M430.933,193.067c8.533,6.4,17.067,6.4,27.733,2.133L448,246.4l-8.533-1.067L430.933,193.067z"/>
<g>
	<ellipse style="fill:#FFD15C;" cx="442.667" cy="163.2" rx="14.933" ry="19.2"/>
	<path style="fill:#FFD15C;" d="M459.733,165.333c-1.067,3.2-2.133,4.267-3.2,4.267s-2.133-3.2-1.067-5.333
		c1.067-2.133,2.133-4.267,3.2-4.267S460.8,163.2,459.733,165.333z"/>
	<path style="fill:#FFD15C;" d="M425.6,165.333c1.067,3.2,2.133,4.267,3.2,4.267s2.133-3.2,1.067-5.333
		c0-2.133-2.133-4.267-3.2-4.267S425.6,163.2,425.6,165.333z"/>
</g>
<path style="fill:#F3705A;" d="M448,137.6c-5.333-2.133-17.067,0-20.267,9.6c-4.267,8.533,0,18.133,0,18.133h1.067
	c0-1.067-1.067-5.333,0-6.4c1.067-1.067,2.133-4.267,4.267-6.4c1.067-3.2,6.4-5.333,9.6-4.267c3.2,1.067,7.467,3.2,10.667,6.4
	c2.133,3.2,4.267,7.467,4.267,11.733h1.067c0,0,2.133-6.4,2.133-12.8S453.333,138.667,448,137.6z"/>
<path style="fill:#344A5E;" d="M455.467,187.733L476.8,195.2c0,0-5.333,9.6-6.4,25.6c-1.067,13.867,5.333,73.6,7.467,90.667
	c0,2.133-2.133,4.267-4.267,4.267h-20.267c-5.333,0-10.667-4.267-10.667-9.6V252.8L455.467,187.733z"/>
<g>
	<path style="fill:#415A6B;" d="M486.4,237.867c-1.067,4.267-3.2,12.8-6.4,16c-1.067,1.067-4.267,2.133-8.533,4.267
		c-8.533,3.2-21.333,7.467-29.867,9.6c-4.267,1.067-6.4,2.133-6.4,2.133S429.867,256,429.867,252.8c0-1.067,6.4-3.2,12.8-5.333
		c7.467-2.133,14.933-3.2,17.067-4.267c4.267-1.067,6.4-1.067,7.467-3.2c0-1.067,2.133-19.2,2.133-19.2c1.067-16,6.4-25.6,6.4-25.6
		s4.267,3.2,4.267,8.533c0,6.4,0,14.933,1.067,19.2C484.267,226.133,487.467,233.6,486.4,237.867z"/>
	<path style="fill:#415A6B;" d="M452.267,184.533c0,0,0,8.533-3.2,21.333c-3.2,12.8-7.467,43.733-7.467,43.733l1.067,4.267
		c0,0,3.2-7.467,6.4-18.133c4.267-11.733,9.6-36.267,10.667-41.6C460.8,188.8,452.267,184.533,452.267,184.533z"/>
	<path style="fill:#415A6B;" d="M433.067,184.533c0,0,0,8.533,3.2,21.333c3.2,12.8,7.467,43.733,7.467,43.733l-1.067,4.267
		c0,0-3.2-7.467-6.4-18.133c-4.267-11.733-9.6-36.267-10.667-41.6C425.6,188.8,433.067,184.533,433.067,184.533z"/>
</g>
<path style="fill:#FFD15C;" d="M483.2,244.267c-1.067-1.067-3.2-3.2-4.267-3.2S474.667,240,474.667,240l0,0c0,0,4.267,0,5.333,0
	c0,0,2.133,2.133,3.2,2.133c0,0,1.067,3.2,4.267,1.067l-1.067-2.133c0,0,0-1.067-1.067-2.133c-2.133-1.067-5.333-4.267-5.333-4.267
	h-5.333c0,0,2.133-1.067,2.133-2.133c0,0,2.133,1.067,3.2,0c0,0,4.267,3.2,5.333,0l-2.133-1.067c0,0-1.067-1.067-3.2-1.067
	c-1.067,0-3.2-1.067-5.333,0c-2.133,0-5.333,2.133-7.467,3.2c-2.133,1.067-7.467,4.267-8.533,5.333c-1.067,0-7.467,0-10.667,0v8.533
	c2.133,0,6.4,0,7.467,0c1.067,1.067,3.2,1.067,5.333,1.067s7.467-2.133,8.533-3.2c1.067,0,4.267,1.067,5.333,1.067
	c0,0,2.133,1.067,3.2,1.067c0,0,2.133,2.133,3.2,2.133s1.067-1.067,1.067-1.067L480,246.4c0,0,0,0-1.067-1.067
	c-1.067-1.067-3.2-2.133-4.267-2.133c-1.067,0-3.2-1.067-3.2-1.067h1.067c0,0,4.267,1.067,5.333,1.067c0,0,1.067,1.067,2.133,2.133
	c0,0,2.133,3.2,4.267,2.133l-1.067-2.133C484.267,246.4,484.267,244.267,483.2,244.267z"/>
<path style="fill:#415A6B;" d="M453.333,238.933c0,0-3.2,7.467-4.267,17.067c0,0-3.2,0-6.4,0c-3.2,0-6.4,0-8.533,0
	c-5.333-1.067-14.933,1.067-20.267,0l0,0c-5.333-1.067-10.667-2.133-11.733-5.333c-1.067-3.2-2.133-20.267-1.067-24.533
	c1.067-4.267,2.133-9.6,2.133-11.733s1.067-14.933,4.267-19.2l0,0c6.4,5.333,8.533,29.867,8.533,34.133
	c0,2.133-1.067,4.267-1.067,5.333c0,2.133-1.067,3.2,0,4.267c0,0,0,0,1.067,0c2.133,0,12.8,1.067,18.133,1.067h5.333
	C445.867,238.933,453.333,238.933,453.333,238.933z"/>
<path style="fill:#FFD15C;" d="M412.8,232.533c1.067,2.133,1.067,2.133,1.067,2.133s-1.067,0-1.067,1.067l2.133,2.133
	c1.067,0,7.467,1.067,7.467,0c-1.067-1.067-2.133-3.2-2.133-4.267c-1.067-1.067-3.2-4.267-3.2-5.333c0-1.067-1.067,0-1.067,1.067
	l-2.133-3.2c0,0-2.133,0-2.133,2.133C412.8,229.333,411.733,229.333,412.8,232.533z"/>
<g>
	<ellipse style="fill:#F3705A;" cx="62.933" cy="135.467" rx="6.4" ry="16"/>
	<path style="fill:#F3705A;" d="M74.667,124.8c3.2-2.133,6.4,0,7.467,3.2c1.067,3.2,2.133,8.533,0,11.733
		c-2.133,6.4-6.4,12.8-5.333,20.267c1.067,7.467,4.267,13.867,10.667,17.067c-1.067-3.2-1.067-6.4,0-9.6
		c1.067-3.2,2.133-6.4,3.2-8.533c3.2-8.533,3.2-17.067,1.067-25.6c-1.067-3.2-2.133-7.467-4.267-9.6
		c-3.2-4.267-8.533-6.4-13.867-6.4"/>
</g>
<path style="fill:#344A5E;" d="M55.467,390.4c0,0,1.067,2.133,0,6.4s-3.2,6.4-3.2,10.667s-3.2,8.533-7.467,10.667
	c-4.267,2.133-10.667,2.133-10.667-2.133s1.067-6.4,2.133-9.6c1.067-3.2,3.2-8.533,4.267-11.733
	C41.6,391.467,48,386.133,55.467,390.4z"/>
<path style="fill:#FFD15C;" d="M42.667,393.6c0,0-3.2,5.333-4.267,9.6c-1.067,4.267-1.067,5.333,0,5.333s2.133-2.133,6.4-1.067
	c4.267,1.067,5.333,1.067,5.333-1.067c2.133-1.067,2.133-2.133,3.2-6.4c1.067-4.267,1.067-7.467,1.067-7.467
	S43.733,392.533,42.667,393.6z"/>
<path style="fill:#344A5E;" d="M92.8,390.4c0,0-1.067,2.133,0,6.4c1.067,4.267,3.2,6.4,3.2,10.667s3.2,8.533,7.467,10.667
	c4.267,1.067,10.667,2.133,10.667-2.133s-1.067-6.4-2.133-9.6s-3.2-8.533-4.267-11.733C106.667,391.467,100.267,386.133,92.8,390.4z
	"/>
<path style="fill:#FFD15C;" d="M105.6,393.6c0,0,3.2,5.333,4.267,9.6s1.067,5.333,0,5.333s-2.133-2.133-6.4-1.067
	c-4.267,1.067-5.333,1.067-5.333-1.067c-2.133-1.067-2.133-2.133-3.2-6.4c-1.067-4.267-1.067-7.467-1.067-7.467
	S104.533,392.533,105.6,393.6z"/>
<path style="fill:#415A6B;" d="M55.467,396.8c0,0-2.133,2.133-6.4,1.067c-4.267-2.133-8.533,0-10.667-1.067
	c-2.133-1.067-4.267-8.533-3.2-12.8c1.067-3.2,3.2-7.467,2.133-13.867c-1.067-6.4,5.333-48,5.333-60.8
	c0-11.733-3.2-26.667-1.067-36.267c2.133-9.6,2.133-9.6,2.133-9.6h53.333l8.533,4.267c0,0,0,13.867-3.2,23.467
	c-3.2,9.6,2.133,45.867,3.2,55.467c0,9.6-1.067,38.4,0,41.6c1.067,3.2,1.067,7.467,1.067,7.467s-2.133,2.133-5.333,1.067
	c-3.2-1.067-8.533-1.067-8.533-1.067s0-8.533-3.2-14.933c-3.2-6.4-3.2-33.067-4.267-37.333c-1.067-4.267-3.2-19.2-4.267-24.533
	c0-6.4-6.4-36.267-6.4-36.267l-2.133-3.2c0,0-1.067,2.133-2.133,6.4s-5.333,19.2-5.333,25.6c-1.067,6.4-5.333,23.467-5.333,26.667
	c0,4.267-1.067,26.667-1.067,33.067C58.667,378.667,55.467,396.8,55.467,396.8z"/>
<path style="fill:#344A5E;" d="M75.733,205.867l-2.133,9.6v52.267c0,5.333,4.267,10.667,10.667,10.667h20.267
	c2.133,0,4.267-2.133,4.267-4.267c0-6.4,0-18.133-2.133-26.667c-2.133-12.8-6.4-56.533-6.4-56.533s1.067-28.8,8.533-34.133
	c0,0-10.667-2.133-17.067-5.333c-6.4-3.2-7.467-2.133-7.467-2.133L75.733,205.867z"/>
<path style="fill:#FFD15C;" d="M80,222.933c0,0,13.867,1.067,17.067-7.467L82.133,214.4L80,222.933z"/>
<rect x="64" y="134.4" style="fill:#F7B64C;" width="19.2" height="27.733"/>
<path style="fill:#E8EAE9;" d="M85.333,155.733c-8.533,6.4-17.067,6.4-27.733,2.133l10.667,51.2L76.8,208L85.333,155.733z"/>
<g>
	<ellipse style="fill:#FFD15C;" cx="73.6" cy="125.867" rx="14.933" ry="19.2"/>
	<path style="fill:#FFD15C;" d="M90.667,126.933c-1.067,3.2-2.133,4.267-3.2,4.267s-2.133-3.2-1.067-5.333
		c1.067-2.133,2.133-4.267,3.2-4.267S90.667,124.8,90.667,126.933z"/>
</g>
<path style="fill:#344A5E;" d="M60.8,150.4l-21.333,7.467c0,0,5.333,9.6,6.4,25.6c1.067,13.867-5.333,73.6-7.467,90.667
	c0,2.133,2.133,4.267,4.267,4.267h20.267c5.333,0,10.667-4.267,10.667-9.6v-53.333L60.8,150.4z"/>
<g>
	<path style="fill:#415A6B;" d="M29.867,199.467c1.067,4.267,3.2,12.8,6.4,16c1.067,1.067,4.267,2.133,8.533,4.267
		c8.533,3.2,21.333,7.467,29.867,9.6c4.267,1.067,6.4,2.133,6.4,2.133s4.267-14.933,4.267-18.133c0-1.067-6.4-3.2-12.8-5.333
		c-7.467-2.133-14.933-3.2-17.067-4.267c-3.2-1.067-6.4-1.067-6.4-2.133c0-1.067-2.133-19.2-2.133-19.2c-1.067-16-6.4-25.6-6.4-25.6
		S35.2,160,35.2,166.4s0,14.933-1.067,19.2C32,188.8,28.8,195.2,29.867,199.467z"/>
	<path style="fill:#415A6B;" d="M64,146.133c0,0,0,8.533,3.2,21.333c2.133,12.8,7.467,43.733,7.467,43.733l-1.067,4.267
		c0,0-3.2-7.467-6.4-18.133c-4.267-11.733-9.6-36.267-10.667-41.6C55.467,150.4,64,146.133,64,146.133z"/>
	<path style="fill:#415A6B;" d="M83.2,146.133c0,0,0,8.533-3.2,21.333c-3.2,12.8-7.467,43.733-7.467,43.733l1.067,4.267
		c0,0,3.2-7.467,6.4-18.133c4.267-11.733,9.6-36.267,10.667-41.6C90.667,150.4,83.2,146.133,83.2,146.133z"/>
</g>
<path style="fill:#FFD15C;" d="M33.067,205.867c1.067-1.067,3.2-3.2,4.267-3.2S41.6,201.6,41.6,201.6l0,0c0,0-4.267,0-5.333,0
	c0,0-2.133,2.133-3.2,2.133c0,0-1.067,3.2-4.267,1.067l2.133-2.133c0,0,0-1.067,1.067-2.133c1.067-1.067,4.267-3.2,4.267-3.2H41.6
	c0,0-2.133-1.067-2.133-2.133c0,0-2.133,1.067-3.2,0c0,0-4.267,3.2-5.333,0l2.133-1.067c0,0,1.067-1.067,3.2-1.067
	c1.067,0,3.2-1.067,5.333,0c2.133,0,5.333,2.133,7.467,3.2c2.133,1.067,7.467,4.267,8.533,5.333c1.067,0,7.467,0,10.667,0v8.533
	c-2.133,0-6.4,0-7.467,0c-1.067,1.067-3.2,1.067-5.333,1.067S48,209.067,46.933,208c-1.067,0-4.267,1.067-5.333,1.067
	c0,0-2.133,1.067-3.2,1.067c0,0-2.133,2.133-3.2,2.133s-1.067-1.067-1.067-1.067l2.133-2.133c0,0,0,0,1.067-1.067
	s3.2-2.133,4.267-2.133c1.067,0,3.2-1.067,3.2-1.067h-2.133c0,0-4.267,1.067-5.333,1.067c0,0-1.067,1.067-2.133,2.133
	c0,0-2.133,3.2-4.267,2.133L32,208C32,208,32,206.933,33.067,205.867z"/>
<path style="fill:#415A6B;" d="M62.933,200.533c0,0,3.2,7.467,4.267,17.067c0,0,3.2,0,6.4,0s6.4,0,8.533,0
	c5.333-1.067,14.933,1.067,20.267,0l0,0c5.333-1.067,10.667-2.133,11.733-5.333c1.067-3.2,2.133-20.267,1.067-24.533
	c-1.067-3.2-2.133-9.6-2.133-11.733c0-2.133-1.067-14.933-4.267-19.2l0,0c-6.4,5.333-8.533,29.867-8.533,34.133
	c0,2.133,1.067,4.267,1.067,5.333c0,2.133,1.067,3.2,0,4.267c0,0,0,0-1.067,0c-2.133,0-12.8,1.067-18.133,1.067H76.8
	C70.4,200.533,62.933,200.533,62.933,200.533z"/>
<path style="fill:#FFD15C;" d="M103.467,194.133c-1.067,2.133-1.067,2.133-1.067,2.133s1.067,0,1.067,1.067l-2.133,2.133
	c-1.067,0-7.467,1.067-7.467,0C94.933,198.4,96,196.267,96,195.2c1.067-1.067,3.2-4.267,3.2-5.333c0-1.067,1.067,0,1.067,1.067
	l2.133-3.2c0,0,2.133,0,2.133,2.133C103.467,190.933,104.533,192,103.467,194.133z"/>
<path style="fill:#F3705A;" d="M60.8,118.4c-3.2,5.333-3.2,11.733-1.067,17.067c2.133,5.333,4.267,10.667,5.333,17.067
	c1.067,6.4,0,13.867-3.2,19.2c1.067-5.333-1.067-10.667-3.2-16c-3.2-9.6-5.333-19.2-5.333-29.867c0-4.267,0-9.6,1.067-13.867
	c2.133-6.4,8.533-11.733,16-12.8"/>
<path style="fill:#FFD15C;" d="M56.533,126.933c1.067,3.2,2.133,4.267,3.2,4.267c1.067,0,2.133-3.2,1.067-5.333
	c-1.067-3.2-2.133-4.267-3.2-4.267C56.533,122.667,55.467,124.8,56.533,126.933z"/>
<g>
	<path style="fill:#F3705A;" d="M68.267,99.2c5.333-2.133,17.067,0,20.267,9.6c4.267,8.533,0,18.133,0,18.133h-1.067
		c0-1.067,1.067-5.333,0-6.4c-1.067-1.067-2.133-4.267-4.267-6.4c-1.067-3.2-6.4-5.333-9.6-4.267s-7.467,3.2-10.667,6.4
		c-2.133,3.2-4.267,7.467-4.267,11.733h0c0,0-2.133-6.4-2.133-12.8S62.933,101.333,68.267,99.2z"/>
	<path style="fill:#F3705A;" d="M92.8,139.733c0,6.4,0,12.8-2.133,19.2c-1.067,3.2-2.133,6.4-3.2,8.533c-1.067,3.2-1.067,6.4,0,9.6
		c-5.333-3.2-9.6-9.6-10.667-17.067c-1.067-7.467,3.2-13.867,6.4-20.267H92.8z"/>
</g>
<g>
</g>
<g>
</g>
<g>
</g>
<g>
</g>
<g>
</g>
<g>
</g>
<g>
</g>
<g>
</g>
<g>
</g>
<g>
</g>
<g>
</g>
<g>
</g>
<g>
</g>
<g>
</g>
<g>
</g>
</svg>
