<?xml version="1.0" encoding="iso-8859-1"?>
<!-- Generator: Adobe Illustrator 19.0.0, SVG Export Plug-In . SVG Version: 6.00 Build 0)  -->
<svg version="1.1" id="Capa_1" xmlns="http://www.w3.org/2000/svg" xmlns:xlink="http://www.w3.org/1999/xlink" x="0px" y="0px"
	 viewBox="0 0 512 512" style="enable-background:new 0 0 512 512;" xml:space="preserve">
<path style="fill:#FFD15C;" d="M102.4,121.6c0,0,2.133,7.467,2.133,9.6s0,2.133,1.067,4.267c1.067,2.133,3.2,5.333,3.2,5.333
	s1.067,2.133,0,2.133S105.6,144,105.6,144s0,1.067,0,2.133c1.067,1.067,0,2.133,0,2.133s1.067,0,0,3.2
	c-1.067,2.133-2.133,3.2-1.067,6.4c0,5.333-7.467,2.133-10.667,2.133c-2.133,0-9.6,4.267-13.867,10.667c-4.267,6.4-16-16-16-16
	l8.533-21.333l16-16L102.4,121.6z"/>
<path style="fill:#66C6B9;" d="M440.533,198.4h-1.067c-1.067-1.067-1.067-2.133,0-3.2c1.067-1.067,1.067-3.2,0-5.333
	c-17.067-14.933-29.867-22.4-34.133-22.4c-1.067,0-2.133-1.067-2.133-2.133s1.067-2.133,2.133-2.133
	c6.4-1.067,19.2,6.4,37.333,23.467c3.2,3.2,3.2,7.467,1.067,10.667C441.6,198.4,441.6,198.4,440.533,198.4z"/>
<path style="fill:#FFD15C;" d="M176,217.6c0,0,7.467,0,11.733,0s7.467-1.067,8.533-3.2c1.067-2.133,5.333,0,5.333-1.067
	c0-1.067,1.067-2.133,0-4.267c-1.067-2.133-1.067-3.2-3.2-4.267c-1.067,0-2.133,0-2.133,0l1.067,2.133c0,0-2.133-3.2-3.2-3.2
	s-3.2-1.067-3.2-1.067s-1.067-1.067-3.2,0c0,0-3.2,1.067-4.267,2.133c-1.067,1.067,0,1.067,0,1.067s2.133,0,3.2,1.067
	c1.067,1.067,2.133,2.133,2.133,3.2c0,1.067-3.2,1.067-4.267,1.067c-1.067,0-6.4,2.133-6.4,2.133v4.267H176z"/>
<path style="fill:#E8EAE9;" d="M176,211.2v10.667l8.533-2.133c0,0-1.067-1.067-3.2-4.267c-1.067-1.067-1.067-3.2-1.067-5.333H176
	V211.2z"/>
<polygon style="fill:#F3705A;" points="512,77.867 488.533,201.6 456.533,173.867 249.6,413.867 133.333,402.133 10.667,434.133 
	0,394.667 130.133,359.467 232.533,370.133 424.533,147.2 392.533,119.467 "/>
<polygon style="fill:#E8EAE9;" points="94.933,371.2 94.933,360.533 90.667,354.133 82.133,359.467 80,371.2 "/>
<path style="fill:#344A5E;" d="M94.933,360.533c0,0,0,5.333-2.133,7.467c-2.133,2.133-6.4,2.133-6.4,2.133s-1.067-3.2-7.467-5.333
	c0,0-3.2,3.2-5.333,5.333c-2.133,2.133-10.667,6.4-11.733,9.6c-1.067,3.2-1.067,3.2,0,4.267c1.067,1.067,13.867,2.133,17.067,0
	c3.2-2.133,7.467-6.4,7.467-6.4v1.067c0,0,6.4-1.067,8.533-2.133c2.133-1.067,2.133-3.2,2.133-6.4
	C98.133,365.867,96,360.533,94.933,360.533z"/>
<path style="fill:#E8EAE9;" d="M198.4,354.133c0,0,4.267,6.4,8.533,8.533c4.267,2.133,4.267,2.133,4.267,2.133l-16,2.133
	l-4.267-8.533L198.4,354.133z"/>
<path style="fill:#344A5E;" d="M187.733,361.6c0,0,3.2,2.133,8.533,2.133c6.4,0,7.467-4.267,8.533-4.267c0,0,0,1.067,5.333,4.267
	c6.4,3.2,8.533,6.4,13.867,6.4s4.267,3.2,3.2,3.2c-2.133,1.067-10.667,4.267-17.067,2.133c-6.4-2.133-11.733-5.333-11.733-5.333v3.2
	c0,0-9.6-1.067-10.667-2.133C186.667,370.133,186.667,364.8,187.733,361.6z"/>
<path style="fill:#415A6B;" d="M45.867,264.533c0,0-3.2,11.733-3.2,23.467c0,12.8,1.067,14.933,4.267,20.267
	c3.2,5.333,6.4,11.733,10.667,20.267c4.267,7.467,13.867,22.4,16,25.6c2.133,3.2,5.333,12.8,5.333,12.8s4.267,2.133,7.467-1.067
	c3.2-3.2,6.4-6.4,6.4-6.4s-2.133-9.6-6.4-19.2c-4.267-8.533-10.667-21.333-14.933-27.733c-4.267-6.4-1.067-8.533-2.133-12.8
	c-1.067-3.2-1.067,0-1.067-4.267S70.4,284.8,72.533,281.6c2.133-3.2,4.267-5.333,5.333-5.333s7.467-1.067,21.333,6.4
	s28.8,20.267,37.333,24.533c8.533,4.267,10.667,8.533,13.867,11.733c3.2,3.2,19.2,23.467,22.4,27.733c3.2,4.267,16,18.133,16,18.133
	s4.267,1.067,7.467-2.133c3.2-4.267,3.2-7.467,3.2-7.467s-7.467-10.667-12.8-19.2c-5.333-8.533-14.933-22.4-19.2-26.667
	c-3.2-5.333-4.267-7.467-8.533-11.733c-4.267-4.267-14.933-17.067-19.2-21.333s-22.4-17.067-22.4-17.067l-39.467-16L45.867,264.533z
	"/>
<path style="fill:#2C4151;" d="M174.933,206.933c0,0,9.6,19.2,2.133,19.2c-6.4,0-6.4,0-6.4,0S167.467,211.2,174.933,206.933z"/>
<path style="fill:#E8EAE9;" d="M169.6,209.067l9.6-1.067c0,0-1.067,6.4,1.067,8.533c2.133,2.133,3.2,4.267,3.2,4.267L169.6,224
	L169.6,209.067z"/>
<path style="fill:#415A6B;" d="M104.533,201.6l6.4,2.133c0,0,2.133,6.4,5.333,12.8c3.2,6.4,8.533,11.733,11.733,13.867
	c3.2,2.133,2.133,3.2,6.4,3.2c4.267,0,42.667-7.467,42.667-7.467s-5.333-4.267-5.333-8.533c-1.067-4.267,3.2-10.667,3.2-10.667
	s-17.067,2.133-25.6,3.2c-7.467,1.067-8.533,3.2-11.733,1.067c-3.2-2.133-3.2-3.2-4.267-6.4c-1.067-3.2-7.467-16-8.533-19.2
	c-1.067-3.2-9.6-19.2-9.6-19.2L104.533,201.6z"/>
<path style="fill:#CED6E0;" d="M75.733,168.533H80h3.2l7.467-1.067l5.333,3.2c2.133,19.2-4.267,44.8-14.933,71.467l-19.2-20.267
	l-10.667-60.8l13.867-5.333L75.733,168.533z"/>
<g>
	<path style="fill:#F3705A;" d="M82.133,173.867v6.4l3.2,53.333l-17.067,1.067c2.133-24.533,5.333-43.733,9.6-53.333L78.933,176
		L82.133,173.867z"/>
	<path style="fill:#F3705A;" d="M88.533,168.533c0,0-4.267,4.267-6.4,7.467s-1.067,5.333-1.067,5.333
		c-2.133-1.067-3.2-1.067-4.267,0c0,0-2.133-8.533-5.333-11.733c-3.2-3.2,8.533-1.067,8.533-1.067h3.2L88.533,168.533z"/>
</g>
<path style="fill:#F7B64C;" d="M98.133,161.067c-3.2-1.067-9.6-3.2-14.933-8.533c0,0,2.133,6.4,7.467,10.667
	c2.133-1.067,3.2-2.133,4.267-2.133S97.067,161.067,98.133,161.067z"/>
<path style="fill:#415A6B;" d="M68.267,150.4c0,0,5.333,3.2,8.533-5.333c3.2-8.533,6.4-7.467,8.533-6.4s3.2,4.267,3.2,4.267
	l3.2-1.067c0,0-1.067-3.2,0-6.4c1.067-3.2,4.267-5.333,7.467-6.4c3.2-1.067,6.4-1.067,7.467-4.267
	c1.067-3.2,2.133-8.533-5.333-10.667c-7.467-4.267-16-5.333-22.4-4.267c-6.4,2.133-11.733,8.533-13.867,12.8
	C61.867,126.933,60.8,141.867,68.267,150.4z"/>
<path style="fill:#344A5E;" d="M67.2,153.6c0,0-6.4,1.067-11.733,2.133c-5.333,1.067-18.133,3.2-18.133,3.2s4.267,25.6,0,36.267
	c0,0,11.733,34.133,4.267,75.733c0,0,5.333-5.333,11.733-3.2c5.333,2.133,20.267-3.2,23.467-11.733c3.2-8.533,0-30.933,0-30.933
	s0-11.733-7.467-17.067c-8.533-5.333-12.8-18.133-12.8-24.533C56.533,176,67.2,153.6,67.2,153.6z"/>
<path style="fill:#2C4151;" d="M39.467,224l1.067,3.2c0,0,6.4,3.2,5.333-20.267c0,0-3.2,1.067-5.333,3.2
	C39.467,211.2,39.467,224,39.467,224L39.467,224z"/>
<path style="fill:#344A5E;" d="M118.4,257.067c0,0-7.467,11.733-10.667,14.933c-2.133,3.2-6.4,2.133-8.533,1.067
	c-1.067-1.067-20.267-18.133-21.333-22.4s0-22.4,0-22.4s1.067-3.2,5.333-7.467c5.333-5.333,12.8-24.533,12.8-29.867
	c0-4.267-2.133-21.333-3.2-28.8c1.067-1.067,2.133-1.067,3.2-1.067c2.133,0,5.333,1.067,8.533,0c5.333,1.067,9.6,3.2,11.733,5.333
	c0,0-5.333,27.733-4.267,38.4c0,0-7.467,13.867-8.533,20.267c-1.067,6.4,5.333,9.6,7.467,16
	C113.067,246.4,118.4,257.067,118.4,257.067z"/>
<path style="fill:#415A6B;" d="M93.867,206.933C85.333,224,83.2,221.867,78.933,227.2c0-1.067,2.133-6.4,4.267-11.733
	c3.2-6.4,7.467-14.933,8.533-20.267c1.067-6.4,0-33.067,0-33.067c1.067-1.067,2.133-1.067,3.2-1.067l4.267,6.4L96,169.6l4.267,1.067
	C100.267,170.667,102.4,189.867,93.867,206.933z"/>
<g>
	<path style="fill:#E8EAE9;" d="M67.2,151.467L80,168.533L68.267,176l-3.2-13.867C65.067,157.867,65.067,154.667,67.2,151.467
		L67.2,151.467z"/>
	<path style="fill:#E8EAE9;" d="M83.2,168.533c0,0,4.267-6.4,9.6-7.467c0,0,1.067,8.533,0,12.8
		c-1.067,4.267-2.133,4.267-2.133,4.267s1.067-6.4,0-7.467C89.6,168.533,83.2,168.533,83.2,168.533z"/>
</g>
<path style="fill:#415A6B;" d="M67.2,152.533c0,0-4.267,19.2-4.267,28.8c0,9.6,0,13.867,3.2,19.2s10.667,9.6,11.733,17.067
	s1.067,7.467,1.067,7.467s-1.067-9.6-4.267-12.8c-4.267-3.2-10.667-5.333-14.933-16c-4.267-9.6-3.2-28.8-3.2-28.8l4.267-2.133
	l-4.267-2.133C55.467,162.133,61.867,153.6,67.2,152.533z"/>
<g>
	<path style="fill:#66C6B9;" d="M394.667,272H393.6c-9.6-6.4-20.267-37.333-20.267-59.733c0-12.8,3.2-21.333,9.6-24.533
		c3.2-2.133,6.4-3.2,10.667-2.133c0-10.667,3.2-20.267,9.6-21.333c1.067,0,2.133,1.067,2.133,2.133s-1.067,2.133-2.133,2.133
		c-3.2,0-5.333,7.467-6.4,18.133c1.067,1.067,3.2,1.067,4.267,2.133c16,12.8,17.067,18.133,16,20.267c-1.067,2.133-3.2,3.2-6.4,3.2
		c-8.533,0-17.067-6.4-18.133-16c0-2.133,0-5.333,0-8.533c-3.2,0-5.333,0-8.533,1.067c-6.4,4.267-8.533,13.867-8.533,21.333
		c0,21.333,10.667,50.133,18.133,55.467c1.067,1.067,1.067,2.133,1.067,3.2C395.733,270.933,394.667,272,394.667,272z
		 M397.867,190.933c0,2.133,0,4.267,0,6.4c1.067,6.4,6.4,11.733,12.8,11.733c2.133,0,2.133,0,2.133-1.067c0,0,1.067-3.2-14.933-16
		C398.933,192,398.933,190.933,397.867,190.933z"/>
	<path style="fill:#66C6B9;" d="M25.6,285.867L25.6,285.867c-2.133-1.067-2.133-2.133-2.133-3.2C25.6,278.4,25.6,275.2,25.6,268.8
		c0-5.333-1.067-12.8,0-24.533V243.2c2.133-18.133,17.067-32,35.2-33.067l374.4-13.867c1.067,0,2.133-1.067,2.133-1.067
		c1.067-1.067,2.133-1.067,3.2,0s1.067,2.133,0,3.2c-1.067,2.133-3.2,2.133-5.333,3.2L61.867,214.4c-16,1.067-29.867,12.8-32,28.8
		v1.067c-1.067,11.733,0,19.2,0,23.467c0,6.4,1.067,10.667-2.133,16C27.733,285.867,26.667,285.867,25.6,285.867z"/>
</g>
<path style="fill:#FFD15C;" d="M46.933,219.733c0,0,11.733,1.067,13.867,1.067s3.2-3.2,3.2-3.2s9.6,0,11.733-1.067
	c2.133-1.067,3.2-1.067,1.067-2.133c-2.133-1.067-5.333,0-7.467-1.067C67.2,212.267,64,212.267,60.8,211.2
	c-3.2-1.067,4.267-1.067,6.4-1.067S68.267,208,68.267,208H64c0,0-3.2-1.067-6.4-1.067c-3.2,0-2.133,0-5.333,0
	c-3.2,0-6.4,2.133-6.4,2.133L46.933,219.733z"/>
<path style="fill:#E8EAE9;" d="M43.733,208l7.467-2.133c0,0-2.133,12.8,1.067,16l-12.8-1.067
	C38.4,221.867,39.467,210.133,43.733,208z"/>
<path style="fill:#415A6B;" d="M46.933,205.867c-2.133,1.067-4.267,3.2-4.267,6.4c-2.133,6.4-1.067,14.933-1.067,14.933
	s-29.867-13.867-34.133-17.067c-4.267-3.2-7.467-6.4-6.4-9.6s13.867-14.933,17.067-17.067c3.2-3.2,6.4-7.467,9.6-10.667
	s4.267-6.4,5.333-9.6c2.133-3.2,4.267-4.267,4.267-4.267l0,0c0,1.067,4.267,26.667,0,36.267l-7.467,7.467c0,0,2.133,2.133,3.2,3.2
	c1.067,0,3.2,0,5.333,1.067c1.067,0,2.133,1.067,3.2,1.067C43.733,206.933,46.933,205.867,46.933,205.867z"/>
<path style="fill:#FFD15C;" d="M201.6,213.333c-1.067,1.067-5.333,0-5.333,1.067l-10.667-4.267h-2.133c1.067,0,4.267,0,4.267-1.067
	c0-1.067,0-2.133-1.067-3.2c-1.067-1.067-3.2,0-3.2,0s-1.067,0,0-1.067c1.067-1.067,4.267-2.133,4.267-2.133c3.2-1.067,3.2,0,3.2,0
	s2.133,0,3.2,1.067c1.067,1.067,3.2,3.2,3.2,3.2s0-1.067,0-2.133s1.067-1.067,2.133,0c1.067,1.067,2.133,2.133,3.2,4.267
	C202.667,211.2,202.667,212.267,201.6,213.333z"/>
<g>
</g>
<g>
</g>
<g>
</g>
<g>
</g>
<g>
</g>
<g>
</g>
<g>
</g>
<g>
</g>
<g>
</g>
<g>
</g>
<g>
</g>
<g>
</g>
<g>
</g>
<g>
</g>
<g>
</g>
</svg>
