<?xml version="1.0" encoding="iso-8859-1"?>
<!-- Generator: Adobe Illustrator 19.0.0, SVG Export Plug-In . SVG Version: 6.00 Build 0)  -->
<svg version="1.1" id="Capa_1" xmlns="http://www.w3.org/2000/svg" xmlns:xlink="http://www.w3.org/1999/xlink" x="0px" y="0px"
	 viewBox="0 0 512.581 512.581" style="enable-background:new 0 0 512.581 512.581;" xml:space="preserve">
<path style="fill:#415A6B;" d="M312.291,494.934c0,0-1.067,5.333,0,5.333c1.067,1.066,4.267,3.2,4.267,3.2s1.067-1.066,2.133,1.066
	c1.067,1.066,1.067,3.2,4.267,5.333c3.2,2.133,20.267,5.333,20.267-1.066c1.067-6.4-14.933-13.867-14.933-13.867H312.291z"/>
<path style="fill:#344A5E;" d="M313.357,497.067c0,0,4.267,6.4,7.467,8.533c3.2,2.133,7.467,3.2,13.867,3.2c6.4,0,8.533,0,8.533,0
	s1.067-2.133-2.133-7.467c-3.2-5.333-7.467-12.8-9.6-16c-2.133-2.133-4.267-6.4-4.267-6.4l-16,7.467
	C311.224,485.334,310.157,492.8,313.357,497.067z"/>
<path style="fill:#415A6B;" d="M263.224,494.934c0,0,1.067,5.333,0,5.333c-1.067,1.066-4.267,3.2-4.267,3.2
	s-1.067-1.066-2.133,1.066c-1.067,1.066-1.067,3.2-4.267,5.333c-3.2,2.133-20.267,5.333-20.267-1.066
	c-1.067-6.4,14.933-13.867,14.933-13.867H263.224z"/>
<path style="fill:#344A5E;" d="M262.157,497.067c0,0-4.267,6.4-7.467,8.533c-3.2,2.133-7.467,3.2-13.867,3.2c-6.4,0-8.533,0-8.533,0
	s-1.067-2.133,2.133-7.467c3.2-5.333,7.467-12.8,9.6-16c2.133-2.133,4.267-6.4,4.267-6.4l16,7.467
	C264.291,485.334,265.357,492.8,262.157,497.067z"/>
<g>
	<path style="fill:#415A6B;" d="M249.357,318.934c0,0,1.067,32,3.2,44.8c3.2,12.8,3.2,22.4,0,32c-3.2,9.6-2.133,20.267-3.2,23.467
		c-1.067,4.267-3.2,39.467-4.267,49.066c-1.067,9.6,0,10.667,0,10.667s9.6,5.333,14.933,7.467c5.333,2.133,7.467,1.066,7.467,1.066
		s8.533-41.6,9.6-52.267c1.067-10.667,5.333-49.066,7.467-60.8c2.133-12.8,9.6-44.8,9.6-44.8s3.2,23.467,4.267,32
		c1.067,9.6,7.467,41.6,7.467,58.667c1.067,17.066,6.4,65.066,7.467,68.267c0,0,5.333-3.2,9.6-4.267
		c4.267,0,10.667-2.133,10.667-2.133s4.267-37.333,4.267-50.133c0-12.8-2.133-25.6-5.333-34.133
		c-2.133-8.533,10.667-67.2,7.467-89.6c-4.267-23.467-4.267-23.467-4.267-23.467L249.357,318.934z"/>
	<ellipse style="fill:#415A6B;" cx="332.557" cy="218.667" rx="9.6" ry="18.133"/>
</g>
<path style="fill:#FFD15C;" d="M281.357,165.334h27.733V144c2.133-4.267,2.133-10.667,2.133-10.667v-3.2c0,0,3.2-17.067,1.067-22.4
	c-2.133-5.333-11.733-4.267-18.133-4.267c-7.467,0-13.867,2.133-13.867,5.333c0,3.2-2.133,23.467-2.133,23.467
	s1.067,7.467,3.2,10.667V165.334z"/>
<polygon style="fill:#CED6E0;" points="294.157,165.334 295.224,165.334 315.491,165.334 289.891,245.334 273.891,163.2 "/>
<g>
	
		<ellipse transform="matrix(0.1356 -0.9908 0.9908 0.1356 140.3604 424.1648)" style="fill:#FFD15C;" cx="313.265" cy="131.643" rx="6.4" ry="3.2"/>
	
		<ellipse transform="matrix(0.1356 0.9908 -0.9908 0.1356 371.1873 -165.0895)" style="fill:#FFD15C;" cx="280.205" cy="130.179" rx="6.4" ry="3.2"/>
</g>
<path style="fill:#415A6B;" d="M311.224,133.334h1.067c0,0,4.267-9.6,5.333-18.133c0-9.6-8.533-17.067-18.133-18.133
	c-9.6,0-19.2,3.2-20.267,12.8c-1.067,9.6,0,24.533,0,24.533h1.067c0,0,0-5.333,1.067-9.6c1.067-4.267,2.133-8.533,2.133-11.733
	c0-3.2,2.133-3.2,5.333-3.2c2.133,1.067,14.933,0,18.133-2.133c2.133-2.133,6.4,4.267,6.4,7.467c-1.067,3.2,1.067,5.333,0,7.467
	C311.224,125.867,311.224,133.334,311.224,133.334z"/>
<path style="fill:#F7B64C;" d="M293.091,152.534c-7.467-2.133-11.733-9.6-11.733-9.6v19.2c4.267-1.067,9.6-2.133,14.933-5.333
	c10.667-6.4,12.8-13.867,12.8-13.867S300.557,154.667,293.091,152.534z"/>
<g>
	<path style="fill:#F3F3F3;" d="M309.091,153.6l-13.867,11.733c0,0,9.6,0,13.867,10.667l4.267-11.733
		C314.424,163.2,312.291,155.734,309.091,153.6z"/>
	<path style="fill:#F3F3F3;" d="M281.357,153.6l12.8,11.733c0,0-8.533,3.2-10.667,6.4l-4.267-13.867L281.357,153.6z"/>
</g>
<path style="fill:#344A5E;" d="M278.157,156.8c0,0-14.933,4.267-22.4,8.533c-7.467,3.2-10.667,4.267-10.667,4.267
	s12.8,44.8,10.667,62.933c-2.133,18.133-8.533,91.733-8.533,91.733s46.933,9.6,49.067-12.8c1.067-21.333-7.467-83.2-7.467-83.2
	L284.557,176L278.157,156.8z"/>
<path style="fill:#2D4151;" d="M296.291,311.467c1.067-18.133-4.267-64-6.4-77.867c-1.067,7.467-2.133,13.867-2.133,13.867l0,0
	v59.733c0,4.267,2.133,8.533,5.333,11.733C294.157,316.8,296.291,314.667,296.291,311.467z"/>
<path style="fill:#344A5E;" d="M317.624,164.267c0,0,24.533,8.533,26.667,11.733c0,0-9.6,18.133-10.667,38.4
	s7.467,102.4,7.467,102.4s-22.4,10.667-40.533,6.4c-6.4-2.133-11.733-8.533-11.733-14.933v-59.733c0,0,2.133-26.667,11.733-43.733
	C310.157,185.6,317.624,164.267,317.624,164.267z"/>
<path style="fill:#FFD15C;" d="M332.557,312.534c0,0-1.067,7.467-2.133,9.6c-1.067,2.133-2.133,3.2-2.133,6.4
	c-1.067,3.2-1.067,8.533-1.067,10.667c0,2.133,1.067,5.333,1.067,5.333s4.267,0,4.267-5.333c0-4.267,1.067-8.533,1.067-8.533
	s1.067,2.133,2.133,3.2c1.067,2.133-1.067,9.6,0,10.667c1.067,1.067,2.133,2.133,3.2,0c0,0,3.2,0,3.2-2.133c0,0,2.133,0,3.2-3.2
	c1.067-3.2,2.133-8.533,2.133-8.533s1.067-8.533-1.067-11.733c-2.133-3.2-2.133-9.6-2.133-9.6L332.557,312.534z"/>
<g>
	<path style="fill:#415A6B;" d="M312.291,156.8c0,0-3.2,19.2-5.333,24.533c-2.133,5.333-12.8,24.533-16,36.267
		c-3.2,11.733-2.133,28.8-2.133,28.8s4.267-24.533,9.6-35.2c5.333-10.667,25.6-33.067,25.6-33.067l-5.333-6.4h4.267
		c0,0,1.067-4.267-3.2-7.467S312.291,158.934,312.291,156.8z"/>
	<path style="fill:#415A6B;" d="M280.291,154.667c0,0,7.467,19.2,8.533,29.867c2.133,9.6,0,46.933,0,46.933s-4.267-35.2-8.533-44.8
		C276.024,176,276.024,176,276.024,176l2.133-3.2h-4.267c0,0-1.067-8.533,1.067-12.8
		C278.157,155.734,280.291,154.667,280.291,154.667z"/>
	<path style="fill:#415A6B;" d="M353.891,240c0,10.667-1.067,52.267-1.067,52.267l-2.133,26.667c0,0-5.333-1.067-10.667-2.133
		c-4.267,0-8.533-1.067-9.6-1.067c0,0,5.333-76.8,5.333-87.467l0,0c0-10.667,0-21.333,0-21.333c2.133-17.067,10.667-32,10.667-32
		s4.267,2.133,4.267,9.6c0,7.467,3.2,21.333,2.133,29.867C351.757,224,353.891,228.267,353.891,240z"/>
	<path style="fill:#415A6B;" d="M245.091,169.6c0,0-2.133,1.067-5.333,13.867c-4.267,12.8-4.267,17.067-7.467,21.333
		c-3.2,4.267-3.2,3.2-3.2,6.4c0,3.2-5.333,13.867-5.333,20.267c0,6.4,1.067,13.867,5.333,17.067c3.2,2.133,9.6,2.133,11.733,0
		c2.133-2.133,8.533-9.6,9.6-11.733c0-2.133,4.267-13.867,4.267-13.867l4.267-19.2L245.091,169.6z"/>
</g>
<g>
	<path style="fill:#344A5E;" d="M251.491,201.6c1.067,4.267,5.333,6.4,5.333,2.133c0-3.2-1.067-6.4-3.2-10.667
		c-2.133-4.267-6.4-3.2-6.4-3.2C249.357,194.134,250.424,198.4,251.491,201.6z"/>
	<path style="fill:#344A5E;" d="M245.091,190.934c0,0-3.2,5.333-4.267,8.533c-1.067,3.2-4.267,8.533-6.4,10.667
		c-2.133,2.133-6.4,9.6-6.4,9.6s-1.067-1.067,2.133-4.267c2.133-3.2,2.133-3.2,4.267-7.467c2.133-4.267,5.333-12.8,8.533-18.133
		c3.2-5.333,5.333-9.6,5.333-9.6L245.091,190.934z"/>
</g>
<path style="fill:#CED6E0;" d="M257.891,193.067c-1.067,0-2.133-1.067-2.133-2.133V2.133c0-1.067,1.067-2.133,2.133-2.133
	s2.133,1.067,2.133,2.133v188.8C260.024,192,260.024,193.067,257.891,193.067z"/>
<path style="fill:#F3705A;" d="M376.291,85.334L376.291,85.334c0,0-10.667-4.267-10.667,2.133c0,0-54.4-6.4-78.933,4.267
	c0,0-64-9.6-101.333-1.067c0,0-22.4-8.533-46.933,0c8.533-11.733,38.4-46.933,62.933-56.533
	c29.867-11.733,56.533-17.067,56.533-17.067s40.533,7.467,62.933,18.133C340.024,44.8,368.824,75.734,376.291,85.334z"/>
<g>
	<path style="fill:#F05540;" d="M286.691,96c-1.067,0-1.067,0-1.067-1.067c0-9.6-6.4-32-10.667-46.933
		c-1.067-2.133-1.067-5.333-2.133-7.467c-3.2-11.733-11.733-20.267-13.867-22.4c-3.2,1.067-17.067,7.467-27.733,12.8
		c-11.733,5.333-36.267,36.267-45.867,62.933c0,1.067-1.067,1.067-1.067,1.067c-1.067,0-1.067-1.067-1.067-1.067
		c8.533-25.6,34.133-58.667,46.933-64c11.733-5.333,27.733-12.8,27.733-12.8h1.067c0,0,11.733,9.6,16,23.467
		c1.067,2.133,1.067,4.267,2.133,7.467c4.267,14.933,10.667,37.333,10.667,48C287.757,94.934,287.757,96,286.691,96L286.691,96z"/>
	<path style="fill:#F05540;" d="M367.757,90.667C367.757,90.667,366.691,90.667,367.757,90.667
		c-5.333-5.333-25.6-30.933-36.267-39.467c-11.733-9.6-44.8-27.733-73.6-33.067c-1.067,0-1.067-1.067-1.067-1.067
		c0-1.067,1.067-1.067,1.067-1.067s40.533,7.467,62.933,18.133c19.2,9.6,48,41.6,56.533,51.2V86.4h-1.067
		c-5.333-6.4-36.267-40.533-55.467-50.133c-10.667-5.333-24.533-9.6-36.267-12.8c20.267,7.467,39.467,19.2,48,25.6
		c9.6,8.533,29.867,32,35.2,39.467C368.824,89.6,368.824,90.667,367.757,90.667L367.757,90.667z"/>
	<path style="fill:#F05540;" d="M136.291,94.934L136.291,94.934c-1.067-1.067-1.067-1.067-1.067-2.133
		c6.4-7.467,38.4-48,65.067-59.733C230.157,21.333,256.824,16,257.891,16s1.067,0,1.067,1.067s0,1.067-1.067,1.067
		c0,0-26.667,5.333-56.533,17.067C174.691,46.934,142.691,86.4,136.291,94.934C137.357,94.934,136.291,94.934,136.291,94.934z"/>
</g>
<path style="fill:#FFD15C;" d="M266.424,190.934c1.067,2.133-1.067,3.2-3.2,3.2c-2.133,0-4.267,1.067-4.267,1.067
	c0,1.067-3.2,10.667-3.2,10.667c-1.067,0-3.2-2.133-3.2-4.267l0,0c0,0,0,0,0-1.067c-1.067-3.2-3.2-10.667-3.2-10.667
	s1.067-9.6,2.133-12.8c0-3.2,4.267-4.267,6.4-4.267c2.133,0,7.467-1.067,9.6,2.133c2.133,3.2,0,4.267,0,4.267
	c3.2,2.133,0,4.267,0,4.267C267.491,186.667,266.424,190.934,266.424,190.934z"/>
<g>
</g>
<g>
</g>
<g>
</g>
<g>
</g>
<g>
</g>
<g>
</g>
<g>
</g>
<g>
</g>
<g>
</g>
<g>
</g>
<g>
</g>
<g>
</g>
<g>
</g>
<g>
</g>
<g>
</g>
</svg>
