<?xml version="1.0" encoding="iso-8859-1"?>
<!-- Generator: Adobe Illustrator 19.0.0, SVG Export Plug-In . SVG Version: 6.00 Build 0)  -->
<svg version="1.1" id="Capa_1" xmlns="http://www.w3.org/2000/svg" xmlns:xlink="http://www.w3.org/1999/xlink" x="0px" y="0px"
	 viewBox="0 0 512 512" style="enable-background:new 0 0 512 512;" xml:space="preserve">
<g>
	<path style="fill:#F3705A;" d="M232.533,205.867c-1.067,0-1.067-1.067-1.067-1.067c0-3.2,1.067-6.4,4.267-8.533
		c3.2-2.133,6.4-3.2,10.667-4.267c8.533-1.067,16,3.2,16,9.6c0,1.067-1.067,2.133-1.067,2.133c-1.067,0-2.133-1.067-2.133-1.067
		c0-4.267-6.4-7.467-12.8-6.4c-3.2,0-6.4,1.067-8.533,3.2c-2.133,1.067-3.2,3.2-3.2,5.333
		C234.667,205.867,233.6,205.867,232.533,205.867L232.533,205.867z"/>
	<path style="fill:#F3705A;" d="M214.4,217.6L214.4,217.6c-1.067,0-2.133-1.067-1.067-2.133c0-4.267-5.333-8.533-11.733-9.6
		c-3.2,0-7.467,0-9.6,2.133c-2.133,1.067-4.267,3.2-4.267,5.333c0,1.067-1.067,1.067-2.133,1.067c-1.067,0-1.067-1.067-1.067-2.133
		c0-3.2,2.133-6.4,5.333-7.467c3.2-2.133,7.467-2.133,11.733-2.133c8.533,1.067,16,6.4,14.933,12.8
		C215.467,216.533,215.467,217.6,214.4,217.6z"/>
	<path style="fill:#F3705A;" d="M157.867,226.133C156.8,226.133,156.8,226.133,157.867,226.133c-1.067,0-2.133-1.067-1.067-2.133
		c1.067-5.333-4.267-10.667-11.733-12.8c-4.267-1.067-7.467-1.067-10.667,0s-4.267,3.2-5.333,5.333c0,1.067-1.067,1.067-2.133,1.067
		c-1.067,0-1.067-1.067-1.067-2.133c1.067-3.2,3.2-5.333,7.467-7.467c3.2-1.067,8.533-1.067,12.8,0s8.533,3.2,10.667,6.4
		c3.2,3.2,3.2,6.4,3.2,9.6C158.933,226.133,157.867,226.133,157.867,226.133z"/>
	<path style="fill:#F3705A;" d="M125.867,154.667C125.867,154.667,124.8,154.667,125.867,154.667
		c-1.067-1.067-2.133-2.133-1.067-2.133c1.067-2.133,1.067-5.333,0-8.533c-2.133-3.2-4.267-6.4-8.533-8.533
		c-4.267-2.133-8.533-3.2-11.733-3.2c-3.2,0-6.4,2.133-7.467,4.267c0,1.067-1.067,1.067-2.133,1.067
		c-1.067,0-1.067-1.067-1.067-2.133c2.133-3.2,5.333-5.333,10.667-5.333c4.267,0,9.6,1.067,13.867,3.2
		c4.267,2.133,8.533,6.4,9.6,10.667c2.133,4.267,2.133,8.533,0,11.733C126.933,154.667,125.867,154.667,125.867,154.667z"/>
	<path style="fill:#F3705A;" d="M293.333,200.533L293.333,200.533c-3.2-2.133-4.267-4.267-5.333-8.533c0-3.2,1.067-6.4,3.2-9.6
		c4.267-6.4,11.733-8.533,16-5.333c1.067,0,1.067,1.067,0,2.133c0,1.067-1.067,1.067-2.133,0c-3.2-2.133-8.533,0-11.733,4.267
		c-1.067,2.133-2.133,5.333-2.133,7.467c0,2.133,1.067,4.267,3.2,5.333c1.067,0,1.067,1.067,0,2.133
		C294.4,199.467,294.4,200.533,293.333,200.533z"/>
</g>
<path style="fill:#FFD15C;" d="M186.667,46.933c0,0-12.8,8.533-16,12.8c-3.2,4.267-21.333,18.133-27.733,23.467
	c-6.4,5.333-17.067,10.667-19.2,18.133S109.867,121.6,99.2,131.2c-9.6,9.6-10.667,13.867-10.667,13.867l-18.133,19.2
	c0,0,29.867,24.533,55.467-14.933c0,0,16-14.933,19.2-18.133c3.2-3.2,8.533,1.067,10.667,3.2s-4.267,18.133-10.667,35.2
	c-6.4,17.067-18.133,49.067-21.333,64c-3.2,14.933-5.333,29.867,4.267,32c9.6,2.133,20.267-14.933,22.4-32
	c0,0,8.533-21.333,10.667-25.6c0,0,10.667-23.467,12.8-25.6c3.2-3.2,14.933-5.333,14.933-5.333s-2.133,12.8-2.133,24.533
	c0,12.8,0,28.8,1.067,33.067c1.067,4.267,7.467,7.467,10.667,7.467c2.133,0,10.667-2.133,11.733-9.6c0,0,2.133-26.667,3.2-33.067
	c0-6.4,1.067-20.267,1.067-20.267s9.6-3.2,14.933-2.133c0,0,0,12.8,2.133,19.2c0,0,5.333,21.333,6.4,25.6
	c1.067,4.267,5.333,8.533,11.733,8.533c6.4,0,9.6-5.333,9.6-11.733s-3.2-25.6-3.2-30.933c0-4.267-2.133-12.8-2.133-12.8l8.533-1.067
	c0,0,7.467,4.267,10.667,6.4c3.2,2.133,12.8,9.6,16,12.8c3.2,2.133,10.667,10.667,18.133,13.867s10.667,3.2,14.933,0
	s3.2-6.4,1.067-9.6c-2.133-3.2-19.2-16-24.533-24.533c-5.333-8.533-14.933-16-16-21.333c-1.067-4.267-2.133-8.533-1.067-20.267
	c1.067-11.733,2.133-21.333,2.133-21.333L217.6,34.133L186.667,46.933z"/>
<g>
	<path style="fill:#F3705A;" d="M221.867,491.733L221.867,491.733c-1.067,0-2.133-1.067-1.067-2.133l25.6-277.333
		c0-1.067,1.067-1.067,2.133-1.067s1.067,1.067,1.067,2.133L224,490.667C224,490.667,222.933,491.733,221.867,491.733z"/>
	<path style="fill:#F3705A;" d="M192,379.733L192,379.733c-1.067,0-2.133-1.067-1.067-2.133l6.4-153.6
		c0-1.067,1.067-1.067,2.133-1.067s1.067,1.067,1.067,2.133l-6.4,153.6C193.067,379.733,193.067,379.733,192,379.733z"/>
	<path style="fill:#F3705A;" d="M116.267,339.2L116.267,339.2c-11.733-3.2-14.933-11.733-14.933-12.8s0-2.133,1.067-2.133
		s2.133,0,2.133,1.067c0,0,2.133,7.467,11.733,9.6c1.067,0,1.067,1.067,1.067,2.133C117.333,338.133,117.333,339.2,116.267,339.2z"
		/>
	<path style="fill:#F3705A;" d="M116.267,339.2L116.267,339.2l-13.867-2.133c-1.067,0-1.067-1.067-1.067-2.133
		s1.067-1.067,2.133-1.067L117.333,336c1.067,0,1.067,1.067,1.067,2.133C118.4,338.133,117.333,339.2,116.267,339.2z"/>
	<path style="fill:#F3705A;" d="M280.533,334.933L280.533,334.933c-2.133-1.067-2.133-2.133-1.067-2.133L288,322.133
		c0-1.067,1.067-1.067,2.133,0c1.067,0,1.067,1.067,0,2.133l-8.533,10.667C281.6,334.933,281.6,334.933,280.533,334.933z"/>
</g>
<path style="fill:#344A5E;" d="M277.333,332.8c0,0,4.267,2.133,7.467-13.867l-8.533-1.067
	C276.267,317.867,274.133,329.6,277.333,332.8z"/>
<path style="fill:#CED6E0;" d="M281.6,333.867c0,0,5.333-1.067,8.533-9.6l-6.4-1.067C283.733,323.2,280.533,329.6,281.6,333.867z"/>
<path style="fill:#F3705A;" d="M155.733,478.933c-1.067,0-1.067-1.067-1.067-1.067L140.8,232.533c0-1.067,1.067-2.133,1.067-2.133
	c1.067,0,2.133,1.067,2.133,1.067L157.867,476.8C156.8,477.867,156.8,478.933,155.733,478.933L155.733,478.933z"/>
<path style="fill:#E8EAE9;" d="M212.267,21.333l-25.6,21.333c0,0,14.933,51.2,41.6,62.933s61.867,6.4,61.867,6.4L212.267,21.333z"/>
<path style="fill:#415A6B;" d="M227.2,0l-23.467,19.2c0,0,13.867,43.733,23.467,59.733c9.6,16,55.467,44.8,81.067,32L441.6,0H227.2z
	"/>
<path style="fill:#344A5E;" d="M101.333,329.6c0,0,12.8,12.8,17.067,5.333c5.333-6.4-6.4-12.8-6.4-12.8S104.533,326.4,101.333,329.6
	z"/>
<path style="fill:#CED6E0;" d="M103.467,330.667l-1.067,1.067c0,0,11.733,10.667,13.867,3.2
	C119.467,327.467,103.467,330.667,103.467,330.667z"/>
<path style="fill:#FFD15C;" d="M117.333,332.8c0,0-1.067,4.267,0,5.333l5.333,5.333c1.067,1.067,2.133,2.133,3.2,4.267
	c1.067,2.133,2.133,3.2,2.133,4.267l2.133,2.133c0,0-1.067,3.2-5.333,1.067c-1.067-1.067-2.133-2.133-3.2-3.2
	c-1.067-1.067-1.067-2.133-2.133-2.133c0,0-1.067,0-2.133,0c-1.067,1.067-2.133,3.2-2.133,4.267c0,1.067-1.067,6.4-1.067,6.4
	s1.067,1.067,2.133,2.133l-2.133,2.133c0,0-2.133,2.133-4.267-2.133c0,0-1.067,1.067-3.2,0s-2.133-3.2-2.133-3.2
	s-2.133,0-2.133-2.133c0-2.133-1.067-11.733-1.067-14.933c0-3.2,0-10.667,2.133-13.867c3.2-2.133,10.667-3.2,10.667-3.2
	L117.333,332.8z"/>
<path style="fill:#E8EAE9;" d="M102.4,331.733c0,0,9.6-2.133,13.867,3.2l5.333-7.467l-9.6-6.4L102.4,331.733z"/>
<path style="fill:#FFD15C;" d="M173.867,283.733l7.467,17.067l1.067,7.467L200.533,320l4.267-10.667L203.733,304
	c0,0,2.133-6.4,0-13.867c-2.133-7.467-5.333-16-5.333-16s-7.467-5.333-12.8-4.267C181.333,272,172.8,278.4,173.867,283.733z"/>
<path style="fill:#415A6B;" d="M134.4,477.867h-1.067l-3.2,1.067c0,0,0,3.2,0,5.333c1.067,2.133,3.2,7.467,3.2,7.467l3.2-1.067
	l2.133,2.133c0,0,0,8.533,1.067,12.8c1.067,4.267,4.267,6.4,8.533,6.4c4.267,0,10.667,0,12.8-1.067s3.2-1.067,2.133-3.2
	c-1.067-2.133-7.467,0-13.867-4.267c-6.4-4.267-7.467-10.667-11.733-14.933C133.333,484.267,134.4,477.867,134.4,477.867z"/>
<path style="fill:#344A5E;" d="M141.867,474.667c0,0-7.467-1.067-9.6,2.133c0,0,1.067,5.333,3.2,10.667
	c2.133,5.333,3.2,8.533,3.2,11.733c1.067,3.2,2.133,7.467,7.467,8.533c5.333,1.067,11.733,1.067,12.8,0
	c1.067-1.067,3.2-1.067,2.133-2.133c-1.067-1.067-6.4-3.2-8.533-4.267c-2.133-1.067-2.133-3.2-2.133-7.467
	C150.4,489.6,141.867,474.667,141.867,474.667z"/>
<path style="fill:#415A6B;" d="M203.733,496l-1.067,3.2c0,0,3.2,3.2,5.333,3.2s4.267-1.067,4.267-1.067s1.067,4.267,2.133,5.333
	c1.067,1.067,5.333,4.267,8.533,4.267c2.133,0,9.6,1.067,9.6-2.133s-4.267-5.333-4.267-5.333S209.067,492.8,203.733,496z"/>
<path style="fill:#344A5E;" d="M202.667,489.6c0,0-1.067,3.2,0,6.4c0,0,4.267,1.067,6.4,2.133c2.133,2.133,3.2,5.333,4.267,7.467
	c1.067,1.067,6.4,4.267,8.533,4.267c2.133,0,7.467-1.067,8.533,0c1.067,1.067,0-2.133-1.067-4.267
	c-1.067-2.133-7.467-10.667-10.667-12.8c-2.133-2.133-2.133-2.133-2.133-2.133L202.667,489.6z"/>
<path style="fill:#415A6B;" d="M231.467,477.867l-3.2,9.6c0,0-2.133,2.133-3.2,2.133c-1.067,1.067,0,2.133-2.133,4.267
	c-2.133,1.067-6.4,3.2-11.733,2.133c-5.333-2.133-8.533-5.333-8.533-5.333s0-4.267,3.2-7.467c2.133-3.2,10.667-17.067,10.667-17.067
	l7.467-7.467L231.467,477.867z"/>
<path style="fill:#344A5E;" d="M216.533,465.067c0,0-5.333,8.533-8.533,13.867c5.333-2.133,9.6-4.267,10.667-6.4
	c2.133-2.133,3.2-7.467,4.267-13.867L216.533,465.067z"/>
<path style="fill:#415A6B;" d="M179.2,402.133c0,0,6.4,24.533,9.6,33.067s8.533,21.333,8.533,21.333s0,1.067-2.133,1.067
	c-2.133,0-5.333,1.067-10.667,2.133c-5.333,2.133-18.133,8.533-23.467,9.6c-5.333,2.133-22.4,4.267-24.533,5.333
	s5.333,12.8,8.533,18.133c4.267,5.333,9.6,5.333,9.6,5.333s1.067-3.2,6.4-4.267c5.333-2.133,21.333-4.267,28.8-7.467
	c8.533-3.2,24.533-9.6,27.733-13.867c3.2-4.267,5.333-20.267,5.333-27.733c0-7.467,0-7.467,0-7.467s3.2,6.4,5.333,8.533
	c0,0,0,1.067,0,3.2c0,2.133-1.067,2.133-1.067,3.2S224,457.6,224,457.6l4.267,29.867c0,0,14.933-17.067,17.067-20.267
	c2.133-3.2,5.333-9.6,7.467-12.8c2.133-3.2,1.067-10.667,0-17.067c-1.067-5.333-11.733-30.933-17.067-36.267
	c-6.4-6.4-6.4-6.4-6.4-6.4l-34.133-35.2L179.2,402.133z"/>
<path style="fill:#FFD15C;" d="M290.133,323.2c0,0,4.267,4.267,5.333,6.4s2.133,2.133,5.333,3.2c3.2,1.067,6.4,3.2,8.533,5.333
	s1.067,2.133,1.067,4.267s1.067,3.2,0,3.2c0,0,0,2.133-1.067,3.2c0,0-1.067,3.2-3.2,3.2c0,0-1.067,2.133-4.267,1.067
	c0,0-1.067-1.067,0-2.133c0,0-1.067-1.067-1.067-2.133c-1.067-1.067-2.133-3.2-2.133-3.2h-3.2c0,0,3.2,8.533-2.133,8.533v-3.2
	c0,0-1.067-2.133-2.133-3.2c-1.067-1.067-1.067-2.133-1.067-3.2s0-5.333-1.067-6.4c-1.067-2.133-8.533-6.4-8.533-6.4
	C281.6,325.333,284.8,322.133,290.133,323.2z"/>
<path style="fill:#E8EAE9;" d="M281.6,333.867c1.067-4.267,4.267-10.667,8.533-9.6L281.6,316.8l-10.667,9.6L281.6,333.867z"/>
<ellipse transform="matrix(-0.1927 -0.9813 0.9813 -0.1927 -38.7713 539.9534)" style="fill:#FFD15C;" cx="202.731" cy="285.926" rx="5.334" ry="3.2"/>
<path style="fill:#F7B64C;" d="M181.333,300.8l1.067,7.467l13.867,8.533c7.467-4.267,8.533-12.8,8.533-12.8
	C197.333,316.8,181.333,300.8,181.333,300.8z"/>
<polygon style="fill:#CED6E0;" points="192,311.467 195.2,312.533 198.4,311.467 206.933,307.2 208,300.8 224,320 197.333,360.533 
	163.2,314.667 181.333,307.2 "/>
<g>
	<path style="fill:#F3705A;" d="M199.467,315.733l1.067,3.2c0,0,1.067,4.267,1.067,6.4c0,1.067,4.267,14.933,3.2,22.4
		c-1.067,6.4-1.067,6.4-1.067,6.4l-12.8-2.133c0,0-1.067-17.067,0-22.4c1.067-5.333,5.333-8.533,6.4-9.6
		C197.333,317.867,199.467,315.733,199.467,315.733z"/>
	<path style="fill:#F3705A;" d="M192,314.667c0,0,4.267,3.2,4.267,4.267c1.067-1.067,3.2-1.067,4.267,0l3.2-6.4l-5.333-1.067
		l-2.133,1.067L192,314.667z"/>
</g>
<g>
	<path style="fill:#F3F3F3;" d="M205.867,300.8c0,0,0,6.4-7.467,10.667c0,0,7.467,2.133,8.533,7.467L209.067,304L205.867,300.8z"/>
	<path style="fill:#F3F3F3;" d="M181.333,302.933c0,0,7.467,7.467,13.867,9.6c0,0-4.267,3.2-7.467,9.6l-7.467-14.933
		L181.333,302.933z"/>
</g>
<path style="fill:#415A6B;" d="M216.533,290.133c4.267,0,7.467,2.133,9.6,5.333c1.067,1.067,2.133,2.133,2.133,3.2
	c1.067,3.2,1.067,2.133,6.4,3.2c5.333,1.067,12.8,1.067,17.067,1.067S262.4,304,265.6,305.067
	c3.2,1.067,20.267,14.933,20.267,14.933s-6.4,2.133-7.467,7.467c-1.067,4.267,0,6.4,0,6.4s-10.667-7.467-12.8-9.6
	s-2.133-2.133-3.2-3.2c-1.067,0-3.2-1.067-3.2-1.067s-2.133,2.133-7.467,2.133c-5.333,0-5.333,0-8.533,0
	c-3.2,1.067-11.733,2.133-12.8,2.133c0,0,1.067-17.067-4.267-23.467C219.733,292.267,216.533,290.133,216.533,290.133
	L216.533,290.133z"/>
<path style="fill:#344A5E;" d="M234.667,401.067c0,0-1.067,3.2-6.4,1.067c-5.333-1.067-22.4-20.267-26.667-27.733
	s-2.133-26.667-2.133-26.667c5.333-4.267,22.4-19.2,19.2-26.667c-2.133-5.333-8.533-18.133-12.8-23.467c0-1.067,0-2.133,0-4.267
	l10.667-4.267c0,0,6.4-1.067,9.6,5.333c0,1.067,1.067,2.133,1.067,4.267c2.133,7.467,4.267,17.067,4.267,21.333l0,0
	c0,3.2-1.067,5.333-2.133,5.333l0,0c-2.133,4.267-6.4,13.867-7.467,20.267c-2.133,8.533,0,12.8,0,17.067
	c0,5.333,2.133,10.667,5.333,14.933C229.333,382.933,234.667,401.067,234.667,401.067z"/>
<g>
	<path style="fill:#415A6B;" d="M221.867,326.4c-4.267,8.533-18.133,20.267-23.467,21.333c0,0,13.867-12.8,14.933-16
		c1.067-3.2,2.133-6.4,2.133-11.733c-1.067-3.2-5.333-12.8-9.6-19.2c0-2.133,0-4.267,0-6.4c4.267,1.067,10.667,4.267,10.667,4.267
		l-1.067,3.2h5.333C219.733,300.8,226.133,317.867,221.867,326.4z"/>
	<path style="fill:#415A6B;" d="M158.933,297.6l-2.133-3.2c0,0-2.133-2.133-3.2,2.133c-2.133,4.267-2.133,6.4-2.133,7.467
		s-2.133,2.133-5.333,2.133s-3.2,0-6.4,0c-3.2,0-3.2,2.133-5.333,1.067s-4.267-2.133-5.333-1.067
		c-2.133,1.067-7.467,1.067-10.667,2.133c-3.2,1.067-16,20.267-16,20.267s8.533-3.2,13.867,0c2.133,2.133,4.267,5.333,4.267,5.333
		s5.333-6.4,6.4-7.467c1.067-2.133,1.067-1.067,2.133-1.067c0,0,2.133,1.067,3.2,1.067c2.133,0,26.667,1.067,26.667,1.067V297.6z"/>
</g>
<path style="fill:#344A5E;" d="M193.067,343.467l5.333,4.267c0,0,5.333,26.667-1.067,42.667c-6.4,17.067-9.6,23.467-17.067,22.4
	c-7.467-1.067-5.333-3.2-9.6-6.4c-4.267-3.2-5.333-1.067-6.4-4.267s0-25.6,1.067-37.333c0-11.733,2.133-13.867,0-19.2
	c-2.133-4.267-6.4-14.933-7.467-19.2c-1.067-5.333-4.267-22.4-2.133-26.667s2.133-5.333,2.133-5.333s10.667,1.067,13.867,2.133
	c2.133,0,6.4,0,8.533,2.133c0,0-4.267,12.8-5.333,18.133C171.733,321.067,193.067,343.467,193.067,343.467z"/>
<path style="fill:#415A6B;" d="M181.333,300.8c0,0,1.067,5.333-1.067,9.6s-5.333,8.533-5.333,10.667
	c0,3.2,23.467,27.733,23.467,27.733s-13.867-9.6-20.267-14.933c-6.4-5.333-12.8-11.733-12.8-17.067s2.133-8.533,2.133-8.533
	l4.267,1.067l-2.133-3.2c0,0,3.2,0,4.267-1.067c1.067-1.067,5.333-6.4,5.333-6.4L181.333,300.8z"/>
<ellipse transform="matrix(-0.5321 -0.8467 0.8467 -0.5321 24.1252 604.2084)" style="fill:#FFD15C;" cx="179.016" cy="295.438" rx="5.333" ry="3.2"/>
<path style="fill:#415A6B;" d="M201.6,283.733L201.6,283.733c1.067,0,1.067-6.4-2.133-11.733c-3.2-5.333-10.667-6.4-17.067-5.333
	c-6.4,1.067-12.8,9.6-12.8,14.933s8.533,12.8,8.533,12.8h1.067c0,0-4.267-7.467-4.267-9.6c0-3.2,1.067-5.333,1.067-5.333
	s5.333,0,11.733-3.2c7.467-3.2,7.467-3.2,8.533-2.133C198.4,274.133,199.467,277.333,201.6,283.733z"/>
<g>
	<path style="fill:#F3705A;" d="M284.8,334.933L284.8,334.933c-1.067-1.067-2.133-1.067-1.067-2.133c0,0,3.2-6.4,8.533-8.533
		c1.067,0,2.133,0,2.133,1.067s0,2.133-1.067,2.133c-3.2,1.067-6.4,5.333-6.4,7.467C285.867,334.933,285.867,334.933,284.8,334.933z
		"/>
	<path style="fill:#F3705A;" d="M284.8,334.933c-1.067,0-1.067-1.067-1.067-1.067s0-7.467,4.267-12.8
		c1.067-1.067,1.067-1.067,2.133,0c1.067,1.067,1.067,1.067,0,2.133c-3.2,4.267-3.2,10.667-3.2,10.667
		C286.933,334.933,285.867,334.933,284.8,334.933L284.8,334.933z"/>
	<path style="fill:#F3705A;" d="M280.533,334.933L280.533,334.933c-1.067,0-2.133-1.067-1.067-2.133
		c0-1.067,23.467-126.933,24.533-136.533c0-1.067,1.067-1.067,2.133-1.067c1.067,0,1.067,1.067,1.067,2.133
		c-1.067,9.6-23.467,131.2-24.533,136.533C282.667,333.867,281.6,334.933,280.533,334.933z"/>
	<path style="fill:#F3705A;" d="M297.6,201.6c-2.133,0-3.2,0-5.333-1.067c-1.067,0-1.067-1.067,0-2.133c0-1.067,1.067-1.067,2.133,0
		c3.2,2.133,8.533,0,11.733-4.267c1.067-2.133,2.133-5.333,2.133-7.467c0-2.133-1.067-4.267-3.2-5.333c-1.067,0-1.067-1.067,0-2.133
		c0-1.067,1.067-1.067,2.133,0c2.133,2.133,4.267,4.267,4.267,7.467c0,3.2-1.067,6.4-3.2,9.6
		C306.133,198.4,301.867,201.6,297.6,201.6z"/>
	<path style="fill:#F3705A;" d="M288,344.533L288,344.533c-1.067-1.067-2.133-1.067-1.067-2.133
		c4.267-7.467,2.133-14.933,2.133-14.933c0-1.067,0-2.133,1.067-2.133c1.067,0,2.133,0,2.133,1.067c0,0,3.2,8.533-2.133,17.067
		C289.067,344.533,289.067,344.533,288,344.533z"/>
	<path style="fill:#F3705A;" d="M120.533,334.933c-1.067,0-1.067,0-1.067-1.067c-5.333-8.533-14.933-6.4-16-6.4
		c-1.067,0-2.133,0-2.133-1.067s0-2.133,1.067-2.133c0,0,12.8-2.133,19.2,7.467C122.667,332.8,122.667,333.867,120.533,334.933
		C121.6,334.933,120.533,334.933,120.533,334.933z"/>
	<path style="fill:#F3705A;" d="M102.4,337.067h-1.067c-1.067-1.067-1.067-2.133,0-2.133c0,0,6.4-6.4,18.133-4.267
		c1.067,0,1.067,1.067,1.067,2.133s-1.067,1.067-2.133,1.067c-9.6-2.133-14.933,3.2-14.933,3.2
		C103.467,336,102.4,337.067,102.4,337.067z"/>
	<path style="fill:#F3705A;" d="M99.2,356.267c0,0-1.067,0-1.067-1.067s0-2.133,0-2.133s7.467-5.333,8.533-11.733
		c1.067-7.467,2.133-10.667,3.2-10.667c0-1.067,1.067-1.067,2.133-1.067s1.067,1.067,1.067,2.133c0,0-1.067,3.2-2.133,9.6
		C108.8,349.867,100.267,355.2,99.2,356.267L99.2,356.267z"/>
	<path style="fill:#F3705A;" d="M115.2,160c-4.267,0-8.533-1.067-12.8-3.2s-8.533-6.4-9.6-10.667c-2.133-4.267-2.133-8.533,0-11.733
		c0-1.067,1.067-1.067,2.133-1.067C96,133.333,96,134.4,96,135.467c-3.2,5.333,1.067,12.8,8.533,18.133
		c4.267,2.133,8.533,3.2,11.733,3.2s6.4-2.133,7.467-4.267c0-1.067,1.067-1.067,2.133-1.067s1.067,1.067,1.067,2.133
		c-2.133,3.2-5.333,5.333-10.667,5.333C116.267,160,116.267,160,115.2,160z"/>
	<path style="fill:#F3705A;" d="M145.067,233.6c-2.133,0-4.267,0-6.4-1.067c-9.6-2.133-14.933-9.6-13.867-16
		c0-1.067,1.067-1.067,2.133-1.067c1.067,0,1.067,1.067,1.067,2.133c-1.067,5.333,4.267,10.667,11.733,12.8
		c4.267,1.067,7.467,1.067,10.667,0c3.2-1.067,4.267-3.2,5.333-5.333c0-1.067,1.067-1.067,2.133-1.067s1.067,1.067,1.067,2.133
		c-1.067,3.2-3.2,5.333-7.467,7.467C149.333,233.6,147.2,233.6,145.067,233.6z"/>
	<path style="fill:#F3705A;" d="M200.533,226.133c-1.067,0-1.067,0-2.133,0c-8.533-1.067-16-6.4-14.933-12.8
		c0-1.067,1.067-1.067,2.133-1.067c1.067,0,1.067,1.067,1.067,2.133c0,4.267,5.333,8.533,11.733,9.6c3.2,0,7.467,0,9.6-2.133
		c2.133-1.067,4.267-3.2,4.267-5.333c0-1.067,1.067-1.067,2.133-1.067c1.067,0,1.067,1.067,1.067,2.133c0,3.2-2.133,6.4-5.333,7.467
		C206.933,225.067,203.733,226.133,200.533,226.133z"/>
	<path style="fill:#F3705A;" d="M245.333,214.4c-7.467,0-13.867-4.267-13.867-9.6c0-1.067,1.067-2.133,1.067-2.133
		c1.067,0,2.133,1.067,2.133,1.067c0,4.267,6.4,7.467,12.8,6.4c3.2,0,6.4-1.067,8.533-3.2s3.2-3.2,3.2-5.333
		c0-1.067,1.067-2.133,1.067-2.133c1.067,0,2.133,1.067,2.133,1.067c0,3.2-1.067,6.4-4.267,8.533c-3.2,2.133-6.4,3.2-10.667,4.267
		C247.467,214.4,246.4,214.4,245.333,214.4z"/>
	<path style="fill:#F3705A;" d="M109.867,327.467c-1.067,0-1.067-1.067-1.067-1.067l-6.4-171.733c0-1.067,1.067-2.133,1.067-2.133
		c1.067,0,2.133,1.067,2.133,1.067l5.333,171.733C110.933,327.467,109.867,327.467,109.867,327.467L109.867,327.467z"/>
	<path style="fill:#F3705A;" d="M166.4,492.8c-1.067,0-1.067,0-1.067-1.067c-3.2-7.467-5.333-14.933-5.333-23.467
		c0-1.067,1.067-2.133,1.067-2.133c1.067,0,2.133,1.067,2.133,1.067c1.067,8.533,2.133,14.933,5.333,22.4
		C168.533,491.733,168.533,492.8,166.4,492.8C167.467,492.8,166.4,492.8,166.4,492.8z"/>
	<path style="fill:#F3705A;" d="M163.2,493.867c-1.067,0-1.067,0-1.067-1.067c-3.2-7.467-5.333-14.933-5.333-23.467
		c0-1.067,1.067-2.133,1.067-2.133c1.067,0,2.133,1.067,2.133,1.067c1.067,8.533,2.133,14.933,5.333,22.4
		C164.267,491.733,164.267,492.8,163.2,493.867L163.2,493.867z"/>
	<path style="fill:#F3705A;" d="M158.933,496c-1.067,0-1.067,0-1.067-1.067c-3.2-7.467-5.333-14.933-5.333-23.467
		c0-1.067,1.067-2.133,1.067-2.133c1.067,0,2.133,1.067,2.133,1.067c1.067,8.533,2.133,14.933,5.333,22.4
		C161.067,493.867,161.067,494.933,158.933,496C160,496,158.933,496,158.933,496z"/>
	<path style="fill:#F3705A;" d="M225.067,488.533L225.067,488.533c-7.467-1.067-13.867-3.2-20.267-7.467
		c-1.067,0-1.067-1.067-1.067-2.133c0-1.067,1.067-1.067,2.133-1.067c6.4,3.2,11.733,6.4,18.133,7.467
		c1.067,0,1.067,1.067,1.067,2.133C226.133,488.533,226.133,488.533,225.067,488.533z"/>
	<path style="fill:#F3705A;" d="M224,492.8L224,492.8c-6.4-1.067-13.867-3.2-20.267-7.467c-1.067,0-1.067-1.067-1.067-2.133
		c0-1.067,1.067-1.067,2.133-1.067c6.4,3.2,11.733,6.4,18.133,7.467c1.067,0,1.067,1.067,1.067,2.133
		C225.067,491.733,225.067,492.8,224,492.8z"/>
	<path style="fill:#F3705A;" d="M222.933,497.067L222.933,497.067C215.467,496,208,492.8,201.6,489.6
		c-1.067,0-1.067-1.067-1.067-2.133c0-1.067,1.067-1.067,2.133-1.067c6.4,4.267,12.8,6.4,20.267,7.467
		c1.067,0,1.067,1.067,1.067,2.133C225.067,496,224,497.067,222.933,497.067z"/>
</g>
<g>
</g>
<g>
</g>
<g>
</g>
<g>
</g>
<g>
</g>
<g>
</g>
<g>
</g>
<g>
</g>
<g>
</g>
<g>
</g>
<g>
</g>
<g>
</g>
<g>
</g>
<g>
</g>
<g>
</g>
</svg>
