<?xml version="1.0" encoding="iso-8859-1"?>
<!-- Generator: Adobe Illustrator 19.0.0, SVG Export Plug-In . SVG Version: 6.00 Build 0)  -->
<svg version="1.1" id="Capa_1" xmlns="http://www.w3.org/2000/svg" xmlns:xlink="http://www.w3.org/1999/xlink" x="0px" y="0px"
	 viewBox="0 0 510.933 510.933" style="enable-background:new 0 0 510.933 510.933;" xml:space="preserve">
<path style="fill:#CED6E0;" d="M340.267,364.8c-1.067-3.2-27.733-14.933-38.4-12.8c-10.667,2.133-36.267,7.467-48,6.4
	c-11.733-1.067-53.333,8.533-72.533,14.933c-17.067,5.333-58.667,21.333-80,25.6v112c1.067-1.067,2.133-1.067,3.2-2.133
	c0,0,32-6.4,38.4-10.667c6.4-4.267,35.2-10.667,38.4-10.667c2.133,0,78.933-17.067,85.333-22.4c6.4-4.267,10.667-9.6,13.867-10.667
	c3.2-1.067,50.133-29.867,53.333-30.933c3.2-1.067,0-24.533-1.067-26.667c-2.133-2.133-11.733-7.467-11.733-7.467s12.8-8.533,16-9.6
	c4.267-1.067,3.2-8.533,3.2-8.533S340.267,368,340.267,364.8z"/>
<g>
	<polygon style="fill:#ADB3BA;" points="198.4,371.2 123.733,397.867 240,366.933 194.133,376.533 	"/>
	<polygon style="fill:#ADB3BA;" points="331.733,364.8 268.8,395.733 281.6,392.533 235.733,425.6 318.933,389.333 301.867,390.4 	
		"/>
	<polygon style="fill:#ADB3BA;" points="308.267,422.4 245.333,462.933 157.867,482.133 237.867,457.6 253.867,441.6 
		218.667,456.533 227.2,443.733 308.267,407.467 	"/>
	<polygon style="fill:#ADB3BA;" points="248.533,385.067 100.267,433.067 100.267,436.267 113.067,437.333 100.267,444.8 
		100.267,457.6 163.2,432 168.533,434.133 240,403.2 204.8,410.667 	"/>
	<polygon style="fill:#ADB3BA;" points="100.267,482.133 100.267,493.867 210.133,440.533 	"/>
</g>
<path style="fill:#FFD15C;" d="M249.6,138.667l-1.067-2.133c-1.067-1.067-1.067-2.133-1.067-3.2V128c0,0,0-1.067,0-2.133
	s-1.067-2.133-1.067-2.133s-2.133,0-2.133,4.267c0,0,0,2.133,0,3.2c0,0,0,0-1.067,0c-1.067,0-4.267-6.4-4.267-8.533
	s-2.133-2.133-2.133-1.067c-1.067,1.067,2.133,7.467,2.133,7.467l0,0c0,0-3.2-4.267-4.267-6.4c-1.067-2.133-1.067-2.133-1.067-2.133
	c-1.067-1.067-3.2,0-2.133,1.067l4.267,8.533l0,0l-4.267-6.4c-1.067-1.067-3.2,0-2.133,1.067l4.267,6.4l0,0l-4.267-4.267
	c-1.067-1.067-3.2,0-1.067,2.133l5.333,6.4c0,0,2.133,3.2,5.333,4.267c4.267,1.067,6.4,4.267,6.4,4.267L249.6,138.667z"/>
<rect x="209.054" y="82.049" transform="matrix(-0.6377 -0.7703 0.7703 -0.6377 421.178 365.3995)" style="fill:#415A6B;" width="174.935" height="3.2"/>
<g>
	<path style="fill:#FFD15C;" d="M337.067,148.267c0,0,1.067-4.267,2.133-6.4c1.067-1.067,4.267-4.267,4.267-5.333
		c0-1.067,0-3.2-1.067-3.2c0,0,0-1.067-1.067-2.133c0,0,0-2.133-2.133-1.067c0,0-1.067-2.133-3.2-1.067c0,0,1.067,1.067-1.067,3.2
		l-2.133-2.133c0,0-1.067,1.067-1.067,3.2s0,6.4-2.133,10.667C329.6,144,336,145.067,337.067,148.267z"/>
	<path style="fill:#FFD15C;" d="M304,174.933c0,0-1.067,3.2-2.133,7.467c0,3.2,0,3.2,0,3.2h-14.933c0,0,0-6.4-1.067-9.6
		c-1.067-3.2-1.067-4.267-1.067-4.267L304,174.933z"/>
	
		<ellipse transform="matrix(0.2192 -0.9757 0.9757 0.2192 69.4743 432.5623)" style="fill:#FFD15C;" cx="304.999" cy="172.874" rx="3.2" ry="2.133"/>
	
		<ellipse transform="matrix(-0.2192 -0.9757 0.9757 -0.2192 178.661 488.6904)" style="fill:#FFD15C;" cx="284.872" cy="172.857" rx="3.2" ry="2.133"/>
</g>
<path style="fill:#CED6E0;" d="M277.333,235.733l-1.067-1.067c0,0-3.2-8.533-4.267-18.133c-1.067-9.6-2.133-18.133-2.133-18.133
	s-5.333-6.4-6.4-9.6c-2.133-3.2-5.333-12.8-5.333-12.8l-16-32l7.467-7.467c0,0,6.4,9.6,10.667,16
	c4.267,7.467,5.333,10.667,7.467,13.867c3.2,3.2,5.333,7.467,6.4,9.6c1.067,2.133,2.133,2.133,4.267,4.267
	c2.133,2.133,6.4,5.333,6.4,5.333s0-2.133,1.067-2.133c1.067-1.067,6.4-1.067,9.6-1.067s5.333,1.067,6.4,1.067v2.133
	c0,0,5.333-1.067,6.4-3.2c2.133-2.133,3.2-4.267,5.333-5.333c2.133-1.067,2.133-4.267,4.267-7.467c1.067-2.133,7.467-12.8,8.533-16
	c1.067-3.2,3.2-7.467,3.2-7.467s6.4-1.067,7.467,5.333c0,0-2.133,8.533-4.267,13.867c-3.2,5.333-4.267,9.6-5.333,10.667
	c-1.067,1.067,0,4.267-1.067,5.333c-1.067,1.067-1.067,2.133-1.067,3.2s-1.067,4.267-1.067,4.267s-3.2,9.6-6.4,13.867
	c0,0-6.4,32-9.6,38.4c-3.2,6.4-3.2,5.333-3.2,5.333L277.333,235.733z"/>
<g>
	<path style="fill:#344A5E;" d="M262.4,359.467c0-2.133,2.133-2.133,3.2-2.133c0,0,1.067,2.133,3.2,2.133
		c5.333,1.067,10.667,2.133,10.667,2.133s1.067,6.4,0,8.533c0,0-8.533,0-10.667-3.2v-1.067
		C268.8,365.867,262.4,362.667,262.4,359.467C262.4,360.533,262.4,359.467,262.4,359.467z"/>
	<path style="fill:#344A5E;" d="M317.867,354.133c0,0,1.067,2.133,0,5.333c-1.067,3.2-3.2,6.4-4.267,7.467
		c-1.067,1.067-4.267,0-5.333,0s-2.133-1.067-2.133-2.133c0-2.133,0-4.267,0-6.4c1.067-3.2,1.067-4.267,1.067-4.267
		S316.8,354.133,317.867,354.133z"/>
</g>
<g>
	<path style="fill:#415A6B;" d="M292.267,276.267c0,0,0,5.333,3.2,14.933c3.2,9.6,7.467,24.533,7.467,24.533s1.067,37.333,3.2,44.8
		c0,0,5.333,1.067,8.533-1.067c3.2-2.133,3.2-3.2,3.2-3.2s0-24.533-1.067-36.267c-1.067-11.733-1.067-20.267-2.133-26.667
		S315.733,272,313.6,262.4c-1.067-10.667-4.267-24.533-4.267-24.533s-22.4,0-32-2.133c0,0-4.267,7.467-7.467,29.867
		c-3.2,23.467,0,38.4,0,43.733c-1.067,5.333-2.133,46.933-2.133,49.067c0,2.133,5.333,5.333,8.533,5.333s5.333,1.067,5.333,1.067
		s1.067-21.333,1.067-33.067s2.133-16,3.2-23.467s1.067-10.667,3.2-16C291.2,286.933,291.2,277.333,292.267,276.267"/>
	<path style="fill:#415A6B;" d="M282.667,165.333c0,0,2.133,7.467,4.267,11.733c2.133,4.267,3.2,4.267,6.4,4.267
		c3.2,0,6.4,1.067,8.533-2.133c2.133-3.2,5.333-10.667,5.333-13.867c0-3.2-2.133-9.6-10.667-11.733
		C288,152.533,281.6,158.933,282.667,165.333z"/>
</g>
<circle style="fill:#FFD15C;" cx="238.933" cy="14.933" r="5.333"/>
<path style="fill:#F3705A;" d="M241.067,21.333l52.267-13.867c21.333-2.133,53.333,0,62.933,0S374.4,0,374.4,0s0,11.733,5.333,22.4
	c4.267,10.667,30.933,34.133,30.933,34.133s-18.133,6.4-32,10.667c-14.933,4.267-51.2,10.667-59.733,12.8
	c-6.4,2.133-18.133,8.533-21.333,10.667L241.067,21.333z"/>
<g>
</g>
<g>
</g>
<g>
</g>
<g>
</g>
<g>
</g>
<g>
</g>
<g>
</g>
<g>
</g>
<g>
</g>
<g>
</g>
<g>
</g>
<g>
</g>
<g>
</g>
<g>
</g>
<g>
</g>
</svg>
