<?xml version="1.0" encoding="iso-8859-1"?>
<!-- Generator: Adobe Illustrator 19.0.0, SVG Export Plug-In . SVG Version: 6.00 Build 0)  -->
<svg version="1.1" id="Capa_1" xmlns="http://www.w3.org/2000/svg" xmlns:xlink="http://www.w3.org/1999/xlink" x="0px" y="0px"
	 viewBox="0 0 512.301 512.301" style="enable-background:new 0 0 512.301 512.301;" xml:space="preserve">
<polygon style="fill:#415A6B;" points="139.087,410.284 118.82,383.617 71.887,410.284 "/>
<path style="fill:#FFD15C;" d="M276.687,250.284c0,0,8.533-2.133,11.733-3.2c3.2-1.067,5.333-2.133,6.4-4.267
	c1.067-2.133,4.267-5.333,7.467-8.533c2.133-2.133,4.267-3.2,7.467-3.2h8.533c1.067,0,1.067,0,2.133,0
	c1.067,1.067,3.2,1.067,3.2,2.133c1.067,0,5.333,1.067,5.333,2.133s-1.067,4.267-3.2,5.333c0,0,5.333,0,4.267,4.267
	c-1.067,3.2-2.133,4.267-2.133,4.267s1.067,1.067,0,3.2c0,2.133-2.133,2.133-2.133,2.133s1.067,1.067,1.067,3.2s0,2.133-2.133,3.2
	c-2.133,1.067-4.267,2.133-6.4,2.133s-10.667,1.067-13.867,2.133c-5.333,0-24.533,11.733-24.533,11.733
	S269.22,267.35,276.687,250.284z"/>
<path style="fill:#F3F3F3;" d="M279.887,249.217l5.333-2.133c0,0-2.133,18.133,3.2,27.733l-10.667,4.267l-7.467-18.133
	L279.887,249.217z"/>
<g>
	<path style="fill:#4ABAA5;" d="M312.953,166.017c-1.067,0-2.133,0-2.133-1.067c0,0-6.4-19.2-20.267-28.8
		c-9.6-6.4-17.067-7.467-24.533-8.533c-3.2,0-5.333-1.067-8.533-1.067c-8.533-2.133-21.333-13.867-21.333-13.867
		c-1.067-1.067-1.067-2.133,0-3.2c1.067-1.067,2.133-1.067,3.2,0c0,0,11.733,10.667,20.267,12.8
		c2.133,1.067,5.333,1.067,7.467,1.067c7.467,1.067,16,2.133,25.6,9.6c13.867,9.6,21.333,29.867,21.333,30.933
		C315.087,163.884,315.087,164.95,312.953,166.017L312.953,166.017z"/>
	<path style="fill:#4ABAA5;" d="M312.953,284.417c-1.067,0-2.133,0-2.133,1.067c0,0-6.4,19.2-20.267,28.8
		c-9.6,6.4-17.067,7.467-24.533,8.533c-3.2,0-5.333,1.067-8.533,1.067c-8.533,2.133-21.333,13.867-21.333,13.867
		c-1.067,1.067-1.067,2.133,0,3.2c1.067,1.067,2.133,1.067,3.2,0c0,0,11.733-10.667,20.267-12.8
		c2.133-1.067,5.333-1.067,7.467-1.067c7.467-1.067,16-2.133,25.6-9.6c13.867-9.6,21.333-29.867,21.333-30.933
		C315.087,286.55,315.087,285.484,312.953,284.417L312.953,284.417z"/>
</g>
<polygon style="fill:#415A6B;" points="327.887,220.417 125.22,230.017 125.22,234.284 327.887,224.684 "/>
<path style="fill:#E8EAE9;" d="M332.153,220.417h-4.267v4.267h5.333c6.4,0,12.8-1.067,19.2-3.2h1.067
	C346.02,220.417,338.553,220.417,332.153,220.417z"/>
<path style="fill:#415A6B;" d="M125.22,232.15c0,0,8.533,2.133,16,8.533c7.467,6.4,22.4,12.8,28.8,14.933
	c6.4,1.067,32,7.467,39.467,6.4c7.467-1.067,46.933-7.467,55.467-9.6c8.533-2.133,14.933-4.267,14.933-4.267s-8.533,22.4,6.4,32
	c0,0-11.733,2.133-19.2,2.133c-7.467,0-20.267,9.6-32,10.667c-11.733,1.067-90.667,1.067-90.667,1.067L125.22,232.15z"/>
<polygon style="fill:#CED6E0;" points="107.087,350.55 126.287,240.684 44.153,244.95 "/>
<path style="fill:#2E4454;" d="M30.287,363.35c-2.133,11.733-3.2,30.933-4.267,46.933h81.067c0-1.067,0-3.2,1.067-4.267
	c1.067-8.533,0-88.533,0-88.533c0-4.267-7.467-21.333-13.867-28.8c-6.4-6.4-41.6-43.733-42.667-51.2
	c-1.067-7.467,4.267-13.867,4.267-13.867s-5.333,2.133-10.667,9.6c-5.333,6.4-16-1.067-21.333,5.333
	c-6.4,6.4,10.667,87.467,10.667,87.467S34.553,340.95,30.287,363.35z"/>
<path style="fill:#344A5E;" d="M54.82,224.684c0,0-5.333,8.533,10.667,25.6c16,16,34.133,39.467,38.4,51.2
	c4.267,11.733,3.2,16,3.2,16s-6.4-18.133-17.067-26.667s-38.4-30.933-42.667-45.867S54.82,224.684,54.82,224.684z"/>
<path style="fill:#2E4454;" d="M104.953,410.284h48c-2.133-17.067-5.333-37.333-6.4-45.867c-1.067-16-3.2-32-2.133-43.733
	c1.067-11.733,1.067-25.6,1.067-25.6s4.267-13.867,2.133-26.667c-2.133-12.8-16-32-18.133-34.133
	c-4.267-2.133-20.267-8.533-19.2,1.067c2.133,11.733,0,66.133-5.333,83.2c-5.333,17.067-6.4,69.333-2.133,89.6
	C104.953,408.15,104.953,409.217,104.953,410.284z"/>
<polygon style="fill:#E8EAE9;" points="236.153,346.284 124.153,231.084 125.22,230.017 236.153,104.15 237.22,106.284 
	127.353,231.084 237.22,345.217 "/>
<circle style="fill:#415A6B;" cx="237.22" cy="342.017" r="6.4"/>
<circle style="fill:#344A5E;" cx="237.22" cy="342.017" r="3.2"/>
<circle style="fill:#415A6B;" cx="237.22" cy="108.417" r="6.4"/>
<circle style="fill:#344A5E;" cx="237.22" cy="108.417" r="3.2"/>
<path style="fill:#415A6B;" d="M115.62,232.15c0,0,5.333,20.267,2.133,41.6s-10.667,43.733-10.667,43.733s1.067-26.667,0-40.533
	c-1.067-14.933-8.533-40.533-8.533-40.533L115.62,232.15z"/>
<path style="fill:#F7B64C;" d="M51.62,240.684l3.2-16c0,0-6.4-12.8-8.533-23.467c-2.133-11.733,8.533-29.867,8.533-29.867
	l35.2-5.333c0,0,11.733,18.133,13.867,23.467c2.133,6.4,0,4.267,0,6.4c0,3.2,3.2,10.667,3.2,14.933s0,16-1.067,20.267
	c-1.067,4.267-3.2,6.4-3.2,6.4L51.62,240.684z"/>
<path style="fill:#FFD15C;" d="M80.42,232.15c0,0,8.533-1.067,13.867-4.267c5.333-3.2,12.8-6.4,17.067-7.467
	c4.267-2.133,7.467-4.267,12.8-2.133c4.267,2.133,12.8,8.533,12.8,8.533s1.067,1.067,1.067,4.267c0,3.2-1.067,7.467-4.267,7.467
	c0,0-2.133,3.2-3.2,4.267c0,0-3.2,5.333-7.467,5.333c-4.267-1.067-5.333-3.2-5.333-3.2s-6.4,2.133-10.667,2.133s-3.2,0-5.333,0
	s-13.867,3.2-13.867,3.2L80.42,232.15z"/>
<g>
	<path style="fill:#F7B64C;" d="M125.22,246.017h-1.067h-1.067c-1.067,0-1.067-1.067-2.133-1.067c0,1.067,0,1.067,1.067,2.133
		c0-1.067-1.067-1.067-2.133-2.133c0,0,0,0-1.067,0c1.067,0,2.133,0,2.133-1.067v1.067c0,0,0,1.067,1.067,1.067
		S124.153,246.017,125.22,246.017z"/>
	<path style="fill:#F7B64C;" d="M130.553,241.75L130.553,241.75c0,0-2.133-3.2-4.267-4.267s-2.133-2.133-3.2-2.133
		C123.087,235.35,127.353,238.55,130.553,241.75z"/>
	<path style="fill:#F7B64C;" d="M133.753,238.55L133.753,238.55L133.753,238.55c-1.067,0-2.133-2.133-3.2-4.267
		c-1.067-2.133-2.133-3.2-3.2-4.267c1.067,1.067,2.133,2.133,3.2,3.2C131.62,235.35,133.753,237.484,133.753,238.55z"/>
	<path style="fill:#F7B64C;" d="M132.687,234.284c0,0,1.067,0,0-1.067c0-1.067-5.333-7.467-5.333-7.467s4.267,6.4,4.267,7.467
		C131.62,233.217,131.62,234.284,132.687,234.284z"/>
</g>
<path style="fill:#F3F3F3;" d="M81.487,232.15c0,0,4.267-2.133,6.4-2.133c0,0,4.267,10.667,6.4,19.2l-14.933,4.267L81.487,232.15z"
	/>
<g>
	<path style="fill:#415A6B;" d="M82.553,231.084c0,0,9.6,12.8,9.6,22.4c0,0-25.6,8.533-29.867,10.667
		c-4.267,2.133-19.2,7.467-19.2,7.467s-4.267,16-6.4,28.8c-2.133,12.8-3.2,25.6-3.2,25.6s-2.133-7.467-3.2-11.733
		s-4.267-9.6-8.533-14.933c-4.267-5.333-18.133-17.067-20.267-23.467c-2.133-6.4-2.133-14.933,1.067-21.333
		c2.133-6.4,4.267-7.467,7.467-9.6c3.2-2.133,8.533-5.333,14.933-7.467c6.4-2.133,24.533-2.133,29.867-3.2
		S82.553,231.084,82.553,231.084z"/>
	<path style="fill:#415A6B;" d="M94.287,172.417c0,0-6.4,0-9.6,1.067c-4.267,1.067-17.067,7.467-20.267,8.533
		c-2.133,1.067-1.067,6.4,2.133,10.667c3.2,4.267,0,13.867,1.067,18.133l-3.2,1.067c0,0-3.2-7.467-10.667-8.533
		c-6.4-1.067,2.133,20.267,2.133,20.267s-5.333-6.4-9.6-13.867c-4.267-7.467-7.467-20.267-6.4-32
		c2.133-11.733,16-20.267,25.6-21.333C74.02,156.417,93.22,156.417,94.287,172.417"/>
</g>
<path style="fill:#4ABAA5;" d="M322.553,272.684l-14.933,27.733l-10.667-12.8c6.4-11.733,9.6-25.6,9.6-40.533
	c0-5.333-2.133-7.467,0-13.867c2.133-6.4,1.067-7.467,1.067-7.467s1.067-1.067-1.067-7.467c-2.133-6.4,0-9.6,0-13.867
	c0-14.933-3.2-28.8-9.6-40.533l10.667-12.8l14.933,27.733c-3.2,1.067-5.333,4.267-5.333,7.467l0,0c0,6.4,1.067,16,2.133,19.2
	c0,0,0,1.067,1.067,1.067c5.333,11.733,5.333,25.6,0,37.333c0,1.067,0,1.067-1.067,1.067c-1.067,2.133-2.133,12.8-2.133,19.2l0,0
	C318.287,268.417,320.42,271.617,322.553,272.684z"/>
<path style="fill:#F7B64C;" d="M325.753,240.684c-1.067,0-2.133,1.067-4.267,1.067c-1.067,0-1.067,0-2.133,1.067
	c-1.067,0-1.067,1.067-2.133,1.067l0,0l0,0c-1.067,0-1.067,0-2.133,0s-1.067,0-2.133,0h-1.067h-1.067h-1.067c0,0,0,0-1.067,1.067
	l0,0l0,0l0,0l0,0l0,0l0,0l0,0l0,0l0,0l0,0l0,0l0,0l0,0l0,0h1.067h1.067h1.067v1.067l0,0c0,0-1.067,0-2.133,0
	c-1.067,0-1.067,0-2.133,0c0,0-1.067,0-1.067,1.067c0,0,0,0-1.067,0l0,0l0,0l0,0l0,0l0,0l0,0l0,0c0,0,0,0,0,1.067c0,0,0,0,0,1.067
	l1.067,1.067c0,0,1.067,0,2.133,0h1.067l-1.067,1.067l0,0l0,0v1.067l0,0l0,0l0,0l0,0h1.067h1.067h1.067h1.067h-1.067h-1.067h-1.067
	h-1.067l0,0l0,0l0,0l0,0v-1.067l0,0h-1.067c-1.067,0-1.067,0-2.133-1.067c0,0,0-1.067-1.067-1.067v-1.067l0,0l0,0l0,0l0,0l0,0l0,0
	l0,0c0,0,0,0,0-1.067l0,0l0,0c0,0,0,0,1.067-1.067c1.067,0,1.067-1.067,2.133-1.067l0,0l0,0h-1.067l0,0c0,0,0,0,0-1.067
	c0,0,0,0,0-1.067c0,0,0,0,0-1.067c0,0,0,0,0-1.067c0,0,0,0,0-1.067l0,0l0,0l0,0l0,0l0,0l1.067-1.067c0,0,1.067,0,1.067-1.067h1.067
	h1.067c1.067,0,1.067,0,2.133,0c1.067,0,1.067,0,2.133,0s1.067-1.067,2.133-1.067c1.067,0,1.067,0,2.133-1.067
	C322.553,240.684,323.62,240.684,325.753,240.684z"/>
<path style="fill:#FFD15C;" d="M328.953,244.95c-1.067,3.2-2.133,4.267-2.133,4.267s1.067,1.067,0,3.2
	c0,2.133-2.133,2.133-2.133,2.133s1.067,1.067,1.067,3.2c0,2.133,0,2.133-2.133,3.2s-4.267,2.133-6.4,2.133
	c-7.467-1.067-5.333-5.333-5.333-5.333s-4.267,1.067-4.267-3.2c0-3.2,6.4-3.2,6.4-3.2s-6.4,0-4.267-4.267
	c2.133-4.267,8.533-2.133,8.533-2.133c1.067-1.067,7.467-2.133,7.467-2.133S330.02,240.684,328.953,244.95z"/>
<g>
	<path style="fill:#F7B64C;" d="M314.02,250.284c0,0,1.067,0,2.133,1.067c1.067,0,3.2,0,4.267-1.067c3.2-1.067,6.4-1.067,6.4-1.067
		s-3.2,1.067-6.4,2.133c-1.067,0-3.2,1.067-4.267,0C315.087,250.284,314.02,250.284,314.02,250.284z"/>
	<path style="fill:#F7B64C;" d="M311.887,256.684c0,0,1.067,0,2.133-1.067c1.067,0,3.2,0,4.267,0c3.2,0,6.4-1.067,6.4-1.067
		s-3.2,1.067-6.4,2.133c-2.133,0-3.2,0-4.267,0C311.887,256.684,311.887,256.684,311.887,256.684z"/>
</g>
<path style="fill:#FFD15C;" d="M325.753,240.684c0,0-5.333,1.067-9.6-2.133c0,0-2.133,3.2-11.733,4.267l-7.467-2.133
	c1.067-2.133,4.267-5.333,6.4-7.467c2.133-2.133,4.267-3.2,7.467-3.2h8.533c1.067,0,1.067,0,2.133,0
	c1.067,1.067,3.2,1.067,3.2,2.133c1.067,0,5.333,1.067,5.333,2.133C328.953,237.484,327.887,239.617,325.753,240.684z"/>
<path style="fill:#F3705A;" d="M366.287,228.95c6.4,48,43.733,83.2,84.267,77.867c40.533-5.333,67.2-48,60.8-96
	c-6.4-48-43.733-83.2-84.267-77.867C387.62,138.284,359.887,180.95,366.287,228.95z"/>
<path style="fill:#F3F3F3;" d="M376.953,227.884c5.333,37.333,34.133,64,65.067,60.8c30.933-4.267,52.267-37.333,48-74.667
	c-5.333-37.333-34.133-64-65.067-60.8S372.687,190.55,376.953,227.884z"/>
<path style="fill:#F3705A;" d="M422.82,170.284c-22.4,3.2-38.4,27.733-35.2,54.4c3.2,27.733,24.533,46.933,48,44.8
	c22.4-3.2,38.4-27.733,35.2-54.4S445.22,168.15,422.82,170.284z"/>
<path style="fill:#F3F3F3;" d="M453.753,217.217c-2.133-18.133-16-30.933-30.933-28.8c-14.933,2.133-25.6,18.133-22.4,36.267
	c2.133,18.133,16,30.933,30.933,28.8C446.287,251.35,455.887,235.35,453.753,217.217z"/>
<path style="fill:#F3705A;" d="M439.887,219.35c-1.067-8.533-7.467-14.933-14.933-13.867c-7.467,1.067-12.8,8.533-10.667,17.067
	s7.467,14.933,14.933,13.867C435.62,235.35,440.953,227.884,439.887,219.35z"/>
<g>
</g>
<g>
</g>
<g>
</g>
<g>
</g>
<g>
</g>
<g>
</g>
<g>
</g>
<g>
</g>
<g>
</g>
<g>
</g>
<g>
</g>
<g>
</g>
<g>
</g>
<g>
</g>
<g>
</g>
</svg>
