<?xml version="1.0" encoding="iso-8859-1"?>
<!-- Generator: Adobe Illustrator 19.0.0, SVG Export Plug-In . SVG Version: 6.00 Build 0)  -->
<svg version="1.1" id="Capa_1" xmlns="http://www.w3.org/2000/svg" xmlns:xlink="http://www.w3.org/1999/xlink" x="0px" y="0px"
	 viewBox="0 0 512 512" style="enable-background:new 0 0 512 512;" xml:space="preserve">
<g>
	<path style="fill:#415A6B;" d="M328.533,106.667h-1.067c-1.067-1.067-2.133-2.133-1.067-3.2C348.8,64,362.667,48,374.4,48l0,0
		c1.067,0,2.133,1.067,2.133,3.2c0,1.067-1.067,2.133-3.2,2.133l0,0c-10.667,0-29.867,29.867-42.667,52.267
		C329.6,106.667,329.6,106.667,328.533,106.667z"/>
	<path style="fill:#415A6B;" d="M348.8,102.4c-3.2,0-6.4-1.067-8.533-3.2c-9.6-8.533-2.133-34.133-2.133-37.333
		c0-1.067,2.133-2.133,3.2-2.133s2.133,2.133,2.133,3.2c-3.2,9.6-5.333,26.667,0,32c2.133,2.133,5.333,2.133,10.667,1.067
		c1.067,0,3.2,0,3.2,2.133c0,1.067,0,3.2-2.133,3.2C353.067,102.4,350.933,102.4,348.8,102.4z"/>
</g>
<g>
	<path style="fill:#344A5E;" d="M341.333,66.133C340.267,66.133,340.267,66.133,341.333,66.133c-2.133-1.067-3.2-2.133-2.133-3.2
		c0,0,4.267-10.667,12.8-13.867c4.267-1.067,8.533-1.067,12.8,1.067c1.067,1.067,2.133,2.133,1.067,3.2
		c-1.067,1.067-2.133,2.133-3.2,1.067c-4.267-1.067-6.4-2.133-9.6-1.067c-5.333,2.133-8.533,8.533-9.6,10.667
		C343.467,65.067,342.4,66.133,341.333,66.133z"/>
	<path style="fill:#344A5E;" d="M242.133,243.2c-2.133,0-3.2-1.067-4.267-2.133c-4.267-4.267-2.133-14.933,0-21.333
		c3.2-6.4,6.4-7.467,8.533-7.467c1.067,0,2.133,1.067,2.133,3.2c0,1.067-1.067,2.133-3.2,2.133c-1.067,0-4.267,5.333-5.333,10.667
		c-1.067,4.267,0,7.467,1.067,7.467c0,0,2.133,0,4.267-1.067c1.067-1.067,3.2,0,3.2,1.067c1.067,1.067,0,3.2-1.067,3.2
		C245.333,243.2,244.267,243.2,242.133,243.2z"/>
	<path style="fill:#344A5E;" d="M254.933,251.733c-1.067,0-1.067,0-2.133-1.067c-1.067-1.067-1.067-3.2,0-4.267
		c8.533-8.533,11.733-14.933,10.667-19.2c-2.133-5.333-10.667-8.533-18.133-8.533c-1.067,0-2.133-1.067-2.133-3.2
		c0-1.067,1.067-2.133,3.2-2.133c4.267,0,19.2,3.2,22.4,12.8c2.133,6.4-2.133,14.933-11.733,24.533
		C256,251.733,254.933,251.733,254.933,251.733z"/>
</g>
<path style="fill:#CED6E0;" d="M512,72.533c-2.133,2.133-3.2,3.2-5.333,5.333h-54.4v-9.6h54.4C508.8,69.333,509.867,70.4,512,72.533
	z"/>
<path style="fill:#55C0EB;" d="M183.467,0c46.933,0,83.2,72.533,83.2,72.533s-36.267,72.533-83.2,72.533
	c-20.267,0-37.333-17.067-37.333-37.333c0-16,10.667-29.867,25.6-35.2c-14.933-5.333-25.6-19.2-25.6-35.2
	C146.133,17.067,163.2,0,183.467,0z"/>
<path style="fill:#CED6E0;" d="M460.8,58.667V86.4c0,3.2-2.133,5.333-5.333,5.333h-24.533V52.267h24.533
	C458.667,52.267,460.8,55.467,460.8,58.667z"/>
<path style="fill:#8AD7F8;" d="M153.6,64c-9.6,0-9.6,17.067,0,17.067L406.4,92.8V52.267L153.6,64z"/>
<g>
	<path style="fill:#415A6B;" d="M430.933,52.267v39.467c0,2.133-1.067,3.2-3.2,3.2h-36.267c-2.133,0-3.2-1.067-3.2-3.2V52.267
		c0-2.133,1.067-3.2,3.2-3.2h36.267C429.867,50.133,430.933,51.2,430.933,52.267z"/>
	<path style="fill:#415A6B;" d="M354.133,101.333c-1.067,0-2.133-1.067-2.133-2.133c0-1.067,0-3.2,2.133-3.2
		c18.133-5.333,21.333-22.4,22.4-26.667c1.067-8.533-1.067-13.867-3.2-16c-1.067-1.067-1.067-2.133-1.067-3.2
		c0-1.067,2.133-1.067,3.2-1.067c4.267,3.2,6.4,11.733,5.333,21.333C378.667,85.333,369.067,97.067,354.133,101.333
		C355.2,101.333,355.2,101.333,354.133,101.333z"/>
</g>
<polygon style="fill:#F05540;" points="250.667,347.733 198.4,311.467 210.133,296.533 257.067,340.267 "/>
<circle style="fill:#F3705A;" cx="259.2" cy="347.733" r="10.667"/>
<polygon style="fill:#F05540;" points="141.867,261.333 188.8,304 200.533,289.067 148.267,252.8 "/>
<circle style="fill:#F3705A;" cx="139.733" cy="252.8" r="10.667"/>
<path style="fill:#F05540;" d="M214.4,281.6c-14.933-12.8-18.133-35.2-5.333-50.133c12.8-14.933,35.2-18.133,50.133-5.333
	c14.933,12.8,18.133,35.2,5.333,50.133C252.8,291.2,230.4,294.4,214.4,281.6z M250.667,236.8c-9.6-7.467-23.467-6.4-30.933,3.2
	c-7.467,9.6-6.4,23.467,3.2,30.933s23.467,6.4,30.933-3.2C262.4,258.133,260.267,244.267,250.667,236.8z"/>
<g>
	<path style="fill:#F3705A;" d="M228.267,481.067L170.667,512c0,0-19.2-5.333-36.267-5.333s-37.333-2.133-54.4-8.533
		c-14.933-5.333-33.067-1.067-38.4,1.067c0-6.4,1.067-24.533-7.467-38.4c-10.667-16-17.067-35.2-21.333-51.2
		C9.6,392.533,0,375.467,0,375.467l18.133-62.933c1.067-4.267,5.333-7.467,9.6-7.467l0,0c5.333,0,9.6,3.2,9.6,8.533l8.533,58.667
		c0,0-9.6,16-10.667,21.333c0,5.333,5.333,23.467,11.733,28.8c6.4,6.4,16,12.8,27.733,2.133C86.4,413.867,208,272,208,272
		l17.067,13.867c0,0-110.933,150.4-118.4,164.267c-7.467,13.867,1.067,22.4,7.467,26.667c6.4,4.267,25.6,6.4,30.933,5.333
		C150.4,481.067,163.2,467.2,163.2,467.2l58.667-5.333c5.333,0,9.6,3.2,10.667,7.467l0,0
		C234.667,474.667,232.533,478.933,228.267,481.067z"/>
	<path style="fill:#F3705A;" d="M235.733,276.267l-10.667,12.8c-1.067,1.067-3.2,2.133-5.333,0l-13.867-11.733
		c-1.067-1.067-2.133-3.2-1.067-5.333l10.667-12.8c1.067-2.133,3.2-2.133,5.333-1.067l14.933,11.733
		C236.8,272,237.867,275.2,235.733,276.267z"/>
</g>
<g>
	<path style="fill:#344A5E;" d="M258.133,292.267c-5.333-6.4-9.6-13.867-11.733-21.333c-3.2-8.533,0-17.067,6.4-23.467h1.067
		l1.067,2.133l2.133,2.133c-5.333,4.267-6.4,11.733-4.267,18.133c2.133,7.467,6.4,13.867,10.667,20.267
		C265.6,292.267,261.333,295.467,258.133,292.267z"/>
	<path style="fill:#344A5E;" d="M246.4,242.133c-1.067,0-2.133,0-2.133-1.067c-1.067-1.067,0-3.2,1.067-3.2
		c16-8.533,103.467-139.733,114.133-176c1.067-5.333,1.067-6.4,1.067-6.4c-1.067-1.067-1.067-3.2,0-3.2
		c1.067-1.067,3.2-1.067,4.267,0c1.067,1.067,2.133,4.267,1.067,7.467c-4.267,28.8-99.2,171.733-117.333,182.4
		C247.467,242.133,247.467,242.133,246.4,242.133z"/>
</g>
<g>
</g>
<g>
</g>
<g>
</g>
<g>
</g>
<g>
</g>
<g>
</g>
<g>
</g>
<g>
</g>
<g>
</g>
<g>
</g>
<g>
</g>
<g>
</g>
<g>
</g>
<g>
</g>
<g>
</g>
</svg>
