<?xml version="1.0" encoding="iso-8859-1"?>
<!-- Generator: Adobe Illustrator 19.0.0, SVG Export Plug-In . SVG Version: 6.00 Build 0)  -->
<svg version="1.1" id="Capa_1" xmlns="http://www.w3.org/2000/svg" xmlns:xlink="http://www.w3.org/1999/xlink" x="0px" y="0px"
	 viewBox="0 0 513.067 513.067" style="enable-background:new 0 0 513.067 513.067;" xml:space="preserve">
<path style="fill:#CED6E0;" d="M60.8,453.301c0,0-4.267,4.267-8.533,5.333l10.667,17.067l12.8,2.133c0,0,0-17.067,7.467-22.4
	L60.8,453.301z"/>
<path style="fill:#415A6B;" d="M41.6,466.101l-2.133,2.133l10.667,11.733l2.133-2.133c0,0,3.2,2.133,4.267,3.2s2.133,9.6,9.6,14.933
	c7.467,5.333,17.067,13.867,22.4,14.933c5.333,1.067,5.333-3.2,5.333-3.2L41.6,466.101z"/>
<path style="fill:#344A5E;" d="M53.333,455.435c0,0-9.6,4.267-11.733,10.667c0,0,9.6,11.733,13.867,14.933
	c0,0,4.267,10.667,11.733,17.067s17.067,13.867,23.467,13.867c6.4,0-5.333-9.6-8.533-13.867c-3.2-4.267-4.267-22.4-5.333-24.533
	c0,0-4.267-2.133-13.867-4.267C53.333,467.168,53.333,455.435,53.333,455.435z"/>
<path style="fill:#CED6E0;" d="M295.467,440.501c0,0,4.267,4.267,4.267,9.6l19.2-8.533l4.267-11.733c0,0-17.067-2.133-21.333-9.6
	L295.467,440.501z"/>
<path style="fill:#344A5E;" d="M204.8,299.701c0,0,13.867,14.933,24.533,20.267c10.667,4.267,25.6,20.267,30.933,25.6
	c5.333,6.4,4.267,12.8,10.667,23.467c6.4,10.667,17.067,28.8,22.4,35.2c4.267,5.333,16,16,16,16s2.133,9.6-3.2,17.067
	c-6.4,7.467-11.733,7.467-11.733,7.467s-32-29.867-41.6-42.667c-9.6-12.8-21.333-38.4-21.333-38.4s-11.733-4.267-19.2-9.6
	c-7.467-5.333-42.667-18.133-42.667-18.133s-14.933,10.667-19.2,18.133s-23.467,36.267-37.333,46.933
	c-13.867,10.667-17.067,21.333-19.2,25.6S80,466.101,80,466.101s-4.267-3.2-16-5.333c-11.733-2.133-16-5.333-16-5.333
	s11.733-10.667,14.933-17.067c2.133-7.467,10.667-29.867,24.533-50.133s34.133-48,37.333-56.533
	c3.2-8.533-5.333-29.867,7.467-45.867s12.8-16,12.8-16L204.8,299.701z"/>
<g>
	<path style="fill:#FFD15C;" d="M274.133,142.901c0,0,3.2,12.8,1.067,18.133c0,0-2.133,2.133-1.067,3.2
		c0,1.067,2.133,5.333,2.133,7.467s-2.133,3.2-4.267,3.2c0,0-1.067,3.2,0,4.267c0,1.067,0,1.067-1.067,1.067c0,0,2.133,1.067,0,3.2
		c-1.067,2.133-2.133,4.267-2.133,5.333c0,4.267-7.467,3.2-14.933,1.067c0,0-3.2,7.467-4.267,13.867s-1.067,6.4-1.067,6.4
		L227.2,175.968l3.2-10.667L274.133,142.901z"/>
	<path style="fill:#FFD15C;" d="M105.6,223.968c0,0-6.4,1.067-10.667,3.2s-4.267,6.4-3.2,7.467c0,0-5.333,2.133-4.267,4.267
		c1.067,2.133,6.4-1.067,6.4-1.067v1.067l-9.6,4.267c0,0-1.067,0-1.067,1.067s0,1.067,0,2.133c1.067,0,1.067,0,2.133,0
		c2.133-1.067,7.467-2.133,7.467-3.2c1.067,0,3.2-1.067,3.2-1.067l1.067,1.067c0,0-7.467,6.4-8.533,7.467
		c-1.067,1.067,0,2.133,1.067,3.2c1.067,1.067,6.4-2.133,7.467-4.267c1.067-2.133,5.333-5.333,5.333-5.333h1.067
		c0,0-6.4,5.333-4.267,9.6l3.2-2.133c0,0,2.133,0,2.133-1.067c0-1.067,2.133-3.2,4.267-4.267c1.067-1.067,2.133-3.2,3.2-4.267
		l3.2-9.6l4.267-5.333l-8.533-7.467L105.6,223.968z"/>
</g>
<path style="fill:#E8EAE9;" d="M110.933,215.435l-5.333,5.333c0,0,3.2,11.733,8.533,16l8.533-8.533"/>
<path style="fill:#415A6B;" d="M228.267,166.368c0,0,6.4,3.2,11.733-1.067c5.333-5.333,8.533-8.533,12.8-6.4s3.2,10.667,3.2,10.667
	h4.267c0,0,1.067-7.467,4.267-10.667c3.2-2.133,6.4-9.6,3.2-12.8c0,0,8.533,2.133,8.533-3.2c1.067-5.333-2.133-9.6-8.533-11.733
	c-5.333-2.133-17.067-7.467-27.733-2.133C229.333,133.301,227.2,162.101,228.267,166.368z"/>
<path style="fill:#FFD15C;" d="M345.6,172.768l16-6.4l6.4-11.733c0,0,4.267-5.333,5.333-6.4l1.067-3.2c0,0,5.333-1.067,2.133,6.4
	c0,0,3.2-5.333,5.333-7.467s9.6-5.333,9.6-5.333s2.133,1.067,1.067,3.2c-1.067,2.133-4.267,3.2-5.333,4.267s-5.333,6.4-5.333,6.4
	s0,1.067,1.067,1.067s5.333-4.267,7.467-5.333c2.133-1.067,7.467-2.133,7.467-2.133s5.333,1.067,3.2,3.2
	c-2.133,2.133-5.333,2.133-8.533,3.2c-3.2,1.067-6.4,4.267-6.4,4.267l1.067,1.067c0,0,2.133,0,5.333,0c3.2,0,5.333,0,5.333,0
	s2.133,4.267,0,4.267s-10.667,1.067-11.733,1.067s-1.067,1.067-1.067,1.067s3.2,0,5.333,1.067c2.133,1.067,3.2,3.2,1.067,4.267
	c-2.133,1.067-6.4,1.067-6.4,1.067s-4.267,7.467-19.2,9.6l-18.133,10.667L345.6,172.768z"/>
<path style="fill:#E8EAE9;" d="M347.733,171.701c0,0,4.267,6.4,6.4,17.067l-16,7.467l-6.4-18.133L347.733,171.701z"/>
<g>
	<path style="fill:#415A6B;" d="M338.133,174.901c0,0,7.467,9.6,7.467,22.4c0,0-33.067,13.867-38.4,17.067
		c-5.333,2.133-52.267,10.667-52.267,10.667s-8.533,17.067-17.067,28.8c-8.533,11.733-23.467,34.133-27.733,40.533
		c-4.267,6.4-5.333,11.733-5.333,11.733s-53.333,2.133-80-20.267c0,0,16-21.333,23.467-29.867c7.467-8.533,17.067-12.8,19.2-20.267
		c2.133-7.467,9.6-21.333,9.6-21.333s-11.733,2.133-21.333,5.333c-9.6,3.2-36.267,16-36.267,16s-10.667-5.333-10.667-21.333
		c0,0,20.267-8.533,26.667-11.733c6.4-3.2,23.467-10.667,28.8-10.667c6.4-1.067,25.6-7.467,32-13.867c6.4-6.4,19.2-3.2,20.267-2.133
		c1.067,1.067,3.2,0,3.2,0l4.267-5.333c0,0,9.6,5.333,17.067,11.733c7.467,6.4,11.733,13.867,11.733,13.867s9.6,2.133,19.2,0
		c9.6-2.133,13.867-1.067,17.067-2.133c3.2-1.067,9.6-5.333,14.933-7.467C307.2,185.568,338.133,174.901,338.133,174.901z"/>
	<path style="fill:#415A6B;" d="M306.133,460.768l2.133,3.2l12.8-8.533L320,453.301c0,0,2.133-3.2,4.267-4.267
		c2.133-1.067,9.6-1.067,16-7.467c6.4-6.4,16-14.933,17.067-20.267c2.133-5.333-2.133-5.333-2.133-5.333L306.133,460.768z"/>
</g>
<path style="fill:#344A5E;" d="M296.533,447.968c0,0,3.2,9.6,9.6,12.8c0,0,12.8-7.467,17.067-12.8c0,0,11.733-2.133,18.133-9.6
	c6.4-7.467,16-14.933,16-21.333c1.067-6.4-10.667,3.2-14.933,6.4c-4.267,3.2-22.4,1.067-25.6,2.133c0,0-2.133,4.267-6.4,12.8
	C307.2,447.968,296.533,447.968,296.533,447.968z"/>
<rect x="467.2" y="8.501" style="fill:#415A6B;" width="4.267" height="92.8"/>
<path style="fill:#FFD15C;" d="M464,98.101c1.067,1.067,2.133,3.2,1.067,4.267l0,0c-1.067,2.133-16,8.533-18.133,11.733
	c-2.133,4.267-6.4,20.267-7.467,29.867c-1.067,9.6-4.267,16-7.467,23.467c-3.2,7.467,1.067,9.6,6.4,11.733
	c5.333,3.2,16,2.133,28.8,3.2c11.733,1.067,35.2-1.067,40.533-3.2c5.333-2.133,5.333-4.267,5.333-8.533c0-3.2-6.4-9.6-8.533-13.867
	c-1.067-4.267-1.067-12.8-1.067-12.8s-1.067-5.333-2.133-9.6c-1.067-4.267-2.133-13.867-5.333-19.2
	c-3.2-5.333-19.2-11.733-21.333-13.867c-1.067-2.133-1.067-3.2-1.067-3.2c1.067-2.133,11.733-11.733,11.733-11.733
	s-5.333-1.067-9.6,0c-4.267,1.067-7.467,2.133-11.733,2.133c-4.267,0-7.467-2.133-7.467-2.133s-3.2,0-1.067,4.267
	C455.467,92.768,461.867,97.035,464,98.101z"/>
<g>
	<path style="fill:#415A6B;" d="M465.067,99.168h9.6c1.067,0,1.067,2.133,0,2.133h-8.533C465.067,102.368,464,99.168,465.067,99.168
		z"/>
	<path style="fill:#415A6B;" d="M468.267,107.701c1.067-2.133,2.133-4.267,2.133-6.4h-2.133c0,2.133-1.067,4.267-2.133,5.333
		c-1.067,1.067-2.133,3.2-2.133,4.267c-1.067,4.267-1.067,8.533,1.067,12.8l1.067,1.067l0,0c1.067,0,1.067-1.067,1.067-1.067
		c-1.067-3.2-2.133-7.467-1.067-10.667C466.133,110.901,467.2,108.768,468.267,107.701z"/>
	<path style="fill:#415A6B;" d="M478.933,114.101c0-1.067-1.067-1.067-1.067-2.133c-3.2-3.2-5.333-6.4-5.333-10.667h-3.2
		c0,5.333,3.2,8.533,6.4,12.8c0,1.067,1.067,1.067,1.067,2.133c3.2,4.267,5.333,8.533,4.267,13.867c0,1.067,0,1.067,1.067,1.067l0,0
		c1.067,0,1.067,0,1.067-1.067C484.267,123.701,483.2,118.368,478.933,114.101z"/>
	<path style="fill:#415A6B;" d="M469.333,162.101v-9.6c-3.2-1.067-5.333-2.133-6.4-4.267s-2.133-4.267-2.133-6.4
		c0-2.133,1.067-4.267,2.133-6.4c1.067-2.133,3.2-3.2,6.4-3.2v-2.133h3.2v2.133c2.133,0,4.267,1.067,5.333,2.133
		c1.067,1.067,2.133,3.2,3.2,5.333l-5.333,1.067c0-2.133-1.067-3.2-3.2-3.2v8.533c3.2,1.067,6.4,2.133,7.467,4.267
		c1.067,1.067,2.133,3.2,2.133,6.4s-1.067,5.333-2.133,7.467c-2.133,2.133-4.267,3.2-7.467,3.2v4.267h-3.2v-4.267
		c-2.133,0-4.267-1.067-6.4-3.2c-2.133-2.133-3.2-4.267-3.2-7.467l6.4-1.067c0,1.067,1.067,2.133,1.067,3.2
		C468.267,161.035,468.267,161.035,469.333,162.101z M469.333,137.568c-1.067,0-2.133,1.067-2.133,1.067
		c0,1.067-1.067,1.067-1.067,2.133s0,1.067,1.067,2.133c0,1.067,1.067,1.067,2.133,2.133V137.568z M472.533,162.101
		c1.067,0,2.133-1.067,3.2-1.067c1.067-1.067,1.067-2.133,1.067-3.2c0-1.067,0-2.133-1.067-2.133
		c-1.067-1.067-1.067-1.067-3.2-2.133V162.101z"/>
</g>
<path style="fill:#F3705A;" d="M470.4,5.301c-65.067-6.4-130.133-5.333-192,2.133c-1.067-1.067-3.2-2.133-5.333-2.133
	c-56.533,6.4-112,18.133-164.267,34.133c-2.133-1.067-5.333-2.133-7.467-1.067c-35.2,11.733-67.2,24.533-96,38.4
	C2.133,77.834,0,81.035,0,85.301l0,0c0,6.4,6.4,10.667,12.8,8.533c27.733-13.867,58.667-26.667,93.867-38.4
	c2.133-1.067,4.267-3.2,5.333-5.333c48-14.933,101.333-26.667,162.133-34.133c2.133,0,3.2-1.067,4.267-3.2
	c57.6-6.4,121.6-7.467,190.933-2.133c2.133,0,3.2-1.067,3.2-3.2C472.533,6.368,471.467,5.301,470.4,5.301z"/>
<g>
</g>
<g>
</g>
<g>
</g>
<g>
</g>
<g>
</g>
<g>
</g>
<g>
</g>
<g>
</g>
<g>
</g>
<g>
</g>
<g>
</g>
<g>
</g>
<g>
</g>
<g>
</g>
<g>
</g>
</svg>
