<?xml version="1.0" encoding="iso-8859-1"?>
<!-- Generator: Adobe Illustrator 19.0.0, SVG Export Plug-In . SVG Version: 6.00 Build 0)  -->
<svg version="1.1" id="Capa_1" xmlns="http://www.w3.org/2000/svg" xmlns:xlink="http://www.w3.org/1999/xlink" x="0px" y="0px"
	 viewBox="0 0 514.133 514.133" style="enable-background:new 0 0 514.133 514.133;" xml:space="preserve">
<path style="fill:#66C6B9;" d="M429.867,375.121C429.867,375.121,428.8,375.121,429.867,375.121c-2.133-1.067-3.2-3.2-3.2-4.267
	c2.133-6.4,6.4-10.667,11.733-12.8c3.2-1.067,6.4-1.067,9.6,0c1.067,1.067,2.133,3.2,1.067,4.267
	c-1.067,1.067-3.2,2.133-4.267,1.067c-1.067-1.067-3.2,0-4.267,0c-3.2,1.067-6.4,4.267-7.467,8.533
	C433.067,374.054,430.933,375.121,429.867,375.121z"/>
<path style="fill:#415A6B;" d="M441.6,402.854v-108.8c0-2.133-2.133-3.2-3.2-3.2l0,0c-2.133,0-3.2,2.133-3.2,3.2v108.8H441.6z"/>
<path style="fill:#F3705A;" d="M492.8,313.254c-17.067-9.6-34.133,28.8-51.2,18.133c0-11.733,0-24.533,0-36.267
	C458.667,317.521,475.733,291.921,492.8,313.254L492.8,313.254z"/>
<path style="fill:#CED6E0;" d="M377.6,512.721c2.133-4.267,4.267-6.4,6.4-9.6c3.2-6.4,3.2-12.8,3.2-21.333s2.133-34.133,3.2-45.867
	c1.067-11.733,11.733-16,11.733-20.267s5.333-11.733,5.333-11.733s2.133-6.4,5.333-10.667c4.267-3.2,19.2-18.133,23.467-20.267
	c4.267-2.133,9.6-1.067,13.867,0c3.2,1.067,17.067,11.733,17.067,14.933c1.067,3.2,4.267,6.4,7.467,9.6
	c3.2,4.267,6.4,20.267,6.4,20.267s8.533,9.6,14.933,14.933c5.333,5.333,14.933,16,16,28.8c1.067,11.733,1.067,34.133,2.133,50.133
	H377.6V512.721z"/>
<g>
	<path style="fill:#ADB3BA;" d="M377.6,512.721c2.133-4.267,4.267-6.4,6.4-9.6c3.2-6.4,3.2-12.8,3.2-21.333
		c0-5.333,1.067-16,2.133-26.667l2.133,53.333l-2.133,4.267H377.6z"/>
	<polygon style="fill:#ADB3BA;" points="418.133,512.721 405.333,512.721 403.2,497.788 428.8,388.988 428.8,507.388 419.2,491.388 
			"/>
	<path style="fill:#ADB3BA;" d="M496,512.721c-1.067-11.733,0-17.067-7.467-40.533c-9.6-28.8-24.533-68.267-24.533-68.267l16,22.4
		c0,0,12.8,20.267,17.067,29.867c4.267,9.6,5.333,25.6,5.333,43.733c0,4.267,0,8.533,1.067,12.8L496,512.721L496,512.721z"/>
	<path style="fill:#ADB3BA;" d="M464,512.721c0-1.067-2.133-43.733-2.133-45.867c0,0,6.4,24.533,11.733,45.867H464z"/>
</g>
<path style="fill:#66C6B9;" d="M444.8,374.054c0,1.067,0,1.067-1.067,2.133l0,0c-34.133,36.267-76.8,49.067-120.533,49.067
	c-117.333,0-243.2-94.933-245.333-96c-1.067-1.067-2.133-3.2-1.067-4.267s3.2-2.133,4.267-1.067c2.133,2.133,233.6,176,358.4,48l0,0
	c1.067-1.067,1.067-1.067,2.133-1.067C443.733,370.854,444.8,371.921,444.8,374.054z"/>
<path style="fill:#415A6B;" d="M98.133,397.521v-208c0-4.267-3.2-7.467-7.467-7.467l0,0c-4.267,0-7.467,3.2-7.467,7.467v206.933
	h14.933V397.521z"/>
<path style="fill:#CED6E0;" d="M171.733,512.721c-2.133-5.333-5.333-7.467-7.467-11.733c-4.267-7.467-4.267-16-4.267-25.6
	c0-9.6-2.133-41.6-4.267-55.467c-2.133-13.867-13.867-19.2-13.867-24.533c0-5.333-7.467-14.933-7.467-14.933
	s-2.133-8.533-7.467-12.8c-4.267-4.267-24.533-21.333-29.867-24.533c-5.333-3.2-12.8-2.133-17.067,0
	c-4.267,2.133-21.333,14.933-22.4,18.133c0,4.267-4.267,7.467-8.533,12.8S41.6,398.588,41.6,398.588s-10.667,11.733-18.133,18.133
	c-7.467,6.4-18.133,19.2-20.267,35.2c-2.133,13.867-2.133,41.6-3.2,60.8H171.733z"/>
<g>
	<path style="fill:#ADB3BA;" d="M171.733,512.721c-2.133-5.333-5.333-7.467-7.467-11.733c-4.267-7.467-4.267-16-4.267-25.6
		c0-6.4-1.067-19.2-2.133-32l-3.2,65.067l1.067,5.333h16V512.721z"/>
	<polygon style="fill:#ADB3BA;" points="119.467,512.721 136.533,512.721 138.667,494.588 105.6,362.321 105.6,506.321 
		118.4,487.121 	"/>
	<path style="fill:#ADB3BA;" d="M20.267,512.721c1.067-13.867-1.067-20.267,9.6-49.067c12.8-35.2,30.933-83.2,30.933-83.2
		l-21.333,26.667c0,0-16,24.533-22.4,36.267c-5.333,11.733-6.4,32-6.4,53.333c0,4.267,0,10.667-1.067,16H20.267L20.267,512.721z"/>
	<path style="fill:#ADB3BA;" d="M61.867,512.721c0-2.133,3.2-53.333,3.2-55.467c0,0-8.533,28.8-14.933,55.467H61.867z"/>
</g>
<path style="fill:#F3705A;" d="M196.267,226.854c-32-19.2-65.067,53.333-97.067,35.2c0-23.467,0-45.867,0-69.333
	C131.2,234.321,163.2,185.254,196.267,226.854L196.267,226.854z"/>
<g>
	<path style="fill:#344A5E;" d="M392.533,396.454c0,0,4.267,9.6,4.267,18.133s0,8.533,0,8.533s-17.067,2.133-23.467-5.333v-4.267
		c0,0-10.667,3.2-19.2-3.2c-8.533-6.4-7.467-11.733-7.467-13.867c0-2.133,5.333-8.533,10.667-8.533S392.533,396.454,392.533,396.454
		z"/>
	<path style="fill:#344A5E;" d="M249.6,391.121c0,0-2.133,0-5.333-2.133c-4.267-1.067-11.733,2.133-10.667,8.533
		c1.067,6.4,8.533,12.8,13.867,13.867s10.667,1.067,10.667,1.067l-1.067,5.333c0,0,12.8,4.267,17.067,3.2
		c4.267-1.067,8.533-6.4,7.467-9.6c0-3.2-4.267-12.8-4.267-12.8C277.333,397.521,249.6,391.121,249.6,391.121z"/>
</g>
<path style="fill:#FFD15C;" d="M244.267,73.254c0,0-3.2,1.067-4.267-4.267c-1.067-4.267-3.2-3.2-2.133-6.4c0,0-2.133,0-1.067-2.133
	v-3.2c0,0-2.133,1.067-4.267,0s-2.133-2.133-2.133-3.2c0-1.067,3.2-8.533,3.2-8.533s-3.2-2.133-4.267-5.333
	c-1.067-3.2-2.133-10.667-2.133-13.867s6.4-9.6,8.533-10.667c2.133-1.067,13.867-3.2,19.2-2.133
	c5.333,1.067,23.467,19.2,23.467,19.2l6.4,14.933L244.267,73.254z"/>
<path style="fill:#415A6B;" d="M226.133,29.521c0,0,1.067-4.267,4.267-7.467c3.2-2.133,4.267-2.133,4.267,0s1.067,7.467,4.267,8.533
	s5.333,6.4,5.333,6.4l2.133-1.067c0,0-1.067-5.333,3.2-9.6s10.667,2.133,14.933,7.467s11.733,10.667,11.733,10.667l5.333-1.067
	c0,0,0-9.6-3.2-21.333c-3.2-11.733-11.733-19.2-22.4-21.333c-10.667-2.133-24.533,5.333-27.733,9.6S221.867,22.054,226.133,29.521z"
	/>
<path style="fill:#FFD15C;" d="M375.467,104.188c0,0,1.067-1.067,4.267-4.267c4.267-3.2,5.333-4.267,7.467-2.133
	c0,0,3.2-2.133,5.333-2.133c3.2,1.067,3.2,4.267,3.2,4.267s4.267,1.067,3.2,5.333c0,0,2.133,3.2,0,4.267
	c-2.133,1.067-3.2-2.133-3.2-2.133s-3.2,1.067-4.267,4.267s-3.2,4.267-3.2,4.267L375.467,104.188z"/>
<path style="fill:#415A6B;" d="M318.933,57.254c0,0,8.533,6.4,17.067,16c8.533,9.6,12.8,8.533,19.2,12.8
	c6.4,4.267,21.333,16,21.333,16s9.6,4.267,10.667,9.6c1.067,4.267,1.067,4.267,1.067,4.267s-4.267,6.4-11.733,7.467
	c-7.467,1.067-22.4-5.333-27.733-8.533c-5.333-3.2-14.933-4.267-21.333-10.667C320,96.721,318.933,57.254,318.933,57.254z"/>
<path style="fill:#CED6E0;" d="M218.667,109.521c0,0-6.4-3.2-7.467-5.333s6.4-23.467,18.133-20.267s12.8,4.267,12.8,4.267
	S233.6,108.454,218.667,109.521z"/>
<path style="fill:#FFD15C;" d="M232.533,108.454c0,0-9.6-4.267-18.133-6.4c-7.467-3.2-13.867-9.6-16-11.733
	c-2.133-2.133-10.667-8.533-10.667-8.533s3.2-6.4,8.533-2.133c6.4,2.133,6.4,2.133,6.4,2.133s0-3.2,0-6.4s-2.133-5.333-3.2-7.467
	c-1.067-2.133-6.4-5.333-6.4-5.333s5.333-5.333,8.533-1.067c0,0,8.533-1.067,10.667,1.067c3.2,2.133,3.2,4.267,3.2,4.267
	s5.333,1.067,4.267,8.533c0,0,6.4,0,6.4,6.4c0,6.4,0,6.4,0,6.4l12.8,4.267L232.533,108.454z"/>
<path style="fill:#415A6B;" d="M245.333,387.921c0,0,2.133,7.467,8.533,12.8c6.4,5.333,22.4,4.267,25.6,3.2
	c0,0,0-14.933-2.133-26.667c-2.133-10.667-3.2-45.867-2.133-54.4c1.067-8.533,1.067-8.533-1.067-13.867
	c-2.133-5.333,1.067-10.667,3.2-12.8c2.133-2.133,21.333-36.267,21.333-36.267s8.533,17.067,8.533,27.733
	c1.067,9.6,1.067,20.267,3.2,24.533c3.2,4.267,8.533,10.667,11.733,16c2.133,5.333,14.933,39.467,23.467,51.2
	c7.467,12.8,9.6,16,9.6,16s7.467,6.4,16,6.4s21.333-4.267,21.333-4.267s-4.267-17.067-7.467-25.6c-2.133-8.533-6.4-14.933-9.6-22.4
	c-3.2-7.467-18.133-39.467-21.333-41.6c-3.2-2.133-2.133-3.2-5.333-8.533c-3.2-5.333-4.267-19.2-4.267-29.867
	c1.067-10.667,7.467-52.267,2.133-70.4s-5.333-18.133-5.333-18.133l-65.067,5.333c0,0-13.867,17.067-16,23.467
	c-2.133,5.333-3.2,14.933-8.533,26.667s-7.467,11.733-8.533,21.333c-1.067,9.6-4.267,28.8-6.4,37.333
	c-3.2,8.533,2.133,22.4,3.2,29.867c1.067,7.467,4.267,49.067,3.2,53.333C245.333,381.521,245.333,387.921,245.333,387.921z"/>
<path style="fill:#344A5E;" d="M242.133,73.254c0,0,6.4,35.2,10.667,45.867c4.267,9.6,11.733,22.4,11.733,22.4
	s-6.4,61.867-3.2,81.067c0,0,55.467-4.267,72.533-10.667c18.133-6.4,22.4-9.6,22.4-9.6s-13.867-28.8-18.133-50.133
	c-4.267-21.333-9.6-42.667-8.533-48c1.067-5.333,9.6-29.867-3.2-42.667s-19.2-6.4-27.733-9.6c-5.333-2.133-8.533-5.333-10.667-7.467
	c-2.133-2.133-4.267-3.2-6.4-2.133c-3.2,1.067-8.533,2.133-14.933,6.4C254.933,56.188,242.133,73.254,242.133,73.254z"/>
<path style="fill:#415A6B;" d="M289.067,102.054c-3.2,4.267-17.067,9.6-25.6,10.667c-8.533,1.067-34.133,1.067-40.533,1.067
	c-6.4-1.067-10.667-6.4-11.733-8.533c0,0,5.333,4.267,10.667,3.2c1.067,0,2.133-1.067,3.2-1.067c3.2-3.2,6.4-8.533,5.333-13.867
	c0-1.067-1.067-2.133-1.067-3.2c0-1.067-1.067-2.133-1.067-2.133c0-1.067,0-2.133,0-5.333c5.333,0,13.867-1.067,17.067-2.133
	c5.333-1.067,12.8-3.2,12.8-4.267c0,0,0-4.267,8.533-6.4c8.533-3.2,19.2,7.467,21.333,11.733
	C290.133,84.988,292.267,96.721,289.067,102.054z"/>
<g>
	<path style="fill:#66C6B9;" d="M109.867,380.454H108.8c-2.133-1.067-3.2-3.2-2.133-4.267c0,0,3.2-11.733,1.067-37.333
		c-1.067-12.8-8.533-19.2-16-19.2c-3.2,0-7.467,2.133-8.533,7.467c0,2.133-2.133,3.2-4.267,3.2c-2.133,0-3.2-2.133-3.2-4.267
		c0-8.533,6.4-13.867,16-13.867s22.4,7.467,23.467,25.6c2.133,26.667-2.133,39.467-2.133,39.467
		C113.067,379.388,110.933,380.454,109.867,380.454z"/>
	<path style="fill:#66C6B9;" d="M441.6,377.254c-1.067,0-2.133,0-2.133-1.067c-1.067-1.067-1.067-3.2,0-4.267
		c3.2-3.2,5.333-7.467,5.333-8.533c-1.067-1.067-2.133-3.2-1.067-4.267c1.067-1.067,3.2-2.133,4.267-1.067
		c2.133,1.067,3.2,3.2,3.2,4.267c1.067,5.333-5.333,11.733-7.467,13.867C443.733,377.254,442.667,377.254,441.6,377.254z"/>
	<path style="fill:#66C6B9;" d="M436.267,403.921c-1.067,0-2.133,0-2.133-1.067c0,0-2.133-3.2-6.4-17.067
		c-2.133-4.267-2.133-9.6,0-14.933c1.067-2.133,2.133-2.133,4.267-2.133c2.133,1.067,2.133,2.133,2.133,4.267
		c-1.067,2.133-1.067,6.4,0,10.667c4.267,12.8,5.333,14.933,5.333,16c1.067,1.067,0,3.2-1.067,4.267
		C437.333,402.854,436.267,403.921,436.267,403.921z"/>
</g>
<g>
</g>
<g>
</g>
<g>
</g>
<g>
</g>
<g>
</g>
<g>
</g>
<g>
</g>
<g>
</g>
<g>
</g>
<g>
</g>
<g>
</g>
<g>
</g>
<g>
</g>
<g>
</g>
<g>
</g>
</svg>
