<?xml version="1.0" encoding="iso-8859-1"?>
<!-- Generator: Adobe Illustrator 19.0.0, SVG Export Plug-In . SVG Version: 6.00 Build 0)  -->
<svg version="1.1" id="Capa_1" xmlns="http://www.w3.org/2000/svg" xmlns:xlink="http://www.w3.org/1999/xlink" x="0px" y="0px"
	 viewBox="0 0 513.006 513.006" style="enable-background:new 0 0 513.006 513.006;" xml:space="preserve">
<g>
	
		<ellipse transform="matrix(0.1249 -0.9922 0.9922 0.1249 103.9218 296.7779)" style="fill:#FFD15C;" cx="220.2" cy="89.477" rx="18.134" ry="8.534"/>
	
		<ellipse transform="matrix(0.0775 0.997 -0.997 0.0775 206.6682 -47.7124)" style="fill:#FFD15C;" cx="129.117" cy="87.822" rx="18.133" ry="8.533"/>
	<path style="fill:#FFD15C;" d="M211.703,162.072l1.067-36.267c0,0,4.267-32,6.4-53.333c2.133-21.333-7.467-52.267-23.467-60.8
		s-35.2-6.4-45.867,2.133c-10.667,8.533-21.333,23.467-23.467,37.333c-2.133,13.867,1.067,58.667,1.067,58.667
		s2.133,12.8,10.667,26.667l-2.133,66.133h81.067L211.703,162.072z"/>
</g>
<path style="fill:#415A6B;" d="M314.103,302.872l-13.867-89.6c-2.133-16-13.867-29.867-28.8-36.267l-52.267-21.333
	c-12.8,16-26.667,27.733-42.667,29.867c-16-4.267-29.867-14.933-42.667-29.867l-52.267,21.333
	c-17.067,6.4-27.733,20.267-30.933,36.267l-13.867,89.6H314.103z"/>
<g>
	<path style="fill:#F3705A;" d="M186.103,222.872l12.8-12.8c0,0-14.933-23.467-23.467-23.467s-23.467,23.467-23.467,23.467
		l12.8,12.8H186.103z"/>
	<polygon style="fill:#F3705A;" points="202.103,302.872 186.103,222.872 164.769,222.872 148.769,302.872 	"/>
</g>
<path style="fill:#415A6B;" d="M218.103,93.806h-3.2c0,0-5.333-17.067-3.2-28.8c2.133-11.733,0-22.4-3.2-33.067
	c-4.267-10.667-12.8-22.4-35.2-24.533s-40.533,25.6-42.667,34.133c-1.067,9.6,2.133,16,1.067,23.467
	c-1.067,7.467-2.133,22.4-2.133,22.4h-3.2c0,0-6.4-29.867-2.133-45.867c4.267-14.933,16-33.067,35.2-39.467s42.667,3.2,50.133,12.8
	c2.133,4.267,4.267,7.467,6.4,11.733c8.533,20.267,9.6,42.667,3.2,62.933L218.103,93.806z"/>
<path style="fill:#F7B64C;" d="M137.036,195.139c13.867-2.133,32-6.4,44.8-17.067c22.4-20.267,32-51.2,32-51.2
	c-6.4,14.933-36.267,34.133-49.067,30.933c-12.8-3.2-25.6-21.333-25.6-21.333L137.036,195.139z"/>
<g>
	<path style="fill:#E8EAE9;" d="M213.836,142.872c0,0-10.667,27.733-38.4,43.733c0,0,24.533,12.8,29.867,24.533
		c5.333,11.733,5.333,12.8,5.333,12.8l19.2-58.667c0,0-1.067-6.4-7.467-11.733C215.969,148.206,219.169,141.806,213.836,142.872z"/>
	<path style="fill:#E8EAE9;" d="M139.169,142.872c0,0,9.6,26.667,36.267,42.667c0,0-24.533,12.8-29.867,24.533
		c-5.333,12.8-5.333,12.8-5.333,12.8l-19.2-58.667c0,0,1.067-6.4,7.467-11.733C134.903,147.139,133.836,142.872,139.169,142.872z"/>
</g>
<polygon style="fill:#ADB3BA;" points="300.236,407.406 50.636,407.406 0.503,311.406 350.369,311.406 "/>
<rect x="0.503" y="284.739" style="fill:#E8EAE9;" width="349.867" height="26.667"/>
<rect x="67.703" y="344.472" style="fill:#CED6E0;" width="214.4" height="168.533"/>
<path style="fill:#E8EAE9;" d="M241.569,513.006v-99.2c-14.933,0-27.733-12.8-27.733-27.733h-77.867
	c0,14.933-12.8,27.733-27.733,27.733v99.2H241.569z"/>
<path style="fill:#66C6B9;" d="M512.503,77.806c0,42.667-41.6,76.8-93.867,76.8l-76.8,28.8l16-45.867
	c-21.333-13.867-34.133-35.2-34.133-59.733c0-42.667,42.667-76.8,94.933-76.8C469.836,1.006,512.503,35.139,512.503,77.806z"/>
<g>
	<circle style="fill:#FFFFFF;" cx="367.436" cy="77.806" r="16"/>
	<circle style="fill:#FFFFFF;" cx="417.569" cy="77.806" r="16"/>
	<circle style="fill:#FFFFFF;" cx="468.77" cy="77.806" r="16"/>
</g>
<g>
</g>
<g>
</g>
<g>
</g>
<g>
</g>
<g>
</g>
<g>
</g>
<g>
</g>
<g>
</g>
<g>
</g>
<g>
</g>
<g>
</g>
<g>
</g>
<g>
</g>
<g>
</g>
<g>
</g>
</svg>
