<?xml version="1.0" encoding="iso-8859-1"?>
<!-- Generator: Adobe Illustrator 19.0.0, SVG Export Plug-In . SVG Version: 6.00 Build 0)  -->
<svg version="1.1" id="Capa_1" xmlns="http://www.w3.org/2000/svg" xmlns:xlink="http://www.w3.org/1999/xlink" x="0px" y="0px"
	 viewBox="0 0 513.067 513.067" style="enable-background:new 0 0 513.067 513.067;" xml:space="preserve">
<path style="fill:#415A6B;" d="M135.467,122.019c0,0,14.933,60.8,27.733,84.267l20.267-20.267L135.467,122.019z"/>
<path style="fill:#FFD15C;" d="M140.8,83.619l3.2,43.733c0,0,6.4,52.267,26.667,91.733v14.933L131.2,312.952l76.8,45.867
	l91.733-17.067l-17.067-88.533l-7.467-22.4v-5.333c0,0,30.933-48,26.667-102.4s-4.267-54.4-4.267-54.4l-78.933-34.133
	C217.6,33.486,151.467,21.752,140.8,83.619z"/>
<path style="fill:#E8EAE9;" d="M296.533,456.952l-5.333-185.6h-4.267c-10.667,23.467-35.2,40.533-64,40.533
	s-53.333-17.067-64-40.533h-4.267l-5.333,185.6H296.533z"/>
<path style="fill:#415A6B;" d="M163.2,205.219c0,0-17.067-38.4-17.067-55.467s-3.2-27.733,5.333-38.4
	c8.533-10.667,4.267-20.267,4.267-30.933s17.067-23.467,30.933-23.467s39.467,3.2,56.533,22.4s36.267,53.333,40.533,66.133
	c4.267,12.8,14.933,54.4-5.333,98.133c0,0,17.067-25.6,14.933-56.533c0,0,6.4,16-8.533,65.067c0,0,8.533-16,12.8-49.067
	c4.267-30.933,0-61.867-12.8-90.667c-3.2-6.4-6.4-11.733-9.6-17.067c0,0,28.8,34.133,28.8,91.733c0,0,28.8-54.4,23.467-99.2
	c-3.2-28.8-28.8-60.8-55.467-73.6s-57.6-19.2-86.4-7.467s-53.333,27.733-60.8,44.8c-7.467,17.067-6.4,54.4,0,76.8
	S144,187.086,163.2,205.219z"/>
<path style="fill:#F7B64C;" d="M169.6,220.152v14.933l-12.8,48c94.933-5.333,118.4-57.6,118.4-57.6
	C227.2,277.752,169.6,220.152,169.6,220.152z"/>
<path style="fill:#8AD7F8;" d="M443.733,456.952c-3.2-37.333-5.333-71.467-6.4-89.6c-2.133-59.733-14.933-64-14.933-64
	l-39.467,27.733L361.6,383.352v73.6L443.733,456.952L443.733,456.952z"/>
<path style="fill:#55C0EB;" d="M376.533,456.952c0-6.4,0-11.733,1.067-18.133c3.2-84.267,45.867-136.533,45.867-136.533
	l-115.2-39.467l-9.6,1.067c-9.6,27.733-22.4,112-32,192h109.867V456.952z"/>
<g>
	<path style="fill:#8AD7F8;" d="M249.6,456.952h34.133c7.467-32,13.867-58.667,19.2-71.467C320,341.752,320,341.752,320,341.752
		l-17.067-28.8l32,5.333c0,0-9.6-40.533-25.6-56.533s-24.533-29.867-33.067-32c0,0,2.133,57.6-14.933,135.467
		C254.933,389.752,251.733,421.752,249.6,456.952z"/>
	<path style="fill:#8AD7F8;" d="M83.2,456.952v-73.6l-21.333-52.267l-40.533-27.733c0,0-12.8,4.267-14.933,64
		c-1.067,19.2-3.2,52.267-6.4,89.6L83.2,456.952L83.2,456.952z"/>
</g>
<path style="fill:#55C0EB;" d="M68.267,456.952h109.867c-9.6-80-21.333-164.267-32-192l-9.6-1.067l-115.2,39.467
	c0,0,41.6,52.267,45.867,136.533C67.2,445.219,67.2,450.552,68.267,456.952z"/>
<path style="fill:#8AD7F8;" d="M125.867,341.752c0,0,0,0,17.067,43.733c5.333,12.8,11.733,39.467,19.2,71.467h34.133
	c-2.133-34.133-5.333-67.2-9.6-90.667c-17.067-77.867-14.933-135.467-14.933-135.467c-8.533,2.133-17.067,17.067-33.067,32
	c-16,14.933-25.6,56.533-25.6,56.533l32-5.333L125.867,341.752z"/>
<path style="fill:#F3F3F3;" d="M332.8,251.086h158.933c11.733,0,21.333,9.6,21.333,21.333v218.667
	c0,11.733-9.6,21.333-21.333,21.333H332.8c-11.733,0-21.333-9.6-21.333-21.333V272.419
	C311.467,260.686,321.067,251.086,332.8,251.086z"/>
<rect x="338.133" y="277.752" style="fill:#F3705A;" width="74.667" height="18.133"/>
<g>
	<rect x="338.133" y="325.752" style="fill:#CED6E0;" width="148.267" height="18.133"/>
	<rect x="338.133" y="372.686" style="fill:#CED6E0;" width="148.267" height="18.133"/>
	<rect x="338.133" y="420.686" style="fill:#CED6E0;" width="148.267" height="18.133"/>
	<rect x="338.133" y="467.619" style="fill:#CED6E0;" width="148.267" height="18.133"/>
</g>
<g>
</g>
<g>
</g>
<g>
</g>
<g>
</g>
<g>
</g>
<g>
</g>
<g>
</g>
<g>
</g>
<g>
</g>
<g>
</g>
<g>
</g>
<g>
</g>
<g>
</g>
<g>
</g>
<g>
</g>
</svg>
