<?xml version="1.0" encoding="iso-8859-1"?>
<!-- Generator: Adobe Illustrator 19.0.0, SVG Export Plug-In . SVG Version: 6.00 Build 0)  -->
<svg version="1.1" id="Capa_1" xmlns="http://www.w3.org/2000/svg" xmlns:xlink="http://www.w3.org/1999/xlink" x="0px" y="0px"
	 viewBox="0 0 512.182 512.182" style="enable-background:new 0 0 512.182 512.182;" xml:space="preserve">
<path style="fill:#F3705A;" d="M209.702,64.125c1.067,0,1.067,0,2.133,1.067c10.667,24.533,12.8,54.4,7.467,81.067
	s-18.133,51.2-37.333,69.333c-8.533,8.533-19.2,16-26.667,25.6c-11.733,13.867-17.067,33.067-14.933,51.2
	c-11.733-14.933-18.133-34.133-20.267-53.333s-1.067-38.4,0-57.6c2.133-27.733,6.4-56.533,19.2-82.133
	c12.8-25.6,34.133-48,61.867-54.4"/>
<ellipse style="fill:#344A5E;" cx="120.102" cy="386.258" rx="30.933" ry="92.8"/>
<g>
	<path style="fill:#F3705A;" d="M189.435,53.458c2.133,25.6-6.4,52.267-23.467,71.467c-4.267,5.333-9.6,9.6-12.8,16
		c-5.333,9.6-3.2,23.467,4.267,32c-7.467-2.133-13.867-9.6-17.067-17.067c-3.2-7.467-5.333-16-4.267-24.533
		c13.867-98.133,59.733-131.2,70.4-131.2c7.467,0,16,2.133,20.267,7.467c4.267,6.4,2.133,13.867-2.133,20.267
		c-4.267,6.4-9.6,9.6-14.933,14.933c-5.333,4.267-10.667,9.6-12.8,16"/>
	<path style="fill:#F3705A;" d="M209.702,70.525c0,0,0,0-1.067,1.067c0,0,0,1.067-1.067,1.067v1.067c0,0,0,1.067-1.067,1.067
		c0,1.067-1.067,2.133-1.067,2.133c0,1.067-1.067,2.133-1.067,3.2c-1.067,3.2-2.133,5.333-4.267,7.467c0,0,0,1.067-1.067,1.067
		c0,0,0,1.067-1.067,1.067c0,1.067-1.067,1.067-1.067,2.133c-1.067,1.067-2.133,3.2-3.2,4.267c-2.133,3.2-4.267,5.333-6.4,8.533
		c-1.067,1.067-2.133,3.2-3.2,4.267c-1.067,1.067-1.067,1.067-2.133,2.133c-1.067,1.067-1.067,1.067-2.133,2.133
		c-1.067,1.067-1.067,1.067-2.133,2.133c-1.067,1.067-1.067,1.067-2.133,2.133c-1.067,1.067-1.067,1.067-2.133,2.133
		c-1.067,1.067-1.067,1.067-2.133,2.133c-1.067,1.067-3.2,3.2-4.267,4.267c-1.067,1.067-3.2,2.133-4.267,4.267
		c-1.067,1.067-2.133,3.2-3.2,4.267c1.067,1.067,0,2.133,0,4.267c-1.067,2.133-1.067,3.2-1.067,5.333s0,3.2,1.067,5.333
		c1.067,3.2,3.2,5.333,6.4,6.4c1.067,1.067,2.133,1.067,4.267,1.067c1.067,0,2.133,0,3.2,0c1.067,0,1.067,0,2.133,0h1.067
		c1.067,0,2.133-1.067,2.133-1.067c1.067-1.067,2.133-2.133,3.2-2.133l0,0l0,0l0,0l0,0l0,0l0,0c-1.067,1.067-1.067,2.133-3.2,3.2
		c-1.067,0-1.067,1.067-2.133,1.067c0,0-1.067,0-1.067,1.067c-1.067,0-1.067,0-2.133,0c-2.133,0-5.333,0-7.467-1.067
		c-3.2-1.067-5.333-3.2-6.4-6.4c-1.067-1.067-1.067-3.2-1.067-5.333s0-3.2,1.067-5.333c1.067-2.133,1.067-3.2,2.133-5.333
		s2.133-3.2,3.2-4.267s3.2-3.2,4.267-4.267c1.067-1.067,3.2-3.2,4.267-4.267c1.067-1.067,1.067-1.067,2.133-2.133
		c1.067-1.067,1.067-1.067,2.133-2.133c1.067-1.067,1.067-1.067,2.133-2.133c1.067-1.067,1.067-1.067,2.133-2.133
		c1.067-1.067,1.067-1.067,2.133-2.133c1.067-1.067,1.067-1.067,2.133-2.133c1.067-1.067,2.133-3.2,3.2-4.267
		c2.133-3.2,4.267-5.333,6.4-8.533c1.067-1.067,2.133-3.2,2.133-4.267s1.067-1.067,1.067-2.133c0,0,0-1.067,1.067-1.067
		c0,0,0-1.067,1.067-1.067c1.067-2.133,3.2-5.333,4.267-7.467c0-1.067,1.067-2.133,1.067-3.2s1.067-2.133,1.067-2.133v-1.067v-1.067
		c0-1.067,0-1.067,1.067-1.067c0-1.067,1.067-1.067,1.067-1.067L209.702,70.525z"/>
	<path style="fill:#F3705A;" d="M189.435,81.191c0,0,0,1.067,0,2.133l0,0c0,0,0,0,0,1.067v1.067c0,1.067,0,2.133,0,3.2
		c0,2.133-1.067,5.333-2.133,7.467v1.067v1.067c0,1.067-1.067,1.067-1.067,2.133c-1.067,1.067-2.133,3.2-3.2,4.267
		c0,1.067-1.067,1.067-2.133,2.133c-1.067,1.067-1.067,1.067-2.133,2.133c0,0,0,0,0,1.067l0,0l0,0l-1.067,1.067
		c-1.067,1.067-1.067,1.067-2.133,2.133c-3.2,3.2-6.4,6.4-9.6,9.6c-3.2,3.2-6.4,6.4-8.533,10.667s-4.267,8.533-5.333,12.8
		c0,2.133-1.067,4.267-1.067,6.4c0,2.133,1.067,4.267,1.067,6.4v1.067v1.067c0,0,0,1.067,1.067,1.067
		c1.067,1.067,1.067,2.133,2.133,3.2c1.067,2.133,3.2,3.2,4.267,5.333s2.133,4.267,3.2,6.4c1.067,2.133,1.067,4.267,1.067,6.4
		c0,4.267-1.067,8.533-3.2,11.733c0,0,0,0,0,1.067l0,0l0,0c0,0,0,1.067-1.067,1.067c0,0,0,1.067-1.067,1.067l-1.067,1.067
		c-1.067,1.067-2.133,2.133-3.2,3.2c-1.067,1.067-2.133,2.133-3.2,2.133c-1.067,1.067-2.133,1.067-3.2,1.067
		c-2.133,1.067-3.2,1.067-4.267,1.067s-1.067,0-1.067,0l0,0l0,0h1.067c1.067,0,3.2,0,4.267-1.067c1.067,0,2.133-1.067,3.2-1.067
		c1.067-1.067,2.133-1.067,3.2-2.133c1.067-1.067,2.133-2.133,3.2-3.2c0,0,0-1.067,1.067-1.067c0,0,0-1.067,1.067-1.067
		c0,0,0-1.067,1.067-1.067l0,0l0,0c0,0,0,0,0-1.067c1.067-3.2,2.133-7.467,2.133-10.667c0-2.133,0-4.267-1.067-6.4
		c-1.067-2.133-2.133-4.267-3.2-5.333c-1.067-2.133-3.2-3.2-4.267-5.333c-1.067-1.067-1.067-2.133-2.133-3.2l-1.067-1.067v-1.067
		v-1.067c-1.067-2.133-2.133-4.267-2.133-7.467c0-2.133,0-5.333,0-7.467c1.067-5.333,3.2-9.6,5.333-13.867
		c2.133-4.267,5.333-7.467,8.533-10.667c3.2-3.2,6.4-6.4,8.533-9.6c1.067-1.067,1.067-1.067,2.133-2.133l1.067-1.067l0,0l0,0
		c0,0,0,0,0-1.067c1.067-1.067,1.067-1.067,2.133-2.133c0-1.067,1.067-1.067,1.067-2.133c1.067-1.067,2.133-3.2,2.133-4.267
		s1.067-1.067,1.067-2.133v-1.067v-1.067c1.067-2.133,1.067-5.333,1.067-6.4c0-1.067,0-2.133,0-2.133v-1.067l0,0l0,0
		c0-1.067,0-2.133,0-2.133L189.435,81.191z"/>
	<path style="fill:#F3705A;" d="M186.235,101.458L186.235,101.458c-1.067,1.067-1.067,1.067-2.133,1.067c0,0,0,0-1.067,0
		c0,0,0,0-1.067,1.067l-1.067,1.067c0,1.067-1.067,1.067-1.067,2.133c-1.067,1.067-2.133,3.2-3.2,4.267c0,0,0,0,0,1.067
		c0,0,0,0,0,1.067c0,0,0,1.067-1.067,1.067c0,0,0,0,0,1.067c0,0,0,0,0,1.067c0,0,0,1.067-1.067,1.067c0,1.067,0,1.067-1.067,2.133
		v1.067v1.067c0,1.067,0,1.067,0,2.133c0,1.067,0,1.067,0,2.133v1.067v1.067c0,1.067,0,1.067,0,2.133s0,1.067,0,2.133v1.067v1.067
		c0,3.2,0,5.333,1.067,8.533c1.067,2.133,1.067,5.333,2.133,7.467c1.067,2.133,2.133,5.333,3.2,7.467c0,1.067,0,1.067,1.067,2.133
		c0,1.067,0,1.067,0,2.133s0,1.067,0,2.133v1.067v1.067c0,2.133,0,4.267,0,6.4s-1.067,4.267-1.067,5.333
		c0,1.067,0,1.067-1.067,2.133c0,1.067,0,1.067-1.067,2.133c0,1.067,0,1.067-1.067,1.067c0,0,0,1.067-1.067,1.067
		c0,1.067,0,1.067,0,1.067s0,0,0-1.067v-1.067c0,0,0-1.067,1.067-1.067c0-1.067,0-1.067,1.067-2.133c0-1.067,0-1.067,1.067-2.133
		c0-2.133,1.067-3.2,1.067-5.333s0-4.267,0-6.4v-1.067v-1.067c0-1.067,0-1.067,0-2.133c0-1.067,0-1.067,0-2.133
		c0-1.067,0-1.067-1.067-2.133c-1.067-2.133-2.133-5.333-3.2-7.467c-1.067-2.133-2.133-5.333-3.2-7.467
		c-2.133-5.333-2.133-8.533-2.133-10.667v-1.067v-1.067c0-1.067,0-1.067,0-2.133s0-1.067,0-2.133v-1.067v-1.067
		c0-1.067,0-1.067,0-2.133s0-1.067,0-2.133v-1.067v-1.067c0-1.067,0-1.067,1.067-2.133c0-1.067,0-1.067,1.067-2.133v-1.067v-1.067
		c0,0,0-1.067,1.067-1.067c0,0,0,0,0-1.067c0,0,0,0,0-1.067c1.067-2.133,2.133-3.2,3.2-5.333c1.067-1.067,1.067-1.067,1.067-2.133
		c0-1.067,1.067-1.067,1.067-1.067s0,0,1.067-1.067c0,0,0,0,1.067,0l1.067-1.067l1.067-1.067L186.235,101.458z"/>
</g>
<path style="fill:#FFD15C;" d="M187.302,120.658c0,0,4.267,8.533,4.267,20.267c0,11.733-11.733,42.667-18.133,53.333
	c-6.4,10.667-6.4,10.667-6.4,10.667l65.067,162.133l59.733-140.8l-30.933-36.267c0,0,7.467,0,12.8-6.4
	c5.333-6.4,17.067-35.2,22.4-44.8c5.333-9.6,6.4-25.6,6.4-25.6s4.267-4.267,5.333-10.667c0-6.4,2.133-30.933,2.133-30.933
	l-7.467-13.867l-41.6-20.267C259.835,35.325,174.502,80.125,187.302,120.658z"/>
<path style="fill:#F3705A;" d="M188.369,112.125c0,0,12.8-8.533,17.067-12.8c0,0,3.2,8.533-1.067,10.667c0,0,36.267-8.533,48-16
	c11.733-7.467,11.733-22.4,14.933-27.733s23.467-7.467,28.8-7.467c5.333,0,11.733,10.667,11.733,10.667s7.467-8.533,3.2-19.2
	c-4.267-10.667-16-18.133-20.267-26.667c-4.267-7.467-39.467-35.2-74.667-18.133s-40.533,54.4-41.6,61.867
	C173.435,74.792,188.369,112.125,188.369,112.125z"/>
<ellipse transform="matrix(-0.1595 -0.9872 0.9872 -0.1595 119.0277 299.9846)" style="fill:#FFD15C;" cx="187.217" cy="99.322" rx="24.533" ry="12.8"/>
<g>
	<path style="fill:#F3705A;" d="M252.369,93.991c-11.733,7.467-54.4,25.6-54.4,25.6c6.4-8.533,7.467-19.2,7.467-19.2L252.369,93.991
		z"/>
	<path style="fill:#F3705A;" d="M281.169,59.858L281.169,59.858c-1.067,0-1.067,0-1.067,0l0,0l0,0l0,0h-1.067
		c0,0-1.067,0-1.067,1.067c-1.067,1.067-2.133,1.067-3.2,2.133s-2.133,2.133-2.133,3.2c0,0,0,1.067-1.067,1.067v1.067
		c0,1.067-1.067,2.133-1.067,2.133c-1.067,3.2-2.133,7.467-3.2,11.733c0,1.067-1.067,2.133-1.067,3.2c0,0,0,1.067-1.067,1.067
		l-1.067,1.067c-1.067,2.133-2.133,3.2-4.267,5.333c-3.2,3.2-4.267,4.267-5.333,5.333c0,0-1.067,0-1.067,1.067c0,0,0,0-1.067,0
		c0,0,0,0-1.067,0c0,0-1.067,0-1.067,1.067c0,0-1.067,0-1.067,1.067c-1.067,1.067-3.2,1.067-4.267,2.133
		c-1.067,0-2.133,1.067-3.2,1.067c-1.067,0-2.133,0-2.133,0h-1.067c0,0,0,0,1.067,0c0,0,1.067,0,2.133-1.067
		c1.067,0,2.133-1.067,3.2-1.067c1.067,0,2.133-1.067,4.267-2.133c0,0,1.067,0,1.067-1.067c0,0,1.067,0,1.067-1.067l0,0l0,0
		l1.067-1.067c2.133-1.067,3.2-2.133,4.267-3.2c1.067-1.067,2.133-3.2,3.2-5.333c0,0,0-1.067,1.067-1.067c0,0,0-1.067,1.067-1.067
		l0,0l0,0v-1.067v-1.067c1.067-4.267,1.067-8.533,2.133-11.733c0-1.067,1.067-2.133,1.067-3.2v-1.067c0,0,0-1.067,1.067-1.067
		c1.067-2.133,2.133-3.2,3.2-5.333c1.067-1.067,2.133-2.133,3.2-3.2c1.067,0,1.067-1.067,2.133-1.067s1.067-1.067,2.133-1.067
		c0,0,0,0,1.067,0c0,0,0,0,1.067,0c0,0,0,0,1.067,0l0,0h1.067L281.169,59.858z"/>
</g>
<path style="fill:#CED6E0;" d="M308.902,204.925v288h-137.6v-288h3.2c10.667,19.2,30.933,33.067,54.4,33.067
	s43.733-13.867,54.4-33.067H308.902z"/>
<path style="fill:#344A5E;" d="M121.169,329.725c2.133,25.6,6.4,174.933,6.4,174.933h91.733l-4.267-16c0,0-59.733-176-59.733-214.4
	s14.933-72.533,14.933-72.533l-4.267-12.8c0,0-26.667,13.867-43.733,20.267c-18.133,6.4-42.667,17.067-42.667,17.067
	C100.902,253.991,114.769,290.258,121.169,329.725z"/>
<path style="fill:#E8EAE9;" d="M196.902,512.125c0,0,13.867,4.267,10.667-60.8l-18.133,5.333l-3.2,49.067L196.902,512.125z"/>
<path style="fill:#415A6B;" d="M338.769,210.258l3.2-3.2c0,0,13.867,1.067,14.933,16c1.067,14.933,0,16,2.133,22.4
	c2.133,7.467,34.133,102.4,34.133,102.4s42.667-11.733,56.533,13.867c13.867,25.6,8.533,39.467,6.4,43.733
	c-2.133,4.267-104.533,59.733-104.533,59.733l-13.867-123.733L338.769,210.258z"/>
<path style="fill:#344A5E;" d="M270.502,184.658c0,0,17.067,7.467,34.133,11.733c17.067,4.267,37.333,11.733,37.333,11.733
	s11.733,32,6.4,59.733c-5.333,27.733,4.267,198.4,4.267,198.4h-6.4l-70.4-254.933L270.502,184.658z"/>
<path style="fill:#415A6B;" d="M270.502,184.658l16,9.6l-3.2,10.667l19.2,3.2c0,0,18.133,92.8,24.533,125.867
	c6.4,33.067,19.2,132.267,19.2,132.267s-69.333-177.067-72.533-210.133c-3.2-33.067-13.867-67.2-13.867-67.2
	C264.102,188.925,267.302,186.791,270.502,184.658z"/>
<path style="fill:#344A5E;" d="M418.769,345.725L418.769,345.725c-1.067,9.6-3.2,32,3.2,44.8c0,0,13.867,10.667,24.533,13.867
	c7.467,2.133,13.867-3.2,13.867-10.667s-2.133-17.067-9.6-29.867C444.369,349.991,430.502,346.792,418.769,345.725z"/>
<path style="fill:#66C6B9;" d="M413.435,275.325v217.6c0,6.4-5.333,10.667-10.667,10.667H251.302c-6.4,0-10.667-5.333-10.667-10.667
	v-217.6c0-6.4,5.333-10.667,10.667-10.667h151.467C409.169,264.658,413.435,269.991,413.435,275.325z"/>
<path style="fill:#F3F3F3;" d="M251.302,289.191v203.733c0,0,0,1.067,1.067,1.067h151.467c0,0,1.067,0,1.067-1.067V289.191H251.302z
	"/>
<path style="fill:#F3705A;" d="M352.635,303.058h-42.667c-5.333,0-10.667-4.267-10.667-10.667v-17.067c0-2.133,1.067-3.2,3.2-3.2
	h57.6c2.133,0,3.2,1.067,3.2,3.2v17.067C363.302,298.791,357.969,303.058,352.635,303.058z M305.702,279.591v13.867
	c0,2.133,2.133,3.2,3.2,3.2h42.667c2.133,0,3.2-2.133,3.2-3.2v-13.867H305.702z"/>
<path style="fill:#FFD15C;" d="M413.435,381.991c0,0,7.467,9.6,10.667,9.6s21.333-24.533,21.333-39.467
	c0-13.867-9.6-35.2-11.733-42.667c-2.133-7.467-1.067-7.467-6.4-13.867c-5.333-6.4-20.267-11.733-27.733-13.867
	c-7.467-2.133-12.8,2.133-10.667,11.733c0,0-3.2,5.333-2.133,10.667c1.067,5.333,2.133,6.4,2.133,6.4s-3.2,6.4-1.067,9.6
	c1.067,3.2,4.267,4.267,4.267,4.267s-3.2,0-4.267,3.2c-1.067,3.2,1.067,6.4,3.2,8.533c2.133,1.067,12.8,7.467,13.867,8.533
	l8.533,11.733C413.435,355.325,413.435,381.991,413.435,381.991z"/>
<path style="fill:#415A6B;" d="M186.235,164.391c0,0-9.6,34.133-4.267,110.933c5.333,76.8,33.067,213.333,33.067,213.333
	s-24.533-45.867-36.267-72.533c-11.733-26.667-33.067-75.733-34.133-104.533c-1.067-28.8-12.8-89.6-12.8-89.6l24.533-8.533
	l-12.8-5.333c0,0,9.6-14.933,17.067-19.2C169.169,183.591,179.835,164.391,186.235,164.391z"/>
<path style="fill:#FFD15C;" d="M201.169,452.392c0,0,9.6,0,13.867-2.133c4.267-2.133,17.067-11.733,19.2-12.8
	c2.133-2.133,6.4-3.2,6.4-3.2v9.6c0,0,2.133,1.067,5.333,1.067c4.267,0,16,0,21.333,1.067c5.333,1.067,12.8,2.133,14.933,6.4
	s0,9.6-7.467,10.667c0,0,6.4,2.133,6.4,8.533s-9.6,7.467-9.6,7.467s4.267,3.2,4.267,8.533s-8.533,6.4-8.533,6.4s2.133,6.4,0,10.667
	c-2.133,4.267-21.333,1.067-27.733,0c-6.4-1.067-23.467-3.2-30.933-6.4c-8.533-2.133-26.667-6.4-26.667-6.4
	S186.235,460.925,201.169,452.392z"/>
<path style="fill:#415A6B;" d="M192.635,477.991c-3.2,9.6-1.067,19.2,1.067,26.667c1.067,5.333,3.2,7.467,3.2,7.467
	s-36.267-1.067-46.933-4.267c-3.2-1.067-8.533-2.133-16-3.2c-2.133,0-3.2-1.067-5.333-1.067c-20.267-3.2-45.867-7.467-50.133-9.6
	c-6.4-3.2-11.733-8.533-18.133-17.067s-10.667-32-7.467-40.533s3.2-35.2,3.2-43.733s0-29.867,2.133-42.667
	c2.133-12.8,10.667-93.867,12.8-109.867s9.6-13.867,9.6-13.867c22.4,28.8,35.2,65.067,41.6,104.533v1.067l0,0l0,0
	c0,2.133-1.067,78.933-1.067,85.333c0,6.4,3.2,11.733,3.2,14.933c0,3.2-2.133,7.467-2.133,9.6c0,1.067,1.067,1.067,5.333,2.133
	c3.2,1.067,43.733,4.267,53.333,4.267c6.4,0,16,2.133,22.4,4.267c3.2,1.067,5.333,1.067,5.333,1.067s-1.067,1.067-3.2,4.267
	C201.169,460.925,195.835,468.392,192.635,477.991z"/>
<path style="fill:#CED6E0;" d="M395.302,347.858v51.2H259.835v-27.733c3.2-3.2,10.667-10.667,10.667-10.667l8.533,8.533
	l26.667-10.667l16,7.467l19.2-5.333l17.067,3.2L395.302,347.858z"/>
<rect x="377.169" y="419.325" style="fill:#F3705A;" width="13.867" height="61.867"/>
<rect x="352.635" y="444.925" style="fill:#415A6B;" width="13.867" height="36.267"/>
<rect x="328.102" y="431.058" style="fill:#FFD15C;" width="13.867" height="50.133"/>
<rect x="303.569" y="456.658" style="fill:#4ABAA5;" width="13.867" height="23.467"/>
<path style="fill:#F3705A;" d="M391.035,336.125l-9.6,11.733l-2.133-4.267l-9.6,4.267l-19.2-3.2l-22.4,6.4l-17.067-8.533
	l-29.867,11.733l-9.6-9.6c-3.2,3.2-7.467,7.467-10.667,9.6l-2.133-2.133c4.267-4.267,11.733-11.733,11.733-11.733l2.133-2.133
	l10.667,10.667l28.8-11.733l18.133,8.533l21.333-6.4l19.2,3.2l8.533-3.2l-2.133-4.267L391.035,336.125z"/>
<g>
</g>
<g>
</g>
<g>
</g>
<g>
</g>
<g>
</g>
<g>
</g>
<g>
</g>
<g>
</g>
<g>
</g>
<g>
</g>
<g>
</g>
<g>
</g>
<g>
</g>
<g>
</g>
<g>
</g>
</svg>
