<?xml version="1.0" encoding="iso-8859-1"?>
<!-- Generator: Adobe Illustrator 19.0.0, SVG Export Plug-In . SVG Version: 6.00 Build 0)  -->
<svg version="1.1" id="Capa_1" xmlns="http://www.w3.org/2000/svg" xmlns:xlink="http://www.w3.org/1999/xlink" x="0px" y="0px"
	 viewBox="0 0 513.067 513.067" style="enable-background:new 0 0 513.067 513.067;" xml:space="preserve">
<path style="fill:#8AD7F8;" d="M205.442,357.333l28.8,3.2c0,0,10.667,7.467,11.733,19.2c1.067,11.733,1.067,34.133,1.067,34.133
	s0,17.067-1.067,25.6c-2.133,8.533-10.667,73.6-10.667,73.6h-64c0,0,2.133-92.8,13.867-114.133
	C195.842,378.667,205.442,357.333,205.442,357.333z"/>
<path style="fill:#55C0EB;" d="M14.509,352l5.333-14.933c0,0,12.8-5.333,26.667-9.6s42.667-13.867,48-13.867
	c6.4,0,5.333,1.067,5.333,1.067L83.842,432l-56.533-17.067L14.509,352z"/>
<g>
	
		<ellipse transform="matrix(-0.0607 -0.9982 0.9982 -0.0607 -84.0194 430.7655)" style="fill:#F7B64C;" cx="160.668" cy="254.914" rx="14.934" ry="8.534"/>
	
		<ellipse transform="matrix(-0.3617 -0.9323 0.9323 -0.3617 -140.583 443.7178)" style="fill:#F7B64C;" cx="81.606" cy="269.984" rx="14.933" ry="8.533"/>
	<path style="fill:#F7B64C;" d="M157.442,227.2l3.2,23.467c0,0,3.2,21.333-1.067,32l4.267,45.867L108.376,336l-6.4-36.267
		c0,0-14.933-2.133-22.4-29.867c-7.467-27.733-7.467-27.733-7.467-27.733s-10.667-28.8,8.533-44.8c18.133-16,51.2-8.533,60.8-3.2
		C149.976,199.467,157.442,213.333,157.442,227.2z"/>
</g>
<path style="fill:#55C0EB;" d="M171.309,318.933c0,0,11.733,4.267,12.8,8.533c1.067,4.267,17.067,9.6,23.467,12.8
	c5.333,3.2,25.6,20.267,25.6,20.267s-22.4,18.133-36.267,38.4c-12.8,19.2-25.6,114.133-25.6,114.133H42.242L112.642,336
	l33.067-17.067H171.309z"/>
<path style="fill:#E8EAE9;" d="M161.709,304c0,0-7.467,10.667-19.2,14.933c0,0,1.067,1.067,1.067,5.333
	c-1.067,5.333,0,14.933,1.067,18.133c0,0,23.467-11.733,28.8-17.067l2.133-3.2c1.067-1.067,1.067-2.133,0-3.2
	c-3.2-3.2-9.6-11.733-9.6-13.867C164.909,301.867,161.709,304,161.709,304z"/>
<path style="fill:#415A6B;" d="M158.509,219.733c-2.133-12.8-4.267-41.6-29.867-36.267c0,0-13.867-21.333-44.8-5.333
	c-29.867,16-18.133,57.6-17.067,64c1.067,5.333,9.6,22.4,11.733,27.733c0,0,1.067,0,1.067-1.067c-1.067-2.133-4.267-8.533-4.267-16
	c0-9.6,0-12.8-3.2-21.333c-2.133-7.467-6.4-19.2,7.467-27.733c13.867-8.533,32-12.8,43.733-9.6s20.267,2.133,21.333,9.6
	c1.067,7.467,5.333,18.133,7.467,24.533c2.133,5.333,6.4,22.4,6.4,22.4h1.067C160.642,251.733,160.642,232.533,158.509,219.733z"/>
<path style="fill:#E89E3D;" d="M159.576,283.733c0,0-14.933,29.867-57.6,16l5.333,29.867
	C125.442,322.133,155.309,307.2,159.576,283.733z"/>
<path style="fill:#FFD15C;" d="M94.509,284.8c0,0,2.133-1.067,4.267,1.067c2.133,2.133,4.267,8.533,4.267,8.533
	s8.533-9.6,10.667-12.8c2.133-3.2,16-10.667,18.133-11.733c3.2-2.133,8.533-2.133,8.533-2.133s3.2,2.133,1.067,5.333
	c-2.133,3.2-8.533,6.4-8.533,6.4s-6.4,7.467-8.533,8.533l-5.333,8.533c0,0,9.6-2.133,11.733-3.2s6.4,2.133,6.4,2.133
	s5.333,4.267,6.4,8.533c1.067,4.267-2.133,8.533-2.133,8.533s1.067,5.333,1.067,9.6c0,0,1.067,9.6-5.333,16
	c0,0-5.333-1.067-4.267-5.333c0,0-3.2,7.467-7.467,11.733c-4.267,4.267-11.733,11.733-13.867,18.133c-2.133,6.4-2.133,6.4-2.133,6.4
	l-28.8-16c0,0,4.267-9.6,6.4-13.867c2.133-4.267,2.133-12.8,2.133-17.067s3.2-10.667,4.267-12.8
	c1.067-2.133,1.067-10.667,2.133-13.867L94.509,284.8z"/>
<path style="fill:#8AD7F8;" d="M18.776,337.067c-1.067,7.467,12.8,35.2,25.6,49.067c12.8,12.8,10.667,20.267,10.667,20.267
	s1.067-12.8,6.4-21.333s5.333-8.533,8.533-13.867c3.2-5.333,12.8-27.733,12.8-27.733S120.109,352,126.509,361.6l-10.667,32
	c0,0-2.133,24.533-5.333,36.267c-3.2,12.8-13.867,29.867-16,36.267S83.842,489.6,81.709,492.8
	c-2.133,4.267-28.8,20.267-39.467,20.267s-21.333-11.733-28.8-23.467c-7.467-12.8-10.667-35.2-10.667-45.867
	c0-10.667-3.2-69.333-2.133-76.8C2.776,354.133,18.776,337.067,18.776,337.067z"/>
<path style="fill:#55C0EB;" d="M55.042,406.4L55.042,406.4c0,1.067,0,1.067,0,1.067s0,0,0,1.067v1.067v1.067c0,0,0,0,0,1.067
	c0,0,0,0,0,1.067l-1.067,1.067c-1.067,1.067-1.067,2.133-2.133,2.133c-1.067,1.067-2.133,1.067-3.2,2.133l0,0l0,0
	c0,0,0,0-1.067,1.067l-1.067,1.067c-1.067,1.067-2.133,2.133-3.2,3.2c-1.067,1.067-2.133,2.133-3.2,3.2s-2.133,2.133-2.133,3.2
	l-1.067,1.067l0,0l0,0l0,0V432c0,1.067,0,2.133-1.067,3.2c0,1.067,0,2.133-1.067,3.2c0,1.067-1.067,1.067-1.067,2.133
	c0,1.067-1.067,1.067-1.067,1.067l0,0l0,0c0,0,0-1.067,1.067-1.067c-1.067-1.066-1.067-1.066-1.067-2.133s0-2.133,0-3.2
	s0-2.133,0-3.2v-1.067l0,0l0,0l0,0v-1.067c0,0,0-1.067,1.067-1.067c1.067-1.067,2.133-2.133,2.133-3.2
	c1.067-1.067,2.133-2.133,3.2-3.2s2.133-2.133,3.2-3.2l1.067-1.067c0,0,0,0,1.067-1.067l0,0l0,0c1.067-1.067,2.133-1.067,3.2-2.133
	c1.067-1.067,2.133-1.067,2.133-2.133l1.067-1.067c0,0,0,0,0-1.067l0,0V409.6v-1.067v-1.067
	C55.042,407.467,55.042,407.467,55.042,406.4L55.042,406.4z"/>
<path style="fill:#CED6E0;" d="M394.242,107.733c0,58.667-48,106.667-106.667,106.667c-11.733,0-23.467-2.133-35.2-6.4
	c-42.667,21.333-81.067,25.6-81.067,25.6c19.2-18.133,32-36.267,40.533-51.2c-19.2-19.2-30.933-45.867-30.933-75.733
	C180.909,48,228.909,0,287.576,0S394.242,49.067,394.242,107.733z"/>
<path style="fill:#FFFFFF;" d="M298.242,140.8h-23.467c0-3.2,0-5.333,0-6.4c0-7.467,1.067-13.867,3.2-18.133
	c2.133-5.333,7.467-10.667,14.933-16c7.467-6.4,11.733-9.6,12.8-11.733c2.133-3.2,3.2-6.4,3.2-9.6c0-5.333-2.133-9.6-6.4-12.8
	c-4.267-3.2-7.467-6.4-13.867-6.4s-11.733,2.133-16,5.333s-7.467,9.6-8.533,17.067l-23.467-3.2
	c1.067-10.667,5.333-20.267,13.867-27.733c8.533-7.467,19.2-11.733,33.067-11.733c14.933,0,26.667,4.267,35.2,11.733
	s12.8,16,12.8,26.667c0,5.333-1.067,10.667-4.267,16c-4.267,6.4-10.667,12.8-21.333,21.333c-5.333,4.267-8.533,8.533-9.6,10.667
	C299.309,129.067,298.242,133.333,298.242,140.8z M275.842,174.933v-22.4h25.6v22.4H275.842z"/>
<path style="fill:#F3705A;" d="M512.642,240c0,58.667-48,106.667-106.667,106.667c-22.4,0-42.667-6.4-59.733-18.133
	c-49.067,4.267-87.467-4.267-87.467-4.267c23.467-9.6,41.6-20.267,54.4-29.867c-8.533-16-13.867-34.133-13.867-54.4
	c0-58.667,48-106.667,106.667-106.667S512.642,181.333,512.642,240z"/>
<path style="fill:#FFD15C;" d="M384.642,308.267c13.867,2.133,28.8,2.133,43.733,0c32-4.267,40.533-14.933,27.733-22.4
	c3.2-5.333,4.267-11.733,4.267-19.2c0-25.6-17.067-55.467-40.533-64c-2.133-1.067-4.267-3.2-3.2-6.4
	c2.133-9.6,13.867-12.8,14.933-24.533c0,0-8.533,2.133-20.267,0c-11.733-2.133-14.933,0-19.2,0c-4.267,1.067-9.6,0-9.6,0
	c0,8.533,10.667,16,12.8,24.533c1.067,2.133-1.067,5.333-3.2,6.4c-23.467,9.6-39.467,38.4-39.467,64
	c0,7.467,1.067,13.867,4.267,19.2C343.042,293.333,352.642,304,384.642,308.267z"/>
<g>
	<path style="fill:#415A6B;" d="M403.842,277.333V262.4c-4.267-1.067-8.533-3.2-10.667-6.4s-3.2-6.4-3.2-9.6
		c0-4.267,1.067-7.467,3.2-9.6c2.133-2.133,5.333-4.267,9.6-4.267v-3.2h5.333v3.2c4.267,0,6.4,2.133,8.533,4.267
		s3.2,5.333,4.267,8.533l-8.533,1.067c-1.067-3.2-2.133-4.267-4.267-5.333v13.867c5.333,1.067,9.6,3.2,11.733,6.4s3.2,5.333,3.2,9.6
		s-1.067,7.467-4.267,10.667c-2.133,3.2-6.4,4.267-10.667,5.333v6.4h-5.333v-6.4c-4.267,0-7.467-2.133-9.6-4.267
		c-2.133-2.133-4.267-6.4-5.333-10.667l9.6-1.067c0,2.133,1.067,3.2,2.133,5.333C400.642,276.267,401.709,277.333,403.842,277.333z
		 M403.842,240c-1.067,0-2.133,1.067-3.2,2.133s-1.067,2.133-1.067,4.267c0,1.067,0,2.133,1.067,3.2
		c1.067,1.067,2.133,2.133,3.2,2.133V240z M408.109,278.4c2.133,0,3.2-1.067,4.267-2.133c1.067-1.067,2.133-3.2,2.133-4.267
		c0-2.133,0-3.2-1.067-4.267c-1.067-1.067-2.133-2.133-4.267-3.2V278.4H408.109z"/>
	<path style="fill:#415A6B;" d="M416.642,200.533c1.067,0,2.133-1.067,2.133-1.067c0-1.067,0-2.133-1.067-3.2
		c-1.067,0-14.933-5.333-23.467-6.4c-1.067,0-2.133,1.067-2.133,2.133c0,1.067,1.067,2.133,2.133,2.133
		C401.709,196.267,415.576,200.533,416.642,200.533C415.576,200.533,416.642,200.533,416.642,200.533z"/>
	<path style="fill:#415A6B;" d="M405.976,201.6c3.2,0,7.467,0,10.667-1.067c1.067,0,2.133-1.067,2.133-2.133
		c0-1.067-1.067-2.133-2.133-2.133c-6.4,1.067-13.867,1.067-20.267,0c-1.067,0-2.133,1.067-2.133,2.133
		c0,1.067,1.067,2.133,2.133,2.133C398.509,201.6,401.709,201.6,405.976,201.6z"/>
	<path style="fill:#415A6B;" d="M412.376,227.2c1.067,0,2.133-1.067,2.133-2.133c2.133-10.667-3.2-16-6.4-19.2
		c-2.133-2.133-3.2-4.267-3.2-6.4c0-1.067,1.067-2.133,2.133-3.2c3.2-2.133,7.467-1.067,9.6-1.067c1.067,0,2.133-1.067,2.133-2.133
		c0-1.067-1.067-2.133-2.133-2.133c-1.067,0-8.533-1.067-12.8,2.133c-2.133,1.067-3.2,3.2-3.2,5.333
		c-1.067,4.267,2.133,7.467,4.267,9.6c3.2,3.2,6.4,6.4,5.333,14.933C410.242,225.067,411.309,226.133,412.376,227.2L412.376,227.2z"
		/>
</g>
<g>
</g>
<g>
</g>
<g>
</g>
<g>
</g>
<g>
</g>
<g>
</g>
<g>
</g>
<g>
</g>
<g>
</g>
<g>
</g>
<g>
</g>
<g>
</g>
<g>
</g>
<g>
</g>
<g>
</g>
</svg>
