<?xml version="1.0" encoding="iso-8859-1"?>
<!-- Generator: Adobe Illustrator 19.0.0, SVG Export Plug-In . SVG Version: 6.00 Build 0)  -->
<svg version="1.1" id="Capa_1" xmlns="http://www.w3.org/2000/svg" xmlns:xlink="http://www.w3.org/1999/xlink" x="0px" y="0px"
	 viewBox="0 0 526.794 526.794" style="enable-background:new 0 0 526.794 526.794;" xml:space="preserve">
<circle style="fill:#55C0EB;" cx="321.985" cy="258.546" r="190.933"/>
<g>
	<path style="fill:#F3F3F3;" d="M139.585,215.879c1.067,0,2.133-1.067,2.133-1.067c0,1.067,1.067,2.133,1.067,2.133
		c0,1.067,1.067,1.067,0,2.133v1.067v1.067c1.067,1.067,0,1.067,0,1.067v1.067c0,0,0,0,0,1.067s0,1.067,1.067,2.133v1.067
		c0,1.067,1.067,2.133,2.133,1.067c0-1.067,1.067-2.133,1.067-3.2c0-2.133,0-5.333,0-7.467c0-1.067,0-1.067,0-2.133s0-2.133,0-3.2
		c0-1.067,1.067-2.133,1.067-3.2c0-1.067,1.067-2.133,2.133-2.133s1.067-1.067,2.133-1.067c1.067,0,1.067-1.067,1.067-2.133
		c1.067-1.067,1.067-1.067,2.133-1.067c0,0,0,0,1.067,0c1.067-1.067,2.133-1.067,3.2-2.133v-1.067c1.067,0,1.067,0,1.067,0
		c1.067-1.067-1.067-1.067-1.067-2.133c1.067,0,1.067,0,2.133,0v-1.067v-1.067c1.067-1.067,1.067-2.133,0-3.2
		c1.067,0,2.133,0,2.133,0c1.067,1.067,2.133,0,2.133-1.067c0-1.067,0-1.067,0-2.133l1.067,1.067
		c1.067-1.067,1.067-1.067,2.133-2.133c1.067-1.067,0-2.133,1.067-2.133h1.067v-1.067c2.133,0,3.2-1.067,5.333-1.067
		c1.067,0,1.067-1.067,1.067-1.067c0-1.067,0-2.133,1.067-3.2c1.067-1.067,2.133-1.067,2.133-1.067s1.067,0,1.067-1.067
		c1.067-1.067,2.133-1.067,3.2-1.067h1.067c1.067-1.067,2.133-1.067,3.2-2.133c1.067-1.067,2.133-1.067,3.2-1.067
		c0,0,1.067,1.067,1.067,2.133c-1.067,0-1.067,0-2.133,0c-1.067,0-1.067,1.067-2.133,1.067c0,0-1.067,1.067-1.067,2.133
		c1.067,0,2.133,0,3.2-1.067c1.067-1.067,2.133-1.067,3.2-2.133c1.067-1.067,3.2-1.067,4.267-2.133c0,0-1.067,0-1.067-1.067
		c-1.067,2.133-1.067,0-2.133,0c-1.067,0-1.067-1.067-2.133-2.133s1.067-2.133,0-3.2c0,0-1.067,0-2.133,0l0,0
		c1.067,0,1.067,0,2.133,0s1.067,0,2.133-1.067c0,0,1.067-1.067,1.067-2.133c-1.067,0-2.133,0-3.2,0h-1.067
		c-1.067,0-2.133,1.067-3.2,1.067c-1.067,0-1.067,0-2.133,1.067h-1.067c0-1.067,2.133-1.067,3.2-2.133
		c1.067-1.067,2.133-1.067,3.2-2.133c1.067-1.067,1.067-1.067,2.133-1.067c3.2,0,7.467,0,10.667,0c1.067,0,1.067,0,2.133,0
		c1.067,0,2.133-1.067,2.133-2.133l1.067-1.067c1.067,0,2.133,0,3.2,0l0,0l0,0l2.133-1.067c0-1.067,1.067-3.2,1.067-4.267
		c-1.067,0-1.067,0-2.133,0c0-1.067-1.067-1.067-1.067-2.133c0,0,0,0,0-1.067c-1.067,0-2.133-1.067-3.2-1.067l0,0
		c-1.067-1.067-1.067-2.133-2.133-3.2l0,0h1.067c0-1.067,0-2.133,0-2.133c0-1.067,0-1.067,0-2.133v-1.067c-1.067,0,0-1.067,0-2.133
		v-1.067c-2.133,1.067-3.2,3.2-5.333,4.267c0,0,0,0-1.067-1.067c-1.067,0-1.067,1.067-2.133,1.067s-1.067,0-1.067,0
		c-1.067-1.067-1.067-2.133-2.133-3.2c0-1.067,2.133-2.133,1.067-4.267c-1.067,0-1.067,0-2.133,0c0-1.067,0-1.067,0-2.133
		c-1.067-1.067-3.2-1.067-5.333-1.067h-1.067h-1.067c-1.067-1.067-1.067-1.067-2.133,0c0,0,0,0-1.067,0c0,1.067,0,2.133-1.067,2.133
		c-1.067,1.067-1.067,2.133-1.067,3.2l0,0c-1.067,1.067-2.133,1.067-3.2,2.133c0,1.067,0,1.067,1.067,1.067
		c1.067,1.067,1.067,1.067,0,2.133v1.067c0,1.067-1.067,2.133-2.133,3.2c-1.067,1.067-2.133,1.067-3.2,2.133l0,0
		c-1.067,0-2.133,1.067-3.2,1.067c0,1.067,0,2.133,0,2.133c0,1.067,0,1.067,0,2.133s0,1.067,0,2.133
		c-1.067,0-2.133,1.067-2.133,2.133c-1.067,0-2.133,0-2.133,1.067c-1.067-1.067-1.067-2.133-2.133-3.2c0,0,0,0,1.067-1.067l0,0
		c0-1.067,1.067-3.2,1.067-4.267c0,0,0,0,1.067,0c0-1.067-1.067-1.067-1.067-2.133c-1.067,0-2.133,0-2.133,0l0,0
		c-14.933,20.267-25.6,42.667-32,68.267C137.451,213.746,138.518,214.813,139.585,215.879z"/>
	<path style="fill:#F3F3F3;" d="M204.652,401.48C203.585,401.48,203.585,400.412,204.652,401.48c-2.133-1.066-2.133-2.133-2.133-3.2
		v-1.066c-1.067,0-2.133,0-2.133-1.066s-1.067-1.066-1.067-2.133c1.067,0,1.067,0,2.133,0h1.067c1.067,1.066,3.2,1.066,4.267,1.066
		c1.067,0,2.133-1.066,3.2-2.133c0-1.066,1.067-1.066,1.067-2.133l1.067-1.066c0-1.066,1.067-2.133,1.067-4.267l0,0
		c0-1.066,1.067-2.133,1.067-3.2h1.067c0-1.066,1.067-2.133,1.067-3.2h1.067c0-1.067,0-2.133,1.067-3.2v-1.067
		c-1.067-1.067,0-2.133-1.067-3.2c0-2.133,0-3.2,1.067-4.267l1.067-1.067c1.067-1.067,1.067-1.067,2.133-1.067
		c1.067,0,1.067,0,2.133-1.067l1.067-1.067c1.067,0,2.133,0,3.2-1.067c0,0,1.067,0,1.067-1.067c1.067-1.067,1.067-1.067,2.133-2.133
		c0-1.067-1.067-1.067,0-2.133c1.067-1.067,1.067-2.133,1.067-3.2c0,0,0-1.067,1.067-1.067c1.067-1.067,1.067-1.067,0-2.133
		c0,0,1.067,0,1.067-1.067c0-1.067,1.067-3.2,1.067-4.267c0-1.067,0-1.067,0-2.133c0,0,0-1.067,0-2.133v-1.067
		c0-2.133,0-4.267,0-6.4c1.067,0,1.067,0,2.133,0c1.067-2.133,2.133-3.2,2.133-5.333c0,0,0-1.067,1.067-1.067
		c1.067,0,1.067-1.067,2.133-2.133v-1.067c1.067-1.067,1.067-1.067,1.067-3.2v-1.067c1.067,0,0-1.067,0-2.133s0-3.2-1.067-4.267
		c0-1.067-1.067-3.2-3.2-2.133c-1.067,0-1.067-1.067-2.133-1.067c-1.067-1.067-1.067-2.133-2.133-2.133s-1.067-1.067-2.133-2.133
		l-1.067-1.067c-1.067,0-3.2,0-4.267-1.067l0,0c-1.067,0-1.067,0-2.133-1.067h-1.067c-1.067,1.067-1.067,0-2.133,0l0,0
		c0,0,0,0,1.067-1.067c-1.067-1.067-1.067-2.133-2.133-2.133c-1.067-1.067-2.133-1.067-3.2-1.067c-1.067,0-2.133,0-3.2,0
		c0,1.067,0,1.067-1.067,1.067c0-1.067,0-2.133,0-2.133h-3.2c0,0-1.067,0-1.067-1.067h-1.067c0-1.067,1.067,0,1.067-1.067
		c0,0,0-1.067-1.067-1.067c0-1.067,1.067-2.133,1.067-3.2c-1.067,0-2.133,0-2.133-1.067s-1.067-3.2-1.067-4.267h-1.067
		c0-1.067-1.067-2.133-2.133-2.133l-1.067-1.067c-2.133-1.067-3.2-2.133-5.333-1.067c-1.067,0-2.133,0-3.2,0h-1.067
		c-1.067-1.067-2.133-2.133-3.2-3.2c0-1.067-1.067-1.067-1.067-2.133c0-1.067-1.067-1.067-2.133-2.133c-1.067,0-1.067,0-2.133,0
		c0-1.067,0-1.067,1.067-2.133c-1.067-1.067-2.133-2.133-4.267-2.133c0-2.133-2.133-3.2-3.2-1.067c0,0,0,1.067-1.067,1.067
		c-1.067,0-3.2,1.067-4.267-1.067c-1.067,1.067-3.2,0-4.267,1.067v-1.067c0-2.133-2.133-3.2-4.267-2.133
		c-1.067,1.067-2.133,1.067-3.2,2.133v1.067c1.067,1.067,0,2.133,0,3.2c-1.067,0-1.067,0-2.133-1.067c0-1.067,0-1.067,0-2.133
		c1.067-1.067,1.067-2.133,0-4.267c1.067,0,1.067-1.067,2.133-1.067v-1.067h-2.133v1.067c-1.067,0-1.067,1.067-2.133,1.067
		c-1.067,0-3.2,1.067-4.267,1.067l-1.067,1.067c0,1.067-1.067,1.067-1.067,2.133v1.067c-1.067,1.067-1.067,1.067-2.133,2.133v1.067
		l0,0c0-1.067,0-1.067,0-1.067h-1.067c0-1.067,0-2.133-1.067-2.133c-1.067,0-1.067,0-2.133-1.067c0,0,0,0-1.067,0
		c-1.067,1.067-2.133,2.133-4.267,2.133c-1.067,0-2.133,0-2.133-1.067c0,0,0-1.067-1.067-1.067c0,0,0,0-1.067,0
		c0-1.067-1.067-1.067-1.067-2.133v-1.067c0-2.133,1.067-4.267,1.067-6.4l0,0c1.067-1.067,1.067-3.2,1.067-4.267
		c-1.067,0-1.067,0-2.133,0v-1.067h-4.267c0,1.067,0,3.2,0,4.267c0,3.2,0,5.333,0,8.533l0,0c0,1.067,1.067,1.067,0,1.067l0,0
		c0,1.067,0,1.067,0,2.133c1.067,0,1.067,0,1.067-1.067c1.067,2.133,3.2,3.2,3.2,5.333h3.2c0,1.067,0,1.067,0,1.067h1.067v1.067
		c1.067,0,1.067-1.067,1.067-1.067c1.067-1.067-1.067-1.067,0-2.133c1.067,0,1.067,0,1.067-1.067c0-1.067,1.067-1.067,2.133,0
		c0,0,1.067,1.067,2.133,1.067c-1.067,1.067-1.067,2.133,0,3.2c1.067,1.067,2.133,2.133,1.067,4.267c0,1.067,0,2.133,0,3.2
		c0,1.067,0,1.067-1.067,2.133c1.067,1.067,1.067,1.067,0,1.067c-1.067,1.067-1.067,2.133-1.067,3.2c0,0-1.067,0-2.133,0
		c0,1.067,0,1.067,0,2.133c0,1.067,0,2.133-1.067,2.133c-2.133,0-2.133,2.133-2.133,2.133s0,1.067-1.067,1.067
		c-1.067,2.133-1.067,3.2-1.067,5.333c1.067,0,1.067,0,2.133,0c0,2.133-2.133,3.2-3.2,4.267v1.067c0,2.133,1.067,3.2,1.067,4.267
		l1.067,1.067c1.067,0,1.067,1.067,1.067,1.067c0,1.067,0,1.067,1.067,2.133c2.133,2.133,2.133,4.267,3.2,7.467c0,0,0,0,0,1.067
		c1.067,1.067,1.067,2.133,2.133,3.2c1.067,1.067,1.067,3.2,2.133,4.267l1.067,1.067c0,1.067,1.067,2.133,1.067,3.2
		c2.133,2.133,4.267,4.267,6.4,5.333c2.133,1.067,3.2,1.067,4.267,3.2c1.067,1.067,1.067,1.067,3.2,2.133c0,1.067,0,2.133,0,2.133
		c1.067,1.067,0,2.133,1.067,4.267v1.067c1.067,2.133,1.067,4.267,0,5.333v1.067c1.067,1.067,0,2.133,1.067,3.2
		c0,1.067,0,1.067,0,2.133c-1.067,1.067-1.067,2.133,0,3.2v1.067c9.6,11.733,19.2,23.467,30.933,33.066c1.067,0,2.133,0,3.2-1.066
		C203.585,403.612,203.585,402.546,204.652,401.48z"/>
	<path style="fill:#F3F3F3;" d="M229.185,94.279c-1.067,0-1.067,0-2.133-1.067c-1.067,1.067,1.067,1.067,0,2.133
		c1.067,0,1.067,0,2.133,0c0,0,0,0,1.067,0c0,0,0,0,1.067,0h1.067c0,0,0,0,1.067,0h1.067c2.133,0,4.267,1.067,6.4,1.067
		c1.067,1.067,1.067,2.133,2.133,2.133c-1.067,1.067-1.067,1.067,0,2.133c1.067,1.067,0,3.2-1.067,3.2
		c-1.067,0-1.067,1.067-1.067,2.133c1.067,0,2.133,0,2.133-1.067c0-1.067,1.067-1.067,1.067,0c0,0,1.067,1.067,1.067,2.133
		c1.067,0,1.067,0,2.133,0c-2.133,1.067-3.2,0-4.267,1.067v1.067c2.133,0,2.133,0,3.2,0c-1.067,0-1.067,0-1.067,0v1.067
		c-1.067,1.067-2.133,2.133-3.2,2.133v-1.067h-1.067c0,0,0,0,0,1.067c0,0,0,0,0,1.067c-2.133,0-3.2,1.067-4.267,2.133
		c0,1.067-1.067,2.133-1.067,2.133v1.067c0,1.067,1.067,1.067,1.067,2.133c0,0-1.067,0-1.067,1.067v1.067
		c1.067,1.067,0,2.133,1.067,3.2c0,2.133,1.067,3.2,1.067,5.333c1.067,0,2.133,0,3.2-1.067c0,1.067,0,1.067,1.067,1.067l1.067,1.067
		c1.067,0,1.067,1.067,2.133,0c0-1.067,1.067-2.133,2.133-3.2c1.067-1.067,2.133-2.133,2.133-3.2c0,0,0,0,0-1.067
		c1.067,0,2.133,0,3.2-1.067h1.067l1.067-1.067c0,0,0-1.067-1.067-1.067c1.067,0,1.067,0,1.067-1.067l0,0c0,0,1.067,0,1.067-1.067
		s1.067-1.067,1.067-1.067c1.067,0,2.133,0,2.133-1.067c0-1.067,1.067-1.067,1.067,0c1.067,1.067,1.067,1.067,2.133,0
		c1.067-1.067,1.067,0,2.133-1.067h1.067c1.067-1.067,2.133-1.067,3.2-2.133c1.067-1.067,2.133-1.067,3.2-1.067v-1.067
		c0,0,0,0,0-1.067c1.067,1.067,2.133,1.067,3.2,0h1.067c2.133,0,4.267,0,5.333-1.067l0,0c1.067-1.067,3.2-1.067,4.267-2.133v-1.067
		c-1.067,0-3.2,0-4.267-1.067c1.067,0,1.067,0,2.133,0v-1.067c1.067,0,1.067,0,2.133,0v1.067c1.067,0,1.067,0,2.133,1.067v-1.067
		c1.067,0,1.067,0,1.067,1.067l0,0v-1.067c0-1.067-1.067-2.133-2.133-2.133l0,0l0,0l0,0c-1.067,0-1.067,0-2.133,0
		c0-1.067-1.067-1.067-1.067-2.133c1.067,0,1.067-1.067,2.133-1.067c1.067-1.067,1.067-1.067,1.067,0s1.067,1.067,2.133,1.067
		s2.133-1.067,2.133-1.067v-1.067c1.067,0,1.067,0,2.133,0v-1.067h-1.067l0,0c1.067,0,1.067,0,2.133,0c0-1.067,0-2.133-1.067-2.133
		c-1.067,0-1.067,0-2.133,0l0,0c0,0,0,0,1.067,0s2.133,0,2.133-1.067c1.067,0,1.067-1.067,1.067-1.067c-1.067,0-2.133,0-2.133-1.067
		c1.067,0,1.067-1.067,2.133-1.067l1.067-1.067c1.067,0,1.067,0,1.067-1.067c1.067-1.067,1.067-1.067,2.133-2.133
		c0,0,0,1.067,1.067,0v-1.067c2.133,0,4.267,0,6.4-1.067c-1.067-1.067-1.067-1.067-2.133-1.067c-1.067,1.067-2.133,0-3.2,1.067
		h-1.067c-1.067,1.067-2.133,0-3.2,0c-1.067,1.067-1.067,1.067-2.133,1.067v-1.067c-1.067,0-1.067,0-2.133,0v-1.067
		c-1.067-1.067-3.2-1.067-5.333-1.067c-4.267,0-7.467,0-11.733,0c-1.067,0-3.2,0-4.267,1.067l0,0c-1.067,0-2.133-1.067-3.2-1.067
		c-1.067,1.067-2.133,0-2.133,1.067c-1.067,0,0,1.067-1.067,1.067c0,1.067-1.067,1.067-2.133,1.067s-2.133-1.067-3.2-1.067
		c-1.067,0-2.133,0-3.2,0c0,1.067,0,1.067,0,1.067h-1.067c-1.067-1.067-2.133-1.067-3.2,0h-1.067c-1.067-1.067-3.2,0-4.267-1.067
		h-1.067c-1.067,1.067-1.067,1.067-2.133,1.067c-1.067,0-2.133,0-3.2,1.067h-1.067c-1.067-1.067-1.067-1.067-2.133,0
		c0,0,0,0-1.067,0c-1.067,0-2.133,0-3.2,0c0,0-1.067,0-1.067,1.067v1.067c0,0,0,1.067-1.067,1.067s-2.133,1.067-4.267,1.067
		c-1.067,0-1.067,0-2.133,0c-1.067,1.067-3.2,2.133-4.267,2.133C228.118,93.213,228.118,93.213,229.185,94.279z"/>
	<path style="fill:#F3F3F3;" d="M445.718,113.479c-1.067,0-1.067,0-2.133,1.067c0,0,0,0-1.067,0
		C443.585,113.479,444.652,113.479,445.718,113.479c-4.267-3.2-7.467-6.4-10.667-8.533c-1.067,0-1.067,0-2.133-1.067
		c0,0-1.067,0-2.133-1.067h-1.067c-1.067,1.067-1.067,0-2.133,1.067c0,1.067,0,1.067,0,2.133c0,0-1.067,1.067-2.133,0l0,0
		c-1.067,1.067-2.133,1.067-3.2,0h-1.067c0,1.067-1.067,0-1.067,1.067c0,0,0,0-1.067,0c0,0,0,0-1.067,0c-2.133,0-3.2,0-5.333,1.067
		c-1.067,0-1.067,0-1.067,1.067c0,0,0,1.067,0,2.133c-1.067,0-1.067,1.067-2.133,1.067s-2.133,0-2.133,0c-1.067,0-1.067,0-2.133,0
		c-1.067,0-1.067,0-2.133,0c1.067,1.067,1.067,1.067,1.067,1.067l1.067,1.067c-1.067,0-1.067,0-2.133,0
		c-2.133,0-2.133,0-2.133,2.133h-1.067c-2.133,0-2.133,0-3.2-2.133c-1.067,0-1.067,0-2.133,1.067c0,1.067,0,1.067,1.067,1.067
		s2.133,1.067,2.133,1.067c-1.067,1.067-1.067,1.067,0,2.133c0,0,0,0,1.067,1.067c0,1.067,1.067,1.067,1.067,0
		c1.067-1.067,2.133-1.067,3.2,0c-1.067,0-1.067,1.067-2.133,1.067c-1.067,0-1.067,1.067-1.067,1.067h1.067
		c0,1.067,0,2.133-1.067,2.133s-1.067,1.067-2.133,1.067c-1.067,1.067-2.133,1.067-3.2,0c2.133,1.067,1.067-1.067,2.133-2.133
		c1.067-1.067,0-2.133,1.067-3.2c0,0,0,0-1.067,0c-1.067,0-2.133,0-2.133-2.133v-1.067l-1.067-1.067
		c0-1.067-1.067-2.133-2.133-2.133c0-1.067,0-2.133,1.067-2.133c-2.133-1.067-4.267-1.067-6.4-1.067c0,1.067,0,3.2-1.067,4.267
		l1.067,1.067c0,1.067,0,1.067,0,2.133h2.133v1.067c1.067,0,1.067,0,2.133,0c0,1.067,0,1.067,0,2.133
		c-1.067,0-2.133-1.067-2.133-1.067c-1.067,0-2.133-1.067-3.2-1.067l0,0c-1.067-1.067-2.133-1.067-4.267-1.067
		c-1.067,0-1.067,0-2.133,0c-1.067,0-1.067,0-2.133-1.067c0,0,0,1.067-1.067,1.067l0,0l0,0c1.067,0,1.067,1.067,0,1.067
		c-1.067,1.067-1.067,1.067-2.133,0c-1.067-1.067-2.133-1.067-3.2,0h-1.067c-1.067-1.067-1.067,0-1.067,0s-1.067,0-1.067,1.067
		c-1.067-1.067-1.067-1.067-2.133,0c0-1.067,0-1.067,0-2.133c-1.067,1.067-2.133,1.067-3.2,1.067h-1.067
		c-1.067,1.067-1.067,1.067-2.133,1.067s-1.067,1.067-2.133,1.067c0,0,0,1.067,1.067,1.067c-1.067,0-2.133,0-3.2,0
		c-1.067,0-1.067-1.067-1.067-2.133c1.067,0,1.067,0,1.067-2.133h-3.2v3.2h1.067c0,1.067,0,1.067,0,2.133
		c-1.067,0-1.067,0-2.133-1.067h-1.067l-1.067,1.067c-1.067,0-2.133,0-2.133,1.067l1.067,1.067c-2.133,1.067-4.267,0-5.333-1.067
		c0,1.067,0,2.133,2.133,2.133v1.067c-1.067,0-3.2,0-3.2-1.067c-1.067,0-2.133,0-2.133-1.067c0-1.067-1.067-1.067,0-2.133
		c0-1.067-1.067-1.067-2.133-1.067c-1.067,0-2.133-1.067-3.2-2.133h1.067c1.067,1.067,3.2,1.067,4.267,1.067l0,0
		c1.067,1.067,1.067,1.067,2.133,1.067c1.067,0,2.133,0,3.2,0c1.067,0,3.2,0,3.2-2.133c-1.067-1.067-2.133-3.2-4.267-3.2l0,0
		c-1.067,0-2.133-1.067-3.2-1.067c-1.067,0-3.2-1.067-4.267-1.067c-1.067-1.067-2.133-1.067-3.2-1.067
		c-1.067,0-1.067-1.067-2.133-1.067c-1.067,1.067-2.133,1.067-3.2,1.067c0-1.067,0-1.067,0-2.133c-1.067,0-2.133,0-3.2,1.067
		c0-1.067,0-1.067,0-1.067c-1.067,0-1.067,1.067-2.133,1.067c-1.067-1.067-1.067-1.067-2.133,0c0,0,0-1.067,0-2.133
		c-1.067,0-1.067,0-2.133,1.067v1.067l-1.067-1.067c-1.067,0-2.133,1.067-3.2,1.067c-1.067,1.067-1.067,1.067-2.133,0
		c0,0,0,0-1.067-1.067c0,1.067,0,1.067,0,2.133c-1.067,0-2.133,1.067-2.133,2.133c0,0-1.067,0-1.067-1.067
		c-1.067,1.067-1.067,1.067-2.133,2.133v1.067c-2.133,0-4.267,3.2-5.333,6.4c-2.133,1.067-3.2,2.133-4.267,4.267
		c-1.067,0-3.2,1.067-4.267,2.133l0,0c-1.067,0-2.133,1.067-3.2,1.067c0,1.067,0,2.133-1.067,3.2c0,1.067,1.067,1.067,1.067,2.133
		h1.067c0,1.067-1.067,1.067,0,2.133c0,0,0,0,0,1.067v1.067c1.067,0,1.067,0,1.067,1.067c1.067,1.067,3.2,0,3.2,0
		c1.067-1.067,2.133-2.133,3.2-1.067c0,0,0-1.067,0-2.133c0,1.067,1.067,1.067,1.067,2.133c1.067,2.133,2.133,3.2,2.133,5.333
		c0,1.067,1.067,2.133,1.067,3.2v1.067c1.067,0,1.067,0,2.133,0c1.067-1.067,2.133-1.067,3.2-1.067c1.067,0,2.133-1.067,2.133-2.133
		c0-1.067,0-3.2,0-4.267c2.133-1.067,3.2-1.067,4.267-3.2c-1.067-1.067-2.133-1.067-3.2-2.133l-1.067-1.067c0-1.067,0-2.133,0-3.2
		h1.067c1.067-1.067,2.133-2.133,4.267-3.2l1.067-1.067c0-1.067,1.067-2.133,1.067-3.2c2.133-2.133,4.267-1.067,6.4,1.067
		l-1.067,1.067c-1.067,0-1.067,1.067-2.133,2.133l-1.067,1.067l0,0c0,1.067-1.067,1.067-1.067,1.067
		c-1.067,0-1.067,1.067-1.067,2.133c1.067,1.067,1.067,1.067,1.067,2.133s0,1.067,1.067,2.133c0,0,0,1.067,1.067,1.067
		c0,0,1.067,1.067,2.133,1.067s2.133,0,4.267-1.067l0,0c0-1.067,1.067-1.067,1.067-1.067c1.067,0,2.133,0,2.133,0h1.067l0,0
		c0,1.067,0,1.067,0,1.067c1.067,1.067,2.133,0,2.133,1.067c-1.067,0-2.133,1.067-3.2,1.067c-1.067,1.067-2.133,1.067-3.2,0
		c-1.067,0-1.067,0-2.133,0h-1.067c-1.067,0-1.067,0-2.133,0v2.133c1.067,0,1.067,0,2.133,0v3.2c-1.067,0-1.067,0-2.133,0
		c-1.067-1.067-2.133-1.067-3.2-1.067c0,1.067,0,2.133-1.067,2.133v1.067c1.067,1.067,0,2.133,0,3.2
		c-1.067-1.067-1.067-1.067-2.133,0c0,0,0,0-1.067,1.067c0,0-1.067,1.067-1.067,0l0,0c-1.067-1.067-1.067-1.067-2.133,0
		c-1.067,0-1.067,1.067-2.133,1.067c-1.067,0-2.133,0-2.133,1.067h-1.067c0-1.067,0-1.067,0-1.067h-1.067
		c-1.067-1.067-1.067,0-2.133,0c-1.067,0-2.133,1.067-3.2,1.067c0-1.067-1.067-1.067-1.067-1.067v-1.067l0,0l0,0h1.067
		c0-1.067,0-1.067-1.067-1.067l0,0l0,0c0-1.067,1.067-1.067,1.067-2.133c0-1.067,0-2.133,0-3.2h-1.067
		c-1.067,0-1.067,1.067-2.133,1.067c-1.067,1.067-1.067,1.067-2.133,2.133c1.067,2.133,2.133,4.267,1.067,6.4
		c-1.067,0-2.133,0-3.2,1.067l0,0c-1.067,0-2.133,0-3.2,1.067c-1.067,0-1.067,1.067-1.067,1.067c-1.067,1.067-1.067,2.133-2.133,3.2
		c-1.067,1.067-2.133,1.067-3.2,2.133c0,1.067,0,1.067,0,2.133c-1.067,0-2.133,1.067-3.2,2.133c-1.067,0-1.067,0-1.067,0
		s-1.067-1.067-1.067,0c0,1.067,0,1.067,0,2.133c-1.067,0-2.133,1.067-3.2,0c-1.067,0-1.067,0-2.133,1.067
		c0,1.067,0,2.133,1.067,2.133h1.067c1.067,0,2.133,1.067,2.133,2.133l0,0c1.067,1.067,1.067,2.133,1.067,3.2c0,0,0,0,0,1.067
		c0,2.133,0,3.2-1.067,5.333c-3.2,0-6.4,0-8.533,0c0,0-1.067,0-1.067-1.067c0,0,0,0,0,1.067c-1.067-1.067-1.067-1.067-2.133,0
		c0,0,0,0-1.067,0c-1.067,0-1.067,1.067-1.067,2.133v1.067c0,1.067,0,1.067,0,2.133v1.067c0,1.067,0,1.067,0,1.067
		c0,1.067,0,1.067-1.067,2.133s-1.067,1.067,0,2.133c1.067,1.067,1.067,2.133,1.067,3.2c0,0,0,1.067-1.067,1.067
		c1.067,0,2.133,0,3.2,0c1.067,0,2.133,1.067,2.133,2.133v1.067c1.067,0,1.067,0,2.133,0c1.067-1.067,2.133-1.067,3.2-1.067
		c1.067,0,1.067,0,2.133,0c1.067,0,1.067,0,2.133-1.067s2.133-2.133,3.2-2.133c1.067-1.067,1.067-3.2,2.133-3.2v-1.067
		c-1.067-1.067,0-1.067,0-2.133c0,0,0-1.067,1.067-1.067c0,0,0,0,1.067-1.067h1.067c0-1.067,1.067-1.067,2.133-2.133h1.067
		c1.067-1.067,1.067-1.067,2.133-2.133v-1.067c-1.067-1.067,0-2.133,1.067-2.133c0,0,1.067,0,1.067-1.067c0,0,0,1.067,1.067,1.067
		s2.133,0,3.2,1.067c1.067,1.067,2.133-1.067,2.133-1.067c1.067,0,2.133,0,2.133-1.067l1.067-1.067c0,0,1.067,0,1.067,1.067
		c1.067,0,1.067,1.067,1.067,2.133c0,2.133,1.067,3.2,3.2,4.267c1.067,0,1.067,1.067,2.133,2.133l1.067,1.067
		c0,0,1.067,0,1.067,1.067c0,0,1.067,1.067,2.133,1.067v1.067c1.067,0,1.067,0,2.133,0c0,1.067,0,1.067,0,2.133
		c0,1.067,0,1.067,0,2.133c-1.067,1.067,0,1.067,1.067,1.067c0-1.067,0-1.067,1.067-1.067v-1.067c0,0,0-1.067-1.067-1.067
		c-1.067,0-1.067-1.067,0-1.067v-1.067c1.067,0,1.067,0,2.133,0c-1.067-1.067-2.133-2.133-4.267-2.133v-1.067
		c-1.067-1.067-2.133-1.067-3.2-2.133c-1.067-1.067-2.133-2.133-2.133-3.2c-1.067-1.067-2.133-2.133-3.2-3.2
		c0-1.067,0-2.133,1.067-2.133c0,0,1.067-1.067,2.133-1.067c0,1.067,1.067,1.067,1.067,2.133l0,0c1.067-1.067,1.067-1.067,2.133,0
		v1.067c0,1.067,0,1.067,1.067,1.067c1.067,1.067,2.133,1.067,2.133,1.067c1.067,1.067,1.067,2.133,3.2,2.133
		c1.067,0,2.133,1.067,3.2,3.2c0,1.067,0,2.133,0,3.2v1.067v1.067c1.067,1.067,1.067,3.2,3.2,3.2l0,0
		c0,1.067,1.067,1.067,2.133,2.133c-1.067,0-1.067,1.067-1.067,1.067c1.067,0,0,1.067,1.067,1.067s2.133,0,2.133,1.067
		c0-1.067,0-1.067,0-2.133s0-1.067,1.067-2.133c1.067,0,1.067,1.067,2.133,1.067c0-1.067,0-2.133-2.133-2.133
		c0-1.067-1.067-1.067,0-2.133c0-1.067-2.133-1.067-1.067-2.133c1.067-1.067,1.067,1.067,2.133,1.067c0-1.067,0-1.067,1.067-1.067
		c1.067-1.067,2.133-1.067,3.2,0h1.067c1.067,0,2.133-1.067,4.267-1.067c1.067-1.067-1.067-1.067-1.067-1.067
		c0-1.067,0-2.133-1.067-2.133c0,0,0-1.067,0-2.133l1.067-1.067c0-1.067,1.067-2.133,1.067-4.267c0,0,1.067,0,1.067,1.067
		c0-2.133,0-2.133,1.067-3.2c0,0,1.067-1.067,1.067-2.133h2.133v1.067c1.067,0,2.133,0,3.2,0l0,0c0,0-1.067,0-1.067,1.067
		s1.067,1.067,1.067,2.133c0,1.067,1.067,1.067,1.067,2.133c1.067,0,2.133-1.067,3.2-1.067c0-1.067,0-2.133-1.067-2.133
		c0,0,0-1.067-1.067-1.067c1.067,0,2.133-1.067,3.2-1.067l0,0c0-1.067,2.133-1.067,3.2-1.067c1.067,0,2.133,0,3.2,0
		c-2.133,1.067-2.133,1.067-2.133,3.2c0,0,0,0,0,1.067c0,1.067-1.067,2.133-1.067,2.133c1.067,0,1.067,1.067,2.133,1.067
		c0,0,1.067,0,1.067,1.067c1.067,1.067,2.133,1.067,2.133,2.133l0,0c2.133,0,3.2,2.133,4.267,4.267v1.067
		c-1.067,1.067-2.133,1.067-3.2,1.067c-2.133,0-4.267,1.067-6.4-1.067c-1.067,0-2.133,0-3.2-1.067c-1.067-1.067-2.133,0-2.133-1.067
		s-1.067-1.067-1.067,0c-1.067,1.067-2.133,1.067-2.133,1.067c-1.067,0-1.067,1.067-1.067,1.067c-1.067,1.067-2.133,1.067-3.2,0
		h-1.067c0,0,0,1.067,1.067,1.067c0,1.067-1.067,1.067-2.133,1.067c-1.067,0-1.067,0-2.133,1.067c0-2.133-1.067-1.067-2.133-1.067
		l-1.067,1.067v1.067c1.067,0,1.067,1.067,1.067,2.133c0,2.133,1.067,3.2,1.067,4.267c1.067,0,1.067,0,2.133,0
		c1.067,1.067,2.133,1.067,3.2,2.133c1.067,1.067,2.133,1.067,2.133-1.067v-1.067c1.067,0,2.133,0,3.2,1.067l1.067,1.067
		c1.067,0,3.2,0,3.2-1.067c0,0,0,0,1.067-1.067c1.067,0,2.133,0,2.133,1.067c0,2.133,0,4.267,2.133,5.333c-1.067,0-1.067,0-2.133,0
		c0,1.067,0,1.067,0,1.067v1.067c0,1.067-1.067,2.133-1.067,4.267c0,1.067-1.067,2.133-2.133,2.133c-2.133,0-4.267,0-5.333-1.067
		h-1.067c-1.067,0-1.067,1.067-2.133,1.067c-1.067,1.067-1.067,1.067-2.133,0c-1.067-1.067-2.133-1.067-3.2-1.067
		c-1.067-1.067-2.133-1.067-4.267-1.067l0,0c-1.067-1.067-3.2-1.067-4.267-2.133l-1.067-1.067h-1.067h-1.067
		c-1.067,0-1.067,1.067-2.133,2.133c0,1.067,0,2.133,0,4.267h-1.067c-1.067,1.067-2.133,1.067-3.2-1.067
		c-1.067-1.067-1.067-1.067-2.133-1.067c-1.067,0-2.133,0-3.2-1.067c-1.067,0-1.067-2.133-1.067-2.133
		c-1.067,0-2.133-1.067-3.2-1.067l0,0c0-1.067-1.067,0-1.067,0l0,0h-1.067h-1.067c-1.067-1.067-2.133-1.067-3.2-2.133
		c0-1.067,0-1.067,1.067-1.067c1.067-1.067,1.067-2.133,1.067-4.267c0,0,0,0-1.067,0c0,0,0,0-1.067,0c2.133-1.067-1.067-2.133,0-3.2
		c-1.067,0-2.133,0-3.2,1.067h-1.067c-1.067,0-2.133,0-3.2,0h-1.067c-1.067,1.067-2.133,1.067-3.2,0c0,0-1.067,0-2.133,0
		c-1.067,1.067-2.133,0-2.133,1.067c-1.067,0-1.067,0-1.067,0c-1.067,1.067-3.2,0-4.267,2.133l0,0c-1.067,0-1.067,0-2.133,1.067
		c-1.067,1.067-3.2,1.067-4.267,1.067c0,0,0,0-1.067,0c-1.067,1.067-2.133,1.067-2.133,0c-1.067,0-2.133,0-1.067-2.133
		c-1.067,0-2.133,0-2.133,1.067c0,1.067,0,2.133-1.067,2.133c-1.067,1.067-1.067,1.067-2.133,2.133s-3.2,2.133-3.2,4.267l0,0
		c-1.067,1.067-1.067,2.133-1.067,3.2c0,2.133,0,4.267-2.133,5.333l0,0c-1.067,1.067-1.067,2.133-2.133,2.133
		c-1.067,1.067-2.133,1.067-3.2,1.067v1.067c0,1.067,0,2.133-2.133,3.2c-1.067,0-1.067,1.067-1.067,2.133
		c0,2.133-1.067,3.2-1.067,4.267v1.067h-1.067c0,1.067-1.067,4.267-2.133,5.333c-1.067,1.067-1.067,2.133,0,3.2
		c1.067,1.067,1.067,2.133,0,3.2c0,1.067,0,2.133,0,2.133c1.067,1.067,1.067,2.133,0,3.2c0,1.067-1.067,2.133-1.067,4.267
		c0,0,0,0,0,1.067c-1.067,1.067-1.067,2.133-1.067,4.267c0,1.067,0,1.067,1.067,2.133v1.067c-1.067,1.067-1.067,2.133,0,3.2
		c1.067,0,1.067,1.067,2.133,1.067c0,1.067,0,2.133,1.067,2.133c0,0,0,0,0,1.067c0,1.067,1.067,2.133,2.133,2.133
		c0,2.133,1.067,3.2,1.067,5.333l0,0c1.067,1.067,1.067,1.067,2.133,1.067c1.067,1.067,2.133,2.133,4.267,3.2
		c1.067,1.067,1.067,1.067,2.133,2.133c1.067,1.067,2.133,1.067,2.133,1.067c1.067,0,2.133,0,3.2-1.067l0,0c0,0,1.067,0,1.067-1.067
		c1.067,0,2.133,0,3.2-1.067l0,0c0,0,1.067,1.067,1.067,0c0,1.067,2.133,0,2.133,1.067h1.067c0-1.067,1.067-1.067,2.133-1.067
		c2.133-1.067,4.267-1.067,5.333-3.2c0,0,0,0,1.067,0c1.067,0,1.067,0,2.133,0h1.067c1.067,0,1.067,0,2.133,0
		c1.067,0,1.067,0,2.133,1.067c0,1.067,1.067,2.133,1.067,3.2c0,1.067,1.067,1.067,1.067,2.133h1.067h1.067c1.067,0,1.067,0,1.067,0
		c1.067-1.067,1.067,0,2.133,0v1.067c1.067,0,1.067,1.067,1.067,1.067c1.067,1.067,1.067,2.133,1.067,2.133
		c0,1.067,0,2.133-1.067,2.133c-1.067,0-1.067,1.067,0,2.133c0,1.067,0,2.133,0,3.2c0,1.067-1.067,1.067-1.067,2.133
		c0,2.133,0,3.2,2.133,4.267c1.067,1.067,2.133,2.133,2.133,3.2c0,1.067,1.067,1.067,1.067,2.133c0,1.067,1.067,1.067,1.067,2.133
		c0,1.067,1.067,1.067,1.067,2.133v1.067h1.067c-1.067,1.067-1.067,1.067,0,2.133s1.067,3.2,1.067,4.267v1.067v1.067v1.067v1.067
		c1.067,1.067,1.067,2.133,1.067,4.267c0,1.067,0,2.133-1.067,3.2h-1.067v1.067c-1.067,1.067-1.067,2.133-1.067,4.267
		c0,0,0,0,0,1.067c-1.067,2.133-1.067,3.2-1.067,5.333c0,2.133,0,3.2,1.067,5.333c1.067,1.067,1.067,2.133,1.067,3.2
		c0,1.067,1.067,3.2,2.133,4.267c0,1.067,0,1.067,1.067,1.067c1.067,1.067,1.067,2.133,1.067,3.2c0,1.067,0,2.133,0,4.267v1.067
		c1.067,1.067,0,2.133,1.067,3.2c0,1.066,0,1.066,0,2.133v1.066c0,1.066,0,2.133,1.067,2.133s0,2.133,2.133,2.133l0,0
		c0,1.066,1.067,2.133,1.067,4.267c0,1.066,0,1.066,1.067,2.133c0,0,0,1.066,1.067,2.133v1.066c0,1.066,0,2.133,0,3.2v1.066
		c1.067,1.066,0,2.133,1.067,2.133c1.067,1.066,2.133,1.066,3.2,2.133c1.067-1.066,2.133-1.066,3.2-1.066h1.067
		c1.067-1.066,2.133-1.066,3.2-1.066c1.067,0,2.133,0,4.267,0h1.067c0-1.066,1.067-1.066,1.067-1.066c1.067,0,1.067,0,2.133,0
		c1.067-1.066,3.2-1.066,3.2-3.2c0-1.066,1.067-1.066,1.067-1.066c1.067-2.133,3.2-2.133,3.2-4.267l0,0
		c1.067-1.066,1.067-2.133,2.133-3.2c2.133,0,1.067-2.133,2.133-3.2c0-2.133,1.067-3.2,1.067-5.333c0-1.066,0-1.066,0-1.066
		c1.067,0,1.067,0,1.067-1.066c1.067-1.066,1.067-1.066,2.133-1.066c1.067,0,1.067-1.067,2.133-1.067c0,0,1.067-1.067,0-1.067
		c0-1.067,0-2.133,0-2.133c0-1.067,0-2.133,0-2.133c-1.067-1.067,0-2.133,0-3.2c0-1.067,0-2.133,0-2.133v-1.067
		c1.067-1.067,1.067-2.133,2.133-3.2c1.067,0,2.133-1.067,2.133-2.133c0-1.067,1.067-2.133,2.133-2.133
		c2.133-1.067,3.2-2.133,4.267-3.2l1.067-1.067c0,0,0-1.067,1.067-1.067l1.067-1.067c0-4.267,0-7.467,0-11.733
		c0-1.067,0-1.067-1.067-2.133s-1.067-2.133-1.067-3.2v-1.067c0-1.067-1.067-1.067,0-2.133c0,0-1.067-1.067,0-1.067
		c1.067-1.067,0-1.067,0-2.133c0,0,0,0,0-1.067l-1.067-1.067c-1.067-2.133,1.067-3.2,1.067-5.333l0,0
		c0-1.067,1.067-1.067,1.067-2.133c0-1.067,1.067-2.133,1.067-3.2l1.067-1.067c1.067-1.067,3.2-2.133,3.2-3.2v-1.067
		c1.067-1.067,2.133-2.133,3.2-4.267c1.067-2.133,3.2-3.2,5.333-4.267c1.067,0,2.133-1.067,2.133-2.133l0,0h1.067
		c0-1.067,2.133-2.133,1.067-3.2c1.067,0,0-1.067,1.067-2.133c1.067-1.067,2.133-2.133,1.067-4.267v-1.067
		c1.067-1.067,1.067-1.067,1.067-2.133c1.067,0,1.067-1.067,1.067-2.133c0,0,0,0,0-1.067c1.067-1.067,1.067-1.067,1.067-2.133
		s0-1.067,0-2.133c1.067-1.067,0-2.133,0-4.267c-1.067,0-2.133,1.067-4.267,1.067l0,0c0,1.067-1.067,1.067-1.067,1.067
		c-1.067,0-1.067,0-2.133,0c-1.067,0-1.067,0-2.133,1.067c0,1.067-1.067,1.067-1.067,1.067c-1.067,0-1.067,0-2.133,0
		c-1.067,1.067-2.133,0-3.2,0c0-2.133-1.067-3.2-3.2-3.2c1.067,0,1.067,0,2.133,0c0-1.067,0-2.133-1.067-3.2
		c-1.067-1.067-3.2-2.133-3.2-4.267c0,0,0-1.067-1.067-1.067c-1.067,0-1.067-1.067-2.133-1.067s-1.067-2.133-2.133-2.133v-1.067
		c0-1.067-1.067-3.2-1.067-4.267c-1.067-1.067-2.133-1.067-2.133-2.133c0,0-1.067-1.067-1.067-2.133c0-1.067,0-2.133,0-4.267
		c0-1.067,0-2.133-1.067-3.2c-1.067,0-2.133-2.133-3.2-3.2l0,0c0-1.067,0-3.2-1.067-4.267l0,0c-1.067-1.067-1.067-3.2-2.133-4.267
		v-1.067v-1.067c-1.067-1.067,0-2.133,0-2.133c1.067,0,1.067,0,2.133,1.067c1.067-1.067,0-3.2,1.067-4.267v3.2
		c1.067,0,1.067,1.067,1.067,1.067s1.067,1.067,1.067,2.133c1.067,1.067,2.133,2.133,2.133,4.267c0,0,0,1.067,1.067,1.067
		c1.067,1.067,1.067,2.133,1.067,3.2c1.067,0,1.067,0,1.067,1.067c1.067,2.133,2.133,4.267,2.133,6.4l0,0
		c0,1.067,1.067,2.133,2.133,3.2c2.133,1.067,3.2,2.133,3.2,4.267c1.067,1.067,1.067,1.067,1.067,2.133
		c1.067,1.067,1.067,2.133,2.133,3.2c0,1.067,1.067,1.067,1.067,2.133c0,1.067-1.067,3.2,1.067,4.267l0,0
		c0,2.133,1.067,3.2,1.067,5.333c1.067,0,2.133,0,2.133,0c1.067,0,1.067,0,2.133-1.067c0-1.067,1.067-1.067,1.067-1.067
		c1.067,0,1.067,0,2.133,0c1.067,0,2.133-2.133,4.267-2.133c0,0,0,0,1.067-1.067c0-1.067,1.067-1.067,1.067-1.067s0,0,1.067,0
		c1.067-1.067,2.133-1.067,3.2-1.067c1.067,0,1.067-1.067,1.067-1.067v-1.067c1.067,0,1.067-1.067,1.067-1.067
		c2.133-1.067,3.2-2.133,5.333-2.133l0,0c0-1.067,0-1.067,0-2.133c1.067,0,2.133,0,2.133,0c0-1.067,1.067-2.133,1.067-3.2
		c1.067,0,1.067,0,2.133,0c0-1.067,0-1.067,0-2.133c0-1.067,0-1.067,1.067-2.133c1.067,0,2.133-1.067,2.133-2.133
		c1.067-2.133,2.133-3.2,0-5.333l-1.067-1.067c-1.067,0-1.067,0-2.133-1.067c-1.067-1.067-1.067-1.067-2.133-1.067v-1.067
		c-1.067-1.067-1.067-2.133-1.067-3.2c0,0-1.067,0-1.067,1.067c0,1.067-1.067,1.067-1.067,2.133
		c-1.067,1.067-1.067,1.067-2.133,2.133c-1.067,0-3.2,0-4.267,1.067c-1.067-2.133-1.067-2.133-1.067-4.267v-2.133
		c-1.067,0-1.067,0-1.067,0c0,1.067,0,2.133,0,3.2c-1.067-1.067-1.067-2.133-1.067-3.2c0-2.133-2.133-3.2-3.2-4.267
		c0-2.133-2.133-3.2-2.133-6.4c1.067,0,1.067,0,2.133,0c0,0,0,0,0-1.067l0,0c1.067,0,1.067,0,1.067,0c1.067,0,1.067,0,2.133,1.067
		v1.067c1.067,1.067,1.067,2.133,2.133,3.2c0,1.067,1.067,1.067,2.133,1.067c1.067,0,1.067,1.067,2.133,1.067c0,0,0,0,1.067,1.067
		c0,0,1.067,0,1.067,1.067c1.067,1.067,2.133,1.067,3.2,1.067c0,0,1.067,0,1.067-1.067c1.067,0,1.067-1.067,2.133-1.067h1.067
		c1.067,1.067,2.133,1.067,2.133,2.133c0,1.067,1.067,2.133,2.133,2.133s1.067,0,2.133,0c1.067,1.067,2.133,0,3.2,1.067h1.067h1.067
		c1.067,0,2.133,0,3.2-1.067h7.467c0,1.067,1.067,1.067,1.067,2.133c0,1.067,0,2.133,1.067,2.133c1.067,0,1.067,1.067,2.133,2.133
		c1.067,0,1.067,1.067,2.133,1.067c0,0,1.067,0,1.067-1.067v1.067c-1.067,0-1.067,0-2.133,0v2.133c2.133,0,2.133,1.067,3.2,2.133
		c2.133,1.067,2.133,0,4.267-1.067c0,0,0-1.067-1.067-1.067l1.067-1.067c0,1.067,1.067,2.133,0,2.133l1.067,1.067
		c1.067,1.067,1.067,1.067,0,1.067c-1.067,1.067-1.067,2.133,0,2.133c1.067,0,1.067,1.067,1.067,2.133v1.067
		c1.067,1.067,0,3.2,1.067,4.267c0,1.067,0,2.133,1.067,3.2c1.067,1.067,1.067,3.2,2.133,4.267c0,1.067,1.067,1.067,1.067,2.133
		s0,2.133,1.067,3.2c0,1.067,2.133,2.133,2.133,4.267c1.067,1.067,1.067,3.2,2.133,4.267c0,1.067,1.067,2.133,1.067,2.133
		c0,1.067,1.067,1.067,2.133,1.067h1.067c0-1.067,0-1.067,0-2.133h1.067c0-1.067,0-1.067,0-2.133c0-1.067,1.067-1.067,1.067-2.133
		h1.067c0-1.067,0-2.133,0-3.2v-1.067c1.067-1.067,1.067-2.133,0-2.133c-1.067-1.067,0-2.133-1.067-4.267v-1.067
		c-1.067-1.067,0-1.067,0-1.067c0-1.067,1.067-2.133,2.133-2.133c0-1.067,2.133,0,2.133-1.067c0-1.067,1.067-2.133,1.067-3.2
		c1.067-1.067,1.067-2.133,2.133-2.133c0-1.067,1.067-2.133,1.067-3.2c1.067-1.067,1.067-2.133,2.133-2.133
		c1.067,0,1.067-1.067,1.067-1.067v-1.067c0-1.067,0-2.133,1.067-2.133l0,0c1.067-1.067,1.067,0,2.133,0h1.067
		c1.067,0,2.133,0,2.133-1.067c0,0,1.067-1.067,1.067-2.133h1.067c1.067,1.067,2.133,2.133,2.133,3.2c0,1.067,1.067,2.133,2.133,3.2
		c1.067,1.067,2.133,1.067,2.133,3.2c1.067,0,1.067,1.067,2.133,1.067c0,1.067,1.067,2.133,1.067,3.2c0,1.067,0,2.133,0,4.267
		c0,0,0,0,1.067,0c1.067,1.067,1.067,1.067,2.133,0c1.067-1.067,2.133-1.067,3.2-2.133v-1.067c0,1.067,0,1.067,1.067,1.067
		c1.067,1.067,1.067,1.067,1.067,2.133c0,0,0,0,0,1.067c1.067,1.067,1.067,3.2,2.133,4.267c1.067,1.067,1.067,2.133,1.067,3.2
		c0,1.067,0,2.133,0,3.2c0,0,0,1.067,0,2.133v1.067c0,2.133,0,4.267,0,5.333c1.067,1.067,2.133,2.133,2.133,3.2
		c1.067,1.067,1.067,2.133,2.133,3.2c0,1.067,1.067,1.067,0,2.133v1.067l1.067,1.067c0,0,0,0-1.067,0c0,1.067,0,2.133,1.067,2.133
		c1.067,1.067,1.067,2.133,1.067,3.2h1.067c0,1.067,1.067,1.067,2.133,2.133c1.067,0,1.067,1.067,2.133,1.067
		c0,1.067,1.067,0,1.067,0c0-1.067,0-2.133,0-2.133c-1.067-1.067-1.067-3.2-1.067-4.267c0-1.067,0-1.067,0-2.133
		s-1.067-2.133-1.067-3.2c-1.067-1.067-2.133-2.133-2.133-3.2l-1.067-1.067c-1.067,0-2.133-1.067-3.2-2.133
		c1.067-1.067,1.067-1.067,0-2.133c0,0-1.067-1.067-1.067-2.133h-1.067c0-2.133,0-3.2,0-5.333v-1.067c0-1.067,2.133-2.133,0-3.2l0,0
		c1.067-1.067,0-1.067,0-1.067c1.067-1.067,1.067-1.067,2.133,0c0,0,0,0-1.067,1.067l1.067,1.067h1.067c0,1.067,0,1.067,1.067,1.067
		l1.067,1.067c0,1.067,1.067,2.133,1.067,3.2h1.067c1.067,1.067,2.133,2.133,4.267,3.2v1.067c-1.067,0-1.067,1.067-1.067,2.133
		c2.133,1.067,2.133-1.067,3.2-1.067l1.067-1.067l0,0v-1.067h1.067c1.067-5.333,1.067-9.6,1.067-14.933v-1.067
		c-2.133-1.067-3.2-3.2-4.267-4.267c0-1.067-1.067-2.133-2.133-2.133c-1.067-1.067-1.067-2.133,0-3.2
		c0-1.067,1.067-1.067,1.067-2.133s1.067-2.133,2.133-2.133c1.067-1.067,1.067-1.067,2.133-1.067c0,0,0,0,1.067,1.067l0,0
		C509.718,195.613,485.185,146.546,445.718,113.479z"/>
	<path style="fill:#F3F3F3;" d="M474.518,343.879c-1.067-1.067,0-2.133-1.067-3.2c-1.067-1.067-1.067-1.067-1.067-3.2v-1.067
		c-1.067,0-1.067,0-2.133,0c0-2.133,0-3.2-1.067-4.267c0-1.067,0-1.067,1.067-1.067c-1.067-1.067-3.2-1.067-3.2-2.133l0,0
		c-1.067,0-1.067-1.067-2.133-1.067c0-1.067,0-3.2,0-4.267v-1.067c-1.067-1.067,0-2.133,0-2.133c0-1.067,0-2.133,0-2.133v-1.067
		c0-1.067-1.067-1.067-2.133-1.067v-1.067c-1.067-1.067-1.067-1.067,0-2.133v-1.067c0,0,0,0,0-1.067c0-1.067-1.067-3.2-1.067-4.267
		h-1.067c0,1.067,0,2.133-1.067,2.133c-1.067,1.067-1.067,2.133-1.067,3.2v1.067c-1.067,0,0,1.067-1.067,2.133
		c0,1.067,0,2.133-1.067,3.2c0,1.067-1.067,2.133-1.067,3.2c0,2.133-1.067,2.133-2.133,4.267c0,0,0,0-1.067,0
		c-2.133,0-2.133,0-3.2-2.133c-1.067,0-2.133-1.067-3.2-2.133l-1.067-1.067c-1.067,0-1.067-1.067-1.067-1.067l-1.067-1.067
		c0-1.067,1.067-2.133,1.067-3.2c0-1.067,1.067-1.067,1.067-2.133c1.067,0,1.067-1.067,1.067-2.133c-1.067,0-2.133,0-2.133-1.067
		h-1.067c0,0,0,0-1.067,0c-1.067,0-2.133,0-3.2-1.067c0,0-1.067,0-2.133-1.067c0,1.067,0,2.133-2.133,2.133
		c-1.067,0-2.133,0-3.2,1.067c-1.067,0-1.067,1.067-1.067,2.133c0,1.067,0,2.133-2.133,2.133c0,1.067,0,2.133,0,3.2l0,0
		c-1.067,0-1.067,0-2.133,0c0,0-1.067,0-2.133,0v-1.067v-1.067c0-1.067-1.067-2.133-2.133-1.067
		c-1.067,1.067-2.133,1.067-4.267,1.067c0,1.067,0,1.067-1.067,2.133c-1.067,1.067-2.133,2.133-1.067,3.2c-1.067,0-1.067,0-2.133,0
		c-1.067,1.067,0,1.067,0,2.133l-1.067,1.067c0,0-1.067,0-1.067-1.067c0,0-1.067-1.067-1.067,0l-1.067,1.067
		c0,2.133-1.067,2.133-1.067,3.2c-1.067,1.067-1.067,1.067-2.133,2.133l-1.067,1.067c-1.067,0-2.133,1.067-3.2,1.067l0,0
		c-1.067,1.067-2.133,1.067-4.267,1.067c-1.067,0-1.067,0-2.133,1.067l-1.067,1.067c-1.067,1.067-2.133,1.067-3.2,2.133
		l-1.067,1.067c0,0-1.067,0-1.067-1.067v2.133c0,1.067,0,1.067,0,1.067c-1.067,1.067-1.067,2.133-1.067,3.2
		c0,1.067,0,2.133,1.067,3.2c0,1.067,0,1.067,0,2.133c0,0-1.067,0-1.067,1.067s1.067,2.133,0,3.2c0,1.067,1.067,2.133,1.067,4.267
		v1.067c-1.067,2.133-1.067,3.2,0,5.333v1.067c-1.067,1.067-1.067,3.2-1.067,4.267h-1.067c-1.067,0-1.067,1.067-1.067,2.133
		c1.067,1.067,1.067,2.133,2.133,2.133c1.067,0,2.133,0,2.133,0c1.067,0,2.133-1.067,3.2-2.133c1.067-1.067,2.133-2.133,4.267-2.133
		c1.067,0,2.133,0,3.2,0c1.067,0,2.133,0,3.2-1.067l1.067-1.067c1.067,0,2.133-1.067,3.2-1.067c2.133-1.067,2.133-1.067,3.2-1.067
		c1.067,0,2.133,0,3.2-1.067c1.067-1.067,2.133-1.067,3.2-1.067c1.067,0,1.067,0,2.133,0s1.067,0,2.133-1.067
		c1.067,1.067,2.133,1.067,3.2,2.133c1.067,0,1.067,0,2.133,1.067c0,1.067,0,1.067,0,1.067c0,1.067,0,1.067,1.067,2.133
		c0,1.067,0,1.067,0,2.133v1.067c1.067,0,1.067,0,2.133-1.067s3.2-3.2,4.267-4.267l1.067-1.067c1.067,1.067-1.067,1.067-1.067,2.133
		l0,0c-1.067,0-1.067,1.067-1.067,1.067c1.067,0,1.067,0,2.133,0v1.067v1.067c1.067,0,1.067,0,1.067,0l0,0h-1.067
		c1.067,1.067,1.067,2.133,1.067,2.133c-1.067,1.067,0,2.133,0,4.267c1.067,0,2.133,1.067,3.2,1.067l0,0
		c1.067,1.067,2.133,1.067,3.2,0c1.067-1.067,1.067-1.067,2.133-1.067c0,1.067,1.067,2.133,1.067,2.133c1.067,0,1.067,0,2.133,0
		c1.067,0,1.067,0,2.133-1.067c1.067-1.067,1.067-1.067,2.133-1.067s3.2,0,4.267-1.067c0,0,0,0,0-1.067
		c1.067-2.133,2.133-4.267,3.2-5.333c1.067,0,1.067-1.067,1.067-2.133c0-1.067,1.067-1.067,1.067-1.067c0-1.067,0-2.133,1.067-2.133
		c1.067-1.067,2.133-1.067,2.133-2.133c1.067-1.067,1.067-2.133,2.133-2.133c1.067-1.067,1.067-1.067,1.067-2.133v-1.067
		c0-1.067,0-1.067,1.067-2.133c0-1.067,1.067-2.133,1.067-2.133c0-1.067,1.067-2.133,1.067-2.133c0-1.067,0-1.067,0-2.133
		c0-2.133,1.067-3.2,1.067-4.267C475.585,344.946,475.585,344.946,474.518,343.879z"/>
</g>
<g>
	<ellipse style="fill:#344A5E;" cx="270.785" cy="384.412" rx="24.533" ry="44.8"/>
	<path style="fill:#344A5E;" d="M86.252,519.879l5.333-18.133l147.2-14.934c0,0,3.2,11.733,9.6,33.066L86.252,519.879
		L86.252,519.879z"/>
	<path style="fill:#344A5E;" d="M265.451,437.746c-1.067,23.467,1.067,53.333,4.267,82.133h-30.933
		c-8.533-36.267-19.2-110.934-19.2-110.934s4.267-119.467-3.2-146.133c-6.4-25.6-7.467-29.867-7.467-29.867l8.533,2.133
		c0,0,36.267,8.533,41.6,17.067c5.333,8.534,21.333,39.467,20.267,67.2C279.318,346.013,267.585,391.879,265.451,437.746z"/>
</g>
<path style="fill:#E8EAE9;" d="M277.185,419.612c0,0,6.4-6.4,7.467-16c1.067-8.533-2.133-22.4-9.6-30.933
	c-8.533-8.533-17.067-6.4-17.067-6.4l-16,4.267L277.185,419.612z"/>
<path style="fill:#FFD15C;" d="M107.585,131.613l5.333,49.067l78.933,61.867v-64c0,0,22.4-16,20.267-64c0,0,2.133-26.667-2.133-44.8
	c-5.333-18.133-11.733-35.2-27.733-41.6s-61.867,6.4-71.467,13.867C102.252,50.546,92.652,111.346,107.585,131.613z"/>
<path style="fill:#415A6B;" d="M91.585,103.879l14.933,10.667l3.2-3.2c-2.133-10.667,2.133-27.733,7.467-36.267
	c2.133-3.2,2.133-7.467,2.133-10.667c-1.067-8.533,4.267-17.067,12.8-20.267l0,0c2.133-1.067,5.333-1.067,7.467-1.067
	c17.067,2.133,34.133,2.133,49.067-2.133c2.133-1.067,4.267,0,6.4,1.067c7.467,5.333,9.6,14.933,10.667,23.467
	c1.067,9.6,2.133,10.667,5.333,20.267s0,27.733,0,27.733h2.133c0,0,1.067-7.467,3.2-19.2c1.067-11.733-4.267-38.4-8.533-50.133
	s-14.933-23.467-25.6-30.933c-10.667-7.467-22.4-7.467-36.267-4.267c-14.933,3.2-40.533,22.4-49.067,43.733
	C85.185,76.146,91.585,103.879,91.585,103.879z"/>
<ellipse transform="matrix(0.2965 0.955 -0.955 0.2965 185.8406 -8.1124)" style="fill:#FFD15C;" cx="98.427" cy="122.089" rx="22.399" ry="9.6"/>
<path style="fill:#F7B64C;" d="M191.852,178.546v48c-53.333-21.333-75.733-74.667-75.733-74.667
	C145.985,191.346,191.852,178.546,191.852,178.546z"/>
<polygon style="fill:#CED6E0;" points="191.852,207.346 182.252,212.679 175.852,212.679 136.385,218.013 191.852,347.079 
	224.918,424.946 221.718,262.813 "/>
<g>
	<path style="fill:#F3705A;" d="M182.252,236.146c0,0-11.733,35.2-9.6,59.733c2.133,24.533,39.467,99.2,39.467,99.2l19.2-60.8
		l-10.667-72.533c0-1.067-20.267-24.533-20.267-24.533l-16-9.6L182.252,236.146"/>
	<path style="fill:#F3705A;" d="M165.185,216.946c0,0,10.667,8.533,18.133,20.267c0,0,9.6-5.333,18.133,0
		c0,0-4.267-19.2-7.467-23.467c-3.2-4.267-10.667,0-10.667,0h-6.4L165.185,216.946z"/>
</g>
<path style="fill:#F3F3F3;" d="M111.852,176.412c0,0,10.667,9.6,24.533,14.933c14.933,5.333,38.4,22.4,38.4,22.4
	s-24.533,23.467-25.6,38.4c-1.067,14.933-1.067,14.933-1.067,14.933l-50.133-68.267
	C105.451,191.346,109.718,173.213,111.852,176.412z"/>
<path style="fill:#344A5E;" d="M38.252,519.879c5.333-46.934,8.533-86.4,7.467-92.8c-3.2-17.066-29.867-77.867-41.6-124.8
	c-11.733-48,5.333-60.8,5.333-60.8c14.933-19.2,38.4-14.933,49.067-18.133c10.667-3.2,25.6-12.8,25.6-12.8l39.467,4.267
	c0,0,50.133,61.867,64,93.867s39.467,137.6,39.467,137.6s1.067,23.467,5.333,59.733c0,4.267,1.067,8.533,1.067,13.867H38.252
	V519.879z"/>
<path style="fill:#E8EAE9;" d="M213.185,434.546c0,0,3.2,25.6-1.067,38.4l45.867-1.066l-5.333-46.934L213.185,434.546z"/>
<path style="fill:#2E4454;" d="M222.785,483.612c0,0,3.2,0,8.533,0c8.533,0,22.4-1.066,35.2-2.133
	c11.733,0,21.333-1.066,23.467-1.066c8.533,0,44.8-5.333,49.067-9.6c4.267-4.267,12.8-22.4,12.8-40.533
	c0-18.133-14.933-41.6-14.933-41.6s-14.933-23.467-19.2-29.867c-4.267-5.333-8.533-9.6-12.8-14.933
	c-4.267-5.333-4.267-12.8-4.267-12.8s2.133-8.533-3.2-20.267c-5.333-11.733-10.667-20.267-10.667-20.267s-3.2-21.333-13.867-30.933
	c-9.6-9.6-14.933-9.6-16-9.6c1.067,1.067,2.133,2.133,3.2,2.133c6.4,8.533,21.333,39.467,20.267,67.2
	c-1.067,13.867-3.2,30.933-7.467,50.133l0,0c0,0,12.8,28.8,14.933,32c2.133,4.267,1.067,8.533-6.4,10.667
	c-2.133,1.066-7.467,2.133-16,3.2c-14.933,2.133-36.267,5.333-45.867,6.4c-3.2,0-4.267,1.066-4.267,1.066
	C230.252,443.079,222.785,483.612,222.785,483.612z"/>
<path style="fill:#415A6B;" d="M221.718,424.946c-12.8-34.133-37.333-101.333-50.133-124.8c-17.067-32-48-56.533-48-56.533
	l7.467-9.6l-16-2.133c0,0-26.667-21.333-28.8-22.4c0,0,3.2-5.333,7.467-8.533c4.267-3.2,8.533-10.667,11.733-10.667
	c0,0,37.333,24.533,54.4,50.133c17.067,25.6,36.267,60.8,48,99.2c7.467,25.6,14.933,61.867,19.2,85.333H221.718z"/>
<path style="fill:#F3F3F3;" d="M191.852,193.479c0,0-3.2,13.867-9.6,20.267c0,0,10.667,0,13.867,11.733
	c3.2,11.733,3.2,11.733,3.2,11.733s0-12.8-3.2-19.2C195.052,211.613,197.185,195.613,191.852,193.479z"/>
<g>
	<path style="fill:#415A6B;" d="M224.918,428.146c-4.267-22.4-11.733-56.533-11.733-66.133c0-13.867-1.067-73.6-3.2-88.533
		c-2.133-16-13.867-57.6-13.867-57.6s6.4,12.8,21.333,20.267l-4.267,3.2c0,0,12.8,4.267,18.133,17.067
		c4.267,12.8,5.333,66.133,5.333,82.133c0,10.667-5.333,61.867-7.467,90.666h-4.267V428.146z"/>
	<path style="fill:#415A6B;" d="M5.185,301.213c6.4,25.6,17.067,54.4,25.6,77.867l0,0c26.667,30.934,80,62.934,88.533,67.2
		c8.533,4.267,12.8,5.333,18.133,7.467c6.4,2.133,18.133,0,24.533,2.133c6.4,2.133,10.667-1.066,18.133-2.133
		c3.2-1.066,25.6-5.333,48-10.667c26.667-6.4,55.467-12.8,55.467-12.8c-8.533-22.4-37.333-61.867-37.333-61.867
		s-21.333,2.133-37.333,2.133c-7.467,0-14.933,0-17.067,0c-9.6-1.067-33.067-3.2-35.2-4.267c-2.133-1.067-13.867,3.2-18.133,5.333
		c-5.333,2.133-7.467,2.133-9.6-7.467c-3.2-9.6-8.533-13.867-11.733-24.533c-3.2-9.6-7.467-40.533-30.933-76.8
		c-11.733-18.133-27.733-26.667-40.533-32c-11.733-4.267-26.667-1.067-34.133,8.533l0,0C10.518,241.479-6.549,253.213,5.185,301.213
		z"/>
</g>
<g>
</g>
<g>
</g>
<g>
</g>
<g>
</g>
<g>
</g>
<g>
</g>
<g>
</g>
<g>
</g>
<g>
</g>
<g>
</g>
<g>
</g>
<g>
</g>
<g>
</g>
<g>
</g>
<g>
</g>
</svg>
