<?xml version="1.0" encoding="iso-8859-1"?>
<!-- Generator: Adobe Illustrator 19.0.0, SVG Export Plug-In . SVG Version: 6.00 Build 0)  -->
<svg version="1.1" id="Capa_1" xmlns="http://www.w3.org/2000/svg" xmlns:xlink="http://www.w3.org/1999/xlink" x="0px" y="0px"
	 viewBox="0 0 511.838 511.838" style="enable-background:new 0 0 511.838 511.838;" xml:space="preserve">
<polygon style="fill:#F7B64C;" points="238.319,65.271 238.319,38.604 272.452,38.604 272.452,65.271 272.452,91.938 
	229.786,91.938 "/>
<path style="fill:#415A6B;" d="M295.919,493.004l-4.267-5.333c0,0-1.067-4.267,2.133-7.467c3.2-3.2,24.533-5.333,24.533-5.333
	s3.2,12.8,8.533,16c5.333,3.2,8.533,8.533,8.533,11.733c-1.067,3.2-1.067,3.2-1.067,3.2s-17.067,2.133-22.4,0
	c-5.333-2.133-6.4-1.067-8.533-4.267C301.252,499.404,295.919,493.004,295.919,493.004z"/>
<path style="fill:#344A5E;" d="M291.652,487.671c0,0,2.133,2.133,7.467,6.4c5.333,4.267,5.333,7.467,7.467,9.6
	c2.133,2.133,20.267,2.133,28.8,0c0,0,2.133,3.2,0,5.333c0,0-8.533,1.067-13.867,1.067c-6.4,1.067-12.8,1.067-14.933-1.067
	c-2.133-2.133-1.067-4.267-3.2-6.4c-2.133-2.133-4.267-4.267-4.267-4.267v3.2c0,0-6.4-1.067-7.467-4.267
	C290.586,495.138,290.586,489.804,291.652,487.671z"/>
<path style="fill:#415A6B;" d="M228.719,494.071l4.267-5.333c0,0,1.067-4.267-2.133-7.467c-3.2-3.2-24.533-5.333-24.533-5.333
	s-3.2,12.8-8.533,16c-5.333,3.2-8.533,8.533-8.533,11.733c1.067,3.2,1.067,3.2,1.067,3.2s17.067,2.133,22.4,0
	c5.333-2.133,6.4-1.067,8.533-4.267C223.386,500.471,228.719,494.071,228.719,494.071z"/>
<g>
	<path style="fill:#344A5E;" d="M232.986,488.738c0,0-2.133,2.133-7.467,6.4c-5.333,3.2-5.333,7.467-7.467,9.6
		c-2.133,2.133-20.267,2.133-28.8,0c0,0-2.133,3.2,0,5.333c0,0,8.533,1.067,13.867,1.067c6.4,1.067,12.8,1.067,14.933-1.067
		c2.133-2.133,1.067-4.267,3.2-6.4c2.133-2.133,4.267-4.267,4.267-4.267v3.2c0,0,6.4-1.067,7.467-4.267
		C235.119,496.204,234.052,490.871,232.986,488.738z"/>
	<path style="fill:#344A5E;" d="M306.586,262.604c0,0,4.267,21.333,5.333,34.133c1.067,12.8,3.2,37.333-2.133,52.267
		c0,0,2.133,21.333,5.333,36.267c3.2,14.933,1.067,56.533,1.067,56.533l4.267,37.333c0,0-8.533-1.067-16,2.133
		c-7.467,3.2-13.867,5.333-13.867,5.333s-3.2-16-2.133-24.533c1.067-9.6,0-14.933-3.2-25.6s-7.467-36.267-6.4-49.067
		c1.067-12.8,0-12.8-1.067-20.267s-5.333-35.2-7.467-42.667s-12.8-38.4-12.8-38.4s-6.4,20.267-9.6,29.867
		c-4.267,10.667-4.267,34.133-5.333,40.533c-1.067,6.4-2.133,14.933-3.2,21.333c-1.067,7.467,0,11.733,0,20.267
		c0,8.533-1.067,30.933-3.2,39.467c-2.133,8.533,0,23.467-1.067,27.733s-4.267,20.267-4.267,20.267s-5.333,1.067-13.867-3.2
		c-8.533-3.2-13.867-1.067-13.867-1.067s2.133-16,3.2-26.667c1.067-10.667,0-24.533,0-35.2c0-10.667-3.2-28.8-1.067-37.333
		c2.133-8.533,3.2-10.667,3.2-16c0-5.333-2.133-61.867-2.133-65.067c0-4.267-3.2-32-2.133-40.533S306.586,262.604,306.586,262.604z"
		/>
</g>
<path style="fill:#CED6E0;" d="M276.719,78.071v68.267h-42.667V74.871c5.333,6.4,13.867,10.667,23.467,10.667
	C264.986,85.538,271.386,82.338,276.719,78.071z"/>
<path style="fill:#344A5E;" d="M279.919,75.938c0,0,27.733,7.467,34.133,16c6.4,8.533,10.667,46.933,10.667,46.933l-69.333,5.333
	L279.919,75.938z"/>
<path style="fill:#415A6B;" d="M272.452,65.271c0,0,0,20.267-7.467,34.133s-13.867,55.467-13.867,55.467s19.2-33.067,24.533-48
	c5.333-14.933,5.333-21.333,5.333-21.333l4.267,4.267c0,0,1.067-9.6-4.267-14.933C275.652,68.471,272.452,65.271,272.452,65.271z"/>
<path style="fill:#344A5E;" d="M230.852,75.938c0,0-27.733,7.467-34.133,16c-6.4,8.533-10.667,46.933-10.667,46.933l69.333,5.333
	L230.852,75.938z"/>
<path style="fill:#415A6B;" d="M238.319,65.271c0,0,0,20.267,7.467,34.133s13.867,55.467,13.867,55.467s-19.2-33.067-24.533-48
	c-5.333-14.933-5.333-21.333-5.333-21.333l-4.267,4.267c0,0-1.067-9.6,4.267-14.933C235.119,68.471,238.319,65.271,238.319,65.271z"
	/>
<path style="fill:#E8EAE9;" d="M375.919,138.871v120.533c0,5.333-4.267,9.6-9.6,9.6H144.452c-5.333,0-9.6-4.267-9.6-9.6V138.871
	c0-5.333,4.267-9.6,9.6-9.6h220.8C371.652,129.271,375.919,133.538,375.919,138.871z"/>
<rect x="134.852" y="155.938" style="fill:#66C6B9;" width="241.067" height="87.467"/>
<g>
	<path style="fill:#415A6B;" d="M367.386,213.538h-80v-23.467h80V213.538z M289.519,211.404h75.733v-19.2h-75.733L289.519,211.404
		L289.519,211.404z"/>
	<rect x="149.786" y="178.338" style="fill:#415A6B;" width="110.933" height="7.467"/>
	<rect x="149.786" y="198.604" style="fill:#415A6B;" width="110.933" height="7.467"/>
	<rect x="149.786" y="217.804" style="fill:#415A6B;" width="110.933" height="7.467"/>
	<rect x="295.919" y="171.938" style="fill:#415A6B;" width="71.467" height="5.333"/>
	<rect x="271.386" y="230.604" style="fill:#415A6B;" width="96" height="5.333"/>
</g>
<g>
	<path style="fill:#FFD15C;" d="M375.919,148.471v8.533c0,0,0,2.133,4.267,0v-3.2c0,0,1.067-2.133,0-4.267
		C379.119,147.404,375.919,148.471,375.919,148.471z"/>
	<path style="fill:#FFD15C;" d="M375.919,159.138v2.133c0,0-2.133-1.067-3.2-1.067c-2.133,0-9.6-1.067-10.667-1.067
		c-2.133,0-3.2,0-3.2,2.133s1.067,2.133,1.067,2.133s-3.2,0-3.2,2.133c0,3.2,2.133,4.267,4.267,4.267c0,0-2.133,2.133,0,4.267
		c2.133,2.133,6.4,4.267,6.4,4.267s-3.2,1.067-1.067,4.267c2.133,3.2,8.533,8.533,9.6,9.6c1.067,1.067,5.333-1.067,3.2-6.4
		c0,0,4.267-2.133,2.133-6.4c0,0,4.267-3.2,3.2-5.333c-1.067-2.133-1.067-3.2-1.067-3.2s3.2-2.133,2.133-5.333
		C385.519,164.471,375.919,159.138,375.919,159.138z"/>
</g>
<g>
	<path style="fill:#F7B64C;" d="M379.119,186.871c0,0-1.067,0-2.133-1.067c-1.067,0-1.067-1.067-2.133-1.067
		c-1.067,0-1.067-1.067-2.133-1.067c-1.067-1.067-3.2-2.133-4.267-2.133c-1.067-1.067-2.133-1.067-2.133-1.067
		s1.067,1.067,2.133,1.067c1.067,1.067,2.133,2.133,4.267,3.2c1.067,0,1.067,1.067,2.133,1.067c1.067,0,1.067,1.067,2.133,1.067
		C378.052,186.871,379.119,186.871,379.119,186.871z"/>
	<path style="fill:#F7B64C;" d="M381.252,180.471c0,0-1.067-1.067-3.2-2.133c-1.067-1.067-2.133-1.067-3.2-2.133
		c-1.067-1.067-2.133-1.067-4.267-2.133c-2.133-1.067-5.333-2.133-7.467-3.2c-1.067,0-2.133,0-3.2,0s-1.067,0-1.067,0l0,0
		c0,0,0,0,1.067,0s1.067,0,2.133,1.067c2.133,1.067,4.267,2.133,7.467,3.2c1.067,0,1.067,1.067,2.133,1.067
		c1.067,0,1.067,1.067,2.133,1.067c1.067,1.067,2.133,1.067,3.2,2.133C380.186,179.404,381.252,180.471,381.252,180.471z"/>
	<path style="fill:#F7B64C;" d="M358.852,163.404c0,0,2.133,0,4.267,1.067c1.067,0,2.133,1.067,4.267,1.067
		c1.067,0,3.2,1.067,4.267,1.067c1.067,0,1.067,0,2.133,1.067c1.067,0,1.067,0,2.133,1.067c1.067,1.067,2.133,1.067,3.2,2.133
		c2.133,1.067,3.2,2.133,3.2,2.133s-1.067-1.067-3.2-2.133c-1.067-1.067-2.133-1.067-3.2-2.133c-1.067,0-1.067-1.067-2.133-1.067
		c-1.067,0-1.067,0-2.133-1.067c-1.067,0-3.2-1.067-4.267-1.067c-1.067,0-3.2-1.067-4.267-1.067
		C360.986,164.471,358.852,163.404,358.852,163.404z"/>
</g>
<g>
	<path style="fill:#FFD15C;" d="M134.852,148.471v8.533c0,0,0,2.133-4.267,0v-3.2c0,0-1.067-2.133,0-4.267
		S134.852,148.471,134.852,148.471z"/>
	<path style="fill:#FFD15C;" d="M134.852,159.138v2.133c0,0,2.133-1.067,3.2-1.067c1.067,0,9.6-1.067,10.667-1.067
		c2.133,0,3.2,0,3.2,2.133s-1.067,2.133-1.067,2.133s3.2,0,3.2,2.133s-1.067,5.333-3.2,5.333c0,0,2.133,2.133,0,4.267
		c-2.133,2.133-6.4,4.267-6.4,4.267s3.2,1.067,1.067,4.267c-2.133,3.2-8.533,8.533-9.6,9.6c-1.067,1.067-5.333-1.067-3.2-6.4
		c0,0-4.267-2.133-2.133-6.4c0,0-4.267-3.2-3.2-5.333c1.067-2.133,1.067-3.2,1.067-3.2s-3.2-2.133-2.133-5.333
		C125.252,164.471,134.852,159.138,134.852,159.138z"/>
</g>
<g>
	<path style="fill:#F7B64C;" d="M131.652,186.871c0,0,1.067,0,2.133-1.067c1.067,0,1.067-1.067,2.133-1.067s1.067-1.067,2.133-1.067
		c1.067-1.067,3.2-2.133,4.267-2.133c1.067-1.067,2.133-1.067,2.133-1.067s-1.067,1.067-2.133,1.067
		c-1.067,1.067-2.133,2.133-4.267,3.2c-1.067,0-1.067,1.067-2.133,1.067s-1.067,1.067-2.133,1.067
		C132.719,186.871,131.652,186.871,131.652,186.871z"/>
	<path style="fill:#F7B64C;" d="M129.519,180.471c0,0,1.067-1.067,3.2-2.133c1.067-1.067,2.133-1.067,3.2-2.133
		c1.067-1.067,2.133-1.067,4.267-2.133s5.333-2.133,7.467-3.2c1.067,0,2.133,0,3.2,0c1.067,0,1.067,0,1.067,0l0,0c0,0,0,0-1.067,0
		c-1.067,0-1.067,0-2.133,1.067c-2.133,1.067-4.267,2.133-7.467,3.2c-1.067,0-1.067,1.067-2.133,1.067s-1.067,1.067-2.133,1.067
		c-1.067,1.067-2.133,1.067-3.2,2.133C130.586,179.404,129.519,180.471,129.519,180.471z"/>
	<path style="fill:#F7B64C;" d="M151.919,163.404c0,0-2.133,0-4.267,1.067c-1.067,0-2.133,1.067-4.267,1.067
		c-1.067,0-3.2,1.067-4.267,1.067c-1.067,0-1.067,0-2.133,1.067c-1.067,0-1.067,0-2.133,1.067c-1.067,1.067-2.133,1.067-3.2,2.133
		c-2.133,1.067-3.2,2.133-3.2,2.133s1.067-1.067,3.2-2.133c1.067-1.067,2.133-1.067,3.2-2.133c1.067,0,1.067-1.067,2.133-1.067
		s1.067,0,2.133-1.067c1.067,0,3.2-1.067,4.267-1.067s3.2-1.067,4.267-1.067C149.786,164.471,151.919,163.404,151.919,163.404z"/>
</g>
<g>
	
		<ellipse transform="matrix(0.1326 0.9912 -0.9912 0.1326 249.4307 -192.366)" style="fill:#FFD15C;" cx="234.622" cy="46.327" rx="8.534" ry="4.267"/>
	
		<ellipse transform="matrix(0.1326 -0.9912 0.9912 0.1326 194.4147 314.2491)" style="fill:#FFD15C;" cx="276.751" cy="46.047" rx="8.534" ry="4.267"/>
	<path style="fill:#FFD15C;" d="M277.786,39.671c-1.067,18.133-9.6,33.067-22.4,33.067c-12.8,0-22.4-14.933-22.4-33.067
		s9.6-32,22.4-33.067C269.252,4.471,278.852,18.338,277.786,39.671z"/>
</g>
<path style="fill:#415A6B;" d="M276.719,47.138c0,0-2.133-13.867-1.067-21.333c0-3.2-2.133-6.4-4.267-7.467
	c-1.067-1.067-3.2-1.067-5.333-1.067c-7.467,1.067-14.933,1.067-21.333,0c-1.067,0-2.133,0-3.2,0
	c-4.267,2.133-4.267,8.533-4.267,11.733c1.067,4.267-1.067,3.2-2.133,7.467c-1.067,5.333-1.067,10.667-1.067,10.667h-1.067
	c-1.067-4.267-4.267-20.267-2.133-27.733c2.133-7.467,9.6-18.133,17.067-19.2c8.533-1.067,19.2,2.133,23.467,7.467
	s6.4,11.733,7.467,19.2S276.719,47.138,276.719,47.138z"/>
<g>
</g>
<g>
</g>
<g>
</g>
<g>
</g>
<g>
</g>
<g>
</g>
<g>
</g>
<g>
</g>
<g>
</g>
<g>
</g>
<g>
</g>
<g>
</g>
<g>
</g>
<g>
</g>
<g>
</g>
</svg>
