<?xml version="1.0" encoding="iso-8859-1"?>
<!-- Generator: Adobe Illustrator 19.0.0, SVG Export Plug-In . SVG Version: 6.00 Build 0)  -->
<svg version="1.1" id="Capa_1" xmlns="http://www.w3.org/2000/svg" xmlns:xlink="http://www.w3.org/1999/xlink" x="0px" y="0px"
	 viewBox="0 0 512 512" style="enable-background:new 0 0 512 512;" xml:space="preserve">
<path style="fill:#FFD15C;" d="M332.8,120.533c0,0-2.133,11.733-6.4,14.933c0,0,0,20.267-2.133,26.667
	c0,0,17.067,11.733,18.133,17.067c0,0,11.733,0,16,4.267c3.2,0,3.2,14.933,0,14.933c0,0-16,19.2-41.6,0c0,0,4.267,9.6,3.2,14.933
	c0,0,19.2,7.467,22.4,16c8.533,4.267-4.267,27.733-12.8,23.467c0,0-25.6-7.467-36.267-18.133c-10.667-10.667-12.8-12.8-12.8-12.8
	s3.2,9.6,1.067,12.8c0,0,33.067,49.067-3.2,60.8L264.533,272l-3.2-126.933L332.8,96V120.533z"/>
<g>
	<path style="fill:#344A5E;" d="M320,285.867c0,13.867-11.733,25.6-25.6,25.6c-13.867,0-25.6-11.733-25.6-25.6
		S280.533,256,294.4,256C309.333,256,320,272,320,285.867z"/>
	<path style="fill:#344A5E;" d="M332.8,370.133h-75.733c5.333-5.333,9.6-10.667,12.8-18.133c3.2-6.4,4.267-13.867,4.267-21.333l0,0
		c0-7.467-3.2-13.867-8.533-18.133c-1.067-1.067-2.133-2.133-2.133-4.267c0-6.4,13.867-10.667,30.933-10.667
		c17.067,0,29.867,5.333,29.867,10.667c0,1.067-1.067,2.133-2.133,4.267c-5.333,5.333-8.533,11.733-8.533,18.133l0,0
		C315.733,345.6,322.133,359.467,332.8,370.133z"/>
</g>
<g>
	<path style="fill:#415A6B;" d="M332.8,299.733c0,2.133-1.067,3.2-2.133,4.267c-1.067,1.067-3.2,2.133-4.267,2.133h-60.8
		c-3.2,0-6.4-3.2-6.4-6.4c0-2.133,1.067-3.2,2.133-4.267c1.067-1.067,3.2-2.133,4.267-2.133h60.8
		C329.6,293.333,332.8,296.533,332.8,299.733z"/>
	<path style="fill:#415A6B;" d="M344.533,380.8C340.267,368,320,359.467,294.4,359.467c-24.533,0-45.867,9.6-50.133,21.333H344.533z
		"/>
</g>
<g>
	<path style="fill:#F7B64C;" d="M328.533,217.6c-1.067,1.067-1.067,1.067-2.133,2.133c-1.067,2.133-2.133,4.267-3.2,5.333
		c-2.133,4.267-4.267,7.467-6.4,11.733c-1.067,2.133-2.133,4.267-3.2,6.4c0,1.067-1.067,2.133-1.067,3.2
		c1.067,1.067,2.133,1.067,4.267,2.133c0-1.067,1.067-2.133,1.067-3.2c1.067-2.133,2.133-4.267,2.133-6.4
		c2.133-4.267,4.267-7.467,6.4-11.733c1.067-2.133,2.133-3.2,3.2-5.333c1.067-1.067,1.067-2.133,2.133-2.133
		C330.667,218.667,329.6,217.6,328.533,217.6z"/>
	<path style="fill:#F7B64C;" d="M347.733,179.2c0,1.067-1.067,1.067-1.067,2.133c-1.067,1.067-1.067,2.133-2.133,3.2
		c-1.067,1.067-1.067,2.133-2.133,3.2c-2.133,4.267-4.267,8.533-6.4,13.867c-1.067,2.133-2.133,4.267-2.133,5.333
		c1.067,0,2.133,0,4.267,0c1.067-2.133,1.067-3.2,2.133-5.333c2.133-4.267,4.267-9.6,6.4-13.867c0-1.067,1.067-2.133,2.133-3.2
		c0-1.067,1.067-2.133,2.133-3.2c0-1.067,1.067-2.133,1.067-2.133C348.8,179.2,348.8,179.2,347.733,179.2z"/>
</g>
<path style="fill:#FFD15C;" d="M512,0H406.4c-6.4,3.2-13.867,6.4-21.333,7.467c-16,2.133-60.8,13.867-77.867,18.133
	c-17.067,5.333-22.4,2.133-34.133,7.467S256,60.8,256,60.8s-6.4,32-13.867,45.867c-7.467,13.867-16,40.533-19.2,50.133
	s-4.267,20.267,0,29.867s13.867,48,17.067,56.533c3.2,8.533,11.733,48,11.733,48s37.333,9.6,24.533-56.533
	c0,0,1.067-39.467,0-49.067c0,0,20.267-34.133,20.267-45.867c0,0,20.267-12.8,25.6-25.6c0,0,20.267,37.333,30.933,44.8
	c0,0,2.133,11.733-4.267,22.4c-6.4,9.6-16,33.067-16,33.067s-26.667,36.267-22.4,65.067c4.267,28.8,22.4,17.067,22.4,17.067
	l18.133-29.867c0,0,18.133-10.667,29.867-35.2c11.733-24.533,32-54.4,32-54.4s41.6-29.867,54.4-52.267
	C480,102.4,484.267,96,484.267,96s12.8-16,27.733-32L512,0L512,0z"/>
<g>
	<path style="fill:#F7B64C;" d="M316.8,198.4l-5.333-5.333c-2.133-2.133-3.2-3.2-5.333-5.333c-2.133-2.133-3.2-3.2-5.333-5.333
		c0,0-1.067-1.067-2.133-1.067l-1.067-1.067c0,0-1.067,0-1.067-1.067l-1.067-1.067v-1.067c1.067-3.2,2.133-5.333,3.2-8.533
		c0-1.067,1.067-3.2,1.067-4.267c0-1.067,1.067-3.2,1.067-4.267c0-1.067,0-3.2,1.067-4.267c0-1.067,0-1.067,0-2.133
		c0-1.067,0-1.067,0-2.133v-2.133c0-1.067,0-1.067,0-2.133c0-1.067,0-3.2-1.067-4.267l1.067,2.133c0,1.067,0,1.067,1.067,2.133
		c0,1.067,0,1.067,0,2.133v2.133c0,1.067,0,1.067,0,2.133s0,2.133,0,2.133c0,2.133,0,3.2,0,4.267s0,3.2-1.067,4.267
		c0,1.067-1.067,3.2-1.067,4.267c-1.067,3.2-2.133,6.4-3.2,9.6l-1.067-1.067c1.067,0,1.067,1.067,2.133,1.067
		c1.067,0,1.067,1.067,2.133,1.067c1.067,1.067,2.133,2.133,3.2,2.133c2.133,2.133,3.2,3.2,5.333,5.333s3.2,4.267,4.267,5.333
		C313.6,195.2,315.733,197.333,316.8,198.4z"/>
	<path style="fill:#F7B64C;" d="M280.533,221.867c0,0,0-1.067-1.067-3.2c0-1.067,0-2.133-1.067-3.2c0-1.067,0-2.133-1.067-3.2
		c-1.067-2.133-1.067-4.267-2.133-6.4c0-1.067,0-1.067-1.067-2.133v-1.067c0,0,0,0,1.067,1.067c0,0,1.067,1.067,1.067,2.133
		c1.067,1.067,1.067,2.133,1.067,2.133c0,1.067,1.067,2.133,1.067,3.2c1.067,2.133,1.067,4.267,1.067,6.4
		C281.6,220.8,280.533,221.867,280.533,221.867z"/>
	<path style="fill:#F7B64C;" d="M279.467,252.8c0-1.067,0-3.2,0-4.267c0-1.067,0-3.2-1.067-4.267c0-3.2-1.067-6.4-1.067-8.533
		c0-8.533,0-16,0-24.533c0-4.267,0-8.533,0-12.8c0-2.133,0-4.267,0-6.4c0-1.067,0-2.133,0-3.2c0-1.067,0-2.133,0-3.2
		c4.267-7.467,7.467-14.933,11.733-22.4c2.133-4.267,3.2-7.467,5.333-11.733l1.067-3.2c0-1.067,1.067-2.133,1.067-3.2
		s0-2.133,1.067-3.2c0-1.067,0-2.133,0-3.2c0,1.067,0,2.133,0,3.2c0,1.067,0,2.133-1.067,3.2c0,1.067-1.067,2.133-1.067,3.2
		l-1.067,3.2c-2.133,4.267-3.2,7.467-5.333,11.733c-4.267,7.467-7.467,14.933-11.733,21.333l0,0l0,0c0,1.067,0,2.133,0,3.2
		c0,1.067,0,2.133,0,3.2c0,2.133,0,4.267,0,6.4c0,4.267,0,8.533,0,12.8v24.533l0,0l0,0c1.067,3.2,1.067,6.4,1.067,8.533
		c0,1.067,0,3.2,1.067,4.267c0,1.067,0,3.2,0,4.267c0,1.067,0,3.2,0,4.267c0,1.067,0,3.2,0,4.267c0,1.067,0,3.2,0,4.267
		c0,1.067,0,3.2-1.067,4.267c0,1.067-1.067,3.2-1.067,4.267c0,1.067,0,1.067-1.067,2.133c0,1.067,0,1.067-1.067,2.133
		c0,1.067-1.067,2.133-2.133,3.2l1.067,1.067c1.067-1.067,1.067-2.133,2.133-3.2c0-1.067,1.067-1.067,1.067-2.133
		c0-1.067,1.067-1.067,1.067-2.133c1.067-1.067,1.067-3.2,1.067-4.267s1.067-3.2,1.067-4.267s0-3.2,0-4.267
		C279.467,259.2,279.467,256,279.467,252.8z"/>
</g>
<g>
	<path style="fill:#4ABAA5;" d="M86.4,402.133c0,16-12.8,28.8-28.8,28.8s-28.8-12.8-28.8-28.8S41.6,368,57.6,368
		S86.4,386.133,86.4,402.133z"/>
	<path style="fill:#4ABAA5;" d="M101.333,499.2H13.867c6.4-5.333,11.733-12.8,14.933-20.267s5.333-16,5.333-25.6l0,0
		c0-8.533-4.267-16-9.6-21.333c-1.067-1.067-2.133-3.2-2.133-4.267c0-7.467,16-12.8,35.2-12.8s35.2,5.333,35.2,12.8
		c0,1.067-1.067,3.2-2.133,4.267c-5.333,5.333-9.6,12.8-9.6,21.333l0,0C81.067,471.467,88.533,487.467,101.333,499.2z"/>
</g>
<g>
	<path style="fill:#66C6B9;" d="M100.267,419.2c0,2.133-1.067,4.267-2.133,5.333c-1.067,1.067-3.2,2.133-5.333,2.133H22.4
		c-4.267,0-7.467-3.2-7.467-7.467c0-2.133,1.067-4.267,2.133-5.333s3.2-2.133,5.333-2.133h70.4
		C97.067,410.667,100.267,414.933,100.267,419.2z"/>
	<path style="fill:#66C6B9;" d="M115.2,512c-4.267-13.867-28.8-24.533-57.6-24.533S5.333,498.133,0,512H115.2z"/>
</g>
<g>
	<path style="fill:#F05540;" d="M442.667,402.133c0,16-12.8,28.8-28.8,28.8s-28.8-12.8-28.8-28.8s12.8-34.133,28.8-34.133
		S442.667,386.133,442.667,402.133z"/>
	<path style="fill:#F05540;" d="M457.6,499.2h-87.467c6.4-5.333,11.733-12.8,14.933-20.267c3.2-7.467,5.333-16,5.333-25.6l0,0
		c0-8.533-4.267-16-9.6-21.333c-1.067-1.067-2.133-3.2-2.133-4.267c0-7.467,16-12.8,35.2-12.8s35.2,5.333,35.2,12.8
		c0,1.067-1.067,3.2-2.133,4.267c-5.333,5.333-9.6,12.8-9.6,21.333l0,0C437.333,471.467,444.8,487.467,457.6,499.2z"/>
</g>
<g>
	<path style="fill:#F3705A;" d="M456.533,419.2c0,2.133-1.067,4.267-2.133,5.333c-1.067,1.067-3.2,2.133-5.333,2.133h-70.4
		c-4.267,0-7.467-3.2-7.467-7.467c0-2.133,1.067-4.267,2.133-5.333c1.067-1.067,3.2-2.133,5.333-2.133h70.4
		C453.333,410.667,456.533,414.933,456.533,419.2z"/>
	<path style="fill:#F3705A;" d="M471.467,512c-4.267-13.867-28.8-24.533-57.6-24.533S361.6,498.133,356.267,512H471.467z"/>
</g>
<path style="fill:#415A6B;" d="M202.667,401.067c0,14.933-12.8,27.733-27.733,27.733S147.2,416,147.2,401.067
	c0-14.933,12.8-32,27.733-32S202.667,385.067,202.667,401.067z"/>
<path style="fill:#344A5E;" d="M216.533,492.8h-83.2c6.4-5.333,10.667-11.733,13.867-19.2s5.333-16,5.333-23.467l0,0
	c0-7.467-3.2-14.933-9.6-20.267c-1.067-1.067-2.133-2.133-2.133-4.267c0-6.4,14.933-11.733,33.067-11.733
	s33.067,5.333,33.067,11.733c0,1.067-1.067,3.2-2.133,4.267c-5.333,5.333-9.6,12.8-9.6,20.267l0,0
	C197.333,466.133,203.733,482.133,216.533,492.8z"/>
<path style="fill:#415A6B;" d="M227.2,502.4c0,2.133-1.067,5.333-3.2,6.4c-2.133,2.133-4.267,3.2-6.4,3.2h-86.4
	c-5.333,0-9.6-4.267-9.6-9.6c0-2.133,1.067-5.333,3.2-6.4c2.133-2.133,4.267-3.2,6.4-3.2h86.4
	C222.933,492.8,227.2,497.067,227.2,502.4z"/>
<g>
</g>
<g>
</g>
<g>
</g>
<g>
</g>
<g>
</g>
<g>
</g>
<g>
</g>
<g>
</g>
<g>
</g>
<g>
</g>
<g>
</g>
<g>
</g>
<g>
</g>
<g>
</g>
<g>
</g>
</svg>
