<?xml version="1.0" encoding="iso-8859-1"?>
<!-- Generator: Adobe Illustrator 19.0.0, SVG Export Plug-In . SVG Version: 6.00 Build 0)  -->
<svg version="1.1" id="Capa_1" xmlns="http://www.w3.org/2000/svg" xmlns:xlink="http://www.w3.org/1999/xlink" x="0px" y="0px"
	 viewBox="0 0 512 512" style="enable-background:new 0 0 512 512;" xml:space="preserve">
<g>
	
		<ellipse transform="matrix(0.1454 -0.9894 0.9894 0.1454 139.1461 441.7583)" style="fill:#FFD15C;" cx="325.284" cy="140.335" rx="27.734" ry="10.667"/>
	
		<ellipse transform="matrix(0.1454 0.9894 -0.9894 0.1454 295.1961 -53.9528)" style="fill:#FFD15C;" cx="178.829" cy="143.898" rx="27.734" ry="10.667"/>
	<path style="fill:#FFD15C;" d="M323.2,103.004l2.133,21.333c0,0-2.133,57.6-12.8,80l6.4,60.8L198.4,295.004V209.67
		c0,0-16-40.533-19.2-69.333s-1.067-72.533,0-86.4s20.267-29.867,52.267-29.867S320,7.004,323.2,103.004z"/>
</g>
<path style="fill:#415A6B;" d="M181.333,141.404c1.067-9.6,0-39.467,4.267-46.933c8.533-14.933-1.067-33.067,8.533-46.933
	c9.6-13.867,53.333-8.533,73.6-7.467s41.6,7.467,39.467,22.4c-2.133,14.933,3.2,24.533,7.467,28.8
	c4.267,4.267,4.267,43.733,4.267,50.133h4.267c2.133-7.467,9.6-51.2,4.267-77.867C320,23.004,283.733,2.737,240,0.604
	c-43.733-3.2-72.533,49.067-70.4,75.733c1.067,14.933,5.333,52.267,7.467,65.067L181.333,141.404L181.333,141.404z"/>
<path style="fill:#F7B64C;" d="M260.267,241.67c-36.267,6.4-61.867-32-61.867-32v85.333l37.333-9.6
	c4.267-2.133,7.467-3.2,11.733-5.333c48-22.4,65.067-75.733,65.067-75.733S296.533,235.27,260.267,241.67z"/>
<path style="fill:#CED6E0;" d="M250.667,511.537h32l60.8-184.533l-35.2-64l-49.067,6.4h-4.267L227.2,273.67
	c-40.533,21.333-32,97.067-32,97.067L250.667,511.537z"/>
<g>
	<path style="fill:#344A5E;" d="M187.733,236.337l45.867,275.2H0l42.667-192c5.333-24.533,24.533-44.8,49.067-53.333
		C132.267,254.47,187.733,236.337,187.733,236.337z"/>
	<path style="fill:#344A5E;" d="M512,511.537H278.4l44.8-275.2c0,0,55.467,17.067,96,29.867
		c24.533,7.467,42.667,27.733,49.067,53.333L512,511.537z"/>
</g>
<path style="fill:#F3F3F3;" d="M312.533,212.87c0,0-1.067,12.8-10.667,25.6c-9.6,11.733-44.8,30.933-44.8,30.933
	c23.467,9.6,40.533,23.467,53.333,40.533c0,0,11.733-46.933,11.733-60.8C322.133,235.27,317.867,215.004,312.533,212.87z"/>
<path style="fill:#415A6B;" d="M260.267,511.537h26.667c9.6-28.8,85.333-212.267,85.333-212.267l-26.667-16l25.6-4.267
	l-58.667-66.133C312.533,212.87,266.667,472.07,260.267,511.537z"/>
<path style="fill:#F3F3F3;" d="M199.467,212.87c0,0,1.067,12.8,10.667,25.6c9.6,11.733,44.8,30.933,44.8,30.933
	c-23.467,9.6-40.533,23.467-53.333,40.533c0,0-11.733-46.933-11.733-60.8C189.867,235.27,194.133,215.004,199.467,212.87z"/>
<path style="fill:#415A6B;" d="M225.067,511.537h26.667C245.333,472.07,198.4,212.87,198.4,212.87l-57.6,65.067l25.6,4.267
	l-26.667,16C139.733,299.27,215.467,482.737,225.067,511.537z"/>
<path style="fill:#F05540;" d="M258.133,391.004c-1.067-9.6-52.267-140.8-60.8-171.733c-2.133,3.2-4.267,5.333-7.467,8.533
	c-1.067,5.333-3.2,10.667-5.333,16l3.2,9.6c0,0,55.467,137.6,58.667,145.067c3.2,8.533,10.667,7.467,10.667,7.467
	S259.2,399.537,258.133,391.004z"/>
<g>
	<circle style="fill:#FFD15C;" cx="256" cy="448.604" r="39.467"/>
	<path style="fill:#FFD15C;" d="M261.333,398.47c-1.067-1.067-3.2-2.133-5.333-2.133c-4.267,0-7.467,3.2-7.467,7.467v10.667h16
		v-10.667C263.467,401.67,263.467,399.537,261.333,398.47z M256,408.07c-2.133,0-4.267-2.133-4.267-4.267s2.133-4.267,4.267-4.267
		c2.133,0,4.267,2.133,4.267,4.267S258.133,408.07,256,408.07z"/>
</g>
<path style="fill:#F3705A;" d="M315.733,215.004c-8.533,30.933-60.8,166.4-61.867,176C252.8,399.537,256,404.87,256,404.87
	s7.467,1.067,10.667-7.467c3.2-8.533,61.867-156.8,61.867-156.8C323.2,233.137,318.933,223.537,315.733,215.004z"/>
<path style="fill:#F05540;" d="M256,404.87c0,0,0-5.333,3.2-8.533C260.267,393.137,260.267,403.804,256,404.87z"/>
<circle style="fill:#F7B64C;" cx="256" cy="448.604" r="27.733"/>
<polygon style="fill:#FFD15C;" points="256,428.337 262.4,440.07 276.267,442.204 265.6,452.87 268.8,465.67 256,459.27 
	243.2,465.67 246.4,452.87 235.733,442.204 249.6,440.07 "/>
<g>
	<path style="fill:#415A6B;" d="M338.133,383.537c18.133-44.8,34.133-84.267,34.133-84.267l-26.667-16l25.6-4.267l-58.667-66.133
		c0,0-16,88.533-30.933,169.6h56.533V383.537z"/>
	<path style="fill:#415A6B;" d="M173.867,383.537h55.467c-13.867-82.133-29.867-170.667-29.867-170.667l-57.6,65.067l25.6,4.267
		l-26.667,16C139.733,299.27,155.733,337.67,173.867,383.537z"/>
</g>
<g>
</g>
<g>
</g>
<g>
</g>
<g>
</g>
<g>
</g>
<g>
</g>
<g>
</g>
<g>
</g>
<g>
</g>
<g>
</g>
<g>
</g>
<g>
</g>
<g>
</g>
<g>
</g>
<g>
</g>
</svg>
