<?xml version="1.0" encoding="iso-8859-1"?>
<!-- Generator: Adobe Illustrator 19.0.0, SVG Export Plug-In . SVG Version: 6.00 Build 0)  -->
<svg version="1.1" id="Capa_1" xmlns="http://www.w3.org/2000/svg" xmlns:xlink="http://www.w3.org/1999/xlink" x="0px" y="0px"
	 viewBox="0 0 512 512" style="enable-background:new 0 0 512 512;" xml:space="preserve">
<path style="fill:#F3F3F3;" d="M512,16v331.733c0,8.533-7.467,16-16,16H16c-8.533,0-16-7.467-16-16V16C0,7.467,7.467,0,16,0h480
	C504.533,0,512,7.467,512,16z"/>
<path style="fill:#FFD15C;" d="M418.133,97.067l36.267-44.8c-9.6-7.467-22.4-11.733-35.2-11.733
	c-29.867,0-54.4,21.333-58.667,50.133L418.133,97.067z"/>
<path style="fill:#66C6B9;" d="M461.867,57.6l-34.133,41.6l53.333,6.4c0-1.067,0-2.133,0-3.2
	C481.067,84.267,473.6,68.267,461.867,57.6z"/>
<path style="fill:#F3705A;" d="M360.533,98.133c0,1.067,0,2.133,0,3.2c0,33.067,26.667,59.733,59.733,59.733
	c29.867,0,54.4-21.333,58.667-50.133L360.533,98.133z"/>
<g>
	<rect x="29.867" y="51.2" style="fill:#CED6E0;" width="291.2" height="2.133"/>
	<rect x="29.867" y="66.133" style="fill:#CED6E0;" width="291.2" height="2.133"/>
	<rect x="29.867" y="81.067" style="fill:#CED6E0;" width="291.2" height="2.133"/>
	<rect x="29.867" y="96" style="fill:#CED6E0;" width="291.2" height="2.133"/>
	<rect x="29.867" y="110.933" style="fill:#CED6E0;" width="291.2" height="2.133"/>
	<rect x="29.867" y="306.133" style="fill:#CED6E0;" width="128" height="2.133"/>
	<rect x="29.867" y="292.267" style="fill:#CED6E0;" width="128" height="2.133"/>
	<rect x="29.867" y="277.333" style="fill:#CED6E0;" width="128" height="2.133"/>
	<rect x="29.867" y="262.4" style="fill:#CED6E0;" width="128" height="2.133"/>
	<rect x="29.867" y="248.533" style="fill:#CED6E0;" width="128" height="2.133"/>
	<rect x="29.867" y="233.6" style="fill:#CED6E0;" width="128" height="2.133"/>
	<rect x="29.867" y="218.667" style="fill:#CED6E0;" width="128" height="2.133"/>
</g>
<rect x="37.333" y="263.467" style="fill:#F3705A;" width="17.067" height="43.733"/>
<rect x="69.333" y="249.6" style="fill:#55C0EB;" width="17.067" height="58.667"/>
<rect x="101.333" y="234.667" style="fill:#415A6B;" width="17.067" height="72.533"/>
<rect x="134.4" y="219.733" style="fill:#FFD15C;" width="17.067" height="87.467"/>
<g>
	<rect x="189.867" y="306.133" style="fill:#CED6E0;" width="128" height="2.133"/>
	<rect x="189.867" y="292.267" style="fill:#CED6E0;" width="128" height="2.133"/>
	<rect x="189.867" y="277.333" style="fill:#CED6E0;" width="128" height="2.133"/>
	<rect x="189.867" y="262.4" style="fill:#CED6E0;" width="128" height="2.133"/>
	<rect x="189.867" y="248.533" style="fill:#CED6E0;" width="128" height="2.133"/>
	<rect x="189.867" y="233.6" style="fill:#CED6E0;" width="128" height="2.133"/>
	<rect x="189.867" y="218.667" style="fill:#CED6E0;" width="128" height="2.133"/>
</g>
<rect x="197.333" y="249.6" style="fill:#415A6B;" width="17.067" height="58.667"/>
<rect x="229.333" y="278.4" style="fill:#FFD15C;" width="17.067" height="28.8"/>
<rect x="261.333" y="234.667" style="fill:#F3705A;" width="17.067" height="72.533"/>
<g>
	<rect x="293.333" y="219.733" style="fill:#66C6B9;" width="17.067" height="87.467"/>
	<polygon style="fill:#66C6B9;" points="321.067,149.333 29.867,149.333 29.867,140.8 61.867,131.2 94.933,128 129.067,129.067 
		162.133,118.4 193.067,124.8 225.067,115.2 256,115.2 289.067,98.133 321.067,90.667 	"/>
</g>
<g>
	<path style="fill:#FFD15C;" d="M313.6,209.067c0,0-5.333-5.333-3.2-12.8l18.133-8.533c0,0,9.6-7.467,22.4-6.4
		c12.8,0,30.933,2.133,30.933,2.133L396.8,176c0,0,7.467-2.133,16,4.267c8.533,6.4,43.733,42.667,50.133,48
		c6.4,4.267,21.333,17.067,22.4,27.733c0,10.667-9.6,46.933-11.733,70.4c-2.133,23.467-1.067,52.267,1.067,60.8
		c2.133,9.6,24.533,68.267,24.533,68.267l-94.933,10.667c0,0-12.8-44.8-21.333-60.8c-8.533-14.933-26.667-33.067-32-40.533
		c-5.333-7.467-20.267-27.733-23.467-38.4c-3.2-10.667-7.467-35.2-8.533-46.933s-6.4-28.8-7.467-45.867
		C310.4,216.533,310.4,213.333,313.6,209.067z"/>
	<path style="fill:#FFD15C;" d="M384,406.4c4.267,7.467,9.6,22.4,13.867,36.267h97.067c-6.4-18.133-18.133-49.067-20.267-55.467
		c-2.133-9.6-2.133-37.333-1.067-60.8c2.133-23.467,11.733-59.733,11.733-70.4s-16-23.467-22.4-27.733
		c-6.4-4.267-41.6-41.6-50.133-48s-16-4.267-16-4.267l-14.933,7.467c0,0-18.133-2.133-30.933-2.133s-22.4,6.4-22.4,6.4
		l-18.133,8.533c-2.133,6.4,3.2,12.8,3.2,12.8c-3.2,4.267-3.2,8.533-2.133,25.6c1.067,17.067,6.4,34.133,7.467,45.867
		c2.133,11.733,5.333,36.267,8.533,46.933c3.2,10.667,18.133,30.933,23.467,38.4C357.333,373.333,375.467,391.467,384,406.4z"/>
</g>
<g>
	<path style="fill:#F7B64C;" d="M336,211.2c0,0,6.4,0,9.6-3.2c0,0-3.2-5.333-3.2-9.6c0,0,3.2,7.467,7.467,9.6
		c4.267,2.133,21.333,7.467,23.467,4.267c3.2-2.133,3.2-6.4,3.2-6.4s0,8.533,1.067,11.733c1.067,3.2,16,25.6,20.267,26.667
		c3.2,1.067,6.4,0,6.4,0s-5.333,1.067-6.4,5.333C396.8,252.8,400,275.2,400,275.2s-4.267-19.2-4.267-24.533
		c0-4.267-6.4-7.467-7.467-11.733c-2.133-4.267-13.867-19.2-13.867-22.4c-1.067,1.067-25.6-4.267-26.667-6.4
		C348.8,210.133,341.333,212.267,336,211.2z"/>
	<path style="fill:#F7B64C;" d="M378.667,222.933c0,0-10.667,4.267-13.867,3.2c-3.2-1.067-16-16-16-16l-2.133,1.067H345.6
		c0,0,13.867,11.733,13.867,17.067L352,235.733v1.067c3.2-2.133,10.667-8.533,12.8-8.533C370.133,227.2,379.733,224,378.667,222.933
		L378.667,222.933z"/>
	<path style="fill:#F7B64C;" d="M359.467,274.133C359.467,274.133,360.533,274.133,359.467,274.133
		c1.067-1.067,1.067-1.067,1.067-2.133c1.067-1.067,1.067-3.2,2.133-5.333c0-1.067,0-1.067,0-2.133c0-1.067,0-1.067,1.067-2.133
		c0-1.067,1.067-2.133,1.067-4.267c1.067-1.067,1.067-2.133,2.133-4.267c1.067-1.067,1.067-3.2,2.133-4.267v-1.067l0,0l0,0l0,0l0,0
		l0,0c1.067-1.067,1.067-1.067,2.133-2.133c1.067-1.067,2.133-2.133,3.2-2.133c1.067-1.067,2.133-1.067,3.2-2.133
		c1.067-1.067,2.133-1.067,3.2-2.133c2.133-1.067,4.267-2.133,5.333-2.133s1.067,0,1.067,0h1.067l0,0l0,0c0,0-1.067,0-1.067,1.067
		c-1.067,1.067-3.2,1.067-4.267,3.2c-1.067,1.067-2.133,1.067-3.2,2.133c-1.067,1.067-2.133,1.067-3.2,2.133
		c-1.067,1.067-2.133,2.133-3.2,2.133l-1.067,1.067l0,0l0,0l0,0l0,0l0,0l0,0l0,0l0,0v1.067c-1.067,1.067-1.067,3.2-2.133,4.267
		c-1.067,1.067-1.067,2.133-2.133,4.267c-1.067,1.067-1.067,2.133-2.133,3.2c0,1.067,0,1.067-1.067,2.133
		c0,1.067,0,1.067-1.067,2.133c-1.067,2.133-2.133,4.267-3.2,4.267C361.6,273.067,360.533,274.133,359.467,274.133
		C360.533,274.133,359.467,274.133,359.467,274.133z"/>
</g>
<g>
	<path style="fill:#F3705A;" d="M454.4,289.067l-3.2-2.133l3.2-8.533L418.133,256c0-1.067,0-1.067,0-2.133l0,0
		c0-1.067,2.133-2.133,2.133-1.067l36.267,23.467c1.067,1.067,1.067,2.133,1.067,4.267L454.4,289.067z"/>
	<path style="fill:#F3705A;" d="M428.8,260.267l-10.667-7.467c-1.067,3.2,0,7.467,3.2,9.6S427.733,264.533,428.8,260.267z"/>
</g>
<g>
	<path style="fill:#344A5E;" d="M315.733,199.467c4.267,2.133,7.467,4.267,12.8,6.4c-3.2,0-5.333,0-5.333,0
		s-5.333,1.067-8.533,4.267c-2.133,2.133-3.2,7.467-3.2,11.733c-1.067-1.067-2.133-1.067-3.2-2.133L315.733,199.467z"/>
	<path style="fill:#344A5E;" d="M396.8,249.6l-8.533,22.4c-9.6-5.333-20.267-11.733-32-19.2c0-2.133-1.067-8.533-3.2-12.8
		c-1.067-5.333-11.733-24.533-12.8-25.6c-1.067-1.067-2.133-2.133-3.2-3.2c8.533,5.333,18.133,10.667,27.733,17.067
		C376.533,234.667,387.2,242.133,396.8,249.6z"/>
</g>
<path style="fill:#F3705A;" d="M462.933,298.667c1.067-1.067,0-3.2,0-4.267c-1.067-1.067-1.067-1.067-2.133-2.133
	c-1.067-1.067-2.133-2.133-4.267-1.067l-6.4,17.067c1.067,1.067,2.133,2.133,3.2,3.2s2.133,1.067,3.2,1.067s2.133-1.067,3.2-2.133
	L462.933,298.667z"/>
<path style="fill:#415A6B;" d="M388.267,272c6.4,5.333,22.4,14.933,27.733,19.2c11.733,7.467,23.467,13.867,33.067,16l6.4-17.067
	c-7.467-7.467-18.133-16-29.867-23.467c-6.4-3.2-21.333-12.8-28.8-17.067L388.267,272z"/>
<polygon style="fill:#F3705A;" points="384,268.8 392.533,246.4 402.133,252.8 393.6,275.2 "/>
<path style="fill:#344A5E;" d="M308.267,218.667c-6.4-4.267-18.133-14.933-23.467-23.467l2.133-5.333
	c7.467-1.067,21.333,5.333,28.8,9.6L308.267,218.667z"/>
<path style="fill:#FFD15C;" d="M281.6,189.867L281.6,189.867C281.6,189.867,282.667,189.867,281.6,189.867h5.333l-2.133,4.267
	L281.6,189.867C281.6,190.933,281.6,189.867,281.6,189.867z"/>
<path style="fill:#F7B64C;" d="M313.6,209.067c0,0,7.467-6.4,17.067-2.133c9.6,4.267,14.933,18.133,20.267,26.667
	c5.333,8.533,5.333,24.533,5.333,28.8c0,4.267,6.4,23.467,11.733,27.733c0,0-10.667-14.933-10.667-26.667s-3.2-27.733-12.8-44.8
	C334.933,202.667,321.067,201.6,313.6,209.067z"/>
<polygon style="fill:#F5F6FB;" points="488.533,416 484.267,380.8 364.8,394.667 368,416 "/>
<polygon style="fill:#415A6B;" points="365.867,512 354.133,412.8 500.267,395.733 512,493.867 "/>
<circle style="fill:#344A5E;" cx="386.133" cy="439.467" r="13.867"/>
<g>
</g>
<g>
</g>
<g>
</g>
<g>
</g>
<g>
</g>
<g>
</g>
<g>
</g>
<g>
</g>
<g>
</g>
<g>
</g>
<g>
</g>
<g>
</g>
<g>
</g>
<g>
</g>
<g>
</g>
</svg>
