<?xml version="1.0" encoding="iso-8859-1"?>
<!-- Generator: Adobe Illustrator 19.0.0, SVG Export Plug-In . SVG Version: 6.00 Build 0)  -->
<svg version="1.1" id="Capa_1" xmlns="http://www.w3.org/2000/svg" xmlns:xlink="http://www.w3.org/1999/xlink" x="0px" y="0px"
	 viewBox="0 0 512 512" style="enable-background:new 0 0 512 512;" xml:space="preserve">
<path style="fill:#415A6B;" d="M406.4,432h-84.267V272H406.4v-21.333h-84.267V80H406.4V58.667h-94.933
	c-6.4,0-10.667,5.333-10.667,10.667v181.333h-37.333V272H300.8v170.667c0,5.333,4.267,10.667,10.667,10.667H406.4V432z"/>
<g>
	<path style="fill:#F3705A;" d="M162.133,261.333c0,0,8.533-12.8,12.8-21.333s9.6-41.6,9.6-41.6l-11.733,1.067
		C172.8,200.533,160,249.6,162.133,261.333z"/>
	<path style="fill:#F3705A;" d="M97.067,240l12.8,8.533l7.467-30.933l-29.867-38.4C87.467,180.267,66.133,218.667,97.067,240z"/>
</g>
<path style="fill:#FFD15C;" d="M166.4,344.533c8.533-34.133,11.733-66.133,0-90.667v-16c12.8-19.2,13.867-46.933,13.867-46.933
	l-9.6-51.2c0,0-5.333-20.267-23.467-19.2c-18.133,1.067-38.4,13.867-38.4,13.867l-19.2,52.267c0,0-1.067,21.333,16,49.067V252.8
	c-9.6,30.933-9.6,60.8,0,89.6h60.8V344.533z"/>
<path style="fill:#66C6B9;" d="M170.667,416L166.4,311.467c1.067,29.867-62.933,29.867-61.867,0L100.267,416H170.667z"/>
<path style="fill:#F7B64C;" d="M106.667,236.8L106.667,236.8l-5.333,41.6c55.467-16,66.133-39.467,66.133-39.467
	C146.133,254.933,126.933,253.867,106.667,236.8z"/>
<path style="fill:#415A6B;" d="M220.8,416h53.333c-5.333-48-17.067-119.467-32-126.933l-33.067,81.067l23.467,4.267
	C230.4,374.4,222.933,391.467,220.8,416z"/>
<path style="fill:#344A5E;" d="M221.867,416c4.267-23.467,9.6-41.6,9.6-41.6c-4.267-28.8,9.6-85.333,9.6-85.333L188.8,272l-38.4,144
	H221.867z"/>
<g>
	<path style="fill:#415A6B;" d="M147.2,408.533c0,2.133,0,5.333-1.067,7.467H160c20.267-34.133,36.267-70.4,46.933-109.867
		l-19.2-11.733l11.733-3.2c0,0-7.467-14.933-11.733-19.2s-18.133-18.133-22.4-18.133c0,0,7.467,16,1.067,46.933
		S148.267,395.733,147.2,408.533z"/>
	<path style="fill:#415A6B;" d="M53.333,416c-2.133-24.533-9.6-42.667-10.667-41.6l23.467-4.267L32,289.067
		C17.067,296.533,5.333,368,0,416H53.333z"/>
</g>
<path style="fill:#344A5E;" d="M41.6,374.4c0,0,5.333,19.2,9.6,41.6h71.467l-38.4-144L32,289.067
	C32,289.067,45.867,345.6,41.6,374.4z"/>
<path style="fill:#415A6B;" d="M113.067,416h13.867c0-3.2,0-5.333-1.067-7.467c-1.067-12.8-14.933-77.867-21.333-108.8
	C98.133,268.8,105.6,252.8,105.6,252.8c-4.267,1.067-17.067,14.933-22.4,18.133c-4.267,4.267-11.733,19.2-11.733,19.2l11.733,3.2
	L64,305.067C76.8,345.6,92.8,381.867,113.067,416z"/>
<path style="fill:#F3705A;" d="M152.533,130.133c0,0-13.867,19.2-32,37.333s-28.8,20.267-30.933,25.6
	c-2.133,4.267,0,33.067,13.867,50.133c6.4,7.467,10.667,17.067,10.667,26.667c0,1.067,0,2.133,0,2.133s-22.4-11.733-33.067-44.8
	s-12.8-65.067-2.133-93.867s52.267-45.867,73.6-35.2s37.333,36.267,40.533,55.467s3.2,36.267,2.133,50.133
	c-1.067,11.733-3.2,24.533-17.067,51.2c-7.467,9.6-9.6,33.067-9.6,33.067s-6.4-13.867-4.267-25.6
	c4.267-20.267,12.8-30.933,14.933-50.133c2.133-20.267-6.4-62.933-13.867-72.533C157.867,130.133,152.533,130.133,152.533,130.133z"
	/>
<path style="fill:#8AD7F8;" d="M490.667,138.667h-96c-11.733,0-21.333-9.6-21.333-21.333v-96C373.333,9.6,382.933,0,394.667,0h96
	C502.4,0,512,9.6,512,21.333v96C512,129.067,502.4,138.667,490.667,138.667z"/>
<rect x="396.8" y="23.467" style="fill:#55C0EB;" width="91.733" height="91.733"/>
<path style="fill:#FFD15C;" d="M490.667,325.333h-96c-11.733,0-21.333-9.6-21.333-21.333v-96c0-11.733,9.6-21.333,21.333-21.333h96
	c11.733,0,21.333,9.6,21.333,21.333v96C512,315.733,502.4,325.333,490.667,325.333z"/>
<rect x="396.8" y="210.133" style="fill:#F7B64C;" width="91.733" height="91.733"/>
<path style="fill:#F3705A;" d="M490.667,512h-96c-11.733,0-21.333-9.6-21.333-21.333v-96c0-11.733,9.6-21.333,21.333-21.333h96
	c11.733,0,21.333,9.6,21.333,21.333v96C512,502.4,502.4,512,490.667,512z"/>
<rect x="396.8" y="396.8" style="fill:#F05540;" width="91.733" height="91.733"/>
<g>
</g>
<g>
</g>
<g>
</g>
<g>
</g>
<g>
</g>
<g>
</g>
<g>
</g>
<g>
</g>
<g>
</g>
<g>
</g>
<g>
</g>
<g>
</g>
<g>
</g>
<g>
</g>
<g>
</g>
</svg>
