<?xml version="1.0" encoding="iso-8859-1"?>
<!-- Generator: Adobe Illustrator 19.0.0, SVG Export Plug-In . SVG Version: 6.00 Build 0)  -->
<svg version="1.1" id="Capa_1" xmlns="http://www.w3.org/2000/svg" xmlns:xlink="http://www.w3.org/1999/xlink" x="0px" y="0px"
	 viewBox="0 0 512 512" style="enable-background:new 0 0 512 512;" xml:space="preserve">
<path style="fill:#F3705A;" d="M232.533,318.933l-6.4-18.133l-25.6,3.2c-3.2-5.333-6.4-10.667-10.667-16l12.8-22.4l-14.933-12.8
	l-21.333,16c-5.333-3.2-10.667-6.4-17.067-8.533v-25.6l-19.2-4.267l-10.667,23.467c-6.4,0-12.8,0-18.133,1.067l-12.8-22.4
	l-18.133,6.4l3.2,25.6c-5.333,3.2-10.667,6.4-16,10.667l-22.4-12.8l-12.8,14.933l16,21.333c-3.2,5.333-6.4,10.667-8.533,17.067
	h-25.6L0,333.867l23.467,10.667c0,6.4,0,12.8,1.067,18.133l-22.4,12.8l6.4,18.133l25.6-3.2c3.2,5.333,6.4,10.667,10.667,16L32,428.8
	l14.933,12.8l21.333-16c5.333,3.2,10.667,6.4,17.067,8.533v25.6l19.2,4.267l10.667-23.467c6.4,0,12.8,0,18.133-1.067l12.8,22.4
	l18.133-6.4l-3.2-25.6c5.333-3.2,10.667-6.4,16-10.667l22.4,12.8l12.8-14.933l-16-21.333c3.2-5.333,6.4-10.667,8.533-17.067h25.6
	l4.267-19.2L211.2,348.8c0-6.4,0-12.8-1.067-18.133L232.533,318.933z M133.333,394.667c-26.667,8.533-54.4-5.333-64-32
	c-8.533-26.667,5.333-54.4,32-64c26.667-8.533,54.4,5.333,64,32C173.867,357.333,160,386.133,133.333,394.667z M124.8,368
	c-11.733,4.267-24.533-2.133-28.8-13.867s2.133-24.533,13.867-28.8c11.733-4.267,24.533,2.133,28.8,13.867
	C142.933,352,136.533,364.8,124.8,368z"/>
<path style="fill:#FFD15C;" d="M232.533,114.133L267.733,64c6.4-8.533,16-12.8,26.667-11.733c30.933,3.2,94.933,10.667,102.4,9.6
	c8.533,0,40.533,0,54.4,33.067c13.867,33.067,42.667,121.6,60.8,142.933v193.067c0,0-75.733-37.333-92.8-52.267
	c0,0-50.133-12.8-66.133-44.8s-26.667-51.2-26.667-51.2s-21.333-2.133-43.733-14.933c-22.4-12.8-23.467-27.733-18.133-39.467
	c0,0-21.333-27.733-21.333-48C243.2,161.067,232.533,114.133,232.533,114.133z"/>
<g>
	<path style="fill:#F7B64C;" d="M314.667,224c-2.133-2.133-5.333-5.333-9.6-8.533c-2.133-2.133-4.267-3.2-6.4-5.333
		c-2.133-2.133-5.333-3.2-7.467-5.333c-3.2-2.133-5.333-3.2-8.533-5.333c-1.067-1.067-3.2-1.067-4.267-2.133
		c-1.067,0-2.133-1.067-2.133-1.067c-1.067,0-2.133-1.067-2.133-1.067L272,194.133l-2.133-1.067c-2.133,0-3.2-1.067-5.333-1.067
		c-3.2-1.067-6.4-2.133-9.6-3.2c-3.2-1.067-6.4-2.133-8.533-3.2c0,2.133,1.067,3.2,1.067,5.333c2.133,1.067,3.2,2.133,5.333,2.133
		c3.2,1.067,6.4,2.133,9.6,3.2c2.133,1.067,3.2,1.067,5.333,1.067l2.133,1.067l2.133,1.067c1.067,0,1.067,1.067,2.133,1.067
		c1.067,0,1.067,0,2.133,1.067c1.067,1.067,3.2,1.067,4.267,2.133c3.2,1.067,6.4,3.2,8.533,4.267c3.2,2.133,5.333,3.2,7.467,4.267
		c2.133,1.067,5.333,3.2,7.467,4.267C308.267,220.8,311.467,224,314.667,224c2.133,2.133,3.2,3.2,3.2,3.2S316.8,226.133,314.667,224
		z"/>
	<path style="fill:#F7B64C;" d="M250.667,118.4c2.133,1.067,4.267,1.067,6.4,2.133c4.267,2.133,7.467,3.2,11.733,5.333
		c2.133,1.067,4.267,2.133,5.333,3.2c2.133,1.067,3.2,2.133,5.333,3.2l0,0l0,0c2.133,1.067,4.267,2.133,6.4,4.267
		c2.133,1.067,4.267,2.133,6.4,3.2c4.267,2.133,9.6,4.267,13.867,7.467c2.133,1.067,4.267,2.133,7.467,3.2l7.467,3.2
		c2.133,1.067,5.333,2.133,7.467,3.2c2.133,1.067,5.333,2.133,7.467,2.133l4.267,1.067l4.267,1.067
		c2.133,1.067,5.333,1.067,7.467,2.133c2.133,1.067,5.333,1.067,7.467,2.133c2.133,0,5.333,1.067,7.467,1.067
		c2.133,0,5.333,1.067,7.467,1.067c2.133,0,5.333,1.067,7.467,1.067c2.133,0,5.333,1.067,7.467,1.067
		c2.133,0,5.333,1.067,7.467,1.067c-5.333-1.067-9.6-2.133-14.933-3.2c-2.133-1.067-5.333-1.067-7.467-2.133
		c-2.133-1.067-5.333-1.067-7.467-2.133c-5.333-1.067-9.6-3.2-14.933-4.267c-2.133-1.067-5.333-1.067-7.467-2.133l-3.2-1.067
		l-3.2-1.067c-2.133-1.067-4.267-2.133-7.467-3.2c-2.133-1.067-4.267-2.133-6.4-3.2c-4.267-2.133-9.6-4.267-13.867-6.4
		c-4.267-2.133-9.6-4.267-13.867-7.467l-6.4-3.2c-2.133-1.067-4.267-2.133-6.4-3.2l0,0c-2.133-1.067-4.267-2.133-5.333-3.2
		c-2.133-1.067-4.267-2.133-6.4-3.2c-2.133-1.067-4.267-2.133-6.4-3.2c-2.133-1.067-4.267-2.133-6.4-2.133
		c-2.133-1.067-4.267-1.067-6.4-2.133c-2.133-1.067-4.267-1.067-6.4-2.133c-1.067,0-2.133-1.067-3.2-1.067l-2.133,4.267
		c1.067,0,2.133,1.067,4.267,1.067C246.4,117.333,248.533,117.333,250.667,118.4z"/>
	<path style="fill:#F7B64C;" d="M264.533,196.267c2.133,0,3.2,0,4.267,1.067c1.067,0,1.067,0,1.067,0s-2.133-1.067-4.267-2.133
		c-1.067-1.067-3.2-1.067-5.333-2.133c-2.133-1.067-4.267-2.133-6.4-3.2c-2.133-1.067-5.333-2.133-7.467-4.267
		c0,2.133,1.067,3.2,1.067,5.333c2.133,1.067,3.2,1.067,5.333,2.133C256,195.2,261.333,196.267,264.533,196.267z"/>
</g>
<path style="fill:#66C6B9;" d="M197.333,58.667l-13.867-6.4l-12.8,17.067c-5.333-1.067-9.6-2.133-14.933-2.133l-6.4-19.2l-16,2.133
	L131.2,70.4c-4.267,1.067-9.6,3.2-13.867,5.333L102.4,61.867l-11.733,9.6l8.533,19.2c-3.2,3.2-6.4,7.467-9.6,11.733l-20.267-4.267
	L62.933,112L80,123.733c-1.067,5.333-2.133,9.6-2.133,14.933l-19.2,6.4l2.133,16l20.267,2.133c1.067,4.267,3.2,9.6,5.333,13.867
	L73.6,192l9.6,12.8l19.2-8.533c3.2,3.2,7.467,6.4,11.733,9.6l-4.267,20.267l13.867,6.4l11.733-17.067
	c5.333,1.067,9.6,2.133,14.933,2.133l6.4,19.2l16-2.133l2.133-20.267c4.267-1.067,9.6-3.2,13.867-5.333l16,13.867l12.8-9.6
	l-8.533-19.2c3.2-3.2,6.4-7.467,9.6-11.733l20.267,4.267l6.4-13.867L225.067,160c1.067-5.333,2.133-9.6,2.133-14.933l19.2-6.4
	l-1.067-16L224,120.533c-1.067-4.267-3.2-9.6-5.333-13.867l13.867-16l-9.6-12.8l-19.2,8.533c-3.2-3.2-7.467-6.4-11.733-9.6
	L197.333,58.667z M189.867,157.867c-8.533,20.267-32,29.867-52.267,21.333s-29.867-32-21.333-52.267s32-29.867,52.267-21.333
	C188.8,114.133,198.4,137.6,189.867,157.867z M169.6,149.333c-4.267,9.6-14.933,13.867-23.467,9.6
	c-9.6-4.267-13.867-14.933-9.6-23.467c4.267-9.6,14.933-13.867,23.467-9.6C169.6,129.067,173.867,139.733,169.6,149.333z"/>
<path style="fill:#F7B64C;" d="M356.267,80c0,0-16,21.333-19.2,38.4c-4.267,17.067-2.133,24.533,3.2,30.933
	c5.333,6.4,19.2,6.4,19.2,6.4s17.067-22.4,23.467-35.2s24.533-28.8,24.533-28.8s-22.4,30.933-30.933,45.867
	c-8.533,14.933-10.667,18.133-10.667,18.133s-2.133,4.267,12.8,5.333c13.867,1.067,28.8-7.467,21.333-2.133
	c-7.467,5.333-24.533,10.667-38.4,10.667c-13.867,0-43.733-16-43.733-16s10.667-4.267,9.6-16c-1.067-11.733-3.2-12.8-14.933-12.8
	c-11.733,1.067-18.133,2.133-26.667,5.333c-9.6,3.2-11.733,5.333-11.733,5.333s18.133-10.667,20.267-18.133
	c2.133-6.4,4.267-33.067-2.133-50.133c0,0,9.6,26.667,8.533,39.467c-1.067,12.8,19.2,11.733,26.667,9.6
	c7.467-2.133,21.333-32,30.933-38.4"/>
<path style="fill:#FFD15C;" d="M280.533,130.133c0,0-13.867-9.6-44.8-19.2s-41.6,6.4-45.867,17.067
	c-5.333,10.667,0,37.333,30.933,50.133c30.933,12.8,32,14.933,49.067,19.2s39.467,22.4,49.067,29.867c9.6,7.467,17.067,16,17.067,16
	l61.867-72.533c0,0-45.867-6.4-73.6-19.2C296.533,138.667,280.533,130.133,280.533,130.133z"/>
<path style="fill:#FFFFFF;" d="M220.8,158.933c2.133-8.533,10.667-24.533,14.933-28.8s1.067-9.6,0-10.667
	C234.667,118.4,224,112,219.733,112s-18.133,3.2-22.4,13.867c-4.267,9.6-5.333,19.2,1.067,26.667
	C204.8,160,217.6,167.467,220.8,158.933z"/>
<g>
</g>
<g>
</g>
<g>
</g>
<g>
</g>
<g>
</g>
<g>
</g>
<g>
</g>
<g>
</g>
<g>
</g>
<g>
</g>
<g>
</g>
<g>
</g>
<g>
</g>
<g>
</g>
<g>
</g>
</svg>
