<?xml version="1.0" encoding="iso-8859-1"?>
<!-- Generator: Adobe Illustrator 19.0.0, SVG Export Plug-In . SVG Version: 6.00 Build 0)  -->
<svg version="1.1" id="Capa_1" xmlns="http://www.w3.org/2000/svg" xmlns:xlink="http://www.w3.org/1999/xlink" x="0px" y="0px"
	 viewBox="0 0 512.283 512.283" style="enable-background:new 0 0 512.283 512.283;" xml:space="preserve">
<g>
	<path style="fill:#4ABAA5;" d="M280.233,84.55c3.2,1.067,5.333,2.133,5.333,2.133c-1.067,1.067-5.333,1.067-6.4,2.133
		c-2.133,2.133-6.4,10.667-10.667,17.067c-4.267,6.4-6.4,8.533-6.4,8.533l0,0c0,0-8.533-7.467-2.133-19.2
		C264.233,82.416,275.966,83.483,280.233,84.55z"/>
	<path style="fill:#4ABAA5;" d="M304.766,124.016c0,0,4.267-5.333,5.333-12.8c0-7.467,1.067-16,3.2-19.2
		c3.2-2.133-2.133,0-4.267,1.067s-11.733,4.267-10.667,16C299.433,120.816,304.766,124.016,304.766,124.016z"/>
</g>
<path style="fill:#66C6B9;" d="M297.3,130.416c0,0,1.067-18.133-16-34.133c0,0-2.133-3.2-2.133-5.333c0,0,0-1.067-1.067,0
	c-1.067,1.067-4.267,14.933,2.133,24.533C285.566,127.216,294.1,130.416,297.3,130.416z"/>
<g>
	<path style="fill:#4ABAA5;" d="M248.233,76.016l-5.333,3.2c0,0-1.067,12.8-13.867,20.267S210.9,106.95,210.9,106.95
		s-6.4-16,5.333-25.6s25.6-3.2,25.6-3.2l6.4-3.2V76.016z"/>
	<path style="fill:#4ABAA5;" d="M254.633,57.883c0,0,3.2,11.733,10.667,17.067c7.467,5.333,24.533,5.333,28.8,5.333
		c4.267,0,8.533,2.133,8.533,2.133s1.067-2.133-2.133-9.6c-3.2-7.467-8.533-17.067-23.467-21.333c-16-3.2-21.333,4.267-21.333,4.267
		h-8.533v2.133L254.633,57.883z"/>
	<path style="fill:#4ABAA5;" d="M248.233,58.95l-2.133-8.533c0,0,13.867-25.6-7.467-41.6s-32-5.333-32-5.333s0,24.533,18.133,35.2
		S242.9,49.35,242.9,49.35L248.233,58.95L248.233,58.95z"/>
	<path style="fill:#4ABAA5;" d="M225.833,176.283c0,0,8.533-25.6-1.067-38.4c-9.6-12.8-12.8-10.667-16-13.867
		c0,0,0,8.533-1.067,12.8c-1.067,4.267-2.133,17.067,1.067,25.6C214.1,170.95,225.833,176.283,225.833,176.283z"/>
</g>
<g>
	<path style="fill:#66C6B9;" d="M227.966,172.016c0,0,24.533-11.733,21.333-33.067c0,0-4.267-3.2-12.8,0
		C229.033,142.15,220.5,154.95,227.966,172.016z"/>
	<path style="fill:#66C6B9;" d="M250.366,179.483c0,0-18.133,3.2-25.6,20.267c-7.467,17.067-6.4,25.6-6.4,25.6s5.333-4.267,12.8-6.4
		c7.467-2.133,33.067-17.067,37.333-25.6s4.267-8.533,4.267-8.533L250.366,179.483z"/>
</g>
<path style="fill:#415A6B;" d="M264.233,156.016c0,0,0,6.4,0,12.8s7.467,6.4,7.467,6.4s33.067,16,34.133,30.933
	c1.067,14.933,0,20.267-2.133,27.733c-1.067,6.4-4.267,10.667-16,14.933c-12.8,4.267-22.4-1.067-32,1.067c-9.6,2.133-16,7.467-16,16
	s3.2,18.133,6.4,22.4c3.2,4.267,20.267,35.2,20.267,35.2L223.7,324.55c0,0-16-39.467-16-55.467c0-16,7.467-30.933,13.867-36.267
	c6.4-5.333,21.333-10.667,29.867-10.667s17.067,3.2,23.467,0c5.333-3.2,4.267-9.6,0-16c-3.2-6.4-29.867-14.933-32-42.667
	c-2.133-27.733,8.533-33.067,9.6-44.8c1.067-11.733-8.533-34.133-8.533-51.2c0-16,4.267-27.733,4.267-27.733s2.133,32,7.467,46.933
	c5.333,14.933,12.8,27.733,13.867,35.2c1.067,7.467,0,7.467,0,7.467s12.8-8.533,26.667-8.533c14.933,1.067,41.6,7.467,45.867,22.4
	c0,0-18.133-5.333-34.133-7.467s-25.6,0-32,8.533C267.433,151.75,264.233,156.016,264.233,156.016z"/>
<path style="fill:#66C6B9;" d="M323.966,135.75c0,0,18.133-9.6,12.8-26.667s0-23.467,0-23.467s-5.333,9.6-11.733,14.933
	C317.566,106.95,305.833,120.816,323.966,135.75z"/>
<path style="fill:#415A6B;" d="M258.9,231.75c0,0-1.067-4.267-4.267-9.6c-1.067-3.2-2.133-6.4-4.267-10.667
	c-1.067-4.267-3.2-8.533-4.267-11.733c-1.067-3.2-4.267-6.4-7.467-8.533c-3.2-2.133-6.4-4.267-9.6-6.4
	c-5.333-4.267-7.467-7.467-7.467-7.467s3.2,3.2,8.533,6.4c3.2,2.133,6.4,3.2,9.6,4.267c4.267,1.067,8.533,4.267,10.667,8.533
	s4.267,7.467,6.4,10.667c2.133,3.2,4.267,6.4,5.333,9.6c3.2,5.333,5.333,9.6,5.333,9.6L258.9,231.75z"/>
<path style="fill:#66C6B9;" d="M225.833,180.55c0,0,0,2.133-5.333,9.6c-5.333,7.467-13.867,18.133-21.333,20.267
	c-7.467,2.133-10.667,5.333-10.667,5.333s0-8.533-2.133-12.8c-3.2-4.267,3.2-22.4,18.133-22.4
	C220.5,178.416,225.833,180.55,225.833,180.55z"/>
<path style="fill:#415A6B;" d="M224.766,168.816c0,0,0,1.067,1.067,3.2s2.133,4.267,3.2,6.4c2.133,4.267,6.4,7.467,6.4,7.467
	l-1.067,1.067c0,0-4.267-4.267-6.4-8.533c-1.067-2.133-2.133-5.333-2.133-6.4C224.766,169.883,224.766,168.816,224.766,168.816z"/>
<g>
	<path style="fill:#4ABAA5;" d="M317.566,191.216c0,0,32,20.267,58.667,1.067c0,0,2.133-1.067,4.267-1.067
		c2.133,0,0-1.067-2.133-3.2c-2.133-3.2-12.8-14.933-24.533-16C344.233,170.95,325.033,179.483,317.566,191.216z"/>
	<path style="fill:#4ABAA5;" d="M357.033,134.683c0,0,4.267,8.533,2.133,14.933c-3.2,6.4-8.533,20.267-20.267,24.533
		s-23.467,3.2-23.467,3.2s-8.533-25.6,1.067-38.4C326.1,127.216,348.5,127.216,357.033,134.683z"/>
</g>
<path style="fill:#415A6B;" d="M323.966,191.216c-5.333,2.133-10.667,3.2-17.067,5.333l-2.133,1.067l1.067-2.133
	c2.133-5.333,4.267-10.667,7.467-14.933c3.2-4.267,6.4-9.6,9.6-13.867c-3.2,4.267-6.4,9.6-8.533,13.867
	c-2.133,5.333-4.267,9.6-6.4,14.933l-1.067-2.133C312.233,192.283,318.633,191.216,323.966,191.216z"/>
<path style="fill:#66C6B9;" d="M301.566,194.416c7.467,17.067,21.333,25.6,42.667,24.533c4.267,0,8.533,0,12.8,1.067
	c-3.2-3.2-5.333-6.4-6.4-9.6C341.033,190.15,325.033,184.816,301.566,194.416z"/>
<path style="fill:#415A6B;" d="M293.033,193.35c0,0,5.333,0,9.6,0c5.333,0,9.6,1.067,9.6,1.067s-5.333,0-9.6,0
	c-5.333,0-9.6,1.067-9.6,1.067V193.35z"/>
<path style="fill:#FFD15C;" d="M333.566,335.216c-13.867-18.133-46.933-30.933-84.267-30.933c-38.4,0-70.4,12.8-84.267,30.933
	H333.566z"/>
<path style="fill:#F05540;" d="M358.1,365.083L335.7,494.15c-2.133,10.667-10.667,18.133-21.333,18.133H187.433
	c-10.667,0-19.2-7.467-21.333-18.133l-22.4-129.067L358.1,365.083L358.1,365.083z"/>
<path style="fill:#F3705A;" d="M369.833,333.083v24.533c0,4.267-4.267,8.533-8.533,8.533H139.433c-4.267,0-8.533-3.2-8.533-8.533
	v-24.533c0-4.267,4.267-8.533,8.533-8.533H361.3C365.566,324.55,369.833,327.75,369.833,333.083z"/>
<path style="fill:#FFFFFF;" d="M246.1,466.416V439.75c-8.533-2.133-13.867-5.333-18.133-10.667
	c-4.267-5.333-5.333-10.667-5.333-17.067c0-6.4,2.133-12.8,6.4-17.067c4.267-4.267,9.6-7.467,17.067-8.533v-6.4h8.533v6.4
	c6.4,1.067,11.733,3.2,16,6.4s6.4,8.533,7.467,14.933l-16,2.133c-1.067-5.333-3.2-8.533-7.467-9.6v24.533
	c9.6,3.2,17.067,6.4,20.267,10.667c3.2,4.267,5.333,9.6,5.333,17.067c0,7.467-2.133,13.867-6.4,19.2
	c-4.267,5.333-10.667,8.533-19.2,9.6v11.733H246.1V481.35c-7.467-1.067-12.8-3.2-17.067-8.533s-7.467-10.667-8.533-19.2l16-2.133
	c1.067,3.2,2.133,6.4,4.267,8.533C242.9,462.15,243.966,465.35,246.1,466.416z M246.1,401.35c-2.133,1.067-4.267,2.133-6.4,4.267
	c-2.133,2.133-2.133,4.267-2.133,6.4c0,2.133,1.067,4.267,2.133,6.4c1.067,2.133,3.2,3.2,6.4,4.267V401.35z M255.7,467.483
	c3.2-1.067,5.333-2.133,7.467-4.267c2.133-2.133,3.2-5.333,3.2-8.533c0-3.2-1.067-5.333-2.133-7.467
	c-1.067-2.133-4.267-3.2-8.533-4.267V467.483z"/>
<g>
</g>
<g>
</g>
<g>
</g>
<g>
</g>
<g>
</g>
<g>
</g>
<g>
</g>
<g>
</g>
<g>
</g>
<g>
</g>
<g>
</g>
<g>
</g>
<g>
</g>
<g>
</g>
<g>
</g>
</svg>
