<?xml version="1.0" encoding="iso-8859-1"?>
<!-- Generator: Adobe Illustrator 19.0.0, SVG Export Plug-In . SVG Version: 6.00 Build 0)  -->
<svg version="1.1" id="Capa_1" xmlns="http://www.w3.org/2000/svg" xmlns:xlink="http://www.w3.org/1999/xlink" x="0px" y="0px"
	 viewBox="0 0 512 512" style="enable-background:new 0 0 512 512;" xml:space="preserve">
<path style="fill:#E8EAE9;" d="M512,32v344.533c0,18.133-13.867,32-32,32H32c-18.133,0-32-13.867-32-32V32C0,13.867,13.867,0,32,0
	h448C498.133,0,512,13.867,512,32z"/>
<g>
	<path style="fill:#55C0EB;" d="M215.467,77.867H214.4h-1.067h-1.067c0,0-1.067,0-2.133,0v1.067c-1.067,0-2.133,1.067-3.2,2.133
		l-1.067,1.067H204.8h-1.067c0,0-1.067-1.067-1.067,0S201.6,83.2,201.6,83.2s-1.067,0-1.067,1.067l-1.067,1.067c0,0,0,0,0,1.067
		c0,0,0,0-1.067,0v1.067c-1.067,1.067-2.133,2.133-3.2,2.133l0,0c0,2.133,0,2.133-1.067,3.2c-1.067,0-1.067,1.067-1.067,2.133
		c-1.067,1.067-1.067,0-2.133-1.067c-1.067,0-1.067-1.067-1.067-2.133c-1.067,1.067-2.133,0-2.133,0c0-1.067-1.067-2.133-1.067-3.2
		c0-1.067,0-1.067,0-2.133c0,0,0-1.067-1.067-2.133V83.2v-1.067c0-1.067-1.067-1.067-1.067-2.133c0,0,0,0,0-1.067
		s0-1.067,1.067-2.133c1.067,0,1.067-2.133,3.2-1.067c0,0,0,0,0-1.067l0,0h1.067v1.067c1.067,0,1.067-2.133,2.133-2.133v-1.067
		h1.067c0-1.067-1.067,0-1.067,0h-1.067v2.133h3.2l0,0h-1.067c0,0,0-1.067-1.067-1.067c0-1.067-1.067-1.067-1.067,0
		s-1.067,1.067-2.133,1.067c0-1.067,0-1.067,1.067-2.133c1.067,0,2.133-2.133,1.067-3.2c0-1.067,0-1.067,0-2.133
		c-1.067,0-1.067-1.067-2.133-2.133c-6.4-1.067-7.467-2.133-9.6-1.067h-1.067h-1.067c0,0,0,0-1.067,0c0,0,0,1.067-1.067,0l0,0
		c0,1.067-1.067,0-1.067,0c0-1.067,0-1.067-1.067-2.133c1.067,0,1.067,0,1.067,1.067c0-2.133-1.067-1.067-2.133-1.067v-2.133
		c1.067,0,1.067,0,2.133,0c1.067,0,1.067,0,2.133,0c0,0,0,0,1.067,0c1.067,0,1.067,0,2.133,0s2.133-1.067,3.2-1.067
		c0,0,0,0,1.067-1.067c0-1.067-1.067-1.067,0-2.133l0,0l0,0l0,0c1.067,0,2.133,0,3.2,0l0,0c0-1.067,1.067-1.067,1.067,0h1.067
		c1.067-1.067,2.133-1.067,3.2-1.067h1.067c0,0,0,0,1.067,0h2.133h1.067c0,1.067,1.067,0,1.067,0s1.067,0,2.133,0h1.067v-1.067
		c1.067,0,2.133,0,2.133,0s1.067,0,1.067,1.067c0,0,1.067,0,1.067-1.067l0,0v-1.067c1.067,0,1.067,0,2.133-1.067
		c0,0,1.067,1.067,2.133,1.067l0,0c1.067,0,2.133-1.067,3.2-1.067c3.2,0,7.467,0,10.667,0c1.067,0,1.067,0,2.133,1.067v1.067h1.067
		V54.4c1.067,0,1.067,0,2.133,0c1.067,1.067,1.067,1.067,2.133,0c0,0,0,0,1.067,0c1.067,0,1.067,0,2.133,0c0,0,0,0,1.067,0
		c1.067,0,1.067-1.067,2.133,0c-1.067,0-1.067,1.067-2.133,1.067c-1.067,0-1.067,0-2.133,0c0,0,0,1.067-1.067,1.067
		c0,0-1.067,0-1.067-1.067l-1.067,1.067c0,0,0,1.067-1.067,1.067c-1.067,0-1.067,1.067-2.133,2.133c1.067,1.067,1.067,0,2.133,0
		V60.8c-1.067,1.067-2.133,1.067-3.2,1.067c0,1.067,1.067,0,1.067,0c1.067,0,1.067,0,1.067,2.133c0,0,0,0-1.067,0c0,0,0,0-1.067,0
		c0,1.067,1.067,0,1.067,1.067h-1.067v1.067c-1.067,0-1.067,1.067-2.133,1.067c-1.067,0-1.067,0-2.133-1.067
		c0-1.067-1.067-1.067-1.067,0l-1.067,1.067v1.067h1.067c0,1.067,1.067,1.067,1.067,2.133c0,0,1.067,1.067,0,1.067H220.8
		c0,0,0,0,0,1.067c0,0-1.067,0-1.067-1.067c0,0,0,0,0-1.067h-1.067v1.067H217.6c0,3.2,1.067,3.2,2.133,3.2v1.067
		c-1.067,0-2.133,1.067-2.133,1.067C216.533,77.867,216.533,77.867,215.467,77.867z"/>
	<path style="fill:#55C0EB;" d="M400,195.2c-1.067,0-1.067,1.067-2.133,1.067c-1.067,1.067-1.067,1.067-1.067,0l0,0
		c0-1.067,0-2.133,0-3.2c0-1.067,0-2.133-1.067-3.2l-1.067-1.067c0-1.067-1.067-2.133-2.133-3.2c-1.067,0-1.067-1.067-1.067-2.133
		c0-1.067,0-2.133-1.067-3.2h-1.067c0,2.133-1.067,2.133-2.133,2.133h-1.067c0,0,0,0-1.067,0s-1.067,1.067-2.133,1.067
		c0,0,0,0,0,1.067v1.067c0,1.067,0,1.067-1.067,1.067s-1.067,0-1.067,1.067s-1.067,1.067-1.067,2.133
		c-1.067,0-1.067,1.067-2.133,2.133c0,1.067-1.067,1.067-1.067,3.2c-2.133,0-3.2,1.067-3.2,3.2c0,1.067,0,1.067,0,2.133
		c0,1.067,0,2.133,0,3.2c0,0,0,1.067,0,2.133v1.067c0,1.067,0,2.133,0,3.2h-1.067c0,1.067,0,2.133-1.067,3.2c0,0,0,0-1.067,0
		c0,0,0,1.067,0,2.133h-1.067c-1.067,0-1.067,0-1.067-1.067c0-1.067-1.067-2.133-1.067-4.267v-1.067c0-1.067-1.067-2.133-1.067-3.2
		L364.8,204.8c0-1.067,0-2.133-1.067-3.2v-1.067c-1.067-1.067-1.067-3.2-2.133-4.267c0,0,0,0,0-1.067s0-1.067,0-1.067v-1.067
		c0-1.067,0-1.067,0-2.133v-1.067V188.8c0,0,0-1.067,0-2.133c1.067-1.067,0-1.067,0-1.067s0-1.067-1.067-1.067l0,0
		c0-1.067,0-1.067-1.067-2.133c0,0,0,1.067-1.067,1.067v1.067c0,0-1.067,0-1.067,1.067c-1.067,1.067-1.067,1.067-2.133,0
		c-1.067-1.067-1.067-2.133-2.133-1.067v-3.2h1.067v-1.067c-1.067,1.067-1.067,0-2.133-1.067c-1.067-1.067-1.067-1.067-2.133-1.067
		c-1.067,0-1.067-1.067-1.067-2.133c-1.067,0-1.067,0-1.067-1.067h-6.4C340.267,176,339.2,176,339.2,176h-1.067c0,0,0,0-1.067,0
		c-1.067,0-2.133,0-2.133,0s-1.067,0-2.133,0c0-1.067,0-1.067,0-2.133c0-1.067-1.067-1.067-1.067-1.067c0-1.067-1.067,0-1.067,0
		l-1.067,1.067c0,0,0,0-1.067,0c-1.067-1.067-1.067,0-2.133-1.067c-1.067-1.067-1.067-1.067-2.133-2.133c0,0,0,0-1.067,0
		c-1.067,0-1.067-1.067-1.067-1.067c0-1.067,0-2.133-1.067-2.133c0,0,0,0,0-1.067c0-1.067,0-1.067-1.067-1.067h-1.067v1.067h-1.067
		c0,2.133,1.067,3.2,1.067,5.333c1.067,1.067,2.133,2.133,2.133,3.2c0,1.067,0,1.067,1.067,2.133c0,0,0,1.067,1.067,1.067
		c0-1.067,0-1.067,0-2.133c0,0,0,0,1.067,0c0,1.067,0,1.067,0,2.133c0,1.067,0,2.133,1.067,3.2c1.067-1.067,1.067,0,2.133,0
		c1.067,0,1.067,0,1.067-1.067l1.067-1.067c0,0,0-1.067,1.067-2.133h1.067l0,0c0,1.067,0,1.067,1.067,2.133v1.067
		c1.067,0,1.067,1.067,2.133,1.067l0,0c1.067,0,2.133,1.067,2.133,2.133c0,0,0,1.067,0,2.133c0,1.067-1.067,2.133-1.067,3.2h-1.067
		c0,1.067,0,1.067,0,2.133c0,1.067,0,1.067,0,2.133c-1.067,0-1.067,0-1.067,0c0,1.067-1.067,1.067-1.067,2.133
		c-1.067,0-1.067,0-2.133,0c0,1.067,0,1.067,0,2.133c-2.133,0-3.2,1.067-5.333,2.133c0,1.067,0,1.067-1.067,2.133l0,0
		c-1.067,0-1.067,1.067-2.133,1.067l0,0c0,0-1.067,0-1.067,1.067L320,204.8h-1.067c1.066-2.133,0-2.133-1.067-2.133
		c0,0-1.067,0-1.067,1.067c0,1.067-1.067,1.067-1.067,1.067c-1.067,0-1.067,0-2.133,0v-1.067c0-1.067,0-1.067,0-2.133v-1.067
		c0-1.067,0-1.067,0-1.067s0,0,0-1.067c0-1.067,0-1.067,0-2.133s0-2.133-1.067-2.133c-1.067,0-1.067-2.133-1.067-2.133l-1.067-1.067
		c0-2.133-1.067-2.133-2.133-3.2c-1.067-1.067-1.067-2.133-2.133-3.2c0,0,0,0,0-1.067c0-2.133-1.067-3.2-1.067-5.333L304,177.067
		c0-1.067,0-2.133-1.067-2.133c0,0,0-1.067-1.067-2.133c0,0,0,0,0-1.067c-1.067-1.067-1.067-2.133-2.133-3.2v-1.067h-1.067v-3.2
		c-1.067,1.067,0,2.133,0,3.2c-1.067,1.067-1.067,0-1.067,0c0,1.067,0,1.067,0,2.133v1.067v1.067c1.067,1.067,1.067,2.133,2.133,3.2
		l0,0c1.067,1.067,1.067,2.133,1.067,3.2l0,0c1.067,1.067,1.067,2.133,2.133,2.133c0,1.067,0,1.067,0,2.133c0,0,0,0,0,1.067
		c0,1.067,0,1.067,0,2.133c0,2.133,1.067,3.2,2.133,4.267c0,0,0,0,1.067,0c0,1.067,1.067,2.133,1.067,3.2l0,0
		c0,2.133,1.067,4.267,3.2,4.267c1.067,0,1.067,1.067,1.067,1.067c0,1.067,1.067,1.067,1.067,2.133
		c1.067,1.067,1.067,1.067,2.133,2.133c1.067,1.067,0,1.067,0,2.133H313.6c1.067,1.067,2.133,2.133,2.133,3.2
		c1.067,0,2.133,0,2.133,0h1.067c1.067,0,1.067,0,2.133-1.067c0,0,0,0,1.067,0s1.067,0,2.133,0h1.067l0,0
		c1.067,0,2.133-1.067,3.2-1.067c0,1.067,0,2.133,0,3.2c0,0,0,1.067,0,2.133c0,1.067,0,1.067,0,1.067v1.067
		c0,1.067-1.067,2.133-1.067,3.2c0,0-1.067,1.067,0,1.067c0,1.067-1.067,1.067-1.067,2.133c-1.067,0-1.067,1.067-1.067,2.133
		c0,1.067-1.067,2.133-1.067,2.133l0,0l0,0c0,1.067-1.067,2.133-2.133,2.133l0,0c-1.067,1.067-2.133,2.133-3.2,4.267
		c-1.067,1.067-2.133,2.133-2.133,3.2v1.067c0,2.133-1.067,2.133-2.133,3.2c-1.067,0-1.067,1.067-1.067,1.067
		c0,1.067,0,2.133-1.067,3.2l0,0c0,1.067,0,1.067-1.067,2.133v1.067c0,1.067,0,1.067,1.067,1.067c1.067,1.067,1.067,2.133,0,2.133
		c0,0,1.067,1.067,0,2.133l0,0c1.067,1.067,0,2.133,1.067,3.2l0,0c1.067,1.067,1.067,2.133,1.067,3.2v8.533
		c0,1.067-1.067,1.067-1.067,2.133c0,0,0,1.067-1.067,1.067s-2.133,2.133-3.2,2.133c-1.067,0-1.067,1.067-2.133,2.133
		c0,1.067-1.067,1.067-1.067,1.067c-1.067,0-1.067,1.067-2.133,2.133v1.067c1.067,1.067,0,1.067,0,2.133s0,1.067,0,2.133
		c0,1.067,0,2.133,0,3.2c1.067,1.067,1.067,1.067,0,2.133L302.933,288c-1.067,0-1.067,0-2.133,1.067c0,0-1.067,0-1.067,1.067v1.067
		c0,1.067,0,3.2,0,4.267c-1.067,1.067-1.067,2.133-2.133,2.133c0,1.067-1.067,2.133-1.067,3.2l0,0c0,2.133-1.067,2.133-2.133,3.2
		c0,1.067-1.067,1.067-2.133,2.133s-1.067,2.133-2.133,2.133h-1.067H288c0,0,0,0-1.067,0c-1.067,0-2.133,0-3.2,0s-1.067,0-2.133,0
		c0,0,0,0-1.067,0c-1.067,0-1.067,1.067-2.133,1.067c-1.067-1.067-1.067-1.067-2.133-2.133c0,0,0-1.067,0-2.133V304
		c1.067-1.067,0-2.133,0-2.133l0,0c-1.067,0-1.067-2.133-1.067-2.133s0,0,0-1.067c0-1.067,0-2.133-1.067-3.2
		c0,0,0-1.067-1.067-1.067l0,0v-1.067C272,292.267,272,292.267,272,291.2c0-1.067,0-1.067,0-2.133s0-1.067,0-2.133
		c-1.067-2.133,0-3.2,0-5.333c0-1.067,0-1.067-1.067-2.133V278.4c-1.067-1.067-1.067-3.2-2.133-4.267l0,0
		c0-2.133-1.067-2.133-1.067-4.267l0,0c0-2.133,0-3.2,0-5.333c0-1.067,0-1.067,0-2.133c1.067-1.067,0-3.2,1.067-4.267
		c0,0,0,0,0-1.067h1.067c0-1.067,0-1.067,1.067-2.133c0-1.067,0-2.133-1.067-3.2c0,0,0,0,0-1.067c0-1.067,0-1.067,0-2.133v-1.067
		c0-1.067,0-1.067,0-2.133s0-2.133-1.067-2.133c0,0,0-1.067,0-2.133c0,0,0,0-1.067,0c0,0,1.067-1.067,0-1.067
		c0,0,0-1.067-1.067-2.133l0,0c-1.067-1.067-2.133-3.2-3.2-4.267c0,0-1.067-1.067-1.067-2.133s0-1.067,0-2.133
		c0-1.067,1.067-1.067,1.067-2.133c0,0,0,0,0-1.067c0-1.067,0-1.067,0-2.133c0,0,0,0,0-1.067v-1.067c0-1.067,0-2.133-1.067-3.2l0,0
		c0-1.067-1.067-1.067-2.133-1.067H259.2c-1.067,0-1.067,0-1.067,0h-1.067c0-1.067-1.067-1.067-1.067-2.133
		c0-1.067,0-1.067-1.067-2.133c0-1.067-1.067-1.067-1.067-1.067s-1.067,0-1.067-1.067c0,0-1.067,0-1.067,1.067h-1.067
		c0,0,0,0-1.067,0c-1.067,1.067-1.067,1.067-2.133,1.067c-1.067,0-2.133,1.067-2.133,1.067l0,0h-1.067c0-1.067-1.067,0-1.067-1.067
		c0,0,0,0-1.067,0l0,0l0,0h-1.067H240c-1.067,0-1.067,0-2.133,1.067c0,1.067-1.067,1.067-2.133,1.067c-1.067,0-2.133,0-2.133-1.067
		s-1.067-1.067-1.067-2.133l0,0c-1.067,0-1.067-1.067-2.133-2.133c0,0-1.067,0-1.067-1.067c-1.067-1.067-1.067-1.067-1.067-2.133
		c0-1.067,0-2.133-1.067-3.2v-1.067c-1.067,0-2.133-1.067-2.133-2.133v-1.067c0,0,0,0,0-1.067c0-1.067,0-1.067-1.067-1.067
		s-1.067-1.067,0-3.2l0,0c0-1.067-1.067-2.133-1.067-3.2c0-1.067,0-1.067,1.067-2.133v-1.067c0-1.067,0-2.133,1.067-3.2v-1.067
		c-1.067,0,0-1.067-1.067-2.133l0,0c0-1.067,0-1.067,0-2.133c0-1.067,0-1.067-1.067-2.133c0-1.067,0-2.133,0-2.133
		c1.067-1.067,2.133-3.2,2.133-4.267c0,0,0,0,1.067,0V169.6c1.067-1.067,1.067-2.133,1.067-3.2c1.067,0,1.067-1.067,2.133-2.133
		c0,0,1.067-1.067,1.067-2.133v-1.067c1.067,0,2.133,0,2.133-1.067c1.067,0,1.067-1.067,2.133-2.133l0,0
		c1.067-1.067,1.067-3.2,1.067-4.267c0-1.067,0-2.133,1.067-2.133l0,0c0-2.133,2.133-3.2,3.2-3.2l1.067-1.067
		c0-1.067,1.067-1.067,1.067-2.133s0-1.067,1.067-1.067c0,0,0,0,0,1.067l0,0c1.067,0,1.067,1.067,2.133,1.067c0,0,0,0,1.067,0
		c0,0,0,0,1.067,0s1.067,0,2.133,0l1.067-1.067l0,0c1.067,0,1.067,0,2.133-1.067l0,0c1.067,0,2.133,0,3.2-1.067
		c1.067,0,1.067,0,2.133,0h1.067c1.067,1.067,1.067,1.067,2.133,0h1.067c1.067,0,1.067,0,2.133,0c1.067,0,1.067,0,2.133-1.067
		c0,0,1.067,0,2.133,0c0,1.067,1.067,2.133,0,3.2h1.067c0,1.067,0,2.133-1.067,3.2c0,0,0,0,0,1.067
		c1.067,1.067,2.133,1.067,2.133,2.133H272h1.067l0,0c1.067,0,1.067,1.067,2.133,1.067h1.067v1.067
		c1.067,1.067,2.133,2.133,3.2,1.067c1.067,0,1.067,0,1.067,1.067c1.067,1.067,1.067,1.067,2.133,1.067c0,0,0,0,1.067,0
		c0-1.067,0-2.133,0-3.2c0-1.067,0-1.067,1.067-1.067h1.067h1.067L288,153.6l1.067,1.067c0,0,1.067,0,1.067,1.067s1.067,0,1.067,0
		c1.067,0,2.133,0,3.2,1.067h1.067h1.067c1.067,0,1.067,0,2.133,0l1.067-1.067h1.067c1.067,1.067,2.133,1.067,4.267,1.067
		c0,0,1.067-1.067,1.067-2.133s0-2.133,1.067-3.2c0-1.067,0-2.133,0-3.2h1.067l0,0c0,0,0,0-1.067,0c-8.533,3.2-8.533,2.133-8.533,0
		c-1.067,0-1.067,0-2.133-1.067l0,0c0,1.067-1.067,1.067-2.133,1.067s-1.067,0-1.067-1.067c-1.067-1.067-1.067-1.067-2.133-1.067
		c0,0,0,0,0,1.067s-1.067,1.067-2.133,0c0,0-1.067,0-1.067-1.067l-1.067-1.067h-1.067c0-1.067-1.067-2.133,0-4.267
		c0,0,0-1.067-1.067-2.133V137.6c0,0,0,0,1.067-1.067c0,0,1.067,0,1.067,1.067c0-1.067,1.067-1.067,1.067-1.067
		c1.067,0,1.067,0,1.067-1.067c0,0,0,0-1.067-1.067h1.067c1.067,1.067,1.067,1.067,2.133,0l1.067-1.067c1.067,0,1.067,0,2.133-1.067
		h1.067l0,0c1.067,0,2.133,1.067,3.2,1.067c2.133,1.067,3.2,0,5.333,0c1.067,0,1.067-1.067,2.133-1.067V131.2
		c0-1.067-1.067-1.067-1.067-2.133c0,0-1.067-1.067-2.133-1.067l0,0c0-1.067-1.067-1.067-1.067-1.067
		c-1.067,0-1.067-1.067-2.133-1.067c0,0,0,0-1.067,0c0-1.067,0-1.067,1.067-2.133l0,0c1.067-2.133,1.067-2.133,2.133-3.2
		c-1.067,0-2.133,0-3.2,0c0,0,0,0-1.067,0c0,0,0,0-1.067,0l0,0c-1.067,0-1.067,1.067-2.133,1.067v1.067
		c1.067,1.067,1.067,1.067,1.067,2.133c-1.067,0-1.067,1.067-2.133,1.067c0-1.067-1.067-1.067-1.067-2.133
		c-1.067-1.067-1.067-1.067,0-1.067l0,0h-2.133V121.6h-1.067c0,1.067-1.067,1.067-1.067,2.133c-1.067,0,0,1.067-1.067,2.133
		c0,0,0,0-1.067-1.067c0,1.067,0,2.133-1.067,3.2c0,0,0,1.067-1.067,1.067c-1.067,0-1.067,1.067,0,2.133
		c1.067,1.067,0,1.067,0,2.133c0,0,1.067,0,1.067,1.067c-1.067,0-2.133,1.067-3.2,1.067h-1.067c-1.067-1.067-2.133,0-2.133,0
		s0,1.067-1.067,1.067c-1.067,1.067-1.067-1.067-2.133-1.067c0,1.067,0,1.067,1.067,2.133c-1.067,1.067,0,1.067,0,2.133l1.067,1.067
		v1.067c0,0-1.067,0-1.067-1.067c0,1.067,0,1.067,0,1.067c0,1.067,0,1.067,0,2.133c-1.067,0-1.067,0-2.133-1.067
		c0,0,0-1.067-1.067-1.067c0,0,0-1.067,1.067-1.067c-1.067-1.067-1.067-1.067-1.067-2.133l0,0c-1.067,0-1.067-1.067-1.067-2.133
		c0,0,0,0,0-1.067V134.4l0,0c0-3.2-1.067-4.267-2.133-5.333c-1.067,0-1.067-1.067-2.133-2.133c-1.067,0-1.067,0-2.133-1.067V124.8
		v-1.067c-1.067-1.067-1.067-1.067-1.067,0l0,0l0,0c0-1.067,0-1.067-1.067-2.133c0,0-1.067,0-1.067,1.067c0,1.067,0,1.067,0,2.133
		c1.067,1.067,1.067,2.133,2.133,3.2c0,1.067,1.067,2.133,2.133,2.133c1.067,1.067,1.067,1.067,2.133,2.133c0,0,0,0,0,1.067
		c1.067,0,2.133,1.067,3.2,2.133h-1.067l0,0c0,1.067,0,1.067,0,2.133c1.067,1.067,1.067,1.067,0,1.067c0,0,0,1.067-1.067,1.067
		H268.8l0,0c0-1.067,1.067-1.067,0-2.133c0,0,0-1.067-1.067-2.133h-1.067V134.4c0,0-1.067,0-1.067-1.067l-1.067-1.067
		c0,0,0,0-1.067,0c-1.067-1.067-2.133-2.133-3.2-3.2C259.2,128,259.2,128,259.2,126.933c0-1.067,0-1.067-1.067-1.067l-1.067-1.067
		L256,125.867c0,1.067-1.067,0-1.067,1.067C253.867,128,253.867,128,252.8,128h-1.067c0,0-1.067,0-1.067-1.067c0,0,0,0-1.067,1.067
		c-1.067,0-1.067,1.067-1.067,2.133c0,0,0,0,0,1.067c0,1.067-1.067,2.133-2.133,2.133c-1.067,0-1.067,0-2.133,1.067l0,0
		c0,1.067-1.067,1.067-1.067,1.067v1.067c0,1.067,0,1.067,0,2.133v1.067h-1.067c0,1.067,0,1.067-1.067,2.133
		c-1.067,0-1.067,0-2.133,1.067L237.866,144c-1.067,0-1.067,0-2.133,0c-1.067,0-1.067,0-2.133,1.067h-1.067
		c0-1.067,0-2.133-1.067-2.133h-3.2v-1.067c0-1.067,0-2.133,0-2.133c-1.067-1.067-1.067-1.067,0-2.133c0,0,1.067-1.067,0-2.133
		V134.4v-1.067c0-1.067,0-1.067,0-2.133v-1.067c0-1.067,0-1.067,0-2.133c0,0,1.067,0,1.067-1.067c0,0,1.067,0,1.067,1.067
		c0,0,0,0,0-1.067l1.067,1.067c2.133,0,4.267,0,6.4,0l0,0c1.067-1.067,1.067-2.133,1.067-4.267c0,0,0,0,0-1.067
		c0-1.067,0-2.133,0-2.133l-1.067-1.067c0,0,0-1.067-1.067-1.067c-1.067,0-1.067-1.067-2.133-1.067s-1.067-1.067-1.067-2.133
		c0,0,1.067,0,1.067-1.067l0,0c1.067,1.067,2.133,0,2.133,0c0-1.067,0-1.067,0-2.133c1.067,0,1.067,0,2.133,1.067
		c0-1.067,1.067-1.067,2.133-2.133c0,0,0-1.067,0-2.133c1.067,0,2.133-1.067,3.2-1.067c1.067-1.067,1.067-2.133,1.067-2.133
		l1.067-1.067c1.067-1.067,1.067-1.067,2.133-1.067l0,0c0-1.067,1.067-1.067,2.133-1.067c0-1.067,0-2.133,0-3.2
		s-1.067-2.133-1.067-2.133c1.067-1.067,1.067-1.067,1.067-2.133l1.067-1.067c0,0,0,0,1.067,0c-1.067,1.067,0,3.2-1.067,4.267l0,0
		c1.067,0,1.067,0,1.067,1.067h-1.067l0,0l0,0v1.067c1.067,0,1.067,0,1.067,1.067c1.067,1.067,2.133,0,2.133-1.067
		c1.067,0,1.067,0,1.067,0s0,0,1.067,0v1.067h1.067l1.067-1.067c1.067,0,1.067-1.067,2.133-1.067c1.067,0,1.067-1.067,1.067,0l0,0
		c0,1.067,1.067,0,1.067,0s0,0,0-1.067c1.067-1.067,1.067-1.067,2.133,0c0-1.067,0-2.133,0-3.2v-1.067c1.067-1.067,0-1.067,0-2.133
		c1.067,0,2.133,0,2.133,1.067c0,1.067,1.067,1.067,1.067,0v6.4h-1.067v-2.133h1.067c1.067,0,1.067,0,2.133,0
		c1.067,0,1.067,0,2.133,0h1.067C283.733,96,284.8,96,285.867,96H284.8h-1.067v-1.067l0,0h-1.067c-1.067,0-1.067,0-2.133,0
		c0,0-1.067,0-1.067,1.067l0,0c-1.067,0-2.133,0-3.2,0H275.2c0,0-1.067-1.067-1.067-2.133V92.8c0-1.067,0-1.067,0-2.133V89.6
		l1.067-1.067l1.067-1.067c0,0,0-1.067,1.067-1.067c0,0,1.067,0,1.067-1.067c-1.067-2.133-3.2-2.133-5.333-1.067
		c0,1.067-1.067,1.067-1.067,2.133c0,0,0,1.067-1.067,1.067c-1.067,0-2.133,1.067-2.133,2.133c0,0-1.067,0-1.067,1.067
		c0,1.067,0,2.133,0,2.133c0,1.067,0,1.067,1.067,1.067c1.067,0,1.067,1.067,2.133,1.067c0,1.067-1.067,1.067-1.067,2.133
		s-1.067,1.067-2.133,1.067v4.267c0,1.067-1.067,2.133-1.067,2.133c-1.067,0-1.067,0-1.067,1.067c0,1.067-1.067,0-1.067,0v-1.067
		c0-1.067,0-1.067,0-2.133c-1.067-1.067-1.067-2.133-1.067-3.2s-1.067-1.067-1.067-2.133c0,1.067,0,1.067,0,1.067
		c-1.067,0-1.067,0-2.133,1.067c0,1.067-2.133,1.067-3.2,0c0,0-1.067,0-1.067-1.067v-1.067c0,0,0,0,0-1.067v-1.067l0,0
		c0-1.067,0-1.067-1.067-2.133l0,0c0-1.067,0-1.067,0-2.133c1.067,0,1.067,0,2.133-1.067c0,0,0,0,1.067,0c0,0,0,0,1.067,0
		c1.067-1.067,2.133-1.067,3.2-1.067c0-2.133,1.067-3.2,3.2-3.2c0-1.067,1.067-2.133,1.067-3.2C267.733,81.067,267.733,80,268.8,80
		v-1.067c1.067,0,1.067-1.067,2.133-1.067l0,0c0,0,0-1.067,1.067-1.067l1.067-1.067c0,0,0-1.067,0-2.133
		c0,1.067,1.067,1.067,1.067,1.067h1.067c-2.133,0-2.133,0-1.067,0c0,0,0,0,1.067,0c0-1.067,1.067-1.067,1.067-2.133
		c1.067,1.067,1.067,1.067,1.067,2.133c0,0,1.067-1.067,1.067,0c1.067,0,1.067-1.067,2.133-1.067v1.067
		c1.067-1.067,1.067-1.067,2.133,0c0,1.067,0,1.067,0,2.133c1.067,0,1.067,0,2.133,0c1.067,0,1.067,1.067,2.133,1.067H288l0,0
		c1.067,0,2.133,0,3.2,1.067c1.067,0,1.067,1.067,2.133,1.067l0,0c1.067,0,2.133,1.067,3.2,2.133
		c-1.067,1.067-1.067,2.133-2.133,2.133c-1.067,0-1.067,0-2.133,0s-1.067,0-2.133,0l0,0c-1.067,0-2.133-1.067-3.2-1.067
		c0,0,0,0-1.067,0c0,1.067,1.067,1.067,2.133,2.133c1.067,0,1.067,0,1.067,1.067l0,0c0,1.067,1.067,1.067,1.067,2.133
		c0,1.067,1.067,0,1.067,1.067s1.067,1.067,2.133,1.067V89.6c-1.067,0-2.133,0-2.133-2.133c1.067,1.067,3.2,1.067,4.267,1.067
		l-1.067-1.067c0-1.067,1.067-1.067,1.067-1.067s0,0,1.067-1.067c1.067-1.067,1.067-1.067,2.133,0h1.067c0-1.067,0-1.067,0-1.067
		h-1.067v-5.333h2.133c0,1.067,0,1.067-1.067,1.067c0,1.067,0,1.067,1.067,1.067c1.067,0,1.067,0,2.133,0V80L304,78.933
		c0,0,1.067,0,1.067-1.067c0,0,1.067-1.067,1.067,0c1.067,0,2.133,0,2.133-1.067c0,0,0,1.067,0,2.133c1.067,0,1.067-1.067,2.133,0
		c0,0,1.067,0,1.067-1.067s1.067-1.067,1.067,0h1.067c1.067-1.067,1.067-1.067,2.133,0c1.067,1.067,2.133,0,2.133-1.067H316.8
		c0,0,0-1.067,1.067-1.067h1.067H320c1.067,0,1.067,0,2.133,0c1.067,0,2.133,0,2.133,1.067c1.067,0,2.133,1.067,3.2,2.133v-1.067
		c0,0,0,0,0-1.067H326.4v-1.067c-1.067,0-1.067,0-2.133,0c0-1.067,0-2.133-1.067-3.2c1.067-1.067,1.067-2.133,1.067-3.2
		c2.133-1.067,3.2,0,5.333,1.067c0,1.067,0,1.067-1.067,2.133c1.067,0,1.067,1.067,2.133,2.133c0,1.067,1.067,1.067,1.067,2.133
		c1.067,0,1.067,1.067,2.133,1.067c0,1.067,0,2.133,0,2.133c-1.067,0,0,2.133-1.067,2.133c1.067,0,2.133,1.067,3.2,0
		c0,0,1.067,0,1.067-1.067s0-1.067,0-2.133c0,0,0,0-1.067,0v-1.067c1.067,0,1.067-1.067,2.133-1.067
		c-1.067-1.067-2.133-1.067-2.133,0c-1.067,0-1.067,0-1.067,0l0,0c-1.067-1.067-1.067-1.067,0-2.133
		c-1.067-1.067-1.067-1.067-2.133-2.133v-1.067c1.067,0,1.067,0,2.133-1.067c0,0,0,0,0,1.067S336,72.533,336,72.533
		c1.067,0,1.067,0,2.133,0v-1.067c0-1.067,1.067-1.067,1.067-1.067c1.067,0,1.067,0,2.133,0v-1.067c0,0-1.067-1.067-1.067-2.133
		h1.067c1.067,0,2.133,0,2.133,0c1.067,0,2.133,0,3.2-1.067v-1.067L347.733,64c1.067,0,2.133-1.067,4.267-1.067l0,0c0,0,0,0,1.067,0
		h1.067c0,0,0,0,1.067,0C353.067,64,354.133,64,355.2,64l0,0c0,0,0,1.067,1.067,0c0,0,0,0,1.067-1.067c0,0,0,0,0-1.067
		c0,0,0,0,0-1.067c1.067,0,1.067,0,2.133-1.067l0,0c0,1.067,1.067,0,2.133,1.067h1.067h1.067v1.067c1.067,0,1.067,0,1.067,0
		s0,0,1.067,0H368h1.067c0,0,0,0,1.067,0h1.067v1.067h1.067c0,1.067,0,1.067-1.067,2.133c0,0,0,0-1.067,0v1.067
		c-1.067,0-2.133,1.067-3.2,2.133H368c0-1.067,1.067-1.067,1.067,0c1.067,0,2.133-1.067,3.2-1.067l0,0
		c1.067,1.067,1.067,1.067,2.133,0h1.067c1.067,0,3.2,0,4.267,0c1.067,0,1.067,0,1.067,1.067c0,0,0,0,1.067,0s3.2,0,4.267,0
		c0-1.067,0-1.067,0-2.133h1.067c1.067,0,1.067,0,2.133,0l0,0c1.067-1.067,1.067,0,2.133,0c1.067,0,1.067,1.067,2.133,1.067v1.067
		l0,0c1.067,0,1.067,1.067,2.133,1.067c0,0,0,0,1.067,0s2.133,1.067,2.133,1.067s1.067,0,1.067-1.067v-1.067h1.067
		c1.067,0,1.067,0,2.133,0c1.067-1.067,1.067,0,2.133,0h1.067c0,0,1.067,0,1.067-1.067c0,0,0-1.067-1.067-2.133h4.267l0,0
		c1.067,1.067,1.067,0,2.133,0c0,1.067,0,1.067,0,2.133h1.067c0-1.067,1.067-1.067,2.133-1.067h1.067V67.2
		c1.067,0,2.133,1.067,4.267,1.067c1.067,0,1.067,1.067,2.133,1.067h1.067c0-1.067,1.067,0,1.067,0c1.067,0,2.133,0,3.2,0
		s1.067,0,1.067,0l0,0c1.067,0,2.133,0,2.133,1.067v1.067l0,0c2.133,0,4.267,0,6.4,0h1.067h1.067c0,0,0,0,1.067-1.067
		c1.067,1.067,3.2,2.133,4.267,2.133c0-1.067,0-1.067-1.067-1.067l-1.067-1.067h1.067c2.133,0,3.2,0,5.333,0c0,0,0,0,1.067,0
		c0,1.067,1.067,1.067,2.133,1.067h1.067l0,0c1.067,0,2.133,0,2.133,0c1.067,0,1.067,0,2.133,1.067h1.067h1.067c0,0,0,0,1.067,0
		h1.067c0,0,0,0,1.067,0c0,0,1.067,0,1.067,1.067l0,0c1.067,0,2.133,1.067,3.2,1.067l1.067,1.067c0,0,0,0,1.067,0
		c1.067-1.067,2.133-1.067,3.2,0l0,0c1.067,0,2.133,0,2.133,1.067v1.067c-1.067,0-1.067,0-1.067,0
		C478.933,85.333,480,85.333,480,86.4h-1.067c0-1.067-1.067-1.067-2.133,0c-1.067,0-1.067-1.067-2.133-1.067
		c-1.067-1.067-2.133-1.067-4.267-1.067c-1.067,0-2.133,0-2.133-1.067H467.2c1.067,0,1.067,1.067,2.133,1.067v1.067
		c-1.067,0-1.067,0-2.133,0c2.133,1.067,2.133,2.133,3.2,2.133c0,0,0,0,1.067,0c1.067,1.067,2.133,1.067,3.2,1.067
		c0,1.067,0,1.067,0,1.067l0,0c-1.067,0-2.133,1.067-2.133,1.067s-1.067,0-1.067,1.067c0,1.067-1.067,1.067-1.067,2.133
		c0,0,0,1.067-1.067,1.067h-1.067c0-1.067-1.067-1.067-1.067-1.067h-1.067c0,1.067-1.067,0-1.067,1.067c0,1.067-1.067,0-1.067-1.067
		l-1.067,1.067c-1.067-1.067-1.067-1.067-2.133,0c1.067,1.067,1.067,1.067,1.067,2.133l0,0c0,0,0,1.067,1.067,1.067l0,0
		c2.133,0,2.133,2.133,3.2,3.2c0,0,0,0,0,1.067c0,1.067,0,1.067,1.067,2.133l1.067,1.067v1.067H467.2c0,1.067,0,1.067,0,2.133v1.067
		c0,1.067,0,1.067,1.067,1.067c0,1.067,0,2.133-1.067,3.2c0,0-1.067-1.067-1.067-2.133c0-1.067-1.067-1.067-2.133-1.067
		c-1.067,0-1.067-1.067-2.133-2.133l-1.067-1.067c-1.067,0-1.067-1.067-1.067-1.067l-1.067-1.067l0,0
		c-1.067,0-1.067-1.067-1.067-2.133c0,0,0-2.133,0-3.2c0,0,1.067-1.067,1.067-2.133s0-1.067,0-2.133c0,0,0-1.067,0-2.133h1.067
		c0-1.067-1.067-1.067-1.067-2.133l0,0c-1.067,0-1.067-1.067-1.067-1.067h-2.133c1.067,1.067,1.067,1.067,1.067,2.133
		s-1.067,1.067-1.067,2.133c-1.067,0-2.133-1.067-2.133-2.133c0,0,0,0-1.067,1.067c-1.067,0-1.067-1.067-2.133,0h-1.067v1.067V96
		c0,1.067,0,1.067,0,2.133V99.2c-1.067,1.067-2.133,0-2.133,0c-1.067,0-1.067,0-2.133,0c0,0-1.067,0-2.133,0c0,0,0,0-1.067,1.067
		h-7.467c0,2.133-1.067,3.2-1.067,5.333c0,0,0,1.067,0,2.133C432,108.8,432,108.8,432,109.867c1.067,1.067,2.133,1.067,3.2,1.067
		V112c1.067,0,2.133,1.067,3.2,1.067c0-1.067,0-1.067,0-1.067c1.067,0,1.067,0,2.133,1.067c1.067,1.067,1.067,1.067,2.133,1.067
		c0,1.067,1.067,1.067,1.067,2.133c0,0,0,1.067,1.067,1.067c0,2.133,1.067,2.133,1.067,4.267c0,1.067,1.067,2.133,2.133,3.2v1.067
		c-1.067,1.067,0,2.133,0,2.133c0,1.067,0,1.067,0,2.133v1.067l0,0c0,1.067-1.067,2.133-1.067,3.2s-1.067,2.133-2.133,2.133
		c-1.067,0-2.133-1.067-3.2-1.067v1.067h-1.067c0,1.067,0,1.067,0,2.133l1.067,1.067c0,1.067,0,1.067-1.067,1.067
		c0,1.067-1.067,1.067-1.067,2.133V144c1.067,1.067,1.067,1.067,1.067,1.067c0,1.067,1.067,1.067,1.067,2.133
		c0,0,1.067,0,1.067,1.067c0,0,1.067,1.067,1.067,2.133v1.067c1.067,1.067,1.067,2.133,1.067,3.2l0,0c-1.067,0-2.133,0-3.2,1.067
		c0,0-1.067,0-1.067-1.067V153.6v-1.067c0-1.067,0-1.067,0-2.133c-1.067-1.067-2.133-2.133-4.267-2.133c0-1.067,0-1.067,0-2.133
		c0-1.067,0-1.067,0-1.067C435.2,144,434.133,144,433.067,144S432,145.067,432,146.133c0,0,0,0-1.067,0s-1.067-1.067,0-1.067
		c0-1.067,0-1.067,0-2.133h-1.067c0,0-1.067-1.067-1.067,0L427.733,144c0,1.067-1.067,1.067-1.067,2.133v1.067H425.6v1.067
		c1.067,0,2.133,1.067,3.2,1.067c0,1.067,0,1.067,0,2.133c1.067,0,1.067,0,2.133-1.067c0-1.067,1.067-1.067,1.067,0
		c1.067,1.067,1.067,0,2.133,1.067v1.067c-1.067,0-1.067,1.067-1.067,1.067l0,0c0,1.067-1.067,1.067-1.067,1.067
		c0,1.067,0,2.133-1.067,3.2c0,1.067,1.067,1.067,1.067,1.067c1.067,0,1.067,0,1.067,1.067s0,1.067,1.067,1.067l1.067,1.067
		c0,0,0,1.067,1.067,1.067c0,0,1.067,0,1.067,1.067c0,0,0,1.067,1.067,1.067c0,0,0,0,0,1.067s0,1.067,0,2.133
		c0,0,0,1.067-1.067,1.067c1.067,0,1.067,0,1.067,0s1.067,0,1.067,1.067v1.067c0,1.067,0,2.133,0,2.133S438.4,174.933,438.4,176
		c0,0,0,1.067-1.067,1.067c0,0,1.067,1.067,0,1.067v1.067c-1.067,1.067-1.067,1.067-1.067,2.133H435.2
		c0,1.067-1.067,1.067-1.067,2.133s-1.067,1.067-1.067,2.133c0,0,0,1.067-1.067,0h-5.334v1.067H425.6V185.6l0,0v1.067l0,0
		c-1.067,0-1.067,1.067-2.133,1.067c-1.067,0-1.067,0-2.133,1.067v1.067v1.067c0,0,0,0-1.067,0c0-1.067-1.067-2.133-1.067-2.133
		s-1.067-1.067-2.133-1.067L416,188.8c-1.067,0-1.067,1.067-2.133,2.133V192c0,0-1.067,1.067-1.067,2.133
		c0,1.067,0,1.067,1.067,2.133c0,0,1.067,1.067,1.067,2.133l0,0c1.067,1.067,1.067,2.133,3.2,3.2l0,0
		c0,1.067,1.067,1.067,1.067,2.133c0,0,0,1.067,1.067,1.067c0,1.067,1.067,2.133,1.067,3.2c1.067,1.067,0,1.067,0,2.133
		c0,2.133,0,3.2-2.133,4.267l0,0c0,1.067-1.067,1.067-2.133,1.067v1.067c0,1.067,0,1.067-1.067,1.067s-1.067,1.067-1.067,1.067
		h-1.067c0-1.067,0-1.067,0-2.133v-1.067c-1.067,0-1.067-1.067-1.067-1.067s-1.067,0-1.067-2.133c0,0-1.067,0-1.067,1.067
		c0-1.067,0-1.067-1.067-2.133c0-1.067-1.067-1.067-1.067-1.067v-1.067c-1.067,1.067-1.067,1.067-2.133,0c0,0,0,0,0-1.067
		c-1.067-1.067-1.067-1.067-2.133,0l0,0c0,1.067,0,1.067,0,2.133c0,1.067,0,1.067-1.067,2.133v1.067c0,1.067,0,3.2,0,4.267h1.067
		c0,1.067,0,1.067,1.067,1.067c1.067,1.067,1.067,1.067,0,2.133c1.067,1.067,1.067,2.133,2.133,2.133c0,0,1.067,0,1.067,1.067
		c1.067,1.067,1.067,2.133,2.133,2.133c1.067,1.067,1.067,2.133,1.067,3.2c0,1.067,0,1.067,0,2.133c0,1.067,0,2.133,1.067,3.2
		c0,0,0,1.067,0,2.133h-1.067c-1.067-1.067-1.067-1.067-2.133-2.133l0,0c0-1.067,0-1.067-1.067-1.067c0-1.067,0-2.133-1.067-2.133
		c0,0-1.067-1.067,0-2.133v-1.067c-1.067-1.067-1.067-1.067,0-1.067c-1.067-1.067-1.067-3.2-2.133-4.267
		c0-1.067-1.067-2.133-2.133-2.133v-5.333c0,0,0,0,0-1.067c0-1.067,0-1.067,0-2.133c0,0,0-1.067,0-2.133
		c0-2.133-1.067-3.2-1.067-4.267c0,0,0,0,0-1.067c0-1.067,0-1.067,0-1.067C401.067,196.267,401.067,195.2,400,195.2
		C400,194.133,400,195.2,400,195.2z"/>
	<path style="fill:#55C0EB;" d="M451.2,291.2c0,1.067,0,1.067,0,2.133c1.067,1.067,0,2.133-1.067,3.2l-1.067,1.067
		c0,1.067,0,1.067-1.067,2.133l0,0c0,1.067,0,2.133-1.067,2.133c0,0-1.067,1.067-1.067,2.133s-1.067,1.067-2.133,2.133l-1.067,1.067
		l0,0c-1.067,0-1.067,1.067-2.133,2.133c-1.067,0-1.067,1.067-2.133,2.133c-1.067,1.067-1.067,2.133-2.133,4.267
		c-1.067,0-2.133,1.067-3.2,1.067s-1.067,0-2.133,1.067c-1.067,0-1.067,1.067-2.133,1.067h-1.067c0-1.067,0-1.067-1.067-2.133
		c-1.067,0-1.067,1.067-2.133,1.067c-1.067,0-1.067,0-2.133,0l0,0c-1.067,0-2.133-1.067-2.133-1.067v-2.133c0,0,0,0,0-1.067
		c1.067-1.067,0-1.067,0-2.133c0,0,0,0,1.067-1.067h-1.067c0-1.067,0-1.067,1.067-2.133h-1.067c0,0,0-1.067,1.067-1.067l0,0
		c0-1.067,1.067-1.067,0-2.133c-1.067,2.133-3.2,3.2-5.333,5.333v-1.067v-1.067c0,0,0-1.067-1.067-1.067v-1.067l-1.067-1.067
		c-1.067,0-2.133,0-2.133-1.067h-1.067H409.6c-1.067,0-2.133,0-2.133,1.067c-1.067,1.067-1.067,0-2.133,1.067l0,0
		c-1.067,0-2.133,0-3.2,1.067c-1.067,0-1.067,1.067-2.133,1.067c0,0-1.067,0-1.067,1.067s-1.067,1.067-2.133,1.067
		c-1.067,0-2.133,0-3.2,0s-2.133,1.067-3.2,1.067c-1.067,1.067-2.133,1.067-2.133,2.133c-1.067,0-1.067,0-2.133,0
		c-1.067,0-1.067-1.067-2.133-2.133c0,0,0-1.067,1.067-2.133c0,0,0,0,1.067,0c0-1.067,0-3.2,1.067-4.267V304
		c-1.067-2.133,0-2.133,0-4.267v-1.067V297.6c0-1.067,0-1.067,0-2.133V294.4c0,0,0,0,0-1.067l0,0c1.067,0,1.067-1.067,1.067-2.133
		s-1.067-2.133-1.067-2.133c0-1.067,0-2.133,0-2.133v-1.067v-2.133c0,0,1.067,0,1.067,1.067l0,0
		c1.067-1.067,1.067-2.133,2.133-2.133l1.067-1.067c0-1.067,1.067-1.067,1.067-1.067c1.067,0,2.133,0,3.2-1.067l0,0
		c1.067,0,2.133-1.067,3.2-1.067l1.067-1.067c0-1.067,1.067-1.067,1.067-2.133c1.067-1.067,1.067-1.067,1.067-3.2
		c0-1.067,0-1.067,1.067-1.067h1.067c0,0,0,0,1.067,1.067c0,0,1.067,0,1.067-1.067l-1.067-1.067h1.067c0-1.067,0-2.133,1.067-3.2
		V265.6c1.067,0,2.133-1.067,3.2-1.067s1.067,0,1.067,1.067v1.067h1.067h1.067c0-1.067,0-1.067,0-2.133h1.067
		c0-1.067,0-1.067,1.067-2.133c0-1.067,1.067-1.067,2.133-1.067c0,0,0,0,1.067,0s1.067,0,2.133-2.133c1.067,0,2.133,1.067,3.2,1.067
		c0,0,1.067,1.067,1.067,0l0,0c1.067,0,1.067,0,2.133,1.067c0,1.067,0,1.067-1.067,2.133c-1.067,0-1.067,1.067-1.067,1.067
		c0,1.067,0,2.133-1.067,3.2c1.067,1.067,1.067,2.133,2.133,2.133c0,0,0,1.067,1.067,1.067c1.067,1.067,1.067,2.133,2.133,1.067
		c0,2.133,1.067,2.133,2.133,2.133c1.067,0,1.067,0,1.067-1.067V272v-1.067c0-1.067,0-2.133,0-2.133c1.067-1.067,0-2.133,0-3.2
		s0-1.067,0-2.133V262.4c0-1.067,0-1.067,1.067-2.133c1.067,0,0-1.067,0-2.133c0,0,0,0,1.067,0c0,1.067,1.067,2.133,1.067,3.2
		c0,0,0,0,0,1.067c0,0,1.067,1.067,0,1.067v1.067c0,0,0,1.067,1.067,1.067h1.067c1.067,1.067,1.067,1.067,1.067,2.133
		s0,1.067,0,2.133c0,0,0,0,0,1.067s1.067,1.067,0,2.133c0,1.067,0,2.133,0,3.2l1.067,1.067l0,0c0,1.067,1.067,1.067,2.133,2.133
		c0,1.067,0,1.067,0,1.067c0,1.067,1.067,1.067,1.067,2.133c0,1.067,0,1.067,0,2.133h1.067c0,2.133,0,2.133,1.067,3.2
		c0,0,0,2.133,1.067,2.133c0,1.067,0,1.067,0,2.133C451.2,290.133,451.2,291.2,451.2,291.2z"/>
	<path style="fill:#55C0EB;" d="M185.6,247.467c0,1.067,1.067,2.133,1.067,4.267v1.067c0,1.067,0,1.067,0,2.133
		c0,1.067-1.067,1.067-1.067,1.067s0,1.067-1.067,1.067l0,0c-1.067,0-1.067,2.133-2.133,3.2c0,1.067-1.067,2.133-1.067,3.2h-1.067
		c0,2.133,0,4.267,0,5.333c0,0,0,0,0,1.067v1.067c-1.067,1.067,0,2.133,0,2.133c0,1.067-1.067,2.133-1.067,3.2l0,0
		c1.067,1.067,1.067,1.067,0,2.133l-1.067,1.067c0,1.067,0,1.067-1.067,2.133c0,1.067,0,1.067,0,2.133
		c-1.067,0-1.067,1.067-2.133,1.067l-1.067,1.067c-1.067,1.067-2.133,0-2.133,1.067c0,0-1.067,0-1.067,1.067
		c0,1.067-1.067,1.067-1.067,1.067c-1.067,0-1.067,0-2.133,1.067L166.4,291.2c-1.067,0-1.067,1.067-1.067,2.133
		c0,1.067,0,2.133,0,2.133v1.067v1.067c-1.067,1.067,0,2.133,0,2.133s0,0-1.067,0c0,1.067,0,2.133-1.067,3.2h-1.067
		c0,1.067,0,1.067-1.067,1.067c0,1.067,0,2.133-1.067,3.2c0,1.067,0,2.133-1.067,4.267c0,1.067,0,1.067-1.067,2.133l0,0
		c-1.067,0-2.133,0-3.2,0c-1.067,0-2.133-1.067-3.2-1.067l0,0c0,1.067,0,1.067,1.067,2.133c0,1.067,1.067,0,2.133,1.067v1.067
		c-1.067,0,0,1.067,0,1.067c0,1.067,0,1.067,1.067,1.067c0,0,1.067,0,1.067,1.067c0,1.067-1.067,2.133-1.067,3.2
		c-1.067,0-1.067,1.067-2.133,1.067c-1.067,1.067-3.2,0-4.267,1.067l0,0c0,0,0,1.067,1.067,1.067v1.067c0,1.067,0,1.067,0,1.067
		v1.067c-1.067,0-2.133,0-4.267-1.067c0,1.067,0,2.133,1.067,3.2l1.067,1.067c0,0,0,0-1.067,0c0,1.067,1.067,1.067,0,2.133V336
		c0,1.067,1.067,1.067,0,2.133c0,1.067-1.067,1.067-1.067,1.067s0,1.067-1.067,1.067v1.067l1.067,1.067
		c0,1.067,1.067,1.067,1.067,1.067s1.067,0,1.067,1.067v2.133c-1.067,1.067-1.067,1.067-1.067,2.133c0,1.067,0,1.067-1.067,2.133
		c-1.067,1.067,0,2.133,1.067,3.2v1.067c-1.067,0-1.067,1.067-2.133,1.067H144c-1.067-1.067-2.133,0-3.2-1.067v-1.067
		c-1.067,0-2.133-2.133-2.133-2.133c-1.067-1.067-1.067-2.133-1.067-3.2c-1.067,0,0,1.067-1.067,1.067c0,0,0,0-1.067,0
		c0,0,0,0-1.067,1.067c0-1.067,0-1.067,0-2.133h-1.067v-1.067h1.067c-1.067-1.067-1.067-1.067-1.067-2.133
		c-1.067,0-1.067-1.067-2.133-1.067V342.4l1.067,1.067c0-1.067,0-2.133,0-3.2c0,0,0,0,0-1.067l0,0c-1.067-1.067,0-2.133,0-3.2
		c-1.067-1.067,0-2.133,0-3.2c-1.067,0-1.067,0-1.067,1.067c1.067,1.067,0,2.133,0,3.2L130.133,336c0,0,0-1.067,0-2.133
		c0,0,0-1.067,0-2.133c0,0,0,0,0-1.067V329.6c0-1.067,0-1.067,0-2.133c0,0,0,0,0-1.067c-1.067-1.067,0-3.2-1.067-4.267
		c0,0-1.067-1.067,0-1.067V320c0-1.067,0-2.133,0-3.2v-1.067v-4.267c0-1.067,0-2.133,0-2.133c-1.067-1.067,0-2.133-1.067-3.2v-1.067
		c0-1.067,0-1.067,0-2.133v-1.067c0-2.133,0-3.2,0-5.333v-1.067c-1.067-1.067-1.067-1.067,0-2.133c0-1.067,0-1.067,0-2.133
		s0-2.133,0-3.2v-1.067c1.067-1.067,0-1.067,0-2.133c0-1.067,0-2.133,0-2.133V281.6c0-1.067,0-2.133,0-3.2s0-2.133,0-2.133
		c-1.067-1.067-2.133-2.133-2.133-2.133c-1.067-1.067-1.067-1.067-2.133-2.133c-1.067,0-1.067-1.067-2.133-1.067
		c-2.133-1.067-3.2-3.2-4.267-4.267c0,0,0,0,0-1.067s0-3.2-1.067-3.2l0,0c0-1.067-1.067-2.133-1.067-3.2c0,0,0,0,0-1.067
		c0,0-1.067-1.067-1.067-2.133c0-1.067-1.067-2.133-1.067-3.2c-1.067-1.067-2.133-2.133-2.133-4.267c0,0,0-1.067-1.067-1.067
		c0,0-1.067,0-1.067-1.067s-1.067-3.2-1.067-4.267c0,0,0,0,0-1.067L108.8,240c0-1.067,1.067-1.067,1.067-2.133
		c-1.067,0-1.067,0-2.133,0c0-2.133,0-3.2,0-5.333c0-1.067,1.067-1.067,1.067-2.133c0,0,0-1.067,1.067-1.067
		c1.067-1.067,1.067-1.067,1.067-2.133v-1.067c0,0,0,0,1.067,0c0,0,0,0,1.067,0c0-1.067,0-2.133,1.067-2.133
		c1.067-1.067,0-1.067,0-1.067c0-1.067,0-1.067,0-2.133c0-1.067,0-2.133,0-2.133c0-1.067,0-2.133-1.067-3.2
		c-1.067-1.067-1.067-2.133,0-3.2L112,211.2c-1.067-1.067-1.067-1.067-2.133,0c0,1.067-1.067,1.067-1.067,1.067
		c0,1.067,1.067,1.067,0,2.133l-1.067,1.067c0-1.067,0-2.133-1.067-1.067v-1.067h-2.133c-1.067-2.133-2.133-3.2-3.2-4.267
		c0,0-1.067,0-1.067,1.067c0-1.067,0-1.067,0-2.133v-1.067c-1.067-1.067-2.133-2.133-2.133-3.2l0,0v-1.067c0,0,0,0-1.067,0
		c0,1.067-1.067,1.067-1.067,0c-1.067,0-2.133-2.133-4.267-1.067c-1.067-1.067-2.133-2.133-3.2-4.267
		c0-1.067-1.067-1.067-2.133-2.133l0,0c0,1.067-1.067,1.067-2.133,1.067s-1.067,1.067-2.133,0l0,0c-1.067,0-2.133-1.067-3.2-1.067
		c-1.067,0-2.133-1.067-3.2-2.133V192l0,0c-1.067,0-1.067,0-2.133-1.067l0,0c0-1.067,0-1.067-1.067-1.067s-1.067-1.067-2.133-2.133
		v-1.067c0,0,0-1.067,1.067-1.067c0,0,0,0,0-1.067s1.067-1.067,0-2.133c0,0,0-1.067,0-2.133c0-1.067,0-1.067,0-1.067
		s-1.067-1.067-1.067-2.133c0-1.067-1.067-1.067-1.067-2.133c0,0,0,0,0-1.067l-1.067-1.067c-1.067,0-1.067-1.067,0-2.133
		c0-1.067,0-1.067,0-1.067s0-1.067-1.067-1.067c0,0,0,0-1.067-1.067c0,0,0,0,0-1.067c-1.067-1.067-1.067-3.2-1.067-5.333
		c0-1.067,0-1.067,0-2.133c0-1.067,0-1.067-1.067-2.133h-1.067c0,1.067,0,1.067-1.067,2.133c0,1.067,0,2.133,1.067,3.2
		c0,0,1.067,1.067,1.067,2.133c0,2.133,1.067,3.2,1.067,4.267c0,0,0,0,0,1.067c0,2.133,1.067,3.2,1.067,5.333
		c1.067,0,1.067,1.067,1.067,2.133c0,0,0,0,0,1.067h-1.067c0-1.067-1.067-2.133-2.133-3.2c0-1.067-1.067-1.067-1.067-2.133
		c0-1.067,0-1.067,0-2.133c1.067,1.067,1.067,1.067,0,0c0,0-1.067-1.067-1.067-2.133c0,0,0,0,1.067,0S64,167.467,64,166.4
		s-1.067-2.133-2.133-3.2c0,0,1.067,0,0-1.067v-1.067v-5.333c0-1.067-1.067-2.133-1.067-2.133s0,0-1.067,0
		c-1.067-1.067-1.067-1.067-2.133-1.067v-1.067c0-1.067,0-1.067,0-2.133v-1.067c0-1.067,0-1.067,0-2.133v-1.067
		c0,0,1.067-1.067,0-1.067c0,0,0,0-1.067,0c0-1.067,0-1.067-1.067-2.133c0,0,0-1.067,1.067-2.133l0,0c-1.067-1.067,0-1.067,0-2.133
		c1.067-1.067,1.067-2.133,1.067-3.2c0-1.067,0-2.133,1.067-2.133c1.067-1.067,1.067-2.133,2.133-3.2c2.133,1.067,2.133,0,3.2-1.067
		c0-1.067,1.067-1.067,1.067-1.067c0-1.067,0-3.2,1.067-4.267H67.2c1.067,1.067,1.067,1.067,2.133,0
		c1.067-1.067,1.067-1.067,1.067-3.2l-1.067-1.067c0,0-1.067,0-1.067-1.067c0,0,0,0,0,1.067v1.067c1.067,1.067,1.067,1.067,0,2.133
		c-1.067,0-1.067,0-1.067,0c-1.067,0-1.067-1.067-1.067-1.067h-1.067c0,0,0,0,0-1.067C64,118.4,64,117.333,64,116.267
		c1.067,0,1.067,0,1.067,0h1.067l0,0h-1.067c0-1.067,1.067-2.133,1.067-3.2c0,0-1.067-1.067-1.067-2.133c0-1.067,0-1.067,0-2.133
		l1.067-1.067c0,0-1.067,0,0-1.067V105.6v-1.067c0-1.067,1.067-2.133,1.067-3.2v-1.067V99.2c-1.067-1.067,0-1.067,0-2.133
		c-1.067-1.067-1.067,0-1.067,1.067c0-1.067,0-1.067-1.067-1.067v1.067H64v-1.067c0,0,0,0-1.067,0V96l0,0c-1.067,0-1.067,0-2.133,0
		c-1.067,0-1.067,0-2.133,0c0-1.067-2.133-1.067-2.133-2.133h-1.067c-2.133,0-2.133,0-2.133,2.133h-1.067
		c-2.133,0-3.2,0-4.267,1.067c-1.067,0-1.067,0-1.067-1.067c1.067,0,2.133,0,3.2-2.133h-1.067C48,94.933,46.933,96,45.867,96H44.8
		c-1.067,0-1.067,1.067-2.133,1.067c0,1.067,0,2.133,0,2.133c-1.067,0-1.067,0-2.133,1.067c0,0-1.067,0-1.067,1.067H38.4
		c0,0-1.067,0-2.133,1.067c-1.067,0-1.067,1.067-2.133,1.067c0,0-1.067,0-2.133,0V102.4c1.067,0,2.133,0,3.2-1.067
		c1.067-1.067,2.133-1.067,2.133-2.133c-1.067,0-1.067-1.067-2.133,0h-1.067c-1.067,0-1.067,0-1.067,0C32,99.2,32,99.2,32,98.133
		l1.067-1.067l0,0C33.067,96,33.067,96,32,96v-2.133h1.067V92.8c1.067-1.067,2.133-1.067,3.2-2.133l1.067-1.067H38.4
		c0,0,0,0,1.067,0s1.067,0,2.133,0c0,0,0,0,1.067,0c2.133,0,3.2-1.067,4.267-2.133c-1.067,0-2.133,0-2.133,0s0,0-1.067,0
		C42.667,85.333,41.6,86.4,41.6,86.4h-1.067c0-1.067,0-1.067,1.067-2.133c0,0,0,0,0-1.067l0,0c1.067,0,1.067,0,2.133-1.067l0,0
		c0,0,0,0,1.067,0c1.067-1.067,2.133-1.067,3.2,0l1.067,1.067c0,0,1.067,0,1.067-1.067c1.067,0,1.067-1.067,2.133-1.067
		C51.2,80,51.2,80,50.133,81.067c0-1.067,0-1.067,0-2.133c0,0,0-1.067-1.067-2.133c1.067,0,1.067,0,2.133,0s1.067,0,2.133,0l0,0
		c1.067,0,2.133-1.067,3.2-1.067c0-1.067,2.133,0,2.133-1.067c1.067,0,2.133-1.067,4.267,0c0,0,1.067,0,1.067-1.067c0,0,0,0,1.067,0
		h1.067c1.067-1.067,1.067,0,2.133,0c0,0,1.067,1.067,1.067,0H70.4v1.067c1.067,0,3.2,0,4.267,0s1.067,0,2.133,0
		c0,0,1.067,0,2.133,0H80h1.067c1.067,0,2.133,0,2.133,1.067c1.067,2.133,2.133,2.133,2.133,2.133V76.8H86.4h1.067l0,0
		c1.067,0,1.067,0,1.067,0s0,0,1.067,0c0,0,1.067,0,1.067-1.067c1.067,0,1.067-1.067,2.133,0h1.067c2.133-1.067,3.2,0,4.267-1.067
		l0,0c0,1.067,0,1.067,0,2.133l0,0c1.067,0,1.067-1.067,1.067,0h1.067h1.067c1.067-1.067,2.133-1.067,3.2,0
		c1.067,0,2.133,1.067,3.2,1.067c1.067,1.067,1.067,0,2.133,0c1.067-1.067,1.067,0,1.067,0l0,0
		c-1.067,1.067-2.133,1.067-2.133,1.067s0,1.067,1.067,1.067c2.133,0,3.2,0,5.333,0c0,0,0,0,1.067-1.067
		c0,0,1.067,1.067,1.067,2.133c0,0,0,0,0,1.067h1.067c0-1.067,0-1.067,0-1.067C119.467,80,120.533,80,120.533,80
		c1.067,0,2.133-1.067,2.133,0c0,0,0,0,1.067,0c0,0,1.067,0,1.067,1.067l0,0c2.133,0,4.267,0,6.4,0V80h1.067
		c0,1.067,0,1.067,0,2.133c0,0,0,0,1.067,1.067c1.067,0,1.067-1.067,1.067-2.133c1.067,0,2.133-1.067,3.2-1.067
		c1.067,0,1.067-1.067,1.067-2.133H137.6c0-1.067,0-1.067,0-1.067c1.067-1.067,1.067-2.133,2.133-2.133c0,0,1.067,0,1.067-1.067
		c0,0,0-1.067,1.067-1.067l0,0c0-1.067,1.067-1.067,1.067-1.067C144,70.4,144,70.4,145.067,70.4c1.067-1.067,1.067-2.133,3.2-1.067
		h1.067c0,1.067-1.067,1.067-2.133,2.133h-1.067h-1.067v1.067c-1.067,0-1.067,1.067-2.133,1.067c0,1.067,1.067,1.067,0,2.133V76.8
		h-1.067c2.133,1.067,2.133,1.067,1.067,2.133H144c1.067-1.067,1.067-1.067,2.133-1.067v1.067c0,0-1.067,0-1.067,1.067
		c0,0,0,1.067,1.067,2.133c1.067,0,1.067,0,1.067-2.133h1.067c1.067,0,1.067,0,1.067-1.067c0,0,0,0,1.067-1.067
		c0,0,1.067-1.067,1.067-2.133c1.067,0,2.133,0,3.2,0s1.067,1.067,1.067,1.067c-1.067,0-1.067,1.067-2.133,1.067
		c0,1.067,0,1.067,0,2.133c-1.067,0-1.067,1.067-2.133,1.067s-2.133,0-2.133,1.067c-1.067,0-2.133,0-2.133-1.067
		c0,1.067,0,1.067,0,1.067c-1.067,0-2.133,1.067-3.2,2.133c0,1.067-1.067,1.067-2.133,1.067c-1.067,1.067-2.133,0-2.133,1.067
		c-1.067,0-2.133,0-3.2,1.067c0,0,0,1.067,1.067,1.067h-1.067c-1.067,0-2.133,0-3.2,1.067c-1.067,1.067-2.133,2.133-3.2,2.133
		l-1.067,1.067L128,93.867c0,1.067,0,1.067-1.067,1.067c0,0-1.067,1.067-1.067,2.133h1.067c0,0,0,0,0,1.067
		c-1.067,1.067-1.067,2.133-1.067,3.2c1.067,0,1.067,0,2.133,0l0,0c1.067,0,1.067,1.067,2.133,1.067l0,0
		c1.067,0,1.067,1.067,1.067,1.067c1.067,1.067,2.133,1.067,2.133,1.067c1.067,0,1.067,0,2.133,0s1.067,1.067,1.067,2.133
		c0,0,0,0-1.067,0c0,1.067,0,2.133-1.067,3.2v1.067c0,0,0,0,0,1.067c0,1.067,1.067,1.067,1.067,2.133v1.067
		c1.067,0,1.067,0,2.133-1.067c0,0,0-1.067,1.067-1.067c0,0,1.067,0,1.067-1.067v-2.133V108.8c0,0,0-1.067,0-2.133
		c1.067,0,2.133-1.067,3.2-1.067c0-1.067,1.067-1.067,2.133-2.133c1.067-1.067,1.067-1.067,1.067-2.133c0,0,0,0,0-1.067
		c0-1.067,0-1.067,0-2.133l-1.067-1.067C146.133,96,147.2,96,147.2,94.933c0-1.067,0-1.067,0-2.133c0-1.067,1.067-1.067,1.067-2.133
		V89.6c0,0,0,0,1.067,0c0-1.067,1.067-1.067,1.067,0l0,0h1.067c1.067,0,2.133,0,3.2,1.067v1.067h1.067c0,1.067,0,2.133-1.067,3.2
		c0,1.067,1.067,2.133,1.067,2.133h1.067L157.867,96c0,0,0,0,0,1.067l0,0c2.133,1.067,3.2,0,3.2-1.067c0,0,0,0,1.067-1.067
		c0,2.133,1.067,3.2,0,4.267c1.067,1.067,1.067,2.133,0,3.2h-1.067c1.067,1.067,1.067,2.133,2.133,3.2
		c1.067,0,2.133,1.067,2.133,1.067s0,0,0,1.067c0,0,0,1.067,1.067,1.067h1.067c0,1.067,0,2.133-1.067,3.2
		c-1.067,0-1.067,1.067-2.133,1.067l0,0c-1.067,0-1.067,0-2.133,0c0,0-1.067,0-1.067,1.067c0,2.133-1.067,3.2-2.133,3.2
		c-2.133,0-5.333,0-7.467,0c0,0-1.067,0-1.067,1.067c0,1.067-1.067,1.067-2.133,2.133c-1.067,0-1.067,1.067-2.133,1.067l0,0h1.067
		c0-1.067,1.067,0,2.133-1.067c0,0,1.067,0,1.067-1.067c0,0,1.067,0,2.133,0s1.067,0,2.133,0c0,1.067,0,2.133-1.067,2.133
		c-1.067,0-1.067,1.067-2.133,1.067l0,0c0,1.067,1.067,0,1.067,1.067v1.067v1.067v1.067L153.6,128h1.067c0,1.067,1.067,0,1.067,0
		s1.067,0,1.067,1.067c0,0,0,1.067-1.067,1.067s-2.133,1.067-3.2,1.067c0,0,0,0-1.067,0c0,0,0,0-1.067,1.067
		c-1.067,0-1.067,1.067-2.133,1.067H147.2c0-1.067,0-1.067,1.067-2.133l1.067-1.067c0,0,1.067,0,2.133,0c0-1.067,0-1.067,0-2.133
		c-1.067,0-2.133,0-2.133,1.067c-1.067,1.067-2.133,0-2.133,1.067h-1.067c-1.067,0-1.067,0-2.133,1.067c0,0-1.067,0-1.067,1.067
		c-1.067,0-1.067,1.067-2.133,1.067c0,1.067-1.067,2.133-1.067,3.2s0,1.067-1.067,1.067s-1.067,0-2.133,0s-1.067,0-2.133,0v1.067
		h-1.067c0,1.067,0,1.067-1.067,2.133l-1.067,1.067c0,0,0,0-1.067,0v1.067c0,1.067,0,1.067,0,2.133h-1.067c0-1.067-1.067,0-2.133,0
		c1.067,1.067,1.067,2.133,0,3.2v1.067v1.067c-1.067,0-1.067,0-1.067,0c1.067,0,1.067,1.067,1.067,2.133h-1.067v1.067
		c-1.067,0-1.067,1.067-2.133,1.067c-1.067,1.067-1.067,1.067-2.133,1.067c-1.067,1.067-1.067,2.133-2.133,3.2L118.4,160
		c-1.067-1.067-1.067,0-1.067,0s0,1.067-1.067,1.067c-1.067,1.067-1.067,2.133,0,4.267v1.067c0,1.067,0,2.133,0,3.2
		c0,2.133,0,3.2-1.067,5.333c0,0,0,0-1.067,0c0,0,0-1.067-1.067-1.067V172.8C112,171.733,112,170.667,112,169.6v-1.067v-1.067V166.4
		c0-1.067,0-1.067,0-2.133s-1.067-1.067-1.067-2.133c-1.067,0-1.067,1.067-2.133,1.067c-1.067,0-1.067-1.067-2.133-1.067
		c0,0,0,0-1.067,0c-1.067,0-2.133,0-3.2,0c0,0,0,0-1.067,0c-1.067,1.067-1.067,0-2.133,0c0,1.067,0,1.067,0,1.067
		c1.067,0,0,1.067,0,1.067c-1.067,0-1.067,1.067-2.133,1.067H96c0-1.067-1.067-1.067-1.067-1.067c-1.067,0-3.2,0-4.267,0v1.067
		c-1.067,0-1.067,1.067-2.133,1.067l0,0c-1.067,0-1.067,1.067-2.133,1.067c-1.067,1.067-1.067,2.133-1.067,3.2
		c0,1.067,0,1.067,0,2.133s0,1.067-1.067,2.133c0,0,0,0,0,1.067s0,2.133-1.067,3.2c0,0,0,0,0,1.067s0,1.067,0,2.133v1.067
		c1.067,0,0,1.067,0,1.067c0,1.067,0,1.067,0,2.133s1.067,2.133,1.067,3.2l0,0c0,0,0,1.067,1.067,1.067s2.133,2.133,3.2,1.067
		c1.067-1.067,2.133,0,3.2-1.067l0,0c0,1.067,1.067,0,1.067,0c0-1.067,1.067-2.133,1.067-3.2c0-1.067,1.067-2.133,1.067-3.2
		c2.133-1.067,3.2-1.067,5.333-1.067v2.133H99.2c0,1.067,0,2.133-1.067,3.2c0,1.067-1.067,1.067-1.067,1.067V192
		c0,1.067,0,1.067,0,2.133v1.067c0,0-1.067,0-1.067,1.067h10.667v1.067h1.067c0,1.067,0,2.133-1.067,3.2v1.067
		c0,1.067,0,2.133,0,2.133c0,2.133,0,3.2,1.067,4.267c0,0,0,0,0,1.067v1.067c0,0,0,0,0,1.067c0,1.067,1.067,1.067,1.067,1.067
		c1.067,0,2.133,0,3.2-1.067l0,0c1.067,0,1.067,0,2.133,1.067c1.067,0,1.067,1.067,1.067,2.133h1.067v1.067l0,0V214.4
		c1.067-1.067,2.133-1.067,2.133-3.2c0-1.067,1.067-2.133,2.133-2.133c1.067,0,1.067-1.067,2.133-1.067l0,0l1.067-1.067v-1.067
		h1.067v1.067L123.733,208c1.067,1.067,1.067,2.133,0,3.2v1.067l1.067,1.067c0-1.067,0-2.133,0-2.133v-1.067
		c1.067-1.067,2.133-1.067,2.133-2.133c1.067,0,1.067,0,2.133,0c0,0,1.067,1.067,1.067,2.133c1.067,1.067,2.133,0,3.2,0
		c1.067,1.067,2.133,1.067,3.2,1.067c0,0,0,0,1.067,0c1.067-1.067,2.133-1.067,2.133,1.067c1.067,1.067,2.133,1.067,3.2,2.133
		c0,1.067,0,1.067-1.067,2.133c2.133-1.067,3.2,1.067,4.267,2.133c0,1.067,1.067,1.067,1.067,2.133
		c1.067,1.067,1.067,2.133,2.133,1.067c1.067,0,1.067,0,2.133,0s1.067,0,2.133,0c0,0,1.067,0,2.133,1.067L156.8,224
		c0,1.067,1.067,1.067,1.067,2.133c0,0,0,0,1.067,0c0,1.067,0,2.133,1.067,3.2c0,1.067,1.067,1.067,1.067,1.067
		c0,1.067-1.067,2.133-1.067,3.2v1.067h-1.067c0,0,0,0,0,1.067H160v1.067h2.133c0,1.067,0,1.067,0,2.133
		c1.067,0,0-1.067,1.067-1.067c1.067,0,2.133,0,3.2,1.067c1.067,1.067,2.133,1.067,2.133,3.2l0,0l0,0h1.067h1.067h1.067l0,0
		c1.067,1.067,2.133,0,3.2,1.067c0,0,1.067,0,1.067,1.067s1.067,1.067,1.067,1.067c1.067,0,1.067,1.067,2.133,2.133
		c0,1.067,1.067,1.067,2.133,1.067C184.533,245.333,185.6,246.4,185.6,247.467z"/>
</g>
<path style="fill:#FFD15C;" d="M162.133,362.667l-5.333-18.133c-1.067-2.133-2.133-5.333-5.333-6.4L144,333.867
	c0,0-10.667-11.733-17.067-17.067c-6.4-5.333-10.667-8.533-13.867-8.533c-3.2-1.067-5.333,2.133-4.267,3.2
	c1.067,1.067,2.133,4.267,5.333,6.4c3.2,2.133,12.8,13.867,12.8,13.867s-1.067,0,0,2.133c0,0-5.333-3.2-7.467-1.067
	c-2.133,2.133-3.2,4.267-2.133,5.333c0,1.067,2.133,4.267,2.133,4.267s-3.2-1.067-4.267,2.133c-2.133,3.2,1.067,6.4,1.067,6.4
	s-2.133,0-4.267,1.067c-2.133,2.133,0,6.4,0,6.4s6.4,4.267,7.467,6.4c1.067,2.133,12.8,13.867,19.2,14.933l3.2,5.333L166.4,371.2
	L162.133,362.667z"/>
<g>
	<path style="fill:#F3705A;" d="M296.533,417.067c0,0,0,8.533-11.733,19.2C272,448,250.667,464,241.067,467.2
		c-10.667,3.2-10.667,7.467-19.2,4.267c-8.533-3.2-37.333-21.333-45.867-32c-8.533-9.6-36.267-56.533-36.267-56.533
		s17.067-8.533,19.2-12.8c2.133-4.267,5.333-7.467,4.267-9.6L181.333,384c0,0,7.467,5.333,10.667,8.533
		c3.2,3.2,11.733,4.267,14.933,8.533c3.2,4.267,4.267,9.6,6.4,10.667c2.133,1.067,6.4,2.133,9.6,4.267
		c3.2,2.133,3.2,3.2,4.267,2.133s-2.133,0,3.2-4.267c5.333-4.267,12.8-7.467,12.8-7.467s19.2-20.267,21.333-25.6
		c3.2-5.333,18.133-33.067,23.467-34.133c4.267-1.067,20.267,3.2,20.267,3.2S313.6,406.4,296.533,417.067z"/>
	<path style="fill:#F3705A;" d="M480,352c0,0,8.533,17.067,12.8,32s16,54.4,18.133,69.333c2.133,14.933-2.133,57.6-2.133,57.6
		h-46.933c0,0-16-61.867-13.867-76.8C451.2,421.333,480,352,480,352z"/>
</g>
<path style="fill:#F05540;" d="M410.667,326.4c0,0,9.6,4.267,25.6,8.533c16,3.2,39.467,11.733,42.667,17.067
	c0,0-12.8,33.067-12.8,62.933c0,0-9.6,60.8-9.6,97.067H304c0,0-2.133-73.6-8.533-94.933c0,0,9.6-48-10.667-72.533
	c0,0,28.8-6.4,34.133-7.467c5.333-1.067,28.8-9.6,28.8-9.6L410.667,326.4z"/>
<g>
	<path style="fill:#415A6B;" d="M378.667,336h4.267l20.267,4.267c0,0-13.867,5.333-16,12.8c-3.2-1.067-6.4-1.067-10.667,0
		c0,0-5.333-9.6-11.733-12.8C359.467,337.067,378.667,336,378.667,336z"/>
	<path style="fill:#415A6B;" d="M387.2,353.067c0,0,7.467,18.133,7.467,28.8S400,512,400,512h-37.333c0,0,6.4-115.2,6.4-125.867
		c0-10.667,8.533-33.067,8.533-33.067l2.133-8.533L387.2,353.067z"/>
</g>
<g>
	<path style="fill:#E8EAE9;" d="M406.4,312.533L382.933,336c0,0,28.8,16,32,23.467c0,0,3.2-19.2,1.067-25.6
		C413.867,327.467,406.4,312.533,406.4,312.533z"/>
	<path style="fill:#E8EAE9;" d="M355.2,312.533L378.667,336c0,0-28.8,16-32,23.467c0,0-3.2-19.2-1.067-25.6
		C347.733,326.4,355.2,312.533,355.2,312.533z"/>
</g>
<g>
	<path style="fill:#FFD15C;" d="M417.067,279.467c0,0-2.133,29.867-12.8,44.8C393.6,339.2,374.4,339.2,361.6,328.533
		c-12.8-10.667-17.067-30.933-20.267-45.867s-1.067-48,1.067-54.4c2.133-7.467,57.6-8.533,62.933-4.267
		S420.267,266.667,417.067,279.467z"/>
	<path style="fill:#FFD15C;" d="M333.867,279.467c1.067,6.4,4.267,11.733,7.467,11.733c2.133,0,3.2-6.4,2.133-12.8
		C342.4,272,339.2,266.667,336,266.667S332.8,273.067,333.867,279.467z"/>
</g>
<path style="fill:#415A6B;" d="M412.8,273.067h2.133c0,0,0-5.333,2.133-7.467c2.133-2.133,5.333-21.333,2.133-30.933
	c-3.2-8.533-19.2-29.867-48-27.733c-28.8,2.133-36.267,26.667-37.333,32c-2.133,5.333,0,25.6,3.2,29.867
	c3.2,5.333,4.267,13.867,4.267,13.867h1.067c0,0-2.133-9.6,0-17.067c2.133-7.467,6.4-16,4.267-22.4c-1.067-6.4,0-8.533,7.467-8.533
	s30.933,3.2,39.467,1.067c8.533-2.133,10.667,0,10.667,7.467c1.067,7.467,6.4,14.933,6.4,17.067
	C413.867,262.4,412.8,273.067,412.8,273.067z"/>
<path style="fill:#FFD15C;" d="M423.467,273.067c0,7.467-3.2,13.867-5.333,13.867c-2.133,0-4.267-6.4-3.2-13.867
	c1.067-7.467,3.2-13.867,5.333-13.867C422.4,259.2,424.533,265.6,423.467,273.067z"/>
<g>
	<path style="fill:#F7B64C;" d="M110.933,359.467c3.2,1.067,6.4,1.067,9.6,2.133c1.067,0,3.2,1.067,4.267,0h1.067
		c0,0,1.067,0,1.067-1.067c0,0,1.067-1.067,0-2.133v-1.067L128,358.4c1.067,1.067,2.133,2.133,4.267,2.133h1.067h1.067
		c1.067,0,1.067-1.067,1.067-1.067c0-1.067,0-1.067,1.067-2.133v-1.067V355.2c-1.067-1.067-2.133-2.133-3.2-3.2l-1.067-1.067h1.067
		c1.067,0,2.133-1.067,3.2-2.133c0-1.067,0-2.133,0-3.2s-1.067-2.133-2.133-3.2c-1.067-1.067-2.133-2.133-3.2-2.133
		c1.067,1.067,2.133,1.067,3.2,2.133c1.067,1.067,2.133,2.133,2.133,3.2s1.067,3.2,0,4.267c0,1.067-2.133,2.133-3.2,3.2V352
		c1.067,1.067,2.133,1.067,3.2,3.2v1.067v1.067c0,1.067,0,2.133-1.067,2.133c0,1.067-1.067,1.067-2.133,2.133h-1.067H131.2
		c-2.133,0-3.2-1.067-4.267-2.133H128c0,1.067,0,2.133-1.067,2.133l-1.067,1.067H124.8c-2.133,0-3.2,0-5.333,0
		C117.333,361.6,114.133,360.533,110.933,359.467z"/>
	<path style="fill:#F7B64C;" d="M126.933,332.8c0,1.067,1.067,2.133,1.067,4.267c0,1.067,1.067,1.067,1.067,1.067s0,0,1.067,1.067
		c0,0,0,0,1.067,1.067l1.067,1.067h1.067c1.067,0,1.067,0,2.133,1.067c1.067,0,1.067,0,2.133,1.067h2.133l0,0l0,0
		c1.067,1.067,3.2,2.133,4.267,3.2l0,0l0,0c0,0,0,1.067,1.067,1.067l1.067,1.067c1.067,0,1.067,1.067,2.133,1.067
		c-1.067,0-2.133,0-2.133-1.067c-1.067,0-1.067-1.067-2.133-2.133l0,0c-2.133-1.067-3.2-2.133-5.333-3.2l0,0h-2.133
		c-1.067,0-1.067,0-2.133-1.067c-1.067,0-1.067,0-2.133-1.067H131.2l-1.067-1.067c0,0-1.067,0-1.067-1.067c0,0,0,0-1.067-1.067
		c0-1.067-1.067-1.067-1.067-2.133c0-1.067,0-1.067-1.067-2.133C126.933,333.867,126.933,333.867,126.933,332.8z"/>
	<path style="fill:#F7B64C;" d="M126.933,331.733L126.933,331.733c1.067-1.067,1.067-1.067,2.133-1.067h1.067c1.067,0,2.133,0,3.2,0
		h1.067h1.067c2.133,0,4.267,1.067,5.333,1.067c1.067,0,2.133,1.067,2.133,1.067s-1.067,0-2.133,0s-3.2,0-5.333-1.067H134.4h-1.067
		c-1.067,0-2.133,0-2.133-1.067h-1.067C128,331.733,128,331.733,126.933,331.733L126.933,331.733z"/>
	<path style="fill:#F7B64C;" d="M131.2,350.933c0,0-1.067,0-2.133-1.067c-1.067-1.067-3.2-1.067-5.333-2.133
		c-2.133-1.067-3.2-3.2-4.267-4.267c-1.067-1.067-1.067-2.133-1.067-2.133s1.067,1.067,2.133,2.133
		c1.067,1.067,2.133,2.133,4.267,3.2s3.2,2.133,4.267,3.2C131.2,350.933,131.2,350.933,131.2,350.933z"/>
	<path style="fill:#F7B64C;" d="M128,358.4c0,0-1.067,0-2.133-1.067s-3.2-1.067-4.267-2.133c-2.133-1.067-3.2-2.133-4.267-3.2
		s-2.133-1.067-2.133-1.067s1.067,0,2.133,1.067c1.067,1.067,3.2,1.067,4.267,2.133c2.133,1.067,3.2,2.133,4.267,3.2
		C126.933,357.333,128,358.4,128,358.4z"/>
</g>
<circle style="fill:#F3705A;" cx="110.933" cy="120.533" r="17.067"/>
<circle style="fill:#F05540;" cx="110.933" cy="120.533" r="8.533"/>
<circle style="fill:#F3705A;" cx="288" cy="231.467" r="17.067"/>
<circle style="fill:#F05540;" cx="288" cy="231.467" r="8.533"/>
<circle style="fill:#F3705A;" cx="395.733" cy="114.133" r="17.067"/>
<circle style="fill:#F05540;" cx="395.733" cy="114.133" r="8.533"/>
<circle style="fill:#F3705A;" cx="150.4" cy="250.667" r="17.067"/>
<circle style="fill:#F05540;" cx="150.4" cy="250.667" r="8.533"/>
<g>
</g>
<g>
</g>
<g>
</g>
<g>
</g>
<g>
</g>
<g>
</g>
<g>
</g>
<g>
</g>
<g>
</g>
<g>
</g>
<g>
</g>
<g>
</g>
<g>
</g>
<g>
</g>
<g>
</g>
</svg>
