<?xml version="1.0" encoding="iso-8859-1"?>
<!-- Generator: Adobe Illustrator 19.0.0, SVG Export Plug-In . SVG Version: 6.00 Build 0)  -->
<svg version="1.1" id="Capa_1" xmlns="http://www.w3.org/2000/svg" xmlns:xlink="http://www.w3.org/1999/xlink" x="0px" y="0px"
	 viewBox="0 0 511.856 511.856" style="enable-background:new 0 0 511.856 511.856;" xml:space="preserve">
<path style="fill:#F7B64C;" d="M327.554,477.723l1.067-14.934c0,0,4.267-9.6,6.4-16c2.133-6.4,3.2-8.533,2.133-14.934
	c-1.067-5.333-2.133-10.667-2.133-10.667s-11.733-39.467-12.8-52.267c-1.067-12.8-1.067-29.867-1.067-34.133
	c0-3.2-3.2-19.2-3.2-24.533c0-6.4,0-6.4,0-6.4l23.467,6.4l10.667,88.534c0,0,0,19.2,1.067,22.4c1.067,3.2,3.2,7.467,3.2,12.8
	c0,5.333-3.2,33.066-8.533,37.333C342.488,475.589,327.554,477.723,327.554,477.723z"/>
<path style="fill:#2D4456;" d="M325.421,480.923c0,0,2.133,5.333,5.333,5.333s18.133-1.066,20.267-5.333
	c2.133-4.267,1.067-14.934,1.067-14.934v-2.133v-2.133l1.067,9.6h3.2l-2.133-20.267l-5.333,14.934
	C348.888,464.923,331.821,480.923,325.421,480.923z"/>
<g>
	<path style="fill:#344A5E;" d="M352.088,424.39c0,0,2.133,6.4,1.067,12.8c-1.067,6.4,0,11.733-1.067,17.066
		c-1.067,5.333-3.2,12.8-10.667,13.867s-12.8-2.133-12.8-5.333c0,0-5.333,7.467-4.267,12.8c0,4.267,1.067,6.4,2.133,6.4
		c1.067,1.066,17.067-2.133,21.333-6.4c4.267-4.267,4.267-5.333,4.267-9.6c1.067-4.267,2.133-14.934,4.267-20.267
		c2.133-5.333,2.133-9.6,0-12.8C354.221,429.722,353.154,424.39,352.088,424.39z"/>
	<path style="fill:#344A5E;" d="M344.621,484.123c0,0,2.133,5.333,5.333,5.333c3.2,0,18.133-1.066,20.267-5.333
		c2.133-4.267,1.067-14.934,1.067-14.934v-2.133v-2.133l1.067,9.6h3.2l-1.067-20.267l-5.333,14.934
		C369.154,469.19,351.021,484.123,344.621,484.123z"/>
</g>
<path style="fill:#FFD15C;" d="M365.954,320.923c0,0,1.067,8.533,0,12.8c-1.067,4.267,1.067,6.4,5.333,18.133s5.333,25.6,3.2,41.6
	c-2.133,16-4.267,26.667-1.067,36.267c3.2,9.6,1.067,26.667-1.067,34.133s-10.667,17.066-10.667,17.066l-13.867-9.6h-1.067
	c0,0,3.2-10.667,3.2-14.934c1.067-4.267,2.133-14.934,2.133-19.2c0-4.267,3.2-9.6-2.133-33.066c-5.333-23.467-7.467-42.667-8.533-48
	c-1.067-5.333-5.333-13.867-6.4-18.133c0-4.267,1.067-20.267,1.067-20.267L365.954,320.923z"/>
<g>
	<path style="fill:#415A6B;" d="M372.354,427.589c0,0,2.133,6.4,0,12.8c-1.067,6.4,0,11.733-1.067,17.066
		c-1.067,5.333-3.2,12.8-10.667,13.867s-12.8-2.133-12.8-5.333c0,0-5.333,7.467-4.267,12.8c0,4.267,1.067,6.4,2.133,6.4
		c1.067,1.066,17.067-2.133,21.333-6.4c4.267-4.267,4.267-5.333,4.267-9.6c1.067-4.267,3.2-14.934,5.333-20.267
		c2.133-5.333,2.133-9.6,0-12.8C374.488,432.923,373.421,428.657,372.354,427.589z"/>
	<path style="fill:#415A6B;" d="M306.221,189.723c-1.067,3.2-2.133,6.4-3.2,9.6c-10.667,33.067-1.067,75.733,3.2,87.467
		s2.133,36.267,2.133,36.267c3.2-4.267,18.133-2.133,29.867-2.133s26.667,6.4,26.667,6.4c-1.067-12.8,20.267-46.933,24.533-83.2
		s-6.4-54.4-6.4-54.4H306.221z"/>
</g>
<g>
	<path style="fill:#FFD15C;" d="M321.154,36.123c0,3.2-1.067,6.4-2.133,6.4s-3.2-3.2-4.267-6.4c0-3.2,1.067-6.4,2.133-6.4
		C317.955,29.723,320.088,32.923,321.154,36.123z"/>
	<path style="fill:#FFD15C;" d="M355.288,37.19c-1.067,3.2,0,6.4,1.067,7.467c2.133,0,4.267-2.133,5.333-6.4
		c1.067-3.2,0-6.4-1.067-7.467C358.488,30.79,356.354,32.923,355.288,37.19z"/>
	<path style="fill:#FFD15C;" d="M315.821,81.99c0,0,8.533-5.333,7.467-13.867c0-9.6-1.067-12.8-1.067-12.8
		s-5.333-11.733-4.267-24.533s14.933-26.667,14.933-26.667h14.933c0,0,8.533,8.533,9.6,14.933c1.067,5.333,1.067,36.267-12.8,42.667
		l-2.133,34.133l-28.8-6.4L315.821,81.99z"/>
</g>
<path style="fill:#F7B64C;" d="M322.221,54.256c4.267,12.8,16,21.333,22.4,24.533l1.067-18.133
	C333.954,69.19,322.221,54.256,322.221,54.256z"/>
<path style="fill:#CED6E0;" d="M307.288,191.856c0,0,13.867,2.133,34.133-3.2c20.267-5.333,8.533-114.133,8.533-114.133l-21.333,6.4
	h-3.2l-11.733-3.2C303.021,96.923,305.154,145.99,307.288,191.856z"/>
<path style="fill:#E8EAE9;" d="M344.621,62.79c0,0-4.267,3.2-7.467,7.467c-3.2,4.267-8.533,11.733-8.533,11.733s6.4,1.067,12.8,6.4
	l3.2-21.333V62.79z"/>
<path style="fill:#F3705A;" d="M357.421,37.19L357.421,37.19l2.133-7.467c1.067-4.267,1.067-8.533,0-11.733
	c-1.067-7.467-4.267-13.867-13.867-17.067c-12.8-4.267-25.6,7.467-26.667,10.667c-1.067,3.2-4.267,13.867-3.2,18.133
	c1.067,4.267,1.067,8.533,1.067,8.533h1.067c0,0,1.067-9.6,4.267-12.8c3.2-3.2,3.2-8.533,6.4-11.733c3.2-3.2,12.8-4.267,18.133-3.2
	c5.333,1.067,8.533,8.533,8.533,12.8C357.421,27.59,357.421,37.19,357.421,37.19z"/>
<path style="fill:#344A5E;" d="M359.554,64.923c0,0,7.467,1.067,12.8,1.067c5.333,0,10.667,0,10.667,0s-7.467,2.133-9.6,8.533
	c-3.2,6.4-7.467,28.8-7.467,34.133c0,5.333,24.533,83.2,24.533,83.2s-27.733,4.267-41.6,6.4c-13.867,1.067-20.267-4.267-22.4-10.667
	c-2.133-6.4-6.4-19.2-6.4-19.2s4.267-30.933,6.4-39.467C327.554,119.323,359.554,64.923,359.554,64.923z"/>
<path style="fill:#CED6E0;" d="M376.621,184.39c0,0-7.467,6.4-21.333-20.267l10.667-3.2L376.621,184.39z"/>
<path style="fill:#FFD15C;" d="M362.754,161.99l-5.333,2.133c0,0-12.8,11.733-19.2,14.933c-5.333,3.2-7.467,5.333-9.6,6.4
	c-1.067,1.067-6.4,0-9.6,4.267c-3.2,4.267-5.333,8.533-9.6,10.667c-4.267,3.2-16,11.733-16,11.733s0,0,0,1.067
	c0,0-5.333,2.133-4.267,5.333c0,0-2.133,2.133,0,4.267l3.2-2.133l4.267-3.2c0,0-3.2,4.267,0,6.4l2.133-3.2
	c0,0,2.133-3.2,4.267-4.267c2.133-1.067,6.4-5.333,7.467-5.333c2.133-1.067,6.4-2.133,7.467-4.267
	c1.067-2.133,12.8-10.667,18.133-12.8c4.267-2.133,36.267-17.067,39.467-19.2c2.133-2.133,2.133-2.133,2.133-2.133L362.754,161.99z"
	/>
<path style="fill:#415A6B;" d="M343.554,65.99c0,0-8.533,19.2-12.8,29.867c-4.267,11.733-7.467,19.2-8.533,28.8
	c-1.067,9.6-1.067,37.333-1.067,37.333s1.067-20.267,7.467-33.067c6.4-12.8,25.6-41.6,25.6-41.6l4.267-19.2L343.554,65.99z"/>
<path style="fill:#344A5E;" d="M287.021,177.99v4.267c0,0-10.667-10.667-11.733-24.533l9.6,2.133L287.021,177.99z"/>
<path style="fill:#E8EAE9;" d="M156.888,503.323c0-4.267,3.2-7.467,7.467-7.467c4.267,0,7.467,3.2,7.467,7.467h4.267
	c0-6.4-5.333-10.667-11.733-10.667c-6.4,0-10.667,5.333-11.733,10.667H156.888z"/>
<circle style="fill:#415A6B;" cx="165.421" cy="504.39" r="7.467"/>
<path style="fill:#E8EAE9;" d="M250.754,503.323c0-4.267,3.2-7.467,7.467-7.467c4.267,0,7.467,3.2,7.467,7.467h4.267
	c0-6.4-5.333-10.667-11.733-10.667c-6.4,0-10.667,5.333-11.733,10.667H250.754z"/>
<circle style="fill:#415A6B;" cx="258.221" cy="504.39" r="7.467"/>
<rect x="192.088" y="406.256" style="fill:#344A5E;" width="39.467" height="11.733"/>
<polygon style="fill:#F05540;" points="283.821,303.856 280.621,388.123 287.021,388.123 297.688,307.056 "/>
<path style="fill:#F3705A;" d="M274.221,304.923c0,0,12.8,5.333,20.267,3.2c7.466-2.133,12.8-3.2,11.733-7.467
	c-1.067-4.267-20.267-3.2-25.6-4.267c-5.333-1.067-5.333-1.067-5.333-1.067L274.221,304.923z"/>
<polygon style="fill:#F05540;" points="139.821,303.856 143.021,388.123 136.621,388.123 125.954,307.056 "/>
<path style="fill:#F3705A;" d="M149.421,304.923c0,0-12.8,5.333-20.267,3.2c-7.467-1.067-12.8-3.2-11.733-7.467
	c1.067-4.267,20.267-3.2,25.6-4.267c5.333-1.067,5.333-1.067,5.333-1.067L149.421,304.923z"/>
<path style="fill:#F05540;" d="M279.554,375.323H144.088c0,0,0-66.133,6.4-97.067c4.267-23.467,14.933-71.467,20.267-93.867
	c1.067-6.4,7.467-11.733,13.867-11.733h53.333c6.4,0,12.8,5.333,13.867,11.733c5.333,22.4,16,70.4,20.267,93.867
	C279.554,309.19,279.554,375.323,279.554,375.323z"/>
<path style="fill:#F3705A;" d="M282.754,405.19c-12.8,6.4-129.067,6.4-141.867,0c-12.8-6.4-13.867-12.8-4.267-27.733
	c0,0,5.333-10.667,26.667-10.667c22.4,0,75.733,0,98.133,0c20.267,0,26.667,10.667,26.667,10.667
	C296.621,393.457,295.554,398.79,282.754,405.19z"/>
<rect x="199.554" y="417.99" style="fill:#415A6B;" width="25.6" height="11.733"/>
<rect x="203.821" y="428.657" style="fill:#CED6E0;" width="16" height="54.4"/>
<path style="fill:#415A6B;" d="M263.554,493.723H160.088c0-5.333,4.267-9.6,9.6-9.6h84.267
	C259.288,483.056,263.554,488.39,263.554,493.723z"/>
<path style="fill:#FFD15C;" d="M199.554,171.59c0,0,0,4.267,8.533,1.067c0,0,5.333-1.067,6.4-2.133c0,0,4.267,0,5.333-1.067h7.467
	c0,0-2.133,1.067-3.2,2.133c-1.067,1.067-3.2,2.133-4.267,3.2c0,0-1.067,0-1.067,1.067l-3.2,2.133c0,0,2.133,5.333,9.6-1.067
	c0,0,1.067-2.133,2.133-2.133c0,0,4.267-1.067,5.333-1.067c0-1.067,10.667-1.067,12.8,0c0,0,2.133,1.067,2.133,2.133h39.467
	l-6.4-19.2c0,0-11.733,3.2-17.067,4.267c-5.333,1.067-16,3.2-18.133,3.2c-2.133,1.067-18.133-1.067-20.267-1.067
	c-2.133,0-3.2,0-4.267,1.067c-2.133,1.067-8.533,2.133-8.533,2.133s-2.133,0-4.267,1.067c-1.067,1.067-5.333,2.133-5.333,2.133
	L199.554,171.59z"/>
<path style="fill:#415A6B;" d="M317.954,165.19c0,0,0,0-4.267,1.067s-26.667,16-26.667,16s-3.2-9.6-5.333-16
	c-2.133-6.4-6.4-8.533-6.4-8.533c3.2-1.067,13.867-4.267,14.933-5.333c2.133-1.067,3.2-1.067,2.133-5.333c0-4.267,0-16,0-20.267
	c0-4.267,2.133-20.267,1.067-33.067c0-12.8,6.4-14.933,6.4-14.933v34.133L317.954,165.19z"/>
<path style="fill:#344A5E;" d="M312.621,74.523c0,0-13.867,4.267-16,7.467c-2.133,3.2-1.067,20.267,0,26.667
	c1.067,6.4,2.133,8.533,2.133,10.667c0,2.133,2.133,17.067,6.4,23.467c4.267,6.4,1.067,42.667-3.2,58.667c0,0,9.6,1.067,16-18.133
	c6.4-19.2,7.467-25.6,7.467-32c0-6.4-1.067-14.933-9.6-22.4c-8.533-7.467-10.667-23.467-8.533-34.133
	C308.354,84.123,312.621,74.523,312.621,74.523z"/>
<path style="fill:#415A6B;" d="M323.288,63.856c0,0-11.733,18.133-11.733,36.267c0,17.067,6.4,29.867,9.6,34.133
	c3.2,4.267,5.333,9.6,5.333,14.933c0,4.267,0,5.333,0,5.333s1.067-6.4-3.2-10.667c-4.267-5.333-17.067-11.733-19.2-21.333
	c-3.2-9.6,0-26.667,1.067-33.067C306.221,80.923,317.954,63.856,323.288,63.856z"/>
<path style="fill:#F3705A;" d="M355.288,85.19c-3.2,11.733-16,26.667-21.333,28.8c-5.333,2.133-11.733,8.533-11.733,8.533
	s0-16,7.467-23.467s9.6-21.333,10.667-28.8c1.067-6.4,4.267-8.533,4.267-8.533c5.333-2.133,8.533-8.533,10.667-14.933
	c2.133,6.4,6.4,12.8,6.4,17.067C362.754,67.056,358.488,73.456,355.288,85.19z"/>
<path style="fill:#E8EAE9;" d="M323.288,63.856c0,0,0,13.867,2.133,18.133c0,0-7.467,1.067-10.667,8.533c0,0,0-9.6,1.067-13.867
	C316.888,72.39,321.154,64.923,323.288,63.856z"/>
<path style="fill:#415A6B;" d="M393.688,113.99c-2.133,7.467-4.267,35.2-4.267,41.6c0,3.2-3.2,9.6-5.333,14.933
	c-3.2,6.4-6.4,12.8-6.4,12.8s-4.267-6.4-6.4-11.733c-2.133-5.333-10.667-8.533-13.867-7.467c0,0,3.2-3.2,5.333-5.333
	s2.133-3.2,3.2-4.267c1.067-1.067,1.067-2.133,1.067-2.133c0-1.067-1.067-1.067,0-3.2c1.067-2.133,0-37.333,0-40.533l0,0
	c0-5.333,5.333-27.733,7.467-34.133c2.133-4.267,5.333-6.4,7.467-7.467l2.133-1.067l0,0c0,0,3.2-2.133,7.467,14.933
	C393.688,97.99,395.821,106.523,393.688,113.99z"/>
<path style="fill:#FFFFFF;" d="M218.754,317.723h-14.933c0-2.133,0-3.2,0-4.267c0-5.333,1.067-8.533,2.133-11.733
	c2.133-3.2,5.333-6.4,9.6-10.667c5.333-4.267,7.467-6.4,8.533-7.467c1.067-2.133,2.133-4.267,2.133-6.4c0-3.2-1.067-6.4-4.267-8.533
	c-2.133-2.133-6.4-3.2-10.667-3.2s-7.467,1.067-10.667,3.2c-3.2,2.133-5.333,6.4-6.4,10.667l-14.933-2.133
	c0-7.467,3.2-12.8,8.533-18.133c5.333-5.333,12.8-7.467,22.4-7.467s17.067,2.133,22.4,7.467c5.333,5.333,8.533,10.667,8.533,17.067
	c0,3.2-1.067,7.467-3.2,10.667c-2.133,3.2-6.4,7.467-12.8,13.867c-3.2,3.2-5.333,5.333-6.4,7.467
	C218.754,310.256,218.754,313.456,218.754,317.723z M203.821,340.123v-17.067h17.067v17.067H203.821z"/>
<g>
</g>
<g>
</g>
<g>
</g>
<g>
</g>
<g>
</g>
<g>
</g>
<g>
</g>
<g>
</g>
<g>
</g>
<g>
</g>
<g>
</g>
<g>
</g>
<g>
</g>
<g>
</g>
<g>
</g>
</svg>
