<?xml version="1.0" encoding="iso-8859-1"?>
<!-- Generator: Adobe Illustrator 19.0.0, SVG Export Plug-In . SVG Version: 6.00 Build 0)  -->
<svg version="1.1" id="Capa_1" xmlns="http://www.w3.org/2000/svg" xmlns:xlink="http://www.w3.org/1999/xlink" x="0px" y="0px"
	 viewBox="0 0 511.888 511.888" style="enable-background:new 0 0 511.888 511.888;" xml:space="preserve">
<path style="fill:#FFD15C;" d="M454.287,19.728l23.467,93.867c0,0-72.533,38.4-96,43.733c-23.467,5.333-55.467,9.6-74.667,5.333
	c0,0,0,0,0,1.067c0,4.267-2.133,8.533-6.4,11.733c-1.067,1.067-3.2,2.133-4.267,3.2c-9.6,7.467-22.4,8.533-26.667,9.6
	s-6.4,0-8.533-2.133c-2.133-1.067-13.867-4.267-17.067-4.267h-1.067c-2.133-1.067-3.2-1.067-3.2-1.067s-12.8-4.267-21.333-14.933
	c-8.533-9.6-8.533-9.6-8.533-9.6s-16,6.4-22.4-25.6c0,0-8.533-23.467-10.667-27.733c-3.2-4.267-2.133-14.933,4.267-22.4
	c6.4-7.467,40.533-32,46.933-40.533s22.4-14.933,33.067-11.733c10.667,3.2,60.8,14.933,75.733,17.067
	c14.933,3.2,28.8,7.467,49.067,1.067C406.287,41.061,454.287,19.728,454.287,19.728z"/>
<g>
	<path style="fill:#F7B64C;" d="M279.354,140.261c-1.067,0-2.133,0-4.267,1.067c-3.2,1.067-6.4,2.133-9.6,3.2
		c-4.267,2.133-7.467,4.267-11.733,6.4c-4.267,2.133-8.533,5.333-13.867,8.533c-2.133,1.067-5.333,3.2-7.467,5.333
		c-2.133,1.067-5.333,3.2-7.467,4.267c-1.067,0-1.067,1.067-2.133,1.067c1.067,1.067,1.067,1.067,2.133,2.133
		c0,0,1.067,0,1.067-1.067c3.2-1.067,5.333-3.2,8.533-4.267c2.133-2.133,5.333-3.2,7.467-5.333c4.267-3.2,9.6-6.4,13.867-8.533
		c4.267-3.2,8.533-5.333,11.733-6.4c3.2-2.133,6.4-3.2,9.6-4.267C277.22,141.328,278.287,141.328,279.354,140.261
		c1.067,0,2.133,0,3.2,0c1.067,0,2.133,0,2.133,0s-1.067,0-2.133,0C281.487,140.261,280.42,140.261,279.354,140.261z"/>
	<path style="fill:#F7B64C;" d="M223.887,172.261C223.887,172.261,222.82,172.261,223.887,172.261
		c-1.067-1.067-2.133-1.067-2.133-2.133l0,0l0,0c1.067,0,1.067-1.067,2.133-1.067c3.2-1.067,5.333-3.2,7.467-4.267
		c1.067-1.067,3.2-2.133,4.267-3.2s2.133-1.067,3.2-2.133c5.333-3.2,9.6-6.4,13.867-8.533c4.267-3.2,8.533-5.333,12.8-6.4
		c3.2-1.067,7.467-3.2,10.667-3.2c1.067,0,2.133,0,3.2-1.067l0,0l0,0c1.067,0,2.133,0,3.2,0s2.133,0,2.133,0l0,0l0,0v1.067h-2.133
		c-1.067,0-2.133,0-3.2,0h-1.067c-1.067,0-2.133,0-3.2,1.067c-3.2,1.067-6.4,2.133-9.6,4.267c-3.2,1.067-6.4,3.2-11.733,6.4
		c-4.267,3.2-8.533,6.4-13.867,8.533c-1.067,1.067-2.133,1.067-3.2,2.133c-1.067,1.067-3.2,2.133-4.267,3.2
		C229.22,169.061,227.087,170.128,223.887,172.261C224.954,172.261,223.887,172.261,223.887,172.261L223.887,172.261z
		 M221.754,170.128l1.067,1.067h1.067c3.2-1.067,5.333-3.2,8.533-4.267c1.067-1.067,3.2-2.133,4.267-3.2
		c1.067-1.067,2.133-1.067,3.2-2.133c4.267-3.2,9.6-6.4,13.867-8.533c5.333-3.2,8.533-5.333,11.733-6.4
		c1.067,0,1.067-1.067,2.133-1.067c-1.067,0-1.067,1.067-2.133,1.067c-3.2,1.067-7.467,3.2-11.733,6.4
		c-4.267,2.133-8.533,5.333-13.867,8.533c-1.067,1.067-2.133,1.067-3.2,2.133c-1.067,1.067-3.2,2.133-4.267,3.2
		c-2.133,1.067-5.333,3.2-7.467,4.267C222.82,170.128,222.82,170.128,221.754,170.128z"/>
	<path style="fill:#F7B64C;" d="M192.954,141.328c0-1.067,1.067-1.067,1.067-2.133l0,0l0,0l0,0l0,0l0,0l0,0l1.067-1.067
		c2.133-2.133,5.333-4.267,7.467-5.333c2.133-2.133,5.333-3.2,7.467-4.267s5.333-3.2,7.467-4.267c5.333-2.133,9.6-4.267,14.933-6.4
		c2.133-1.067,4.267-2.133,6.4-3.2c2.133-1.067,4.267-2.133,5.333-3.2c3.2-2.133,6.4-4.267,8.533-6.4
		c2.133-2.133,4.267-3.2,5.333-4.267c1.067-1.067,2.133-2.133,2.133-2.133s-2.133,2.133-7.467,5.333
		c-2.133,2.133-5.333,3.2-8.533,5.333c-2.133,1.067-3.2,2.133-5.333,3.2c-1.067,0-2.133,1.067-3.2,1.067
		c-1.067,0-2.133,1.067-3.2,1.067c-4.267,2.133-9.6,4.267-14.933,6.4c-2.133,1.067-5.333,2.133-8.533,4.267
		c-3.2,1.067-5.333,3.2-8.533,4.267c-3.2,2.133-5.333,3.2-7.467,5.333l-1.067,1.067l0,0l0,0l0,0l0,0l0,0
		c-1.067,1.067-1.067,1.067-2.133,2.133c0,0,0,0,0,1.067c0,1.067,1.067,2.133,1.067,3.2l0,0
		C191.887,142.394,192.954,142.394,192.954,141.328z"/>
	<path style="fill:#F7B64C;" d="M191.887,144.528L191.887,144.528C190.82,144.528,190.82,144.528,191.887,144.528
		c-1.067-1.067-1.067-2.133-2.133-3.2l0,0v-1.067c0-1.067,1.067-1.067,1.067-1.067l0,0l1.067-1.067l0,0l0,0l1.067-1.067
		c2.133-2.133,5.333-4.267,7.467-5.333c3.2-2.133,5.333-3.2,8.533-4.267c2.133-1.067,5.333-2.133,8.533-4.267
		c4.267-2.133,7.467-3.2,11.733-5.333c1.067,0,2.133-1.067,3.2-1.067c1.067,0,2.133-1.067,3.2-1.067h1.067
		c1.067,0,2.133-1.067,2.133-1.067c2.133-1.067,4.267-2.133,5.333-3.2c3.2-2.133,5.333-3.2,8.533-5.333
		c4.267-3.2,7.467-5.333,7.467-5.333h1.067v1.067c0,0-1.067,1.067-2.133,2.133l0,0c-1.067,1.067-3.2,2.133-5.333,4.267
		c-2.133,2.133-5.333,4.267-8.533,6.4c-2.133,1.067-3.2,2.133-5.333,3.2c-2.133,1.067-4.267,2.133-6.4,3.2l0,0
		c-1.067,1.067-3.2,1.067-4.267,2.133c-3.2,1.067-6.4,3.2-9.6,4.267c-3.2,1.067-5.333,3.2-7.467,4.267
		c-3.2,2.133-5.333,3.2-7.467,4.267c-3.2,2.133-5.333,3.2-7.467,5.333l-2.133,2.133l-1.067,1.067l0,0c0,0,0,0,0,1.067
		C192.954,143.461,191.887,143.461,191.887,144.528C191.887,143.461,191.887,143.461,191.887,144.528L191.887,144.528z
		 M190.82,140.261c0,1.067,0,1.067,1.067,2.133c0,0,0,0,0-1.067c0,0,0,0,0-1.067l1.067-1.067l1.067-1.067l1.067-1.067
		c2.133-2.133,5.333-4.267,7.467-5.333c2.133-1.067,5.333-3.2,7.467-4.267c2.133-1.067,5.333-2.133,7.467-4.267
		c3.2-2.133,6.4-3.2,9.6-4.267c1.067-1.067,3.2-1.067,4.267-2.133l0,0c2.133-1.067,4.267-2.133,6.4-3.2
		c2.133-1.067,4.267-2.133,5.333-3.2c1.067,0,1.067-1.067,2.133-1.067c-1.067,0-1.067,1.067-2.133,1.067
		c-2.133,1.067-3.2,2.133-5.333,3.2c-1.067,0-1.067,1.067-2.133,1.067h-1.067c-1.067,0-2.133,1.067-3.2,1.067
		c-1.067,0-2.133,1.067-3.2,1.067c-3.2,1.067-7.467,3.2-11.733,5.333c-3.2,1.067-5.333,2.133-8.533,4.267
		c-2.133,1.067-5.333,3.2-8.533,4.267c-3.2,2.133-5.333,3.2-7.467,5.333l1.067,2.133l0,0
		C191.887,139.194,191.887,139.194,190.82,140.261L190.82,140.261z M192.954,141.328L192.954,141.328L192.954,141.328z"/>
	<path style="fill:#F7B64C;" d="M240.954,181.861c3.2,0,6.4,0,9.6,1.067c1.067,0,2.133,0,2.133,0h1.067h1.067
		c1.067,0,2.133,1.067,2.133,1.067l2.133,1.067c1.067,1.067,3.2,1.067,4.267,1.067h1.067h1.067c0,0,0,0,1.067,0h1.067l0,0l0,0l0,0
		l0,0l0,0l0,0l0,0l0,0l0,0l0,0l0,0l0,0c1.067,0,1.067-1.067,1.067-2.133c0-1.067,1.067-1.067,1.067-2.133v-1.067v-1.067v-1.067
		h1.067c1.067,0,2.133,0,2.133,0c1.067,0,2.133,0,2.133,0c2.133,0,3.2-1.067,5.333-1.067c2.133-1.067,3.2-1.067,4.267-2.133
		c1.067,0,1.067-1.067,2.133-2.133l0,0l0,0l0,0l0,0l0,0l0,0l0,0l0,0v-1.067v-1.067v-1.067v-1.067v-1.067v-1.067v-1.067v-1.067
		v-1.067v-1.067c0-1.067-1.067-2.133-1.067-2.133s0-1.067-1.067-1.067l-1.067-1.067l-1.067-1.067l5.333-3.2c0,0-1.067,0-1.067-1.067
		h-1.067h1.067c0,0,1.067,0,1.067,1.067l1.067,1.067l1.067,1.067l1.067,1.067l1.067,1.067c1.067,1.067,1.067,1.067,1.067,2.133
		c0,0,0,1.067,1.067,1.067v1.067v1.067v1.067v1.067v1.067v1.067v1.067v1.067v1.067l0,0l0,0l0,0l0,0l0,0l0,0c0,0,0,0,0,1.067
		c-1.067,1.067-1.067,1.067-2.133,2.133c-1.067,1.067-3.2,2.133-5.333,3.2c-2.133,1.067-3.2,1.067-5.333,1.067
		c-1.067,0-2.133,0-3.2,0c-1.067,0-2.133,0-3.2,0l1.067-1.067c0,1.067,0,1.067,0,1.067v1.067c0,1.067-1.067,2.133-1.067,2.133
		c0,1.067-1.067,1.067-2.133,2.133h-1.067l0,0l0,0l0,0l0,0l0,0l0,0h-1.067c0,0,0,0-1.067,0c0,0,0,0-1.067,0h-1.067c0,0,0,0-1.067,0
		h-1.067h-1.067c-1.067,0-2.133,0-2.133-1.067c-1.067,0-1.067-1.067-2.133-1.067l-2.133-1.067c-1.067,0-1.067-1.067-2.133-1.067
		h-1.067h-1.067c-1.067,0-2.133,0-2.133-1.067c-2.133,0-3.2-1.067-5.333-1.067L240.954,181.861z"/>
	<path style="fill:#F7B64C;" d="M267.62,190.394L267.62,190.394c-1.067,0-1.067,0-1.067,0h-1.067c-1.067,0-2.133,0-2.133-1.067
		c-1.067,0-2.133-1.067-2.133-1.067l-2.133-1.067c-1.067,0-1.067-1.067-2.133-1.067h-1.067h-1.067c-1.067,0-1.067,0-2.133-1.067
		c-1.067,0-3.2-1.067-4.267-1.067l-5.333-1.067c0,0,0,0,0-1.067s0,0,1.067,0c4.267,0,7.467,1.067,9.6,1.067c1.067,0,2.133,0,2.133,0
		h1.067h1.067c1.067,0,2.133,1.067,2.133,1.067l2.133,1.067c1.067,1.067,3.2,1.067,4.267,1.067h1.067h1.067l0,0h1.067l0,0l0,0l0,0
		h1.067l0,0l1.067-1.067c1.067,0,1.067-1.067,1.067-1.067c0-1.067,1.067-1.067,1.067-2.133v-1.067v-1.067v-1.067v-1.067h1.067
		c1.067,0,2.133,0,2.133,0c1.067,0,2.133,0,2.133,0c2.133,0,3.2-1.067,5.333-1.067c2.133-1.067,3.2-1.067,4.267-2.133
		c1.067,0,1.067-1.067,2.133-2.133l0,0l0,0l0,0l0,0v-1.067v-1.067v-1.067c0,0,0,0,0-1.067c0,0,0,0,0-1.067c0,0,0,0,0-1.067
		c0,0,0,0,0-1.067c0,0,0,0,0-1.067l0,0v-1.067v-1.067v-1.067c0-1.067-1.067-1.067-1.067-2.133l0,0c0,0,0,0,0-1.067l-1.067-1.067
		l-1.067-1.067l-1.067-1.067c0,0,0,0-1.067,0l0,0h-1.067c0,0,0,0,0-1.067c0,0,0,0,1.067,0l0,0h1.067c0,0,1.067,0,1.067,1.067
		l1.067,1.067l1.067,1.067l1.067,1.067c0,0,0,0,1.067,1.067l0,0c0,1.067,1.067,1.067,1.067,2.133c0,0,0,1.067,1.067,1.067
		l1.067,2.133v1.067l0,0v1.067l0,0v1.067l0,0v1.067v1.067v1.067v1.067l0,0l0,0l0,0l0,0l0,0l0,0
		c-1.067,1.067-1.067,2.133-2.133,2.133c-1.067,1.067-3.2,2.133-5.333,3.2c-2.133,1.067-3.2,1.067-5.333,1.067
		c-1.067,0-2.133,0-3.2,0h-1.067l0,0v1.067c0,1.067-1.067,2.133-1.067,2.133c0,1.067-1.067,1.067-2.133,2.133l-1.067,1.067l0,0
		h-1.067c0,0,0,0-1.067,0l0,0c0,0,0,0-1.067,0L267.62,190.394C268.687,190.394,268.687,190.394,267.62,190.394z M254.82,183.994
		L254.82,183.994l1.067,1.067c1.067,0,1.067,1.067,2.133,1.067l2.133,1.067c1.067,0,1.067,1.067,2.133,1.067
		s2.133,1.067,2.133,1.067h1.067h1.067l0,0h1.067c0,0,0,0,1.067,0l0,0l0,0h1.067l0,0h1.067l0,0c1.067-1.067,1.067-1.067,2.133-2.133
		c0-1.067,1.067-1.067,1.067-2.133v-1.067l0,0l0,0l0,0v1.067c0,1.067-1.067,1.067-1.067,2.133s-1.067,1.067-1.067,2.133
		l-1.067,1.067l0,0l0,0l0,0l0,0l0,0l0,0l0,0l0,0l0,0h-1.067c0,0,0,0-1.067,0h-1.067h-1.067c-2.133,0-3.2-1.067-4.267-1.067
		l-2.133-1.067c-1.067,0-1.067-1.067-2.133-1.067L254.82,183.994z M275.087,179.728L275.087,179.728
		C275.087,180.794,275.087,180.794,275.087,179.728C275.087,180.794,275.087,180.794,275.087,179.728L275.087,179.728
		C276.154,179.728,276.154,179.728,275.087,179.728L275.087,179.728z M277.22,179.728L277.22,179.728L277.22,179.728
		c1.067,1.067,1.067,1.067,1.067,1.067c1.067,0,2.133,0,3.2,0c2.133,0,4.267-1.067,5.333-1.067c2.133-1.067,3.2-2.133,5.333-2.133
		c1.067-1.067,1.067-1.067,2.133-2.133l0,0l0,0l0,0l0,0v-1.067c0,0,0,0,0-1.067v-1.067v-1.067v-1.067l0,0v-1.067l0,0v-1.067l0,0
		v-1.067v-1.067v1.067v1.067l0,0v1.067l0,0v1.067c0,0,0,0,0,1.067c0,0,0,0,0,1.067v1.067v1.067v1.067l0,0l0,0l0,0l0,0l0,0
		c0,1.067-1.067,1.067-2.133,2.133c-1.067,1.067-3.2,2.133-5.333,2.133c-1.067,1.067-3.2,1.067-5.333,1.067c-1.067,0-2.133,0-3.2,0
		C277.22,179.728,277.22,179.728,277.22,179.728z"/>
	<path style="fill:#F7B64C;" d="M275.087,179.728c0,0,0-1.067,0-2.133c0-1.067,0-3.2-1.067-5.333c0-1.067-1.067-2.133-1.067-3.2
		c0-1.067-1.067-2.133-2.133-3.2c-1.067-1.067-2.133-2.133-3.2-3.2l0,0l0,0l0,0l0,0l-1.067-1.067c-1.067,0-1.067-1.067-2.133-1.067
		c-1.067-1.067-3.2-1.067-4.267-1.067s-3.2-1.067-4.267-1.067c-1.067,0-3.2,0-4.267,0s-1.067,0-2.133,0c-1.067,0-1.067,0-2.133,0
		c-1.067,0-2.133,0-3.2,0c-1.067,0-2.133,0-2.133,0c-1.067,0-2.133,0-2.133,0s1.067,0,2.133,0c1.067,0,1.067,0,2.133,0
		s2.133,0,3.2,0c1.067,0,2.133,0,4.267,0c1.067,0,3.2,0,4.267,0c1.067,0,3.2,0,4.267,1.067c1.067,0,3.2,1.067,4.267,1.067
		c1.067,0,1.067,1.067,2.133,1.067l1.067,1.067l0,0l0,0l0,0l0,0c1.067,1.067,2.133,2.133,3.2,3.2
		c1.067,1.067,2.133,2.133,2.133,4.267c0,1.067,1.067,2.133,1.067,3.2c0,2.133,0,4.267,0,5.333
		C276.154,179.728,275.087,179.728,275.087,179.728z"/>
	<path style="fill:#F7B64C;" d="M275.087,180.794L275.087,180.794L275.087,180.794c0-1.067,0-1.067,0-2.133
		c0-2.133,0-3.2-1.067-5.333c0-1.067-1.067-2.133-1.067-3.2c-1.067-1.067-1.067-2.133-2.133-3.2c-1.067-1.067-2.133-2.133-3.2-3.2
		h-1.067l0,0v-2.133c0,0-1.067,0-1.067-1.067c0,0,0,0-1.067,0s-3.2-1.067-4.267-1.067s-2.133-1.067-4.267-1.067
		c-1.067,0-3.2,0-4.267,0s-1.067,0-2.133,0c-1.067,0-1.067,0-2.133,0c-1.067,0-2.133,0-3.2,0h-2.133c-1.067,0-2.133,0-2.133,0l0,0
		c0,0,0,0,0-1.067c0,0,1.067,0,2.133,0h2.133c1.067,0,2.133,0,3.2,0c1.067,0,2.133,0,4.267,0c1.067,0,3.2,0,4.267,0
		c1.067,0,3.2,0,4.267,1.067c2.133,0,3.2,1.067,4.267,1.067c0,0,0,0,1.067,0c0,0,1.067,0,1.067,1.067l1.067,1.067l0,0l0,0h1.067
		c1.067,1.067,2.133,2.133,3.2,3.2c1.067,1.067,2.133,2.133,2.133,4.267c0,1.067,1.067,2.133,1.067,4.267c0,2.133,0,4.267,0,5.333
		C276.154,179.728,276.154,179.728,275.087,180.794C276.154,180.794,276.154,180.794,275.087,180.794z M254.82,157.328
		C255.887,157.328,255.887,157.328,254.82,157.328c2.133,0,3.2,1.067,4.267,1.067c1.067,0,3.2,1.067,4.267,1.067c0,0,0,0,1.067,0
		c0,0,1.067,0,1.067,1.067l1.067,1.067l0,0l0,0l0,0c1.067,1.067,2.133,2.133,3.2,3.2l0,0l0,0c-1.067-1.067-2.133-2.133-3.2-3.2
		l-1.067-1.067l1.067,0c0,0-1.067,0-1.067-1.067c0,0,0,0-1.067,0s-3.2-1.067-4.267-1.067S256.954,157.328,254.82,157.328
		C255.887,157.328,255.887,157.328,254.82,157.328z"/>
	<path style="fill:#F7B64C;" d="M306.02,161.594L306.02,161.594c-1.067-1.067-1.067-2.133-2.133-3.2
		c-1.067-1.067-1.067-2.133-2.133-2.133c0,0-1.067-1.067-2.133-1.067c-1.067,0-1.067-1.067-2.133-1.067s-1.067-1.067-2.133-1.067
		h-1.067h-1.067h-1.067h-1.067h-1.067h-1.067c-1.067,0-1.067,0-1.067,0h-1.067c-1.067,0-1.067,0-1.067,0s0,0,1.067,0h1.067h1.067
		c1.067,0,1.067,0,2.133,0s1.067,0,2.133,0h1.067h1.067h1.067c1.067,0,1.067,0,2.133,1.067c1.067,0,1.067,1.067,2.133,1.067
		s1.067,1.067,2.133,1.067l1.067,1.067l1.067,1.067C304.954,159.461,306.02,160.528,306.02,161.594L306.02,161.594z"/>
	<path style="fill:#F7B64C;" d="M306.02,162.661L306.02,162.661l-1.067-1.067c0-1.067-1.067-1.067-1.067-2.133
		c-1.067-1.067-2.133-2.133-2.133-2.133s-1.067-1.067-2.133-1.067c-1.067,0-1.067-1.067-2.133-1.067s-1.067,0-2.133-1.067h-1.067
		c0,0,0,0-1.067,0l0,0c0,0,0,0-1.067,0l0,0h-1.067l0,0c0,0,0,0-1.067,0l0,0c0,0,0,0-1.067,0c0,0,0,0-1.067,0h-1.067c0,0,0,0-1.067,0
		c0,0,0,0-1.067,0s-1.067,0-1.067,0s0,0-1.067,0c0,0,0,0,0-1.067c0,0,0,0,1.067,0h1.067l0,0h1.067l0,0c0,0,1.067,0,2.133,0
		s1.067,0,2.133,0h1.067h1.067h1.067c1.067,0,1.067,0,2.133,1.067c1.067,0,1.067,1.067,2.133,1.067s1.067,1.067,2.133,1.067
		l1.067,1.067l1.067,1.067c0,1.067,1.067,2.133,1.067,2.133C307.087,161.594,307.087,161.594,306.02,162.661
		C307.087,161.594,307.087,162.661,306.02,162.661L306.02,162.661z M294.287,151.994L294.287,151.994L294.287,151.994h1.067h1.067
		c1.067,0,1.067,0,2.133,1.067c1.067,0,1.067,1.067,2.133,1.067c1.067,0,1.067,1.067,2.133,1.067l0,0l0,0
		c0,0-1.067-1.067-2.133-1.067c-1.067,0-1.067-1.067-2.133-1.067s-1.067-1.067-2.133-1.067H294.287L294.287,151.994L294.287,151.994
		z"/>
	<path style="fill:#F7B64C;" d="M219.62,134.928c0-2.133,0-4.267,0-7.467c0-1.067,0-2.133,0-3.2c0-1.067,0-2.133,0-3.2
		c0-1.067,0-1.067,0-2.133v-2.133v-2.133c0-1.067,0-1.067,0-2.133c0-1.067,0-1.067,0-2.133c0-1.067,0-1.067-1.067-2.133
		c0-1.067,0-1.067-1.067-2.133l-1.067-1.067l0,0l0,0c2.133-1.067,3.2-2.133,5.333-3.2c2.133-1.067,3.2-2.133,4.267-4.267
		c1.067-1.067,3.2-3.2,4.267-4.267l1.067-1.067c0,0,0-1.067,1.067-1.067c0,0,0-1.067,1.067-1.067c0,0,0,0,0-1.067c0,0,0,0,0-1.067
		v-1.067l1.067,1.067c0,1.067,1.067,1.067,1.067,2.133l1.067,1.067c1.067,1.067,2.133,2.133,3.2,3.2
		c1.067,0,1.067,1.067,2.133,1.067c1.067,0,1.067,1.067,2.133,1.067h1.067h1.067c1.067,0,1.067,1.067,2.133,1.067
		c1.067,0,1.067,0,2.133,1.067c1.067,0,1.067,0,2.133,0s1.067,0,2.133,0c1.067,0,1.067,0,2.133,0c1.067,0,1.067,0,2.133,0
		s1.067,0,2.133,0c1.067,0,1.067,0,2.133,0c1.067,0,1.067,0,2.133,0c-1.067,0-1.067,0-2.133,0c-1.067,0-1.067,0-2.133,0
		c-1.067,0-1.067,0-2.133,0s-1.067,0-2.133,0c-1.067,0-1.067,0-2.133,0c-1.067,0-1.067,0-2.133,0s-1.067,0-2.133,0
		c-1.067,0-1.067,0-2.133-1.067c-1.067,0-1.067,0-2.133-1.067h-1.067h-1.067c-1.067,0-1.067-1.067-2.133-1.067
		c-3.2,0-4.267,0-4.267,0c-1.067-1.067-2.133-2.133-3.2-3.2l-1.067-1.067c0-1.067-1.067-1.067-1.067-2.133h1.067v1.067v1.067
		c0,0,0,1.067-1.067,1.067c0,0,0,1.067-1.067,1.067l-1.067,1.067c-1.067,2.133-3.2,3.2-4.267,4.267
		c-1.067,1.067-3.2,3.2-4.267,4.267c-2.133,1.067-3.2,2.133-5.333,3.2v-1.067l1.067,2.133c0,1.067,0,1.067,1.067,2.133
		c0,1.067,0,1.067,1.067,2.133c0,1.067,0,1.067,0,2.133c0,1.067,0,1.067,0,2.133v2.133v2.133c0,1.067,0,1.067,0,2.133
		c0,1.067,0,1.067,0,2.133c0,1.067,0,1.067,0,2.133c0,1.067,0,2.133,0,3.2C219.62,129.594,219.62,131.728,219.62,134.928z"/>
	<path style="fill:#F7B64C;" d="M219.62,134.928L219.62,134.928L219.62,134.928c-1.067-3.2-1.067-5.333-1.067-7.467
		c0-1.067,0-2.133,0-3.2v-1.067c0-1.067,0-2.133,0-2.133l0,0v-1.067l-1.067-3.2v-1.067v-1.067v-1.067c0,0,0,0,0-1.067v-1.067v-1.067
		v-1.067l-3.2-3.2v-1.067l0,0c1.067-1.067,3.2-2.133,5.333-3.2s3.2-3.2,4.267-4.267c2.133-2.133,3.2-3.2,4.267-4.267
		c0,0,0-1.067,1.067-1.067l0,0c0,0,0-1.067,1.067-1.067c0,0,0-1.067,1.067-1.067l0,0l0,0l0,0v-2.133l0,0c0,0,0,0,1.067,0
		l1.067,1.067l1.067,1.067l1.067,1.067c1.067,1.067,2.133,2.133,3.2,3.2c1.067,0,1.067,1.067,2.133,1.067c0,0,0,0,1.067,0
		l2.133,1.067c1.067,0,1.067,0,2.133,1.067c1.067,0,1.067,0,2.133,1.067h1.067c1.067,0,1.067,0,2.133,0h1.067h1.067h1.067
		c1.067,0,1.067,0,2.133,0c1.067,0,1.067,0,2.133,0h1.067h1.067h1.067l0,0l0,0l0,0v1.067h-1.067h-1.067h-1.067h-1.067l0,0
		c-1.067,0-1.067,0-2.133,0c-1.067,0-1.067,0-2.133,0c-1.067,0-1.067,0-2.133,0l0,0c-1.067,0-1.067,0-2.133,0s-1.067,0-2.133,0
		h-1.067c-1.067,0-1.067,0-2.133,0c-1.067,0-1.067,0-2.133-1.067l0,0l-2.133-1.067c-1.067,0-1.067-1.067-2.133-1.067
		c-1.067,0-1.067-1.067-2.133-1.067c-1.067-1.067-2.133-2.133-3.2-3.2l-1.067-1.067v1.067c0,0,0,1.067-1.067,1.067l-1.067,1.067
		c-1.067,1.067-2.133,3.2-4.267,4.267c-1.067,1.067-3.2,3.2-4.267,4.267s-3.2,2.133-4.267,3.2v1.067v1.067v1.067v1.067
		c0,0,0,0,0,1.067v1.067v1.067v1.067v2.133v2.133v1.067c0,0,0,0,0,1.067s0,1.067,0,2.133v1.067v1.067c0,1.067,0,2.133,0,3.2
		C220.687,129.594,220.687,132.794,219.62,134.928C220.687,134.928,219.62,134.928,219.62,134.928z M215.354,107.194
		L215.354,107.194C216.42,108.261,216.42,108.261,215.354,107.194C216.42,108.261,216.42,108.261,215.354,107.194L215.354,107.194
		L215.354,107.194z M216.42,106.128L216.42,106.128c1.067-1.067,3.2-2.133,4.267-3.2c2.133-1.067,3.2-3.2,4.267-4.267
		c2.133-1.067,3.2-3.2,4.267-4.267l1.067-1.067c0,0,0-1.067,1.067-1.067c0,0,0-1.067,1.067-1.067l0,0l0,0l0,0
		c0,0,0,1.067-1.067,1.067c0,0,0,1.067-1.067,1.067l0,0c0,0,0,1.067-1.067,1.067c-1.067,1.067-2.133,3.2-4.267,4.267
		c-1.067,1.067-3.2,2.133-4.267,4.267C218.554,103.994,217.487,105.061,216.42,106.128z M232.42,90.128
		C232.42,90.128,233.487,90.128,232.42,90.128c1.067,1.067,2.133,1.067,2.133,2.133c1.067,1.067,1.067,1.067,2.133,2.133
		c-1.067-1.067-1.067-1.067-2.133-2.133C234.554,91.194,233.487,91.194,232.42,90.128C233.487,90.128,232.42,90.128,232.42,90.128
		L232.42,90.128z"/>
	<path style="fill:#F7B64C;" d="M238.82,95.461C238.82,95.461,239.887,95.461,238.82,95.461c1.067,1.067,2.133,2.133,3.2,3.2
		c0,0,1.067,1.067,1.067,2.133s1.067,1.067,1.067,2.133s1.067,1.067,1.067,2.133s1.067,1.067,1.067,2.133s1.067,1.067,1.067,2.133
		s1.067,1.067,1.067,2.133s1.067,1.067,1.067,2.133s0,1.067,1.067,2.133c0,1.067,0,1.067,0,2.133v1.067c0,1.067,0,1.067,0,1.067
		s0,0,0-1.067c0,0,0-1.067-1.067-1.067c0,0,0-1.067-1.067-1.067c0-1.067-1.067-1.067-1.067-2.133c0-1.067-1.067-1.067-1.067-2.133
		c0-1.067-1.067-1.067-1.067-2.133c0-1.067-1.067-1.067-1.067-2.133c0-1.067-1.067-1.067-1.067-2.133
		c0-1.067-1.067-1.067-1.067-2.133c0-1.067-1.067-1.067-1.067-2.133c0-1.067-1.067-1.067-1.067-2.133l-1.067-1.067
		C239.887,96.528,239.887,96.528,238.82,95.461L238.82,95.461z"/>
	<path style="fill:#F7B64C;" d="M252.687,119.994C252.687,119.994,251.62,119.994,252.687,119.994l-1.067-1.067l-1.067-2.133
		c0,0,0-1.067-1.067-1.067c0-1.067-1.067-1.067-1.067-2.133l0,0c0,0,0-1.067-1.067-1.067c0,0,0-1.067-1.067-1.067
		c-1.067,0,0-1.067-1.067-1.067c0,0,0-1.067-1.067-1.067v-1.067c1.067-2.133,1.067-2.133,1.067-3.2l-1.067-1.067
		c0-1.067-1.067-1.067-1.067-2.133v-1.067c0,0,0-1.067-1.067-1.067l-1.067-1.067l0,0l-1.067-1.067l-1.067-1.067
		c0-1.067-1.067-1.067-1.067-1.067s0,0,0-1.067c0,0,0,0,1.067,0c0,0,0,0,1.067,1.067c1.067,1.067,1.067,1.067,2.133,2.133
		c0,0,1.067,1.067,1.067,2.133c0,1.067,1.067,1.067,1.067,2.133l0,0c0,1.067,1.067,1.067,1.067,2.133v1.067l1.067,1.067v1.067
		c0,0,0,1.067,1.067,1.067l0,0c0,1.067,1.067,1.067,1.067,2.133s1.067,1.067,1.067,2.133l0,0c0,1.067,0,1.067,1.067,2.133
		c0,1.067,0,1.067,0,2.133v1.067C252.687,118.928,252.687,118.928,252.687,119.994C252.687,118.928,252.687,119.994,252.687,119.994
		L252.687,119.994z M244.154,101.861L244.154,101.861c1.067,1.067,1.067,1.067,1.067,2.133l1.067,1.067
		c0,1.067,1.067,1.067,1.067,2.133v1.067l1.067,1.067c0,0,0,1.067,1.067,1.067c0,0,0,1.067,1.067,1.067l0,0l0,0
		c0-1.067-1.067-1.067-1.067-2.133l0,0c0,0,0-1.067-1.067-1.067v-1.067c0,0,0-1.067-1.067-1.067v-1.067
		C245.22,103.994,245.22,102.928,244.154,101.861L244.154,101.861L244.154,101.861z"/>
	<path style="fill:#F7B64C;" d="M231.354,87.994c0,0,0-1.067,0-3.2c0-1.067,0-2.133,0-3.2s0-1.067,0-2.133s0-1.067,0-2.133
		s0-1.067,0-2.133s0-1.067,0-2.133s0-1.067,0-2.133s0-1.067,0-2.133v-1.067v-1.067c0-1.067,0-1.067,0-1.067s0,0,0,1.067v1.067v1.067
		c0,0,0,1.067,1.067,2.133c0,1.067,0,1.067,0,2.133s0,1.067,0,2.133s0,1.067,0,2.133s0,1.067,0,2.133s0,1.067,0,2.133s0,2.133,0,3.2
		c0,2.133,0,3.2,0,3.2H231.354z"/>
	<path style="fill:#F7B64C;" d="M232.42,89.061L232.42,89.061h-1.067l0,0l0,0c0,0,0-1.067,0-3.2c0-1.067,0-2.133,0-3.2v-1.067
		v-1.067v-1.067v-1.067v-1.067c0-1.067,0-1.067,0-2.133l0,0c0-1.067,0-1.067,0-2.133v-1.067v-1.067v-1.067c0,0,0,0,0-1.067l0,0
		v-1.067v-1.067h1.067v1.067v1.067c0,0,0,0,0,1.067v1.067v1.067l0,0c0,1.067,0,1.067,0,2.133s0,1.067,0,2.133v1.067l0,0v1.067v1.067
		c0,1.067,0,1.067,0,2.133s0,2.133,0,3.2C233.487,86.928,232.42,89.061,232.42,89.061L232.42,89.061L232.42,89.061z M231.354,87.994
		L231.354,87.994c0,0,0-1.067,0-2.133C232.42,86.928,231.354,87.994,231.354,87.994z"/>
	<path style="fill:#F7B64C;" d="M214.287,107.194L214.287,107.194c0,0,0-1.067-1.067-1.067c0-1.067-1.067-2.133-2.133-3.2
		c-1.067-1.067-2.133-2.133-3.2-3.2c-1.067-1.067-1.067-1.067-2.133-2.133c-1.067-1.067-1.067-1.067-2.133-2.133
		c0-1.067-1.067-1.067-1.067-2.133c-1.067-1.067-1.067-1.067-2.133-1.067c0,0-1.067,0-1.067-1.067c0,0-1.067,0-1.067-1.067
		c-1.067,0-1.067-1.067-2.133-1.067c-1.067,0-1.067,0-2.133-1.067c-1.067,0-1.067,0-1.067,0c-1.067,0-1.067,0-1.067,0s0,0,1.067,0
		h1.067c1.067,0,1.067,0,2.133,1.067c1.067,0,1.067,1.067,2.133,1.067c0,0,1.067,0,1.067,1.067c0,0,1.067,0,1.067,1.067
		c1.067,0,1.067,1.067,2.133,1.067c1.067,0,1.067,1.067,2.133,2.133c1.067,1.067,1.067,1.067,2.133,2.133
		c1.067,1.067,1.067,1.067,2.133,2.133c1.067,1.067,2.133,2.133,3.2,3.2c1.067,1.067,2.133,2.133,2.133,3.2
		C215.354,105.061,215.354,106.128,214.287,107.194C215.354,106.128,215.354,106.128,214.287,107.194L214.287,107.194z"/>
	<path style="fill:#F7B64C;" d="M214.287,107.194L214.287,107.194L214.287,107.194c0-1.067,0-1.067-1.067-1.067l0,0
		c0-1.067-1.067-1.067-2.133-3.2c-1.067-1.067-2.133-2.133-3.2-3.2l-1.067-1.067l-1.067-1.067l-1.067-1.067c0,0,0,0-1.067-1.067
		l-1.067-1.067c-1.067-1.067-1.067-1.067-2.133-1.067c0,0-1.067,0-1.067-1.067c0,0,0,0-1.067,0l0,0c0,0,0,0-1.067,0
		c0,0-1.067,0-1.067-1.067c0,0-1.067,0-1.067-1.067l0,0h-1.067c0,0,0,0-1.067,0h-1.067c0,0,0,0,0-1.067c0,0,0,0,1.067,0h2.133h1.067
		l2.133,1.067c0,0,1.067,0,1.067,1.067c0,0,0,0,1.067,0l0,0c0,0,0,0,1.067,0l1.067,1.067c1.067,0,1.067,1.067,2.133,1.067l0,0
		c1.067,0,1.067,1.067,1.067,1.067s0,0,1.067,1.067l1.067,1.067l1.067,1.067l1.067,1.067c1.067,1.067,2.133,2.133,3.2,3.2
		c1.067,1.067,2.133,2.133,2.133,3.2c0,0,0,1.067,1.067,1.067l0,0l0,0l0,0L214.287,107.194
		C215.354,107.194,215.354,107.194,214.287,107.194z M213.22,102.928c1.067,1.067,1.067,2.133,2.133,2.133l0,0l0,0l0,0
		c0,0,0,0,0-1.067C214.287,105.061,213.22,103.994,213.22,102.928z"/>
	<path style="fill:#F7B64C;" d="M288.954,155.194L288.954,155.194c-1.067-1.067-1.067-1.067-2.133-1.067
		c-1.067,0-1.067-1.067-2.133-1.067h-1.067h-1.067c-1.067,0-2.133,0-3.2,0s-1.067,0-2.133,0s-1.067,0-2.133,0
		c-1.067,0-3.2,0-4.267,0c-1.067,0-3.2,0-4.267,0c-1.067,0-3.2,0-4.267,1.067c-1.067,0-3.2,0-4.267,0c-1.067,0-3.2,0-4.267,0
		c-1.067,0-2.133,0-3.2,0c-2.133,0-4.267-1.067-5.333-1.067c-1.067,0-2.133,0-2.133,0s1.067,0,2.133,0c1.067,0,3.2,0,5.333,0
		c1.067,0,2.133,0,3.2,0c1.067,0,2.133,0,4.267,0c1.067,0,3.2,0,4.267,0c1.067,0,3.2,0,4.267-1.067c1.067,0,3.2,0,4.267,0
		c1.067,0,3.2,0,4.267,0c1.067,0,1.067,0,2.133,0s1.067,0,2.133,0c1.067,0,1.067,0,2.133,0c1.067,0,1.067,0,2.133,0
		s2.133,0,3.2,1.067c1.067,0,1.067,1.067,2.133,1.067C287.887,154.128,287.887,154.128,288.954,155.194L288.954,155.194z"/>
	<path style="fill:#F7B64C;" d="M288.954,155.194L288.954,155.194C287.887,155.194,287.887,155.194,288.954,155.194
		c-1.067-1.067-1.067-1.067-2.133-1.067c0,0-1.067,0-2.133-1.067l0,0h-1.067h-1.067c-1.067,0-2.133,0-3.2,0s-1.067,0-2.133,0
		s-1.067,0-2.133,0c-1.067,0-2.133,0-3.2,0h-1.067c-1.067,0-3.2,0-4.267,0l-4.267,1.067c-2.133,0-3.2,0-4.267,0
		c-1.067,0-3.2,0-4.267,0c-1.067,0-2.133,0-3.2,0c-1.067,0-2.133,0-3.2-1.067c-1.067,0-1.067,0-2.133,0c-1.067,0-2.133,0-2.133,0
		s0,0,0-1.067l0,0l0,0c0,0,1.067,0,2.133,0c0,0,1.067,0,2.133,0s2.133,0,3.2,0c1.067,0,2.133,0,3.2,0c1.067,0,2.133,0,4.267,0
		c1.067,0,2.133,0,3.2,0l5.333-1.067c1.067,0,3.2,0,4.267,0c1.067,0,3.2,0,4.267,0h1.067h1.067h2.133h1.067c0,0,0,0,1.067,0h1.067
		c1.067,0,2.133,0,3.2,1.067c1.067,0,2.133,1.067,2.133,1.067c1.067,0,1.067,1.067,1.067,1.067S288.954,154.128,288.954,155.194
		L288.954,155.194L288.954,155.194z M275.087,151.994L275.087,151.994c-2.133,0-3.2,0-4.267,0c-1.067,0-3.2,0-4.267,0l-5.333,1.067
		c-1.067,0-2.133,0-3.2,0c0,0,0,0-1.067,0c0,0,0,0,1.067,0c1.067,0,3.2,0,4.267,0l4.267-1.067c1.067,0,3.2,0,4.267,0h1.067
		C271.887,151.994,274.02,151.994,275.087,151.994L275.087,151.994z"/>
</g>
<path style="fill:#FFD15C;" d="M266.554,143.461c0,0,3.2,4.267,7.467,7.467"/>
<g>
	<path style="fill:#F7B64C;" d="M274.02,151.994L274.02,151.994c-4.267-3.2-7.467-7.467-7.467-7.467v-1.067h1.067
		C267.62,143.461,270.82,147.728,274.02,151.994C275.087,151.994,275.087,151.994,274.02,151.994
		C275.087,151.994,275.087,151.994,274.02,151.994z"/>
	<path style="fill:#F7B64C;" d="M266.554,143.461c0,0,1.067,0,1.067,1.067l1.067,1.067l1.067,1.067l1.067,1.067l1.067,1.067
		l1.067,1.067l0,0c0,0-1.067,0-1.067-1.067l-1.067-1.067l-1.067-1.067c0,0,0,0-1.067-1.067c0,0,0,0-1.067-1.067L266.554,143.461
		C267.62,144.528,266.554,143.461,266.554,143.461z"/>
	<path style="fill:#F7B64C;" d="M274.02,151.994L274.02,151.994c0,0-1.067,0-2.133-1.067l-1.067-1.067l-1.067-1.067
		c0,0,0,0-1.067-1.067l0,0l0,0l-1.067-1.067c-1.067-2.133-1.067-2.133-1.067-2.133s0,0,0-1.067c0,0,0,0,1.067,0
		c0,0,1.067,0,1.067,1.067l1.067,1.067l1.067,1.067l1.067,1.067l1.067,1.067l1.067,1.067
		C275.087,150.928,275.087,151.994,274.02,151.994C275.087,151.994,275.087,151.994,274.02,151.994
		C275.087,151.994,275.087,151.994,274.02,151.994z M269.754,146.661L269.754,146.661L269.754,146.661L269.754,146.661
		c1.067,1.067,1.067,1.067,1.067,1.067l1.067,1.067l0,0l0,0l-1.067-1.067C269.754,147.728,269.754,146.661,269.754,146.661
		L269.754,146.661z"/>
</g>
<rect x="384.056" y="27.16" transform="matrix(-0.9409 0.3387 -0.3387 -0.9409 847.4833 26.9621)" style="fill:#F3F3F3;" width="74.667" height="120.534"/>
<rect x="395.712" y="11.208" transform="matrix(-0.9409 0.3387 -0.3387 -0.9409 887.7203 20.0373)" style="fill:#415A6B;" width="92.8" height="152.534"/>
<circle style="fill:#344A5E;" cx="442.554" cy="140.261" r="13.867"/>
<path style="fill:#F3705A;" d="M143.887,229.861c-6.4-4.267-6.4-13.867-2.133-19.2c2.133-2.133,5.333-4.267,8.533-5.333
	l-17.067-13.867c-4.267-3.2-5.333-9.6-1.067-13.867l13.867-17.067c-3.2,0-7.467-1.067-9.6-4.267
	c-4.267-4.267-5.333-11.733-2.133-17.067c4.267-7.467,13.867-8.533,20.267-3.2c2.133,2.133,4.267,5.333,5.333,8.533l13.867-17.067
	c3.2-4.267,9.6-5.333,13.867-1.067l17.067,13.867c-3.2,1.067-6.4,2.133-8.533,5.333c-4.267,5.333-3.2,13.867,2.133,18.133
	c6.4,5.333,14.933,4.267,20.267-1.067c2.133-2.133,3.2-5.333,3.2-8.533l17.067,13.867c4.267,3.2,5.333,9.6,1.067,13.867l-16,16
	c3.2,0,6.4,1.067,9.6,3.2c5.333,4.267,6.4,12.8,2.133,18.133c-4.267,6.4-13.867,7.467-20.267,3.2
	c-2.133-2.133-4.267-5.333-5.333-8.533l-13.867,17.067c-3.2,4.267-9.6,5.333-13.867,1.067l-17.067-13.867c0,3.2-1.067,6.4-3.2,8.533
	C157.754,234.128,149.22,235.194,143.887,229.861z"/>
<g>
	<path style="fill:#FFD15C;" d="M262.287,97.594c0,0-12.8,10.667-24.533,17.067c-11.733,6.4-32,12.8-42.667,23.467
		c-10.667,10.667-7.467,22.4-3.2,27.733c4.267,6.4,14.933,17.067,42.667-1.067s36.267-23.467,51.2-24.533
		c13.867-1.067,22.4,2.133,33.067,2.133c10.667,0,32-4.267,32-4.267L262.287,97.594z"/>
	<path style="fill:#FFD15C;" d="M86.287,491.194l-44.8-85.333c0,0,61.867-54.4,83.2-66.133c21.333-10.667,51.2-23.467,70.4-23.467
		c0,0,0,0,0-1.067c-1.067-4.267,0-9.6,3.2-12.8c1.067-1.067,2.133-3.2,3.2-4.267c7.467-9.6,19.2-12.8,23.467-16
		c3.2-2.133,5.333-1.067,8.533,0c3.2,1.067,14.933,1.067,18.133,0h1.067c2.133,0,3.2,0,3.2,0s13.867,1.067,24.533,9.6
		c10.667,7.467,10.667,7.467,10.667,7.467s13.867-9.6,27.733,20.267c0,0,13.867,20.267,17.067,24.533
		c4.267,3.2,5.333,13.867,1.067,22.4s-30.933,41.6-35.2,51.2s-18.133,20.267-28.8,19.2c-11.733,0-61.867,1.067-77.867,1.067
		c-14.933,1.067-30.933,0-49.067,10.667C126.82,458.128,86.287,491.194,86.287,491.194z"/>
</g>
<g>
	<path style="fill:#F7B64C;" d="M226.02,330.128c1.067,0,2.133-1.067,3.2-2.133c2.133-1.067,5.333-3.2,8.533-5.333
		c3.2-2.133,6.4-5.333,10.667-9.6c3.2-3.2,7.467-7.467,11.733-11.733c2.133-2.133,4.267-4.267,6.4-6.4
		c2.133-2.133,4.267-4.267,6.4-6.4c1.067-1.067,1.067-1.067,2.133-2.133c-1.067,0-2.133-1.067-2.133-1.067l-1.067,1.067
		c-2.133,2.133-4.267,4.267-6.4,6.4c-2.133,2.133-4.267,4.267-6.4,6.4c-4.267,4.267-7.467,8.533-10.667,11.733
		c-3.2,3.2-6.4,6.4-9.6,9.6c-3.2,2.133-6.4,4.267-8.533,6.4C228.154,329.061,227.087,330.128,226.02,330.128
		c-1.067,0-2.133,0-3.2,1.067c-1.067,1.067-2.133,1.067-2.133,1.067s1.067,0,2.133-1.067
		C224.954,331.194,224.954,331.194,226.02,330.128z"/>
	<path style="fill:#F7B64C;" d="M310.287,308.794c0,1.067-1.067,1.067-1.067,2.133l0,0l0,0l0,0l0,0l0,0l0,0l-1.067,1.067
		c-2.133,2.133-4.267,5.333-5.333,7.467c-2.133,2.133-4.267,4.267-6.4,6.4c-2.133,2.133-4.267,4.267-6.4,5.333
		c-4.267,3.2-8.533,7.467-12.8,10.667c-2.133,1.067-4.267,3.2-5.333,4.267c-2.133,1.067-3.2,3.2-4.267,4.267
		c-3.2,3.2-5.333,5.333-6.4,8.533c-2.133,2.133-3.2,4.267-4.267,5.333c-1.067,1.067-1.067,2.133-1.067,2.133s2.133-3.2,5.333-7.467
		c2.133-2.133,4.267-5.333,7.467-7.467c1.067-1.067,3.2-3.2,4.267-4.267c1.067-1.067,2.133-1.067,3.2-2.133
		c1.067-1.067,2.133-1.067,3.2-2.133c4.267-3.2,8.533-6.4,12.8-9.6c2.133-2.133,4.267-3.2,6.4-5.333
		c2.133-2.133,4.267-4.267,6.4-6.4s4.267-4.267,6.4-7.467l1.067-1.067l0,0l0,0l0,0l0,0l0,0c0-1.067,1.067-1.067,1.067-2.133
		c0,0,0,0,0-1.067c-1.067-1.067-1.067-2.133-2.133-3.2l0,0C310.287,307.728,310.287,307.728,310.287,308.794z"/>
	<path style="fill:#F7B64C;" d="M253.754,368.528L253.754,368.528C252.687,368.528,252.687,367.461,253.754,368.528
		c0-1.067,0-1.067,1.067-3.2c1.067-2.133,2.133-3.2,4.267-5.333c1.067-2.133,4.267-5.333,6.4-8.533c1.067-1.067,3.2-3.2,4.267-4.267
		c2.133-2.133,3.2-3.2,5.333-4.267c1.067-1.067,2.133-2.133,4.267-3.2c3.2-2.133,5.333-4.267,8.533-7.467
		c2.133-2.133,4.267-4.267,6.4-5.333c2.133-2.133,4.267-4.267,6.4-6.4s4.267-4.267,5.333-7.467l1.067-1.067l0,0l1.067-1.067
		l1.067-1.067l0,0c0,0,0,0,0-1.067v-1.067l0,0l0,0l0,0c1.067,1.067,1.067,2.133,2.133,3.2l0,0c0,0,0,0,0,1.067
		c0,1.067-1.067,1.067-1.067,2.133c0,0,0,0,0,1.067l-1.067,1.067l-1.067,1.067c-2.133,2.133-4.267,5.333-6.4,7.467
		c-2.133,2.133-4.267,4.267-6.4,6.4c-2.133,2.133-4.267,3.2-6.4,5.333c-3.2,3.2-6.4,5.333-9.6,7.467
		c-1.067,1.067-2.133,1.067-3.2,2.133c-1.067,1.067-2.133,1.067-3.2,2.133h-1.067c-1.067,1.067-1.067,1.067-2.133,2.133
		c-2.133,1.067-3.2,3.2-4.267,4.267c-2.133,2.133-5.333,5.333-7.467,7.467C255.887,365.328,253.754,368.528,253.754,368.528
		L253.754,368.528z M308.154,311.994L308.154,311.994l-1.067,1.067c-2.133,2.133-3.2,5.333-6.4,7.467
		c-2.133,2.133-4.267,4.267-6.4,6.4c-2.133,2.133-4.267,4.267-6.4,5.333c-3.2,2.133-6.4,5.333-8.533,7.467
		c-1.067,1.067-2.133,2.133-4.267,3.2s-4.267,3.2-5.333,4.267c-2.133,1.067-3.2,3.2-4.267,4.267l-1.067,1.067l1.067-1.067
		c1.067-1.067,3.2-3.2,4.267-4.267c1.067-1.067,1.067-1.067,2.133-2.133h1.067c1.067-1.067,2.133-1.067,3.2-2.133
		c1.067-1.067,2.133-1.067,3.2-2.133c3.2-2.133,6.4-5.333,9.6-7.467c2.133-2.133,5.333-4.267,6.4-5.333
		c2.133-2.133,4.267-4.267,6.4-6.4c2.133-2.133,4.267-5.333,6.4-7.467l1.067-2.133c0,0,0,0,0-1.067l1.067-1.067l0,0
		c0-1.067-1.067-1.067-1.067-2.133c0,0,0,0,0,1.067c0,0,0,0,0,1.067C309.22,309.861,309.22,310.928,308.154,311.994L308.154,311.994
		z M308.154,311.994L308.154,311.994L308.154,311.994z"/>
	<path style="fill:#F7B64C;" d="M252.687,281.061c-3.2,1.067-6.4,1.067-9.6,1.067c-1.067,0-2.133,0-2.133,0h-1.067h-1.067
		c-1.067,0-2.133,0-2.133,0h-2.133c-2.133,0-3.2,0-5.333,0h-1.067h-1.067l0,0l0,0l0,0l0,0l0,0l0,0l0,0l0,0l0,0l0,0l0,0l0,0l0,0l0,0
		c0,1.067-1.067,1.067-1.067,2.133c0,1.067,0,1.067,0,2.133v1.067v1.067v1.067h-1.067c-1.067,0-2.133,1.067-2.133,1.067
		c-1.067,0-2.133,1.067-2.133,1.067c-2.133,1.067-3.2,2.133-4.267,2.133c-1.067,1.067-3.2,2.133-4.267,3.2
		c-1.067,1.067-1.067,1.067-1.067,2.133c0,0,0,0,0,1.067l0,0l0,0l0,0l0,0l0,0l0,0l0,0v1.067v1.067v1.067v1.067v1.067v1.067
		c0,0,0,1.067,1.067,1.067v1.067v1.067c0,0,0,1.067,1.067,1.067c1.067,1.067,1.067,1.067,2.133,2.133l1.067,1.067l1.067,1.067
		l-4.267,4.267h1.067h1.067h1.067h-1.067h-1.067h-1.067l-1.067-1.067l-1.067-1.067l-1.067-1.067
		c-1.067-1.067-1.067-1.067-2.133-2.133l-1.067-1.067v-1.067v-1.067c0,0,0-1.067-1.067-1.067c0,0,0-1.067-1.067-1.067v-1.067v-1.067
		v-1.067v-1.067v-1.067l0,0l0,0l0,0l0,0l0,0l0,0c0,0,0,0,0-1.067s1.067-2.133,1.067-2.133c1.067-1.067,3.2-3.2,4.267-4.267
		c1.067-1.067,3.2-2.133,5.333-3.2c1.067,0,2.133-1.067,2.133-1.067c1.067,0,2.133-1.067,2.133-1.067l-1.067,1.067
		c0-1.067,0-1.067,0-1.067v-1.067c0-1.067,0-2.133,0-3.2c0-1.067,1.067-2.133,1.067-2.133v-1.067l0,0l0,0l0,0l0,0l0,0l0,0h1.067
		c0,0,0,0,1.067,0c0,0,0,0,1.067,0h1.067c0,0,0,0,1.067,0h1.067h1.067c1.067,0,2.133,0,2.133,0c1.067,0,2.133,0,2.133,0h2.133
		c1.067,0,2.133,0,2.133,0h1.067h1.067c1.067,0,2.133,0,2.133,0c2.133,0,3.2,0,5.333,0L252.687,281.061z"/>
	<path style="fill:#F7B64C;" d="M217.487,320.528L217.487,320.528L217.487,320.528c-1.067,0-1.067,0-1.067,0h-1.067h-1.067
		l-1.067-1.067h-1.067l-1.067-1.067c0,0,0,0-1.067-1.067l0,0c-1.067-1.067-1.067-1.067-2.133-2.133l-1.067-1.067l-1.067-2.133
		c0,0,0-1.067-1.067-1.067l0,0v-1.067l0,0v-1.067l0,0v-1.067v-1.067v-1.067v-1.067l0,0v-1.067l0,0l0,0
		c0-1.067,1.067-2.133,1.067-3.2c1.067-1.067,2.133-3.2,4.267-4.267c1.067-1.067,3.2-2.133,5.333-3.2
		c1.067,0,2.133-1.067,2.133-1.067s1.067,0,1.067-1.067l0,0c0-1.067,0-1.067,0-1.067c0-1.067,0-2.133,1.067-3.2
		c0-1.067,1.067-2.133,1.067-2.133l1.067-1.067l0,0l1.067-1.067l0,0l0,0l0,0h1.067c0,0,0,0,1.067,0h1.067c1.067,0,1.067,0,2.133,0
		c1.067,0,1.067,0,2.133,0s2.133,0,2.133,0l3.2,1.067c1.067,0,1.067,0,2.133,0h2.133c1.067,0,2.133,0,2.133,0c1.067,0,3.2,0,4.267,0
		h1.067h5.333l0,0l0,0v1.067c-3.2,1.067-6.4,1.067-9.6,1.067c-1.067,0-2.133,0-2.133,0h-1.067h-1.067c-1.067,0-2.133,0-2.133,0
		h-2.133c-1.067,0-3.2,0-4.267,0h-1.067h-1.067l0,0l0,0l0,0l0,0l0,0l-4.267-1.067l-1.067,1.067c0,1.067-1.067,1.067-1.067,2.133
		c0,1.067,0,1.067,0,2.133v1.067v1.067v1.067v1.067h-1.067c-1.067,0-1.067,1.067-2.133,1.067c-1.067,0-2.133,1.067-2.133,1.067
		c-2.133,1.067-3.2,2.133-4.267,2.133c-2.133,1.067-3.2,2.133-4.267,3.2c-1.067,1.067-1.067,1.067-1.067,2.133l0,0l0,0l0,0l0,0l0,0
		v1.067v1.067v1.067c0,0,0,0,0,1.067l0,0c0,0,0,0,0,1.067c0,0,0,0,0,1.067c0,0,0,0,0,1.067l0,0v1.067l1.067,1.067
		c0,0,0,1.067,1.067,1.067c0,1.067,1.067,1.067,2.133,2.133l0,0c0,0,0,0,1.067,0l1.067,1.067l1.067,1.067h1.067h1.067l0,0
		L217.487,320.528C217.487,319.461,218.554,319.461,217.487,320.528C218.554,320.528,217.487,320.528,217.487,320.528z
		 M218.554,291.728h-1.067c-1.067,0-2.133,1.067-2.133,1.067c-2.133,1.067-3.2,2.133-5.333,3.2c-2.133,1.067-3.2,2.133-4.267,4.267
		c-1.067,1.067-1.067,2.133-1.067,2.133l0,0l0,0v1.067l0,0v1.067v1.067v1.067v1.067l0,0v1.067l0,0v1.067l0,0v1.067v1.067v-1.067
		c0,0,0-1.067-1.067-1.067l0,0v-1.067l0,0c0,0,0,0,0-1.067l0,0v-1.067v-1.067v-1.067v-1.067l0,0l0,0l0,0l0,0l0,0l0,0l0,0
		c0-1.067,1.067-1.067,1.067-2.133c1.067-1.067,2.133-2.133,4.267-3.2c1.067-1.067,3.2-2.133,4.267-2.133s2.133-1.067,2.133-1.067
		C218.554,292.794,218.554,292.794,218.554,291.728C219.62,292.794,218.554,291.728,218.554,291.728L218.554,291.728z
		 M220.687,290.661L220.687,290.661l-1.067,1.067C220.687,291.728,220.687,291.728,220.687,290.661L220.687,290.661L220.687,290.661
		C220.687,291.728,220.687,290.661,220.687,290.661z M219.62,290.661C220.687,290.661,220.687,290.661,219.62,290.661
		C220.687,290.661,220.687,290.661,219.62,290.661v-1.067c0-1.067,0-1.067,0-2.133s1.067-1.067,1.067-2.133l0,0l1.067-1.067l0,0l0,0
		l0,0l0,0l0,0l0,0l0,0c0,0,0,0,1.067,0h1.067h1.067c2.133,0,3.2,0,5.333,0h2.133c1.067,0,2.133,0,2.133,0h1.067h-1.067
		c-1.067,0-1.067,0-2.133,0l-3.2-1.067c-1.067,0-2.133,0-2.133,0c-1.067,0-2.133,0-2.133,0h-1.067h-1.067c0,0,0,0-1.067,0h-1.067
		l0,0l0,0l0,0l-1.067,1.067l0,0l0,0l-1.067,1.067l0,0c-1.067,1.067-1.067,1.067-1.067,2.133s0,2.133,0,2.133
		C219.62,289.594,219.62,289.594,219.62,290.661L219.62,290.661L219.62,290.661z"/>
	<path style="fill:#F7B64C;" d="M220.687,291.728c0,0,0,1.067,0,2.133s1.067,3.2,2.133,5.333c0,1.067,1.067,2.133,2.133,3.2
		c1.067,1.067,2.133,2.133,3.2,3.2c1.067,1.067,2.133,1.067,4.267,2.133l0,0l0,0l0,0l0,0h1.067c1.067,0,1.067,0,2.133,0
		c1.067,0,3.2,0,4.267,0c1.067,0,3.2,0,4.267,0c1.067,0,3.2,0,4.267,0c1.067,0,1.067,0,2.133,0s1.067,0,2.133,0
		c1.067,0,2.133,0,3.2-1.067c1.067,0,2.133,0,2.133-1.067c1.067,0,2.133,0,2.133,0s-1.067,0-2.133,1.067
		c-1.067,0-1.067,0-2.133,1.067c-1.067,0-2.133,1.067-3.2,1.067c-1.067,0-2.133,1.067-3.2,1.067c-1.067,0-3.2,0-4.267,1.067
		c-1.067,0-3.2,0-4.267,0s-3.2,0-4.267,0s-1.067,0-2.133,0h-1.067l0,0l0,0l0,0h-1.067c-1.067,0-3.2-1.067-4.267-2.133
		c-1.067-1.067-2.133-2.133-3.2-3.2c-1.067-1.067-1.067-2.133-2.133-3.2c-1.067-2.133-1.067-4.267-2.133-5.333
		C220.687,292.794,220.687,291.728,220.687,291.728z"/>
	<path style="fill:#F7B64C;" d="M240.954,309.861c-2.133,0-4.267,0-5.333,0h-1.067c-1.067,0-1.067,0-2.133,0h-1.067l0,0h-1.067
		c-1.067,0-3.2-1.067-4.267-2.133c-1.067-1.067-2.133-2.133-3.2-3.2c-1.067-1.067-1.067-2.133-2.133-3.2
		c-1.067-2.133-1.067-4.267-2.133-5.333c0-1.067,0-2.133,0-2.133s0,0,0-1.067c0-1.067,0,0,1.067,0c0,0,0,1.067,0,2.133
		c0,1.067,1.067,3.2,2.133,5.333c1.067,1.067,1.067,2.133,2.133,3.2s2.133,2.133,3.2,3.2c1.067,1.067,2.133,1.067,3.2,2.133l0,0l0,0
		l0,0h1.067h1.067h1.067c1.067,0,3.2,0,4.267,0c2.133,0,3.2,0,4.267,0c1.067,0,3.2,0,4.267,0c1.067,0,1.067,0,2.133,0l0,0h1.067l0,0
		c1.067,0,2.133,0,3.2-1.067l2.133-1.067c1.067,0,2.133,0,2.133,0h1.067v1.067c0,0-1.067,0-2.133,1.067v-1.067
		c-1.067,0-2.133,1.067-3.2,1.067c-1.067,0-2.133,1.067-3.2,1.067c-1.067,0-3.2,0-4.267,1.067
		C244.154,309.861,243.087,309.861,240.954,309.861z M227.087,304.528C227.087,304.528,227.087,305.594,227.087,304.528
		c1.067,1.067,3.2,2.133,4.267,2.133h1.067h1.067h1.067c0,0,0,0,1.067,0s3.2,0,5.333,0c1.067,0,2.133,0,3.2,0l0,0l0,0
		c-1.067,0-3.2,0-4.267,0c-2.133,0-3.2,0-4.267,0h-1.067h-1.067h-1.067l0,0l0,0h-1.067
		C230.287,306.661,229.22,306.661,227.087,304.528C227.087,305.594,227.087,304.528,227.087,304.528z M232.42,306.661
		L232.42,306.661L232.42,306.661z M232.42,306.661L232.42,306.661L232.42,306.661z M232.42,306.661L232.42,306.661L232.42,306.661z
		 M232.42,306.661L232.42,306.661L232.42,306.661z M232.42,306.661L232.42,306.661L232.42,306.661z M232.42,306.661L232.42,306.661
		L232.42,306.661z"/>
	<path style="fill:#F7B64C;" d="M195.087,316.261C195.087,316.261,195.087,317.328,195.087,316.261
		c1.067,1.067,2.133,2.133,3.2,2.133c1.067,1.067,2.133,1.067,3.2,2.133c1.067,0,1.067,1.067,2.133,1.067
		c1.067,0,1.067,0,2.133,1.067c1.067,0,1.067,0,2.133,0h1.067h1.067h1.067h1.067h1.067h1.067c0,0,1.067,0,1.067-1.067h1.067
		c1.067,0,1.067,0,1.067,0s0,0-1.067,1.067c0,0-1.067,0-1.067,1.067c0,0-1.067,0-1.067,1.067c0,0-1.067,0-2.133,1.067
		c-1.067,0-1.067,0-2.133,0h-1.067h-1.067h-1.067c-1.067,0-1.067,0-2.133,0s-1.067,0-2.133-1.067c-1.067,0-1.067-1.067-2.133-1.067
		c-1.067,0-1.067-1.067-2.133-1.067l-1.067-1.067C196.154,318.394,196.154,318.394,195.087,316.261
		C195.087,317.328,195.087,316.261,195.087,316.261z"/>
	<path style="fill:#F7B64C;" d="M206.82,324.794c-1.067,0-1.067,0-2.133,0s-1.067,0-2.133-1.067c-1.067,0-1.067-1.067-2.133-1.067
		c-1.067,0-1.067-1.067-2.133-1.067s-1.067-1.067-1.067-1.067c-1.067-1.067-1.067-1.067-2.133-2.133
		c0-1.067-1.067-1.067-1.067-1.067s0,0,0-1.067c0,0,0,0,1.067,0c0,0,0,0,1.067,1.067c0,0,1.067,1.067,2.133,2.133
		s2.133,1.067,3.2,2.133c1.067,0,1.067,1.067,2.133,1.067c1.067,0,1.067,0,2.133,0s2.133,0,2.133,0h1.067l0,0c0,0,0,0,1.067,0l0,0
		h1.067h1.067l0,0l0,0c0,0,0,0,1.067,0c0,0,0,0,1.067,0l0,0c0,0,0,0,1.067,0s1.067,0,1.067,0h1.067c0,0,0,0,0,1.067
		c0,0,0,0-1.067,1.067c0,0-1.067,0-1.067,1.067c0,0-1.067,0-1.067,1.067l0,0c0,0-1.067,0-1.067,1.067c-1.067,0-1.067,0-2.133,1.067
		h-1.067L206.82,324.794L206.82,324.794z M200.42,321.594L200.42,321.594c1.067,0,1.067,1.067,2.133,1.067
		c1.067,0,1.067,0,2.133,1.067c1.067,0,1.067,0,2.133,0l0,0h1.067h1.067l0,0l0,0l0,0h-1.067c-1.067,0-1.067,0-2.133,0
		c-1.067,0-1.067,0-2.133-1.067C202.554,321.594,201.487,321.594,200.42,321.594L200.42,321.594z"/>
	<path style="fill:#F7B64C;" d="M285.754,322.661c1.067,2.133,1.067,4.267,2.133,6.4c0,1.067,1.067,2.133,1.067,3.2
		s1.067,2.133,1.067,3.2c0,1.067,0,1.067,1.067,2.133l1.067,2.133l1.067,2.133c0,1.067,1.067,1.067,1.067,1.067l1.067,1.067
		l1.067,1.067l1.067,1.067l1.067,1.067l0,0l0,0c-1.067,1.067-2.133,3.2-4.267,4.267c-1.067,2.133-2.133,3.2-3.2,5.333
		c-1.067,2.133-2.133,3.2-3.2,5.333c0,0,0,1.067-1.067,1.067v1.067v1.067c0,0,0,0,0,1.067c0,0,0,0,0,1.067v1.067l-1.067-1.067
		c0,0-1.067-1.067-2.133-1.067c-1.067,0-1.067-1.067-2.133-1.067c-1.067-1.067-2.133-1.067-4.267-2.133
		c-1.067,0-1.067,0-2.133-1.067c-1.067,0-1.067,0-2.133-1.067h-1.067h-1.067c-1.067,0-1.067,0-2.133,0c-1.067,0-1.067,0-2.133,0
		c-1.067,0-1.067,0-2.133,0s-1.067,0-2.133,0c-1.067,0-1.067,0-2.133,0c-1.067,0-1.067,0-2.133,0s-1.067,0-2.133,1.067
		c-1.067,0-1.067,0-2.133,1.067c-1.067,0-1.067,0-2.133,1.067c1.067,0,1.067-1.067,2.133-1.067c1.067,0,1.067-1.067,2.133-1.067
		s1.067,0,2.133-1.067c1.067,0,1.067,0,2.133-1.067c1.067,0,1.067,0,2.133,0c1.067,0,1.067,0,2.133,0s1.067,0,2.133,0
		c1.067,0,1.067,0,2.133,0c1.067,0,1.067,0,2.133,0h1.067h1.067c1.067,0,1.067,0,2.133,1.067c1.067,0,1.067,0,2.133,1.067
		c1.067,0,2.133,1.067,4.267,2.133c1.067,0,1.067,1.067,2.133,1.067c1.067,0,1.067,1.067,2.133,1.067h-1.067v-1.067v-1.067
		c0-1.067,0-1.067,0-2.133v-1.067c0,0,0-1.067,1.067-1.067c1.067-2.133,2.133-4.267,3.2-5.333c1.067-2.133,2.133-3.2,3.2-5.333
		c1.067-2.133,2.133-3.2,4.267-5.333v1.067l-1.067-1.067l-1.067-1.067l-1.067-1.067l-1.067-1.067c0-1.067-1.067-1.067-1.067-2.133
		l-1.067-2.133l-1.067-2.133c0-1.067,0-1.067-1.067-2.133c0-1.067,0-1.067-1.067-2.133c0-1.067,0-1.067-1.067-2.133
		c0-1.067-1.067-2.133-1.067-3.2C286.82,326.928,285.754,324.794,285.754,322.661z"/>
	<path style="fill:#F7B64C;" d="M285.754,371.728L285.754,371.728l-1.067-1.067l-1.067-1.067c-1.067,0-1.067-1.067-2.133-1.067
		c-1.067-1.067-2.133-1.067-3.2-2.133c-1.067,0-1.067,0-2.133-1.067c-1.067,0-1.067,0-2.133-1.067h-2.133c-1.067,0-1.067,0-2.133,0
		c-1.067,0-1.067,0-2.133,0h-1.067c-1.067,0-1.067,0-2.133,0h-1.067c0,0,0,0-1.067,0l0,0c-1.067,0-1.067,0-2.133,0
		c-1.067,0-1.067,0-2.133,0s-1.067,0-2.133,0l0,0h-1.067h-1.067h-1.067h-1.067h-1.067v-1.067h1.067c0,0,1.067,0,1.067-1.067
		c0,0,0,0,1.067,0h1.067c1.067,0,1.067,0,2.133-1.067c1.067,0,1.067,0,2.133,0l0,0c1.067,0,1.067,0,2.133,0h1.067
		c1.067,0,1.067,0,2.133,0s1.067,0,2.133,0l0,0h1.067c1.067,0,1.067,0,2.133,0c1.067,0,1.067,0,2.133,0h1.067h1.067
		c1.067,0,1.067,0,2.133,1.067c1.067,0,1.067,0,2.133,1.067c1.067,1.067,3.2,1.067,4.267,2.133c1.067,0,1.067,1.067,2.133,1.067
		v-1.067c0-1.067,0-1.067,0-1.067l0,0v-1.067c1.067-2.133,2.133-3.2,3.2-5.333c1.067-2.133,2.133-3.2,3.2-5.333
		c1.067-1.067,2.133-3.2,3.2-4.267l-1.067-1.067c0,0,0-1.067-1.067-1.067v-1.067c0,0,0-1.067-1.067-1.067c0,0,0,0,0-1.067
		c0,0,0-1.067-1.067-1.067v-1.067c0,0,0-1.067-1.067-1.067l-1.067-2.133l-1.067-2.133v-1.067v-1.067v-1.067l0,0v-1.067
		c0-1.067-1.067-2.133-1.067-3.2c-1.067-3.2-1.067-5.333-2.133-7.467v-1.067h1.067c1.067,2.133,1.067,4.267,2.133,6.4
		c0,1.067,1.067,2.133,1.067,3.2v1.067c0,1.067,1.067,1.067,1.067,2.133c0,0,0,0,0,1.067v1.067l1.067,3.2c0,0,0,1.067,1.067,1.067
		v1.067c0,0,0,1.067,1.067,1.067l0,0c0,0,0,1.067,1.067,1.067l1.067,1.067l1.067,2.133c0,0,0,0,0,1.067l0,0
		c-1.067,1.067-2.133,3.2-4.267,4.267c-1.067,2.133-2.133,3.2-3.2,5.333c-1.067,2.133-2.133,3.2-3.2,5.333c0,0,0,1.067-1.067,1.067
		v1.067v1.067l0,0l0,0l0,0l0,0L285.754,371.728L285.754,371.728L285.754,371.728z M279.354,366.394c1.067,0,1.067,1.067,2.133,1.067
		c1.067,0,1.067,1.067,2.133,1.067l0,0l0,0l0,0c-1.067,0-1.067-1.067-2.133-1.067C280.42,366.394,280.42,366.394,279.354,366.394z
		 M284.687,368.528L284.687,368.528L284.687,368.528v-1.067v-1.067c0,0,0-1.067,1.067-1.067c1.067-2.133,2.133-3.2,3.2-5.333
		s2.133-3.2,3.2-5.333c1.067-1.067,2.133-3.2,3.2-4.267l0,0c-1.067,1.067-2.133,2.133-3.2,4.267c-1.067,2.133-2.133,3.2-3.2,5.333
		c-1.067,2.133-2.133,4.267-3.2,5.333v1.067l0,0v1.067C284.687,367.461,284.687,367.461,284.687,368.528L284.687,368.528z
		 M295.354,347.194L295.354,347.194L295.354,347.194L295.354,347.194z"/>
	<path style="fill:#F7B64C;" d="M276.154,365.328c0,0,0,0-1.067,0c-1.067,0-2.133-1.067-3.2-2.133c0,0-1.067-1.067-2.133-1.067
		c-1.067,0-1.067-1.067-2.133-1.067c-1.067-1.067-1.067-1.067-2.133-2.133c-1.067-1.067-1.067-1.067-2.133-2.133
		c-1.067-1.067-1.067-1.067-2.133-2.133c-1.067-1.067-1.067-1.067-1.067-2.133c0-1.067-1.067-1.067-1.067-2.133
		c0-1.067-1.067-1.067-1.067-2.133c0-1.067-1.067-1.067-1.067-1.067s0-1.067-1.067-1.067c0-1.067-1.067-1.067-1.067-1.067
		s0,0,1.067,1.067c0,0,0,1.067,1.067,1.067l1.067,1.067c0,0,1.067,1.067,1.067,2.133c0,1.067,1.067,1.067,1.067,2.133
		c0,1.067,1.067,1.067,2.133,2.133c0,1.067,1.067,1.067,2.133,2.133c1.067,1.067,1.067,1.067,2.133,2.133
		c1.067,1.067,1.067,1.067,2.133,2.133c1.067,1.067,1.067,1.067,2.133,1.067c1.067,0,1.067,1.067,1.067,1.067l1.067,1.067
		C275.087,364.261,275.087,364.261,276.154,365.328C276.154,364.261,276.154,365.328,276.154,365.328z"/>
	<path style="fill:#F7B64C;" d="M276.154,365.328L276.154,365.328c0,0-1.067,0-1.067-1.067c-1.067,0-2.133-1.067-3.2-2.133l0,0
		l-1.067-1.067c-1.067,0-1.067-1.067-2.133-1.067l0,0l-1.067-1.067l-1.067-1.067l-1.067-1.067l-1.067-1.067l-1.067-1.067
		c-1.067-1.067-1.067-1.067-1.067-2.133l-1.067-1.067v-1.067c0-1.067-1.067-1.067-1.067-2.133c0-1.067-1.067-1.067-1.067-1.067
		l-1.067-1.067c0-1.067-1.067-1.067-1.067-1.067s0,0,0-1.067c0,0,0,0,1.067,0c0,0,0,0,1.067,1.067l1.067,1.067l1.067,1.067l0,0
		c0,0,1.067,1.067,1.067,2.133v1.067l1.067,1.067l1.067,1.067c0,0,0,1.067,1.067,1.067l1.067,1.067c0,0,0,0,1.067,1.067l1.067,1.067
		l1.067,1.067c1.067,1.067,1.067,1.067,2.133,2.133l1.067,1.067l1.067,1.067c1.067,0,1.067,1.067,1.067,1.067l0,0l1.067,1.067
		l1.067,1.067C276.154,364.261,276.154,364.261,276.154,365.328C277.22,364.261,277.22,365.328,276.154,365.328L276.154,365.328z
		 M262.287,352.528L262.287,352.528c1.067,1.067,1.067,1.067,2.133,2.133l1.067,1.067l1.067,1.067l1.067,1.067l1.067,1.067
		l1.067,1.067l0,0l0,0l0,0c-1.067-1.067-1.067-1.067-2.133-2.133l-1.067-1.067l-1.067-1.067c0,0,0,0-1.067-1.067l-1.067-1.067
		C263.354,353.594,263.354,352.528,262.287,352.528C263.354,352.528,263.354,352.528,262.287,352.528L262.287,352.528z"/>
	<path style="fill:#F7B64C;" d="M285.754,369.594c0,0,0,1.067,1.067,3.2c0,1.067,0,2.133,1.067,3.2c0,1.067,0,1.067,1.067,2.133
		c0,1.067,0,1.067,1.067,2.133c0,1.067,0,1.067,1.067,2.133c0,1.067,0,1.067,1.067,2.133c0,1.067,1.067,1.067,1.067,2.133
		l1.067,1.067c0,0,0,1.067,1.067,1.067c0,0,0,1.067,1.067,1.067l1.067,1.067c0,0,0,0-1.067-1.067c0,0,0,0-1.067-1.067
		c0,0,0-1.067-1.067-1.067l-1.067-1.067c0,0-1.067-1.067-1.067-2.133c0-1.067-1.067-1.067-1.067-2.133
		c0-1.067-1.067-1.067-1.067-2.133c0-1.067,0-1.067-1.067-2.133c0-1.067,0-1.067-1.067-2.133c0-1.067-1.067-2.133-1.067-3.2
		C286.82,370.661,285.754,369.594,285.754,369.594L285.754,369.594z"/>
	<path style="fill:#F7B64C;" d="M293.22,390.928L293.22,390.928l-1.067-1.067c0,0,0,0-1.067-1.067l-1.067-1.067
		c0,0,0-1.067-1.067-1.067l0,0c0,0-1.067-1.067-1.067-2.133c0-1.067-1.067-1.067-1.067-2.133c0,0,0-1.067-1.067-1.067v-1.067
		c0,0,0-1.067-1.067-1.067v-1.067v-1.067c0-1.067-1.067-2.133-1.067-3.2c0-2.133-1.067-3.2-1.067-3.2l0,0l0,0h1.067l0,0l0,0
		c0,0,0,1.067,0,3.2c0,1.067,0,2.133,1.067,3.2v1.067v1.067c0,0,0,0,0,1.067v1.067l0,0c0,0,0,1.067,1.067,1.067
		c0,1.067,0,1.067,1.067,2.133c0,1.067,0,1.067,1.067,2.133c0,0,0,0,0,1.067v1.067l1.067,1.067l0,0l0,0
		C293.22,389.861,293.22,389.861,293.22,390.928C294.287,389.861,294.287,390.928,293.22,390.928L293.22,390.928z M284.687,370.661
		c0,0,0,1.067,0,2.133C285.754,371.728,284.687,370.661,284.687,370.661L284.687,370.661z"/>
	<path style="fill:#F7B64C;" d="M297.487,348.261L297.487,348.261L297.487,348.261c1.067,1.067,2.133,2.133,3.2,3.2
		c1.067,1.067,2.133,2.133,4.267,3.2c1.067,0,1.067,1.067,2.133,1.067c1.067,0,2.133,1.067,2.133,1.067
		c1.067,0,2.133,1.067,2.133,1.067c1.067,0,2.133,1.067,2.133,1.067h1.067h1.067c1.067,0,1.067,0,2.133,0s1.067,0,2.133,0
		c1.067,0,1.067,0,1.067,0c1.067,0,1.067,0,1.067,0s0,0-1.067,0h-1.067c-1.067,0-1.067,0-2.133,0s-1.067,0-2.133,0h-1.067h-1.067
		c-1.067,0-2.133-1.067-3.2-1.067c-1.067,0-2.133-1.067-3.2-1.067c-1.067,0-2.133-1.067-2.133-1.067
		c-1.067,0-2.133-1.067-2.133-1.067c-1.067-1.067-3.2-2.133-4.267-2.133c-1.067-1.067-2.133-1.067-3.2-2.133
		c0,0-1.067,0-1.067-1.067C296.42,349.328,296.42,349.328,297.487,348.261L297.487,348.261z"/>
	<path style="fill:#F7B64C;" d="M324.154,361.061L324.154,361.061h-2.133h-1.067c-1.067,0-1.067,0-2.133,0c-1.067,0-1.067,0-2.133,0
		h-1.067h-1.067l0,0h-1.067c-1.067,0-2.133-1.067-3.2-1.067c-1.067,0-1.067,0-2.133-1.067h-1.067c-1.067,0-1.067-1.067-2.133-1.067
		l-1.067-1.067c-1.067,0-1.067-1.067-2.133-1.067c-1.067-1.067-3.2-2.133-4.267-3.2c-1.067-1.067-2.133-1.067-3.2-2.133
		c0,0,0,0-1.067-1.067l0,0l0,0l0,0l0,0l1.067-1.067c0,0,0,0,1.067,0l0,0c0,0,0,0,1.067,1.067c1.067,1.067,2.133,1.067,3.2,2.133
		c1.067,1.067,2.133,2.133,4.267,3.2l1.067,1.067l2.133,1.067c1.067,0,1.067,1.067,2.133,1.067h1.067c1.067,0,1.067,0,2.133,1.067
		c1.067,0,2.133,1.067,2.133,1.067h1.067c0,0,0,0,1.067,0l0,0c0,0,0,0,1.067,0h1.067c1.067,0,1.067,0,2.133,0h1.067
		C324.154,359.994,324.154,359.994,324.154,361.061C325.22,359.994,325.22,359.994,324.154,361.061
		C325.22,359.994,325.22,361.061,324.154,361.061z M297.487,349.328L297.487,349.328c1.067,1.067,2.133,1.067,2.133,2.133
		C298.554,350.394,298.554,349.328,297.487,349.328L297.487,349.328L297.487,349.328z"/>
	<path style="fill:#F7B64C;" d="M213.22,319.461L213.22,319.461c1.067,0,1.067,1.067,2.133,1.067s1.067,0,2.133,0h1.067h1.067
		c1.067,0,2.133,0,3.2-1.067c1.067,0,1.067,0,2.133,0c1.067,0,1.067,0,2.133-1.067c1.067,0,3.2-1.067,4.267-1.067
		c1.067,0,3.2-1.067,4.267-1.067c1.067-1.067,3.2-1.067,4.267-1.067c1.067,0,3.2-1.067,4.267-1.067c1.067,0,3.2-1.067,4.267-1.067
		c1.067,0,2.133,0,3.2,0c2.133,0,4.267,0,5.333,0c1.067,0,2.133,0,2.133,0s-1.067,0-2.133,0c-1.067,0-3.2,0-5.333,1.067
		c-1.067,0-2.133,0-3.2,1.067c-1.067,0-2.133,1.067-4.267,1.067c-1.067,0-2.133,1.067-4.267,1.067
		c-1.067,1.067-3.2,1.067-4.267,2.133c-1.067,0-3.2,1.067-4.267,1.067c-1.067,0-3.2,1.067-4.267,1.067c-1.067,0-1.067,0-2.133,0
		c-1.067,0-1.067,0-2.133,0s-1.067,0-2.133,0c-1.067,0-1.067,0-2.133,0c-1.067,0-2.133,0-3.2,0c-1.067,0-2.133,0-2.133,0
		C214.287,319.461,214.287,319.461,213.22,319.461L213.22,319.461z"/>
	<path style="fill:#F7B64C;" d="M219.62,321.594c-1.067,0-1.067,0-2.133,0c-1.067,0-2.133,0-2.133,0c-1.067,0-1.067,0-1.067-1.067
		l0,0c0,0,0,0,0-1.067c0,0,0,0,1.067,0l0,0h1.067c1.067,0,1.067,0,2.133,0h1.067h1.067c1.067,0,2.133,0,3.2-1.067l2.133-1.067h1.067
		c1.067,0,2.133-1.067,3.2-1.067h1.067c1.067,0,3.2-1.067,4.267-1.067l4.267-1.067c1.067-1.067,3.2-1.067,4.267-1.067
		s2.133-1.067,4.267-1.067c1.067,0,2.133,0,3.2,0c1.067,0,3.2,0,4.267,0c1.067,0,1.067,0,1.067,0c1.067,0,2.133,0,2.133,0l0,0l0,0
		c0,0,0,0,0,1.067c0,0-1.067,0-2.133,0h-1.067c-1.067,0-2.133,0-4.267,1.067c-1.067,0-2.133,0-3.2,1.067
		c-1.067,0-2.133,1.067-3.2,1.067c-1.067,0-2.133,1.067-3.2,1.067l-5.333,2.133c-1.067,0-3.2,1.067-4.267,1.067
		c-1.067,0-3.2,1.067-4.267,1.067c-1.067,0-1.067,0-2.133,1.067c-1.067,0-1.067,0-2.133,0h-1.067h-1.067c0,0,0,0-1.067,0h-1.067
		C220.687,321.594,219.62,321.594,219.62,321.594z M244.154,313.061L244.154,313.061c-1.067,0-3.2,1.067-4.267,1.067l-4.267,1.067
		c-1.067,1.067-3.2,1.067-4.267,1.067h-1.067c-1.067,0-2.133,1.067-3.2,1.067l0,0l0,0c1.067,0,3.2-1.067,4.267-1.067
		s3.2-1.067,4.267-1.067l5.333-2.133C242.02,314.128,243.087,313.061,244.154,313.061L244.154,313.061z"/>
</g>
<path style="fill:#FFD15C;" d="M237.754,324.794c0,0-4.267-3.2-8.533-5.333"/>
<g>
	<path style="fill:#F7B64C;" d="M237.754,324.794C236.687,324.794,236.687,324.794,237.754,324.794c0,0-4.267-3.2-9.6-6.4
		c0,0,0,0,0-1.067c0,0,0,0,1.067,0C233.487,320.528,237.754,323.728,237.754,324.794L237.754,324.794L237.754,324.794z"/>
	<path style="fill:#F7B64C;" d="M237.754,324.794c0,0-1.067,0-1.067-1.067c0,0-1.067,0-1.067-1.067
		c-1.067,0-1.067-1.067-2.133-1.067s-1.067-1.067-2.133-1.067l-1.067-1.067l-1.067-1.067l0,0c0,0,1.067,0,2.133,0
		c0,0,1.067,0,1.067,1.067c1.067,0,1.067,1.067,2.133,1.067c0,0,1.067,0,1.067,1.067c0,0,0,0,1.067,1.067l1.067,1.067
		C236.687,323.728,237.754,324.794,237.754,324.794z"/>
	<path style="fill:#F7B64C;" d="M237.754,324.794C237.754,324.794,236.687,324.794,237.754,324.794c0,0-1.067,0-2.133-1.067
		c0,0-1.067,0-1.067-1.067c-1.067,0-1.067-1.067-2.133-1.067c-1.067,0-1.067-1.067-2.133-1.067l-1.067-1.067l-1.067-1.067l0,0
		c0,0,0,0,0-1.067c0,0,0,0,1.067,0c0,0,1.067,0,2.133,1.067c0,0,1.067,0,2.133,1.067c1.067,0,1.067,1.067,2.133,1.067
		c0,0,1.067,0,1.067,1.067c0,0,0,0,1.067,1.067l1.067,1.067C237.754,323.728,237.754,323.728,237.754,324.794L237.754,324.794
		L237.754,324.794z M231.354,320.528L231.354,320.528c1.067,0,1.067,1.067,2.133,1.067c1.067,0,1.067,1.067,2.133,1.067l0,0l0,0
		c0,0,0,0-1.067-1.067c0,0-1.067,0-1.067-1.067C232.42,321.594,231.354,320.528,231.354,320.528L231.354,320.528z"/>
</g>
<rect x="64.425" y="356.799" transform="matrix(0.831 -0.5562 0.5562 0.831 -214.7867 127.0691)" style="fill:#F3F3F3;" width="74.664" height="120.528"/>
<rect x="34.866" y="346.439" transform="matrix(0.831 -0.5562 0.5562 0.831 -221.3856 116.6237)" style="fill:#415A6B;" width="92.796" height="152.527"/>
<circle style="fill:#344A5E;" cx="68.154" cy="370.661" r="13.867"/>
<path style="fill:#4ABAA5;" d="M300.687,314.128c-6.4,4.267-14.933,3.2-19.2-3.2c-2.133-3.2-3.2-6.4-2.133-9.6l-18.133,12.8
	c-4.267,3.2-10.667,2.133-13.867-2.133l-12.8-18.133c-1.067,3.2-3.2,6.4-6.4,8.533c-5.333,3.2-12.8,2.133-17.067-3.2
	c-5.333-6.4-4.267-16,2.133-20.267c3.2-2.133,6.4-3.2,9.6-2.133l-12.8-18.133c-3.2-4.267-2.133-10.667,2.133-13.867l18.133-12.8
	c0,3.2,1.067,6.4,3.2,9.6c4.267,5.333,11.733,7.467,18.133,3.2c6.4-4.267,8.533-12.8,4.267-19.2c-2.133-3.2-4.267-4.267-7.467-5.333
	l18.133-12.8c4.267-3.2,10.667-2.133,13.867,2.133l12.8,18.133c1.067-3.2,3.2-6.4,6.4-8.533c6.4-4.267,13.867-2.133,18.133,3.2
	c5.333,6.4,3.2,14.933-3.2,20.267c-3.2,2.133-6.4,3.2-9.6,2.133l12.8,18.133c3.2,4.267,2.133,10.667-2.133,13.867l-18.133,12.8
	c3.2,1.067,5.333,2.133,7.467,5.333C308.154,301.328,307.087,309.861,300.687,314.128z"/>
<path style="fill:#FFD15C;" d="M253.754,367.461c0,0,9.6-13.867,20.267-22.4c10.667-8.533,27.733-20.267,35.2-33.067
	c8.533-12.8,2.133-23.467-4.267-27.733s-19.2-12.8-40.533,11.733c-21.333,24.533-29.867,32-43.733,36.267
	c-13.867,4.267-22.4,3.2-33.067,6.4c-9.6,2.133-29.867,11.733-29.867,11.733L253.754,367.461z"/>
<g>
</g>
<g>
</g>
<g>
</g>
<g>
</g>
<g>
</g>
<g>
</g>
<g>
</g>
<g>
</g>
<g>
</g>
<g>
</g>
<g>
</g>
<g>
</g>
<g>
</g>
<g>
</g>
<g>
</g>
</svg>
