<?xml version="1.0" encoding="iso-8859-1"?>
<!-- Generator: Adobe Illustrator 19.0.0, SVG Export Plug-In . SVG Version: 6.00 Build 0)  -->
<svg version="1.1" id="Capa_1" xmlns="http://www.w3.org/2000/svg" xmlns:xlink="http://www.w3.org/1999/xlink" x="0px" y="0px"
	 viewBox="0 0 512 512" style="enable-background:new 0 0 512 512;" xml:space="preserve">
<path style="fill:#FFD15C;" d="M496,58.133c-1.067-5.333-3.2-10.667-6.4-16l8.533-13.867L484.267,14.4l-14.933,8.533
	c-4.267-3.2-9.6-5.333-16-6.4l-3.2-16h-19.2l-4.267,16c-5.333,1.067-10.667,3.2-16,6.4L396.8,14.4l-13.867,13.867l8.533,14.933
	c-3.2,4.267-5.333,9.6-6.4,16l-16,4.267v19.2l16,3.2c1.067,5.333,3.2,10.667,6.4,16l-8.533,13.867L396.8,129.6l13.867-8.533
	c4.267,3.2,9.6,5.333,16,6.4l4.267,16h19.2l4.267-16c5.333-1.067,10.667-3.2,16-6.4l13.867,8.533l13.867-13.867l-8.533-13.867
	c2.133-5.333,4.267-10.667,6.4-16l16-4.267V62.4L496,58.133z M468.267,72c0,14.933-12.8,27.733-27.733,27.733
	C425.6,99.733,412.8,86.933,412.8,72s12.8-27.733,27.733-27.733C455.467,44.267,468.267,57.067,468.267,72z"/>
<path style="fill:#66C6B9;" d="M480,449.6c-1.067-4.267-2.133-7.467-4.267-10.667l6.4-10.667l-9.6-9.6l-10.667,6.4
	c-3.2-2.133-7.467-3.2-10.667-4.267L448,408h-13.867l-3.2,11.733c-4.267,1.067-7.467,2.133-10.667,4.267l-10.667-6.4l-9.6,9.6
	l6.4,10.667c-2.133,3.2-3.2,7.467-4.267,10.667l-11.733,3.2V465.6l11.733,3.2c1.067,4.267,2.133,7.467,4.267,10.667l-6.4,10.667
	l9.6,9.6l10.667-6.4c3.2,2.133,7.467,3.2,10.667,4.267l3.2,11.733H448l3.2-11.733c4.267-1.067,7.467-2.133,10.667-4.267l10.667,6.4
	l9.6-9.6l-6.4-10.667c2.133-3.2,3.2-7.467,4.267-10.667l11.733-3.2v-13.867L480,449.6z M464,459.2
	c0,12.8-10.667,23.467-23.467,23.467c-12.8,0-23.467-10.667-23.467-23.467s10.667-23.467,23.467-23.467
	C453.333,435.733,464,446.4,464,459.2z"/>
<path style="fill:#55C0EB;" d="M97.067,51.733C97.067,47.467,96,43.2,94.933,40l8.533-8.533L96,18.667l-11.733,4.267
	c-3.2-3.2-6.4-5.333-10.667-7.467V3.733l-13.867-3.2L54.4,11.2c-4.267,0-8.533,1.067-12.8,2.133L33.067,4.8l-11.733,8.533
	L25.6,25.067c-3.2,2.133-6.4,6.4-7.467,9.6H6.4L2.133,49.6L12.8,54.933c0,4.267,1.067,8.533,2.133,11.733L7.467,75.2l7.467,11.733
	l11.733-4.267c3.2,3.2,6.4,5.333,9.6,7.467v11.733l13.867,3.2L55.467,94.4c4.267,0,8.533-1.067,11.733-2.133l8.533,8.533
	l11.733-7.467L85.333,81.6c3.2-2.133,5.333-6.4,7.467-9.6h11.733l3.2-13.867L97.067,51.733z M72.533,57.067
	c-2.133,9.6-11.733,16-21.333,13.867S35.2,59.2,37.333,49.6c2.133-9.6,11.733-16,21.333-13.867
	C68.267,37.867,74.667,47.467,72.533,57.067z"/>
<path style="fill:#293F4F;" d="M214.4,348.267l-2.133,2.133l9.6,10.667l1.067-2.133c0,0,3.2,3.2,9.6,9.6
	c6.4,6.4,17.067,10.667,19.2,7.467l-13.867-12.8L214.4,348.267z"/>
<path style="fill:#415A6B;" d="M220.8,341.867c0,0,6.4,5.333,8.533,7.467c2.133,3.2,8.533,0,8.533,0s4.267,9.6,6.4,13.867
	c2.133,4.267,9.6,7.467,7.467,11.733c0,0-12.8-1.067-18.133-7.467c-5.333-6.4-12.8-13.867-16-16c-3.2-2.133-3.2-3.2-3.2-3.2
	S214.4,341.867,220.8,341.867z"/>
<path style="fill:#344A5E;" d="M248.533,318.4L248.533,318.4c-2.133,2.133-5.333,5.333-8.533,8.533
	c-3.2,3.2-8.533,5.333-11.733,5.333c-3.2,1.067-6.4,6.4-6.4,6.4S224,344,230.4,346.133c6.4,2.133,12.8,8.533,12.8,8.533
	s8.533-9.6,18.133-16c9.6-6.4,25.6-19.2,28.8-22.4c0,0,0,0,0-1.067L248.533,318.4z"/>
<path style="fill:#293F4F;" d="M247.467,319.467l-6.4,33.067l-18.133-10.667C222.933,341.867,236.8,323.733,247.467,319.467z"/>
<path style="fill:#E8EAE9;" d="M236.8,349.333v1.067c-2.133,0-5.333,1.067-6.4-1.067c-2.133-2.133-8.533-6.4-8.533-7.467
	c1.067,0,2.133-1.067,3.2-2.133c1.067,2.133,3.2,5.333,8.533,6.4C233.6,347.2,234.667,348.267,236.8,349.333z"/>
<path style="fill:#FFD15C;" d="M194.133,252.267l4.267,3.2c1.067,0,1.067,1.067,1.067,2.133v5.333c0,0,0,1.067-2.133,1.067
	c0,0,0,2.133-2.133,2.133s-2.133-1.067-2.133-1.067s-2.133,0-3.2-1.067c0,0-2.133,1.067-3.2-1.067c0,0-2.133,0-2.133-2.133
	c0-2.133,0-7.467,1.067-10.667C186.667,245.867,194.133,252.267,194.133,252.267z"/>
<g>
	<path style="fill:#344A5E;" d="M238.933,193.6l-8.533-7.467c0,0-3.2,1.067-4.267,4.267c-1.067,3.2-4.267,3.2-9.6,4.267
		c-4.267,1.067-19.2,5.333-21.333,7.467c-3.2,2.133-4.267,5.333-6.4,11.733c-2.133,6.4-3.2,21.333-5.333,26.667
		c-2.133,5.333-3.2,7.467-3.2,7.467s3.2,3.2,8.533,5.333c5.333,2.133,8.533,0,8.533,0s1.067-7.467,2.133-10.667
		c1.067-3.2,3.2-11.733,3.2-13.867c1.067-2.133,2.133-9.6,2.133-9.6s5.333,1.067,8.533,0c3.2-1.067,8.533-2.133,8.533-2.133
		S238.933,212.8,238.933,193.6z"/>
	<path style="fill:#344A5E;" d="M186.667,417.6l-2.133,1.067v1.067l8.533,8.533l1.067-1.067c0,0,4.267,4.267,5.333,7.467
		c2.133,3.2,5.333,6.4,11.733,6.4s11.733-2.133,9.6-4.267l-5.333,1.067c0,0-11.733-8.533-13.867-11.733
		C198.4,422.933,186.667,417.6,186.667,417.6z"/>
</g>
<path style="fill:#E8EAE9;" d="M210.133,425.067c0,0-2.133-5.333-1.067-11.733c0-6.4,0-6.4,0-6.4l-14.933,3.2l-1.067,9.6
	C197.333,424,203.733,425.067,210.133,425.067z"/>
<path style="fill:#415A6B;" d="M193.067,412.267c0,0,4.267,6.4,7.467,8.533c3.2,2.133,9.6,0,9.6,0s2.133,8.533,2.133,9.6
	c0,2.133,3.2,4.267,3.2,5.333c1.067,1.067,6.4-1.067,6.4,1.067c0,0-1.067,2.133-5.333,2.133c-4.267,1.067-9.6,1.067-11.733-2.133
	c-3.2-3.2-6.4-8.533-8.533-11.733c-3.2-3.2-8.533-7.467-9.6-8.533C186.667,417.6,185.6,414.4,193.067,412.267z"/>
<path style="fill:#344A5E;" d="M213.333,341.867c0,0-7.467,17.067-8.533,27.733c-1.067,10.667-3.2,21.333-5.333,26.667
	C197.333,401.6,192,414.4,192,414.4c-1.067,1.067,9.6,4.267,16,4.267c5.333,0,6.4,1.067,6.4,1.067s5.333-26.667,7.467-33.067
	s24.533-59.733,24.533-66.133c1.067-6.4,1.067-6.4,1.067-6.4L213.333,341.867z"/>
<polygon style="fill:#293F4F;" points="270.933,293.867 251.733,280 256,221.333 280.533,214.933 "/>
<path style="fill:#344A5E;" d="M292.267,297.067c-5.333-6.4-36.267-19.2-37.333-20.267c1.067-3.2,0-10.667,0-10.667l-33.067-13.867
	l-12.8,22.4c0,0,0,1.067,2.133,13.867c1.067,11.733,7.467,17.067,7.467,17.067s-1.067,6.4-2.133,12.8
	c-2.133,7.467-3.2,23.467-3.2,23.467l33.067-21.333l3.2-8.533h7.467c0,0-2.133,3.2-4.267,4.267c-1.067,0-2.133,1.067-3.2,2.133l0,0
	l1.067,29.867c3.2-3.2,7.467-6.4,11.733-9.6c9.6-6.4,25.6-19.2,28.8-22.4C293.333,314.133,297.6,302.4,292.267,297.067z"/>
<path id="SVGCleanerId_0" style="fill:#344A5E;" d="M254.933,276.8L254.933,276.8C253.867,280,253.867,276.8,254.933,276.8
	C253.867,276.8,254.933,276.8,254.933,276.8z"/>
<g>
	<path id="SVGCleanerId_0_1_" style="fill:#344A5E;" d="M254.933,276.8L254.933,276.8C253.867,280,253.867,276.8,254.933,276.8
		C253.867,276.8,254.933,276.8,254.933,276.8z"/>
</g>
<path style="fill:#CED6E0;" d="M316.8,253.333h4.267c2.133-1.067-4.267-7.467-6.4-10.667L312.533,248L316.8,253.333z"/>
<path style="fill:#293F4F;" d="M318.933,261.867h-4.267l-5.333-7.467l3.2-10.667C321.067,257.6,318.933,261.867,318.933,261.867z"/>
<path style="fill:#FFD15C;" d="M309.333,244.8l4.267-2.133c1.067,0,1.067-1.067,2.133-2.133l1.067-3.2
	c0-1.067,1.067-2.133,3.2-2.133c1.067,0,1.067,0,2.133,0c1.067,0,2.133-2.133,4.267-1.067c1.067,1.067,1.067,2.133,1.067,2.133
	s2.133,1.067,1.067,3.2c0,0,2.133,2.133,1.067,3.2c0,0,2.133,1.067,1.067,3.2c-1.067,2.133-3.2,3.2-5.333,3.2
	c-2.133,1.067-3.2,2.133-6.4,3.2c-3.2,2.133-4.267,2.133-4.267,2.133L309.333,244.8z"/>
<path style="fill:#E8EAE9;" d="M314.667,242.667c0,0,1.067,10.667,6.4,10.667l-16,6.4l1.067-13.867L314.667,242.667z"/>
<path style="fill:#344A5E;" d="M293.333,213.867c0,0,3.2,4.267,2.133,7.467c-1.067,3.2-3.2,10.667-3.2,13.867
	c0,3.2-1.067,4.267,0,7.467c1.067,2.133,0,4.267-1.067,5.333c-1.067,1.067-1.067,1.067,0,1.067c1.067,0,5.333-1.067,7.467-1.067
	c2.133,0,3.2-2.133,5.333-2.133c3.2,0,9.6-3.2,9.6-3.2s0,13.867,6.4,19.2c0,0-12.8,3.2-18.133,4.267
	c-5.333,1.067-14.933,2.133-17.067,2.133c-2.133-1.067-3.2-2.133-3.2-3.2S286.933,218.133,293.333,213.867z"/>
<path style="fill:#FFD15C;" d="M295.467,178.667c0,0,0,7.467,0,9.6c-1.067,2.133-2.133,2.133-2.133,3.2
	c0,1.067,1.067,5.333,1.067,6.4c0,1.067,0,1.067-1.067,1.067s-2.133,0-2.133,0s0,1.067,0,2.133c0,1.067,0,1.067-1.067,1.067
	c0,0,1.067,1.067,0,2.133c-1.067,1.067-2.133,1.067-2.133,2.133s-2.133,3.2-6.4,2.133c-3.2-2.133-5.333-2.133-7.467-2.133
	c-1.067,0-1.067,1.067-1.067,1.067l-2.133,10.667l-8.533-9.6c-3.2-4.267-4.267-9.6-3.2-14.933l1.067-2.133l2.133-3.2
	C272,177.6,281.6,168,295.467,178.667z"/>
<path style="fill:#CED6E0;" d="M265.6,206.4l3.2,1.067l6.4-2.133l6.4,6.4c0,0-22.4,55.467-26.667,57.6c0,0-16-9.6-32-12.8L256,193.6
	L265.6,206.4z"/>
<path style="fill:#F3705A;" d="M272,209.6c0,0,1.067,7.467,1.067,8.533c0,2.133,1.067,18.133,1.067,20.267
	c0,2.133-2.133,36.267-2.133,36.267l-7.467,8.533l-5.333-8.533c0,0,2.133-21.333,3.2-24.533c0-3.2,3.2-23.467,3.2-25.6
	c0-2.133,2.133-11.733,2.133-11.733s-2.133-1.067-3.2-5.333s-1.067-4.267-1.067-4.267l6.4,4.267
	C268.8,207.467,270.933,208.533,272,209.6z"/>
<path style="fill:#415A6B;" d="M262.4,189.333c0,0,4.267,3.2,7.467-1.067c3.2-3.2,2.133-6.4,6.4-6.4s4.267,5.333,3.2,6.4
	l2.133,1.067c0,0-1.067-3.2,3.2-5.333s6.4-1.067,8.533-2.133c1.067-1.067,5.333,2.133,6.4-2.133c1.067-4.267-6.4-10.667-11.733-12.8
	c-4.267-2.133-12.8-3.2-18.133,1.067C263.467,170.133,261.333,184,262.4,189.333z"/>
<ellipse style="fill:#FFD15C;" cx="275.2" cy="186.133" rx="3.2" ry="5.333"/>
<g>
	<path style="fill:#F3F3F3;" d="M275.2,206.4c0,0-5.333,1.067-6.4,2.133c0,0,2.133,2.133,2.133,5.333
		c0,4.267,1.067,5.333,1.067,5.333s1.067-4.267,1.067-7.467C274.133,208.533,275.2,207.467,275.2,206.4z"/>
	<path style="fill:#F3F3F3;" d="M268.8,207.467c0,0-1.067-3.2-4.267-7.467c-2.133-4.267-3.2-7.467-3.2-10.667c0,0-3.2,0-4.267,8.533
		c-1.067,8.533,3.2,16,3.2,16L268.8,207.467z"/>
</g>
<g>
	<path style="fill:#415A6B;" d="M260.267,190.4c0,0-4.267,10.667-4.267,14.933c-1.067,4.267-11.733,33.067-16,38.4
		c-4.267,6.4-9.6,7.467-11.733,10.667c-2.133,3.2,3.2,17.067,1.067,25.6c-2.133,8.533-9.6,20.267-13.867,19.2
		c-4.267-1.067-20.267-10.667-20.267-10.667s11.733-35.2,13.867-43.733c2.133-8.533,9.6-28.8,9.6-28.8s16-18.133,10.667-29.867
		c0,0,9.6,2.133,13.867,3.2C248.533,191.467,257.067,192.533,260.267,190.4z"/>
	<path style="fill:#415A6B;" d="M290.133,236.267c-2.133,8.533-7.467,23.467-10.667,36.267c-3.2,12.8-8.533,27.733-8.533,27.733
		s3.2-44.8,5.333-59.733c2.133-14.933,0-34.133,0-34.133l0,0c2.133,0,3.2,0,7.467,2.133c1.067,1.067,2.133,1.067,3.2,1.067
		c3.2,2.133,7.467,5.333,7.467,5.333C295.467,219.2,292.267,227.733,290.133,236.267z"/>
</g>
<path style="fill:#F3705A;" d="M462.933,301.333V260.8l-41.6-11.733c-2.133-10.667-4.267-21.333-7.467-30.933
	c0-1.067-1.067-3.2-2.133-4.267l30.933-30.933l-20.267-35.2L380.8,158.4c-7.467-9.6-17.067-18.133-26.667-25.6L364.8,91.2
	l-35.2-20.267L298.667,100.8c-10.667-4.267-23.467-7.467-35.2-9.6l-11.733-41.6H211.2l-11.733,42.667
	C188.8,94.4,179.2,96.533,168.533,99.733c-1.067,0-3.2,1.067-4.267,2.133l-30.933-30.933l-35.2,19.2L108.8,132.8
	c-9.6,7.467-18.133,17.067-25.6,25.6l-42.667-10.667l-19.2,35.2L51.2,213.867c-4.267,11.733-7.467,23.467-9.6,36.267L0,260.8v40.533
	l41.6,11.733c2.133,10.667,4.267,21.333,7.467,32c0,1.067,1.067,3.2,2.133,4.267L21.333,379.2L41.6,414.4l41.6-10.667
	c7.467,9.6,17.067,18.133,26.667,25.6l-10.667,41.6l35.2,20.267l30.933-30.933c11.733,4.267,23.467,7.467,36.267,9.6l11.733,41.6
	h40.533l11.733-41.6c10.667-2.133,21.333-4.267,30.933-7.467c1.067,0,3.2-1.067,4.267-2.133l30.933,30.933l35.2-20.267
	l-10.667-42.667c9.6-7.467,18.133-17.067,25.6-25.6l42.667,10.667l20.267-35.2L413.867,347.2c4.267-11.733,7.467-23.467,9.6-36.267
	L462.933,301.333z M80,333.333c-28.8-84.267,14.933-174.933,99.2-204.8c83.2-28.8,174.933,14.933,204.8,99.2
	c28.8,84.267-14.933,176-99.2,204.8C200.533,461.333,108.8,417.6,80,333.333z"/>
<g>
</g>
<g>
</g>
<g>
</g>
<g>
</g>
<g>
</g>
<g>
</g>
<g>
</g>
<g>
</g>
<g>
</g>
<g>
</g>
<g>
</g>
<g>
</g>
<g>
</g>
<g>
</g>
<g>
</g>
</svg>
