<?xml version="1.0" encoding="iso-8859-1"?>
<!-- Generator: Adobe Illustrator 19.0.0, SVG Export Plug-In . SVG Version: 6.00 Build 0)  -->
<svg version="1.1" id="Capa_1" xmlns="http://www.w3.org/2000/svg" xmlns:xlink="http://www.w3.org/1999/xlink" x="0px" y="0px"
	 viewBox="0 0 512.185 512.185" style="enable-background:new 0 0 512.185 512.185;" xml:space="preserve">
<path style="fill:#415A6B;" d="M396.986,313.458c-4.267,7.467-12.8,13.867-23.467,13.867c-10.667,0-19.2-5.333-23.467-13.867
	H396.986z"/>
<g>
	<path style="fill:#344A5E;" d="M197.519,479.858l-5.333-89.6h7.467l11.733,10.667c7.467,7.467,17.067,58.667,20.267,78.933H197.519
		z"/>
	<path style="fill:#344A5E;" d="M170.852,479.858c0-28.8,0-66.133-3.2-77.867c-5.333-20.267-5.333-23.467-5.333-23.467l6.4,1.067
		c0,0,27.733,6.4,33.067,12.8c5.333,6.4,17.067,30.933,16,52.267c0,9.6-2.133,21.333-4.267,35.2H170.852z"/>
</g>
<path style="fill:#FFD15C;" d="M82.319,298.525l4.267,38.4l61.867,48v-50.133c0,0,17.067-12.8,16-50.133
	c0,0,2.133-20.267-2.133-35.2c-4.267-13.867-8.533-26.667-21.333-32c-12.8-5.333-48,4.267-55.467,10.667
	C79.119,235.592,71.652,283.592,82.319,298.525z"/>
<path style="fill:#415A6B;" d="M84.452,283.592l-3.2,2.133l-10.667-8.533c0,0-4.267-21.333,2.133-38.4
	c7.467-17.067,26.667-32,38.4-34.133c11.733-2.133,20.267-3.2,28.8,3.2c8.533,6.4,17.067,14.933,20.267,24.533
	c3.2,9.6,7.467,29.867,6.4,38.4c-1.067,8.533-2.133,14.933-2.133,14.933h-2.133c0,0,2.133-13.867,0-21.333s-3.2-8.533-4.267-16
	s-3.2-16-10.667-19.2c-7.467-3.2-27.733-4.267-38.4,0h-1.067c-9.6,3.2-16,12.8-18.133,22.4c0,1.067-1.067,3.2-1.067,4.267
	C85.519,261.192,82.319,275.058,84.452,283.592z"/>
<ellipse transform="matrix(0.2964 0.9551 -0.9551 0.2964 331.9652 132.3712)" style="fill:#FFD15C;" cx="76.144" cy="291.487" rx="17.067" ry="7.467"/>
<path style="fill:#F7B64C;" d="M148.452,334.792v37.333c-41.6-16-58.667-57.6-58.667-57.6
	C113.252,345.458,148.452,334.792,148.452,334.792z"/>
<polygon style="fill:#CED6E0;" points="153.785,479.858 148.452,465.992 104.719,365.725 136.719,361.458 142.052,361.458 
	148.452,357.192 171.919,400.925 172.985,479.858 "/>
<g>
	<path style="fill:#F3705A;" d="M152.719,479.858c-8.533-18.133-18.133-41.6-19.2-52.267c-1.067-19.2,7.467-45.867,7.467-45.867
		v-1.067l1.067-6.4l12.8,7.467c0,0,14.933,19.2,16,19.2l8.533,56.533l-7.467,22.4H152.719z"/>
	<path style="fill:#F3705A;" d="M127.119,364.658c0,0,8.533,6.4,13.867,16c0,0,7.467-4.267,13.867,0c0,0-3.2-14.933-5.333-18.133
		c-2.133-3.2-8.533,0-8.533,0h-5.333L127.119,364.658z"/>
</g>
<path style="fill:#F3F3F3;" d="M86.585,333.725c0,0,8.533,7.467,19.2,11.733c11.733,4.267,29.867,17.067,29.867,17.067
	s-19.2,18.133-19.2,29.867c0,11.733-1.067,11.733-1.067,11.733l-39.467-53.333C81.252,345.458,84.452,330.525,86.585,333.725z"/>
<path style="fill:#344A5E;" d="M18.319,479.858c-5.333-16-11.733-33.067-14.933-48c-9.6-38.4,4.267-48,4.267-48
	c11.733-14.933,29.867-11.733,38.4-13.867c8.533-2.133,20.267-10.667,20.267-10.667l30.933,3.2c0,0,39.467,48,49.067,72.533
	c4.267,8.533,8.533,25.6,13.867,42.667H18.319V479.858z"/>
<path style="fill:#2E4454;" d="M212.452,479.858c2.133-13.867,4.267-25.6,4.267-35.2c1.067-21.333-10.667-45.867-16-52.267
	c0-1.067-1.067-1.067-2.133-2.133c0,0,4.267,1.067,11.733,7.467c8.533,7.467,10.667,24.533,10.667,24.533s4.267,7.467,8.533,16
	s2.133,14.933,2.133,14.933s0,5.333,3.2,9.6c3.2,4.267,6.4,7.467,9.6,11.733c1.067,1.067,2.133,2.133,3.2,4.267h-35.2V479.858z"/>
<path style="fill:#415A6B;" d="M153.785,479.858c-7.467-20.267-16-39.467-21.333-49.067c-12.8-25.6-36.267-44.8-36.267-44.8
	l5.333-7.467l-12.8-1.067c0,0-20.267-17.067-22.4-18.133c0,0,2.133-4.267,5.333-6.4c3.2-2.133,6.4-7.467,8.533-8.533
	c0,0,28.8,19.2,41.6,39.467c12.8,19.2,28.8,46.933,37.333,76.8c1.067,5.333,3.2,11.733,4.267,18.133h-9.6V479.858z"/>
<path style="fill:#F3F3F3;" d="M148.452,346.525c0,0-2.133,10.667-7.467,14.933c0,0,8.533,0,10.667,9.6c3.2,9.6,3.2,9.6,3.2,9.6
	s0-9.6-2.133-14.933C151.652,360.392,152.719,348.658,148.452,346.525z"/>
<path style="fill:#415A6B;" d="M165.519,479.858c0-1.067,0-1.067,0-2.133c0-10.667,0-56.533-2.133-69.333
	c-2.133-11.733-10.667-44.8-10.667-44.8s5.333,9.6,17.067,16l-3.2,2.133c0,0,10.667,3.2,13.867,13.867
	c3.2,10.667,4.267,51.2,4.267,62.933c0,3.2-1.067,11.733-1.067,21.333H165.519z"/>
<path style="fill:#55C0EB;" d="M234.852,479.858l7.467-56.533c3.2-24.533,19.2-45.867,42.667-55.467l42.667-17.067l45.867,25.6
	l45.867-25.6l42.667,17.067c23.467,9.6,39.467,30.933,42.667,55.467l7.467,56.533H234.852z"/>
<g>
	<path style="fill:#415A6B;" d="M353.252,375.325c0,0,13.867,16,16,21.333c3.2-2.133,6.4-2.133,10.667,0
		c2.133-5.333,16-21.333,16-21.333H353.252z"/>
	<path style="fill:#415A6B;" d="M357.519,479.858c1.067-24.533,2.133-45.867,2.133-50.133c1.067-11.733,8.533-32,8.533-32
		l-1.067-7.467l8.533-1.067l3.2,7.467c0,0,7.467,21.333,8.533,27.733c0,2.133,2.133,27.733,3.2,55.467H357.519z"/>
</g>
<g>
	<path style="fill:#E8EAE9;" d="M336.185,331.592l37.333,43.733l-30.933,17.067c0,0-14.933-25.6-16-32c-1.067-6.4,0-9.6,2.133-12.8
		C330.852,344.392,335.119,331.592,336.185,331.592z"/>
	<path style="fill:#E8EAE9;" d="M408.719,330.525l-35.2,44.8l30.933,17.067c0,0,14.933-25.6,16-32s0-9.6-2.133-12.8
		C416.185,344.392,409.785,331.592,408.719,330.525z"/>
</g>
<path style="fill:#FFD15C;" d="M417.252,250.525h-86.4c-3.2-20.267-11.733-38.4-26.667-53.333
	c-20.267-20.267-30.933-50.133-26.667-82.133c6.4-42.667,41.6-76.8,84.267-82.133c58.667-6.4,108.8,39.467,108.8,96
	c0,24.533-9.6,48-24.533,65.067C431.119,209.992,421.519,229.192,417.252,250.525z"/>
<path style="fill:#FFFFFF;" d="M356.452,256.925v-76.8l-19.2-39.467c0-1.067,0-2.133,0-3.2c1.067-1.067,1.067-1.067,2.133-1.067
	h68.267c1.067,0,2.133,1.067,2.133,1.067c1.067,1.067,1.067,2.133,0,3.2l-19.2,39.467v76.8c0,2.133-1.067,3.2-3.2,3.2h-27.733
	C358.585,260.125,356.452,257.992,356.452,256.925z M384.185,179.058v-1.067l18.133-36.267h-57.6l18.133,36.267v1.067v74.667h21.333
	V179.058z"/>
<path style="fill:#415A6B;" d="M327.652,268.658h92.8c4.267,0,8.533-3.2,8.533-8.533v-2.133c0-4.267-3.2-8.533-8.533-8.533h-92.8
	c-4.267,0-8.533,3.2-8.533,8.533v2.133C319.119,265.458,322.319,268.658,327.652,268.658z"/>
<path style="fill:#344A5E;" d="M408.719,313.458h-69.333c-6.4,0-10.667-5.333-10.667-10.667v-34.133h90.667v34.133
	C419.385,308.125,414.052,313.458,408.719,313.458z"/>
<path style="fill:#415A6B;" d="M327.652,300.658h92.8c4.267,0,8.533-3.2,8.533-8.533v-2.133c0-4.267-3.2-8.533-8.533-8.533h-92.8
	c-4.267,0-8.533,3.2-8.533,8.533v2.133C319.119,296.392,322.319,300.658,327.652,300.658z"/>
<g>
</g>
<g>
</g>
<g>
</g>
<g>
</g>
<g>
</g>
<g>
</g>
<g>
</g>
<g>
</g>
<g>
</g>
<g>
</g>
<g>
</g>
<g>
</g>
<g>
</g>
<g>
</g>
<g>
</g>
</svg>
