<?xml version="1.0" encoding="iso-8859-1"?>
<!-- Generator: Adobe Illustrator 19.0.0, SVG Export Plug-In . SVG Version: 6.00 Build 0)  -->
<svg version="1.1" id="Capa_1" xmlns="http://www.w3.org/2000/svg" xmlns:xlink="http://www.w3.org/1999/xlink" x="0px" y="0px"
	 viewBox="0 0 512 512" style="enable-background:new 0 0 512 512;" xml:space="preserve">
<path style="fill:#E8EAE9;" d="M373.333,0H121.6L0,121.6v369.067C0,502.4,9.6,512,21.333,512h352c11.733,0,21.333-9.6,21.333-21.333
	V21.333C394.667,9.6,385.067,0,373.333,0z"/>
<path style="fill:#ADB3BA;" d="M0,121.6h92.8c16,0,28.8-12.8,28.8-28.8V0L0,121.6z"/>
<g>
	<path style="fill:#F3705A;" d="M197.333,236.8c-30.933,0-56.533,25.6-56.533,56.533s25.6,56.533,56.533,56.533
		s56.533-25.6,56.533-56.533S228.267,236.8,197.333,236.8z M197.333,318.933c-13.867,0-24.533-10.667-24.533-24.533
		c0-13.867,10.667-24.533,24.533-24.533s24.533,10.667,24.533,24.533C221.867,308.267,211.2,318.933,197.333,318.933z"/>
	<path style="fill:#F3705A;" d="M352,277.333h-28.8c-7.467-57.6-52.267-102.4-109.867-109.867v-28.8h-32v28.8
		c-57.6,7.467-103.467,52.267-109.867,109.867h-28.8v32h28.8c7.467,57.6,52.267,102.4,109.867,109.867V448h32v-28.8
		c57.6-7.467,102.4-52.267,109.867-109.867H352V277.333z M197.333,388.267c-52.267,0-94.933-42.667-94.933-94.933
		s42.667-94.933,94.933-94.933s94.933,42.667,94.933,94.933S249.6,388.267,197.333,388.267z"/>
</g>
<g>
	
		<ellipse transform="matrix(0.2976 -0.9547 0.9547 0.2976 5.1624 614.8116)" style="fill:#FFD15C;" cx="420.401" cy="303.897" rx="16" ry="7.467"/>
	
		<ellipse transform="matrix(0.1679 0.9858 -0.9858 0.1679 574.3278 -80.6881)" style="fill:#FFD15C;" cx="334.96" cy="299.864" rx="16" ry="7.467"/>
	<path style="fill:#FFD15C;" d="M338.133,299.733c0,0-2.133,19.2,3.2,37.333v57.6h64l3.2-55.467c0,0,7.467-18.133,9.6-39.467
		c2.133-21.333,5.333-44.8,5.333-44.8L409.6,236.8l-46.933,1.067L344.533,252.8L338.133,299.733z"/>
</g>
<rect x="314.667" y="391.467" style="fill:#CED6E0;" width="115.2" height="120.533"/>
<path style="fill:#415A6B;" d="M341.333,299.733c0-5.333,0-13.867,2.133-18.133c3.2-7.467,3.2-13.867,4.267-19.2
	c1.067-5.333,5.333-12.8,14.933-12.8c9.6,0,28.8,2.133,38.4,1.067c10.667-1.067,12.8,4.267,12.8,11.733c0,7.467,2.133,19.2,3.2,22.4
	c1.067,2.133,0,11.733,0,14.933h3.2c2.133-3.2,6.4-10.667,6.4-17.067c0-8.533,9.6-45.867-10.667-44.8c0,0,1.067-26.667-41.6-21.333
	c-42.667,6.4-41.6,49.067-42.667,56.533c0,5.333,3.2,18.133,6.4,26.667H341.333L341.333,299.733z"/>
<path style="fill:#F7B64C;" d="M372.267,357.333c-16-1.067-30.933-21.333-30.933-21.333v50.133c51.2-4.267,66.133-48,66.133-48
	C404.267,345.6,388.267,358.4,372.267,357.333z"/>
<path style="fill:#415A6B;" d="M512,512c-6.4-17.067-9.6-46.933-11.733-62.933c-2.133-16-14.933-36.267-14.933-36.267l-9.6,2.133
	l-23.467,11.733L464,512H512z"/>
<path style="fill:#344A5E;" d="M403.2,512h66.133c2.133-38.4,16-94.933,16-99.2c0-4.267,0-5.333-14.933-10.667
	c-14.933-5.333-50.133-28.8-50.133-28.8l2.133,37.333L403.2,512z"/>
<path style="fill:#E8EAE9;" d="M406.4,360.533c0,0-16,23.467-32,30.933c0,0,12.8,4.267,17.067,8.533
	c5.333,4.267,11.733,6.4,11.733,6.4l12.8-27.733L406.4,360.533z"/>
<g>
	<path style="fill:#415A6B;" d="M408.533,417.067c-1.067,21.333-5.333,65.067-9.6,94.933h14.933
		c10.667-27.733,25.6-84.267,24.533-112l-13.867-3.2c0,0,8.533-6.4,10.667-7.467c0,0-7.467-10.667-14.933-16s-8.533-9.6-12.8-10.667
		C408.533,362.667,410.667,388.267,408.533,417.067z"/>
	<path style="fill:#415A6B;" d="M284.8,512l11.733-85.333l-23.467-11.733l-9.6-2.133c0,0-11.733,19.2-14.933,36.267
		c-2.133,16-6.4,46.933-11.733,62.933L284.8,512L284.8,512z"/>
</g>
<path style="fill:#344A5E;" d="M344.533,512l-19.2-101.333l2.133-37.333c0,0-35.2,23.467-50.133,28.8
	c-14.933,5.333-14.933,6.4-14.933,10.667s12.8,60.8,16,99.2H344.533z"/>
<path style="fill:#E8EAE9;" d="M341.333,360.533c0,0,16,23.467,32,30.933c0,0-12.8,4.267-17.067,8.533
	c-5.333,4.267-11.733,6.4-11.733,6.4l-12.8-27.733L341.333,360.533z"/>
<path style="fill:#415A6B;" d="M333.867,512H348.8c-4.267-29.867-8.533-73.6-9.6-94.933c-1.067-28.8,1.067-54.4,1.067-54.4
	C336,363.733,336,368,327.467,373.333c-8.533,5.333-14.933,16-14.933,16c3.2,1.067,10.667,7.467,10.667,7.467l-13.867,3.2
	C308.267,427.733,323.2,484.267,333.867,512z"/>
<g>
	<polygon style="fill:#F3705A;" points="384,425.6 395.733,412.8 374.4,391.467 352,412.8 363.733,425.6 	"/>
	<polygon style="fill:#F3705A;" points="393.6,512 384,425.6 363.733,425.6 354.133,512 	"/>
</g>
<g>
</g>
<g>
</g>
<g>
</g>
<g>
</g>
<g>
</g>
<g>
</g>
<g>
</g>
<g>
</g>
<g>
</g>
<g>
</g>
<g>
</g>
<g>
</g>
<g>
</g>
<g>
</g>
<g>
</g>
</svg>
