<?xml version="1.0" encoding="iso-8859-1"?>
<!-- Generator: Adobe Illustrator 19.0.0, SVG Export Plug-In . SVG Version: 6.00 Build 0)  -->
<svg version="1.1" id="Capa_1" xmlns="http://www.w3.org/2000/svg" xmlns:xlink="http://www.w3.org/1999/xlink" x="0px" y="0px"
	 viewBox="0 0 512 512" style="enable-background:new 0 0 512 512;" xml:space="preserve">
<path style="fill:#4ABAA5;" d="M341.333,403.733H352c-4.267-17.067-8.533-34.133-8.533-34.133l17.067-48l-10.667,1.067
	c0,0-8.533,5.333-9.6,14.933c-1.067,9.6-3.2,22.4-2.133,29.867C339.2,372.8,341.333,390.933,341.333,403.733z"/>
<polygon style="fill:#CED6E0;" points="387.2,403.733 428.8,301.333 387.2,301.333 375.467,301.333 343.467,362.133 
	350.933,403.733 "/>
<path style="fill:#FFD15C;" d="M422.4,240.533c0,0,1.067,16-1.067,26.667l9.6,24.533L381.867,318.4l-5.333-28.8v-11.733
	c0,0-13.867-14.933-14.933-34.133c-1.067-19.2,0-20.267,0-20.267l0,0c0,0-2.133-22.4,7.467-32c9.6-8.533,36.267-8.533,43.733-3.2
	C420.267,194.667,422.4,240.533,422.4,240.533z"/>
<path style="fill:#F05540;" d="M382.933,403.733c2.133-19.2,6.4-56.533,6.4-62.933c1.067-8.533,2.133-20.267,2.133-20.267
	l1.067-4.267c-5.333-4.267-13.867,3.2-13.867,3.2s-3.2,13.867-4.267,18.133c-1.067,4.267-7.467,24.533-8.533,36.267
	c-1.067,6.4-1.067,18.133-2.133,29.867H382.933z"/>
<path style="fill:#F3705A;" d="M377.6,309.867c0,0-1.067,5.333,0,8.533c0,0,11.733-3.2,13.867,1.067c0,0,4.267-7.467,9.6-8.533
	L387.2,300.267h-9.6V309.867"/>
<path style="fill:#F7B64C;" d="M421.333,268.267c0,0-13.867,16-24.533,17.067c-10.667,1.067-19.2-6.4-19.2-6.4v11.733l2.133,10.667
	C389.333,297.067,413.867,286.4,421.333,268.267z"/>
<path style="fill:#F3F3F3;" d="M387.2,301.333c0,0-8.533,4.267-9.6,10.667c-1.067,6.4-2.133,8.533-2.133,8.533
	s1.067-14.933,1.067-17.067c0-2.133,1.067-19.2,1.067-21.333c0-2.133,0,0,0,0S378.667,290.667,387.2,301.333"/>
<g>
	
		<ellipse transform="matrix(0.1241 0.9923 -0.9923 0.1241 551.8901 -152.8995)" style="fill:#FFD15C;" cx="362.551" cy="236.155" rx="12.8" ry="5.333"/>
	
		<ellipse transform="matrix(0.1241 -0.9923 0.9923 0.1241 140.3879 629.4565)" style="fill:#FFD15C;" cx="426.735" cy="235.209" rx="12.8" ry="5.333"/>
</g>
<path style="fill:#415A6B;" d="M362.667,233.067h1.067c0-2.133,0-19.2,2.133-24.533c1.067-2.133,2.133-4.267,3.2-6.4
	c2.133-4.267,7.467-6.4,11.733-4.267c5.333,1.067,12.8,2.133,21.333,0c3.2-1.067,6.4,0,9.6,1.067c2.133,1.067,5.333,3.2,6.4,5.333
	c2.133,4.267,4.267,21.333,5.333,28.8h1.067c0-2.133,0-6.4,3.2-9.6c0,0,1.067-20.267-5.333-33.067
	c-6.4-12.8-27.733-17.067-36.267-14.933c-8.533,3.2-20.267,9.6-23.467,19.2c0,0-3.2,9.6-2.133,18.133
	C359.467,222.4,362.667,230.933,362.667,233.067z"/>
<path style="fill:#F3F3F3;" d="M421.333,268.267c-6.4,11.733-19.2,23.467-34.133,34.133c6.4,6.4,10.667,12.8,14.933,20.267
	L432,286.4L421.333,268.267"/>
<path style="fill:#66C6B9;" d="M344.533,403.733h14.933c-3.2-12.8-6.4-25.6-6.4-30.933c0-7.467,11.733-37.333,19.2-56.533
	c4.267-10.667,6.4-22.4,5.333-34.133c-1.067,8.533-3.2,16-6.4,23.467l-2.133,3.2c0,0-7.467,6.4-10.667,9.6
	c-4.267,3.2-7.467,5.333-7.467,5.333s-10.667,22.4-8.533,38.4C343.467,371.733,343.467,388.8,344.533,403.733z"/>
<path style="fill:#4ABAA5;" d="M462.933,403.733H512c-2.133-14.933-4.267-28.8-4.267-33.067c-1.067-8.533-6.4-23.467-6.4-28.8
	c0-4.267-4.267-35.2-17.067-40.533c-12.8-4.267-34.133,5.333-34.133,5.333l6.4,60.8C456.533,368.533,460.8,388.8,462.933,403.733z"
	/>
<path style="fill:#66C6B9;" d="M474.667,403.733c-4.267-24.533-18.133-35.2-18.133-35.2s2.133-69.333,28.8-66.133
	c0,0-43.733-13.867-45.867-14.933c-2.133,0-2.133,0-2.133,0S432,280,425.6,276.8c0,0,1.067,2.133,0,7.467
	c-2.133,6.4-34.133,60.8-37.333,72.533c-3.2,7.467-10.667,33.067-14.933,46.933L474.667,403.733L474.667,403.733z"/>
<path style="fill:#4ABAA5;" d="M512,403.733c-2.133-14.933-4.267-28.8-4.267-33.067c0-1.067,0-2.133,0-3.2H457.6
	c0,0,3.2,21.333,6.4,35.2h48V403.733z"/>
<g>
	<path style="fill:#FFD15C;" d="M134.4,228.8c-1.067,6.4-4.267,10.667-6.4,10.667c-2.133-1.067-2.133-6.4-1.067-12.8
		c1.067-6.4,4.267-10.667,6.4-10.667C135.467,216,135.467,222.4,134.4,228.8z"/>
	<path style="fill:#FFD15C;" d="M69.333,236.267c-2.133,0-5.333-4.267-6.4-10.667c-2.133-6.4-1.067-12.8,1.067-12.8
		s6.4,4.267,7.467,10.667C73.6,229.867,71.467,236.267,69.333,236.267z"/>
	<path style="fill:#FFD15C;" d="M130.133,221.333c0,0-5.333,29.867-9.6,38.4c0,0-3.2,12.8-2.133,23.467
		c1.067,10.667,1.067,10.667,1.067,10.667l-28.8,7.467L70.4,274.667c0,0,1.067-17.067,0-22.4c0,0-3.2-14.933-3.2-26.667
		s7.467-36.267,7.467-36.267l8.533-10.667l24.533-1.067l19.2,6.4C129.067,186.133,131.2,208.533,130.133,221.333z"/>
</g>
<path style="fill:#F7B64C;" d="M118.4,283.2c-1.067-9.6,1.067-21.333,1.067-23.467c-6.4,5.333-12.8,8.533-18.133,8.533
	c-20.267,0-30.933-14.933-30.933-14.933c7.467,18.133,30.933,28.8,48,34.133C119.467,286.4,119.467,285.333,118.4,283.2z"/>
<path style="fill:#CED6E0;" d="M209.067,403.733H4.267c-3.2-13.867-4.267-32-4.267-39.467c1.067-8.533,1.067-22.4,1.067-30.933
	c0-8.533,3.2-21.333,3.2-21.333l0,0c0-1.067,7.467-13.867,20.267-19.2c12.8-6.4,39.467-16,39.467-16l11.733,18.133l24.533-4.267h3.2
	l10.667-1.067l6.4-10.667c0,0,21.333,11.733,34.133,17.067c12.8,5.333,24.533,16,24.533,20.267c0,0,7.467,13.867,7.467,20.267
	c0,6.4,8.533,29.867,11.733,38.4C202.667,383.467,208,394.133,209.067,403.733z"/>
<path style="fill:#F3705A;" d="M104.533,403.733h28.8c-1.067-14.933-2.133-36.267-5.333-45.867
	c-5.333-14.933-14.933-32-17.067-36.267c-2.133-4.267-2.133-13.867-2.133-13.867l-2.133-4.267c0,0-7.467,2.133-7.467,6.4
	c0,0,0,16,0,33.067C99.2,357.867,103.467,392,104.533,403.733z"/>
<path style="fill:#F05540;" d="M92.8,294.933c0,0,5.333,9.6,5.333,14.933c0,0,7.467-3.2,9.6-2.133c0,0,3.2-8.533,3.2-11.733
	c0-2.133,0,0,0,0l-8.533-5.333h-2.133L92.8,294.933z"/>
<path style="fill:#415A6B;" d="M69.333,224.533h2.133c0,0,0-14.933,3.2-17.067c3.2-2.133,4.267-8.533,4.267-11.733
	c0-3.2,2.133-6.4,8.533-6.4c6.4,0,27.733,2.133,33.067,1.067c5.333-1.067,7.467,3.2,7.467,6.4c0,3.2-1.067,10.667,1.067,13.867
	c2.133,3.2-1.067,17.067-1.067,17.067h2.133c0,0,1.067-9.6,4.267-11.733c0,0,1.067-16-2.133-25.6
	c-3.2-9.6-12.8-14.933-18.133-18.133c-4.267-2.133-25.6-3.2-33.067,2.133c-8.533,6.4-11.733,12.8-12.8,17.067
	c0,4.267-2.133,21.333-2.133,21.333S71.467,214.933,69.333,224.533z"/>
<g>
	<path style="fill:#E8EAE9;" d="M118.4,271.467c0,0-1.067,6.4-3.2,9.6c-2.133,3.2-11.733,9.6-11.733,9.6s6.4,3.2,17.067,25.6
		c0,0,2.133-12.8,2.133-18.133c0-4.267-1.067-10.667-1.067-14.933C120.533,278.933,120.533,274.667,118.4,271.467"/>
	<path style="fill:#E8EAE9;" d="M71.467,264c0,0,0,5.333,7.467,11.733c7.467,6.4,21.333,14.933,21.333,14.933l-21.333,22.4
		c0,0-5.333-10.667-7.467-13.867s-9.6-11.733-8.533-20.267c0,0,2.133-5.333,4.267-7.467C68.267,270.4,69.333,265.067,71.467,264"/>
</g>
<polyline style="fill:#CED6E0;" points="256,273.6 316.8,273.6 278.4,398.4 214.4,398.4 211.2,264 245.333,273.6 256,273.6 "/>
<polygon style="fill:#F3705A;" points="278.4,403.733 264.533,298.133 247.467,298.133 233.6,403.733 "/>
<polygon style="fill:#F05540;" points="264.533,298.133 273.067,289.6 256,273.6 238.933,289.6 247.467,298.133 "/>
<path style="fill:#F3F3F3;" d="M227.2,236.267c0,0-2.133,8.533,0,12.8c2.133,4.267,28.8,23.467,28.8,23.467l-24.533,25.6l-16-32
	L220.8,248c1.067-3.2,2.133-5.333,3.2-7.467C225.067,238.4,226.133,237.333,227.2,236.267z"/>
<path style="fill:#344A5E;" d="M236.8,403.733l-23.467-108.8l-1.067-34.133L156.8,282.133
	c-13.867,5.333-23.467,18.133-24.533,34.133l-6.4,88.533H236.8V403.733z"/>
<path style="fill:#415A6B;" d="M227.2,403.733h14.933c-3.2-19.2-13.867-86.4-18.133-103.467c-5.333-20.267-3.2-53.333-3.2-53.333
	c-2.133,1.067-6.4,8.533-6.4,8.533c-4.267,5.333-8.533,11.733-10.667,18.133c-4.267,8.533-8.533,20.267-8.533,20.267l13.867-1.067
	L192,307.733L227.2,403.733z"/>
<path style="fill:#F3F3F3;" d="M284.8,236.267c0,0,2.133,8.533,0,12.8c-2.133,5.333-28.8,23.467-28.8,23.467l24.533,25.6l16-32
	L291.2,248c-1.067-3.2-2.133-5.333-3.2-7.467S285.867,237.333,284.8,236.267z"/>
<path style="fill:#344A5E;" d="M387.2,403.733l-6.4-88.533c-1.067-14.933-10.667-27.733-24.533-34.133L300.8,259.733l-2.133,35.2
	l-23.467,108.8H387.2z"/>
<path style="fill:#415A6B;" d="M269.867,403.733H284.8l36.267-94.933L304,293.867l13.867,1.067c0,0-5.333-11.733-8.533-20.267
	c-3.2-6.4-6.4-12.8-10.667-18.133c0,0-4.267-7.467-6.4-8.533c0,0,2.133,34.133-3.2,53.333
	C283.733,317.333,273.067,384.533,269.867,403.733z"/>
<circle style="fill:#FFD15C;" cx="256" cy="187.2" r="80"/>
<circle style="fill:#F7B64C;" cx="256" cy="187.2" r="57.6"/>
<path style="fill:#FFD15C;" d="M252.8,208.533v-19.2c-6.4-2.133-10.667-4.267-12.8-7.467c-2.133-3.2-4.267-7.467-4.267-12.8
	c0-5.333,1.067-8.533,4.267-12.8c3.2-4.267,7.467-5.333,12.8-5.333v-4.267h6.4v4.267c4.267,1.067,8.533,2.133,11.733,5.333
	s4.267,6.4,5.333,10.667L264.533,168c-1.067-3.2-2.133-6.4-5.333-7.467V177.6c7.467,2.133,11.733,4.267,14.933,7.467
	c2.133,3.2,4.267,7.467,4.267,11.733c0,5.333-2.133,9.6-5.333,13.867c-3.2,3.2-7.467,6.4-13.867,6.4v8.533h-6.4v-8.533
	c-5.333-1.067-9.6-2.133-12.8-5.333c-3.2-3.2-5.333-7.467-6.4-13.867l11.733-1.067c0,2.133,1.067,4.267,3.2,6.4
	C249.6,206.4,251.733,208.533,252.8,208.533z M252.8,161.6c-2.133,1.067-3.2,2.133-4.267,3.2c-1.067,1.067-1.067,3.2-1.067,4.267
	s0,3.2,1.067,4.267c1.067,1.067,2.133,2.133,4.267,3.2V161.6z M259.2,209.6c2.133,0,4.267-1.067,5.333-3.2
	c1.067-2.133,2.133-3.2,2.133-6.4c0-2.133-1.067-4.267-2.133-5.333c-1.067-1.067-3.2-2.133-5.333-3.2V209.6z"/>
<g>
</g>
<g>
</g>
<g>
</g>
<g>
</g>
<g>
</g>
<g>
</g>
<g>
</g>
<g>
</g>
<g>
</g>
<g>
</g>
<g>
</g>
<g>
</g>
<g>
</g>
<g>
</g>
<g>
</g>
</svg>
