<?xml version="1.0" encoding="iso-8859-1"?>
<!-- Generator: Adobe Illustrator 19.0.0, SVG Export Plug-In . SVG Version: 6.00 Build 0)  -->
<svg version="1.1" id="Capa_1" xmlns="http://www.w3.org/2000/svg" xmlns:xlink="http://www.w3.org/1999/xlink" x="0px" y="0px"
	 viewBox="0 0 512.171 512.171" style="enable-background:new 0 0 512.171 512.171;" xml:space="preserve">
<polygon style="fill:#E54838;" points="399.727,408.704 399.727,408.704 399.727,486.571 417.86,512.171 502.127,512.171 
	502.127,512.171 417.86,419.371 "/>
<polygon style="fill:#F05540;" points="502.127,419.371 472.26,408.704 399.727,408.704 417.86,419.371 502.127,512.171 "/>
<rect x="417.86" y="419.371" style="fill:#F3705A;" width="84.267" height="92.8"/>
<polygon style="fill:#3EAF99;" points="266.393,342.571 266.393,342.571 266.393,486.571 284.527,512.171 368.793,512.171 
	368.793,512.171 284.527,353.237 "/>
<polygon style="fill:#4ABAA5;" points="368.793,353.237 338.927,342.571 266.393,342.571 284.527,353.237 368.793,512.171 "/>
<rect x="284.527" y="353.237" style="fill:#66C6B9;" width="84.267" height="158.933"/>
<polygon style="fill:#EFA943;" points="134.127,239.104 134.127,239.104 134.127,486.571 151.193,512.171 236.527,512.171 
	236.527,512.171 151.193,250.837 "/>
<polygon style="fill:#F7B64C;" points="236.527,250.837 205.593,239.104 134.127,239.104 151.193,250.837 236.527,512.171 "/>
<rect x="151.193" y="250.837" style="fill:#FFD15C;" width="84.267" height="261.333"/>
<polygon style="fill:#4CAEE5;" points="0.793,143.104 0.793,143.104 0.793,486.571 18.927,512.171 103.193,512.171 103.193,512.171 
	18.927,153.771 "/>
<polygon style="fill:#55C0EB;" points="103.193,153.771 82.927,143.104 0.793,143.104 18.927,153.771 103.193,512.171 "/>
<rect x="18.927" y="153.771" style="fill:#8AD7F8;" width="84.267" height="358.4"/>
<path style="fill:#CED6E0;" d="M295.193,254.037l7.467-11.733l-16-4.267l-11.733,8.533L295.193,254.037z"/>
<path style="fill:#344A5E;" d="M252.527,245.504h-2.133c0,0-1.067,1.067,0,2.133c1.067,1.067,9.6,7.467,16,8.533
	c6.4,1.067,10.667,1.067,12.8,2.133l-1.067,2.133c0,0,9.6,4.267,11.733,4.267c2.133,0,4.267-2.133,4.267-4.267
	c0-2.133,0-1.067,0-1.067l-28.8-10.667L252.527,245.504z"/>
<path style="fill:#CED6E0;" d="M461.593,257.237l6.4,1.067l7.467,3.2l-1.067,19.2l-5.333-1.067c0,0-8.533-8.533-23.467-11.733
	C429.593,265.771,461.593,257.237,461.593,257.237z"/>
<path style="fill:#344A5E;" d="M479.727,260.437l1.067-4.267h4.267l2.133,14.933h-2.133c0,0,5.333,17.067,5.333,25.6
	s0,16-3.2,14.933l-2.133-19.2L479.727,260.437z"/>
<path style="fill:#415A6B;" d="M421.06,168.704c0,0-1.067,11.733-8.533,25.6c-7.467,12.8-6.4,38.4-6.4,38.4
	s44.8,18.133,52.267,21.333c7.467,3.2,7.467,3.2,7.467,3.2s-11.733,21.333-13.867,24.533c0,0-13.867-9.6-32-16
	c-17.067-5.333-35.2-9.6-39.467-18.133c-4.267-8.533-4.267-52.267-4.267-52.267s-22.4,10.667-32,17.067c-9.6,6.4-48,38.4-48,38.4
	s-14.933-3.2-17.067-16c0,0,41.6-34.133,43.733-37.333c2.133-3.2,25.6-23.467,33.067-30.933c7.467-6.4,18.133-10.667,18.133-10.667
	L421.06,168.704z"/>
<path style="fill:#344A5E;" d="M375.193,112.171l-28.8,44.8c0,0,16,3.2,28.8,3.2c12.8,0,13.867-1.067,13.867-1.067
	S392.26,116.437,375.193,112.171z"/>
<path style="fill:#FFD15C;" d="M337.86,27.904l6.4-4.267l1.067-1.067l3.2-3.2c1.067-1.067,1.067-2.133,1.067-3.2v-3.2
	c0,0-3.2-2.133-4.267,3.2c0,0-2.133,2.133-3.2,2.133c-1.067,0-2.133-1.067-2.133-1.067s0-4.267,0-5.333c0,0,1.067-4.267,0-6.4
	c0-1.067-2.133-5.333-2.133-5.333s-3.2-1.067-2.133,2.133s1.067,3.2,1.067,3.2v3.2h-1.067c0,0,0-2.133-1.067-4.267
	c0-2.133-2.133-4.267-2.133-4.267s-2.133,0-2.133,1.067s1.067,4.267,1.067,4.267s-2.133-3.2-3.2-4.267
	c-1.067-1.067-2.133,1.067-1.067,2.133s1.067,3.2,1.067,3.2v4.267h-1.067c0,0-1.067-2.133-1.067-5.333
	c-1.067-2.133,0-3.2-2.133-4.267s-2.133,1.067-2.133,3.2s1.067,5.333,1.067,6.4s0,9.6,2.133,14.933
	c2.133,5.333,2.133,20.267,2.133,20.267l11.733-7.467L337.86,27.904z"/>
<path style="fill:#344A5E;" d="M375.193,71.637c0-1.067,1.067-3.2,1.067-4.267c-2.133,0-4.267,1.067-5.333,0
	c-2.133-1.067-11.733-2.133-16-2.133c-3.2-1.067-1.067-1.067-1.067-4.267c-1.067-2.133-8.533-10.667-9.6-13.867
	c0-3.2-5.333-14.933-5.333-14.933c-3.2,6.4-17.067,8.533-17.067,8.533s13.867,28.8,14.933,34.133c1.067,5.333,6.4,6.4,16,9.6
	c8.533,3.2,18.133,4.267,18.133,4.267l2.133-4.267C373.06,80.171,374.127,75.904,375.193,71.637z"/>
<g>
	<path style="fill:#FFD15C;" d="M482.927,147.371l2.133,5.333l-3.2,10.667c0,0-1.067,2.133,0,2.133v3.2c0,0,5.333,1.067,4.267-5.333
		c0,0,1.067-4.267,2.133-4.267s3.2,2.133,4.267,3.2c0,1.067,2.133,4.267,2.133,4.267s3.2,6.4,5.333,5.333
		c2.133-1.067,0-4.267-1.067-6.4c0,0,3.2,5.333,5.333,5.333c1.067,0,2.133-1.067,1.067-3.2c-1.067-2.133-3.2-5.333-3.2-5.333l0,0
		c0,0,3.2,5.333,5.333,4.267s-2.133-5.333-3.2-6.4v-1.067c0,0,5.333,5.333,6.4,4.267c2.133-1.067-1.067-4.267-2.133-5.333
		c-1.067-1.067-3.2-3.2-4.267-5.333c-1.067-2.133-4.267-6.4-7.467-10.667c-3.2-3.2-3.2-3.2-3.2-3.2L482.927,147.371z"/>
	<path style="fill:#FFD15C;" d="M379.46,25.771c0,0-3.2,6.4-3.2,8.533s0,2.133,0,3.2s-3.2,5.333-3.2,5.333s0,2.133,1.067,2.133
		s1.067,3.2,1.067,3.2s0,1.067,1.067,1.067c0,0-1.067,1.067,0,2.133s1.067,2.133,0,4.267s3.2,3.2,5.333,3.2
		c3.2,0,7.467,5.333,7.467,8.533c0,4.267,0,4.267,0,4.267l13.867-7.467c4.267-3.2,6.4-8.533,6.4-13.867v-2.133
		c0,0-7.467-25.6-12.8-28.8S379.46,25.771,379.46,25.771z"/>
</g>
<path style="fill:#F7B64C;" d="M382.66,59.904c1.067,0,4.267,1.067,5.333,3.2c5.333-4.267,8.533-10.667,9.6-12.8
	C394.393,54.571,382.66,59.904,382.66,59.904z"/>
<path style="fill:#CED6E0;" d="M386.927,60.971c0,0-11.733,4.267-13.867,12.8c-2.133,8.533,2.133,35.2,2.133,35.2
	s3.2,40.533,4.267,49.067l28.8-3.2V57.771l-19.2,8.533L386.927,60.971z"/>
<polygon style="fill:#F3F3F3;" points="386.927,60.971 390.127,64.171 384.793,73.771 382.66,62.037 "/>
<path style="fill:#415A6B;" d="M379.46,25.771c0,0,6.4-2.133,9.6-2.133c0,0-2.133,6.4,1.067,9.6c2.133,3.2,0,8.533,0,8.533h3.2
	c0,0,0-6.4,5.333-6.4c5.333,0,5.333,11.733,6.4,12.8c1.067,0,3.2,1.067,5.333-2.133c1.067-2.133,6.4-16,2.133-24.533
	s-16-9.6-24.533-7.467C379.46,15.104,375.193,19.371,379.46,25.771z"/>
<ellipse transform="matrix(0.23 -0.9732 0.9732 0.23 266.3415 418.2274)" style="fill:#FFD15C;" cx="397.466" cy="40.802" rx="5.333" ry="4.267"/>
<path style="fill:#F3F3F3;" d="M409.327,50.304c0,0-8.533,2.133-12.8,7.467c-5.333,5.333-7.467,8.533-7.467,8.533l2.133,10.667
	l19.2-18.133l1.067-2.133C410.393,54.571,410.393,52.437,409.327,50.304L409.327,50.304z"/>
<path style="fill:#415A6B;" d="M378.393,68.437c-2.133,5.333-1.067,25.6-1.067,34.133c0,9.6,6.4,6.4,1.067,13.867
	c-5.333,7.467-20.267,26.667-24.533,32c-4.267,4.267-6.4,7.467-6.4,7.467s4.267-9.6,6.4-18.133
	c2.133-8.533,1.067-10.667,4.267-17.067c3.2-6.4,7.467-11.733,8.533-18.133c1.067-6.4,2.133-18.133,4.267-24.533
	c1.067-5.333,6.4-14.933,10.667-19.2c1.067,0,2.133,1.067,4.267,0c1.067,0,2.133,0,3.2,1.067
	C383.727,62.037,379.46,65.237,378.393,68.437z"/>
<path style="fill:#344A5E;" d="M400.793,116.437l-1.067,7.467c0,0-1.067,4.267-6.4,8.533c-5.333,4.267-9.6,6.4-11.733,12.8
	s-3.2,17.067-2.133,20.267c2.133,3.2,38.4,13.867,44.8,9.6c0,0,0-35.2,3.2-45.867c3.2-10.667,6.4-21.333,6.4-29.867
	s5.333-30.933-1.067-37.333s-13.867,0-13.867,0s-6.4-5.333-10.667-5.333c-4.267,1.067-5.333,3.2-7.467,9.6
	C400.793,71.637,400.793,116.437,400.793,116.437z"/>
<g>
	<path style="fill:#415A6B;" d="M409.327,50.304c0,0,0,1.067-4.267,5.333s-9.6,21.333-8.533,32s5.333,30.933,4.267,36.267
		c0,0,3.2-11.733,3.2-21.333s-3.2-26.667,2.133-35.2h-2.133C403.993,67.371,414.66,58.837,409.327,50.304z"/>
	<path style="fill:#415A6B;" d="M434.927,98.304c0,0-10.667-4.267-12.8-18.133c-2.133-13.867,6.4-24.533,11.733-19.2
		c5.333,5.333,6.4,11.733,6.4,11.733s8.533,8.533,14.933,12.8c6.4,4.267,11.733,8.533,18.133,13.867
		c6.4,5.333,28.8,38.4,29.867,43.733c0,0-17.067,8.533-18.133,10.667c0,0-10.667-19.2-18.133-26.667
		C457.327,118.571,441.327,100.437,434.927,98.304z"/>
	<path style="fill:#415A6B;" d="M467.993,258.304c0,0,5.333,9.6,4.267,14.933c-1.067,5.333-4.267,8.533-4.267,8.533
		s10.667,9.6,13.867,17.067c3.2,8.533,3.2,12.8,5.333,12.8c0,0,2.133-8.533,1.067-16c-1.067-7.467-4.267-19.2-5.333-23.467
		c-1.067-4.267-2.133-14.933-2.133-16C480.793,256.171,477.593,252.971,467.993,258.304z"/>
	<path style="fill:#415A6B;" d="M296.26,251.904c0,0-7.467,0-8.533-2.133c-1.067-3.2-6.4-8.533-6.4-8.533s-7.467,3.2-9.6,4.267
		c-2.133,1.067-7.467,1.067-11.733,0c-4.267-1.067-6.4-1.067-8.533,1.067c0,0,9.6,7.467,16,8.533c6.4,1.067,12.8,1.067,16,4.267
		c4.267,2.133,10.667,4.267,12.8,3.2C295.193,260.437,299.46,254.037,296.26,251.904z"/>
</g>
<g>
</g>
<g>
</g>
<g>
</g>
<g>
</g>
<g>
</g>
<g>
</g>
<g>
</g>
<g>
</g>
<g>
</g>
<g>
</g>
<g>
</g>
<g>
</g>
<g>
</g>
<g>
</g>
<g>
</g>
</svg>
