<?xml version="1.0" encoding="iso-8859-1"?>
<!-- Generator: Adobe Illustrator 19.0.0, SVG Export Plug-In . SVG Version: 6.00 Build 0)  -->
<svg version="1.1" id="Capa_1" xmlns="http://www.w3.org/2000/svg" xmlns:xlink="http://www.w3.org/1999/xlink" x="0px" y="0px"
	 viewBox="0 0 512.84 512.84" style="enable-background:new 0 0 512.84 512.84;" xml:space="preserve">
<path style="fill:#FFD15C;" d="M461.64,365.324c-6.4,0-40.533,12.8-40.533,12.8c-5.333-34.133-70.4-24.533-77.867-24.533
	c-8.533,0-17.067-3.2-36.267-11.733c-20.267-8.533-43.733-19.2-43.733-19.2c-48-12.8-98.133,6.4-109.867,11.733
	c-7.467,3.2-40.533,12.8-65.067,20.267v105.6c23.467-9.6,56.533-22.4,66.133-24.533c14.933-3.2,52.267,2.133,72.533,8.533
	c19.2,5.333,66.133,24.533,87.467,26.667c20.267,2.133,32-6.4,43.733-16c11.733-9.6,44.8-21.333,52.267-25.6
	c7.467-4.267,18.133-12.8,26.667-17.067c8.533-3.2,37.333-16,37.333-16l38.4-10.667C502.174,356.791,468.04,365.324,461.64,365.324z
	"/>
<path style="fill:#F7B64C;" d="M289.907,413.324c0,0,0,0,1.067-1.067c0,0,1.067-1.067,1.067-2.133c0-1.067,1.067-1.067,2.133-2.133
	c1.067-1.067,3.2-3.2,6.4-4.267h1.067h1.067c1.067,0,1.067-1.067,2.133-1.067c1.067-1.067,3.2-1.067,5.333-1.067
	c2.133,0,3.2-1.067,5.333-1.067h1.067h1.067c1.067,0,2.133,0,3.2,0c4.267,0,8.533,0,12.8,1.067c4.267,1.067,8.533,1.067,12.8,2.133
	c1.067,0,2.133,0,3.2,0s2.133,0,3.2,0s1.067,0,2.133,0h2.133c1.067,0,2.133,0,3.2,0c4.267,0,8.533,0,12.8-1.067
	s8.533-1.067,12.8-2.133c2.133-1.067,4.267-1.067,6.4-2.133c1.067,0,2.133-1.067,3.2-1.067s2.133-1.067,3.2-1.067h1.067h1.067
	c1.067,0,2.133-1.067,2.133-1.067c2.133-1.067,3.2-1.067,5.333-2.133c1.067-1.067,3.2-1.067,4.267-2.133
	c1.067-1.067,2.133-1.067,4.267-2.133c2.133-1.067,4.267-3.2,5.333-4.267c1.067-1.067,2.133-3.2,2.133-4.267v-1.067l0,0l0,0v1.067
	c0,1.067-1.067,2.133-2.133,4.267c-1.067,2.133-3.2,3.2-5.333,5.333c-1.067,1.067-2.133,2.133-3.2,2.133
	c-1.067,1.067-3.2,2.133-4.267,2.133c-1.067,1.067-3.2,2.133-4.267,2.133c-1.067,0-2.133,1.067-2.133,1.067s-1.067,0-1.067,1.067
	c0,0-1.067,0-1.067,1.067c-1.067,0-2.133,1.067-3.2,1.067s-2.133,1.067-3.2,1.067c0,0-1.067,0-1.067,1.067h-1.067
	c-1.067,0-2.133,1.067-3.2,1.067c-2.133,1.067-4.267,1.067-6.4,2.133c-1.067,0-2.133,0-3.2,1.067c-1.067,0-2.133,0-3.2,1.067
	c-4.267,1.067-9.6,1.067-13.867,1.067c-1.067,0-2.133,0-3.2,0h-2.133c-1.067,0-1.067,0-2.133,0c-1.067,0-2.133,0-3.2,0
	s-2.133,0-3.2,0c-2.133,0-4.267-1.067-6.4-1.067c-2.133,0-4.267-1.067-6.4-1.067c-4.267-1.067-8.533-1.067-11.733-2.133
	c-1.067,0-2.133,0-3.2,0h-1.067h-1.067c-2.133,0-3.2,0-5.333,0c-3.2,0-6.4,1.067-8.533,2.133c-2.133,1.067-4.267,2.133-6.4,3.2
	c-1.067,1.067-1.067,1.067-2.133,2.133c-1.067,0-1.067,1.067-1.067,1.067C289.907,412.258,289.907,413.324,289.907,413.324z"/>
<g>
	<path style="fill:#F3F3F3;" d="M394.44,362.124c0,0-4.267-1.067-4.267,4.267c0,5.333,2.133,18.133,0,21.333
		c-2.133,3.2,3.2,3.2,7.467,3.2c4.267,0,18.133-4.267,18.133-4.267s14.933-7.467,0-22.4c-2.133-2.133-4.267-3.2-6.4-3.2
		L394.44,362.124z"/>
	
		<rect x="54.045" y="382.937" transform="matrix(-0.1167 -0.9932 0.9932 -0.1167 -259.6301 586.1666)" style="fill:#F3F3F3;" width="153.605" height="51.202"/>
</g>
<rect x="-19.173" y="353.773" transform="matrix(-0.1167 -0.9932 0.9932 -0.1167 -332.4315 534.5583)" style="fill:#415A6B;" width="181.339" height="122.671"/>
<circle style="fill:#344A5E;" cx="96.84" cy="460.258" r="21.333"/>
<circle style="fill:#55C0EB;" cx="350.707" cy="161.591" r="161.067"/>
<g>
	<path style="fill:#F3F3F3;" d="M198.174,125.324c1.067,0,1.067-1.067,2.133-1.067c0,1.067,1.067,1.067,1.067,2.133v1.067
		c0,0,0,0,0,1.067v1.067c1.067,0,0,1.067,0,1.067v1.067l0,0c0,1.067,0,1.067,1.067,2.133v1.067c0,1.067,1.067,1.067,1.067,1.067
		c0-1.067,1.067-1.067,1.067-2.133c0-2.133,0-4.267,0-6.4v-1.067c0-1.067,0-2.133,0-3.2c0-1.067,1.067-2.133,1.067-2.133
		c0-1.067,1.067-1.067,2.133-1.067c1.067,0,1.067-1.067,2.133-1.067l1.067-1.067c0-1.067,1.067-1.067,2.133-1.067c0,0,0,0,1.067,0
		c1.067-1.067,2.133-1.067,3.2-2.133v-1.067h1.067c1.067-1.067-1.067-1.067-1.067-2.133c1.067,0,1.067,0,2.133,0v-1.067v-1.067
		c1.067-1.067,0-2.133,0-3.2c1.067,0,1.067,0,2.133,0c1.067,0,2.133,0,2.133-1.067c0,0,0-1.067,0-2.133c0,0,1.067,0,1.067,1.067
		l1.067-1.067c1.067-1.067,0-1.067,1.067-2.133h1.067v-1.067c1.067,0,3.2,0,4.267-1.067c1.067,0,1.067-1.067,1.067-1.067
		c0-1.067,0-2.133,1.067-3.2c1.067,0,1.067-1.067,2.133-1.067c0,0,1.067,0,1.067-1.067c1.067-1.067,1.067-1.067,2.133-1.067h1.067
		c1.067-1.067,2.133-1.067,3.2-1.067c1.067,0,2.133-1.067,2.133-1.067s1.067,1.067,0,2.133c-1.067,0-1.067,0-2.133,0
		c-1.067,0-1.067,1.067-2.133,1.067c0,0-1.067,1.067-1.067,2.133c1.067,0,2.133,0,2.133-1.067c1.067-1.067,2.133-1.067,3.2-1.067
		c1.067,0,2.133-1.067,3.2-2.133c0,0-1.067,0-1.067-1.067c-1.067,2.133-1.067,0-2.133,0c-1.067-1.067-1.067-2.133-1.067-3.2
		c-1.067-1.067,1.067-2.133,0-2.133h-1.067l0,0c1.067,0,1.067,0,2.133,0c0,0,1.067,0,1.067-1.067c0,0,1.067-1.067,0-2.133
		c-1.067,0-2.133,0-2.133,0h-1.067c-1.067,0-1.067,1.067-2.133,1.067c0,0-1.067,0-1.067,1.067h-1.067
		c0-1.067,1.067-1.067,2.133-2.133s2.133-1.067,2.133-2.133s1.067-1.067,2.133-1.067c3.2,0,6.4,0,9.6,0h1.067
		c1.067,0,1.067-1.067,2.133-1.067h1.067c1.067,0,2.133,0,3.2,0l0,0l0,0c0,0,1.067-1.067,2.133-1.067c0-1.067,0-2.133,1.067-3.2
		c-1.067,0-1.067,0-1.067,0c0-1.067,0-1.067-1.067-1.067c0,0,0,0,0-1.067c-1.067,0-1.067-1.067-2.133-1.067l0,0
		c-1.067-1.067-1.067-2.133-2.133-3.2l0,0h1.067c0-1.067,0-2.133,0-2.133v-1.067v-1.067v-1.067v-1.067
		c-2.133,1.067-3.2,2.133-4.267,4.267c0,0,0,0-1.067-1.067c-1.067,0-1.067,1.067-1.067,1.067h-1.067
		c-1.067-1.067-1.067-1.067-1.067-2.133s1.067-2.133,1.067-3.2h-1.067c0-1.067,0-1.067,0-1.067c-1.067-1.067-3.2-1.067-4.267-1.067
		h-1.067h-1.067c-1.067-1.067-1.067-1.067-2.133,0c0,0,0,0-1.067,0c0,1.067,0,1.067-1.067,2.133
		c-1.067,1.067-1.067,1.067-1.067,2.133l0,0c-1.067,1.067-2.133,1.067-3.2,2.133c0,0,0,1.067,1.067,1.067
		c1.067,1.067,1.067,1.067,0,2.133v1.067c-2.133-3.2-3.2-2.133-4.267-2.133c-1.067,1.067-2.133,1.067-3.2,2.133l0,0
		c-1.067,0-2.133,1.067-3.2,1.067c0,1.067,0,1.067,0,2.133s0,1.067,0,2.133v1.067c-1.067,0-2.133,1.067-2.133,2.133
		c0,0-1.067,0-2.133,0c0-1.067-1.067-2.133-2.133-3.2c0,0,0,0,0-1.067l0,0c0-1.067,1.067-2.133,1.067-3.2c0,0,0,0,1.067,0
		c0-1.067-1.067-1.067-1.067-2.133c-1.067,0-1.067,0-2.133,0l0,0c-12.8,17.067-21.333,36.267-26.667,57.6
		C196.04,123.191,197.107,124.258,198.174,125.324z"/>
	<path style="fill:#F3F3F3;" d="M252.574,281.058C251.507,281.058,251.507,279.991,252.574,281.058
		c-1.067-1.067-2.133-2.133-1.067-3.2v-1.067c-1.067,0-1.067,0-2.133-1.067c0-1.067-1.067-1.067-1.067-2.133h1.067c0,0,0,0,1.067,0
		c1.067,1.067,2.133,1.067,4.267,1.067c1.067,0,2.133-1.067,2.133-1.067s1.067-1.067,1.067-2.133v-1.067
		c0-1.067,1.067-2.133,1.067-3.2l0,0c0-1.067,1.067-2.133,1.067-3.2h1.067c0-1.067,1.067-2.133,1.067-3.2h1.067
		c0-1.067,0-2.133,1.067-2.133v-1.067c-1.067-1.067,0-2.133,0-3.2c0-1.067,0-3.2,1.067-3.2l1.067-1.067
		c0-1.067,1.067-1.067,2.133-1.067s1.067,0,2.133-1.067l1.067-1.067c1.067,0,2.133,0,3.2-1.067c0,0,1.067,0,1.067-1.067
		c1.067-1.067,1.067-1.067,2.133-1.067c0,0-1.067-1.067,0-1.067c0-1.067,1.067-2.133,1.067-3.2v-1.067
		c1.067-1.067,1.067-1.067,0-2.133l0,0c0-1.067,1.067-2.133,1.067-3.2c0-1.067,0-1.067,0-2.133c0,0,0-1.067,0-2.133c0,0,0,0,0-1.067
		c0-2.133,0-3.2,0-5.333c1.067,0,1.067,0,1.067,0c1.067-2.133,2.133-3.2,2.133-5.333c0,0,0-1.067,1.067-1.067
		c1.067,0,1.067-1.067,1.067-2.133v-1.067c1.067,0,1.067-1.067,1.067-2.133v-1.067v-1.067c0-1.067,0-2.133-1.067-3.2
		c0-1.067-1.067-2.133-3.2-2.133c-1.067,0-1.067,0-2.133-1.067c-1.067-1.067-1.067-2.133-2.133-2.133
		c-1.067,3.2-1.067,3.2-2.133,2.133l-1.067-1.067c-1.067,0-2.133,0-3.2-1.067l0,0c-1.067,0-1.067,0-2.133,0h-1.067
		c0,1.067-1.067,0-2.133,0l0,0c0,0,0,0,1.067,0c0-1.067-1.067-2.133-2.133-2.133s-1.067-1.067-2.133-1.067c-1.067,0-2.133,0-3.2,0
		c0,1.067,0,1.067-1.067,1.067c0-1.067,0-1.067,0-2.133h-2.133c0,0-1.067,0,0-1.067h-1.067c0-1.067,1.067,0,1.067-1.067v-1.067
		c0-1.067,1.067-1.067,1.067-3.2c-1.067,0-1.067,0-1.067-1.067s0-2.133-1.067-4.267h-1.067c0-1.067-1.067-1.067-1.067-2.133
		c0,0,0-1.067-1.067-1.067c-1.067-1.067-3.2-1.067-4.267-1.067s-2.133,0-2.133,0h-1.067c-1.067-1.067-2.133-2.133-2.133-3.2
		c0-1.067-1.067-1.067-1.067-2.133c0-1.067-1.067-1.067-1.067-1.067c-1.067,0-1.067,0-2.133,0v-1.067
		c-1.067-1.067-2.133-1.067-3.2-1.067c0-2.133-1.067-2.133-3.2-1.067c0,0,0,0-1.067,0c-1.067,0-3.2,0-3.2-1.067
		c-1.067,1.067-2.133,0-3.2,0v-1.067c0-1.067-2.133-3.2-3.2-2.133c-1.067,1.067-2.133,1.067-2.133,1.067v1.067
		c1.067,1.067,0,2.133,0,2.133c-1.067,0-1.067,0-1.067-1.067v-1.067c1.067-1.067,0-2.133,0-3.2c1.067,0,1.067-1.067,2.133-1.067
		c0,0,0,0,0-1.067h-1.067v1.067c-1.067,0-1.067,1.067-2.133,1.067s-2.133,1.067-3.2,1.067c0,0-1.067,0-1.067,1.067
		c0,1.067-1.067,1.067-1.067,2.133c0,0,0,0,0,1.067c-1.067,1.067-1.067,1.067-2.133,2.133v1.067l0,0v-1.067h-1.067
		c0-1.067,0-1.067-1.067-2.133c-1.067,0-1.067,0-2.133-1.067l0,0c-1.067,1.067-2.133,1.067-3.2,1.067c-1.067,0-1.067,0-1.067-1.067
		c0,0,0-1.067-1.067-1.067l0,0c0-1.067-1.067-1.067-1.067-2.133v-1.067c0-2.133,1.067-3.2,1.067-5.333l0,0
		c1.067-1.067,1.067-2.133,1.067-3.2h-1.067v-1.067h-4.267c0,1.067,0,2.133,0,3.2c0,2.133,0,4.267,0,7.467l0,0v1.067l0,0
		c0,1.067,0,1.067,0,2.133c0,0,1.067,0,1.067-1.067c1.067,1.067,2.133,2.133,3.2,4.267h2.133v1.067h1.067v1.067l1.067-1.067
		c1.067-1.067,0-1.067,0-2.133c0,0,1.067,0,1.067-1.067s1.067-1.067,2.133,0l1.067,1.067c-1.067,1.067-1.067,2.133,0,2.133
		c1.067,1.067,1.067,2.133,1.067,3.2c0,1.067,0,2.133,0,3.2v1.067c1.067,1.067,1.067,1.067,0,1.067
		c-1.067,1.067-1.067,2.133-1.067,2.133h-1.067c0,1.067,0,1.067,0,1.067c0,1.067,0,1.067-1.067,1.067
		c-1.067,0-1.067,1.067-2.133,2.133v1.067c-1.067,1.067-1.067,3.2-1.067,5.333c1.067,0,1.067,0,2.133,0c0,2.133-1.067,3.2-3.2,4.267
		v1.067c0,1.067,1.067,2.133,1.067,4.267c0,0,0,1.067,1.067,1.067s1.067,1.067,1.067,1.067c0,1.067,0,1.067,1.067,2.133
		c1.067,2.133,2.133,3.2,3.2,6.4l0,0c1.067,0,1.067,1.067,1.067,2.133c1.067,1.067,1.067,2.133,2.133,3.2c0,0,1.067,1.067,0,1.067
		c0,1.067,0,2.133,1.067,2.133c1.067,2.133,3.2,3.2,5.333,4.267c1.067,1.067,3.2,1.067,4.267,3.2c0,1.067,1.067,1.067,2.133,2.133
		c0,0,0,1.067,0,2.133c1.067,1.067,0,2.133,0,3.2v1.067c1.067,1.067,1.067,3.2,0,4.267v1.067c1.067,1.067,0,2.133,0,3.2v1.067
		c-1.067,1.067-1.067,1.067,0,2.133v1.067c7.467,10.667,16,19.2,26.667,27.733c1.067,0,2.133,0,2.133-1.067
		C251.507,283.191,251.507,282.124,252.574,281.058z"/>
	<path style="fill:#F3F3F3;" d="M272.84,22.924c-1.067,0-1.067,0-1.067-1.067c-1.067,1.067,1.067,1.067,0,2.133
		c1.067,0,1.067,0,2.133,0c0,0,0,0,1.067,0c0,0,0,0,1.067,0h1.067l0,0h1.067c2.133,0,3.2,0,5.333,1.067
		c1.067,1.067,0,2.133,2.133,2.133c0,1.067-1.067,1.067,0,2.133c1.067,1.067,0,2.133-1.067,3.2c-1.067,0-1.067,1.067-1.067,2.133
		c1.067,0,1.067,0,2.133-1.067c0-1.067,1.067-1.067,1.067,0c0,0,0,1.067,1.067,1.067c0,0,1.067,0,2.133,0
		c-1.067,1.067-2.133,0-3.2,1.067v1.067c2.133,0,2.133,0,3.2,0h-1.067v1.067c-1.067,1.067-1.067,1.067-2.133,2.133v-1.067h-1.067
		l0,0c0,0,0,0,0,1.067c-1.067,0-2.133,1.067-3.2,1.067c0,1.067-1.067,1.067-1.067,2.133v1.067c0,1.067,1.067,1.067,1.067,2.133
		c0,0,0,0-1.067,1.067v1.067c1.067,1.067,0,2.133,1.067,2.133c0,2.133,1.067,3.2,1.067,4.267c1.067,0,2.133,0,3.2-1.067
		c0,1.067,0,1.067,1.067,1.067c0,0,0,1.067,1.067,1.067c0,0,1.067,1.067,1.067,0s1.067-2.133,1.067-2.133
		c1.067-1.067,2.133-2.133,1.067-3.2c0,0,0,0,0-1.067c1.067,0,2.133,0,2.133-1.067c0,0,0,0,1.067,0l1.067-1.067
		c0,0,0-1.067-1.067-1.067c1.067,0,1.067,0,1.067-1.067l0,0c0,0,1.067,0,1.067-1.067c0,0,1.067-1.067,1.067,0
		c1.067,0,1.067,0,2.133-1.067c0-1.067,1.067-1.067,1.067,0s1.067,0,1.067,0c0-1.067,1.067,0,1.067,0h1.067
		c1.067-1.067,2.133-1.067,2.133-2.133c1.067-1.067,1.067-1.067,2.133-1.067c0,0,0,0,0-1.067c0,0,0,0,0-1.067
		c1.067,1.067,2.133,1.067,2.133,0h1.067c1.067,0,3.2,0,4.267-1.067l0,0c1.067-1.067,2.133-1.067,4.267-2.133v0
		c-1.067,0-2.133,0-4.267-1.067h1.067v-1.067h1.067v1.067c0,0,1.067,0,1.067,1.067v-1.067h1.067l0,0v-1.067
		c0-1.067-1.067-1.067-1.067-2.133l0,0l0,0l0,0h-1.067c0-1.067,0-1.067-1.067-1.067c1.067,0,1.067-1.067,1.067-1.067
		c0-1.067,1.067-1.067,1.067,0s1.067,1.067,2.133,1.067s1.067,0,2.133-1.067v-1.067h1.067v-1.067h-1.067l0,0h1.067
		c0-1.067,0-2.133-1.067-2.133h-1.067l0,0c0,0,0,0,1.067,0c1.067,0,1.067,0,2.133-1.067c1.067,0,1.067-1.067,0-1.067
		c-1.067,0-1.067,0-2.133,0c1.067,0,1.067-1.067,1.067-1.067l1.067-1.067c1.067,0,1.067,0,1.067-1.067
		c1.067,0,1.067-1.067,2.133-1.067c0,0,0,1.067,1.067,0v-1.067c2.133,0,3.2,0,5.333-1.067c5.333-1.067,5.333-1.067,5.333-1.067
		c-1.067,1.067-2.133,0-3.2,1.067h-1.067c-1.067,1.067-1.067,0-2.133,0c0,1.067-1.067,1.067-2.133,0v-1.067
		c-1.067,0-1.067,0-1.067,0v-1.067c-1.067-1.067-3.2-1.067-4.267-1.067c-3.2,0-6.4,0-9.6,0c-1.067,0-2.133,0-3.2,1.067l0,0
		c-1.067,0-2.133-1.067-2.133-1.067c-1.067,1.067-1.067,0-2.133,1.067c-1.067,0,0,1.067-1.067,1.067
		c0,1.067-1.067,1.067-1.067,1.067c-1.067,0-1.067-1.067-2.133-1.067s-2.133,0-2.133,0v1.067h-1.067
		c-1.067-1.067-2.133-1.067-2.133,0c0,0,0,0-1.067,0c-1.067-1.067-2.133,0-4.267-1.067h-1.067c0,1.067-1.067,1.067-2.133,0
		c-1.067,0-2.133,0-3.2,1.067h-1.067c-1.067-1.067-1.067-1.067-1.067,0l0,0c-1.067,0-1.067,0-2.133,0c0,0-1.067,0-1.067,1.067v1.067
		c0,0,0,1.067-1.067,1.067c-1.067,0-2.133,1.067-3.2,1.067s-1.067,0-2.133,0c-1.067,1.067-2.133,1.067-3.2,2.133
		C272.84,21.858,272.84,21.858,272.84,22.924z"/>
	<path style="fill:#F3F3F3;" d="M455.24,38.924h-1.067c0,0,0,0-1.067,0C453.107,38.924,454.174,38.924,455.24,38.924
		c-3.2-3.2-6.4-5.333-8.533-7.467c-1.067,0-1.067,0-1.067,0s-1.067,0-2.133-1.067l0,0c0,1.067-1.067,0-2.133,1.067v1.067
		c0,0-1.067,1.067-2.133,0l0,0c-1.067,1.067-2.133,0-3.2,0h-1.067c0,1.067-1.067,0-1.067,0s0,0-1.067,0c0,0,0,0-1.067,0
		s-3.2,0-4.267,1.067c0,0-1.067,0-1.067,1.067v1.067c0,0-1.067,1.067-2.133,1.067c-1.067,0-1.067,0-2.133,0
		c-1.067,0-1.067,0-2.133,0c0,0-1.067,0-2.133,0c1.067,1.067,1.067,1.067,1.067,1.067s1.067,0,1.067,1.067h-1.067
		c-1.067,0-2.133,0-2.133,2.133h-1.067c0,2.133,0,2.133-1.067,0c-1.067,0-1.067,0-2.133,1.067c0,0,0,1.067,1.067,1.067
		s1.067,1.067,2.133,1.067c-1.067,1.067-1.067,1.067,0,2.133l0,0c0,1.067,1.067,0,1.067,0c1.067-1.067,2.133-1.067,3.2,0
		c-1.067,0-1.067,1.067-2.133,1.067c-1.067,0,0,1.067,0,1.067h1.067c0,1.067,0,1.067-1.067,2.133c-1.067,0-1.067,1.067-1.067,1.067
		c-1.067,1.067-2.133,1.067-3.2,0c2.133,1.067,1.067-1.067,2.133-1.067c1.067-1.067,0-2.133,0-3.2l0,0c-1.067,0-1.067,0-2.133-2.133
		c0,0,0,0,0-1.067l-1.067-1.067c0,0,0,0-1.067,0c0-1.067,0-1.067,1.067-2.133c-2.133-1.067-4.267-1.067-5.333-1.067
		c0,1.067,0,2.133-1.067,3.2l1.067,1.067c0,0,0,1.067,0,2.133h2.133v1.067h1.067c0,1.067,0,1.067,0,2.133
		c-1.067,0-1.067-1.067-2.133-1.067c-1.067,0-2.133-1.067-3.2-1.067l0,0c-1.067,0-2.133-1.067-3.2-1.067h-1.067h-1.067
		c0,0,0,0-1.067,1.067l0,0l0,0c1.067,0,1.067,1.067,0,1.067c0,1.067-1.067,1.067-2.133,0c-1.067-1.067-1.067-1.067-2.133,0h-1.067
		h-1.067c0,0,0,0-1.067,1.067c-1.067-1.067-1.067-1.067-2.133,0c0-1.067,0-1.067,0-2.133c-1.067,1.067-2.133,1.067-3.2,1.067h-1.067
		c0,0-1.067,1.067-2.133,1.067c-1.067,0-1.067,0-1.067,1.067c0,0,0,0,0,1.067c-1.067,0-2.133,0-2.133,0
		c-1.067,0-1.067,0-1.067-2.133c1.067,0,1.067,0,1.067-1.067h-2.133v2.133h1.067c0,1.067,0,1.067,0,1.067c-1.067,0-1.067,0-2.133,0
		h-1.067l-1.067,1.067c-1.067,0-1.067,0-2.133,1.067l1.067,1.067c-2.133,0-3.2,0-5.333-1.067c0,1.067,0,1.067,2.133,2.133v1.067
		c-1.067,0-2.133,0-3.2-1.067c-1.067,0-2.133,0-2.133-1.067s-1.067-1.067,0-2.133l-1.067-1.067c-1.067,0-2.133-1.067-2.133-2.133
		h1.067c1.067,1.067,2.133,1.067,4.267,1.067l0,0c1.067,1.067,1.067,0,2.133,0c1.067,0,2.133,0,2.133,0c1.067,0,2.133,0,3.2-2.133
		c-1.067-1.067-2.133-2.133-3.2-2.133l0,0c-1.067,0-1.067-1.067-2.133-1.067c-1.067,0-2.133-1.067-3.2-1.067
		c-1.067-1.067-1.067,0-2.133-1.067c-1.067,0-1.067-1.067-2.133-1.067c-1.067,1.067-1.067,0-2.133,0c0-1.067,0-1.067,0-2.133
		c-1.067,0-2.133,0-2.133,1.067v-1.067c-1.067,0-1.067,1.067-2.133,1.067c-1.067-1.067-1.067-1.067-2.133,0v-1.067
		c-1.067,0-1.067,0-2.133,1.067v1.067h-1.067c-1.067,0-1.067,0-2.133,1.067c-1.067,0-1.067,0-2.133,0c0,0,0,0-1.067-1.067
		c0,1.067,0,1.067,0,2.133c-1.067,0-1.067,1.067-2.133,2.133c0,0,0,0-1.067-1.067c-1.067,0-1.067,1.067-2.133,1.067v1.067
		c-1.067,0-3.2,2.133-4.267,5.333c-2.133,0-3.2,1.067-3.2,3.2c-1.067,0-2.133,1.067-3.2,1.067l0,0c-1.067,0-2.133,1.067-3.2,1.067
		c0,1.067,0,2.133-1.067,2.133c0,1.067,0,1.067,1.067,2.133c0,0,0,0,1.067,0c0,1.067-1.067,1.067,0,2.133l0,0v1.067
		c0,0,1.067,0,1.067,1.067c1.067,0,2.133,0,3.2,0c1.067-1.067,1.067-1.067,2.133-1.067v-1.067c0,1.067,1.067,1.067,1.067,1.067
		c1.067,1.067,1.067,3.2,2.133,4.267c0,1.067,1.067,1.067,1.067,2.133c0,0,0,0,0,1.067h1.067c1.067-1.067,2.133-1.067,3.2-1.067
		s1.067-1.067,1.067-2.133s0-2.133,0-4.267c1.067-1.067,3.2-1.067,3.2-3.2c-3.2,3.2-4.267,2.133-4.267,2.133l-1.067-1.067
		c0-1.067,0-2.133,0-3.2h1.067c1.067-1.067,2.133-2.133,3.2-2.133l1.067-1.067c0-1.067,1.067-2.133,1.067-2.133
		c2.133-1.067,4.267-1.067,5.333,1.067l-1.067,1.067c-1.067,0-1.067,1.067-2.133,1.067c0,0-1.067,0-1.067,1.067l0,0
		c0,1.067,0,1.067-1.067,1.067s-1.067,1.067-1.067,1.067c1.067,1.067,1.067,1.067,1.067,2.133s0,1.067,1.067,2.133
		c0,0,0,1.067,1.067,1.067l1.067,1.067c1.067,0,2.133,0,3.2-1.067l0,0c0-2.133,0-2.133,1.067-2.133c1.067,0,1.067,0,2.133,0h1.067
		l0,0v1.067c1.067,0,1.067,0,2.133,0c-1.067,0-2.133,1.067-2.133,1.067c-1.067,0-1.067,0-2.133,0c0,0-1.067,0-2.133,0h-1.067h-1.067
		v2.133c1.067,0,1.067,0,1.067,0v3.2c-1.067,0-1.067,0-2.133,0c-1.067-1.067-2.133-1.067-2.133-1.067c0,1.067,0,1.067-1.067,2.133
		v1.067c1.067,1.067,0,2.133,0,3.2c-1.067-1.067-1.067-1.067-2.133,0c0,0,0,0-1.067,1.067h-1.067l0,0
		c-1.067-1.067-1.067-1.067-2.133,0c0,0-1.067,1.067-2.133,1.067c-1.067,0-1.067,0-2.133,1.067h-1.067v-1.067h-1.067
		c-1.067-1.067-1.067,0-1.067,0c-1.067,0-1.067,1.067-2.133,1.067c0-1.067,0-1.067-1.067-1.067v-3.2l0,0l0,0h1.067
		c0-1.067,0-1.067-1.067-1.067l0,0l0,0c0,0,1.067-1.067,1.067-2.133s0-1.067,0-2.133c0,0,0,0-1.067,0l-1.067,1.067
		c0,0-1.067,1.067-2.133,2.133c1.067,1.067,1.067,3.2,1.067,5.333c-1.067,0-2.133,0-2.133,1.067l0,0c-1.067,0-2.133,0-3.2,1.067
		l-1.067,1.067c0,1.067-1.067,2.133-2.133,2.133c-1.067,1.067-2.133,1.067-3.2,1.067c0,1.067,0,1.067,0,2.133
		c-1.067,0-2.133,0-2.133,2.133h-1.067c0,0-1.067-1.067-1.067,0c0,1.067,0,1.067,0,2.133c-1.067,0-2.133,0-3.2,0
		c-1.067,0-1.067,0-2.133,1.067c0,1.067,0,1.067,1.067,2.133h1.067c1.067-2.133,1.067-1.067,1.067,0l0,0
		c1.067,1.067,1.067,1.067,1.067,2.133c0,0,0,0,0,1.067c0,1.067,0,3.2-1.067,4.267c-2.133,0-5.333,0-7.467,0
		c0,0-1.067,0-1.067-1.067c0,0,0,0,0,1.067c-1.067-1.067-1.067-1.067-2.133,0c0,0,0,0-1.067,0s-1.067,1.067-1.067,2.133v1.067
		c0,1.067,0,1.067,0,2.133v1.067v1.067c0,1.067,0,1.067-1.067,2.133c-1.067,1.067-1.067,1.067,0,2.133
		c1.067,1.067,1.067,1.067,1.067,2.133v1.067c1.067,0,2.133,0,3.2,0s1.067,1.067,1.067,1.067v1.067c1.067,0,1.067,0,2.133,0
		c1.067-1.067,1.067-1.067,2.133-1.067s1.067,0,2.133,0c1.067,0,1.067,0,1.067-1.067c1.067-1.067,1.067-1.067,2.133-1.067
		c1.067-1.067,0-2.133,2.133-2.133v-1.067c-1.067-1.067,0-1.067,0-2.133v-1.067l0,0l0,0c0-1.067,1.067-1.067,2.133-1.067h1.067
		c1.067-1.067,1.067-1.067,1.067-2.133c0,0,0,0,0-1.067s0-1.067,1.067-2.133c0,0,1.067,0,1.067-1.067v1.067
		c1.067,0,2.133,0,2.133,1.067c1.067,0,1.067-1.067,2.133-1.067c1.067,0,1.067,0,2.133-1.067l1.067-1.067h1.067
		c1.067,0,1.067,1.067,1.067,1.067c0,1.067,1.067,3.2,2.133,3.2s1.067,1.067,2.133,1.067l1.067,1.067h1.067l1.067,1.067v1.067h1.067
		c0,1.067,0,1.067,0,2.133s0,1.067,0,1.067c0,1.067,0,1.067,1.067,1.067c0,0,0-1.067,1.067-1.067v-1.067c0,0,0,0,0-1.067
		c0,0-1.067-1.067,0-1.067c0,0,0,0,0-1.067c1.067,0,1.067,0,2.133,0c-1.067-1.067-2.133-2.133-3.2-2.133v-1.067
		c-1.067-1.067-2.133-1.067-2.133-1.067c-1.067-1.067-1.067-1.067-2.133-2.133c-1.067-1.067-1.067-2.133-2.133-3.2
		c0-1.067,0-1.067,0-2.133c0,0,1.067,0,1.067-1.067c0,1.067,1.067,1.067,1.067,2.133l0,0c1.067-1.067,1.067-1.067,1.067,0v1.067
		v1.067c1.067,1.067,1.067,1.067,2.133,1.067c4.267,1.067,4.267,2.133,5.333,2.133s2.133,1.067,3.2,2.133c0,1.067,0,2.133,0,2.133
		s0,0,0,1.067l0,0c1.067,0,1.067,2.133,2.133,2.133l0,0c0,1.067,1.067,1.067,1.067,2.133c-1.067,0-1.067,1.067-1.067,1.067
		c1.067,0,0,1.067,1.067,1.067s1.067,0,2.133,1.067c0-1.067,0-1.067,0-1.067s0-1.067,0-2.133c0,0,1.067,0,1.067,1.067
		c0-1.067,0-1.067-1.067-2.133c0-1.067-1.067-1.067,0-2.133c0-1.067-1.067-1.067-1.067-2.133c1.067-1.067,1.067,1.067,2.133,1.067
		c0,0,0-1.067,1.067-1.067c0-1.067,2.133-1.067,3.2,0h1.067c1.067,0,2.133-1.067,3.2-1.067c1.067-1.067,0-1.067-1.067-1.067
		c0-1.067,0-1.067-1.067-2.133c0,0,0-1.067,0-2.133l1.067-1.067c0-1.067,0-2.133,1.067-3.2c0,0,1.067,0,1.067,1.067
		c0-1.067,0-2.133,1.067-3.2l1.067-1.067h2.133v1.067c1.067,0,1.067,0,2.133,0l0,0h-1.067c0,1.067,0,1.067,1.067,1.067
		c0,0,0,1.067,1.067,1.067s2.133-1.067,2.133-1.067c0-1.067,0-1.067-1.067-2.133v-1.067c1.067,0,2.133-1.067,2.133-1.067l0,0
		c0-1.067,1.067-1.067,2.133-1.067c0,0,1.067,0,2.133,0c-1.067,0-2.133,1.067-2.133,2.133l0,0c0,1.067-1.067,1.067-1.067,2.133
		c1.067,0,1.067,1.067,1.067,1.067s1.067,0,1.067,1.067c1.067,1.067,2.133,1.067,2.133,2.133l0,0c2.133,0,2.133,2.133,3.2,3.2v1.067
		c-1.067,1.067-2.133,1.067-3.2,1.067c-2.133,0-4.267,0-5.333-1.067c-1.067,0-2.133,0-2.133-1.067c-1.067,0-1.067,0-2.133-1.067
		c0-1.067-1.067-1.067-1.067,0c-1.067,1.067-1.067,0-2.133,1.067c0,0-1.067,0-1.067,1.067c-1.067,1.067-2.133,1.067-3.2,0h-1.067
		c0,0,0,1.067,1.067,1.067c0,1.067-1.067,1.067-1.067,1.067c-1.067,0-1.067,0-1.067,1.067c0-1.067-1.067-1.067-2.133-1.067
		c0,0,0,1.067-1.067,1.067v1.067c1.067,0,1.067,1.067,1.067,2.133c0,1.067,1.067,2.133,1.067,3.2c1.067,0,1.067,0,1.067,0
		c0,1.067,2.133,1.067,2.133,2.133c1.067,1.067,1.067,1.067,2.133,0c0,0,0,0,0-1.067c1.067,0,2.133,0,3.2,1.067l1.067,1.067
		c1.067,0,2.133,0,3.2-1.067l0,0c1.067,0,1.067,0,2.133,1.067c0,2.133,0,3.2,2.133,4.267c-1.067,0-1.067,0-2.133,0v1.067v1.067
		c0,1.067-1.067,2.133-1.067,3.2c0,1.067-1.067,2.133-2.133,2.133c-1.067,0-3.2,0-4.267-1.067h-1.067
		c-1.067,0-1.067,1.067-2.133,1.067c-1.067,1.067-1.067,1.067-2.133,0c-1.067-1.067-2.133,0-3.2-1.067
		c-1.067,0-2.133-1.067-3.2-1.067l0,0c-1.067-1.067-3.2-1.067-3.2-2.133l-1.067-1.067h-1.067h-1.067
		c-1.067,0-1.067,1.067-1.067,2.133s0,2.133,0,3.2h-1.067c-1.067,1.067-2.133,1.067-2.133,0c0-1.067-1.067-1.067-2.133-1.067
		s-2.133,0-2.133-1.067c-1.067,0-1.067-1.067-1.067-2.133c-1.067,0-2.133,0-3.2-1.067l0,0h-1.067l0,0h-1.067h-1.067
		c-1.067-1.067-2.133-1.067-2.133-2.133c0,0,0-1.067,1.067-1.067c1.067-1.067,1.067-2.133,1.067-3.2l0,0l0,0
		c1.067-1.067,0-2.133,0-3.2c-1.067,0-2.133,0-2.133,0h-1.067c-1.067,0-2.133,0-3.2,0h-1.067c-1.067,0-2.133,1.067-2.133,0h-1.067
		c-1.067,1.067-1.067,0-2.133,0h-1.067c-1.067,1.067-2.133,0-3.2,2.133l0,0c-1.067,0-1.067,0-1.067,1.067
		c-1.067,1.067-2.133,1.067-3.2,1.067l0,0c-1.067,0-1.067,0-2.133,0c-1.067,0-2.133,0-1.067-2.133c-1.067,0-1.067,0-2.133,1.067
		c0,1.067,0,2.133-1.067,2.133c0,1.067-1.067,1.067-2.133,2.133c-1.067,1.067-3.2,1.067-3.2,3.2l0,0
		c-1.067,0-1.067,1.067-1.067,2.133c0,2.133,0,3.2-1.067,4.267l0,0c-1.067,1.067-1.067,1.067-2.133,2.133
		c-3.2,6.4-4.267,6.4-5.333,6.4c0,0,0,0,0,1.067c0,1.067,0,2.133-1.067,2.133l-1.067,1.067c0,1.067-1.067,2.133-1.067,3.2
		c0,0,0,0,0,1.067h-1.067c0,1.067-1.067,3.2-2.133,4.267c-1.067,1.067-1.067,2.133,0,3.2c1.067,1.067,1.067,2.133,0,3.2
		c0,1.067,0,1.067,0,2.133c1.067,1.067,1.067,2.133,0,3.2c0,1.067-1.067,2.133-1.067,3.2c0,0,0,0,0,1.067s-1.067,2.133-1.067,3.2
		c0,1.067,0,1.067,0,1.067v1.067c-1.067,1.067-1.067,2.133,0,2.133c0,0,1.067,1.067,2.133,1.067c0,0,0,1.067,1.067,2.133
		c0,0,0,0,0,1.067c0,1.067,1.067,2.133,2.133,2.133c0,1.067,1.067,3.2,1.067,4.267l0,0c0,1.067,1.067,1.067,2.133,1.067
		c1.067,1.067,2.133,2.133,3.2,3.2c1.067,0,1.067,1.067,2.133,2.133c1.067,1.067,1.067,1.067,2.133,1.067s2.133,0,3.2-1.067l0,0
		h1.067c1.067,0,2.133,0,3.2-1.067l0,0c0,0,1.067,1.067,1.067,0c0,1.067,2.133,0,2.133,1.067h1.067c0-1.067,1.067-1.067,1.067-1.067
		c1.067-1.067,3.2-1.067,4.267-3.2c0,0,0,0,1.067,0h1.067h1.067c1.067,0,1.067,0,2.133,0s1.067,0,1.067,1.067
		s1.067,1.067,1.067,2.133c0,1.067,1.067,1.067,1.067,2.133h1.067h1.067h1.067c1.067-1.067,1.067,0,2.133,0v1.067
		c1.067,0,1.067,1.067,1.067,1.067c1.067,1.067,0,1.067,0,2.133c0,1.067,0,1.067-1.067,2.133c0,0-1.067,1.067,0,2.133
		c0,1.067,0,2.133,0,2.133c0,1.067-1.067,1.067-1.067,2.133c0,1.067,0,2.133,1.067,3.2c1.067,1.067,1.067,1.067,2.133,2.133
		c0,1.067,1.067,1.067,1.067,1.067l1.067,1.067c0,1.067,1.067,1.067,1.067,2.133c0,0,0,0,0,1.067h1.067c0,1.067-1.067,1.067,0,2.133
		c1.067,1.067,1.067,3.2,1.067,4.267v1.067v1.067v1.067v1.067c1.067,1.067,1.067,2.133,1.067,3.2c0,1.067,0,2.133-1.067,2.133
		h-1.067v1.067c-1.067,1.067-1.067,2.133-1.067,3.2c0,0,0,0,0,1.067c-1.067,1.067-1.067,3.2-1.067,4.267s0,3.2,1.067,4.267
		c1.067,1.067,1.067,2.133,1.067,3.2c0,1.067,1.067,2.133,2.133,4.267c0,0,0,1.067,1.067,1.067c1.067,1.067,1.067,2.133,1.067,2.133
		c0,1.067,0,2.133,0,3.2v1.067c1.067,1.067,0,2.133,0,2.133v1.067v1.067c0,1.067,0,1.067,1.067,2.133c1.067,0,0,2.133,1.067,1.067
		l0,0c0,1.067,1.067,2.133,1.067,3.2c0,1.067,0,1.067,1.067,1.067c0,0,0,1.067,1.067,2.133v1.067c0,1.067,0,2.133,0,2.133v1.067
		c1.067,1.067,0,1.067,1.067,2.133c1.067,1.067,1.067,1.067,2.133,2.133c1.067,0,2.133-1.067,3.2-1.067h1.067
		c1.067-1.067,2.133,0,2.133,0c1.067,0,2.133,0,3.2,0h1.067c0-1.067,1.067,0,1.067,0h1.067c1.067-1.067,2.133-1.067,3.2-2.133
		l1.067-1.067c1.067-1.067,2.133-2.133,3.2-4.267l0,0c1.067-1.067,1.067-2.133,1.067-3.2c1.067,0,1.067-2.133,2.133-2.133
		c0-1.067,1.067-3.2,1.067-4.267v-1.067c0,0,1.067,0,1.067-1.067s1.067-1.067,2.133-1.067c1.067,0,1.067-1.067,2.133-1.067v-1.067
		c0-1.067,0-1.067,0-2.133c0-1.067,0-1.067,0-2.133c0-1.067,0-1.067,0-2.133s0-1.067,0-2.133v-1.067
		c1.067-1.067,1.067-2.133,2.133-2.133c1.067,0,1.067-1.067,2.133-1.067c0-1.067,1.067-2.133,2.133-2.133
		c1.067,0,2.133-2.133,4.267-2.133c0,0,0-1.067,1.067-1.067c0,0,0-1.067,1.067-1.067v-1.067c0-3.2,0-6.4,0-9.6
		c0-1.067,0-1.067,0-1.067c-1.067-1.067-1.067-2.133-1.067-3.2c0,0,0,0,0-1.067v-1.067v-1.067v-1.067c0,0,0,0,0-1.067l-1.067-1.067
		c-1.067-2.133,1.067-3.2,1.067-4.267l0,0c0,0,1.067-1.067,1.067-2.133c0-1.067,1.067-1.067,1.067-2.133c0,0,0-1.067,1.067-1.067
		c1.067-1.067,2.133-1.067,2.133-3.2v-1.067c1.067-1.067,2.133-2.133,3.2-3.2c1.067-2.133,2.133-3.2,4.267-4.267
		c1.067,0,1.067-1.067,1.067-2.133l0,0h1.067c0-1.067,1.067-1.067,1.067-2.133c1.067,0,0-1.067,1.067-2.133s1.067-2.133,1.067-3.2
		c0,0,0,0,0-1.067c0,0,1.067-1.067,1.067-2.133c1.067,0,1.067-1.067,1.067-2.133c0,0,0,0,0-1.067c0,0,1.067-1.067,1.067-2.133
		v-1.067c1.067-1.067,0-2.133,0-3.2c-1.067,0-2.133,1.067-3.2,1.067l0,0c0,1.067-1.067,1.067-1.067,1.067h-1.067
		c-1.067,0-1.067,0-2.133,1.067c0,1.067-1.067,0-1.067,0c-1.067,0-1.067,0-2.133,0c-1.067,1.067-2.133,0-3.2,0
		c0-1.067-1.067-2.133-3.2-3.2c1.067,0,1.067,0,1.067,0c0-1.067,0-2.133-1.067-2.133c-1.067-1.067-2.133-2.133-3.2-3.2
		c0,0,0-1.067-1.067-1.067s-1.067-1.067-2.133-1.067c-1.067,0-1.067-1.067-1.067-2.133v-1.067c0-1.067-1.067-2.133-1.067-3.2
		c-1.067-1.067-1.067-1.067-2.133-2.133l-1.067-1.067c0-1.067,0-2.133,0-3.2c0-1.067,0-2.133-1.067-3.2
		c-1.067,0-2.133-1.067-3.2-2.133l0,0c0-1.067,0-2.133-1.067-3.2l0,0c-1.067-1.067-1.067-3.2-2.133-3.2c0,0,0,0,0-1.067v-1.067
		c-1.067-1.067,0-1.067,0-2.133h1.067c0-1.067,0-2.133,1.067-3.2v2.133c0,0,1.067,0,1.067,1.067c0,0,0,1.067,1.067,1.067
		c0,1.067,2.133,2.133,2.133,3.2v1.067c1.067,1.067,1.067,1.067,1.067,2.133c1.067,0,1.067,0,1.067,1.067
		c1.067,2.133,2.133,3.2,2.133,5.333l0,0c0,1.067,1.067,2.133,1.067,3.2c1.067,1.067,2.133,2.133,2.133,3.2
		c1.067,1.067,1.067,1.067,1.067,1.067c0,1.067,1.067,2.133,2.133,3.2v1.067c0,1.067,0,2.133,1.067,3.2l0,0
		c0,1.067,0,3.2,1.067,4.267c1.067,0,1.067,0,2.133,0c1.067,0,1.067,0,1.067-1.067l1.067-1.067c1.067,0,1.067,0,2.133,0
		c1.067,0,2.133-2.133,3.2-2.133c0,0,0,0,1.067-1.067c0-1.067,1.067-1.067,1.067-1.067l0,0c1.067-1.067,2.133-1.067,2.133-1.067
		s1.067,0,1.067-1.067v-1.067l1.067-1.067c1.067,0,2.133-2.133,4.267-1.067l0,0c0,0,0-1.067,0-2.133c1.067,0,1.067,0,2.133,0
		c2.134,2.133,2.134,1.067,2.134,1.067h1.067c0-1.067,0-1.067,0-2.133s0-1.067,0-2.133c1.067,0,1.067-1.067,2.133-1.067
		c1.067-2.133,2.133-3.2,0-4.267l-1.067-1.067c0,0-1.067,0-1.067-1.067c0,0-1.067-1.067-2.133-1.067v-1.067
		c-1.067-1.067-1.067-1.067-1.067-3.2c0,0-1.067,0-1.067,1.067c0,1.067-1.067,1.067-1.067,1.067
		c-1.067,1.067-1.067,1.067-2.133,2.133c-1.067,0-2.133,0-3.2,1.067c-1.067-1.067-1.067-1.067-1.067-3.2v-2.133h-1.067
		c0,1.067,0,2.133,0,2.133c0-1.067-1.067-2.133-1.067-3.2c0-2.133-2.133-2.133-3.2-3.2c0-2.133-1.067-3.2-2.133-5.333
		c1.067,0,1.067,0,1.067,0l0,0l0,0h1.067c1.067,0,1.067,0,1.067,1.067c0,0,0,0,0,1.067c1.067,1.067,1.067,2.133,1.067,2.133
		c0,1.067,1.067,1.067,1.067,1.067c1.067,0,1.067,0,1.067,1.067l0,0c0,0,1.067,0,1.067,1.067c1.067,1.067,2.133,0,2.133,1.067
		c0,0,0,0,1.067,0s1.067-1.067,2.133-1.067h1.067c0,1.067,1.067,1.067,1.067,2.133c0,1.067,1.067,1.067,1.067,1.067
		c1.067,0,1.067,0,1.067,0c1.067,1.067,2.133,0,2.133,0h1.067h1.067c1.067,0,2.133,0,3.2-1.067h6.4c0,1.067,1.067,1.067,1.067,1.067
		c0,1.067,0,2.133,1.067,2.133s1.067,1.067,2.133,1.067c1.067,0,1.067,1.067,2.133,1.067h1.067v1.067c-1.067,0-1.067,0-2.133,0
		v1.067c1.067,0,2.133,1.067,2.133,2.133c1.067,1.067,2.133,0,3.2-1.067v-1.067c0,0,0,0,1.067-1.067c0,1.067,1.067,1.067,0,2.133
		c0,0,0,1.067,1.067,1.067s0,1.067,0,1.067s-1.067,1.067,0,2.133c1.067,0,0,1.067,0,1.067v1.067c1.067,1.067,0,2.133,1.067,3.2
		c0,1.067,0,2.133,1.067,2.133c1.067,1.067,1.067,2.133,2.133,3.2c0,0,1.067,1.067,1.067,2.133s0,2.133,1.067,3.2
		c0,1.067,1.067,2.133,2.133,3.2c1.067,1.067,1.067,2.133,2.133,4.267c0,1.067,0,1.067,1.067,2.133c0,1.067,1.067,1.067,1.067,1.067
		h1.067c0-1.067,0-1.067,0-2.133h1.067c0-1.067,0-1.067,0-1.067s0-1.067,1.067-1.067h1.067c0-1.067,0-2.133,0-3.2v-1.067
		c0-1.067,0-2.133,0-2.133c-1.067-1.067,0-2.133,0-3.2v-1.067c-1.067,0,0-1.067,0-1.067c0-1.067,1.067-1.067,1.067-1.067
		c0-1.067,1.067,0,2.133-1.067c0-1.067,0-2.133,1.067-2.133c1.067-1.067,1.067-2.133,2.133-2.133c0-1.067,1.067-2.133,1.067-2.133
		c0-1.067,1.067-1.067,2.133-1.067c1.067,0,1.067,0,1.067-1.067v-1.067c0-1.067,0-2.133,1.067-2.133l0,0c1.067,0,1.067,0,2.133,0
		h1.067c1.067,0,1.067,0,2.133-1.067l1.067-1.067h1.067c1.067,1.067,1.067,2.133,1.067,3.2c0,1.067,1.067,2.133,1.067,2.133
		c1.067,1.067,2.133,1.067,2.133,3.2c1.067,0,1.067,1.067,1.067,1.067c0,1.067,1.067,1.067,1.067,2.133s0,2.133,0,3.2l0,0
		c1.067,1.067,1.067,1.067,2.133,0c1.067-1.067,1.067-1.067,2.133-1.067v-1.067c0,1.067,0,1.067,1.067,1.067
		c1.067,1.067,1.067,1.067,1.067,2.133c0,0,0,0,0,1.067c1.067,1.067,1.067,2.133,1.067,3.2c1.067,1.067,1.067,2.133,1.067,3.2
		c0,1.067,0,1.067,0,2.133v1.067v1.067c0,2.133,0,3.2,0,4.267c1.067,1.067,2.133,1.067,2.133,2.133c0,1.067,1.067,2.133,1.067,3.2
		c0,0,1.067,1.067,0,2.133v1.067l1.067,1.067c0,0,0,0-1.067,0c0,1.067,0,1.067,1.067,2.133c1.067,1.067,1.067,1.067,1.067,2.133
		h1.067c0,1.067,1.067,1.067,1.067,1.067c1.067,0,1.067,1.067,1.067,1.067h1.067c0-1.067,0-1.067,0-2.133
		c-1.067-1.067-1.067-2.133-1.067-3.2v-1.067c0-1.067,0-2.133-1.067-3.2c-1.067-1.067-1.067-2.133-2.133-2.133l-1.067-1.067
		c-1.067,0-2.133-1.067-2.133-1.067c1.067-1.067,1.067-1.067,0-2.133c0,0,0-1.067-1.067-1.067h-1.067c0-2.133,0-3.2,0-4.267v-1.067
		c0-1.067,1.067-1.067,0-2.133l0,0c1.067,0,0-1.067,0-1.067c1.067-1.067,1.067-1.067,2.133,0c0,0,0,0,0,1.067l1.067,1.067h1.067
		c0,1.067,0,1.067,1.067,1.067c0,0,1.067,0,1.067,1.067s1.067,1.067,1.067,2.133h1.067c1.067,1.067,2.133,2.133,3.2,2.133v1.067
		c-1.067,0,0,1.067,0,2.133c1.067,1.067,2.133-1.067,3.2-1.067c0,0,0,0,1.067-1.067l0,0v-1.067h1.067
		c0-4.267,1.067-8.533,1.067-12.8v-1.067c-2.133-1.067-2.133-2.133-4.267-3.2c0-1.067-1.067-1.067-1.067-2.133
		c-1.067-1.067-1.067-2.133,0-3.2l1.067-1.067c0-1.067,1.067-1.067,2.133-2.133c0,0,1.067-1.067,2.133-1.067c0,0,0,0,1.067,1.067
		l0,0C509.64,108.258,488.307,66.658,455.24,38.924z"/>
	<path style="fill:#F3F3F3;" d="M479.774,233.058c0-1.067,0-2.133-1.067-2.133c-1.067-1.067-1.067-1.067-1.067-2.133
		c0,0,0,0,0-1.067c-1.067,0-1.067,0-1.067,0c0-1.067,0-3.2-1.067-4.267c0,0,0-1.067,1.067-1.067c-1.067-1.067-2.133,0-2.133-2.133
		l0,0l-1.067-1.067c0-1.067,0-2.133,0-3.2v-1.067c-1.067-1.067,0-1.067,0-2.133s0-1.067,0-2.133v-1.067
		c0-1.067-1.067-1.067-2.133-1.067v-1.067c-1.067,0-1.067-1.067,0-1.067v-1.067c0,0,0,0,0-1.067c0-1.067-1.067-2.133-1.067-3.2
		h-1.067c0,1.067,0,1.067-1.067,2.133c-1.067,1.067-1.067,1.067-1.067,2.133v1.067c-1.067,0,0,1.067,0,1.067c0,1.067,0,2.133,0,3.2
		c0,1.067,0,1.067-1.067,2.133c0,1.067-1.067,2.133-2.133,3.2l0,0c-1.067,0-2.133,0-2.133-2.133c-1.067,0-2.133-1.067-2.133-1.067
		l-1.067-1.067c-1.067,0-1.067-1.067-1.067-1.067l-1.067-1.067c0-1.067,1.067-2.133,1.067-3.2c0-1.067,0-1.067,1.067-1.067
		s1.067-1.067,1.067-2.133c-1.067,0-1.067,0-2.133-1.067h-1.067c0,0,0,0-1.067,0s-1.067,0-2.133-1.067h-1.067
		c0,1.067,0,2.133-1.067,2.133s-2.133,0-3.2,1.067c-1.067,0-1.067,1.067-1.067,1.067c0,1.067,0,2.133-2.133,2.133
		c0,1.067,0,2.133,0,2.133l0,0h-1.067h-1.067v-1.067c0,0,0,0,0-1.067c0-1.067-1.067-1.067-1.067-1.067
		c-1.067,1.067-2.133,1.067-3.2,1.067c0,0,0,1.067-1.067,1.067c-1.067,1.067-1.067,2.133-1.067,3.2c-1.067,0-1.067,0-1.067,0
		c-1.067,1.067,0,1.067,0,1.067l-1.067,1.067c0,0,0,0-1.067-1.067c0,0-1.067-1.067-1.067,0l-1.067,1.067
		c0,1.067-1.067,2.133-1.067,3.2c-1.067,1.067-1.067,1.067-2.133,2.133l-1.067,1.067c-1.067,0-2.133,1.067-3.2,1.067l0,0
		c-1.067,1.067-2.133,1.067-3.2,1.067s-1.067,0-2.133,1.067l-1.067,1.067c-1.067,0-2.133,1.067-2.133,2.133c0,0,0,0-1.067,1.067
		c0,0-1.067,0-1.067-1.067v2.133v1.067c-1.067,0-1.067,1.067-1.067,2.133c0,1.067,0,2.133,1.067,2.133c0,1.067,0,1.067,0,2.133
		c0,0-1.067,0-1.067,1.067s1.067,2.133,0,3.2c0,1.067,1.067,2.133,1.067,3.2c0,0,0,0,0,1.067c-1.067,1.067-1.067,2.133,0,4.267
		v1.067c-1.067,1.067-1.067,2.133-1.067,4.267c0,0,0,0-1.067,0s-1.067,1.067-1.067,2.133c1.067,1.067,1.067,1.067,2.133,2.133
		c1.067,0,1.067,0,2.133,0c1.067,0,2.133-1.067,3.2-1.067c1.067-1.067,2.133-2.133,4.267-1.067c1.067,0,2.133,0,3.2,0
		s2.133,0,2.133-1.067l1.067-1.067c1.067,0,2.133-1.067,3.2-1.067c1.067-1.067,1.067-1.067,3.2-1.067c1.067,0,2.133,0,2.133-1.067
		c1.067-1.067,2.133-1.067,3.2-1.067h1.067h1.067c1.067,1.067,2.133,1.067,3.2,1.067s1.067,0,1.067,1.067c0,1.067,0,1.067,0,1.067
		s0,1.067,1.067,1.067v1.067v1.067c1.067,0,1.067,0,1.067-1.067c1.067-1.067,2.133-2.133,3.2-3.2c0,0,1.067,0,1.067-1.067
		c1.067,1.067-1.067,1.067,0,2.133l0,0c-1.067,0-1.067,1.067-1.067,1.067c1.067,0,1.067,0,2.133,0v1.067v1.067h1.067l0,0
		c0,0,0,0-1.067,0c1.067,1.067,1.067,1.067,1.067,2.133c-1.067,1.067,0,2.133,0,3.2c1.067,0,2.133,1.067,3.2,1.067l0,0
		c1.067,1.067,2.133,1.067,2.133,0c1.067,0,1.067-1.067,2.133-1.067c0,1.067,1.067,1.067,1.067,2.133c1.067,0,1.067,0,1.067,0
		c1.067,0,1.067,0,1.067-1.067c1.067,0,1.067-1.067,2.133-1.067c1.067,0,2.133,0,4.267-1.067c0,0,0,0,0-1.067
		c1.067-2.133,1.067-3.2,3.2-5.333l1.067-1.067c0-1.067,1.067-1.067,1.067-1.067c0-1.067,0-1.067,1.067-2.133
		s1.067-1.067,2.133-2.133c0-1.067,1.067-1.067,2.133-2.133c1.067,0,1.067-1.067,1.067-2.133v-1.067c0,0,0-1.067,1.067-1.067
		c0-1.067,1.067-1.067,1.067-2.133c0-1.067,1.067-1.067,1.067-2.133v-1.067c0-1.067,1.067-3.2,1.067-4.267
		C480.84,234.124,479.774,233.058,479.774,233.058z"/>
</g>
<g>
</g>
<g>
</g>
<g>
</g>
<g>
</g>
<g>
</g>
<g>
</g>
<g>
</g>
<g>
</g>
<g>
</g>
<g>
</g>
<g>
</g>
<g>
</g>
<g>
</g>
<g>
</g>
<g>
</g>
</svg>
