<?xml version="1.0" encoding="iso-8859-1"?>
<!-- Generator: Adobe Illustrator 19.0.0, SVG Export Plug-In . SVG Version: 6.00 Build 0)  -->
<svg version="1.1" id="Capa_1" xmlns="http://www.w3.org/2000/svg" xmlns:xlink="http://www.w3.org/1999/xlink" x="0px" y="0px"
	 viewBox="0 0 510.933 510.933" style="enable-background:new 0 0 510.933 510.933;" xml:space="preserve">
<g>
	<path style="fill:#344A5E;" d="M325.848,416H176.515c-9.6,17.067-20.267,32-34.133,45.867c-3.2,3.2-5.333,7.467-5.333,11.733
		c0,32,51.2,37.333,114.133,37.333S365.315,505.6,365.315,473.6c0-4.267-2.133-7.467-5.333-10.667
		C347.181,449.067,335.448,433.067,325.848,416z"/>
	<path style="fill:#344A5E;" d="M251.181,65.067c0,0-41.6-42.667-26.667-55.467s38.4-12.8,53.333,0
		C292.781,22.4,251.181,65.067,251.181,65.067z"/>
	<path style="fill:#344A5E;" d="M251.181,48c0,0,41.6,42.667,26.667,55.467c-14.933,12.8-38.4,12.8-53.333,0S251.181,48,251.181,48z
		"/>
	<rect x="202.115" y="40.533" style="fill:#344A5E;" width="99.2" height="33.067"/>
	<path style="fill:#344A5E;" d="M324.781,132.267c0,21.333-33.067,80-73.6,80s-73.6-58.667-73.6-80s33.067-39.467,73.6-39.467
		S324.781,109.867,324.781,132.267z"/>
</g>
<path style="fill:#415A6B;" d="M356.781,436.267c0,29.867-46.933,35.2-105.6,35.2s-105.6-5.333-105.6-35.2
	c0-3.2,2.133-7.467,5.333-10.667c43.733-44.8,61.867-108.8,61.867-171.733v-19.2h76.8v19.2c0,62.933,19.2,125.867,62.933,171.733
	C354.648,429.867,356.781,433.067,356.781,436.267z"/>
<ellipse style="fill:#344A5E;" cx="251.181" cy="233.6" rx="73.6" ry="20.267"/>
<path style="fill:#415A6B;" d="M289.581,216.533h-76.8c-6.4,0-11.733-5.333-11.733-11.733l0,0c0-6.4,5.333-11.733,11.733-11.733
	h76.8c6.4,0,11.733,5.333,11.733,11.733l0,0C301.315,212.267,295.981,216.533,289.581,216.533z"/>
<path style="fill:#F3705A;" d="M154.115,82.133l-22.4,54.4l-10.667-25.6l0,0c-56.533,23.467-83.2,89.6-59.733,146.133
	c4.267,10.667,10.667,21.333,18.133,29.867l-21.333,18.133c-9.6-11.733-18.133-23.467-23.467-37.333
	c-29.867-71.467,4.267-153.6,74.667-183.467L98.648,59.733L154.115,82.133z"/>
<path style="fill:#55C0EB;" d="M137.048,386.133c-4.267,4.267-10.667,5.333-14.933,1.067l-16-12.8l-12.8,16
	c-4.267,4.267-10.667,5.333-14.933,1.067c-4.267-3.2-5.333-10.667-1.067-14.933l12.8-16l-16-12.8
	c-4.267-4.267-5.333-10.667-1.067-14.933c3.2-4.267,10.667-5.333,14.933-1.067l16,12.8l12.8-16
	c4.267-4.267,10.667-5.333,14.933-1.067c4.267,4.267,5.333,10.667,1.067,14.933l-12.8,16l16,12.8
	C140.248,374.4,141.315,381.867,137.048,386.133z"/>
<path style="fill:#FFD15C;" d="M373.848,378.667l17.067-53.333l11.733,23.467l0,0c52.267-27.733,72.533-91.733,44.8-144
	c-5.333-9.6-11.733-19.2-20.267-26.667l19.2-19.2c10.667,9.6,19.2,21.333,25.6,34.133c34.133,65.067,8.533,146.133-56.533,181.333
	l11.733,23.467L373.848,378.667z"/>
<path style="fill:#66C6B9;" d="M393.048,150.4c-21.333-1.067-37.333-20.267-36.267-41.6s20.267-37.333,41.6-36.267
	c21.333,1.067,37.333,20.267,36.267,41.6S414.381,151.467,393.048,150.4z M397.315,92.8c-10.667-1.067-19.2,7.467-20.267,17.067
	c-1.067,10.667,7.467,19.2,17.067,20.267c10.667,1.067,19.2-7.467,20.267-17.067C415.448,102.4,407.981,93.867,397.315,92.8z"/>
<g>
</g>
<g>
</g>
<g>
</g>
<g>
</g>
<g>
</g>
<g>
</g>
<g>
</g>
<g>
</g>
<g>
</g>
<g>
</g>
<g>
</g>
<g>
</g>
<g>
</g>
<g>
</g>
<g>
</g>
</svg>
