<?xml version="1.0" encoding="iso-8859-1"?>
<!-- Generator: Adobe Illustrator 19.0.0, SVG Export Plug-In . SVG Version: 6.00 Build 0)  -->
<svg version="1.1" id="Capa_1" xmlns="http://www.w3.org/2000/svg" xmlns:xlink="http://www.w3.org/1999/xlink" x="0px" y="0px"
	 viewBox="0 0 512.067 512.067" style="enable-background:new 0 0 512.067 512.067;" xml:space="preserve">
<g>
	<polygon style="fill:#344A5E;" points="75.733,381.9 43.733,512.033 89.6,512.033 120.533,381.9 	"/>
	<polygon style="fill:#344A5E;" points="260.267,381.9 214.4,381.9 246.4,512.033 291.2,512.033 	"/>
</g>
<path style="fill:#F3F3F3;" d="M334.933,21.367v353.067c0,11.733-9.6,21.333-21.333,21.333H21.333C9.6,395.767,0,386.167,0,374.433
	V21.367C0,9.633,9.6,0.033,21.333,0.033H313.6C325.333,0.033,334.933,9.633,334.933,21.367z"/>
<polygon style="fill:#CED6E0;" points="288,222.967 269.867,210.167 205.867,301.9 112,290.167 65.067,361.633 46.933,349.9 
	102.4,266.7 195.2,279.5 252.8,198.433 235.733,185.633 281.6,177.1 "/>
<circle style="fill:#F3705A;" cx="108.8" cy="279.5" r="25.6"/>
<circle style="fill:#F05540;" cx="108.8" cy="279.5" r="12.8"/>
<circle style="fill:#66C6B9;" cx="199.467" cy="292.3" r="25.6"/>
<circle style="fill:#4ABAA5;" cx="199.467" cy="292.3" r="12.8"/>
<rect x="59.733" y="112.033" style="fill:#415A6B;" width="33.067" height="46.933"/>
<rect x="122.667" y="65.1" style="fill:#66C6B9;" width="33.067" height="93.867"/>
<rect x="184.533" y="87.5" style="fill:#FFD15C;" width="33.067" height="71.467"/>
<rect x="247.467" y="42.7" style="fill:#F3705A;" width="33.067" height="117.333"/>
<g>
	<path style="fill:#344A5E;" d="M358.4,184.567l8.533-7.467h5.333L368,260.3l-24.533-11.733C342.4,247.5,352,192.033,358.4,184.567z
		"/>
	<ellipse style="fill:#344A5E;" cx="357.333" cy="258.167" rx="13.867" ry="20.267"/>
</g>
<path style="fill:#415A6B;" d="M485.333,465.1c-4.267,23.467-5.333,46.933-5.333,46.933H370.133c0,0-22.4-69.333-12.8-120.533
	c9.6-51.2,19.2-80,19.2-80l83.2,8.533l27.733,84.267C487.467,404.3,489.6,441.633,485.333,465.1z"/>
<path style="fill:#344A5E;" d="M393.6,167.5l-5.333,1.067c0,0-20.267,4.267-23.467,9.6c-3.2,4.267-12.8,22.4-11.733,38.4
	c1.067,16,7.467,41.6,8.533,67.2s-4.267,67.2-6.4,84.267c-2.133,17.067-5.333,56.533-5.333,56.533s1.067,4.267,5.333-5.333
	c4.267-9.6,16-68.267,20.267-81.067c4.267-12.8,12.8-71.467,12.8-71.467s-2.133-68.267,1.067-82.133
	C393.6,169.633,393.6,167.5,393.6,167.5z"/>
<path style="fill:#E8EAE9;" d="M355.2,273.1c0,0-3.2-4.267-4.267-8.533c0-5.333,1.067-12.8,5.333-17.067
	c4.267-4.267,9.6-4.267,9.6-4.267l9.6,2.133L355.2,273.1z"/>
<path style="fill:#FFD15C;" d="M452.267,109.9l-3.2,27.733l-44.8,35.2v-36.267c0,0-12.8-9.6-11.733-36.267
	c0,0-1.067-14.933,1.067-25.6s6.4-20.267,14.933-23.467c8.533-3.2,35.2,3.2,40.533,7.467C454.4,64.033,460.8,99.233,452.267,109.9z"
	/>
<path style="fill:#415A6B;" d="M451.2,99.233l2.133,1.067l8.533-6.4c0,0,3.2-16-2.133-27.733C454.4,54.433,440.533,42.7,432,41.633
	c-8.533-2.133-14.933-2.133-21.333,2.133c-6.4,4.267-12.8,10.667-14.933,18.133c-2.133,7.467-5.333,21.333-5.333,27.733
	c1.067,6.4,1.067,10.667,1.067,10.667h1.067c0,0-2.133-9.6,0-16c2.133-6.4,2.133-6.4,3.2-11.733c0-5.333,2.133-11.733,7.467-13.867
	c5.333-2.133,20.267-3.2,27.733,0c7.467,2.133,12.8,6.4,14.933,6.4c0,0-4.267,8.533-1.067,13.867
	C450.133,83.233,452.267,92.833,451.2,99.233z"/>
<ellipse transform="matrix(0.2964 -0.9551 0.9551 0.2964 221.5076 509.6307)" style="fill:#FFD15C;" cx="456.635" cy="104.48" rx="12.8" ry="5.334"/>
<path style="fill:#F7B64C;" d="M404.267,136.567v26.667c29.867-11.733,42.667-42.667,42.667-42.667
	C429.867,144.033,404.267,136.567,404.267,136.567z"/>
<polygon style="fill:#CED6E0;" points="404.267,152.567 409.6,155.767 412.8,155.767 435.2,158.967 404.267,231.5 385.067,276.3 
	387.2,184.567 "/>
<g>
	<path style="fill:#F3705A;" d="M409.6,169.633c0,0,6.4,20.267,5.333,34.133c-1.067,13.867-22.4,56.533-22.4,56.533l-10.667-34.133
		c0,0,6.4-40.533,6.4-41.6C388.267,183.5,400,170.7,400,170.7l8.533-5.333L409.6,169.633"/>
	<path style="fill:#F3705A;" d="M419.2,157.9c0,0-6.4,5.333-10.667,11.733c0,0-5.333-3.2-9.6,0c0,0,2.133-10.667,4.267-12.8
		c2.133-2.133,6.4,0,6.4,0h4.267L419.2,157.9z"/>
</g>
<path style="fill:#F3F3F3;" d="M449.067,135.5c0,0-6.4,5.333-13.867,8.533c-8.533,3.2-22.4,12.8-22.4,12.8
	s13.867,12.8,13.867,21.333c1.067,8.533,1.067,8.533,1.067,8.533l28.8-38.4C452.267,144.033,451.2,133.367,449.067,135.5z"/>
<path style="fill:#344A5E;" d="M464,154.7c0,0,8.533,5.333,14.933,7.467c6.4,2.133,19.2-1.067,27.733,10.667
	c0,0,9.6,7.467,3.2,34.133c-6.4,26.667-22.4,61.867-23.467,70.4c-2.133,9.6,14.933,145.067,14.933,145.067s-76.8,17.067-98.133,0
	c-21.333-17.067-24.533-80-22.4-101.333c2.133-20.267,3.2-34.133,3.2-34.133s14.933-59.733,22.4-77.867s36.267-53.333,36.267-53.333
	L464,154.7z"/>
<path style="fill:#FFD15C;" d="M389.333,298.7c0,0,25.6,1.067,24.533-11.733c-1.067-12.8-17.067-12.8-17.067-12.8l-16,9.6
	L389.333,298.7z"/>
<path style="fill:#E8EAE9;" d="M394.667,279.5c0,0-2.133,14.933,0,20.267l-32,2.133l3.2-24.533L394.667,279.5z"/>
<path style="fill:#2E4454;" d="M386.133,309.367c0,0-2.133,0-5.333,0c-5.333,0-12.8-1.067-19.2-1.067c-6.4,0-11.733,0-13.867,0
	c-4.267,0-25.6-3.2-27.733-5.333s-7.467-12.8-7.467-23.467s8.533-23.467,8.533-23.467s8.533-13.867,10.667-17.067
	c2.133-3.2,5.333-5.333,7.467-8.533c2.133-3.2,2.133-7.467,2.133-7.467s-1.067-4.267,2.133-10.667
	c3.2-6.4,5.333-11.733,5.333-11.733s2.133-11.733,8.533-18.133c5.333-5.333,8.533-5.333,8.533-5.333
	c-1.067,0-1.067,1.067-2.133,1.067c-3.2,4.267-12.8,22.4-11.733,38.4c0,7.467,2.133,17.067,4.267,28.8l0,0
	c0,0-7.467,16-8.533,18.133s-1.067,5.333,3.2,6.4c1.067,0,4.267,1.067,8.533,2.133c8.533,1.067,20.267,3.2,25.6,3.2
	c2.133,0,2.133,0,2.133,0C381.867,286.967,386.133,309.367,386.133,309.367z"/>
<path style="fill:#415A6B;" d="M387.2,276.3c7.467-19.2,21.333-57.6,27.733-70.4c9.6-18.133,26.667-32,26.667-32l-4.267-5.333
	l9.6-1.067c0,0,14.933-11.733,16-12.8c0,0-2.133-3.2-4.267-4.267c-2.133-2.133-4.267-5.333-6.4-6.4c0,0-21.333,13.867-30.933,28.8
	c-9.6,13.867-20.267,34.133-26.667,56.533c-4.267,13.867-8.533,35.2-10.667,48h3.2V276.3z"/>
<path style="fill:#F3F3F3;" d="M404.267,145.1c0,0,2.133,7.467,5.333,11.733c0,0-6.4,0-8.533,6.4c-2.133,6.4-2.133,6.4-2.133,6.4
	s0-7.467,2.133-10.667C402.133,155.767,401.067,146.167,404.267,145.1z"/>
<g>
	<path style="fill:#415A6B;" d="M385.067,277.367c2.133-12.8,6.4-32,6.4-37.333c0-8.533,0-41.6,2.133-50.133
		c1.067-8.533,8.533-33.067,8.533-33.067s-4.267,7.467-12.8,11.733l2.133,2.133c0,0-7.467,2.133-10.667,9.6
		c-3.2,7.467-3.2,37.333-3.2,45.867c0,6.4,3.2,35.2,4.267,51.2H385.067z"/>
	<path style="fill:#415A6B;" d="M509.867,205.9c-3.2,13.867-9.6,30.933-14.933,43.733l0,0c-14.933,18.133-44.8,35.2-50.133,37.333
		c-5.333,2.133-7.467,3.2-10.667,4.267c-3.2,1.067-10.667,0-13.867,1.067c-4.267,1.067-6.4,0-10.667-1.067
		c-2.133,0-13.867-3.2-26.667-6.4C368,281.633,352,277.367,352,277.367c4.267-12.8,21.333-35.2,21.333-35.2
		s11.733,1.067,21.333,1.067c4.267,0,8.533,0,9.6,0c5.333-1.067,18.133-2.133,20.267-2.133c1.067-1.067,7.467,2.133,10.667,3.2
		c3.2,1.067,4.267,1.067,5.333-4.267c1.067-5.333,4.267-8.533,6.4-13.867c2.133-5.333,4.267-22.4,17.067-43.733
		c6.4-9.6,14.933-14.933,23.467-18.133c6.4-2.133,14.933-1.067,19.2,5.333l0,0C506.667,171.767,516.267,179.233,509.867,205.9z"/>
</g>
<path style="fill:#344A5E;" d="M423.467,512.033h-8.533c-2.133-10.667-6.4-23.467-7.467-32c-1.067-12.8,0-37.333,2.133-28.8
	c3.2,8.533,7.467,29.867,6.4,32c-1.067,2.133,3.2,4.267,3.2,16C420.267,503.5,422.4,507.767,423.467,512.033z"/>
<g>
</g>
<g>
</g>
<g>
</g>
<g>
</g>
<g>
</g>
<g>
</g>
<g>
</g>
<g>
</g>
<g>
</g>
<g>
</g>
<g>
</g>
<g>
</g>
<g>
</g>
<g>
</g>
<g>
</g>
</svg>
