<?xml version="1.0" encoding="iso-8859-1"?>
<!-- Generator: Adobe Illustrator 19.0.0, SVG Export Plug-In . SVG Version: 6.00 Build 0)  -->
<svg version="1.1" id="Capa_1" xmlns="http://www.w3.org/2000/svg" xmlns:xlink="http://www.w3.org/1999/xlink" x="0px" y="0px"
	 viewBox="0 0 512.356 512.356" style="enable-background:new 0 0 512.356 512.356;" xml:space="preserve">
<rect x="225.067" y="154.772" style="fill:#F3705A;" width="59.733" height="314.667"/>
<rect x="130.133" y="273.172" style="fill:#FFD15C;" width="59.733" height="197.333"/>
<rect x="34.133" y="371.306" style="fill:#415A6B;" width="59.733" height="98.133"/>
<path style="fill:#FFD15C;" d="M347.733,347.839c0,0,3.2,13.867,3.2,21.333s-1.067,11.733-2.133,13.867
	c-1.067,1.067-2.133,1.067-2.133,1.067l2.133,3.2c0,0,5.333,2.133,6.4,6.4l-2.133,3.2c0,0,3.2,2.133,2.133,6.4l-6.4-3.2
	c0,0-3.2-1.067-5.333-2.133c-2.133-2.133-8.533-6.4-8.533-9.6c-1.067-3.2-2.133-10.667-4.267-12.8
	c-2.133-2.133-2.133-18.133,1.067-25.6c3.2-7.467,3.2-7.467,3.2-7.467L347.733,347.839L347.733,347.839z"/>
<path style="fill:#F7B64C;" d="M347.733,384.106c0,0,0,0-1.067,0s-2.133-1.067-2.133-2.133c0-1.067,0-1.067-1.067-2.133
	c0-1.067,0-1.067,0-2.133c0-1.067-1.067-3.2-1.067-5.333c0-1.067,0-2.133,0-2.133c0-1.067,0-2.133,0-2.133
	c0-1.067-1.067-3.2-1.067-4.267c0-1.067-1.067-2.133-1.067-3.2v-1.067l0,0c0,0,0,0,0,1.067v1.067c0,0,0,1.067,1.067,1.067
	c1.067,1.067,1.067,2.133,2.133,4.267c0,1.067,0,2.133,0,2.133c0,1.067,0,2.133,0,2.133c0,2.133,0,3.2,1.067,5.333
	c0,1.067,0,1.067,0,2.133c0,1.067,0,1.067,0,2.133c0,1.067,1.067,2.133,2.133,2.133
	C346.667,384.106,347.733,384.106,347.733,384.106z"/>
<g>
	<path style="fill:#415A6B;" d="M365.867,135.572l-9.6,1.067c0,0-7.467,5.333-9.6,13.867c-1.067,8.533-2.133,20.267-2.133,26.667
		c1.067,6.4,3.2,36.267,3.2,42.667s-4.267,16-3.2,20.267c1.067,4.267-2.133,18.133-2.133,18.133s-3.2,28.8-4.267,34.133
		c-1.067,5.333-3.2,11.733-3.2,18.133s-4.267,42.667-4.267,42.667s1.067-2.133,5.333-3.2s13.867,0,13.867,0
		s14.933-108.8,14.933-109.867c0-1.067-14.933-60.8-14.933-60.8L365.867,135.572z"/>
	<path style="fill:#415A6B;" d="M374.4,490.772h46.933c-1.067-12.8-3.2-26.667-4.267-32c-2.133-9.6-2.133-34.133-2.133-34.133
		s2.133,7.467,5.333,16c2.133,5.333,9.6,29.867,16,50.133H486.4c-1.067-8.533-3.2-14.933-3.2-16c0-5.333-8.533-43.733-8.533-43.733
		c1.067-5.333-1.067-25.6-1.067-25.6c2.133-8.533-1.067-49.067-1.067-49.067l3.2-33.067l-70.4-45.867l-50.133,8.533l-3.2,59.733
		c0,0,0,0-1.067,10.667s2.133,36.267,5.333,51.2C358.4,421.439,369.067,472.639,374.4,490.772z"/>
</g>
<polyline style="fill:#CED6E0;" points="389.333,117.439 427.733,117.439 366.933,266.772 348.8,172.906 378.667,116.372 
	389.333,117.439 "/>
<path style="fill:#FFD15C;" d="M422.4,60.906c0,0,1.067,14.933-1.067,24.533l8.533,22.4l-44.8,24.533l-4.267-26.667V95.039
	c0,0-12.8-12.8-13.867-32c0-18.133,0-18.133,0-18.133l0,0c0,0-2.133-21.333,7.467-28.8s34.133-7.467,39.467-3.2
	C420.267,18.239,422.4,60.906,422.4,60.906z"/>
<path style="fill:#F05540;" d="M393.6,130.239l-1.067,4.267c0,0-1.067,11.733-2.133,19.2c0,7.467-6.4,68.267-6.4,68.267l-12.8,19.2
	l-4.267-7.467c0,0,0-38.4,2.133-50.133c2.133-11.733,7.467-29.867,8.533-34.133s4.267-17.067,4.267-17.067
	S389.333,125.972,393.6,130.239z"/>
<path style="fill:#F3705A;" d="M380.8,124.906c0,0-1.067,5.333,0,8.533c0,0,10.667-3.2,12.8,1.067c0,0,4.267-7.467,8.533-7.467
	l-12.8-9.6h-9.6L380.8,124.906"/>
<path style="fill:#F7B64C;" d="M421.333,85.439c0,0-12.8,13.867-23.467,16s-18.133-6.4-18.133-6.4v10.667l2.133,9.6
	C391.467,112.106,413.867,102.506,421.333,85.439z"/>
<path style="fill:#F3F3F3;" d="M389.333,117.439c0,0-8.533,3.2-9.6,9.6c-1.067,6.4-2.133,7.467-2.133,7.467s1.067-13.867,1.067-16
	s0-17.067,1.067-19.2s0,0,0,0S380.8,106.772,389.333,117.439"/>
<g>
	
		<ellipse transform="matrix(0.1241 0.9923 -0.9923 0.1241 376.5644 -314.8272)" style="fill:#FFD15C;" cx="366.609" cy="55.882" rx="11.734" ry="5.333"/>
	
		<ellipse transform="matrix(0.1241 -0.9923 0.9923 0.1241 316.5657 471.8693)" style="fill:#FFD15C;" cx="425.562" cy="56.623" rx="11.734" ry="5.333"/>
</g>
<path style="fill:#415A6B;" d="M365.867,53.439L365.867,53.439c1.067-2.133,1.067-17.067,3.2-22.4c0-2.133,2.133-4.267,3.2-6.4
	c2.133-3.2,6.4-5.333,10.667-4.267c4.267,1.067,11.733,2.133,20.267,0c3.2-1.067,5.333,0,8.533,1.067
	c2.133,1.067,4.267,3.2,5.333,5.333c2.133,3.2,4.267,19.2,5.333,25.6h1.067c0-2.133,0-5.333,3.2-8.533c0,0,1.067-19.2-4.267-29.867
	c-5.333-10.667-25.6-16-33.067-12.8c-8.533,3.2-18.133,9.6-21.333,18.133c0,0-2.133,8.533-2.133,17.067
	C363.733,43.839,366.933,51.306,365.867,53.439z"/>
<path style="fill:#F3F3F3;" d="M421.333,85.439c-5.333,10.667-18.133,21.333-32,30.933c5.333,5.333,9.6,11.733,13.867,18.133
	l27.733-34.133L421.333,85.439"/>
<path style="fill:#344A5E;" d="M372.267,122.772c0,0-6.4,6.4-9.6,8.533c-3.2,3.2-6.4,4.267-6.4,4.267s-9.6,20.267-8.533,35.2
	c2.133,14.933,1.067,48,5.333,62.933c4.267,13.867,4.267,18.133,4.267,24.533c0,6.4-10.667,113.067-10.667,113.067
	s8.533,9.6,13.867-5.333c0,0,9.6-51.2,10.667-82.133s0-46.933,0-46.933s-13.867-43.733-13.867-54.4
	c0-7.467,10.667-34.133,18.133-52.267c4.267-9.6,5.333-20.267,4.267-30.933l0,0l0,0c-1.067,7.467-3.2,14.933-6.4,21.333
	L372.267,122.772z"/>
<path style="fill:#415A6B;" d="M453.333,178.239c0,0,5.333,29.867,7.467,40.533c2.133,10.667,4.267,23.467,6.4,27.733
	c3.2,4.267,1.067,12.8,0,20.267c-1.067,7.467-20.267,43.733-20.267,43.733L435.2,331.839c0,0,18.133,7.467,25.6,23.467
	c0,0,24.533-30.933,33.067-50.133s16-41.6,16-41.6s3.2-5.333,0-16c-3.2-10.667-9.6-58.667-10.667-66.133
	c-1.067-7.467-5.333-22.4-5.333-26.667s-4.267-33.067-16-37.333s-30.933,5.333-30.933,5.333L453.333,178.239z"/>
<path style="fill:#344A5E;" d="M425.6,93.972c0,0,1.067,2.133,0,7.467c-2.133,5.333-30.933,55.467-34.133,66.133
	c-3.2,10.667-17.067,53.333-17.067,53.333l-7.467,22.4c0,0-1.067,39.467,4.267,52.267c6.4,12.8,37.333,52.267,48,54.4
	c11.733,2.133,11.733-16,22.4-19.2c10.667-3.2,25.6,20.267,29.867,25.6c0,0,8.533-12.8,7.467-30.933
	c-1.067-18.133-13.867-50.133-9.6-90.667c5.333-40.533-17.067-57.6-17.067-57.6s2.133-64,26.667-60.8c0,0-40.533-12.8-42.667-13.867
	c-1.067,0-1.067,0-1.067,0S432,97.172,425.6,93.972"/>
<path style="fill:#FFD15C;" d="M439.467,330.772c0,0-4.267,4.267-1.067,12.8s12.8,16,12.8,16s5.333-5.333,6.4-13.867
	s1.067-8.533,1.067-8.533L439.467,330.772z"/>
<path style="fill:#FFFFFF;" d="M437.333,332.906c0,0,5.333,7.467,10.667,12.8c6.4,5.333,9.6,3.2,9.6,3.2
	S446.933,332.906,437.333,332.906"/>
<path style="fill:#415A6B;" d="M510.933,262.506c0,0-6.4,21.333-16,41.6c-9.6,20.267-33.067,50.133-33.067,50.133
	c-8.533-16-25.6-23.467-25.6-23.467L448,310.506c0,0,18.133-37.333,20.267-43.733c2.133-6.4,3.2-14.933,0-20.267
	c-3.2-4.267-5.333-17.067-6.4-27.733c-2.133-10.667-7.467-40.533-7.467-40.533h45.867c0,1.067,0,2.133,0,2.133
	c1.067,7.467,7.467,54.4,10.667,66.133C514.133,257.172,510.933,262.506,510.933,262.506z"/>
<path style="fill:#66C6B9;" d="M490.667,469.439H21.333C9.6,469.439,0,479.039,0,490.772l0,0c0,11.733,9.6,21.333,21.333,21.333
	h469.333c11.733,0,21.333-9.6,21.333-21.333l0,0C512,479.039,502.4,469.439,490.667,469.439z"/>
<g>
</g>
<g>
</g>
<g>
</g>
<g>
</g>
<g>
</g>
<g>
</g>
<g>
</g>
<g>
</g>
<g>
</g>
<g>
</g>
<g>
</g>
<g>
</g>
<g>
</g>
<g>
</g>
<g>
</g>
</svg>
