<?xml version="1.0" encoding="iso-8859-1"?>
<!-- Generator: Adobe Illustrator 19.0.0, SVG Export Plug-In . SVG Version: 6.00 Build 0)  -->
<svg version="1.1" id="Capa_1" xmlns="http://www.w3.org/2000/svg" xmlns:xlink="http://www.w3.org/1999/xlink" x="0px" y="0px"
	 viewBox="0 0 512 512" style="enable-background:new 0 0 512 512;" xml:space="preserve">
<g>
	<path style="fill:#415A6B;" d="M323.683,343.467c0,34.133,23.467,61.867,53.333,61.867c28.8,0,52.267-27.733,53.333-61.867H323.683
		z"/>
	<path style="fill:#415A6B;" d="M447.416,355.2c-3.2-4.267-7.467-7.467-13.867-7.467c-2.133,0-4.267,0-6.4,1.067v8.533
		c2.133-1.067,4.267-1.067,6.4-1.067c2.133,0,5.333,1.067,7.467,3.2c2.133,2.133,1.067,6.4-1.067,11.733
		c-6.4,12.8-26.667,17.067-34.133,18.133v-1.067h-8.533c1.067,4.267,2.133,7.467,2.133,7.467l1.067,2.133h2.133
		c1.067,0,34.133-3.2,43.733-22.4l0,0C449.549,368,450.616,360.533,447.416,355.2z"/>
</g>
<g>
	<path style="fill:#E8EAE9;" d="M323.683,402.133c0,3.2,8.533,12.8,8.533,12.8h89.6c0,0,8.533-9.6,8.533-12.8H323.683z"/>
	<path style="fill:#E8EAE9;" d="M359.949,301.867v19.2c0,2.133-1.067,3.2-3.2,3.2c-2.133,0-3.2-2.133-3.2-3.2v-19.2
		c0-2.133,2.133-3.2,3.2-3.2S359.949,299.733,359.949,301.867z"/>
	<path style="fill:#E8EAE9;" d="M380.216,291.2v19.2c0,2.133-1.067,3.2-3.2,3.2s-3.2-2.133-3.2-3.2v-19.2c0-2.133,2.133-3.2,3.2-3.2
		C379.149,286.933,380.216,289.067,380.216,291.2z"/>
	<path style="fill:#E8EAE9;" d="M401.549,301.867v19.2c0,2.133-1.067,3.2-3.2,3.2c-2.133,0-3.2-2.133-3.2-3.2v-19.2
		c0-2.133,2.133-3.2,3.2-3.2C400.483,298.667,401.549,299.733,401.549,301.867z"/>
</g>
<polygon style="fill:#344A5E;" points="188.216,425.6 169.016,389.333 109.283,389.333 90.083,425.6 "/>
<path style="fill:#415A6B;" d="M254.349,222.933v152.533c0,9.6-7.467,18.133-18.133,18.133H42.083
	c-9.6,0-18.133-7.467-18.133-18.133V222.933c0-9.6,7.467-18.133,18.133-18.133h194.133
	C246.883,204.8,254.349,213.333,254.349,222.933z"/>
<rect x="48.483" y="228.267" style="fill:#8AD7F8;" width="182.4" height="117.333"/>
<circle style="fill:#344A5E;" cx="139.149" cy="370.133" r="8.533"/>
<path style="fill:#F3705A;" d="M495.416,448H17.549c-9.6,0-17.067-8.533-17.067-18.133l0,0c0-9.6,7.467-17.067,17.067-17.067h476.8
	c9.6,0,17.067,7.467,17.067,17.067l0,0C512.483,439.467,505.016,448,495.416,448z"/>
<rect x="41.016" y="448" style="fill:#F05540;" width="429.867" height="64"/>
<path style="fill:#415A6B;" d="M459.149,150.4c-2.133-43.733-38.4-77.867-82.133-77.867s-80,34.133-82.133,77.867H459.149z"/>
<path style="fill:#FFD15C;" d="M346.083,150.4c1.067,16,13.867,29.867,30.933,29.867c17.067,0,29.867-12.8,30.933-29.867
	L346.083,150.4z"/>
<rect x="366.349" style="fill:#415A6B;" width="21.333" height="83.2"/>
<g>
	<path style="fill:#FFD15C;" d="M381.283,195.2v10.667c0,2.133-2.133,4.267-4.267,4.267s-4.267-2.133-4.267-4.267V195.2
		c0-2.133,2.133-4.267,4.267-4.267S381.283,193.067,381.283,195.2z"/>
	<path style="fill:#FFD15C;" d="M404.749,186.667l5.333,8.533c1.067,2.133,0,4.267-1.067,5.333c-2.133,1.067-4.267,0-5.333-1.067
		l-5.333-8.533c-1.067-2.133,0-4.267,1.067-6.4C400.483,184.533,403.683,184.533,404.749,186.667z"/>
	<path style="fill:#FFD15C;" d="M419.683,168.533l8.533,5.333c2.133,1.067,3.2,4.267,1.067,5.333
		c-2.133,1.067-4.267,3.2-5.333,1.067l-8.533-5.333c-2.133-1.067-3.2-4.267-2.133-6.4
		C415.416,167.467,417.549,166.4,419.683,168.533z"/>
	<path style="fill:#FFD15C;" d="M338.616,176l-8.533,5.333c-2.133,1.067-4.267,0-5.333-1.067c-1.067-1.067,0-4.267,1.067-5.333
		l8.533-5.333c2.133-1.067,4.267,0,6.4,1.067C342.883,171.733,340.749,173.867,338.616,176z"/>
	<path style="fill:#FFD15C;" d="M357.816,190.933l-5.333,9.6c-1.067,2.133-4.267,3.2-5.333,1.067
		c-2.133-1.067-3.2-4.267-1.067-5.333l5.333-8.533c1.067-2.133,4.267-3.2,6.4-2.133C357.816,186.667,358.883,188.8,357.816,190.933z
		"/>
</g>
<g>
</g>
<g>
</g>
<g>
</g>
<g>
</g>
<g>
</g>
<g>
</g>
<g>
</g>
<g>
</g>
<g>
</g>
<g>
</g>
<g>
</g>
<g>
</g>
<g>
</g>
<g>
</g>
<g>
</g>
</svg>
