<?xml version="1.0" encoding="iso-8859-1"?>
<!-- Generator: Adobe Illustrator 19.0.0, SVG Export Plug-In . SVG Version: 6.00 Build 0)  -->
<svg version="1.1" id="Capa_1" xmlns="http://www.w3.org/2000/svg" xmlns:xlink="http://www.w3.org/1999/xlink" x="0px" y="0px"
	 viewBox="0 0 512 512" style="enable-background:new 0 0 512 512;" xml:space="preserve">
<path style="fill:#66C6B9;" d="M464,22.4v467.2c0,12.8-9.6,22.4-22.4,22.4H70.4c-12.8,0-22.4-9.6-22.4-22.4V106.667L154.667,0H441.6
	C454.4,0,464,9.6,464,22.4z"/>
<path style="fill:#FFFFFF;" d="M413.867,418.133c0,29.867-24.533,54.4-54.4,54.4c-7.467,0-16-2.133-22.4-4.267
	c-5.333,3.2-11.733,4.267-18.133,4.267c-9.6,0-18.133-3.2-25.6-9.6c-4.267,4.267-10.667,6.4-17.067,6.4
	c-8.533,0-16-3.2-20.267-8.533c-5.333,5.333-12.8,8.533-20.267,8.533c-6.4,0-12.8-2.133-17.067-6.4c-6.4,6.4-16,9.6-25.6,9.6
	c-6.4,0-12.8-2.133-18.133-4.267c-6.4,3.2-13.867,4.267-22.4,4.267c-29.867,0-54.4-24.533-54.4-54.4
	c0-29.867,24.533-53.333,54.4-53.333c22.4,0,41.6,12.8,49.067,32c10.667,2.133,19.2,8.533,24.533,18.133
	c3.2-1.067,6.4-2.133,9.6-2.133c2.133,0,4.267,0,7.467,1.067V332.8h26.667v81.067c2.133-1.067,4.267-1.067,7.467-1.067
	s6.4,1.067,9.6,2.133C292.267,406.4,300.8,400,311.467,396.8c8.533-19.2,27.733-32,49.067-32
	C389.333,363.733,413.867,388.267,413.867,418.133z"/>
<g>
	<path id="SVGCleanerId_0" style="fill:#E8EAE9;" d="M154.667,0L48,106.667h70.4c20.267,0,36.267-16,36.267-36.267V0z"/>
</g>
<g>
	<path id="SVGCleanerId_0_1_" style="fill:#E8EAE9;" d="M154.667,0L48,106.667h70.4c20.267,0,36.267-16,36.267-36.267V0z"/>
</g>
<g>
	<path id="SVGCleanerId_0_2_" style="fill:#E8EAE9;" d="M154.667,0L48,106.667h70.4c20.267,0,36.267-16,36.267-36.267V0z"/>
</g>
<g>
	<rect x="200.533" y="42.667" style="fill:#FFFFFF;" width="230.4" height="23.467"/>
	<rect x="200.533" y="90.667" style="fill:#FFFFFF;" width="230.4" height="23.467"/>
</g>
<polygon style="fill:#E8EAE9;" points="195.2,296.533 217.6,278.4 241.067,304 192,339.2 "/>
<path style="fill:#FFFFFF;" d="M174.933,348.8c-5.333-26.667-7.467-61.867-7.467-68.267c0-10.667,19.2-25.6,19.2-25.6
	s19.2,14.933,19.2,25.6c0,6.4-3.2,41.6-7.467,68.267H174.933z"/>
<path style="fill:#F3705A;" d="M198.4,339.2c-1.067,3.2-1.067,7.467-2.133,10.667h-22.4c-1.067-3.2-1.067-6.4-2.133-10.667H198.4z"
	/>
<polygon style="fill:#E8EAE9;" points="316.8,296.533 294.4,278.4 270.933,304 320,339.2 "/>
<path style="fill:#FFFFFF;" d="M337.067,348.8c5.333-26.667,7.467-61.867,7.467-68.267c0-10.667-19.2-25.6-19.2-25.6
	s-19.2,14.933-19.2,25.6c0,6.4,3.2,41.6,7.467,68.267H337.067z"/>
<path style="fill:#F3705A;" d="M313.6,339.2c1.067,3.2,1.067,7.467,2.133,10.667h22.4c1.067-3.2,1.067-6.4,2.133-10.667H313.6z"/>
<path style="fill:#FFFFFF;" d="M219.733,184.533c-6.4,16-10.667,36.267-10.667,62.933c0,32,4.267,62.933,10.667,85.333h72.533
	c6.4-22.4,10.667-53.333,10.667-85.333c0-26.667-4.267-46.933-10.667-62.933H219.733z"/>
<g>
	<path style="fill:#F3705A;" d="M293.333,186.667C279.467,149.333,256,136.533,256,136.533s-23.467,13.867-37.333,50.133H293.333z"
		/>
	<path style="fill:#F3705A;" d="M216.533,322.133c1.067,3.2,2.133,7.467,3.2,10.667h72.533c1.067-3.2,2.133-6.4,3.2-10.667H216.533z
		"/>
</g>
<circle style="fill:#415A6B;" cx="256" cy="237.867" r="29.867"/>
<circle style="fill:#8AD7F8;" cx="256" cy="237.867" r="22.4"/>
<g>
	<path style="fill:#55C0EB;" d="M264.533,217.6c-5.333,5.333-14.933,14.933-28.8,28.8c0-1.067-1.067-2.133-1.067-3.2l0,0
		l1.067-1.067l13.867-13.867l6.4-6.4l0,0l4.267-4.267l0,0C262.4,216.533,263.467,217.6,264.533,217.6z"/>
	<path style="fill:#55C0EB;" d="M274.133,225.067C265.6,233.6,256,243.2,243.2,254.933c-1.067-1.067-2.133-2.133-4.267-3.2
		c10.667-10.667,23.467-22.4,30.933-30.933C272,222.933,273.067,224,274.133,225.067z"/>
</g>
<g>
</g>
<g>
</g>
<g>
</g>
<g>
</g>
<g>
</g>
<g>
</g>
<g>
</g>
<g>
</g>
<g>
</g>
<g>
</g>
<g>
</g>
<g>
</g>
<g>
</g>
<g>
</g>
<g>
</g>
</svg>
