<?xml version="1.0" encoding="iso-8859-1"?>
<!-- Generator: Adobe Illustrator 19.0.0, SVG Export Plug-In . SVG Version: 6.00 Build 0)  -->
<svg version="1.1" id="Capa_1" xmlns="http://www.w3.org/2000/svg" xmlns:xlink="http://www.w3.org/1999/xlink" x="0px" y="0px"
	 viewBox="0 0 512 512" style="enable-background:new 0 0 512 512;" xml:space="preserve">
<path style="fill:#E8EAE9;" d="M469.867,25.6v341.333c0,14.933-11.733,25.6-25.6,25.6H139.2c-14.933,0-25.6-11.733-25.6-25.6V25.6
	C112.533,11.733,124.267,0,139.2,0h305.067C458.133,0,469.867,11.733,469.867,25.6z"/>
<g>
	<rect x="153.067" y="40.533" style="fill:#ADB3BA;" width="277.333" height="24.533"/>
	<rect x="153.067" y="112" style="fill:#ADB3BA;" width="277.333" height="24.533"/>
	<rect x="153.067" y="183.467" style="fill:#ADB3BA;" width="277.333" height="24.533"/>
	<rect x="153.067" y="254.933" style="fill:#ADB3BA;" width="277.333" height="24.533"/>
	<rect x="153.067" y="326.4" style="fill:#ADB3BA;" width="277.333" height="24.533"/>
</g>
<path style="fill:#F3F3F3;" d="M386.667,166.4v274.133c0,13.867-10.667,24.533-24.533,24.533H73.067
	c-13.867,0-24.533-10.667-24.533-24.533v-323.2c0-13.867,10.667-24.533,24.533-24.533h240v73.6H386.667z"/>
<g>
	<polygon style="fill:#CED6E0;" points="313.067,166.4 386.667,166.4 313.067,92.8 	"/>
	<rect x="85.867" y="137.6" style="fill:#CED6E0;" width="153.6" height="23.467"/>
	<rect x="85.867" y="203.733" style="fill:#CED6E0;" width="262.4" height="23.467"/>
	<rect x="85.867" y="266.667" style="fill:#CED6E0;" width="262.4" height="23.467"/>
	<rect x="85.867" y="334.933" style="fill:#CED6E0;" width="262.4" height="23.467"/>
	<rect x="85.867" y="402.133" style="fill:#CED6E0;" width="262.4" height="23.467"/>
</g>
<path style="fill:#66C6B9;" d="M0.533,289.067V489.6c0,12.8,10.667,22.4,22.4,22.4h466.133c12.8,0,22.4-10.667,22.4-22.4V289.067
	c0-12.8-10.667-22.4-22.4-22.4H22.933C11.2,265.6,0.533,276.267,0.533,289.067z"/>
<rect x="43.2" y="308.267" style="fill:#F3F3F3;" width="426.667" height="161.067"/>
<g>
	<circle style="fill:#66C6B9;" cx="182.933" cy="389.333" r="32"/>
	<circle style="fill:#66C6B9;" cx="319.467" cy="389.333" r="32"/>
</g>
<path style="fill:#415A6B;" d="M331.2,401.067c-4.267,4.267-9.6,5.333-14.933,4.267s-9.6-2.133-14.933-2.133h-99.2
	c-5.333,0-9.6,1.067-14.933,2.133c-5.333,1.067-10.667,0-14.933-4.267c-6.4-6.4-6.4-17.067,0-23.467
	c4.267-4.267,9.6-5.333,13.867-4.267c6.4,1.067,13.867,2.133,20.267,2.133h90.667c6.4,0,13.867-1.067,20.267-2.133
	c5.333-1.067,10.667,1.067,13.867,4.267C337.6,384,337.6,394.667,331.2,401.067z"/>
<g>
</g>
<g>
</g>
<g>
</g>
<g>
</g>
<g>
</g>
<g>
</g>
<g>
</g>
<g>
</g>
<g>
</g>
<g>
</g>
<g>
</g>
<g>
</g>
<g>
</g>
<g>
</g>
<g>
</g>
</svg>
