<?xml version="1.0" encoding="iso-8859-1"?>
<!-- Generator: Adobe Illustrator 19.0.0, SVG Export Plug-In . SVG Version: 6.00 Build 0)  -->
<svg version="1.1" id="Capa_1" xmlns="http://www.w3.org/2000/svg" xmlns:xlink="http://www.w3.org/1999/xlink" x="0px" y="0px"
	 viewBox="0 0 513.067 513.067" style="enable-background:new 0 0 513.067 513.067;" xml:space="preserve">
<path style="fill:#FFD15C;" d="M504,460.8c-11.733-40.533-16-59.733-17.067-67.2c0-6.4,1.067-18.133-8.533-32
	c0,0-7.467-17.067-10.667-27.733c-3.2-11.733-7.467-19.2-11.733-21.333c0,0-17.067-39.467-18.133-44.8
	c-2.133-5.333-5.333-12.8-5.333-12.8l6.4-29.867c0,0-9.6-14.933-23.467-2.133c0,0-2.133-10.667-11.733-11.733
	c-9.6-1.067-14.933,7.467-16,10.667S373.867,249.6,373.867,249.6s-5.333-7.467-8.533-16c-4.267-9.6-22.4-30.933-23.467-32
	c0-2.133-19.2-28.8-28.8-34.133s-22.4-4.267-22.4,8.533c0,0,8.533,18.133,11.733,21.333c2.133,3.2,6.4,10.667,10.667,16
	s19.2,35.2,21.333,40.533c2.133,5.333,16,40.533,16,40.533s-9.6,28.8-10.667,37.333c0,0-4.267,7.467-5.333,11.733
	c-1.067,3.2-13.867,22.4-14.933,25.6c0,0-9.6,11.733-7.467,20.267c1.067,8.533,14.933,29.867,18.133,37.333
	c3.2,7.467,13.867,35.2,34.133,52.267c13.867,11.733,28.8,23.467,39.467,34.133h108.8V483.2
	C509.333,474.667,506.133,467.2,504,460.8z M410.133,305.067c-1.067-3.2-7.467-8.533-10.667-11.733
	c-2.133-2.133-5.333-8.533-5.333-8.533l3.2-14.933c0,0,8.533,19.2,11.733,27.733c3.2,8.533,5.333,16,5.333,17.067
	C413.333,313.6,411.2,307.2,410.133,305.067z"/>
<g>
	<path style="fill:#F7B64C;" d="M414.4,219.733c0,0,0,1.067,1.067,2.133s1.067,3.2,1.067,6.4c0,1.067,0,3.2-1.067,4.267
		c0,1.067-1.067,3.2-2.133,4.267c-2.133,3.2-4.267,5.333-5.333,8.533c-2.133,3.2-4.267,5.333-6.4,8.533
		c-1.067,1.067-2.133,2.133-2.133,4.267c-1.067,1.067-1.067,2.133-2.133,3.2c-1.067,2.133-1.067,7.467-1.067,7.467
		s-1.067-5.333-1.067-8.533c0-1.067,0-1.067,0-2.133s1.067-1.067,1.067-2.133c1.067-1.067,1.067-3.2,2.133-4.267
		c2.133-3.2,4.267-5.333,5.333-8.533c2.133-3.2,4.267-5.333,6.4-8.533c1.067-1.067,2.133-2.133,2.133-4.267
		c0-1.067,1.067-2.133,1.067-3.2c0-2.133,0-4.267,0-6.4C414.4,220.8,414.4,219.733,414.4,219.733z"/>
	<path style="fill:#F7B64C;" d="M349.333,293.333c0,0,0-3.2,2.133-7.467c1.067-2.133,1.067-5.333,3.2-7.467
		c1.067-1.067,1.067-3.2,2.133-4.267c1.067-1.067,2.133-2.133,2.133-4.267c3.2-5.333,7.467-10.667,10.667-13.867
		c3.2-4.267,5.333-6.4,5.333-6.4s-1.067,3.2-3.2,7.467c-2.133,4.267-5.333,9.6-8.533,14.933c-1.067,1.067-2.133,2.133-2.133,4.267
		c-1.067,1.067-2.133,2.133-2.133,4.267c-1.067,2.133-2.133,5.333-3.2,7.467C350.4,291.2,349.333,293.333,349.333,293.333z"/>
	<path style="fill:#F7B64C;" d="M344,325.333c0,0,2.133-4.267,6.4-11.733c1.067-2.133,2.133-4.267,3.2-6.4
		c1.067-2.133,3.2-4.267,5.333-6.4c2.133-2.133,5.333-3.2,8.533-4.267c2.133,0,3.2,0,5.333,0c1.067,0,2.133,0,3.2,0h1.067l0,0l0,0
		c0,0,1.067,0,1.067,1.067c3.2,2.133,6.4,4.267,9.6,7.467c3.2,3.2,5.333,5.333,8.533,8.533c3.2,3.2,5.333,6.4,8.533,9.6
		c3.2,3.2,6.4,6.4,8.533,9.6c6.4,6.4,12.8,12.8,20.267,19.2c3.2,3.2,7.467,6.4,11.733,8.533c4.267,3.2,8.533,5.333,11.733,9.6
		c1.067,1.067,2.133,2.133,2.133,3.2s0,1.067,0,2.133v1.067l0,0l0,0l0,0v1.067c-1.067,3.2-2.133,5.333-3.2,7.467
		c-3.2,4.267-7.467,7.467-12.8,8.533c-5.333,1.067-10.667-1.067-14.933-3.2c-4.267-2.133-8.533-4.267-12.8-7.467
		c-3.2-3.2-6.4-6.4-8.533-10.667c-2.133-4.267-3.2-8.533-5.333-11.733c-2.133-3.2-5.333-5.333-8.533-8.533
		c-3.2-3.2-5.333-5.333-7.467-8.533c-5.333-5.333-8.533-11.733-13.867-13.867c-2.133-1.067-5.333-2.133-7.467-2.133
		c-2.133,0-4.267,1.067-6.4,2.133c-7.467,4.267-11.733,6.4-11.733,6.4s1.067-1.067,3.2-2.133c2.133-1.067,4.267-3.2,8.533-5.333
		c2.133-1.067,4.267-2.133,6.4-3.2c2.133,0,5.333,0,8.533,1.067c3.2,1.067,5.333,3.2,7.467,5.333
		c2.133,2.133,4.267,5.333,7.467,7.467c2.133,3.2,5.333,5.333,7.467,8.533c3.2,2.133,6.4,5.333,8.533,8.533
		c3.2,3.2,4.267,7.467,6.4,11.733c2.133,3.2,5.333,6.4,8.533,9.6c3.2,3.2,7.467,5.333,11.733,6.4c4.267,2.133,8.533,3.2,12.8,2.133
		c4.267,0,8.533-3.2,10.667-6.4c1.067-2.133,2.133-4.267,3.2-5.333v-1.067l0,0l0,0l0,0l0,0v-1.067c0-1.067-1.067-2.133-2.133-2.133
		c-3.2-3.2-6.4-6.4-10.667-9.6s-7.467-6.4-11.733-8.533c-7.467-6.4-13.867-12.8-20.267-19.2c-3.2-3.2-6.4-6.4-8.533-9.6
		c-3.2-3.2-5.333-6.4-8.533-9.6s-5.333-6.4-8.533-8.533c-3.2-3.2-5.333-5.333-8.533-7.467c0,0-1.067,0-1.067-1.067l0,0l0,0H376
		c-1.067,0-2.133,0-2.133,0c-2.133,0-3.2,0-5.333,0c-3.2,0-6.4,1.067-8.533,3.2s-4.267,4.267-5.333,6.4s-3.2,4.267-4.267,6.4
		C347.2,321.067,344,325.333,344,325.333z"/>
	<path style="fill:#F7B64C;" d="M451.733,437.333c-2.133-2.133-12.8-9.6-21.333-14.933c-8.533-6.4-11.733-8.533-11.733-8.533
		c-2.133,1.067-5.333,1.067-7.467,1.067c-8.533,0-16-5.333-20.267-11.733c-3.2-4.267-6.4-8.533-9.6-9.6
		c-5.333-2.133-25.6,14.933-33.067,18.133c-6.4,3.2-10.667,4.267-11.733,5.333c2.133-1.067,32-22.4,34.133-26.667
		c0,0-9.6-4.267-16-5.333c-6.4-1.067-24.533,2.133-25.6,2.133c2.133,0,22.4-5.333,25.6-9.6c3.2-4.267,1.067-11.733-1.067-17.067
		c0,1.067,5.333,8.533,12.8,11.733c8.533,3.2,13.867,4.267,13.867,4.267s4.267,10.667,8.533,16c4.267,5.333,9.6,12.8,13.867,14.933
		c5.333,2.133,17.067,3.2,19.2-3.2c0,1.067-1.067,4.267,2.133,7.467C425.067,416,447.467,434.133,451.733,437.333z"/>
	<path style="fill:#F7B64C;" d="M393.067,285.867c0,0,0,1.067,0,3.2c0,1.067,0,1.067,0,1.067c0,1.067,0,1.067,0,2.133
		c0,1.067,0,2.133-1.067,4.267c0,3.2-1.067,5.333-2.133,7.467c-1.067,2.133-1.067,3.2-1.067,3.2s0-1.067,0-3.2s0-4.267,1.067-7.467
		c0-1.067,0-2.133,1.067-4.267c0-1.067,0-1.067,0-2.133s0-1.067,1.067-2.133C393.067,286.933,393.067,285.867,393.067,285.867z"/>
	<path style="fill:#F7B64C;" d="M408,371.2c1.067,2.133,2.133,4.267,3.2,7.467c1.067,1.067,1.067,2.133,1.067,4.267
		c0,1.067,0,1.067,1.067,2.133c0,1.067,0,1.067,0,2.133v-1.067c2.133,3.2,4.267,5.333,5.333,8.533
		c1.067,1.067,1.067,3.2,2.133,5.333c0,1.067,0,2.133,0,2.133c0,1.067,0,2.133,0,2.133c0-1.067,0-2.133,0-2.133
		c0-1.067,0-1.067-1.067-2.133c-1.067-1.067-1.067-3.2-2.133-4.267c-1.067-3.2-3.2-5.333-5.333-8.533l0,0l0,0c0,0,0-1.067,0-2.133
		c0-1.067,0-1.067,0-2.133l-1.067-4.267C409.067,375.467,408,373.333,408,371.2z"/>
</g>
<path style="fill:#66C6B9;" d="M419.733,176v10.667c0,2.133-2.133,4.267-4.267,4.267c-2.133,0-4.267-2.133-4.267-4.267V176
	c0-2.133,2.133-4.267,4.267-4.267C417.6,171.733,419.733,173.867,419.733,176z"/>
<path style="fill:#F3705A;" d="M393.067,181.333l5.333,9.6c1.067,2.133,0,4.267-1.067,5.333c-2.133,1.067-4.267,0-5.333-1.067
	l-5.333-9.6c-1.067-2.133,0-4.267,1.067-5.333C388.8,178.133,392,179.2,393.067,181.333z"/>
<g>
	<path style="fill:#66C6B9;" d="M372.8,198.4l9.6,5.333c2.133,1.067,3.2,4.267,1.067,5.333c-2.133,1.067-4.267,3.2-5.333,1.067
		l-9.6-5.333c-2.133-1.067-3.2-4.267-1.067-5.333C367.467,198.4,370.667,197.333,372.8,198.4z"/>
	<path style="fill:#66C6B9;" d="M458.133,258.133l-9.6-6.4c-2.133-1.067-3.2-4.267-1.067-5.333c2.133-1.067,4.267-3.2,5.333-1.067
		l9.6,5.333c2.133,1.067,3.2,4.267,1.067,5.333C462.4,258.133,460.267,259.2,458.133,258.133z"/>
</g>
<path style="fill:#F3705A;" d="M466.667,232.533H456c-2.133,0-4.267-2.133-4.267-4.267S453.867,224,456,224h10.667
	c2.133,0,4.267,2.133,4.267,4.267C470.933,230.4,469.867,232.533,466.667,232.533z"/>
<path style="fill:#66C6B9;" d="M462.4,205.867l-9.6,5.333c-2.133,1.067-4.267,0-5.333-1.067c-1.067-2.133,0-4.267,1.067-5.333
	l9.6-5.333c2.133-1.067,4.267,0,5.333,1.067C464.533,202.667,464.533,204.8,462.4,205.867z"/>
<path style="fill:#F3705A;" d="M445.333,185.6L440,195.2c-1.067,2.133-4.267,3.2-5.333,1.067c-2.133-1.067-3.2-4.267-1.067-5.333
	l4.267-9.6c1.067-2.133,4.267-3.2,5.333-1.067C445.333,181.333,446.4,183.467,445.333,185.6z"/>
<g>
	<path style="fill:#344A5E;" d="M122.133,320c2.133,9.6,11.733,17.067,22.4,17.067S164.8,329.6,166.933,320H122.133z"/>
	<rect x="109.333" y="275.2" style="fill:#344A5E;" width="70.4" height="30.933"/>
</g>
<path style="fill:#E8EAE9;" d="M110.4,260.267h69.333c3.2-19.2,12.8-36.267,27.733-50.133c19.2-17.067,29.867-42.667,27.733-71.467
	c-2.133-44.8-39.467-82.133-84.267-84.267c-52.267-3.2-96,38.4-96,89.6c0,25.6,10.667,49.067,27.733,65.067
	C96.533,222.933,107.2,241.067,110.4,260.267z"/>
<g>
	<path style="fill:#ADB3BA;" d="M180.8,149.333c-8.533,0-17.067,2.133-24.533,6.4c-6.4,3.2-14.933,4.267-21.333,0
		c-8.533-4.267-17.067-6.4-25.6-6.4c-1.067,0-3.2,1.067-3.2,3.2c0,1.067,1.067,3.2,3.2,3.2s4.267,0,5.333,0
		C120,209.067,136,236.8,136,237.867l0,0l0,0V259.2h16v-21.333l0,0l0,0c1.067-1.067,16-28.8,21.333-82.133c2.133,0,4.267,0,5.333,0
		l0,0c1.067,0,3.2-1.067,3.2-3.2C184,150.4,181.867,149.333,180.8,149.333z M149.867,231.467c-1.067-1.067-3.2-1.067-4.267-1.067
		c-1.067,0-3.2,1.067-4.267,1.067c-4.267-8.533-14.933-33.067-19.2-75.733c3.2,1.067,7.467,2.133,10.667,4.267
		c4.267,2.133,8.533,3.2,13.867,3.2c4.267,0,9.6-1.067,13.867-3.2c3.2-2.133,6.4-3.2,10.667-4.267
		C164.8,198.4,153.067,224,149.867,231.467z"/>
	<path style="fill:#ADB3BA;" d="M145.6,0c-4.267,0-8.533,3.2-8.533,8.533v21.333c0,4.267,3.2,8.533,8.533,8.533
		c4.267,0,8.533-3.2,8.533-8.533V8.533C153.067,3.2,149.867,0,145.6,0z"/>
	<path style="fill:#ADB3BA;" d="M43.2,42.667c-3.2,3.2-3.2,7.467,0,10.667l14.933,14.933c3.2,3.2,8.533,3.2,11.733,0
		c3.2-3.2,3.2-8.533,0-11.733l-16-13.867C50.667,39.467,46.4,39.467,43.2,42.667z"/>
	<path style="fill:#ADB3BA;" d="M0.533,145.067c0,4.267,3.2,8.533,8.533,8.533H30.4c4.267,0,8.533-3.2,8.533-8.533
		c0-4.267-3.2-8.533-8.533-8.533H9.067C3.733,136.533,0.533,139.733,0.533,145.067z"/>
	<path style="fill:#ADB3BA;" d="M43.2,246.4c3.2,3.2,8.533,3.2,11.733,0l14.933-14.933c3.2-3.2,3.2-8.533,0-11.733
		c-3.2-3.2-8.533-3.2-11.733,0l-14.933,16C40,238.933,40,243.2,43.2,246.4z"/>
	<path style="fill:#ADB3BA;" d="M246.933,246.4c3.2-3.2,3.2-8.533,0-11.733L232,219.733c-3.2-3.2-8.533-3.2-11.733,0
		c-3.2,3.2-3.2,8.533,0,11.733L235.2,246.4C239.467,249.6,243.733,249.6,246.933,246.4z"/>
	<path style="fill:#ADB3BA;" d="M289.6,145.067c0-4.267-3.2-8.533-8.533-8.533h-21.333c-4.267,0-8.533,3.2-8.533,8.533
		c0,4.267,3.2,8.533,8.533,8.533h21.333C286.4,152.533,289.6,149.333,289.6,145.067z"/>
	<path style="fill:#ADB3BA;" d="M246.933,42.667c-3.2-3.2-8.533-3.2-11.733,0L220.267,57.6c-3.2,3.2-3.2,8.533,0,11.733
		c3.2,3.2,8.533,3.2,11.733,0l14.933-16C250.133,50.133,250.133,45.867,246.933,42.667z"/>
</g>
<g>
	<path style="fill:#415A6B;" d="M99.733,267.733L99.733,267.733c0,4.267,3.2,7.467,7.467,7.467h74.667
		c4.267,0,7.467-3.2,7.467-7.467l0,0c0-4.267-3.2-7.467-7.467-7.467H107.2C104,260.267,99.733,263.467,99.733,267.733z"/>
	<path style="fill:#415A6B;" d="M99.733,291.2L99.733,291.2c0,4.267,3.2,7.467,7.467,7.467h74.667c4.267,0,7.467-3.2,7.467-7.467
		l0,0c0-4.267-3.2-7.467-7.467-7.467H107.2C104,283.733,99.733,286.933,99.733,291.2z"/>
	<path style="fill:#415A6B;" d="M99.733,314.667L99.733,314.667c0,4.267,3.2,7.467,7.467,7.467h74.667
		c4.267,0,7.467-3.2,7.467-7.467l0,0c0-4.267-3.2-7.467-7.467-7.467H107.2C104,307.2,99.733,310.4,99.733,314.667z"/>
</g>
<path style="fill:#E8EAE9;" d="M438.933,225.067l-6.4,29.867C418.667,240,438.933,225.067,438.933,225.067z"/>
<g>
</g>
<g>
</g>
<g>
</g>
<g>
</g>
<g>
</g>
<g>
</g>
<g>
</g>
<g>
</g>
<g>
</g>
<g>
</g>
<g>
</g>
<g>
</g>
<g>
</g>
<g>
</g>
<g>
</g>
</svg>
