<?xml version="1.0" encoding="iso-8859-1"?>
<!-- Generator: Adobe Illustrator 19.0.0, SVG Export Plug-In . SVG Version: 6.00 Build 0)  -->
<svg version="1.1" id="Capa_1" xmlns="http://www.w3.org/2000/svg" xmlns:xlink="http://www.w3.org/1999/xlink" x="0px" y="0px"
	 viewBox="0 0 512 512" style="enable-background:new 0 0 512 512;" xml:space="preserve">
<path style="fill:#415A6B;" d="M512,470.4L512,470.4H0l0,0C0,493.867,18.133,512,41.6,512h428.8C493.867,512,512,493.867,512,470.4z
	"/>
<polygon style="fill:#ADB3BA;" points="302.933,491.733 209.067,491.733 198.4,470.4 313.6,470.4 "/>
<path style="fill:#E8EAE9;" d="M483.2,141.867v307.2c0,11.733-9.6,21.333-21.333,21.333h-412.8c-11.733,0-21.333-9.6-21.333-21.333
	v-307.2c0-11.733,9.6-21.333,21.333-21.333h413.867C474.667,121.6,483.2,130.133,483.2,141.867z"/>
<rect x="59.733" y="152.533" style="fill:#55C0EB;" width="392.533" height="286.933"/>
<path style="fill:#F3705A;" d="M512,21.333v139.733c0,11.733-9.6,21.333-21.333,21.333H380.8l-102.4,64v-64h-4.267
	c-11.733,0-21.333-9.6-21.333-21.333V21.333C252.8,9.6,262.4,0,274.133,0h216.533C502.4,0,512,9.6,512,21.333z"/>
<g>
	<path style="fill:#FFFFFF;" d="M476.8,90.667c0,12.8-10.667,23.467-23.467,23.467s-23.467-10.667-23.467-23.467
		S440.533,67.2,453.333,67.2C466.133,68.267,476.8,77.867,476.8,90.667z"/>
	<path style="fill:#FFFFFF;" d="M405.333,90.667c0,12.8-10.667,23.467-23.467,23.467S358.4,103.467,358.4,90.667
		S369.067,67.2,381.867,67.2C394.667,68.267,405.333,77.867,405.333,90.667z"/>
	<path style="fill:#FFFFFF;" d="M333.867,90.667c0,12.8-10.667,23.467-23.467,23.467s-23.467-10.667-23.467-23.467
		S297.6,67.2,310.4,67.2C323.2,68.267,333.867,77.867,333.867,90.667z"/>
</g>
<g>
	<path style="fill:#FFD15C;" d="M146.133,269.867c2.133,9.6,6.4,17.067,10.667,17.067s6.4-8.533,5.333-18.133
		c-1.067-9.6-6.4-17.067-10.667-17.067C146.133,251.733,144,260.267,146.133,269.867z"/>
	
		<ellipse transform="matrix(0.1041 -0.9946 0.9946 0.1041 -45.6035 487.0179)" style="fill:#FFD15C;" cx="247.524" cy="268.822" rx="18.134" ry="7.467"/>
</g>
<path style="fill:#344A5E;" d="M256,233.6c0,34.133-24.533,71.467-54.4,71.467s-54.4-38.4-54.4-71.467
	c0-52.267,24.533-61.867,54.4-61.867S256,181.333,256,233.6z"/>
<polygon style="fill:#CED6E0;" points="236.8,439.467 267.733,341.333 202.667,341.333 142.933,344.533 180.267,439.467 "/>
<polygon style="fill:#F3705A;" points="219.733,439.467 213.333,372.267 192,372.267 185.6,439.467 "/>
<polygon style="fill:#F05540;" points="213.333,372.267 222.933,361.6 202.667,341.333 181.333,361.6 192,372.267 "/>
<path style="fill:#F7B64C;" d="M236.8,269.867V307.2c0,0,1.067,13.867-17.067,23.467c-17.067,9.6-17.067,10.667-17.067,10.667
	s0-1.067-17.067-10.667c-17.067-9.6-17.067-23.467-17.067-23.467v-37.333c0,0-1.067-13.867,17.067-23.467
	c17.067-9.6,17.067-10.667,17.067-10.667s0,1.067,17.067,10.667C236.8,254.933,236.8,269.867,236.8,269.867z"/>
<path style="fill:#FFD15C;" d="M246.4,286.933c0,8.533-9.6,17.067-19.2,24.533c-14.933,10.667-35.2,10.667-50.133,0
	c-9.6-7.467-18.133-16-19.2-24.533c-4.267-23.467-5.333-41.6-4.267-55.467c1.067-9.6,9.6-17.067,20.267-14.933
	c14.933,3.2,37.333,3.2,53.333,0c9.6-2.133,19.2,5.333,20.267,16C247.467,252.8,247.467,276.267,246.4,286.933z"/>
<g>
	<path style="fill:#F3F3F3;" d="M168.533,306.133c0,0-1.067,13.867,16,23.467c17.067,9.6,17.067,10.667,17.067,10.667l-20.267,28.8
		l-21.333-32C160,337.067,160,325.333,168.533,306.133z"/>
	<path style="fill:#F3F3F3;" d="M236.8,306.133c0,0,1.067,13.867-16,23.467c-18.133,10.667-18.133,11.733-18.133,11.733l20.267,28.8
		l22.4-33.067C244.267,337.067,245.333,325.333,236.8,306.133z"/>
</g>
<path style="fill:#415A6B;" d="M115.2,439.467c-1.067-4.267-1.067-7.467-1.067-7.467l25.6-42.667c0,0-34.133-45.867-50.133-40.533
	c-12.8,4.267-14.933,24.533-29.867,90.667H115.2z"/>
<path style="fill:#344A5E;" d="M114.133,439.467h66.133c-6.4-12.8-10.667-21.333-10.667-21.333s-22.4-87.467-19.2-89.6
	c0,0-55.467,18.133-60.8,20.267c0,0,22.4,56.533,24.533,83.2C114.133,432,114.133,435.2,114.133,439.467z"/>
<g>
	<path style="fill:#415A6B;" d="M170.667,439.467h20.267C185.6,419.2,176,377.6,173.867,369.067c-3.2-9.6-7.467-55.467-7.467-55.467
		c-6.4,10.667-14.933,14.933-14.933,14.933l-9.6,21.333l12.8,5.333l-16,11.733C139.733,372.267,157.867,413.867,170.667,439.467z"/>
	<path style="fill:#415A6B;" d="M290.133,439.467H345.6c-14.933-66.133-17.067-86.4-29.867-90.667
		c-16-5.333-50.133,40.533-50.133,40.533L291.2,432C291.2,432,290.133,435.2,290.133,439.467z"/>
</g>
<path style="fill:#344A5E;" d="M225.067,439.467H291.2c0-25.6,14.933-67.2,24.533-90.667c-6.4-2.133-60.8-20.267-60.8-20.267
	c3.2,2.133-19.2,89.6-19.2,89.6S231.467,427.733,225.067,439.467z"/>
<path style="fill:#415A6B;" d="M234.667,439.467c11.733-25.6,30.933-67.2,30.933-72.533L251.733,355.2l12.8-5.333l-9.6-21.333
	c0,0-8.533-4.267-14.933-14.933c-5.333,52.267-4.267,42.667-24.533,125.867L234.667,439.467L234.667,439.467z"/>
<g>
</g>
<g>
</g>
<g>
</g>
<g>
</g>
<g>
</g>
<g>
</g>
<g>
</g>
<g>
</g>
<g>
</g>
<g>
</g>
<g>
</g>
<g>
</g>
<g>
</g>
<g>
</g>
<g>
</g>
</svg>
