<?xml version="1.0" encoding="iso-8859-1"?>
<!-- Generator: Adobe Illustrator 19.0.0, SVG Export Plug-In . SVG Version: 6.00 Build 0)  -->
<svg version="1.1" id="Capa_1" xmlns="http://www.w3.org/2000/svg" xmlns:xlink="http://www.w3.org/1999/xlink" x="0px" y="0px"
	 viewBox="0 0 511.733 511.733" style="enable-background:new 0 0 511.733 511.733;" xml:space="preserve">
<path style="fill:#4ABAA5;" d="M319.867,96.8C319.867,96.8,318.8,96.8,319.867,96.8c-1.067-1.067-2.133-2.133-1.067-2.133
	c1.067-1.067,1.067-2.133,0-3.2c-1.067-2.133-6.4-4.267-12.8-5.333c-1.067,0-1.067-1.067-1.067-2.133
	c0-1.067,1.067-1.067,2.133-1.067c5.333,1.067,12.8,3.2,14.933,6.4c1.067,1.067,1.067,3.2,0,6.4
	C320.933,96.8,319.867,96.8,319.867,96.8z"/>
<path style="fill:#F3705A;" d="M397.733,32.8C370,17.867,343.333,76.533,315.6,61.6c0-19.2,0-38.4,0-58.667
	C343.333,38.133,370-1.333,397.733,32.8z"/>
<g>
	<path style="fill:#FFD15C;" d="M317.733,4v110.933H309.2V4C308.133-1.333,317.733-1.333,317.733,4z"/>
	<path style="fill:#FFD15C;" d="M140.667,293.067c0,0,6.4-8.533,7.467-9.6c1.067-1.067,6.4,0,7.467-1.067
		c1.067-1.067,1.067-3.2,1.067-4.267c0,0,2.133-6.4,4.267-7.467c2.133-1.067,2.133-2.133,2.133-3.2s-3.2,0-3.2,0s2.133-3.2,0-4.267
		l-2.133,2.133c0,0-2.133,0-3.2,1.067c-1.067,0-5.333,2.133-5.333,2.133l-3.2,3.2c-1.067,1.067-3.2,3.2-4.267,5.333
		c-1.067,1.067-2.133,3.2-3.2,4.267c-3.2,3.2-6.4,6.4-6.4,6.4L140.667,293.067"/>
</g>
<g>
	<path style="fill:#E8EAE9;" d="M173.733,382.667c0,0,8.533,5.333,14.933,5.333c6.4,0,6.4,0,6.4,0l-16,16l-7.467-3.2l-7.467-9.6
		L173.733,382.667z"/>
	<polygon style="fill:#E8EAE9;" points="101.2,470.133 98,464.8 103.333,452 117.2,459.467 112.933,474.4 	"/>
</g>
<path style="fill:#F3F3F3;" d="M137.467,282.4l6.4,8.533c0,0-13.867,14.933-20.267,20.267c-6.4,5.333-12.8,7.467-16,9.6
	c-3.2,2.133-26.667,20.267-26.667,20.267L69.2,319.733c0,0,11.733-5.333,18.133-6.4s16-5.333,18.133-6.4
	c2.133-1.067,6.4-7.467,9.6-9.6C118.267,295.2,137.467,282.4,137.467,282.4z"/>
<path style="fill:#FFD15C;" d="M76.667,326.133v-9.6c0,0,2.133-2.133,6.4-2.133c4.267,0,6.4-4.267,5.333-5.333
	c-1.067-1.067,1.067-3.2-1.067-3.2c0,0,1.067-2.133-1.067-2.133L85.2,301.6c0,0,2.133,0,2.133-1.067
	c1.067-1.067,0-2.133-1.067-2.133c-1.067,0-4.267-4.267-4.267-4.267s0-2.133,0-3.2s-5.333-6.4-9.6-8.533
	c-5.333-2.133-12.8,1.067-12.8,1.067l-5.333,25.6c0,0,1.067,11.733,0,13.867S66,330.4,66,330.4S74.533,333.6,76.667,326.133z"/>
<path style="fill:#415A6B;" d="M37.2,404c0,0,27.733-14.933,30.933-24.533s4.267-6.4,4.267-6.4s18.133-12.8,25.6-20.267
	c7.467-7.467,13.867-14.933,25.6-9.6c11.733,5.333,57.6,39.467,57.6,39.467s-7.467,14.933-10.667,17.067
	c0,0-20.267-18.133-25.6-20.267c-4.267-1.067-21.333-9.6-22.4-10.667l-20.267,21.333l23.467-1.067c0,0,9.6,0,11.733,9.6
	c2.133,9.6-11.733,55.467-13.867,60.8c-1.067,6.4-1.067,6.4-1.067,6.4s-7.467,2.133-12.8,0c-5.333-2.133-10.667-6.4-10.667-6.4
	s7.467-19.2,9.6-25.6s3.2-18.133,3.2-18.133s-27.733,11.733-42.667,12.8C53.2,429.6,37.2,409.333,37.2,404z"/>
<path style="fill:#CED6E0;" d="M36.133,405.067c0,0,12.8-1.067,20.267-8.533s13.867-11.733,16-16c3.2-4.267,10.667-26.667,12.8-35.2
	s-8.533-28.8-8.533-28.8l-2.133,11.733c0,0-5.333-8.533-14.933-11.733s-17.067,2.133-22.4,8.533c-5.333,6.4-7.467,39.467-8.533,48
	C28.667,380.533,36.133,405.067,36.133,405.067z"/>
<g>
	<path style="fill:#415A6B;" d="M51.067,312.267c0,0,7.467,1.067,11.733-6.4c0,0-2.133-6.4,0-8.533c2.133-2.133,5.333,1.067,6.4,3.2
		s1.067,2.133,1.067,2.133L72.4,301.6c0,0-3.2-4.267-2.133-7.467c1.067-3.2,3.2-3.2,2.133-5.333c-1.067-2.133,2.133-3.2,2.133-5.333
		c1.067-3.2-2.133-5.333-9.6-6.4C57.467,276,50,280.267,46.8,285.6C44.667,289.867,41.467,299.467,51.067,312.267z"/>
	<path style="fill:#415A6B;" d="M96.933,475.467c0,0,0,3.2,1.067,3.2c1.067,1.067,9.6,3.2,9.6,3.2l1.067-3.2
		c0,0,3.2,1.067,7.467,4.267c5.333,3.2,16,1.067,19.2-5.333c3.2-6.4,0-7.467,0-7.467l-9.6,7.467L96.933,475.467z"/>
</g>
<path style="fill:#344A5E;" d="M98,464.8c0,0,7.467,4.267,13.867,6.4c0,0,0-4.267,4.267-5.333c0,0,3.2,2.133,8.533,4.267
	s10.667,0,11.733,1.067c1.067,1.067-1.067,5.333-3.2,7.467s-8.533,6.4-17.067,3.2c-11.733-8.533-9.6-3.2-19.2-7.467
	C96.933,475.467,93.733,472.267,98,464.8z"/>
<path style="fill:#CED6E0;" d="M483.067,66.933c-6.4,0-70.4-1.067-76.8,0c-4.267,1.067-8.533,3.2-12.8,6.4
	c-5.333,1.067-7.467,2.133-10.667,3.2C376.4,80.8,370,88.267,362.533,87.2c-3.2,0-5.333-1.067-8.533-2.133
	c-6.4-1.067-11.733,1.067-16,5.333c-4.267,4.267-6.4,9.6-11.733,12.8c-4.267,2.133-9.6,1.067-14.933-1.067
	c-4.267-2.133-8.533-4.267-13.867-5.333c-6.4-1.067-12.8,0-19.2,1.067c-11.733,3.2-24.533,10.667-27.733,22.4
	c-1.067,6.4,0,13.867,0,20.267c0,4.267-1.067,7.467-2.133,11.733c-2.133,9.6-5.333,21.333-4.267,32
	c-8.533,10.667-14.933,24.533-17.067,38.4c-3.2,16-2.133,33.067-9.6,46.933C213.2,277.067,206.8,284.533,203.6,292
	c-5.333,12.8-2.133,26.667,0,39.467c1.067,4.267,1.067,9.6,0,13.867c-2.133,7.467-7.467,12.8-9.6,19.2
	c-4.267,9.6-3.2,22.4-11.733,28.8c-4.267,3.2-9.6,4.267-13.867,7.467c-6.4,5.333-6.4,14.933-6.4,23.467c0,2.133,0,4.267-1.067,6.4
	c-1.067,2.133-2.133,3.2-3.2,5.333c-5.333,8.533-4.267,20.267-7.467,29.867c-2.133,5.333-5.333,9.6-8.533,14.933
	c-3.2,5.333-2.133,11.733-3.2,18.133c0,4.267,0,8.533-1.067,12.8H482v-444.8H483.067z"/>
<g>
	<path style="fill:#ADB3BA;" d="M201.467,393.333c-2.133,14.933-16,27.733-18.133,42.667c4.267-1.067,7.467-4.267,9.6-8.533
		c2.133-4.267,3.2-7.467,6.4-11.733c3.2-4.267,7.467-7.467,9.6-11.733c2.133-3.2,3.2-6.4,3.2-9.6c5.333-22.4,6.4-45.867,3.2-68.267
		c0,27.733-14.933,52.267-29.867,74.667c-2.133,3.2-4.267,7.467-2.133,10.667c5.333-5.333,10.667-11.733,16-18.133"/>
	<path style="fill:#ADB3BA;" d="M174.8,489.333c4.267-9.6,9.6-20.267,13.867-29.867c0,2.133,0,3.2,0,5.333
		c12.8-18.133,24.533-36.267,33.067-56.533c1.067,7.467-1.067,14.933-4.267,21.333c-6.4,14.933-13.867,29.867-22.4,44.8
		c4.267,0,8.533-1.067,11.733-2.133c-12.8,14.933-29.867,27.733-48,35.2c3.2-4.267,5.333-8.533,8.533-11.733"/>
</g>
<path style="fill:#415A6B;" d="M205.733,378.4l2.133-2.133c0,0,2.133,0,1.067,3.2c-1.067,3.2-2.133,7.467-8.533,11.733
	c-6.4,4.267-10.667,7.467-11.733,8.533l1.067,2.133l-7.467,9.6c0,0-3.2-1.067-3.2-3.2c0-2.133,0-2.133,0-2.133L205.733,378.4z"/>
<path style="fill:#344A5E;" d="M182.267,385.867c0,0,2.133,2.133,2.133,4.267c0,2.133,2.133,1.067,2.133,1.067
	s-5.333,10.667-14.933,9.6c0,0,2.133,5.333,7.467,7.467c0,0,3.2-6.4,8.533-10.667c5.333-4.267,13.867-8.533,16-13.867
	c3.2-5.333,4.267-7.467,3.2-8.533s-4.267,2.133-8.533,5.333C194,383.733,185.467,384.8,182.267,385.867z"/>
<g>
	<path style="fill:#ADB3BA;" d="M302.8,205.6c-1.067,7.467-2.133,14.933-3.2,22.4c-1.067,10.667-2.133,21.333-6.4,30.933
		c-3.2,8.533-8.533,17.067-12.8,25.6c-5.333,13.867-5.333,29.867-12.8,42.667c-3.2,5.333-8.533,10.667-11.733,16
		c-2.133,4.267-3.2,7.467-5.333,11.733c-3.2,8.533-5.333,16-8.533,24.533c-1.067-14.933,1.067-29.867,6.4-43.733
		c3.2-7.467,6.4-13.867,8.533-21.333c2.133-9.6,1.067-20.267,5.333-30.933c3.2-8.533,10.667-16,12.8-25.6
		c1.067-5.333,1.067-10.667,2.133-16c1.067-4.267,2.133-7.467,3.2-11.733c8.533-22.4,11.733-46.933,8.533-70.4
		c-2.133-11.733-1.067-19.2,4.267-21.333c6.4,10.667,9.6,22.4,10.667,35.2C304.933,185.333,303.867,194.933,302.8,205.6z"/>
	<path style="fill:#ADB3BA;" d="M349.733,237.6c0,3.2-4.267,3.2-7.467,4.267c-4.267,1.067-6.4,4.267-7.467,8.533
		c-1.067,4.267-2.133,8.533-3.2,11.733c-3.2,6.4-8.533,10.667-12.8,16c-6.4,8.533-9.6,19.2-11.733,28.8
		c-6.4,25.6-11.733,50.133-18.133,75.733c-1.067-3.2-3.2-7.467-4.267-10.667c-5.333,11.733-10.667,22.4-18.133,33.067
		c0-13.867,9.6-26.667,17.067-38.4c2.133-3.2,4.267-6.4,5.333-9.6c0-2.133,1.067-3.2,1.067-5.333c9.6-19.2,11.733-42.667,17.067-64
		c4.267-16,11.733-30.933,19.2-46.933c6.4-12.8,12.8-26.667,20.267-38.4c-1.067,10.667,1.067,21.333,5.333,32
		C349.733,236.533,349.733,237.6,349.733,237.6z"/>
	<path style="fill:#ADB3BA;" d="M396.667,215.2C386,232.267,377.467,249.333,370,267.467c-2.133,5.333-4.267,12.8,1.067,17.067
		c1.067,1.067,2.133,1.067,3.2,2.133s1.067,2.133,1.067,3.2c2.133,10.667,2.133,22.4-2.133,33.067
		c-4.267,11.733-11.733,22.4-18.133,33.067c-6.4,10.667-12.8,22.4-12.8,35.2c4.267-9.6,10.667-17.067,18.133-23.467
		c3.2-2.133,6.4-4.267,8.533-6.4c5.333-6.4,5.333-14.933,9.6-21.333c5.333-7.467,13.867-9.6,19.2-17.067
		c4.267-5.333,5.333-13.867,5.333-21.333c0-7.467-1.067-14.933,0-22.4c1.067-4.267,2.133-9.6,3.2-13.867
		c4.267-13.867,21.333-32,19.2-45.867c0-3.2-17.067-2.133-19.2-4.267c-2.133-2.133-5.333-3.2-7.467-1.067L396.667,215.2z"/>
	<path style="fill:#ADB3BA;" d="M266.533,415.733c2.133-5.333,8.533-7.467,13.867-9.6c2.133-1.067,5.333-1.067,5.333,1.067
		c0,1.067,0,1.067,0,2.133c1.067,2.133,4.267,1.067,6.4,1.067c5.333-2.133,18.133,7.467,18.133,10.667
		C306,418.933,299.6,420,295.333,423.2s-7.467,7.467-10.667,10.667c-4.267,4.267-8.533,7.467-12.8,12.8s-5.333,10.667-4.267,17.067
		c1.067,2.133,2.133,4.267,3.2,6.4c3.2,7.467-1.067,17.067,4.267,23.467c-7.467-7.467-9.6-18.133-11.733-28.8
		c-1.067-5.333-2.133-11.733,0-17.067c2.133-7.467,9.6-12.8,7.467-20.267C270.8,423.2,267.6,420,266.533,415.733L266.533,415.733z"
		/>
	<path style="fill:#ADB3BA;" d="M323.067,148c2.133-11.733,5.333-23.467,11.733-34.133c1.067-2.133,3.2-4.267,6.4-4.267
		c0,2.133-1.067,3.2-2.133,5.333c-3.2,6.4-6.4,12.8-8.533,20.267c-2.133,4.267-3.2,9.6-3.2,14.933s0,10.667,3.2,14.933
		c2.133,3.2,5.333,6.4,6.4,10.667c2.133,5.333-1.067,11.733-4.267,17.067c-3.2,5.333-6.4,10.667-5.333,17.067
		c-1.067-3.2-2.133-5.333-1.067-8.533c0-4.267,3.2-7.467,4.267-10.667c1.067-4.267,0-9.6-2.133-13.867s-5.333-8.533-7.467-12.8
		c-5.333-9.6-7.467-21.333-4.267-33.067c0-1.067,1.067-3.2,3.2-3.2c0,7.467,0,13.867,0,21.333c1.067,7.467,2.133,14.933,7.467,19.2
		c-3.2-6.4-3.2-13.867-2.133-21.333"/>
	<path style="fill:#ADB3BA;" d="M312.4,464.8c3.2-11.733,7.467-24.533,11.733-36.267c0,4.267,0,8.533,0,13.867
		c7.467-7.467,6.4-20.267,12.8-27.733c0-1.067,1.067-1.067,2.133-1.067s2.133-1.067,3.2-1.067c3.2-1.067,6.4-3.2,8.533-5.333
		c4.267-3.2,7.467-7.467,10.667-11.733c-1.067,7.467-2.133,14.933-2.133,22.4c0,3.2-1.067,5.333-2.133,8.533
		c-1.067,2.133-2.133,3.2-3.2,5.333c-5.333,8.533-9.6,16-14.933,24.533c6.4-2.133,12.8-5.333,19.2-8.533
		c-5.333,7.467-10.667,14.933-17.067,22.4c-1.067,1.067-3.2,3.2-4.267,4.267c-3.2,2.133-7.467,1.067-10.667,2.133
		c-8.533,0-17.067,2.133-23.467,6.4c4.267-6.4,7.467-11.733,11.733-18.133"/>
	<path style="fill:#ADB3BA;" d="M398.8,111.733c2.133,12.8,0,25.6-5.333,37.333c-5.333,11.733-16,22.4-20.267,35.2
		c-4.267,11.733-3.2,25.6-3.2,38.4c0-7.467,3.2-16,7.467-22.4c4.267-6.4,9.6-12.8,13.867-19.2C402,161.867,402,138.4,402,117.067"/>
</g>
<g>
	<path style="fill:#4ABAA5;" d="M34,460.533L34,460.533c-1.067,0-2.133-1.067-1.067-2.133l2.133-13.867
		c7.467-42.667,24.533-80,51.2-108.8c3.2-3.2,5.333-5.333,8.533-8.533l68.267-65.067l134.4-148.267c1.067-1.067,2.133-2.133,3.2-3.2
		c5.333-5.333,10.667-11.733,17.067-16L318.8,93.6c1.067-1.067,1.067-1.067,2.133,0c1.067,1.067,1.067,1.067,0,2.133l-1.067,1.067
		c-6.4,4.267-10.667,9.6-16,14.933c-1.067,1.067-2.133,2.133-3.2,3.2L165.2,264.267l-68.267,65.067
		c-3.2,3.2-5.333,5.333-8.533,8.533C61.733,365.6,44.667,402.933,37.2,444.533L35.067,458.4
		C35.067,459.467,35.067,460.533,34,460.533z"/>
	<path style="fill:#4ABAA5;" d="M303.867,144.8L303.867,144.8c-2.133-1.067-2.133-2.133-1.067-2.133c1.067-2.133,0-4.267-3.2-12.8
		c-1.067-2.133-2.133-5.333-3.2-8.533c-5.333-11.733,0-23.467,3.2-29.867l1.067-2.133c1.067-2.133,2.133-6.4,6.4-6.4
		c1.067,0,1.067,1.067,1.067,2.133c0,1.067-1.067,1.067-2.133,1.067c0,0-2.133,1.067-3.2,4.267l-1.067,2.133
		c-3.2,6.4-7.467,17.067-3.2,27.733c1.067,3.2,2.133,5.333,3.2,8.533c4.267,9.6,5.333,12.8,3.2,16
		C304.933,144.8,304.933,144.8,303.867,144.8z"/>
</g>
<path style="fill:#FFD15C;" d="M77.733,343.2c0,0,3.2-6.4,4.267-9.6c2.133-4.267,4.267-7.467,4.267-7.467s4.267-1.067,5.333-2.133
	c2.133-1.067,4.267-2.133,4.267-2.133l3.2-1.067c0,0,2.133,2.133,0,4.267C98,327.2,94.8,327.2,94.8,327.2s3.2,0,6.4-1.067
	c3.2-1.067,3.2,3.2,1.067,3.2s-6.4,1.067-6.4,1.067s2.133,1.067,1.067,4.267c0,2.133,0,3.2-3.2,5.333
	c-3.2,2.133-5.333,1.067-7.467,3.2c-2.133,2.133-5.333,10.667-5.333,10.667L77.733,343.2z"/>
<path style="fill:#F3F3F3;" d="M39.333,353.867c0,0-8.533-10.667-3.2-22.4s13.867-9.6,16-6.4c2.133,3.2,8.533,16,8.533,19.2
	c0,3.2,6.4,12.8,6.4,12.8s1.067,0,3.2-4.267c2.133-4.267,6.4-10.667,6.4-10.667s8.533,1.067,9.6,7.467
	c0,0-5.333,23.467-8.533,29.867c-4.267,6.4-11.733,9.6-16,5.333C57.467,380.533,41.467,360.267,39.333,353.867z"/>
<path style="fill:#FFD15C;" d="M163.067,267.467c0,0-4.267-2.133-5.333-2.133c-1.067,0-2.133,1.067-2.133,2.133
	s1.067,1.067,2.133,2.133c1.067,0,3.2,1.067,3.2,1.067s-1.067,2.133-2.133,1.067c-1.067-1.067-4.267-2.133-6.4-2.133
	c0,0-2.133,1.067-1.067,2.133c0,0-2.133,1.067-1.067,3.2c0,0-2.133,2.133-1.067,3.2c2.133,1.067,4.267,2.133,4.267,3.2
	s0,1.067,0,1.067s2.133-1.067,2.133-2.133c0,0,2.133-1.067,1.067-2.133c1.067-1.067,2.133-2.133,1.067-3.2
	c0,0,2.133-1.067,1.067-3.2c0,0,2.133-1.067,3.2-2.133C164.133,268.533,164.133,268.533,163.067,267.467z"/>
<g>
	<polygon style="fill:#ADB3BA;" points="420.133,315.467 390.267,408.267 413.733,393.333 370,502.133 420.133,453.067 
		409.467,449.867 448.933,330.4 430.8,343.2 457.467,221.6 466,293.067 469.2,185.333 436.133,232.267 426.533,311.2 	"/>
	<polygon style="fill:#ADB3BA;" points="483.067,66.933 438.267,88.267 460.667,93.6 402,185.333 452.133,137.333 439.333,185.333 
		483.067,140.533 	"/>
</g>
<g>
</g>
<g>
</g>
<g>
</g>
<g>
</g>
<g>
</g>
<g>
</g>
<g>
</g>
<g>
</g>
<g>
</g>
<g>
</g>
<g>
</g>
<g>
</g>
<g>
</g>
<g>
</g>
<g>
</g>
</svg>
