<?xml version="1.0" encoding="iso-8859-1"?>
<!-- Generator: Adobe Illustrator 19.0.0, SVG Export Plug-In . SVG Version: 6.00 Build 0)  -->
<svg version="1.1" id="Capa_1" xmlns="http://www.w3.org/2000/svg" xmlns:xlink="http://www.w3.org/1999/xlink" x="0px" y="0px"
	 viewBox="0 0 512 512" style="enable-background:new 0 0 512 512;" xml:space="preserve">
<g>
	<polygon style="fill:#344A5E;" points="119.467,512 55.467,512 125.867,373.333 190.933,373.333 	"/>
	<polygon style="fill:#344A5E;" points="392.533,512 456.533,512 386.133,373.333 321.067,373.333 	"/>
</g>
<rect x="24.533" y="50.133" style="fill:#E8EAE9;" width="462.933" height="322.133"/>
<g>
	<path style="fill:#F3705A;" d="M512,24.533L512,24.533C512,10.667,501.333,0,487.467,0H24.533C10.667,0,0,10.667,0,24.533l0,0
		C0,38.4,10.667,49.067,24.533,49.067H486.4C501.333,50.133,512,38.4,512,24.533z"/>
	<path style="fill:#F3705A;" d="M512,371.2L512,371.2c0-13.867-10.667-24.533-24.533-24.533H24.533
		C10.667,346.667,0,357.333,0,371.2l0,0c0,13.867,10.667,24.533,24.533,24.533H486.4C501.333,395.733,512,385.067,512,371.2z"/>
</g>
<path style="fill:#344A5E;" d="M82.133,122.667c2.133,7.467-4.267,14.933-11.733,14.933c-3.2,0-5.333-1.067-7.467-3.2V160
	c0,6.4,5.333,10.667,10.667,10.667h24.533C97.067,172.8,96,174.933,96,178.133c0,7.467,6.4,12.8,14.933,11.733
	c4.267-1.067,7.467-4.267,8.533-8.533s0-8.533-2.133-10.667h24.533c6.4,0,10.667-5.333,10.667-10.667v-24.533
	c2.133,2.133,4.267,3.2,7.467,3.2c7.467,0,12.8-7.467,11.733-14.933c-1.067-4.267-4.267-7.467-8.533-8.533
	c-4.267-1.067-8.533,0-10.667,2.133V92.8c0-6.4-5.333-10.667-10.667-10.667h-24.533c2.133,2.133,3.2,4.267,3.2,7.467
	c0,7.467-7.467,13.867-14.933,11.733c-5.333-1.067-8.533-4.267-9.6-8.533c-1.067-4.267,0-8.533,2.133-10.667H73.6
	c-6.4,0-10.667,5.333-10.667,10.667v24.533c3.2-2.133,6.4-3.2,10.667-2.133C77.867,116.267,81.067,119.467,82.133,122.667z"/>
<path style="fill:#66C6B9;" d="M432,108.8l-23.467,38.4l-5.333-14.933C286.933,176,262.4,295.467,261.333,296.533L240,292.267
	c1.067-5.333,27.733-131.2,154.667-180.267l-5.333-14.933L432,108.8z"/>
<polygon style="fill:#FFD15C;" points="302.933,93.867 286.933,110.933 302.933,128 288,142.933 270.933,125.867 254.933,142.933 
	238.933,128 256,110.933 238.933,93.867 254.933,78.933 270.933,96 288,78.933 "/>
<polygon style="fill:#F3705A;" points="439.467,205.867 456.533,222.933 441.6,237.867 424.533,220.8 407.467,237.867 
	392.533,222.933 409.6,205.867 392.533,188.8 407.467,173.867 424.533,190.933 441.6,173.867 456.533,188.8 "/>
<path style="fill:#55C0EB;" d="M336,236.8c-19.2,0-35.2,16-35.2,35.2c0,19.2,16,35.2,35.2,35.2c19.2,0,35.2-16,35.2-35.2
	C371.2,252.8,355.2,236.8,336,236.8z M336,286.933c-7.467,0-13.867-6.4-13.867-13.867c0-7.467,6.4-13.867,13.867-13.867
	c7.467,0,13.867,6.4,13.867,13.867S343.467,286.933,336,286.933z"/>
<g>
	<rect x="62.933" y="230.4" style="fill:#ADB3BA;" width="137.6" height="21.333"/>
	<rect x="62.933" y="285.867" style="fill:#ADB3BA;" width="86.4" height="21.333"/>
</g>
<g>
</g>
<g>
</g>
<g>
</g>
<g>
</g>
<g>
</g>
<g>
</g>
<g>
</g>
<g>
</g>
<g>
</g>
<g>
</g>
<g>
</g>
<g>
</g>
<g>
</g>
<g>
</g>
<g>
</g>
</svg>
