<?xml version="1.0" encoding="iso-8859-1"?>
<!-- Generator: Adobe Illustrator 19.0.0, SVG Export Plug-In . SVG Version: 6.00 Build 0)  -->
<svg version="1.1" id="Capa_1" xmlns="http://www.w3.org/2000/svg" xmlns:xlink="http://www.w3.org/1999/xlink" x="0px" y="0px"
	 viewBox="0 0 514.133 514.133" style="enable-background:new 0 0 514.133 514.133;" xml:space="preserve">
<path style="fill:#344A5E;" d="M58.667,266.667l1.067-21.333C60.8,231.467,70.4,218.667,83.2,214.4
	c11.733-4.267,24.533-8.533,27.733-9.6c1.067,0,97.067-3.2,97.067-3.2l42.667,22.4c0,0,6.4,0,6.4,21.333c0,4.267,0,11.733,0,21.333
	C257.067,266.667,58.667,266.667,58.667,266.667z"/>
<path style="fill:#CED6E0;" d="M126.933,266.667c-5.333-28.8-9.6-59.733-9.6-59.733l12.8-16l3.2,3.2l19.2,9.6l1.067,1.067
	l30.933-5.333c0,0,9.6,4.267,11.733,24.533c1.067,11.733-6.4,27.733-14.933,41.6h-54.4L126.933,266.667L126.933,266.667z"/>
<path style="fill:#FFD15C;" d="M189.867,208h-53.333l-2.133-25.6c0,0-2.133-5.333-5.333-14.933c-2.133-9.6,0-24.533,0-24.533
	S115.2,105.6,144,98.133c28.8-6.4,49.067,21.333,49.067,21.333l-5.333,41.6c0,0-2.133,5.333-4.267,9.6L189.867,208z"/>
<path style="fill:#F7B64C;" d="M134.4,182.4c0,0-1.067-3.2-3.2-7.467c0,0,21.333,42.667,53.333-3.2c0,0-3.2,21.333-24.533,36.267
	h-23.467L134.4,182.4z"/>
<path style="fill:#F3705A;" d="M163.2,266.667h-27.733c5.333-17.067,19.2-45.867,19.2-45.867l1.067-6.4h6.4l1.067,6.4
	C163.2,220.8,164.267,254.933,163.2,266.667z"/>
<path style="fill:#F05540;" d="M166.4,204.8l-5.333,1.067h-6.4l-5.333,5.333c0,0,4.267,4.267,5.333,9.6c0-2.133,9.6-2.133,9.6,0
	c0,0,5.333-5.333,7.467-6.4C173.867,213.333,166.4,204.8,166.4,204.8z"/>
<g>
	
		<ellipse transform="matrix(0.9694 0.2455 -0.2455 0.9694 42.5172 -42.2292)" style="fill:#FFD15C;" cx="190.64" cy="149.422" rx="5.333" ry="13.867"/>
	
		<ellipse transform="matrix(-0.9999 -0.0116 0.0116 -0.9999 260.6984 289.5129)" style="fill:#FFD15C;" cx="131.186" cy="144.003" rx="5.333" ry="13.866"/>
</g>
<g>
	<path style="fill:#415A6B;" d="M190.933,145.067c0,1.067,0,2.133-1.067,4.267h-3.2c0-2.133,0-4.267,0-5.333
		c-1.067-7.467-4.267-10.667-2.133-17.067c2.133-6.4,1.067-8.533-1.067-9.6c0,0-8.533,3.2-17.067-2.133
		c-8.533-5.333-9.6-9.6-14.933-9.6c-4.267,0-12.8,1.067-14.933,4.267c-2.133,3.2-3.2,9.6-3.2,16c0,5.333-2.133,19.2-3.2,23.467H128
		c0-2.133,0-8.533-1.067-12.8c-12.8-42.667,16-59.733,42.667-56.533c28.8,3.2,34.133,34.133,32,42.667
		C199.467,131.2,192,142.933,190.933,145.067z"/>
	<path style="fill:#415A6B;" d="M129.067,253.867c1.067,2.133,2.133,7.467,3.2,12.8H118.4c-3.2-5.333-6.4-10.667-8.533-14.933
		c-9.6-17.067-14.933-32-14.933-32l10.667-6.4l-3.2-2.133c0,0,25.6-27.733,32-27.733c0,0-5.333,12.8-6.4,22.4
		C125.867,214.4,126.933,244.267,129.067,253.867z"/>
</g>
<g>
	<path style="fill:#F3F3F3;" d="M134.4,182.4c0,0,1.067,4.267,4.267,9.6c3.2,5.333,14.933,13.867,14.933,13.867l-12.8,23.467
		c0,0-4.267-9.6-8.533-16c-4.267-6.4-3.2-16-2.133-20.267S134.4,182.4,134.4,182.4z"/>
	<path style="fill:#F3F3F3;" d="M161.067,205.867c0,0,3.2,1.067,6.4,7.467c3.2,6.4,7.467,20.267,7.467,20.267
		s14.933-25.6,18.133-29.867c3.2-4.267,2.133-10.667,2.133-10.667S192,192,189.867,185.6c-2.133-6.4-4.267-10.667-4.267-10.667
		s0,10.667-5.333,17.067C174.933,198.4,161.067,205.867,161.067,205.867z"/>
</g>
<g>
	<path style="fill:#415A6B;" d="M187.733,266.667h-20.267c2.133-5.333,4.267-10.667,6.4-14.933
		c6.4-18.133,14.933-68.267,14.933-68.267c3.2-1.067,19.2,17.067,21.333,20.267c2.133,3.2,4.267,9.6,4.267,9.6l-6.4,3.2
		l10.667,5.333C214.4,231.467,201.6,249.6,187.733,266.667z"/>
	<path style="fill:#415A6B;" d="M496,169.6c0-2.133,0-4.267,0-6.4c4.267-2.133,13.867-4.267,17.067-6.4L512,150.4
		c-3.2-1.067-13.867-2.133-18.133-2.133c-1.067-4.267-2.133-7.467-3.2-11.733c3.2-3.2,11.733-9.6,13.867-11.733l-2.133-5.333
		c-3.2,0-13.867,3.2-18.133,4.267c-2.133-3.2-4.267-6.4-6.4-9.6c2.133-4.267,7.467-12.8,9.6-16l-4.267-4.267
		c-3.2,1.067-11.733,7.467-16,9.6c-3.2-2.133-6.4-4.267-9.6-6.4c1.067-4.267,3.2-14.933,3.2-18.133l-5.333-2.133
		c-2.133,2.133-8.533,10.667-11.733,14.933c-3.2-1.067-7.467-2.133-11.733-3.2c-1.067-4.267-2.133-14.933-3.2-18.133h-6.4
		c-1.067,3.2-4.267,12.8-5.333,17.067c-4.267,0-7.467,0-11.733,1.067c-2.133-4.267-7.467-12.8-9.6-16l-6.4,2.133
		c0,3.2,1.067,13.867,1.067,18.133c-3.2,1.067-7.467,3.2-10.667,5.333c-3.2-3.2-10.667-9.6-13.867-11.733l-5.333,3.2
		c1.067,3.2,5.333,12.8,6.4,17.067c-3.2,2.133-5.333,5.333-8.533,8.533c-4.267-1.067-13.867-5.333-17.067-6.4l-3.2,5.333
		c2.133,3.2,9.6,9.6,12.8,13.867c-2.133,3.2-3.2,7.467-5.333,10.667c-4.267,0-14.933-1.067-18.133,0l-2.133,6.4
		c3.2,2.133,11.733,6.4,16,8.533c0,2.133-1.067,4.267-1.067,5.333c0,2.133,0,4.267,0,6.4c-4.267,2.133-13.867,4.267-17.067,6.4
		l1.067,6.4c3.2,1.067,13.867,2.133,18.133,2.133c1.067,4.267,2.133,7.467,3.2,11.733c-3.2,3.2-11.733,9.6-13.867,11.733l3.2,5.333
		c3.2,0,13.867-3.2,18.133-4.267c2.133,3.2,4.267,6.4,6.4,9.6c-2.133,4.267-7.467,12.8-9.6,16l4.267,4.267
		c3.2-1.067,11.733-7.467,16-9.6c3.2,2.133,6.4,4.267,9.6,6.4c-1.067,4.267-3.2,14.933-3.2,18.133l5.333,2.133
		C384,249.6,390.4,241.067,393.6,236.8c3.2,1.067,7.467,2.133,11.733,3.2c1.067,4.267,2.133,14.933,3.2,18.133h6.4
		c1.067-3.2,4.267-12.8,5.333-17.067c4.267,0,7.467,0,11.733-1.067c2.133,4.267,7.467,12.8,9.6,16l6.4-2.133
		c0-3.2-1.067-13.867-1.067-18.133c3.2-1.067,7.467-3.2,10.667-5.333c3.2,3.2,10.667,9.6,13.867,11.733l5.333-3.2
		c-1.067-3.2-5.333-12.8-6.4-17.067c3.2-2.133,5.333-5.333,8.533-8.533c4.267,1.067,13.867,5.333,17.067,6.4l3.2-5.333
		c-2.133-3.2-9.6-9.6-12.8-13.867c2.133-3.2,3.2-7.467,5.333-10.667c4.267,0,14.933,1.067,18.133,0l2.133-6.4
		c-3.2-2.133-11.733-6.4-16-8.533C494.933,172.8,494.933,171.733,496,169.6z M465.067,179.2l-16-4.267
		c1.067-3.2,2.133-5.333,2.133-8.533c1.067-16-9.6-30.933-24.533-34.133l6.4-14.933c21.333,6.4,36.267,27.733,34.133,51.2
		C468.267,171.733,467.2,174.933,465.067,179.2z M420.267,140.8c12.8,1.067,21.333,11.733,20.267,24.533S428.8,186.667,416,185.6
		c-12.8-1.067-21.333-11.733-20.267-24.533S408.533,139.733,420.267,140.8z M410.667,114.133l3.2,16
		C398.933,132.267,387.2,144,386.133,160c0,3.2,0,5.333,0,8.533l-16,2.133c-1.067-4.267-1.067-7.467-1.067-11.733
		C371.2,135.467,389.333,118.4,410.667,114.133z M414.933,212.267c-14.933-1.067-26.667-8.533-35.2-19.2l11.733-11.733
		C396.8,188.8,405.333,195.2,416,195.2c9.6,1.067,19.2-3.2,25.6-8.533l9.6,12.8C441.6,209.067,428.8,213.333,414.933,212.267z"/>
</g>
<path style="fill:#66C6B9;" d="M302.933,173.867c7.467-2.133,16-5.333,22.4-8.533V153.6c-6.4-2.133-14.933-5.333-22.4-7.467
	c0-3.2-1.067-6.4-1.067-9.6c6.4-4.267,13.867-9.6,19.2-13.867l-3.2-10.667c-6.4-1.067-16-1.067-23.467-1.067
	c-1.067-3.2-2.133-5.333-3.2-8.533c5.333-5.333,10.667-12.8,14.933-18.133l-6.4-10.667c-6.4,1.067-16,3.2-23.467,4.267
	c-2.133-2.133-3.2-5.333-5.333-7.467c3.2-6.4,7.467-14.933,9.6-21.333L272,41.6c-6.4,3.2-13.867,6.4-21.333,10.667
	c-2.133-2.133-5.333-3.2-7.467-5.333c1.067-8.533,3.2-17.067,3.2-23.467l-9.6-5.333c-5.333,4.267-11.733,10.667-18.133,16
	c-3.2-1.067-5.333-2.133-8.533-3.2c0-7.467-1.067-17.067-2.133-23.467l-10.667-3.2c-4.267,5.333-9.6,12.8-12.8,20.267
	c-3.2,0-6.4-1.067-9.6-1.067c-3.2-8.533-6.4-17.067-8.533-23.467h-11.733c-2.133,6.4-5.333,14.933-7.467,22.4
	c-3.2,0-6.4,1.067-9.6,1.067c-4.267-6.4-9.6-13.867-13.867-19.2l-10.667,3.2c-1.067,6.4-1.067,16-1.067,23.467
	c-3.2,1.067-5.333,2.133-8.533,3.2c-6.4-4.267-13.867-9.6-19.2-13.867l-9.6,5.333c1.067,7.467,3.2,16,5.333,23.467
	c-3.2,2.133-5.333,4.267-7.467,6.4c-7.467-4.267-16-7.467-22.4-9.6l-7.467,7.467c3.2,6.4,6.4,13.867,10.667,21.333
	C51.2,76.8,49.067,80,48,82.133c-7.467-1.067-17.067-3.2-23.467-3.2l-5.333,9.6c4.267,5.333,10.667,11.733,16,18.133
	c-1.067,3.2-2.133,5.333-3.2,8.533c-7.467,0-17.067,1.067-23.467,2.133L5.333,128c5.333,4.267,12.8,8.533,19.2,12.8
	c0,3.2-1.067,6.4-1.067,9.6c-7.467,2.133-16,5.333-22.4,8.533l0,11.733c6.4,2.133,14.933,5.333,22.4,7.467
	c0,3.2,1.067,6.4,1.067,9.6c-6.4,4.267-13.867,9.6-19.2,13.867l3.2,10.667c7.467,1.067,16,1.067,23.467,1.067
	c1.067,3.2,2.133,5.333,4.267,8.533C30.933,227.2,25.6,234.667,21.333,240l6.4,9.6c6.4-1.067,16-3.2,23.467-4.267
	c2.133,2.133,4.267,5.333,5.333,7.467c-3.2,6.4-7.467,14.933-9.6,21.333l7.467,8.533c6.4-3.2,13.867-6.4,21.333-10.667
	c2.133,2.133,5.333,4.267,7.467,5.333C82.133,284.8,80,294.4,78.933,300.8l9.6,5.333c5.333-4.267,11.733-10.667,18.133-16
	c3.2,1.067,5.333,2.133,8.533,3.2c0,7.467,1.067,17.067,2.133,23.467L128,320c4.267-5.333,8.533-12.8,12.8-19.2
	c3.2,0,6.4,1.067,9.6,1.067c2.133,7.467,5.333,16,8.533,22.4h11.733c2.133-6.4,5.333-14.933,7.467-22.4c3.2,0,6.4-1.067,9.6-1.067
	c4.267,6.4,9.6,13.867,13.867,19.2l10.667-3.2c1.067-6.4,1.067-16,1.067-23.467c3.2-1.067,5.333-2.133,8.533-4.267
	C227.2,294.4,234.667,299.733,240,304l9.6-6.4c-1.067-6.4-3.2-16-4.267-23.467c2.133-2.133,5.333-3.2,7.467-5.333
	c6.4,3.2,14.933,7.467,21.333,9.6l7.467-8.533c-3.2-6.4-6.4-13.867-10.667-21.333c2.133-2.133,4.267-5.333,5.333-7.467
	c7.467,1.067,17.067,3.2,23.467,4.267l5.333-9.6C300.8,230.4,294.4,224,289.067,217.6c1.067-3.2,2.133-5.333,3.2-8.533
	c7.467,0,17.067-1.067,23.467-2.133l3.2-10.667c-5.333-4.267-12.8-9.6-19.2-12.8C302.933,179.2,302.933,176,302.933,173.867z
	 M165.333,265.6c-57.6,1.067-104.533-44.8-105.6-101.333c-1.067-57.6,44.8-104.533,101.333-105.6
	c57.6-1.067,104.533,44.8,105.6,101.333C267.733,217.6,221.867,264.533,165.333,265.6z"/>
<g>
	<path style="fill:#F05540;" d="M321.067,468.267c1.067-24.533-3.2-49.067-25.6-52.267c0,0-8.533,5.333-12.8,26.667
		c-1.067,4.267-1.067,7.467-2.133,11.733C293.333,461.867,306.133,466.133,321.067,468.267z"/>
	<path style="fill:#F05540;" d="M419.2,455.467c-2.133-16-7.467-29.867-7.467-29.867c-20.267,7.467-26.667,24.533-28.8,41.6
		C396.8,464,408.533,460.8,419.2,455.467z"/>
</g>
<g>
	<path style="fill:#415A6B;" d="M349.867,376.533c0,17.067-5.333,30.933-10.667,30.933c-17.067,0-2.133-18.133-10.667-30.933
		c0-17.067,5.333-30.933,10.667-30.933C345.6,345.6,349.867,359.467,349.867,376.533z"/>
	<path style="fill:#415A6B;" d="M386.133,377.6c0,16-4.267,41.6-10.667,41.6S364.8,393.6,364.8,377.6s4.267-28.8,10.667-28.8
		S386.133,361.6,386.133,377.6z"/>
</g>
<path style="fill:#FFD15C;" d="M375.467,345.6c0,0,6.4,26.667-3.2,44.8c0,0-4.267,13.867,5.333,20.267l-23.467,58.667l-25.6-59.733
	c0,0,10.667-10.667,10.667-22.4c0,0-7.467-22.4-6.4-38.4c1.067-16,21.333-21.333,24.533-21.333
	C360.533,327.467,375.467,345.6,375.467,345.6z"/>
<path style="fill:#F7B64C;" d="M372.267,389.333c-1.067,2.133-10.667,9.6-19.2,8.533c-8.533-1.067-14.933-12.8-14.933-12.8
	c0,11.733-10.667,22.4-10.667,22.4l0,0c4.267,0,10.667,0,19.2-2.133C368,402.133,372.267,389.333,372.267,389.333z"/>
<path style="fill:#F3705A;" d="M306.133,444.8c0,5.333,0,11.733-1.067,20.267c8.533,2.133,17.067,4.267,26.667,4.267
	c19.2,0,40.533,0,60.8-5.333c3.2-18.133,8.533-34.133,18.133-39.467c0,0-7.467-6.4-17.067-10.667
	c-9.6-3.2-21.333-10.667-22.4-11.733c0,16-19.2,28.8-19.2,28.8s-19.2-12.8-19.2-28.8h-1.067c0,0-5.333,3.2-13.867,5.333
	c-9.6,2.133-20.267,7.467-23.467,8.533C295.467,416,307.2,425.6,306.133,444.8z"/>
<path style="fill:#415A6B;" d="M314.667,448c0,7.467-2.133,13.867-2.133,13.867s11.733-7.467,12.8-21.333c0,0,1.067,9.6,0,14.933
	c-1.067,5.333-3.2,6.4-3.2,10.667c0,0,3.2-7.467,6.4-12.8s5.333-20.267,4.267-25.6c-1.067-5.333,11.733-12.8,11.733-23.467
	c0-9.6-3.2-16-5.333-24.533c-2.133-5.333-3.2-11.733-4.267-16c0-6.4,1.067-13.867,4.267-19.2c0-1.067,0-1.067,1.067-2.133
	c1.067-2.133,2.133-3.2,3.2-4.267c1.067-1.067,1.067-1.067,2.133-1.067c4.267-2.133,8.533-2.133,8.533-2.133
	s5.333-1.067,10.667,2.133c1.067,0,2.133,1.067,3.2,2.133c2.133,1.067,4.267,4.267,5.333,6.4c2.133,2.133,3.2,5.333,3.2,7.467
	c3.2,6.4,3.2,14.933,3.2,21.333c0,7.467-2.133,16-2.133,23.467c0,2.133,0,5.333,0,7.467v1.067
	c2.133,8.533-5.333,13.867-4.267,20.267c1.067,5.333,10.667,11.733,9.6,25.6c-1.067,10.667,1.067,14.933,3.2,16c0,0,0,0,1.067,0
	c-1.067-2.133-2.133-10.667-1.067-18.133c1.067-8.533-1.067-14.933-1.067-14.933s5.333,3.2,3.2,9.6
	c-1.067,6.4-2.133,10.667-1.067,12.8c0,0,0-7.467,3.2-10.667c3.2-3.2,5.333-5.333,5.333-10.667s0-8.533,0-8.533s4.267,9.6,3.2,16
	c1.067-2.133,2.133-7.467,0-13.867c-2.133-8.533,2.133-13.867,2.133-19.2c0-6.4-4.267-12.8-6.4-19.2
	c-2.133-6.4,2.133-25.6-9.6-50.133c-11.733-24.533-19.2-23.467-28.8-23.467c-9.6-1.067-17.067,0-27.733,16
	c-10.667,17.067-12.8,36.267-11.733,43.733c1.067,7.467,2.133,12.8-2.133,20.267c-4.267,7.467-6.4,14.933-4.267,25.6
	C312.533,434.133,314.667,439.467,314.667,448z"/>
<path style="fill:#8AD7F8;" d="M486.4,388.267v-9.6c-5.333-2.133-11.733-5.333-18.133-7.467c0-2.133,0-5.333-1.067-7.467
	c5.333-3.2,11.733-7.467,16-10.667l-2.133-9.6c-5.333-1.067-12.8-2.133-19.2-2.133c-1.067-2.133-2.133-5.333-3.2-7.467
	c4.267-4.267,9.6-10.667,12.8-13.867l-4.267-8.533c-5.333,1.067-12.8,2.133-19.2,3.2c-1.067-2.133-3.2-4.267-4.267-6.4
	c3.2-5.333,6.4-12.8,8.533-17.067l-6.4-6.4c-5.333,2.133-11.733,5.333-17.067,7.467c-2.133-2.133-4.267-3.2-6.4-5.333
	c1.067-6.4,3.2-13.867,4.267-19.2l-8.533-5.333c-4.267,3.2-10.667,7.467-14.933,11.733c-2.133-1.067-4.267-2.133-7.467-3.2
	c0-6.4-1.067-13.867-1.067-19.2l-8.533-3.2c-3.2,4.267-7.467,10.667-11.733,16c-2.133,0-5.333-1.067-7.467-1.067
	c-2.133-6.4-4.267-12.8-6.4-18.133h-9.6c-2.133,5.333-5.333,11.733-7.467,18.133c-2.133,0-5.333,0-7.467,1.067
	c-3.2-5.333-7.467-11.733-10.667-16l-9.6,2.133c-1.067,5.333-2.133,12.8-2.133,19.2c-2.133,1.067-5.333,2.133-7.467,3.2
	c-4.267-4.267-10.667-9.6-13.867-12.8l-8.533,4.267c1.067,5.333,2.133,12.8,3.2,19.2c-2.133,1.067-4.267,3.2-6.4,4.267
	c-5.333-3.2-12.8-6.4-17.067-8.533l-6.4,6.4c2.133,5.333,5.333,11.733,7.467,17.067c-2.133,2.133-3.2,4.267-5.333,6.4
	c-6.4-1.067-13.867-3.2-19.2-4.267l-5.333,8.533c3.2,4.267,7.467,10.667,11.733,14.933c-1.067,2.133-2.133,4.267-3.2,7.467
	c-6.4,0-13.867,1.067-19.2,1.067l-3.2,8.533c4.267,3.2,10.667,7.467,16,11.733c0,2.133-1.067,5.333-1.067,7.467
	c-6.4,2.133-12.8,4.267-18.133,6.4v9.6c5.333,2.133,11.733,5.333,18.133,7.467c0,2.133,0,5.333,1.067,7.467
	c-5.333,3.2-11.733,7.467-16,10.667l2.133,9.6c5.333,1.067,12.8,2.133,19.2,2.133c1.067,2.133,2.133,5.333,3.2,7.467
	c-4.267,4.267-9.6,10.667-12.8,13.867L236.8,448c5.333-1.067,12.8-2.133,19.2-3.2c1.067,2.133,3.2,4.267,4.267,6.4
	c-3.2,5.333-6.4,12.8-8.533,17.067l6.4,6.4c5.333-2.133,11.733-5.333,18.133-7.467c2.133,2.133,4.267,3.2,6.4,5.333
	c-1.067,6.4-3.2,13.867-4.267,19.2l8.533,5.333c4.267-3.2,10.667-7.467,14.933-11.733c2.133,1.067,4.267,2.133,7.467,3.2
	c0,6.4,1.067,13.867,1.067,19.2l8.533,3.2c3.2-4.267,7.467-10.667,11.733-16c2.133,0,5.333,1.067,7.467,1.067
	c2.133,6.4,4.267,12.8,6.4,18.133h9.6c2.133-5.333,5.333-11.733,7.467-18.133c2.133,0,5.333,0,7.467-1.067
	c3.2,5.333,7.467,11.733,10.667,16l9.6-2.133c1.067-5.333,2.133-12.8,2.133-19.2c2.133-1.067,5.333-2.133,7.467-3.2
	c4.267,4.267,10.667,9.6,13.867,12.8l8.533-4.267c-1.067-5.333-2.133-12.8-3.2-19.2c2.133-1.067,4.267-3.2,6.4-4.267
	c5.333,3.2,12.8,6.4,17.067,8.533l6.4-6.4c-2.133-5.333-5.333-11.733-7.467-17.067c2.133-2.133,3.2-4.267,5.333-6.4
	c6.4,1.067,13.867,3.2,19.2,4.267l5.333-8.533c-3.2-4.267-7.467-10.667-11.733-14.933c1.067-2.133,2.133-4.267,3.2-7.467
	c6.4,0,13.867-1.067,19.2-1.067l3.2-8.533c-4.267-3.2-10.667-7.467-16-11.733c0-2.133,1.067-5.333,1.067-7.467
	C474.667,392.533,481.067,389.333,486.4,388.267z M270.933,376.533c1.067-45.867,39.467-82.133,86.4-81.067
	c45.867,1.067,82.133,39.467,81.067,86.4c-1.067,45.867-39.467,82.133-86.4,81.067S268.8,422.4,270.933,376.533z"/>
<path style="fill:#55C0EB;" d="M357.333,279.467c-55.467-2.133-101.333,41.6-103.467,97.067
	C251.733,432,295.467,477.867,350.933,480c55.467,2.133,101.333-41.6,103.467-97.067C455.467,327.467,412.8,280.533,357.333,279.467
	z M350.933,462.933c-45.867-1.067-82.133-39.467-81.067-86.4c1.067-46.933,39.467-82.133,86.4-81.067
	c45.867,1.067,82.133,39.467,81.067,86.4C436.267,427.733,397.867,464,350.933,462.933z"/>
<path style="fill:#4ABAA5;" d="M161.067,40.533C93.867,41.6,40.533,97.067,41.6,164.267S98.133,284.8,165.333,283.733
	S285.867,227.2,284.8,160C283.733,92.8,228.267,39.467,161.067,40.533z M165.333,265.6c-57.6,1.067-104.533-44.8-105.6-101.333
	c-1.067-57.6,44.8-104.533,101.333-105.6c57.6-1.067,104.533,44.8,105.6,101.333C267.733,217.6,221.867,264.533,165.333,265.6z"/>
<g>
</g>
<g>
</g>
<g>
</g>
<g>
</g>
<g>
</g>
<g>
</g>
<g>
</g>
<g>
</g>
<g>
</g>
<g>
</g>
<g>
</g>
<g>
</g>
<g>
</g>
<g>
</g>
<g>
</g>
</svg>
