<?xml version="1.0" encoding="iso-8859-1"?>
<!-- Generator: Adobe Illustrator 19.0.0, SVG Export Plug-In . SVG Version: 6.00 Build 0)  -->
<svg version="1.1" id="Capa_1" xmlns="http://www.w3.org/2000/svg" xmlns:xlink="http://www.w3.org/1999/xlink" x="0px" y="0px"
	 viewBox="0 0 513.067 513.067" style="enable-background:new 0 0 513.067 513.067;" xml:space="preserve">
<path style="fill:#344A5E;" d="M300.8,286.303c0,0,42.667,12.8,59.733,53.333c12.8,32,2.133,67.2,2.133,67.2
	s-49.067-76.8-50.133-77.867C312.533,327.903,300.8,286.303,300.8,286.303z"/>
<path style="fill:#FFD15C;" d="M186.667,183.903l4.267,11.733L192,223.37l92.8,71.467c0,0,2.133-23.467,4.267-28.8
	c2.133-5.333,1.067-6.4,7.467-8.533c6.4-2.133,14.933-12.8,18.133-19.2c3.2-6.4,9.6-16,13.867-21.333
	c4.267-5.333,12.8-38.4,11.733-53.333c-1.067-16,1.067-22.4,1.067-28.8s-1.067-9.6-1.067-9.6s3.2-44.8-7.467-68.267
	c-10.667-23.467-112-21.333-128,6.4S183.467,154.037,186.667,183.903z"/>
<path style="fill:#415A6B;" d="M184.533,53.77c0,0,14.933-43.733,86.4-52.267c69.333-8.533,81.067,48,68.267,59.733
	c0,0,10.667,12.8,7.467,34.133c-3.2,18.133-5.333,26.667-6.4,29.867c0-3.2,0-9.6-2.133-23.467
	c-3.2-19.2-13.867-37.333-13.867-37.333s-13.867,2.133-44.8-3.2c-29.867-5.333-48,0-48,11.733s6.4,19.2,0,29.867
	c-6.4,10.667-11.733,16-12.8,41.6c0,16-1.067,21.333-1.067,23.467h-8.533c0-5.333-1.067-20.267-6.4-26.667
	c-7.467-8.533-13.867,0-14.933,10.667c-1.067,10.667,2.133,43.733,2.133,43.733s-7.467-5.333-10.667-26.667
	C176,146.57,165.333,108.17,184.533,53.77z"/>
<ellipse transform="matrix(0.2473 0.9689 -0.9689 0.2473 302.8942 -69.5944)" style="fill:#FFD15C;" cx="196.241" cy="160.16" rx="26.666" ry="14.933"/>
<path style="fill:#F7B64C;" d="M216.533,207.37c49.067,56.533,74.667,51.2,78.933,50.133c-5.333,2.133-5.333,3.2-7.467,8.533
	c-2.133,5.333-4.267,28.8-4.267,28.8c33.067,24.533,32,49.067,5.333,74.667c-43.733-20.267-69.333-52.267-52.267-110.933
	C224,230.837,216.533,207.37,216.533,207.37z"/>
<path style="fill:#CED6E0;" d="M366.933,466.57c-9.6-54.4-44.8-125.867-44.8-125.867l-33.067-48l-13.867-12.8l-77.867,40.533
	l25.6,147.2h144V466.57z"/>
<path style="fill:#344A5E;" d="M363.733,466.57l-12.8-74.667l-16-4.267c0,0,7.467,36.267,13.867,78.933H363.733z"/>
<path style="fill:#415A6B;" d="M349.867,430.303c2.133,7.467,4.267,20.267,6.4,36.267h20.267c-1.067-14.933-2.133-27.733-3.2-36.267
	c-6.4-38.4-21.333-69.333-21.333-69.333c-7.467-5.333-23.467-18.133-23.467-18.133l4.267-13.867L304,295.903l-6.4,11.733
	c0,0,1.067,1.067,7.467,17.067C312.533,339.637,343.467,408.97,349.867,430.303z"/>
<path style="fill:#344A5E;" d="M133.333,333.237c13.867,28.8,18.133,76.8,17.067,98.133c0,5.333-5.333,19.2-11.733,36.267h128
	l-36.267-153.6l-55.467-64L160,252.17c0,0-24.533,12.8-67.2,22.4s-49.067,20.267-49.067,20.267s14.933-7.467,34.133-8.533
	C97.067,285.237,118.4,303.37,133.333,333.237z"/>
<g>
	<path style="fill:#F3F3F3;" d="M174.933,245.77c0,0,43.733,53.333,56.533,64c12.8,10.667,29.867,27.733,29.867,27.733
		c0-9.6,14.933-57.6,14.933-57.6s-50.133-35.2-65.067-44.8c-16-10.667-19.2-17.067-19.2-17.067
		C182.4,221.237,174.933,245.77,174.933,245.77z"/>
	<path style="fill:#F3F3F3;" d="M290.133,262.837c-1.067,0-6.4,25.6-6.4,41.6c1.067,16,6.4,20.267,6.4,20.267
		s2.133-9.6,4.267-18.133c0-1.067,2.133-1.067,2.133,0c0,7.467-1.067,17.067,1.067,23.467c3.2,11.733,3.2,11.733,3.2,11.733
		s-1.067-10.667,1.067-20.267c2.133-9.6,9.6-19.2,5.333-28.8c-4.267-9.6-6.4-11.733-7.467-16
		C296.533,271.37,293.333,258.57,290.133,262.837z"/>
</g>
<g>
	<path style="fill:#415A6B;" d="M185.6,312.97l30.933,16l-10.667,21.333c32,49.067,40.533,80,48,116.267h32
		c-3.2-42.667-12.8-61.867-28.8-110.933c-20.267-58.667-64-113.067-67.2-120.533c-4.267-7.467-4.267-11.733-4.267-11.733
		c-9.6,1.067-5.333,9.6-12.8,14.933s-17.067,12.8-9.6,23.467C170.667,272.437,185.6,312.97,185.6,312.97z"/>
	<path style="fill:#415A6B;" d="M147.2,466.57c2.133-21.333,2.133-36.267,2.133-36.267c2.133-20.267-2.133-68.267-17.067-98.133
		c-13.867-28.8-35.2-46.933-54.4-45.867c-18.133,1.067-33.067,7.467-34.133,8.533l0,0l0,0c-37.333,20.267-32,91.733-36.267,113.067
		C6.4,416.437,3.2,438.837,0,466.57L147.2,466.57L147.2,466.57z"/>
</g>
<g>
	<circle style="fill:#F05540;" cx="480" cy="324.703" r="5.333"/>
	<path style="fill:#F05540;" d="M484.267,324.703c0,0,3.2-8.533,12.8-6.4s6.4,22.4,6.4,22.4s-8.533,35.2-46.933,50.133l-5.333,9.6
		c0,0,44.8-12.8,59.733-58.667c0,0,8.533-21.333-8.533-33.067c-17.067-10.667-24.533,11.733-24.533,11.733L484.267,324.703z"/>
	<circle style="fill:#F05540;" cx="374.4" cy="324.703" r="5.333"/>
	<path style="fill:#F05540;" d="M370.133,324.703c0,0-3.2-8.533-12.8-6.4c-9.6,2.133-6.4,22.4-6.4,22.4s8.533,35.2,46.933,50.133
		l5.333,9.6c0,0-44.8-12.8-59.733-58.667c0,0-8.533-21.333,8.533-33.067c17.067-10.667,24.533,11.733,24.533,11.733L370.133,324.703
		z"/>
</g>
<path style="fill:#F3705A;" d="M451.2,405.77c16-16,26.667-53.333,26.667-96c0-3.2,0-7.467,0-10.667H376.533c0,3.2,0,7.467,0,10.667
	c0,42.667,10.667,80,26.667,96c5.333,5.333,8.533,13.867,8.533,22.4l0,0c0,9.6-4.267,11.733-11.733,18.133
	c-5.333,4.267-8.533,9.6-10.667,16h73.6c-2.133-6.4-5.333-11.733-10.667-16c-7.467-6.4-11.733-8.533-11.733-18.133l0,0
	C442.667,418.57,445.867,411.103,451.2,405.77z"/>
<path style="fill:#415A6B;" d="M472.533,464.437v43.733c0,2.133-2.133,4.267-4.267,4.267h-82.133c-2.133,0-4.267-2.133-4.267-4.267
	v-43.733c0-2.133,2.133-4.267,4.267-4.267h82.133C470.4,461.237,472.533,462.303,472.533,464.437z"/>
<rect x="394.667" y="469.77" style="fill:#F3F3F3;" width="66.133" height="34.133"/>
<g>
	<rect x="401.067" y="478.303" style="fill:#CED6E0;" width="53.333" height="4.267"/>
	<rect x="401.067" y="491.103" style="fill:#CED6E0;" width="53.333" height="4.267"/>
</g>
<circle style="fill:#F05540;" cx="427.733" cy="344.97" r="28.8"/>
<polygon style="fill:#FFFFFF;" points="427.733,326.837 433.067,338.57 445.867,339.637 436.267,349.237 438.4,362.037 
	427.733,355.637 416,362.037 418.133,349.237 408.533,339.637 421.333,338.57 "/>
<g>
</g>
<g>
</g>
<g>
</g>
<g>
</g>
<g>
</g>
<g>
</g>
<g>
</g>
<g>
</g>
<g>
</g>
<g>
</g>
<g>
</g>
<g>
</g>
<g>
</g>
<g>
</g>
<g>
</g>
</svg>
