<?xml version="1.0" encoding="iso-8859-1"?>
<!-- Generator: Adobe Illustrator 19.0.0, SVG Export Plug-In . SVG Version: 6.00 Build 0)  -->
<svg version="1.1" id="Capa_1" xmlns="http://www.w3.org/2000/svg" xmlns:xlink="http://www.w3.org/1999/xlink" x="0px" y="0px"
	 viewBox="0 0 512 512" style="enable-background:new 0 0 512 512;" xml:space="preserve">
<polygon style="fill:#ADB3BA;" points="206.933,412.8 187.733,468.267 324.267,468.267 305.067,412.8 "/>
<path style="fill:#E8EAE9;" d="M512,38.4v349.867c0,16-12.8,28.8-28.8,28.8H28.8c-16,0-28.8-12.8-28.8-28.8V38.4
	c0-16,12.8-28.8,28.8-28.8h454.4C499.2,9.6,512,22.4,512,38.4z"/>
<path style="fill:#CED6E0;" d="M0,334.933v53.333c0,16,12.8,28.8,28.8,28.8h454.4c16,0,28.8-12.8,28.8-28.8v-53.333L0,334.933
	L0,334.933z"/>
<rect x="35.2" y="43.733" style="fill:#55C0EB;" width="442.667" height="291.2"/>
<path style="fill:#CED6E0;" d="M368,502.4c-21.333-30.933-60.8-54.4-112-54.4s-91.733,22.4-112,54.4H368z"/>
<circle style="fill:#ADB3BA;" cx="256" cy="377.6" r="14.933"/>
<circle style="fill:#FFFFFF;" cx="290.133" cy="186.667" r="98.133"/>
<path style="fill:#66C6B9;" d="M342.4,283.733c2.133-1.067,3.2-1.067,5.333-2.133c0-2.133,0-3.2,0-4.267
	c1.067-5.333,0-17.067-2.133-24.533c-1.067-8.533-8.533-12.8-8.533-12.8l-8.533-1.067l13.867,40.533
	C343.467,279.467,343.467,280.533,342.4,283.733z"/>
<path style="fill:#CED6E0;" d="M334.933,286.933c3.2-1.067,5.333-2.133,8.533-3.2l2.133-10.667L318.933,220.8l-9.6,1.067h-35.2
	L304,294.4C312.533,292.267,323.2,290.133,334.933,286.933z"/>
<path style="fill:#FFD15C;" d="M277.333,169.6c0,0-1.067,13.867,1.067,22.4l-8.533,21.333l41.6,22.4l4.267-24.533v-9.6
	c0,0,11.733-11.733,12.8-28.8c0-17.067,0-17.067,0-17.067l0,0c0,0,2.133-19.2-6.4-26.667c-8.533-7.467-30.933-6.4-37.333-2.133
	C279.467,131.2,277.333,169.6,277.333,169.6z"/>
<path style="fill:#F05540;" d="M306.133,254.933c0,4.267,2.133,22.4,4.267,37.333c5.333-1.067,11.733-2.133,17.067-4.267
	c0-2.133,0-4.267-1.067-5.333c-2.133-10.667-6.4-27.733-7.467-30.933c-1.067-3.2-4.267-16-4.267-16s-7.467-6.4-11.733-2.133
	l1.067,3.2C304,237.867,305.067,247.467,306.133,254.933z"/>
<path style="fill:#F3705A;" d="M315.733,228.267c0,0,1.067,5.333,0,7.467c0,0-9.6-3.2-11.733,1.067c0,0-4.267-6.4-8.533-7.467
	L307.2,220.8h8.533V228.267"/>
<path style="fill:#F7B64C;" d="M278.4,193.067c0,0,11.733,12.8,21.333,13.867c9.6,1.067,17.067-5.333,17.067-5.333v9.6l-1.067,8.533
	C306.133,217.6,284.8,209.067,278.4,193.067z"/>
<path style="fill:#F3F3F3;" d="M307.2,221.867c0,0,7.467,3.2,8.533,8.533c1.067,5.333,1.067,7.467,1.067,7.467s-1.067-12.8,0-13.867
	c0-2.133,0-16-1.067-18.133c-1.067-2.133,0,0,0,0S315.733,212.267,307.2,221.867"/>
<g>
	
		<ellipse transform="matrix(0.1241 -0.9923 0.9923 0.1241 123.7279 470.8734)" style="fill:#FFD15C;" cx="328.579" cy="165.354" rx="10.667" ry="5.333"/>
	
		<ellipse transform="matrix(0.1241 0.9923 -0.9923 0.1241 404.8742 -126.6582)" style="fill:#FFD15C;" cx="274.18" cy="166.002" rx="10.667" ry="5.333"/>
</g>
<path style="fill:#415A6B;" d="M328.533,163.2L328.533,163.2c-1.067-2.133-1.067-16-2.133-20.267c0-2.133-1.067-3.2-2.133-5.333
	c-2.133-3.2-6.4-5.333-9.6-4.267c-4.267,1.067-10.667,2.133-18.133,0c-2.133-1.067-5.333,0-7.467,1.067
	c-2.133,1.067-4.267,3.2-5.333,4.267c-2.133,3.2-4.267,18.133-4.267,24.533H278.4c0-2.133,0-5.333-2.133-7.467
	c0,0-1.067-18.133,4.267-27.733c5.333-9.6,23.467-14.933,30.933-11.733c7.467,2.133,17.067,8.533,19.2,17.067
	c0,0,2.133,8.533,2.133,16C330.667,154.667,328.533,161.067,328.533,163.2z"/>
<path style="fill:#F3F3F3;" d="M278.4,193.067c5.333,9.6,16,19.2,28.8,28.8c-5.333,5.333-9.6,10.667-12.8,17.067L268.8,208
	L278.4,193.067"/>
<path style="fill:#4ABAA5;" d="M337.067,282.667c0,1.067,0,2.133,0,3.2c3.2-1.067,5.333-2.133,8.533-3.2
	c0-4.267,0-7.467,1.067-10.667c1.067-13.867-7.467-33.067-7.467-33.067s-3.2-2.133-6.4-4.267c-3.2-2.133-9.6-8.533-9.6-8.533
	L322.133,224c-3.2-6.4-5.333-12.8-5.333-19.2c-1.067,9.6,0,20.267,4.267,28.8C327.467,250.667,337.067,275.2,337.067,282.667z"/>
<path style="fill:#66C6B9;" d="M238.933,293.333c-17.067-13.867-6.4-9.6,7.467-4.267c1.067-6.4,2.133-10.667,2.133-10.667
	l5.333-51.2c0,0-18.133-8.533-28.8-4.267c-10.667,3.2-14.933,29.867-14.933,34.133c0,3.2-2.133,11.733-4.267,19.2
	C217.6,278.4,228.267,284.8,238.933,293.333z"/>
<path style="fill:#4ABAA5;" d="M248.533,278.4c0,0-3.2,3.2-7.467,8.533c8.533,3.2,21.333,7.467,28.8,8.533
	c14.933,1.067,28.8,0,43.733-3.2c-3.2-9.6-6.4-19.2-7.467-23.467c-3.2-9.6-29.867-56.533-32-60.8c-1.067-5.333,0-6.4,0-6.4
	c-5.333,3.2-9.6,9.6-9.6,9.6s0,0-1.067,0c-1.067,0-38.4,12.8-38.4,12.8C246.4,218.667,248.533,278.4,248.533,278.4z"/>
<path style="fill:#344A5E;" d="M194.133,90.667c-52.267,52.267-52.267,138.667,0,190.933s138.667,52.267,190.933,0
	c52.267-52.267,52.267-138.667,0-190.933S247.467,38.4,194.133,90.667z M359.467,256c-38.4,38.4-100.267,38.4-138.667,0
	s-38.4-100.267,0-138.667s100.267-38.4,138.667,0S397.867,217.6,359.467,256z"/>
<path style="fill:#F3705A;" d="M465.067,364.8L465.067,364.8c17.067-14.933,17.067-41.6,1.067-55.467
	C445.867,291.2,422.4,270.933,412.8,268.8l-40.533,40.533c2.133,9.6,22.4,34.133,40.533,53.333
	C425.6,377.6,450.133,378.667,465.067,364.8z"/>
<path style="fill:#415A6B;" d="M421.333,268.8l-49.067,49.067c-3.2,3.2-8.533,3.2-12.8,0l-3.2-3.2c-3.2-3.2-3.2-8.533,0-12.8
	l49.067-49.067c3.2-3.2,8.533-3.2,12.8,0l3.2,3.2C424.533,260.267,424.533,265.6,421.333,268.8z"/>
<g>
</g>
<g>
</g>
<g>
</g>
<g>
</g>
<g>
</g>
<g>
</g>
<g>
</g>
<g>
</g>
<g>
</g>
<g>
</g>
<g>
</g>
<g>
</g>
<g>
</g>
<g>
</g>
<g>
</g>
</svg>
