<?xml version="1.0" encoding="iso-8859-1"?>
<!-- Generator: Adobe Illustrator 19.0.0, SVG Export Plug-In . SVG Version: 6.00 Build 0)  -->
<svg version="1.1" id="Capa_1" xmlns="http://www.w3.org/2000/svg" xmlns:xlink="http://www.w3.org/1999/xlink" x="0px" y="0px"
	 viewBox="0 0 512 512" style="enable-background:new 0 0 512 512;" xml:space="preserve">
<path style="fill:#E8EAE9;" d="M481.067,55.467v294.4c0,18.133-13.867,32-32,32H62.933c-18.133,0-32-13.867-32-32v-294.4H481.067z"
	/>
<path style="fill:#415A6B;" d="M484.267,0H27.733C12.8,0,0,12.8,0,27.733s12.8,27.733,27.733,27.733h456.533
	c14.933,0,27.733-12.8,27.733-27.733S499.2,0,484.267,0z"/>
<path style="fill:#66C6B9;" d="M147.2,348.8c-1.067,0-3.2,0-4.267-1.067c-2.133-2.133-2.133-5.333,0-7.467L240,243.2
	c2.133-2.133,5.333-2.133,7.467,0c2.133,2.133,2.133,5.333,0,7.467L150.4,347.733C150.4,347.733,149.333,348.8,147.2,348.8z"/>
<path style="fill:#ADB3BA;" d="M89.6,344.533c-1.067,0-3.2-1.067-4.267-2.133c-2.133-2.133-1.067-5.333,1.067-7.467l87.467-71.467
	c2.133-2.133,5.333-1.067,7.467,1.067l38.4,43.733l91.733-75.733c2.133-2.133,5.333-1.067,7.467,1.067
	c2.133,2.133,1.067,5.333-1.067,7.467l-96,78.933c-2.133,2.133-5.333,1.067-7.467-1.067L176,275.2l-83.2,68.267
	C91.733,343.467,90.667,344.533,89.6,344.533z"/>
<g>
	<path style="fill:#66C6B9;" d="M293.333,300.8c-1.067,0-3.2,0-4.267-1.067c-2.133-2.133-2.133-5.333,0-7.467l98.133-98.133
		c2.133-2.133,5.333-2.133,7.467,0c2.133,2.133,2.133,5.333,0,7.467l-98.133,98.133C295.467,300.8,294.4,300.8,293.333,300.8z"/>
	<path style="fill:#66C6B9;" d="M293.333,300.8c-1.067,0-3.2,0-4.267-1.067L240,250.667c-2.133-2.133-2.133-5.333,0-7.467
		c2.133-2.133,5.333-2.133,7.467,0l49.067,49.067c2.133,2.133,2.133,5.333,0,7.467C295.467,300.8,294.4,300.8,293.333,300.8z"/>
</g>
<path style="fill:#ADB3BA;" d="M348.8,286.933L348.8,286.933c-2.133,0-3.2-1.067-4.267-2.133l-35.2-44.8
	c-2.133-2.133-1.067-5.333,1.067-7.467c2.133-2.133,5.333-1.067,7.467,1.067l30.933,40.533l70.4-65.067
	c2.133-2.133,5.333-2.133,7.467,0c2.133,2.133,2.133,5.333,0,7.467L352,285.867C350.933,285.867,349.867,286.933,348.8,286.933z"/>
<rect x="64" y="169.6" style="fill:#F3705A;" width="27.733" height="45.867"/>
<rect x="116.267" y="125.867" style="fill:#FFD15C;" width="27.733" height="89.6"/>
<rect x="168.533" y="150.4" style="fill:#415A6B;" width="27.733" height="65.067"/>
<rect x="221.867" y="92.8" style="fill:#55C0EB;" width="27.733" height="122.667"/>
<g>
	<path style="fill:#F05540;" d="M281.6,512c7.467-64,1.067-132.267-55.467-141.867c0,0-19.2,12.8-28.8,60.8
		c-5.333,30.933-13.867,59.733-19.2,81.067H281.6z"/>
	<path style="fill:#F05540;" d="M512,512c-1.067-12.8-1.067-26.667-2.133-38.4c-2.133-43.733-19.2-84.267-19.2-84.267
		c-57.6,20.267-67.2,76.8-65.067,122.667H512z"/>
</g>
<g>
	<path style="fill:#415A6B;" d="M349.867,280.533C349.867,320,339.2,352,325.333,352c-39.467,0-4.267-41.6-24.533-71.467
		c0-39.467,10.667-71.467,24.533-71.467C338.133,209.067,349.867,241.067,349.867,280.533z"/>
	<path style="fill:#415A6B;" d="M430.933,282.667c0,35.2-10.667,93.867-23.467,93.867c-12.8,0-23.467-58.667-23.467-93.867
		s10.667-65.067,23.467-65.067C421.333,217.6,430.933,246.4,430.933,282.667z"/>
</g>
<path style="fill:#FFD15C;" d="M408.533,209.067c0,0,14.933,61.867-7.467,101.333c0,0-9.6,30.933,12.8,45.867l-54.4,133.333
	L299.733,352c0,0,23.467-24.533,23.467-52.267c0,0-17.067-51.2-14.933-88.533s48-49.067,56.533-49.067
	S408.533,209.067,408.533,209.067z"/>
<path style="fill:#F7B64C;" d="M400,309.333c-2.133,4.267-23.467,22.4-43.733,19.2c-20.267-3.2-33.067-28.8-33.067-28.8
	C324.267,326.4,299.733,352,299.733,352l0,0c10.667,0,25.6-1.067,43.733-4.267C389.333,338.133,400,309.333,400,309.333z"/>
<path style="fill:#F3705A;" d="M250.667,435.2c0,16-2.133,44.8-3.2,76.8h198.4c5.333-56.533,17.067-106.667,45.867-122.667
	c0,0-16-14.933-39.467-23.467c-21.333-8.533-48-25.6-52.267-27.733c0,36.267-43.733,66.133-43.733,66.133
	s-43.733-29.867-43.733-66.133H310.4c0,0-11.733,8.533-32,11.733c-21.333,4.267-46.933,17.067-53.333,20.267
	C225.067,370.133,251.733,390.4,250.667,435.2z"/>
<path style="fill:#415A6B;" d="M341.333,185.6c0,0,10.667-5.333,22.4,0c11.733,5.333,33.067,32,45.867,38.4
	c12.8,6.4,0,71.467,3.2,88.533c3.2,17.067,5.333,48,25.6,65.067c0,0-9.6-11.733-9.6-22.4c0,0,6.4,7.467,24.533,14.933
	c19.2,7.467,19.2,7.467,19.2,7.467S455.467,366.933,448,355.2c-8.533-11.733-12.8-27.733-8.533-48s5.333-53.333-3.2-90.667
	c-9.6-37.333-19.2-45.867-41.6-59.733c-22.4-13.867-50.133-11.733-61.867-2.133c-11.733,9.6-27.733,25.6-35.2,49.067
	C290.133,227.2,286.933,272,296.533,288c9.6,17.067,3.2,58.667-39.467,73.6c0,0,39.467-2.133,55.467-23.467
	c14.933-21.333,0-53.333,0-75.733C312.533,240,315.733,193.067,341.333,185.6z"/>
<g>
</g>
<g>
</g>
<g>
</g>
<g>
</g>
<g>
</g>
<g>
</g>
<g>
</g>
<g>
</g>
<g>
</g>
<g>
</g>
<g>
</g>
<g>
</g>
<g>
</g>
<g>
</g>
<g>
</g>
</svg>
