<?xml version="1.0" encoding="iso-8859-1"?>
<!-- Generator: Adobe Illustrator 19.0.0, SVG Export Plug-In . SVG Version: 6.00 Build 0)  -->
<svg version="1.1" id="Capa_1" xmlns="http://www.w3.org/2000/svg" xmlns:xlink="http://www.w3.org/1999/xlink" x="0px" y="0px"
	 viewBox="0 0 513.067 513.067" style="enable-background:new 0 0 513.067 513.067;" xml:space="preserve">
<path style="fill:#E8EAE9;" d="M418.667,189.867V467.2h-393.6V189.867c0-14.933,12.8-27.733,27.733-27.733h337.067
	C405.867,162.133,418.667,174.933,418.667,189.867z"/>
<path style="fill:#415A6B;" d="M0.533,468.267L0.533,468.267c0,24.533,20.267,44.8,44.8,44.8h352c24.533,0,44.8-20.267,44.8-44.8
	l0,0H0.533z"/>
<rect x="56" y="193.067" style="fill:#8AD7F8;" width="330.667" height="229.333"/>
<path style="fill:#344A5E;" d="M331.2,422.4l-1.067-23.467c-1.067-16-10.667-29.867-25.6-34.133
	c-12.8-4.267-27.733-9.6-30.933-10.667c-1.067,0-106.667-3.2-106.667-3.2L120,375.467c0,0-6.4,0-7.467,23.467
	c0,5.333,0,12.8,1.067,23.467H331.2z"/>
<path style="fill:#CED6E0;" d="M256.533,422.4c5.333-30.933,10.667-65.067,10.667-65.067l-13.867-17.067l-3.2,4.267L228.8,355.2
	l-1.067,1.067l-35.2-6.4c0,0-10.667,4.267-12.8,26.667c-1.067,12.8,7.467,30.933,17.067,45.867H256.533z"/>
<path style="fill:#FFD15C;" d="M187.2,358.4h58.667L248,329.6c0,0,3.2-5.333,5.333-16c2.133-10.667-1.067-26.667-1.067-26.667
	s14.933-41.6-17.067-49.067s-54.4,23.467-54.4,23.467l5.333,45.867c0,0,2.133,6.4,4.267,10.667L187.2,358.4z"/>
<path style="fill:#F7B64C;" d="M249.067,329.6c0,0,1.067-3.2,3.2-8.533c0,0-23.467,46.933-58.667-3.2
	c0,0,4.267,23.467,26.667,40.533h25.6L249.067,329.6z"/>
<path style="fill:#F3705A;" d="M217.067,422.4H248c-5.333-18.133-20.267-51.2-20.267-51.2l-2.133-7.467h-7.467L216,371.2
	C216,371.2,214.933,409.6,217.067,422.4z"/>
<path style="fill:#F05540;" d="M213.867,355.2l5.333,1.067h7.467l6.4,5.333c0,0-5.333,5.333-6.4,9.6c0-2.133-10.667-2.133-10.667,0
	c0,0-5.333-6.4-8.533-7.467C205.333,363.733,213.867,355.2,213.867,355.2z"/>
<g>
	
		<ellipse transform="matrix(-0.2455 -0.9694 0.9694 -0.2455 -52.4001 545.901)" style="fill:#FFD15C;" cx="186.243" cy="293.343" rx="14.933" ry="6.4"/>
	
		<ellipse transform="matrix(0.0116 0.9999 -0.9999 0.0116 537.1665 31.6382)" style="fill:#FFD15C;" cx="252.58" cy="287.525" rx="14.933" ry="6.4"/>
</g>
<g>
	<path style="fill:#415A6B;" d="M186.133,289.067c0,1.067,1.067,2.133,1.067,4.267h3.2c0-2.133,0-4.267,0-6.4
		c2.133-7.467,5.333-11.733,2.133-19.2c-2.133-7.467-1.067-9.6,1.067-9.6c0,0,9.6,3.2,19.2-2.133c9.6-5.333,10.667-10.667,16-10.667
		s13.867,1.067,17.067,4.267c3.2,3.2,3.2,10.667,3.2,18.133c0,6.4,3.2,21.333,4.267,26.667h2.133c0-2.133,0-9.6,1.067-13.867
		C270.4,233.6,239.467,214.4,210.667,217.6c-32,3.2-37.333,37.333-35.2,46.933C176.533,274.133,185.067,285.867,186.133,289.067z"/>
	<path style="fill:#415A6B;" d="M254.4,408.533c-1.067,3.2-2.133,7.467-3.2,13.867h14.933c4.267-6.4,7.467-11.733,9.6-16
		c10.667-18.133,16-35.2,16-35.2l-10.667-7.467l4.267-3.2c0,0-27.733-29.867-35.2-29.867c0,0,6.4,13.867,7.467,24.533
		C257.6,364.8,256.533,397.867,254.4,408.533z"/>
</g>
<g>
	<path style="fill:#F3F3F3;" d="M249.067,329.6c0,0-1.067,5.333-5.333,10.667c-4.267,6.4-17.067,14.933-17.067,14.933l13.867,25.6
		c0,0,5.333-10.667,9.6-17.067c4.267-7.467,4.267-17.067,3.2-22.4C252.267,336,249.067,329.6,249.067,329.6z"/>
	<path style="fill:#F3F3F3;" d="M219.2,355.2c0,0-3.2,1.067-7.467,8.533c-4.267,7.467-8.533,22.4-8.533,22.4
		s-16-27.733-20.267-33.067c-4.267-4.267-3.2-11.733-3.2-11.733s4.267-2.133,6.4-8.533c2.133-6.4,4.267-10.667,4.267-10.667
		s0,11.733,5.333,18.133C204.267,347.733,219.2,355.2,219.2,355.2z"/>
</g>
<path style="fill:#415A6B;" d="M189.333,422.4h22.4c-2.133-6.4-4.267-11.733-6.4-17.067c-7.467-20.267-17.067-75.733-17.067-75.733
	c-3.2-1.067-21.333,18.133-23.467,22.4c-2.133,3.2-5.333,10.667-5.333,10.667l6.4,4.267l-10.667,6.4
	C160.533,384,174.4,403.2,189.333,422.4z"/>
<polygon style="fill:#344A5E;" points="262.933,490.667 180.8,490.667 171.2,468.267 272.533,468.267 "/>
<path style="fill:#F3705A;" d="M512.533,291.2c0,52.267-42.667,94.933-94.933,94.933c-3.2,0-7.467,0-10.667-1.067
	c-7.467,4.267-14.933,7.467-22.4,10.667c-12.8,4.267-24.533,6.4-37.333,6.4c10.667-7.467,19.2-17.067,26.667-27.733
	c-29.867-16-51.2-48-51.2-84.267c0-52.267,42.667-94.933,94.933-94.933S512.533,237.867,512.533,291.2z"/>
<path style="fill:#FFFFFF;" d="M464.533,235.733V323.2H436.8v27.733h-61.867c-3.2,0-5.333-2.133-5.333-5.333V235.733
	c0-3.2,2.133-5.333,5.333-5.333H459.2C462.4,230.4,464.533,233.6,464.533,235.733z"/>
<g>
	<polygon style="fill:#E8EAE9;" points="436.8,350.933 464.533,323.2 436.8,323.2 	"/>
	<rect x="379.2" y="241.067" style="fill:#E8EAE9;" width="74.667" height="7.467"/>
	<rect x="379.2" y="263.467" style="fill:#E8EAE9;" width="74.667" height="7.467"/>
	<rect x="379.2" y="284.8" style="fill:#E8EAE9;" width="74.667" height="7.467"/>
	<rect x="379.2" y="307.2" style="fill:#E8EAE9;" width="74.667" height="7.467"/>
	<rect x="379.2" y="329.6" style="fill:#E8EAE9;" width="45.867" height="7.467"/>
</g>
<path style="fill:#415A6B;" d="M0.533,96c0,52.267,42.667,94.933,94.933,94.933c3.2,0,7.467,0,10.667-1.067
	c7.467,4.267,14.933,7.467,22.4,10.667c12.8,4.267,24.533,6.4,37.333,6.4c-10.667-7.467-19.2-17.067-26.667-27.733
	c29.867-16,51.2-48,51.2-84.267C190.4,42.667,147.733,0,95.467,0C43.2,1.067,0.533,43.733,0.533,96z"/>
<path style="fill:#F3705A;" d="M47.467,132.267c32,4.267,64,4.267,96,0c3.2,0,6.4-3.2,6.4-6.4V64c0-3.2-2.133-6.4-6.4-6.4
	c-32-4.267-64-4.267-96,0c-3.2,0-6.4,3.2-6.4,6.4v61.867C42.133,129.067,44.267,132.267,47.467,132.267z"/>
<path style="fill:#FFFFFF;" d="M114.667,100.267l-23.467,16c-3.2,2.133-7.467,0-7.467-4.267V80c0-3.2,4.267-5.333,7.467-3.2
	l23.467,16C117.867,93.867,117.867,98.133,114.667,100.267z"/>
<g>
</g>
<g>
</g>
<g>
</g>
<g>
</g>
<g>
</g>
<g>
</g>
<g>
</g>
<g>
</g>
<g>
</g>
<g>
</g>
<g>
</g>
<g>
</g>
<g>
</g>
<g>
</g>
<g>
</g>
</svg>
