<?xml version="1.0" encoding="iso-8859-1"?>
<!-- Generator: Adobe Illustrator 19.0.0, SVG Export Plug-In . SVG Version: 6.00 Build 0)  -->
<svg version="1.1" id="Capa_1" xmlns="http://www.w3.org/2000/svg" xmlns:xlink="http://www.w3.org/1999/xlink" x="0px" y="0px"
	 viewBox="0 0 512.052 512.052" style="enable-background:new 0 0 512.052 512.052;" xml:space="preserve">
<circle style="fill:#8AD7F8;" cx="266.634" cy="245.333" r="245.333"/>
<g>
	<path style="fill:#F3F3F3;" d="M463.967,100.267L463.967,100.267c0,1.067-1.067,1.067-1.067,2.133
		c-1.067,1.067-2.133,2.133-3.2,3.2c-1.067,0-2.133,0-3.2,0c-2.133,0-2.133-1.067-2.133-3.2c1.067,2.133,2.133,3.2,4.267,1.067
		c0-1.067,0-3.2,1.067-3.2c2.133,0,2.133-2.133,3.2-3.2l0,0c-5.333-6.4-10.667-12.8-16-19.2c0,1.067,0,2.133-1.067,3.2
		c3.2,0,4.267,1.067,4.267,3.2c0,1.067,1.067,2.133,2.133,3.2c-1.067,1.067-1.067,3.2-2.133,4.267
		c-1.067-2.133-2.133-3.2-4.267-4.267c-4.267-3.2-8.533-6.4-13.867-7.467c-1.067,0-3.2-1.067-4.267,1.067c0,1.067,0,2.133,1.067,3.2
		c0,1.067,1.067,2.133-1.067,3.2c-1.067,1.067-2.133,1.067-2.133,3.2l-1.067,1.067v-1.067c0-1.067,0-2.133-1.067-4.267
		c-2.133,1.067-2.133,2.133-3.2,3.2c-1.067,0-2.133,1.067-2.133,1.067c-2.133,0-5.333,0-6.4,3.2c-1.067-1.067-2.133-2.133-2.133-3.2
		s0-2.133,0-3.2c0,0,0,0-1.067,0c-1.067,1.067-1.067,1.067-2.133,2.133c-2.133-1.067-1.067,1.067-1.067,1.067
		c-1.067,0-2.133,0-3.2,1.067c-2.133,1.067-5.333,3.2-7.467,4.267c-1.067,1.067-2.133,2.133-2.133,3.2
		c0,2.133-1.067,3.2-2.133,4.267c-1.067-1.067-2.133-1.067-3.2-1.067c-3.2-3.2-3.2-5.333,2.133-6.4l0,0c0-4.267-3.2-5.333-9.6-6.4
		c3.2,1.067,2.133,4.267,2.133,6.4c0,1.067,0,2.133,0,3.2s0,1.067,0,2.133c1.067,1.067,1.067,3.2,1.067,4.267
		c0,1.067,0,2.133-1.067,4.267l-1.067-1.067c-1.067-2.133-3.2-2.133-5.333,0c-1.067,1.067-2.133,2.133-3.2,3.2
		c-2.133,2.133-2.133,2.133-1.067,4.267c1.067,1.067,1.067,2.133,2.133,4.267l0,0c-3.2-1.067-6.4-3.2-10.667-4.267
		c0,1.067,0,2.133,0,3.2c1.067,1.067,2.133,2.133,3.2,2.133l0,0c0,1.067,1.067,2.133,1.067,3.2c-2.133,1.067-4.267,0-6.4-1.067
		c-1.067-1.067-2.133-2.133-3.2-2.133c0-1.067-1.067-3.2-1.067-4.267c0-1.067,0-1.067,0-2.133c0-1.067,1.067-3.2-1.067-4.267
		c-2.133-2.133-4.267-4.267-6.4-7.467l0,0c1.067,0,1.067,1.067,2.133,1.067c2.133,1.067,4.267,3.2,6.4,3.2
		c2.133,1.067,5.333,1.067,7.467,2.133c2.133,1.067,3.2,0,5.333-1.067c1.066-4.267,3.2-6.4,3.2-8.533c0-4.267-2.133-7.467-6.4-8.533
		c-1.067,0-2.133-1.067-3.2-2.133c-1.067-1.067-3.2-3.2-5.333-4.267c0,0-1.067-1.067-2.133-1.067c-3.2,0-6.4-1.067-8.533-3.2
		c0,0,0-1.067-1.067-1.067l0,0c1.067,0,1.067,0,2.133,1.067c1.067-1.067,1.067-1.067-2.133-2.133c0,1.067-1.067,1.067-1.067,1.067
		H341.3c-1.067-1.067-2.133-2.133-3.2-3.2c3.2,1.067,4.267,0,5.333-2.133c-2.133-1.067-4.267-2.133-6.4-3.2
		c0,1.067-1.067,2.133-1.067,3.2c0,0,0,0-1.067,0c0-1.067,0-3.2,1.067-4.267c-1.067,0-1.067-1.067-2.133-1.067
		c-1.067,2.133-1.067,4.267-2.133,5.333c0,0,0,0-1.067,0c0-1.067,0-2.133,0-4.267c0,2.133-2.133,4.267-3.2,6.4c0,0,0,0-1.067,0
		c1.067-2.133,1.067-3.2,2.133-5.333c-1.067,0-1.067-1.067-2.133-1.067l-1.067,1.067c1.067,2.133,0,2.133-1.067,3.2
		c-1.067,1.067-2.133,2.133-2.133,3.2c-1.067,0-3.2-1.067-4.267-1.067c1.067,1.067,1.067,2.133,1.067,3.2
		c-2.133-1.067-4.267,0-4.267,3.2c0-1.067,0-2.133-1.067-3.2c-1.067,1.067-1.067,2.133-1.067,1.067
		c-2.133-1.067-1.067,1.067-2.133,2.133H309.3c0,1.067,0,1.067,1.067,2.133c-1.067-1.067-3.2-2.133-4.267-2.133
		c0,1.067-1.067,3.2-1.067,4.267c1.067,0,2.133,0,2.133,0c1.067,3.2-1.067,3.2-3.2,4.267c1.067,0,2.133,1.067,2.133,1.067
		s0,0,0,1.067h-3.2v3.2c-1.067-1.067-1.067-1.067-1.067-2.133c0,1.067,0,2.133-1.067,3.2c0,1.067-1.067,1.067-1.067,2.133
		c-2.133,0-2.133,1.067-2.133,2.133s0,1.067-1.067,2.133c-3.2,1.067-2.133,5.333-3.2,7.467c-1.067,1.067-1.067,2.133-1.067,3.2
		v1.067v1.067c-2.133,1.067-2.133,2.133-2.133,3.2c-3.2,0-3.2,3.2-4.267,5.333c1.067,1.067,1.067,1.067,2.133,2.133
		c-1.067,0-2.133-1.067-2.133-1.067c-1.067,1.067-3.2,1.067-4.267,2.133s-2.133,2.133-3.2,2.133l1.067,1.067
		c-1.067,1.067-2.133,1.067-3.2,2.133c-1.067,1.067-2.133,1.067-3.2,2.133l1.067,1.067c-1.067,0-2.133,2.133-2.133,3.2l1.067,1.067
		c2.133,0,3.2,0,5.333-1.067c0,1.067-1.067,1.067-1.067,2.133c-1.067-2.133-3.2,0-4.267,0c-1.067,0-1.067,1.067,0,2.133
		c0,0,0,2.133,0,3.2c2.133-3.2,2.133-3.2,4.267-3.2c-2.133,1.067-3.2,3.2-2.133,4.267c-1.067,1.067-1.067,1.067-2.133,2.133l0,0
		c1.067,0,2.133,0,2.133-1.067c0,1.067-1.067,2.133-1.067,3.2c0,0-1.067,1.067,0,1.067c1.067,1.067,3.2,2.133,4.267,3.2
		c1.067,0,2.133,0,3.2-1.067c2.133-1.067,3.2-4.267,6.4-4.267v-1.067c0-1.067,0-1.067,0-2.133c1.067,2.133,1.067,3.2,2.133,5.333
		c1.067,3.2,1.067,7.467,4.267,10.667c1.067,2.133,1.067,3.2-1.067,4.267c-1.067,0-2.133,1.067-3.2,1.067
		c1.067,1.067,2.133,2.133,3.2,4.267c1.067-2.133,1.067-3.2,2.133-4.267c1.067,3.2,2.133,1.067,3.2,1.067
		c1.067-3.2,1.067-3.2,4.267-3.2c0,0,1.067,0,1.067-1.067c1.067-3.2,1.067-7.467,2.133-10.667c0-1.067,1.067-3.2,3.2-3.2
		s1.067-1.067,2.133-2.133c-1.067,0-3.2,0-4.267-1.067c0,0,0,0,0-1.067c1.067,0,2.133,1.067,4.267,1.067
		c1.067,0,2.133-1.067,2.133-3.2c-1.067-2.133-3.2-4.267-5.333-3.2c0-4.267,1.067-7.467,1.067-10.667l0,0
		c2.133-2.133,3.2-5.333,6.4-7.467c2.133-1.067,3.2-2.133,4.267-4.267c0,0,0-1.067,0-2.133c-1.067-2.133,0-4.267,1.067-5.333
		c0-1.067,1.067-2.133,2.133-3.2c1.067,0,3.2,0,4.267,0v-1.067c0,1.067,1.067,1.067,1.067,2.133c1.067,1.067,1.067,2.133,2.133,3.2
		c0,0-1.067,1.067-2.133,2.133l0,0c-2.133,2.133-3.2,5.333-5.333,7.467c-1.067,1.067-1.067,1.067-2.133,2.133
		c-1.067,1.067-3.2,3.2-2.133,5.333c0,3.2,1.067,5.333,1.067,8.533c0,1.067,0,2.133,1.067,3.2c1.067,1.067,3.2,1.067,4.267,2.133
		c0,0,1.067,0,2.133,0s2.133-1.067,3.2-1.067c3.2-1.067,6.4-2.133,9.6-2.133c0,0,0,0,1.067,0c-1.067,2.133,0,2.133,1.067,2.133
		s2.133,1.067,2.133,1.067c-2.133,1.067-4.267,2.133-7.467,3.2c-2.133-1.067-5.333-1.067-9.6,1.067
		c-1.067,1.067-2.133,1.067-2.133,3.2c0,1.067,0,3.2,3.2,3.2c0,2.133-1.067,5.333-1.067,7.467c-3.2,0-3.2-2.133-5.333-4.267
		c-1.067,0-2.133,1.067-2.133,1.067c-1.067,2.133-2.133,5.333-2.133,7.467c0,1.067,0,3.2,1.067,5.333
		c-2.133-2.133-3.2,0-4.267,1.067c0,1.067-1.067,1.067-2.133,2.133c0-1.067-1.067-1.067-1.067-2.133
		c-3.2,0-10.667,2.133-11.733,5.333c-1.067-1.067-2.133-1.067-2.133-2.133c0-1.067,0-1.067,0-2.133
		c-3.2,1.067-5.333,2.133-7.467,3.2c0-1.067,0-1.067,0-2.133c-1.067,0-2.133,0-2.133-1.067c-1.067-1.067-1.067-3.2-1.067-4.267
		c1.067,1.067,1.067,1.067,2.133,2.133c0,0,1.067,0,1.067-1.067s0-1.067,0-2.133c-1.067,0-2.133,0-3.2,1.067
		c0-1.067,1.067-2.133,1.067-2.133c1.067-1.067,1.067-1.067,2.133-2.133c-3.2,0-3.2-1.067-2.133-3.2c0-1.067,0-2.133,1.067-4.267
		c-2.133,1.067-3.2,2.133-4.267,3.2c-3.2,2.133-4.267,6.4-1.067,9.6v1.067c0,2.133,0,4.267,1.067,5.333c0,0,0,0,0-1.067
		c0,1.067-1.067,2.133-1.067,2.133c-1.067-1.067-3.2-1.067-3.2,1.067c0,0,0,0-1.067,0c-2.133,0-3.2,1.067-3.2,3.2
		c0,1.067,0,1.067-1.067,2.133l0,0v-5.333c0,0,0,0-1.067,0c-1.067,2.133-1.067,3.2-2.133,6.4c-1.067,0-3.2,1.067-5.333,2.133
		c-1.067,0-1.067,1.067-1.067,1.067c0,2.133-1.067,3.2-3.2,3.2L261.3,195.2c-1.067,1.067-2.133,2.133-4.267,0c0,0-1.067,0-2.133,0
		c0,2.133,1.067,3.2,1.067,4.267c-1.067,0-2.133,0-3.2,0c-2.133-1.067-4.267,0-5.333,1.067c0,2.133,1.067,3.2,3.2,3.2
		c2.133,0,4.267,1.067,4.267,4.267c0,0,0,1.067,1.067,1.067c2.133,1.067,2.133,3.2,2.133,4.267c0,1.067,0,2.133,0,3.2
		c0,4.267-1.067,5.333-5.333,4.267c-4.267,0-9.6-1.067-13.867-1.067c-1.067,0-3.2,1.067-4.267,2.133v1.067V224
		c1.067,4.267,0,8.533-1.067,12.8c0,2.133,0,2.133,2.133,3.2c0,2.133,0,3.2,0,4.267c1.067,0,1.067,0,1.067,0
		c3.2,0,5.333-1.067,6.4,2.133c0,1.067,2.133,1.067,3.2,0c1.067-1.067,3.2-2.133,5.333-1.067c3.2,1.067,5.333-2.133,7.467-3.2
		c1.067-1.067,1.067-2.133,2.133-4.267c-1.067-1.067-1.067-2.133,0-3.2c1.067-3.2,4.267-5.333,7.467-6.4
		c1.067-1.067,2.133-2.133,2.133-3.2c0-1.067,0-3.2,1.067-3.2c2.133,0,3.2,0,5.333,0c1.067,0,2.133,1.067,2.133,0
		c2.133-1.067,4.267-2.133,5.333-4.267c1.067-1.067,1.067-1.067,2.133,0c2.133,1.067,2.133,1.067,3.2,3.2
		c0,1.067,1.067,2.133,2.133,4.267c1.067,1.067,1.067,1.067,2.133,1.067c2.133,2.133,4.267,3.2,6.4,5.333
		c1.067,1.067,3.2,2.133,3.2,3.2c1.067,1.067,2.133,2.133,1.067,4.267c-1.067,2.133-4.267,3.2-7.467,2.133c-1.067,0-2.133,0-2.133,0
		c0,1.067,1.067,1.067,1.067,2.133c1.067,1.067,3.2,2.133,4.267,2.133s2.133,0,2.133-1.067s0-2.133,1.067-4.267c0,0,0,0,1.067,1.067
		c1.067,0,1.067,0,2.133-1.067s1.067-2.133,1.067-3.2c1.067-1.067,1.067-2.133,0-3.2v-2.133c0,0,1.067,0,2.133,0
		s1.067,1.067,3.2,2.133c-1.067-4.267-4.267-4.267-6.4-6.4c0,0,0-1.067,0-2.133c-3.2,0-5.333-1.067-6.4-4.267
		c-1.067-2.133-2.133-3.2-3.2-4.267c-2.133-1.067-1.067-3.2-1.067-5.333c0-1.067,2.133-1.067,3.2-2.133
		c0,1.067,1.067,2.133,1.067,4.267c1.067-1.067,1.067-1.067,1.067-2.133c1.067,1.067,2.133,2.133,2.133,4.267
		c1.067,1.067,1.067,2.133,2.133,3.2c2.133,1.067,3.2,1.067,4.267,2.133c1.067,2.133,3.2,3.2,4.267,3.2c0,3.2,0,5.333,1.067,6.4
		c0,1.067,2.133,2.133,2.133,3.2c1.067,1.067,1.067,2.133,2.133,3.2c-1.067,3.2,1.067,5.333,4.267,5.333c0-1.067,0-1.067,0-2.133
		c0,0,1.067,0,1.067-1.067s0-1.067-1.067-2.133c1.067,0,2.133,1.067,2.133,1.067V236.8c0,0,1.067,0,1.067,1.067
		c-1.067-3.2-3.2-4.267-4.267-3.2c0-1.067,0-2.133-1.067-3.2c0-1.067,0-1.067,0-2.133c1.067,0,2.133,1.067,3.2,1.067
		c0-1.067,0-1.067,0-2.133c2.133-2.133,4.267,0,7.467,0c0,2.133-1.067,4.267-1.067,5.333l0,0c0,0,1.067-1.067,1.067-2.133
		c0,1.067,0,1.067,0,2.133c0,1.067,0,1.067,0,2.133c0,0-1.067,0-2.133,0c0,1.067,0,1.067,0,1.067c2.133,0,2.133,2.133,2.133,3.2
		c1.067,1.067,1.067,3.2,3.2,2.133c0,0,1.067,0,2.133,1.067c2.133,2.133,3.2,2.133,4.267-1.067c0,0,0,0,1.067,0
		s2.133,1.067,3.2,1.067c2.133,1.067,4.267,1.067,6.4,0c0,0,1.067,0,2.133,0c1.067,0,2.133,0,3.2,0c0,1.067,0,2.133,0,3.2
		c0,1.067,0,3.2,0,4.267c-1.067,3.2-2.133,6.4-3.2,8.533s-4.267,3.2-6.4,2.133c-1.067-1.067-2.133-1.067-3.2-1.067
		s-2.133,1.067-4.267,1.067c-1.067,0-2.133,0-3.2,0c-2.133,0-5.333-1.067-7.467-2.133c-2.133-1.067-4.267-1.067-7.467-2.133
		c0,0,0,0-1.067-1.067c-1.067,0-1.067-1.067-2.133-1.067c-2.133,0-3.2,0-5.333,2.133c-1.067,1.067-1.067,2.133-1.067,4.267
		c0,0,0,2.133-1.067,2.133s-2.133,1.067-3.2,0c-2.133-1.067-4.267-1.067-6.4-2.133c-1.067,0-2.133-1.067-2.133-1.067
		c-1.067-3.2-3.2-3.2-6.4-3.2c-4.267,0-6.4-2.133-9.6-4.267c1.067-1.067,2.133-2.133,3.2-2.133c1.067-1.067,2.133-2.133,1.067-3.2
		c-1.067-1.067-1.067-2.133,0-3.2V243.2c-1.067,2.133-2.133,2.133-3.2,2.133c0-2.133-2.133-2.133-3.2-1.067
		c-1.067,1.067-3.2,1.067-5.333,1.067c-1.067,0-3.2,0-4.267,0s-1.067,0-2.133,0c-4.267-1.067-8.533,0-12.8,2.133
		c-4.267,2.133-7.467,4.267-11.733,3.2H245.3c-1.067,0-2.133,0-3.2-1.067c-2.133-1.067-2.133-1.067-3.2,0
		c-1.067,3.2-3.2,5.333-6.4,6.4c-3.2,2.133-5.333,5.333-5.333,8.533c0,3.2-1.067,4.267-3.2,5.333c-3.2,2.133-7.467,3.2-8.533,7.467
		l-1.067,1.067l-1.067,1.067c-2.133,3.2-4.267,7.467-6.4,10.667c-1.067,1.067-1.067,3.2,0,4.267
		c1.067,1.067,2.133,2.133,1.067,4.267v1.067c0,2.133,0,3.2,0,5.333c0,1.067-1.067,2.133-1.067,3.2c0,2.133-1.067,3.2-2.133,4.267
		c1.067,2.133,2.133,3.2,2.133,5.333s1.067,2.133,2.133,3.2h1.067c2.133,2.133,3.2,4.267,5.333,6.4c0,1.067,1.067,1.067,1.067,2.133
		c0,2.133,1.067,3.2,2.133,3.2c2.133,2.133,5.333,4.267,7.467,5.333c3.2,2.133,5.333,4.267,9.6,2.133c3.2-1.067,6.4-2.133,9.6,0
		c1.067,1.067,2.133,0,4.267,0c4.267-2.133,8.533-4.267,13.867-4.267c3.2,0,4.267,1.067,5.333,4.267c0,1.067,1.067,2.133,3.2,2.133
		c1.067,0,3.2,0,4.267-1.067c3.2,0,5.333,2.133,5.333,5.333c0,2.133,0,3.2-1.067,5.333c0,1.067-1.067,2.133-1.067,3.2
		s0,2.133,0,2.133c2.133,3.2,4.267,5.333,6.4,7.467c1.067,1.067,2.133,3.2,3.2,4.267c1.067,2.133,1.067,3.2,2.133,5.333
		c0,1.067,0,3.2,1.067,4.267c0,1.067,0,2.133,1.067,3.2s1.067,5.333,0,5.333c-3.2,2.133-4.267,6.4-4.267,9.6
		c-1.067,3.2-1.067,6.4,1.067,10.667c4.267,5.333,6.4,12.8,7.467,19.2c0,3.2,0,6.4,2.133,7.467c2.133,2.133,3.2,4.267,4.267,6.4
		c1.067,2.133,2.133,3.2,2.133,5.333c1.067,2.133,1.067,3.2,0,4.267c1.067,1.067,1.067,2.133,2.133,4.267
		c1.067,2.133,3.2,2.133,5.333,2.133c2.133-1.067,4.267-1.067,6.4-1.067c3.2,0,6.4,1.067,10.667-1.067
		c1.067-1.067,3.2-1.067,4.267-2.133c3.2-3.2,6.4-6.4,8.533-10.667c1.067-1.067,2.133-2.133,3.2-4.267
		c2.133-2.133,3.2-5.333,2.133-7.467c-1.067-2.133,0-2.133,1.067-3.2c1.067,0,2.133-1.067,3.2-1.067
		c1.067-1.067,2.133-1.067,2.133-2.133c0-3.2,1.067-7.467-1.067-9.6c-1.067-2.133-1.067-3.2,1.067-4.267
		c1.067-1.067,2.133-2.133,4.267-3.2c1.067-1.067,2.133-2.133,3.2-3.2c3.2-1.067,5.333-2.133,7.467-5.333
		c1.067-1.067,1.067-3.2,1.067-4.267c0-3.2-1.067-5.333,0-8.533c0-1.067,0-2.133-1.067-3.2c-2.133-2.133-3.2-4.267-2.133-7.467
		c0-1.067,0-2.133,0-2.133c-1.067-1.067-1.067-3.2-1.067-4.267c1.067-1.067,1.067-2.133,2.133-4.267
		c1.067-5.333,6.4-7.467,8.533-10.667c2.133-3.2,5.333-4.267,8.533-6.4c4.267-4.267,8.533-8.533,10.667-13.867
		c0-1.067,1.067-1.067,1.067-2.133c2.133-3.2,3.2-5.333,3.2-9.6c0-2.133-1.067-2.133-2.133-1.067c-1.067,0-2.133,1.067-3.2,1.067
		c-2.133,1.067-4.267,1.067-7.467,2.133c-2.133,0-3.2,0-5.333,1.067c0,0-1.067,0-2.133-1.067c-1.067-1.067-2.133-2.133-3.2-3.2
		c1.067-1.067,1.067-2.133,0-3.2c-1.067-1.067-2.133-3.2-4.267-4.267c-1.067-1.067-2.133-1.067-3.2-2.133
		c-2.133-1.067-3.2-2.133-4.267-4.267c0-2.133-1.067-4.267-2.133-4.267c-2.133-2.133-3.2-4.267-3.2-7.467
		c0-2.133-1.067-4.267-2.133-5.333c-1.067-2.133-4.267-2.133-2.133-5.333l0,0c-1.067-2.133-2.133-3.2-3.2-5.333
		c-2.133-3.2-2.133-7.467-5.333-9.6c0,0,0-1.067-1.067-2.133c1.067,1.067,2.133,3.2,3.2,4.267c0,1.067,1.067,1.067,2.133,2.133
		c0-1.067,1.067-2.133,1.067-2.133c0,1.067,1.067,1.067,2.133,2.133c2.133,3.2,3.2,6.4,5.333,9.6c0,0,0,1.067,1.067,1.067
		c3.2,1.067,3.2,4.267,4.267,6.4c0,2.133,1.067,4.267,3.2,5.333c1.067,1.067,2.133,2.133,3.2,3.2s2.133,2.133,2.133,3.2
		c1.067,2.133,2.133,3.2,2.133,5.333c1.067,2.133,1.067,5.333,1.067,7.467l1.067,1.067c1.067,0,3.2,0,4.267-1.067
		c1.067,0,1.067-1.067,2.133-1.067c1.067,0,3.2-1.067,4.267-1.067c2.133-1.067,3.2-2.133,5.333-2.133
		c2.133-1.067,4.267-1.067,6.4-2.133c1.067,0,1.067-1.067,2.133-1.067c2.133,3.2,2.133,2.133,3.2,2.133c2.133-1.067,5.333,0,6.4-3.2
		h1.067c1.067-1.067,3.2-2.133,4.267-3.2c0,0,0-1.067,0-2.133s1.067-2.133,1.067-2.133c2.133-1.067,3.2-3.2,4.267-5.333v-1.067
		c-2.133-2.133-3.2-4.267-6.4-4.267c-2.133,0-3.2-2.133-3.2-4.267c0-1.067,0-2.133,0-3.2c-2.133,2.133-3.2,4.267-5.333,5.333
		l-1.067,1.067c-2.133,0-3.2,0-5.333,0c-1.067,0-1.067-1.067-1.067-2.133s0-2.133,0-3.2c0-1.067,0-1.067,0-2.133c0,0,0,0-1.067,0
		c0,1.067-1.067,2.133-1.067,3.2c-1.067-1.067-1.067-2.133-1.067-3.2s-1.067-1.067-1.067-2.133c-1.067-1.067-2.133-3.2-3.2-4.267
		c-2.133-3.2-2.133-3.2,0-6.4c0,0,0,0,0-1.067c1.067,1.067,3.2,1.067,3.2,2.133c1.067,1.067,2.133,3.2,3.2,5.333l1.067,1.067
		c2.133,1.067,3.2,2.133,5.333,3.2c1.067,1.067,6.4,1.067,7.467,0c1.067-1.067,2.133-1.067,3.2,1.067
		c1.067,2.133,2.133,3.2,4.267,3.2c1.067,0,3.2,0,4.267,1.067c1.067,0,3.2,1.067,5.333,1.067c4.267,0,7.467,0,11.733-1.067h1.067
		c2.133,2.133,3.2,3.2,5.333,5.333c1.067,1.067,2.133,1.067,4.267,1.067h1.067c0,0,0,0,0,1.067c-1.067,0-2.133,1.067-4.267,2.133
		c1.067,1.067,2.133,2.133,3.2,2.133c3.2,2.133,5.333,2.133,6.4-2.133c0-1.067,1.067-1.067,1.067-2.133c0,1.067,0,2.133,0,3.2
		c0,1.067,0,2.133,0,3.2c0,4.267,1.067,8.533,2.133,12.8c3.2,6.4,5.333,11.733,8.533,18.133c0,1.067,1.067,2.133,2.133,3.2
		c1.067,1.067,2.133,1.067,3.2,0c0-1.067,1.067-1.067,2.133-2.133c0,0,0-1.067,1.067-1.067c1.067-1.067,1.067-2.133,2.133-3.2
		c-1.067-3.2,2.133-6.4,1.067-10.667c0-1.067,0-1.067,0-2.133c0-1.067,1.067-1.067,1.067-1.067c1.067-1.067,3.2-2.133,4.267-3.2
		c3.2-3.2,6.4-5.333,10.667-8.533c0,0,2.133,0,2.133-1.067c0-2.133,2.133-3.2,3.2-3.2c1.067,1.067,2.133,1.067,2.133,1.067
		c3.2-16,5.333-32,5.333-49.067C511.967,190.933,493.834,140.8,463.967,100.267z"/>
	<path style="fill:#F3F3F3;" d="M161.034,25.6c1.067,1.067,1.067,1.067,1.067,3.2c0,1.067,0,2.133,1.067,3.2
		c1.067,2.133,1.067,4.267,2.133,7.467c0,1.067,0,2.133,1.067,3.2c3.2,1.067,3.2,3.2,0,8.533c0,0,1.067,0,1.067,1.067
		c-1.067,1.067-3.2,2.133-1.067,4.267c1.067,1.067,2.133,1.067,3.2,1.067c0-2.133,0-4.267,1.067-5.333
		c1.067,1.067,2.133,1.067,4.267,2.133c0,0-1.067,1.067-2.133,2.133c1.067,0,1.067,0,2.133,0c0,1.067,0,1.067-1.067,2.133
		c1.067,0,1.067,1.067,2.133,1.067c0,2.133,3.2,3.2,1.067,5.333c-5.333-2.133-5.333-2.133-8.533-2.133
		c1.067,3.2,4.267,4.267,6.4,5.333c1.067,0,1.067,0,2.133,0c3.2,0,3.2,0,2.133,3.2c0,1.067-1.067,2.133-1.067,3.2
		c1.067,0,1.067,0,2.133,1.067c-1.067,1.067-2.133,1.067-2.133,2.133v1.067c0,0,0,1.067,0,2.133c-2.133,1.067-3.2,0-4.267-1.067
		c-2.133-3.2-3.2-4.267-5.333-5.333c-1.067,1.067-2.133,1.067,0,3.2c0,0,0,1.067-1.067,1.067c0,0,0,1.067,1.067,2.133
		c0,0,1.067,0,2.133,1.067l-1.067,1.067h1.067l1.067,1.067c-2.133,2.133-3.2,7.467,0,8.533c-2.133,3.2,0,6.4,1.067,9.6
		c0,1.067,1.067,1.067,1.067,2.133c0,1.067,1.067,2.133,1.067,2.133c0,1.067,0,2.133,0,3.2c2.133,0,2.133-4.267,4.267-3.2
		c-1.067,1.067-1.067,2.133,0,2.133c-4.267,3.2-4.267,3.2-2.133,7.467c1.067,2.133,2.133,4.267,3.2,5.333
		c1.067,1.067,1.067,3.2,2.133,4.267s2.133,2.133,3.2,3.2c0,0,0,0,0,1.067c2.133,0,3.2-1.067,4.267-1.067
		c1.067,0,1.067,1.067,2.133,1.067c0,1.067,1.067,1.067,1.067,2.133c0,2.133,0,2.133,2.133,1.067c1.067,0,2.133,0,3.2,0
		c0-1.067,0-1.067,0-2.133s1.067-1.067,1.067-2.133c1.067-1.067,1.067-3.2,1.067-5.333c1.067-2.133,0-4.267-1.067-6.4
		c1.067,0,1.067-1.067,2.133-1.067c0,0,0-1.067,1.067-1.067c0-1.067,1.067-1.067,1.067-2.133s2.133-1.067,1.067-2.133l0,0
		c1.067-2.133,1.067-2.133,0-3.2c1.067,0,1.067,0,2.133,0c-1.067-1.067-2.133-3.2-2.133-4.267c1.067,0,2.133,0,3.2,0
		c1.067,0,0-2.133,0-3.2c1.067-2.133,2.133-1.067,3.2-1.067c1.067,0,2.133,0,1.067-2.133c0,0,0,0,0-1.067
		c0-1.067,1.067-2.133,1.067-3.2h1.067c0,1.067-1.067,1.067-1.067,1.067v1.067c1.067,0,2.133,0,3.2,0c1.067,0,3.2-1.067,2.133-2.133
		c3.2,3.2,4.267,3.2,5.333,2.133c1.067-1.067,1.067-2.133,2.133-3.2c0-1.067,0-1.067,1.067-2.133c1.067-2.133,1.067-3.2,3.2-4.267
		c1.067,0,2.133-1.067,1.067-3.2c-1.067-1.067-1.067-2.133-1.067-2.133l0,0c1.067,1.067,1.067,2.133,2.133,3.2l1.067,1.067
		c1.067-1.067,4.267,0,4.267-2.133c1.067,0,2.133,0,2.133,0c2.133-1.067,4.267-1.067,6.4-2.133c2.133-1.067,3.2-2.133,4.267-4.267
		l1.067-1.067c1.067-1.067,2.133-2.133,3.2-3.2c0-1.067,2.133-1.067,3.2-2.133c1.067,0,1.067-1.067,2.133-1.067
		c-3.2,0-6.4,0-8.533-2.133c-1.067,0-2.133,0-2.133,0c-2.133,1.067-4.267,1.067-6.4,2.133c0,0,0,0,0-1.067
		c1.067-1.067,3.2-2.133,4.267-2.133l0,0c-1.067,0-3.2,0-4.267,0c0-1.067,1.067-2.133,1.067-3.2c2.133,0,3.2-1.067,5.333-2.133
		c1.067,0,1.067-1.067,1.067-2.133c0,0-1.067-1.067-2.133-1.067c-3.2,0-3.2,0-3.2-3.2c2.133,1.067,5.333,2.133,7.467,4.267
		c1.067,1.067,2.133,3.2,2.133,4.267c1.067,2.133,1.067,3.2,3.2,3.2c0,0,1.067,0,2.133-1.067l2.133,1.067c0-3.2,0-5.333,0-7.467
		s-1.067-3.2-1.067-5.333l-1.067-1.067c-1.067,0-1.067-1.067-2.133-1.067c1.067,0,1.067-1.067,1.067-1.067
		c-1.067,0-2.133-1.067-3.2-1.067s-2.133-1.067-2.133-2.133c0-2.133-2.133-2.133-4.267-1.067c1.067-1.067,2.133-1.067,3.2-2.133
		c-2.133,0-3.2-1.067-4.267-1.067c2.133-2.133,5.333-4.267,7.467-6.4c1.067,1.067,2.133,3.2,4.267,4.267
		c1.067,1.067,4.267,0,5.333,0v-5.333c-1.067-1.067-3.2-1.067-5.333-2.133c0-2.133,1.067-3.2,1.067-4.267
		c2.133,1.067,4.267,2.133,7.467,3.2c0-1.067,1.067-2.133,0-3.2c0-2.133-3.2-1.067-4.267-2.133v-3.2c0,0-1.067,0-2.133,0
		c1.067-1.067,1.067-1.067,2.133-2.133c-1.067-1.067-2.133-2.133-3.2-2.133l0,0c2.133,0,3.2,2.133,6.4,3.2c0-2.133,0-4.267,0-5.333
		c-1.067-1.067-2.133-2.133-3.2-4.267c1.067,0,1.067-1.067,2.133-1.067l0,0c-4.267,0-5.333-4.267-7.467-6.4
		c1.067,0,3.2-1.067,4.267-1.067H245.3c-29.867,3.2-57.6,10.667-83.2,23.467l0,0C161.034,24.533,161.034,25.6,161.034,25.6z"/>
	<path style="fill:#F3F3F3;" d="M159.967,464c0-1.067,0-2.133-1.067-2.133c-1.067-1.067-1.067-1.067-2.133-2.133
		c2.133,0,4.267,1.067,6.4,2.133c4.267,1.067,4.267,0,7.467-3.2c2.133-3.2,3.2-6.4,6.4-8.533c1.067,0,1.067-1.067,1.067-2.133
		c1.067-2.133,2.133-4.267,3.2-5.333c2.133-2.133,3.2-5.333,2.133-8.533c0-1.067,1.067-3.2,1.067-4.267
		c1.067-1.067,2.133-2.133,3.2-3.2c3.2-1.067,6.4-4.267,9.6-4.267c1.067,0,3.2,0,4.267-1.067c2.133-1.067,2.133-4.267,4.267-5.333
		c2.133-3.2,2.133-6.4,3.2-9.6c1.067-2.133,0-4.267,0-7.467c0-2.133,0-4.267,2.133-5.333l1.067-1.067
		c1.067-1.067,2.133-3.2,3.2-4.267c4.267-3.2,5.333-7.467,4.267-12.8c0-1.067-1.067-2.133-3.2-2.133s-4.267-1.067-5.333-2.133
		c-1.067-1.067-2.133-1.067-2.133-2.133c-1.067-1.067-3.2-2.133-5.333-2.133s-4.267-1.067-5.333-1.067c-1.067,0-2.133,0-4.267,0
		c0-2.133-2.133-2.133-4.267-3.2c-1.067-1.067-3.2-1.067-4.267-1.067c-3.2,0-3.2,3.2-5.333,4.267c0,0,0,0-1.067-1.067
		c0,0,0,0,1.067,0c1.067-1.067,2.133-2.133,2.133-3.2c-1.067,0-2.133,0-3.2-1.067c-1.067,0-2.133,0-4.267,0
		c1.067-1.067,1.067-1.067,1.067-1.067c1.067-1.067,3.2-3.2,1.067-5.333v-1.067c-1.067-2.133-1.067-4.267-3.2-5.333
		c-3.2-2.133-6.4-4.267-10.667-4.267c-2.133,0-4.267,1.067-6.4-2.133c0,0-1.067,0-1.067-1.067c0,0-1.067,0-1.067-1.067
		c-1.067-3.2-3.2-4.267-6.4-4.267c0-2.133-1.067-3.2-3.2-3.2c-1.067,0-2.133-1.067-1.067-3.2c-2.133,0-4.267,1.067-6.4,1.067
		c-1.067,0-2.133,0-3.2,0c-1.067,0-2.133-1.067-3.2-1.067c-1.067,0-3.2,0-3.2-1.067c0,0-1.067,0-1.067-1.067
		c-1.067-1.067-2.133-1.067-4.267-2.133v1.067c0,0,0,0-1.067,0c-3.2,1.067-3.2,1.067-2.133,4.267c0,0,0,1.067-1.067,2.133H117.3
		c0-1.067,0-2.133,0-3.2s0-2.133,1.067-4.267l0,0c1.067,0,1.067-1.067,2.133-1.067c-1.067-1.067-2.133-1.067-3.2,0
		c-1.067,1.067-3.2,1.067-4.267,2.133c-1.067,1.067-3.2,1.067-4.267,1.067c-1.067,0-1.067,1.067-1.067,2.133
		s-1.067,2.133-1.067,2.133c-1.067,1.067-1.067,2.133-2.133,2.133c-1.067-1.067-1.067-1.067-2.133-2.133
		c-2.133-1.067-3.2-1.067-5.333,0c-3.2,0-5.333,2.133-7.467,0c-2.133-1.067-3.2-3.2-4.267-4.267c0-1.067,0-2.133,0-3.2
		c0-2.133,0-4.267,1.067-6.4c1.067-3.2,0-4.267-3.2-5.333c-2.133-1.067-5.333,0-8.533,0c-1.067,0-2.133,0-3.2,0
		c1.067-3.2,2.133-6.4,3.2-8.533c0-2.133,1.067-4.267,1.067-6.4c0,0,0-2.133-1.067-2.133s-3.2,0-4.267,0c-3.2,0-6.4,2.133-6.4,5.333
		l0,0c0,2.133,0,3.2-1.067,3.2c-1.067,1.067-3.2,0-5.333,1.067c-3.2,1.067-5.333,0-6.4-2.133c-2.133-3.2-5.333-7.467-4.267-11.733
		c0-1.067,0-2.133,0-3.2c0-1.067,0-3.2,1.067-3.2v-1.067c0-1.067-1.067-1.067-1.067-2.133c0-1.067,0-4.267,0-4.267
		c2.133,0,2.133-1.067,2.133-3.2c2.133,0,4.267-1.067,4.267-3.2c1.067,0,1.067,0,2.133,0c2.133,0,5.333-1.067,7.467,0
		c2.133,1.067,4.267,0,6.4,1.067c0-1.067,0-2.133-1.067-3.2c0,0-1.067,0-2.133,0l1.067-1.067c2.133,0,5.333,0,7.467,0
		c1.067,0,2.133,1.067,3.2,1.067s2.133,1.067,3.2,1.067c3.2-1.067,5.333,1.067,5.333,4.267c0,2.133,0,3.2,1.067,4.267
		c1.067,2.133,2.133,4.267,4.267,6.4c2.133,0,2.133-1.067,2.133-2.133c0-1.067,0-3.2,0-4.267c-1.067-3.2-2.133-6.4-3.2-8.533
		c-1.067-2.133,1.067-6.4,3.2-7.467c1.067-1.067,3.2-2.133,4.267-3.2l1.067-1.067c2.133-1.067,4.267-2.133,6.4-3.2
		c0-1.067,0-1.067,0-1.067c1.067,0,1.067-1.067,2.133-1.067c0,0,0,0,0-1.067c-1.067,0-1.067,0-2.133-1.067
		c1.067,0,1.067,0,2.133-1.067c-1.067-3.2-1.067-5.333-2.133-7.467l0,0c0-1.067,0-3.2,0-4.267c1.067,1.067,1.067,2.133,1.067,4.267
		c0,1.067,0,2.133,1.067,3.2c1.067-2.133,3.2-4.267,1.067-7.467l1.067,1.067c1.067-2.133,3.2-3.2,2.133-5.333
		c2.133,0,3.2-1.067,5.333-1.067c0,0,0,0,0-1.067c-1.067,0-2.133,0-3.2,1.067c0,0,0,0,0-1.067c3.2-1.067,5.333-1.067,8.533-2.133
		c0-1.067-1.067-2.133-1.067-3.2c1.067-2.133,1.067-4.267,3.2-5.333c1.067,0,1.067-1.067,2.133-2.133
		c2.133,1.067,4.267,0,4.267-2.133c0,0,0-1.067,1.067-1.067c2.133-1.067,4.267-1.067,6.4-2.133c0,0,0,1.067,0,2.133
		c-1.067,0-1.067,1.067-2.133,1.067c-2.133,1.067-2.133,4.267,1.067,5.333c2.133-4.267,7.467-5.333,11.733-6.4v-1.067
		c-1.067,0-2.133-1.067-4.267-1.067c-1.067,0-5.333-2.133-5.333-3.2c0-2.133-2.133-3.2,0-5.333c-1.067,0-3.2-1.067-4.267-1.067l0,0
		c1.067,0,1.067,0,2.133,0c1.067-1.067,3.2-1.067,3.2-2.133c0-2.133-1.067-2.133-3.2-2.133s-4.267,0-6.4,1.067
		c-2.133,2.133-4.267,3.2-7.467,5.333c2.133-2.133,4.267-4.267,6.4-6.4h1.067c1.067,0,1.067-1.067,2.133-1.067
		c1.067-1.067,2.133-2.133,2.133-2.133c4.267,0,7.467,0,11.733,0c2.133,0,5.333,0,6.4-2.133c2.133-2.133,3.2-3.2,6.4-4.267
		c3.2,0,4.267-2.133,3.2-5.333c0-1.067-1.067-2.133,0-2.133c1.067-1.067,0-2.133-1.067-2.133s-2.133,0-3.2-1.067
		c0,0,0-1.067,0-2.133c-1.067,0-2.133,1.067-4.267,1.067c-1.067-1.067-1.067-1.067,0-1.067c1.067,0,2.133-1.067,3.2-1.067v-1.067
		c-2.133-1.067-5.333-2.133-7.467-3.2c0-2.133,0-2.133-2.133-2.133c0,0-1.067,0-1.067-1.067c-1.067-1.067-2.133-2.133-2.133-3.2
		c1.067-1.067,2.133-2.133,2.133-2.133c0-1.067-1.067-3.2-2.133-4.267c0-1.067,0-2.133-1.067-2.133L142.9,156.8
		c0,0,0-1.067,1.067-1.067c-1.067,0-1.067,0-1.067,0c0-1.067,0-1.067,0-2.133s-1.067-2.133-1.067-3.2
		c-1.067-2.133-2.133-3.2-2.133-4.267l-1.067-1.067c-1.067,1.067-2.133,2.133-2.133,3.2c0,2.133-1.067,3.2-2.133,4.267
		c0,0-1.067,0-1.067,1.067c-1.067,1.067-2.133,2.133-3.2,3.2c-1.067-1.067-2.133-3.2-3.2-4.267c-1.067,0-2.133,0-3.2,1.067
		c1.067-1.067,1.067-1.067,1.067-2.133c-1.067-2.133,1.067-5.333-3.2-5.333c1.067,0,2.133,0,2.133,0v-7.467
		c-1.067,0-1.067,0-2.133,0c-1.067,0-1.067-1.067-2.133-1.067c-1.067,0-2.133-1.067-2.133-2.133c0-1.067-1.067-2.133-2.133-3.2
		c-1.067-2.133-3.2-4.267-5.333-2.133c-1.067,1.067-3.2,1.067-4.267,0c-1.067,0-2.133-1.067-3.2-1.067c-1.067,0-1.067,0-2.133,0
		c-2.133,1.067-1.067,3.2,1.067,5.333c-3.2,3.2-1.067,6.4,0,9.6c0,2.133,0,4.267-2.133,5.333s-1.067,2.133,0,2.133
		c3.2,1.067,3.2,4.267,4.267,6.4c0,2.133,1.067,3.2,1.067,5.333h1.067v1.067l-1.067,1.067c-1.067,2.133-2.133,4.267-4.267,5.333
		c-1.067,1.067-2.133,1.067-2.133,2.133c0,0,0,0,1.067,0c1.067,3.2,2.133,7.467,2.133,10.667l-1.067,1.067
		c0,1.067,0,1.067,1.067,2.133c-1.067,0-3.2-2.133-3.2,1.067c-1.067,0-2.133,0-2.133-1.067c0-2.133,0-3.2-3.2-3.2
		c0-1.067,0-1.067,0-2.133s-1.067-2.133-1.067-3.2c0-3.2,0-6.4,0-9.6c-2.133,0-3.2,0-4.267,0s-3.2,0-4.267-1.067
		c-1.067-2.133-3.2-2.133-5.333-3.2c-1.067,0-1.067-1.067-2.133-1.067c-3.2-4.267-7.467-6.4-12.8-5.333
		c-1.067-2.133-1.067-4.267-2.133-6.4c0-2.133-1.067-2.133-3.2-2.133c-1.067,0-2.133-1.067-2.133-1.067c0-3.2,0-6.4,1.067-9.6
		c0-1.067,0-2.133,1.067-4.267c3.2-1.067,4.267-4.267,5.333-7.467C62.9,128,63.967,128,65.034,128c1.067-1.067,0-2.133,0-3.2
		c1.067,0,2.133,0,2.133-2.133c0-1.067,0-2.133,2.133-1.067c1.067,0,3.2,0,3.2-1.067c2.133-3.2,3.2-5.333,4.267-7.467
		c-3.2-1.067-7.467,0-8.533-4.267c2.133,1.067,3.2,2.133,5.333,3.2c1.067,0,1.067,1.067,2.133,1.067s4.267-4.267,4.267-5.333
		c0,0,0-1.067-1.067-1.067c0,0,0-1.067-1.067-1.067H78.9c1.067,0,1.067,0,2.133,0c0,4.267,3.2,1.067,4.267,2.133
		c0-1.067,0-2.133-1.067-3.2c1.067-1.067,1.067,0,2.133,1.067c2.133-2.133,3.2-4.267,5.333-6.4c0-1.067,0-2.133,0-3.2
		c-1.067-2.133-2.133-4.267-3.2-6.4c3.2,0,4.267-1.067,2.133-3.2c0,0,1.067-1.067,1.067-2.133c-2.133,0-4.267-1.067-3.2-4.267
		l-1.067-1.067c-1.067,0-1.067,0-2.133,0c-1.067,2.133-2.133,4.267-4.267,5.333c0,0,0,0,1.067,1.067c0,1.067,0,2.133,0,2.133
		c-1.067,0-2.133,1.067-2.133,1.067C78.9,90.667,77.834,93.867,77.834,96c0,1.067-1.067,2.133-2.133,3.2
		c-1.067-2.133-2.133-3.2-3.2-4.267c-32,41.6-51.2,93.867-51.2,150.4c0,19.2,2.133,38.4,6.4,57.6c2.133,1.067,3.2,2.133,5.333,3.2
		c0,0,1.067,0,1.067,1.067c2.133,1.067,3.2,2.133,5.333,2.133c2.133,1.067,3.2,1.067,5.333,2.133c2.133,1.067,4.267,2.133,6.4,1.067
		c3.2-2.133,5.333-1.067,7.467,1.067c4.267,4.267,9.6,5.333,14.933,6.4c1.067,0,2.133,1.067,2.133,2.133
		c1.067,2.133,3.2,3.2,3.2,5.333c0,0,1.067,2.133,2.133,2.133c2.133-1.067,3.2,1.067,4.267,1.067
		c1.067,2.133,2.133,2.133,4.267,2.133c1.067,0,2.133,1.067,3.2,1.067c1.067,0,1.067,1.067,2.133,2.133l1.067-1.067
		C94.9,332.8,94.9,332.8,98.1,330.667c1.067,1.067,2.133,1.067,3.2,2.133c0,2.133,1.067,4.267,2.133,6.4
		c1.067,2.133-1.067,4.267,1.067,7.467c-1.067,1.067-2.133,2.133-4.267,3.2l0,0c-1.067,3.2-5.333,5.333-5.333,8.533l0,0
		c0,1.067,0,2.133,0,4.267c0,0,1.067,0,2.133,0c0,1.067,0,1.067-2.133,4.267c-1.067,1.067-1.067,5.333,0,6.4
		c3.2,3.2,5.333,6.4,7.467,10.667c1.067,2.133,2.133,4.267,3.2,6.4c1.067,1.067,1.067,3.2,2.133,4.267
		c0,1.067,1.067,1.067,1.067,1.067c2.133,3.2,5.333,4.267,8.533,6.4c3.2,2.133,7.467,3.2,6.4,8.533c0,6.4,0,11.733-1.067,18.133
		c0,2.133,0,4.267-1.067,5.333c-1.067,2.133-1.067,4.267-1.067,6.4c12.8,9.6,26.667,18.133,41.6,24.533c0-1.067,0-1.067-1.067-2.133
		C159.967,465.067,159.967,464,159.967,464z"/>
</g>
<g>
	<ellipse style="fill:#415A6B;" cx="136.5" cy="306.133" rx="38.4" ry="76.8"/>
	<path style="fill:#415A6B;" d="M222.9,232.533c0,0,3.2,68.267-8.533,92.8s-17.067,28.8-17.067,28.8s-27.733-72.533-27.733-74.667
		C169.567,277.333,222.9,232.533,222.9,232.533z"/>
	<path style="fill:#415A6B;" d="M229.3,214.4c0,0,11.733,34.133,5.333,73.6s-16,50.133-16,50.133s18.133-48,8.533-93.867"/>
</g>
<path style="fill:#FFD15C;" d="M213.3,233.6c0,0,5.333,57.6-6.4,80c0,0,10.667,29.867,24.533,42.667
	c14.933,12.8,14.933,12.8,14.933,12.8l-110.933,83.2L102.367,380.8c0,0,38.4-26.667,38.4-53.333c0,0-35.2-25.6-24.533-93.867
	c0,0,23.467-40.533,58.667-44.8C210.1,184.533,213.3,233.6,213.3,233.6z"/>
<path style="fill:#F7B64C;" d="M206.9,314.667c0,0-8.533,12.8-33.067,18.133s-33.067-6.4-33.067-6.4
	c0,17.067-16,34.133-27.733,43.733c16-1.067,42.667-4.267,59.733-14.933C199.434,338.133,206.9,314.667,206.9,314.667z"/>
<path style="fill:#F3705A;" d="M214.367,331.733c0,0-7.467,27.733-24.533,39.467c-17.067,11.733-44.8,38.4-44.8,38.4
	s-9.6-46.933-20.267-55.467S114.1,345.6,114.1,345.6s-38.4,9.6-51.2,13.867C49.034,363.733,42.634,371.2,33.034,384
	c-9.6,12.8-29.867,107.733-32,121.6s0,1.067,0,1.067H315.7c0,0,11.733-104.533-5.333-128c-17.067-23.467-44.8-18.133-55.467-24.533
	C244.234,347.733,228.234,334.933,214.367,331.733z"/>
<path style="fill:#E8EAE9;" d="M148.234,412.8c-2.133,2.133-6.4,1.067-7.467-2.133l0,0c-4.267-17.067-12.8-46.933-19.2-53.333
	L110.9,348.8l5.333-6.4l10.667,8.533c8.533,7.467,17.067,36.267,20.267,50.133c8.533-8.533,26.667-25.6,39.467-34.133
	c14.933-10.667,24.533-39.467,24.533-39.467c1.067,3.2,3.2,4.267,6.4,5.333c0,1.067-8.533,29.867-26.667,41.6
	C175.967,385.067,148.234,411.733,148.234,412.8L148.234,412.8z"/>
<path style="fill:#415A6B;" d="M173.834,203.733c0,0,28.8,19.2,37.333,33.067c7.467,13.867,14.933,54.4,0,86.4s-16,33.067-16,33.067
	S213.3,336,220.767,316.8c7.467-19.2,17.067-67.2,10.667-97.067c-5.333-28.8-19.2-59.733-50.133-55.467c0,0-34.133-22.4-66.133,25.6
	s-21.333,61.867-23.467,92.8c-2.133,29.867,5.333,33.067-3.2,55.467s-37.333,30.933-42.667,57.6s-2.133,51.2,4.267,62.933
	c0,0-2.133-19.2,0-33.067c0,0,5.333,50.133,27.733,77.867c0,0,4.267-57.6,24.533-101.333s33.067-44.8,27.733-71.467
	c-5.333-26.667-18.133-61.867-13.867-83.2C121.567,218.667,173.834,203.733,173.834,203.733z"/>
<g>
	<path style="fill:#F05540;" d="M104.5,248.533c0,0,4.267-3.2,7.467,0c4.267,2.133,16,34.133,1.067,35.2L104.5,248.533z"/>
	<path style="fill:#F05540;" d="M233.567,260.267c0,10.667-5.333,20.267-12.8,21.333c-3.2,0-8.533-6.4-8.533-17.067
		c0-10.667,5.333-20.267,8.533-20.267C232.5,242.133,233.567,249.6,233.567,260.267z"/>
	<path style="fill:#F05540;" d="M173.834,316.8l-1.067-4.267c37.333-5.333,52.267-38.4,52.267-39.467l4.267,2.133
		C228.234,276.267,212.234,310.4,173.834,316.8z"/>
</g>
<g>
	<path style="fill:#F3705A;" d="M219.7,188.8c0,0,5.333,28.8,5.333,43.733c0,14.933-5.333,19.2-7.467,30.933
		c-2.133,12.8,6.4,16,11.733,11.733c4.267-3.2,9.6-13.867,5.333-24.533c-2.133-6.4-4.267-12.8-5.333-19.2
		c-1.067-6.4-1.067-13.867-1.067-18.133C228.234,202.667,219.7,188.8,219.7,188.8z"/>
	<path style="fill:#F3705A;" d="M105.567,278.4c2.133,2.133,4.267,4.267,7.467,4.267c2.133,0,3.2-1.067,3.2-4.267
		c-1.067-6.4-6.4-21.333-9.6-27.733c-3.2-6.4-1.067-48,5.333-56.533c0,0-5.333,9.6-7.467,12.8c-2.133,4.267-7.467,25.6,0,44.8
		c0,0,0,2.133-1.067,6.4C101.3,262.4,100.234,270.933,105.567,278.4z"/>
</g>
<ellipse transform="matrix(-0.2576 -0.9663 0.9663 -0.2576 -86.6805 562.8982)" style="fill:#415A6B;" cx="172.908" cy="314.749" rx="6.4" ry="8.534"/>
<path style="fill:#F3705A;" d="M395.7,133.333v-32c-46.933,0-87.467,29.867-101.333,72.533c-4.267-10.667-6.4-22.4-6.4-35.2
	c0-59.733,48-107.733,107.733-107.733V0l82.133,66.133L395.7,133.333z"/>
<path style="fill:#415A6B;" d="M404.234,167.467V198.4c46.933,0,87.467-29.867,101.333-72.533c4.267,10.667,6.4,22.4,6.4,35.2
	c0,59.733-48,107.733-107.733,107.733v30.933L322.1,234.667L404.234,167.467z"/>
<g>
</g>
<g>
</g>
<g>
</g>
<g>
</g>
<g>
</g>
<g>
</g>
<g>
</g>
<g>
</g>
<g>
</g>
<g>
</g>
<g>
</g>
<g>
</g>
<g>
</g>
<g>
</g>
<g>
</g>
</svg>
