<?xml version="1.0" encoding="iso-8859-1"?>
<!-- Generator: Adobe Illustrator 19.0.0, SVG Export Plug-In . SVG Version: 6.00 Build 0)  -->
<svg version="1.1" id="Capa_1" xmlns="http://www.w3.org/2000/svg" xmlns:xlink="http://www.w3.org/1999/xlink" x="0px" y="0px"
	 viewBox="0 0 512 512" style="enable-background:new 0 0 512 512;" xml:space="preserve">
<rect x="182.4" y="232.533" style="fill:#CED6E0;" width="148.267" height="118.4"/>
<g>
	<polygon style="fill:#F3705A;" points="269.867,268.8 281.6,257.067 257.067,232.533 232.533,257.067 244.267,268.8 	"/>
	<polygon style="fill:#F3705A;" points="278.4,350.933 269.867,268.8 244.267,268.8 234.667,350.933 	"/>
</g>
<rect x="215.467" y="157.867" style="fill:#F7B64C;" width="81.067" height="74.667"/>
<path style="fill:#415A6B;" d="M331.733,90.667c0,40.533-34.133,73.6-75.733,73.6s-75.733-33.067-75.733-73.6
	C180.267,23.467,214.4,0,256,0S331.733,23.467,331.733,90.667z"/>
<g>
	<path style="fill:#FFD15C;" d="M292.267,35.2c-23.467,24.533-56.533,40.533-89.6,40.533c-3.2,0-6.4,0-9.6,0
		c-3.2,9.6-5.333,21.333-5.333,33.067c0,48,29.867,86.4,68.267,86.4s68.267-38.4,68.267-86.4
		C324.267,77.867,311.467,51.2,292.267,35.2z"/>
	
		<ellipse transform="matrix(0.179 -0.9839 0.9839 0.179 147.9756 414.0209)" style="fill:#FFD15C;" cx="322.057" cy="118.348" rx="23.468" ry="12.801"/>
	
		<ellipse transform="matrix(0.179 0.9839 -0.9839 0.179 270.7738 -89.4953)" style="fill:#FFD15C;" cx="189.01" cy="117.492" rx="23.468" ry="12.801"/>
</g>
<path style="fill:#4ABAA5;" d="M420.267,350.933l-23.467-102.4c-4.267-17.067-17.067-29.867-34.133-34.133L313.6,201.6L286.933,352
	h133.333V350.933z"/>
<path style="fill:#E8EAE9;" d="M296.533,180.267c0,0-9.6,32-40.533,52.267l25.6,27.733l27.733-53.333L296.533,180.267z"/>
<path style="fill:#66C6B9;" d="M298.667,350.933l38.4-93.867l-12.8-21.333l23.467-3.2L300.8,188.8
	c-2.133,41.6-10.667,99.2-23.467,162.133H298.667z"/>
<path style="fill:#4ABAA5;" d="M226.133,350.933l-26.667-150.4l-50.133,12.8c-17.067,4.267-29.867,18.133-34.133,34.133
	l-23.467,102.4h134.4V350.933z"/>
<path style="fill:#E8EAE9;" d="M215.467,180.267c0,0,9.6,32,40.533,52.267l-25.6,27.733l-27.733-53.333L215.467,180.267z"/>
<path style="fill:#66C6B9;" d="M174.933,257.067l38.4,93.867h21.333C222.933,288,213.333,231.467,211.2,188.8l-46.933,43.733
	l23.467,3.2L174.933,257.067z"/>
<g>
	<path style="fill:#415A6B;" d="M138.667,344.533C128,330.667,112,321.067,92.8,321.067s-35.2,9.6-45.867,23.467H138.667z"/>
	<polygon style="fill:#415A6B;" points="97.067,323.2 88.533,323.2 88.533,250.667 151.467,201.6 156.8,208 97.067,254.933 	"/>
</g>
<ellipse transform="matrix(0.7951 -0.6065 0.6065 0.7951 -92.6867 135.88)" style="fill:#344A5E;" cx="154.745" cy="205.107" rx="22.4" ry="17.067"/>
<polygon style="fill:#E8EAE9;" points="482.133,337.067 448,394.667 64,394.667 29.867,337.067 "/>
<rect x="73.6" y="394.667" style="fill:#CED6E0;" width="364.8" height="117.333"/>
<path style="fill:#E8EAE9;" d="M368,497.067V512H144v-14.933c19.2-17.067,30.933-27.733,50.133-44.8H316.8
	C337.067,469.333,347.733,478.933,368,497.067z"/>
<g>
</g>
<g>
</g>
<g>
</g>
<g>
</g>
<g>
</g>
<g>
</g>
<g>
</g>
<g>
</g>
<g>
</g>
<g>
</g>
<g>
</g>
<g>
</g>
<g>
</g>
<g>
</g>
<g>
</g>
</svg>
