<?xml version="1.0" encoding="iso-8859-1"?>
<!-- Generator: Adobe Illustrator 19.0.0, SVG Export Plug-In . SVG Version: 6.00 Build 0)  -->
<svg version="1.1" id="Capa_1" xmlns="http://www.w3.org/2000/svg" xmlns:xlink="http://www.w3.org/1999/xlink" x="0px" y="0px"
	 viewBox="0 0 512 512" style="enable-background:new 0 0 512 512;" xml:space="preserve">
<polygon style="fill:#FFD15C;" points="130.133,192.091 121.6,264.625 216.533,264.625 216.533,193.158 "/>
<path style="fill:#E8EAE9;" d="M221.867,331.825l-6.4-108.8H214.4c-6.4,17.067-42.667,28.8-42.667,28.8s-36.267-11.733-42.667-28.8
	l0,0l-6.4,108.8H221.867L221.867,331.825z"/>
<g>
	<path style="fill:#FFD15C;" d="M211.2,214.491v-57.6c5.333-10.667,8.533-37.333,8.533-37.333V53.425l-49.067-24.533l-41.6,24.533
		l-11.733,29.867l8.533,52.267c0,0,3.2,20.267,9.6,28.8v55.467L211.2,214.491z"/>
	
		<ellipse transform="matrix(0.24 -0.9708 0.9708 0.24 58.3873 305.0694)" style="fill:#FFD15C;" cx="224.03" cy="115.245" rx="20.267" ry="9.6"/>
	
		<ellipse transform="matrix(0.24 0.9708 -0.9708 0.24 206.4949 -23.9612)" style="fill:#FFD15C;" cx="118.551" cy="119.9" rx="20.267" ry="9.6"/>
</g>
<path style="fill:#415A6B;" d="M202.667,27.825c0,0-4.267-20.267-38.4-13.867s-48,28.8-50.133,40.533s-1.067,33.067,0,40.533
	c1.067,7.467,5.333,16,6.4,20.267c1.067,3.2,2.133,9.6,3.2,12.8h2.133c-1.067-3.2-2.133-9.6-1.067-12.8
	c0-5.333-1.067-14.933,2.133-20.267c2.133-4.267,1.067-10.667,0-13.867c-4.267-10.667,2.133-25.6,17.067-25.6
	c1.067,0,1.067,0,2.133,0c4.267,0,8.533,0,12.8-1.067c10.667-4.267,19.2-6.4,28.8-5.333C201.6,50.225,214.4,67.291,208,80.091
	c0,0-1.067,5.333,1.067,9.6c3.2,4.267,4.267,9.6,5.333,16c0,4.267,2.133,19.2,2.133,24.533h1.067
	c1.067-2.133,2.133-14.933,5.333-25.6c3.2-8.533,5.333-16,6.4-24.533C231.467,55.558,231.467,29.958,202.667,27.825z"/>
<path style="fill:#F7B64C;" d="M167.467,191.025c-20.267,0-33.067-26.667-33.067-26.667v53.333c5.333-2.133,17.067-5.333,25.6-8.533
	c42.667-16,50.133-53.333,50.133-53.333S194.133,191.025,167.467,191.025z"/>
<path style="fill:#415A6B;" d="M328.533,331.825c-5.333-20.267-11.733-48-12.8-68.267c-2.133-34.133-12.8-36.267-12.8-36.267
	l-33.067-4.267c-12.8,11.733-13.867,59.733-10.667,108.8H328.533L328.533,331.825z"/>
<g>
	<path style="fill:#344A5E;" d="M274.133,331.825c-1.067-12.8-2.133-23.467-1.067-30.933C275.2,267.825,304,226.225,304,226.225
		c-22.4-10.667-75.733-20.267-75.733-20.267l-34.133,124.8h80V331.825z"/>
	<path style="fill:#344A5E;" d="M206.933,331.825c5.333-16,10.667-29.867,13.867-36.267c5.333-11.733,10.667-34.133,13.867-49.067
		c3.2-14.933,1.067-32-6.4-45.867c-4.267-7.467-9.6-14.933-17.067-19.2c0,0-1.067,32-7.467,53.333
		c-3.2,12.8-11.733,56.533-16,97.067H206.933z"/>
</g>
<path style="fill:#415A6B;" d="M85.333,331.825c3.2-49.067,2.133-97.067-10.667-108.8l-32,4.267c0,0-9.6,2.133-12.8,36.267
	c-1.067,20.267-7.467,48-12.8,68.267L85.333,331.825L85.333,331.825z"/>
<g>
	<path style="fill:#344A5E;" d="M71.467,331.825h81.067l-34.133-124.8c0,0-54.4,9.6-75.733,20.267c0,0,28.8,41.6,30.933,74.667
		C73.6,308.358,72.533,319.025,71.467,331.825z"/>
	<path style="fill:#344A5E;" d="M124.8,295.558c3.2,6.4,8.533,20.267,13.867,36.267h20.267c-5.333-40.533-12.8-85.333-16-97.067
		c-6.4-21.333-7.467-53.333-7.467-53.333c-7.467,5.333-13.867,12.8-17.067,19.2c-7.467,13.867-9.6,30.933-6.4,45.867
		C114.133,261.425,119.467,283.825,124.8,295.558z"/>
</g>
<g>
	<path style="fill:#E8EAE9;" d="M124.8,97.158l3.2,38.4c0,2.133-1.067,4.267-4.267,4.267c-2.133,0-4.267-1.067-4.267-4.267
		l-2.133-37.333c0-2.133,1.067-4.267,4.267-4.267l0,0C122.667,93.958,124.8,95.025,124.8,97.158z"/>
	<path style="fill:#E8EAE9;" d="M225.067,98.225l-3.2,37.333c0,2.133-2.133,4.267-4.267,4.267c-2.133,0-4.267-2.133-4.267-4.267
		l3.2-38.4c0-2.133,2.133-4.267,4.267-4.267l0,0C224,93.958,226.133,96.091,225.067,98.225z"/>
</g>
<g>
	<path style="fill:#66C6B9;" d="M117.333,107.825l2.133,28.8c-7.467,1.067-13.867-5.333-13.867-11.733l-1.067-11.733
		c0-1.067,0-2.133,0-3.2c1.067-6.4,2.133-10.667,2.133-16c0-8.533,2.133-16,5.333-23.467c0,6.4,0,13.867,1.067,18.133
		c0,3.2-1.067,6.4,0,9.6c1.067,0,1.067-1.067,2.133-1.067c1.067,0,1.067,0,2.133,0V107.825z"/>
	<path style="fill:#66C6B9;" d="M237.867,112.091l-1.067,11.733c-1.067,7.467-6.4,12.8-13.867,11.733l3.2-37.333
		c1.067,0,3.2,0,4.267,1.067c0-5.333,0-9.6-1.067-13.867c1.067-3.2,1.067-7.467,1.067-11.733c0-1.067,0-1.067,0-2.133
		c3.2,6.4,4.267,13.867,5.333,21.333c0,5.333,1.067,10.667,2.133,16C237.867,109.958,237.867,111.025,237.867,112.091z"/>
</g>
<rect y="313.691" style="fill:#ADB3BA;" width="345.6" height="25.6"/>
<path style="fill:#CED6E0;" d="M257.067,232.625l-11.733,81.067H100.267l-11.733-81.067c0-4.267,2.133-7.467,6.4-7.467h155.733
	C254.933,225.158,257.067,229.425,257.067,232.625z"/>
<path style="fill:#ADB3BA;" d="M185.6,272.091c0,4.267-5.333,7.467-12.8,7.467c-7.467,0-12.8-3.2-12.8-7.467s5.333-7.467,12.8-7.467
	C180.267,264.625,185.6,267.825,185.6,272.091z"/>
<path style="fill:#F7B64C;" d="M292.267,331.825c0,0,11.733-28.8,43.733-66.133c32,36.267,43.733,66.133,43.733,66.133v20.267
	c3.2,6.4-3.2,34.133-43.733,54.4c-39.467-30.933-46.933-51.2-43.733-54.4V331.825z"/>
<path style="fill:#CED6E0;" d="M403.2,485.425l4.267-78.933H336c-36.267,3.2-58.667,66.133-62.933,78.933H403.2z"/>
<path style="fill:#415A6B;" d="M334.933,182.491c-43.733,0-78.933,38.4-78.933,86.4c0,7.467,1.067,14.933,3.2,22.4v2.133h2.133
	v-11.733c-1.067-4.267-1.067-8.533-1.067-11.733c0-44.8,33.067-81.067,73.6-81.067s73.6,36.267,73.6,81.067
	c0,5.333,0,9.6-1.067,14.933v9.6h3.2v-2.133c2.133-7.467,3.2-14.933,3.2-22.4C413.867,220.891,378.667,182.491,334.933,182.491z"/>
<ellipse style="fill:#FFD15C;" cx="336" cy="278.491" rx="67.2" ry="86.4"/>
<path style="fill:#F3705A;" d="M269.867,283.825c0-2.133,2.133-24.533,16-48s28.8-34.133,28.8-34.133s10.667,10.667,27.733,20.267
	c18.133,9.6,48,30.933,52.267,46.933c4.267,16,4.267,22.4,4.267,22.4s9.6-21.333,7.467-50.133c-2.133-29.867-25.6-59.733-48-68.267
	c-22.4-9.6-50.133,5.333-50.133,5.333s-21.333,3.2-32,25.6S269.867,283.825,269.867,283.825z"/>
<path style="fill:#66C6B9;" d="M404.267,269.958v36.267c6.4-1.067,12.8-8.533,12.8-18.133
	C417.067,278.491,410.667,271.025,404.267,269.958z"/>
<path style="fill:#415A6B;" d="M395.733,269.958v36.267c0,2.133,2.133,4.267,5.333,4.267l0,0c3.2,0,5.333-2.133,5.333-4.267v-36.267
	c0-2.133-2.133-4.267-5.333-4.267l0,0C397.867,265.691,395.733,267.825,395.733,269.958z"/>
<path style="fill:#66C6B9;" d="M265.6,269.958v36.267c-6.4-1.067-12.8-8.533-12.8-18.133C252.8,278.491,259.2,271.025,265.6,269.958
	z"/>
<path style="fill:#415A6B;" d="M274.133,269.958v36.267c0,2.133-2.133,4.267-5.333,4.267l0,0c-3.2,0-5.333-2.133-5.333-4.267
	v-36.267c0-2.133,2.133-4.267,5.333-4.267l0,0C272,265.691,274.133,267.825,274.133,269.958z"/>
<path style="fill:#344A5E;" d="M497.067,485.425l-14.933-60.8c-4.267-18.133-17.067-32-35.2-38.4l-51.2-19.2l-24.533,118.4H497.067z
	"/>
<path style="fill:#F3F3F3;" d="M378.667,352.091c0,0-7.467,23.467-43.733,54.4l43.733,50.133l17.067-73.6L378.667,352.091z"/>
<path style="fill:#415A6B;" d="M381.867,485.425c12.8-22.4,24.533-45.867,32-70.4L400,406.491l24.533-12.8
	c0,0-22.4-23.467-42.667-35.2c0,0-12.8,96-23.467,124.8c0,1.067-1.067,2.133-1.067,3.2h24.533V485.425z"/>
<path style="fill:#344A5E;" d="M299.733,485.425l-24.533-118.4l-51.2,19.2c-17.067,6.4-29.867,21.333-35.2,38.4l-14.933,60.8
	H299.733z"/>
<path style="fill:#F3F3F3;" d="M292.267,352.091c-1.067,1.067,17.067,29.867,43.733,54.4l-43.733,50.133l-17.067-73.6
	L292.267,352.091z"/>
<path style="fill:#415A6B;" d="M257.067,415.025c8.533,24.533,19.2,48,32,70.4H313.6c0-1.067-1.067-2.133-1.067-3.2
	c-11.733-29.867-23.467-124.8-23.467-124.8c-19.2,11.733-42.667,35.2-42.667,35.2l24.533,12.8L257.067,415.025z"/>
<rect x="158.933" y="473.691" style="fill:#66C6B9;" width="353.067" height="25.6"/>
<path style="fill:#E8EAE9;" d="M434.133,378.758l-12.8,94.933H250.667L236.8,378.758c-1.067-4.267,3.2-8.533,7.467-8.533H425.6
	C430.933,370.225,434.133,373.425,434.133,378.758z"/>
<path style="fill:#ADB3BA;" d="M349.867,424.625c0,5.333-6.4,9.6-14.933,9.6c-8.533,0-14.933-4.267-14.933-9.6s6.4-9.6,14.933-9.6
	C343.467,415.025,349.867,419.291,349.867,424.625z"/>
<g>
</g>
<g>
</g>
<g>
</g>
<g>
</g>
<g>
</g>
<g>
</g>
<g>
</g>
<g>
</g>
<g>
</g>
<g>
</g>
<g>
</g>
<g>
</g>
<g>
</g>
<g>
</g>
<g>
</g>
</svg>
