<?xml version="1.0" encoding="iso-8859-1"?>
<!-- Generator: Adobe Illustrator 19.0.0, SVG Export Plug-In . SVG Version: 6.00 Build 0)  -->
<svg version="1.1" id="Capa_1" xmlns="http://www.w3.org/2000/svg" xmlns:xlink="http://www.w3.org/1999/xlink" x="0px" y="0px"
	 viewBox="0 0 513.018 513.018" style="enable-background:new 0 0 513.018 513.018;" xml:space="preserve">
<g>
	<path style="fill:#66C6B9;" d="M495.951,35.709h-416c-9.6,0-17.067-7.467-17.067-17.067l0,0c-1.067-10.667,6.4-18.133,16-18.133
		h416c10.667,0,18.133,7.467,18.133,17.067l0,0C513.018,27.176,505.551,35.709,495.951,35.709z"/>
	<path style="fill:#66C6B9;" d="M495.951,420.776h-416c-9.6,0-17.067-7.467-17.067-17.067l0,0c0-9.6,7.467-17.067,17.067-17.067h416
		c9.6,0,17.067,7.467,17.067,17.067l0,0C513.018,413.309,505.551,420.776,495.951,420.776z"/>
</g>
<rect x="87.418" y="35.709" style="fill:#E8EAE9;" width="400" height="350.933"/>
<polygon style="fill:#F3705A;" points="426.618,276.776 421.285,269.309 358.351,309.842 341.285,283.176 277.285,324.776 
	254.885,290.642 145.018,363.176 137.551,351.442 259.151,271.442 281.551,305.576 345.551,262.909 362.618,290.642 
	413.818,257.576 407.418,249.042 438.351,249.042 "/>
<path style="fill:#FFD15C;" d="M169.551,314.109c0,0-14.933,44.8-20.267,56.533c-5.333,11.733-5.333,11.733-5.333,11.733
	l-62.933-46.933l-1.067-16l89.6-41.6c0,0,4.267,20.267,3.2,26.667C172.751,310.909,169.551,314.109,169.551,314.109z"/>
<path style="fill:#344A5E;" d="M219.685,512.509c-1.067-7.467-1.067-12.8-1.067-12.8c-51.2-18.133-18.133-115.2-18.133-115.2
	s-18.133-10.667-39.467-16c-20.267-5.333-92.8-20.267-103.467-28.8s-48,7.467-55.467,40.533c-6.4,29.867,3.2,82.133,11.733,132.267
	H219.685z"/>
<g>
	<path style="fill:#415A6B;" d="M187.685,501.842c13.867,1.067,30.933,4.267,41.6,8.533c1.067,1.067,3.2,1.067,5.333,2.133h78.933
		c0-2.133,1.067-3.2,2.133-5.333c4.267-11.733,1.067-32-6.4-40.533s-27.733-20.267-41.6-19.2c-12.8,0-48-28.8-48-28.8
		c-3.2-21.333-19.2-38.4-28.8-37.333c-9.6,1.067-33.067,28.8-39.467,59.733c-2.133,12.8,0,25.6,3.2,35.2
		C157.818,490.109,171.685,499.709,187.685,501.842z"/>
	<path style="fill:#415A6B;" d="M62.885,341.842c0,0,26.667,10.667,36.267,21.333c0,0,29.867-4.267,39.467,0
		c0,0-22.4-17.067-38.4-27.733c-9.6-6.4-16-7.467-19.2-7.467c-2.133,0-4.267,1.067-5.333,2.133
		C69.285,333.309,65.018,337.576,62.885,341.842z"/>
	<path style="fill:#415A6B;" d="M81.018,319.442c0,0,30.933,25.6,64,5.333c5.333-3.2,9.6-8.533,12.8-14.933
		c3.2-9.6,11.733-23.467,23.467-22.4c0,0,6.4-37.333-6.4-53.333c-12.8-16-36.267-24.533-56.533-19.2
		c-20.267,5.333-42.667,17.067-42.667,53.333S81.018,319.442,81.018,319.442z"/>
</g>
<path style="fill:#FFD15C;" d="M180.218,301.309c-2.133,9.6-7.467,17.067-11.733,16c-4.267-1.067-5.333-9.6-2.133-19.2
	c3.2-9.6,7.467-17.067,11.733-16C182.351,283.176,182.351,291.709,180.218,301.309z"/>
<path style="fill:#F7B64C;" d="M279.418,118.909V69.842c-17.067,2.133-34.133,8.533-46.933,19.2l34.133,34.133
	C270.885,121.042,275.151,118.909,279.418,118.909z"/>
<path style="fill:#415A6B;" d="M324.218,146.642h48c-4.267-40.533-36.267-73.6-76.8-76.8v48
	C310.351,121.042,321.018,132.776,324.218,146.642z"/>
<path style="fill:#55C0EB;" d="M295.418,191.442v48c40.533-4.267,73.6-36.267,76.8-76.8h-48
	C321.018,177.576,310.351,189.309,295.418,191.442z"/>
<path style="fill:#F3705A;" d="M249.551,155.176c0-7.467,2.133-14.933,6.4-20.267l-34.133-34.133
	c-11.733,14.933-19.2,34.133-19.2,54.4c0,44.8,34.133,81.067,77.867,85.333v-48C262.351,188.242,249.551,173.309,249.551,155.176z"
	/>
<g>
</g>
<g>
</g>
<g>
</g>
<g>
</g>
<g>
</g>
<g>
</g>
<g>
</g>
<g>
</g>
<g>
</g>
<g>
</g>
<g>
</g>
<g>
</g>
<g>
</g>
<g>
</g>
<g>
</g>
</svg>
