<?xml version="1.0" encoding="iso-8859-1"?>
<!-- Generator: Adobe Illustrator 19.0.0, SVG Export Plug-In . SVG Version: 6.00 Build 0)  -->
<svg version="1.1" id="Capa_1" xmlns="http://www.w3.org/2000/svg" xmlns:xlink="http://www.w3.org/1999/xlink" x="0px" y="0px"
	 viewBox="0 0 512 512" style="enable-background:new 0 0 512 512;" xml:space="preserve">
<path style="fill:#415A6B;" d="M298.667,81.067c0,88.533-37.333,151.467-84.267,151.467s-84.267-61.867-84.267-151.467
	C130.133,7.467,167.467,0,214.4,0S298.667,6.4,298.667,81.067z"/>
<path style="fill:#F7B64C;" d="M160,179.2l-1.067,46.933c0,0-10.667,49.067,5.333,81.067c56.533-11.733,118.4-19.2,99.2-81.067
	V179.2H160z"/>
<polygon style="fill:#CED6E0;" points="268.8,467.2 321.067,293.333 192,293.333 131.2,277.333 134.4,467.2 "/>
<polygon style="fill:#F3705A;" points="244.267,467.2 227.2,339.2 195.2,339.2 178.133,467.2 "/>
<polygon style="fill:#F05540;" points="227.2,339.2 242.133,324.267 211.2,293.333 180.267,324.267 195.2,339.2 "/>
<path style="fill:#F3F3F3;" d="M158.933,226.133c0,0-4.267,14.933,0,23.467c4.267,9.6,52.267,42.667,52.267,42.667l-44.8,45.867
	l-28.8-58.667l8.533-33.067c1.067-5.333,3.2-9.6,6.4-13.867C154.667,230.4,156.8,228.267,158.933,226.133z"/>
<path style="fill:#344A5E;" d="M163.2,467.2l-28.8-134.4l-3.2-62.933l-85.333,38.4c-22.4,9.6-37.333,30.933-38.4,55.467L0,467.2
	H163.2z"/>
<path style="fill:#415A6B;" d="M135.467,467.2h41.6c-8.533-48-18.133-104.533-23.467-124.8c-9.6-36.267-6.4-98.133-6.4-98.133
	c-4.267,2.133-11.733,16-11.733,16c-8.533,9.6-14.933,21.333-20.267,33.067c-6.4,17.067-16,37.333-16,37.333l24.533-1.067
	L92.8,357.333L135.467,467.2z"/>
<path style="fill:#F3F3F3;" d="M264.533,226.133c0,0,4.267,14.933,0,23.467s-52.267,42.667-52.267,42.667l44.8,45.867l28.8-58.667
	l-8.533-33.067c-1.067-5.333-3.2-9.6-6.4-13.867C268.8,230.4,266.667,228.267,264.533,226.133z"/>
<path style="fill:#344A5E;" d="M423.467,467.2L416,363.733c-2.133-24.533-16-45.867-38.4-55.467l-85.333-38.4l-3.2,62.933
	l-28.8,134.4L423.467,467.2L423.467,467.2z"/>
<path style="fill:#415A6B;" d="M246.4,467.2H288l42.667-110.933l-32-26.667l24.533,1.067c0,0-8.533-21.333-16-37.333
	c-5.333-11.733-11.733-22.4-20.267-33.067c0,0-7.467-13.867-11.733-16c0,0,3.2,61.867-6.4,98.133
	C264.533,362.667,254.933,420.267,246.4,467.2z"/>
<g>
	<path style="fill:#FFD15C;" d="M290.133,133.333c-2.133-7.467-3.2-16-4.267-23.467c-21.333-7.467-36.267-22.4-43.733-41.6
		c-13.867,17.067-34.133,26.667-60.8,26.667c-11.733,0-22.4-2.133-32-5.333c-4.267,9.6-8.533,36.267-7.467,39.467
		c-2.133,8.533-3.2,18.133-3.2,27.733c0,56.533,33.067,102.4,73.6,102.4s73.6-45.867,73.6-102.4c0-2.133,0-3.2,0-5.333
		C290.133,147.2,292.267,140.8,290.133,133.333z"/>
	
		<ellipse transform="matrix(0.1366 0.9906 -0.9906 0.1366 276.8204 -3.1454)" style="fill:#FFD15C;" cx="140.215" cy="157.234" rx="28.799" ry="12.8"/>
	
		<ellipse transform="matrix(0.1366 -0.9906 0.9906 0.1366 96.0612 423.902)" style="fill:#FFD15C;" cx="291.215" cy="156.843" rx="28.799" ry="12.8"/>
</g>
<path style="fill:#66C6B9;" d="M512,498.133C512,505.6,505.6,512,498.133,512H330.667c-7.467,0-13.867-6.4-13.867-13.867
	s6.4-13.867,13.867-13.867h167.467C505.6,483.2,512,489.6,512,498.133z"/>
<path style="fill:#E8EAE9;" d="M389.333,376.533c-25.6-18.133-60.8-49.067-60.8-85.333H499.2c0,35.2-35.2,67.2-60.8,85.333
	c-8.533,5.333-7.467,17.067,0,22.4c25.6,18.133,60.8,49.067,60.8,85.333H328.533c0-36.267,35.2-67.2,60.8-85.333
	C397.867,393.6,397.867,381.867,389.333,376.533z"/>
<path style="fill:#FFD15C;" d="M365.867,334.933c12.8,14.933,30.933,27.733,48,38.4c17.067-10.667,35.2-23.467,48-38.4H365.867z"/>
<path style="fill:#66C6B9;" d="M512,277.333c0,7.467-6.4,13.867-13.867,13.867H329.6c-7.467,0-13.867-6.4-13.867-13.867
	c0-7.467,6.4-13.867,13.867-13.867h167.467C505.6,262.4,512,268.8,512,277.333z"/>
<path style="fill:#FFD15C;" d="M347.733,483.2c9.6-24.533,38.4-49.067,66.133-66.133C441.6,434.133,470.4,458.667,480,483.2H347.733
	z"/>
<g>
</g>
<g>
</g>
<g>
</g>
<g>
</g>
<g>
</g>
<g>
</g>
<g>
</g>
<g>
</g>
<g>
</g>
<g>
</g>
<g>
</g>
<g>
</g>
<g>
</g>
<g>
</g>
<g>
</g>
</svg>
