<?xml version="1.0" encoding="iso-8859-1"?>
<!-- Generator: Adobe Illustrator 19.0.0, SVG Export Plug-In . SVG Version: 6.00 Build 0)  -->
<svg version="1.1" id="Capa_1" xmlns="http://www.w3.org/2000/svg" xmlns:xlink="http://www.w3.org/1999/xlink" x="0px" y="0px"
	 viewBox="0 0 512.167 512.167" style="enable-background:new 0 0 512.167 512.167;" xml:space="preserve">
<ellipse style="fill:#344A5E;" cx="472.701" cy="160.211" rx="12.8" ry="33.067"/>
<polygon style="fill:#ADB3BA;" points="165.501,404.478 460.968,422.611 511.101,337.278 511.101,200.744 229.501,187.944 
	159.101,225.278 "/>
<polygon style="fill:#A5AAAD;" points="503.634,200.744 453.501,459.944 447.101,459.944 447.101,198.611 "/>
<polygon style="fill:#ADB3BA;" points="511.101,200.744 512.167,403.411 453.501,459.944 453.501,198.611 "/>
<polygon style="fill:#CED6E0;" points="159.101,223.144 159.101,463.145 165.501,463.145 212.434,223.144 "/>
<polygon style="fill:#A5AAAD;" points="165.501,223.144 165.501,463.145 224.167,407.678 223.101,223.144 "/>
<path style="fill:#344A5E;" d="M497.234,106.878c0,0-13.867,8.533-18.133,19.2c-5.333,11.733-7.467,29.867-7.467,29.867
	l-8.533,59.733c0,0-52.267-1.067-57.6-14.933c-5.333-13.867,8.533-30.933,13.867-39.467c4.267-8.533,44.8-74.667,44.8-74.667h1.067
	c0,0,10.667,5.333,16,8.533c4.267,3.2,8.533,7.467,11.733,8.533C494.034,105.811,497.234,106.878,497.234,106.878z"/>
<ellipse style="fill:#415A6B;" cx="458.834" cy="84.477" rx="2.133" ry="4.267"/>
<path style="fill:#344A5E;" d="M389.501,79.144l1.067-4.267c0,0,4.267,0,7.467,1.067c3.2,1.067,20.267-1.067,23.467,0
	c0,0-4.267,29.867-4.267,37.333s-1.067,42.667-1.067,48s-8.533,45.867-18.133,50.133c-7.467,3.2-26.667-8.533-32-12.8
	c-1.067-1.067-1.067-2.133-1.067-3.2c4.267-7.467,17.067-34.133,19.2-44.8c2.133-12.8,2.133-23.467,2.133-23.467
	s-2.133-22.4-1.067-32C386.301,86.611,389.501,79.144,389.501,79.144z"/>
<polygon style="fill:#CED6E0;" points="511.101,200.744 453.501,242.344 159.101,225.278 229.501,187.944 "/>
<path style="fill:#415A6B;" d="M261.501,221.011l-20.267-56.533v-1.067l8.533-17.067h1.067l18.133,51.2L261.501,221.011z"/>
<path style="fill:#344A5E;" d="M330.834,198.611l-5.333,17.067c-1.067,3.2-6.4,3.2-9.6,3.2c-3.2,0-51.2,1.067-53.333,0
	c-2.133-1.067-2.133-2.133-2.133-2.133l8.533-17.067l59.733-3.2C329.767,196.477,330.834,197.544,330.834,198.611z"/>
<g>
	<path style="fill:#415A6B;" d="M322.301,203.944l-3.2,9.6c0,0-7.467,0-10.667,0l2.133-8.533L322.301,203.944z"/>
	<path style="fill:#415A6B;" d="M307.367,200.744l-4.267,14.933c-11.733,0-25.6,0-34.133,0c-2.133,0-3.2,0-4.267,0l6.4-13.867
		L307.367,200.744z"/>
	<path style="fill:#415A6B;" d="M260.434,218.878v-2.133c0,0,0,1.067,2.133,1.067c2.133,0,58.667,1.067,59.733,0
		c2.133-1.067,2.133-1.067,3.2-2.133c0,0-1.067,4.267-4.267,4.267s-49.067,1.067-58.667,0
		C261.501,221.011,260.434,219.944,260.434,218.878z"/>
</g>
<polygon style="fill:#CED6E0;" points="266.834,194.344 260.434,210.344 243.367,163.411 250.834,149.544 "/>
<path style="fill:#415A6B;" d="M418.301,78.077l-6.4,10.667l4.267,4.267l-10.667,4.267c0,0,4.267,30.933,6.4,40.533
	c1.067,7.467,4.267,22.4,4.267,35.2c0-1.067,1.067-2.133,2.133-2.133c2.133-6.4,4.267-17.067,4.267-27.733
	c1.067-18.133,3.2-62.933,3.2-62.933L418.301,78.077z"/>
<path style="fill:#CED6E0;" d="M305.234,150.611c0,0,4.267,28.8,11.733,22.4s7.467-18.133,7.467-18.133
	S324.434,142.077,305.234,150.611z"/>
<g>
	<path style="fill:#344A5E;" d="M62.034,441.811L62.034,441.811c-1.067,0-2.133-1.066-2.133-3.2l23.467-94.933l4.267,1.067
		l-23.467,94.934C64.167,440.744,63.101,441.811,62.034,441.811z"/>
	<path style="fill:#344A5E;" d="M175.101,436.478l-27.733-96l4.267-1.067l27.733,96c0,1.066,0,2.133-2.133,3.2l0,0
		C177.234,437.544,176.167,437.544,175.101,436.478z"/>
	<path style="fill:#344A5E;" d="M80.167,323.411c-30.933-2.133-30.933-35.2-30.933-35.2h4.267c0,1.067,0,28.8,26.667,30.933V323.411
		z"/>
</g>
<path style="fill:#F3705A;" d="M76.968,309.544c0,0-10.667,7.467-16,19.2c-5.333,12.8-2.133,18.133,2.133,20.267
	c5.333,1.067,84.267,6.4,82.133-12.8C145.234,315.944,134.567,294.611,76.968,309.544z"/>
<path style="fill:#415A6B;" d="M73.767,353.278c-8.533,0-14.933-1.067-17.067-2.133c-14.933-8.533-18.133-28.8-18.133-29.867
	l4.267-1.067c0,0,3.2,19.2,16,26.667c8.533,4.267,70.4-2.133,80-4.267c6.4-1.067,11.733-8.533,12.8-8.533l3.2,3.2
	c0,0-7.467,8.533-14.933,10.667C135.634,349.011,97.234,353.278,73.767,353.278z M40.701,321.278h2.133l0,0H40.701z"/>
<path style="fill:#F3705A;" d="M18.301,219.944c0,0,3.2-1.067,5.333,0c3.2,1.067,9.6,4.267,16,14.933
	c6.4,10.667,19.2,38.4,20.267,50.133c1.067,11.733-5.333,21.333-6.4,23.467c-1.067,3.2-1.067,5.333-1.067,7.467
	s-3.2,8.533-7.467,8.533c-2.133,0-28.8-61.867-28.8-61.867s-13.867-27.733-13.867-32C2.301,226.344,12.968,219.944,18.301,219.944z"
	/>
<path style="fill:#415A6B;" d="M264.701,446.077l3.2,3.2c0,0,1.067,3.2-7.467,7.467c-6.4,2.133-29.867,7.467-40.533,5.333
	c-10.667-1.066-34.133-9.6-37.333-10.667l6.4-9.6L264.701,446.077z"/>
<path style="fill:#2D4456;" d="M183.634,449.277c0,0,30.933,14.934,55.467,10.667c24.533-5.333,32-7.467,26.667-12.8
	c-5.333-5.333-13.867-4.267-21.333-7.467c-7.467-3.2-19.2-7.467-22.4-13.867c-3.2-6.4-3.2-6.4-3.2-6.4l-28.8,4.267
	C191.101,422.611,182.567,441.811,183.634,449.277z"/>
<path style="fill:#E8EAE9;" d="M163.367,410.878c0,0-12.8,5.333-16,11.733c0,0,13.867,12.8,24.533,13.867
	c10.667,1.066,14.933-9.6,14.933-9.6l5.333-19.2L163.367,410.878z"/>
<path style="fill:#66C6B9;" d="M172.968,276.477c0,0,51.2,13.867,73.6,21.333c22.4,8.533,30.933,17.067,32,26.667
	c2.133,9.6-13.867,28.8-20.267,34.133c-7.467,5.333-37.333,46.933-44.8,54.4s-22.4,13.867-22.4,13.867s-6.4-4.267-20.267-8.533
	c-12.8-4.267-18.133-5.333-18.133-5.333s23.467-20.267,30.933-32c7.467-10.667,19.2-27.733,19.2-27.733
	s-23.467-49.067-30.933-55.467C165.501,293.544,172.968,276.477,172.968,276.477z"/>
<g>
	<path style="fill:#4ABAA5;" d="M216.701,408.744c7.467-10.667,11.733-23.467,12.8-36.267c1.067-8.533,0-17.067-3.2-24.533
		c-3.2-7.467-10.667-13.867-18.133-14.933c-3.2,0-6.4,0-7.467,2.133l-2.133,6.4c4.267,8.533,6.4,13.867,6.4,13.867
		s-7.467,16-9.6,20.267c-7.467,14.934-10.667,32-10.667,48c4.267,2.133,6.4,3.2,7.467,3.2
		C201.767,423.678,210.301,417.277,216.701,408.744z"/>
	<path style="fill:#4ABAA5;" d="M268.968,323.411c-4.267,3.2-11.733,8.533-11.733,8.533s12.8-11.733,9.6-10.667
		c-3.2,1.067-9.6,9.6-9.6,9.6s-1.067-6.4-6.4-10.667s-29.867-10.667-29.867-10.667c2.133-3.2,12.8-9.6,9.6-8.533
		c-3.2,1.067-10.667,7.467-10.667,7.467c-4.267-1.067-7.467-2.133-7.467-2.133c2.133-3.2,14.933-11.733,9.6-9.6
		c-5.333,2.133-11.733,8.533-11.733,8.533c-3.2-1.067-13.867-6.4-22.4-12.8c-8.533-6.4-9.6,3.2-9.6,3.2s19.2,21.333,21.333,24.533
		c2.133,3.2,35.2,57.6,35.2,57.6l3.2,5.333c6.4-8.533,13.867-17.067,17.067-21.333c4.267-12.8,1.067-26.667,1.067-26.667
		s4.267-2.133,11.733-5.333C276.434,325.544,273.234,320.211,268.968,323.411z"/>
	<path style="fill:#4ABAA5;" d="M271.101,331.944c-4.267,1.067-8.533,2.133-12.8,3.2h-1.067c0,0-1.067,0-1.067-1.067
		c3.2-1.067,14.933-5.333,17.067-3.2C273.234,330.878,272.167,331.944,271.101,331.944z"/>
</g>
<path style="fill:#66C6B9;" d="M80.167,305.278c0,0-1.067,24.533,19.2,29.867c12.8,4.267,52.267,7.467,69.333,13.867
	c17.067,5.333,43.733,11.733,43.733,11.733s-16,5.333-20.267,34.133c-5.333,27.733-4.267,41.6-4.267,41.6s12.8-7.467,17.067-7.467
	s13.867,4.267,17.067-1.066c3.2-5.333,9.6-32,13.867-38.4c4.267-6.4,16-22.4,18.133-32c2.133-9.6,2.133-26.667-7.467-32
	c-8.533-6.4-62.933-25.6-62.933-25.6L80.167,305.278z"/>
<path style="fill:#FFD15C;" d="M169.767,120.744l1.067-5.333c0,0,0-1.067,1.067-1.067c2.133,0,13.867,0,12.8-7.467
	c0,0,0-4.267,2.133-6.4c2.133-2.133-1.067-3.2-1.067-3.2s2.133,1.067,3.2-2.133c1.067-2.133,1.067-5.333,1.067-5.333
	s5.333,0,7.467-1.067c1.067-1.067,1.067-3.2,0-4.267c0-1.067-4.267-9.6-4.267-9.6s2.133-1.067,2.133-4.267
	c0-3.2-1.067-13.867-5.333-19.2s-28.8-7.467-28.8-7.467l-24.533,46.933C137.767,91.944,160.167,117.544,169.767,120.744z"/>
<path style="fill:#415A6B;" d="M139.901,90.878c0,0,6.4,7.467,18.133,5.333c0,0-1.067-12.8,3.2-18.133
	c4.267-5.333,11.733-2.133,12.8,3.2h3.2c0,0,1.067-5.333,4.267-10.667c3.2-4.267,4.267-14.933,0-19.2c0,0,6.4-1.067,10.667,1.067
	c0,0,8.533-2.133,1.067-14.933c-7.467-12.8-27.733-14.933-41.6-11.733c-14.933,3.2-18.133,14.933-20.267,24.533
	C127.101,61.011,135.634,82.344,139.901,90.878z"/>
<path style="fill:#F7B64C;" d="M318.034,169.811c-1.067,1.067-2.133,3.2-3.2,2.133c0,0,1.067,4.267-1.067,6.4
	c-2.133,2.133-2.133,3.2-2.133,5.333c0,1.067-1.067,6.4-1.067,6.4l-8.533,3.2c0,0-9.6-4.267-11.733-4.267
	s-10.667,2.133-10.667,2.133l4.267-18.133c0,0,1.067-1.067,3.2-2.133c0,0,2.133-5.333,3.2-7.467c1.067-2.133,3.2-3.2,3.2-5.333
	s3.2-2.133,3.2-2.133l2.133-2.133c0,0,2.133,1.067,2.133,3.2c-1.067,2.133-2.133,3.2-2.133,4.267c0,1.067,0,1.067,0,1.067
	s3.2,0,4.267,0c1.067,1.067,3.2,3.2,3.2,4.267c0,0,4.267-3.2,7.467-2.133C315.901,164.477,318.034,168.744,318.034,169.811z"/>
<path style="fill:#E8EAE9;" d="M134.567,95.144l4.267-5.333c0,0,9.6,6.4,19.2,16s14.933,17.067,14.933,20.267
	c0,4.267,0,4.267,0,4.267l-18.133-9.6L134.567,95.144z"/>
<g>
	<path style="fill:#4ABAA5;" d="M134.567,99.411h-4.267c0,0-4.267,2.133-10.667,17.067s-16,38.4-19.2,49.067
		c-3.2,10.667-12.8,73.6-14.933,85.333c-2.133,11.733-10.667,59.733-10.667,59.733s5.333-1.067,21.333-2.133
		c16-1.067,45.867,0,56.533-3.2s32-7.467,32-7.467s-4.267-52.267-5.333-64c-1.067-11.733,6.4-53.333,5.333-64
		S134.567,99.411,134.567,99.411z"/>
	<path style="fill:#4ABAA5;" d="M130.301,99.411c0,0,1.067,2.133,6.4,7.467c5.333,6.4,17.067,18.133,17.067,18.133l8.533-4.267
		c0,0-16-21.333-24.533-27.733c-1.067-1.067-2.133,0-2.133,0L130.301,99.411z"/>
</g>
<path style="fill:#66C6B9;" d="M156.968,179.411c-9.6-1.067-17.067-8.533-19.2-18.133c-1.067-4.267-1.067-9.6,0-14.933
	c5.333-22.4,13.867-29.867,20.267-30.933c6.4-1.067,21.333,12.8,22.4,17.067s2.133,12.8,6.4,17.067s14.933,8.533,21.333,11.733
	c6.4,3.2,10.667,7.467,16,8.533c4.267,1.067,17.067,1.067,20.267,1.067c4.267,0,13.867,2.133,18.133,1.067
	c5.333-1.067,22.4-2.133,22.4-2.133s4.267,6.4,2.133,20.267c-2.133,13.867-5.333,14.933-5.333,14.933s-33.067-4.267-40.533-3.2
	c-6.4,0-16,2.133-21.333-1.067c-5.333-2.133-33.067-12.8-42.667-18.133C171.901,181.544,163.367,179.411,156.968,179.411z"/>
<g>
	<path style="fill:#FFD15C;" d="M297.767,162.344c0,0,3.2,0,5.333,3.2c2.133,3.2,2.133,4.267,4.267,5.333l2.133,2.133
		c1.067,1.067,2.133,1.067,3.2,1.067c1.067-1.067,2.133-1.067,2.133-3.2c-1.067-3.2-2.133-5.333-2.133-5.333
		c0-1.067,4.267,1.067,5.333,3.2l12.8-8.533l-14.933-12.8l-9.6,4.267C305.234,149.544,299.901,157.011,297.767,162.344z"/>
	<path style="fill:#FFD15C;" d="M297.767,191.144c1.067,0,2.133,0,3.2,0c0,0,1.067,0,1.067-1.067c1.067-1.067,4.267-4.267,6.4-2.133
		c0,0,1.067-2.133,2.133-2.133c0,0,0-3.2,1.067-4.267c1.067,0,2.133,0,2.133,0l-1.067,4.267c0,0-1.067,4.267-2.133,5.333
		c-1.067,1.067-5.333,1.067-5.333,1.067s-2.133,2.133-4.267,1.067c-2.133-1.067-4.267-3.2-4.267-3.2L297.767,191.144z"/>
</g>
<path style="fill:#415A6B;" d="M24.701,219.944c0,0-4.267,0-8.533,1.067s-10.667,5.333-11.733,7.467s0,6.4,3.2,9.6
	c3.2,4.267,9.6,7.467,11.733,20.267c3.2,12.8,25.6,67.2,25.6,67.2s-4.267,3.2-6.4,1.067c-2.133-2.133-17.067-40.533-19.2-45.867
	c-2.133-6.4-7.467-21.333-7.467-21.333s-2.133-7.467-5.333-12.8c-3.2-5.333-7.467-10.667-6.4-16
	C1.234,225.278,16.167,216.744,24.701,219.944z"/>
<path style="fill:#F05540;" d="M60.968,285.011c0-4.267-2.133-9.6-4.267-16c-4.267-11.733-10.667-23.467-17.067-33.067
	c-1.067-1.067-1.067-2.133-2.133-3.2c-6.4-8.533-17.067-9.6-21.333-6.4c-4.267,3.2-2.133,6.4,6.4,19.2s16,27.733,23.467,45.867
	c4.267,11.733,6.4,20.267,7.467,25.6l0,0c0-2.133,0-4.267,1.067-7.467C55.634,306.344,60.968,296.744,60.968,285.011z"/>
<g>
	<path style="fill:#415A6B;" d="M48.167,487.678L48.167,487.678c-1.067,0-2.133-1.066-2.133-3.2l25.6-133.333l4.267,1.067
		l-25.6,133.333C51.367,487.678,50.301,487.678,48.167,487.678z"/>
	<path style="fill:#415A6B;" d="M175.101,480.211l-38.4-134.4l4.267-1.067l38.4,134.4c0,1.066,0,2.133-2.133,3.2l0,0
		C177.234,482.344,176.167,481.277,175.101,480.211z"/>
</g>
<path style="fill:#4ABAA5;" d="M271.101,331.944c-4.267,1.067-8.533,2.133-12.8,3.2h-1.067c0,0-1.067,0-1.067-1.067
	c3.2-1.067,14.933-5.333,17.067-3.2C273.234,330.878,272.167,331.944,271.101,331.944z"/>
<path style="fill:#415A6B;" d="M139.901,438.611l-3.2,5.333l22.4,10.667l2.133-3.2c0,0,10.667,6.4,17.067,10.667
	c6.4,4.267,13.867,7.467,28.8,6.4c14.933-1.066,17.067-1.066,16-4.267c-1.067-4.267-8.533-4.267-8.533-4.267l-69.333-22.4
	L139.901,438.611z"/>
<path style="fill:#344A5E;" d="M224.167,464.211c0,0-12.8,2.133-21.333,1.066c-8.533-1.066-12.8,0-18.133-4.267
	c-5.333-4.267-28.8-16-36.267-19.2c-7.467-3.2-9.6-4.267-9.6-4.267s-2.133-11.733,9.6-19.2c0,0,9.6,9.6,20.267,11.733
	c9.6,1.066,18.133-3.2,18.133-3.2s5.333,12.8,10.667,18.133s12.8,8.533,19.2,9.6C223.101,457.811,225.234,462.077,224.167,464.211z"
	/>
<path style="fill:#415A6B;" d="M305.234,150.611c0,0,5.333-3.2,11.733,2.133c6.4,4.267,5.333,17.067,0,20.267
	c0,0,14.933-6.4,21.333-9.6c6.4-2.133,23.467-11.733,28.8-17.067c5.333-5.333,16-14.933,18.133-16
	c2.133-2.133,2.133-2.133,2.133-2.133s-1.067-17.067,1.067-23.467s6.4-24.533,3.2-28.8c0,0-2.133,0-5.333,5.333
	c-3.2,5.333-8.533,11.733-10.667,13.867c-2.133,2.133-3.2,3.2-4.267,4.267c-1.067,2.133-6.4,7.467-10.667,12.8
	c-5.333,4.267-7.467,6.4-9.6,9.6c-2.133,3.2-7.467,7.467-14.933,10.667c-6.4,3.2-17.067,10.667-22.4,13.867
	C308.434,146.344,305.234,150.611,305.234,150.611z"/>
<path style="fill:#FFD15C;" d="M468.434,65.278c0,6.4-6.4,13.867-8.533,17.067l0,0c-1.067,1.067-1.067,1.067-1.067,1.067v3.2
	c-1.067,3.2-2.133,6.4-5.333,11.733l-24.533,13.867v-16c-7.467,1.067-10.667-2.133-10.667-4.267c0-1.067,0-5.333-1.067-12.8
	c-1.067-8.533,1.067-14.933,1.067-14.933c1.067-2.133,1.067-5.333,1.067-6.4s0-2.133,1.067-3.2c3.2-9.6,11.733-16,11.733-16
	s11.733-3.2,22.4-2.133C466.301,37.544,468.434,57.811,468.434,65.278z"/>
<path style="fill:#F7B64C;" d="M428.968,107.944c18.133-6.4,27.733-24.533,27.733-24.533c-9.6,11.733-27.733,12.8-27.733,12.8
	V107.944z"/>
<path style="fill:#CED6E0;" d="M436.434,138.878c2.133-3.2,4.267-6.4,6.4-8.533c4.267-6.4,7.467-13.867,12.8-21.333
	c-4.267-4.267-8.533-8.533-8.533-8.533l-10.667-1.067l-5.333-1.067c-2.133-1.067-7.467,1.067-12.8,3.2c0,0-1.067,6.4-3.2,16v48
	C421.501,158.077,428.968,148.477,436.434,138.878C436.434,139.944,436.434,139.944,436.434,138.878z"/>
<path style="fill:#F05540;" d="M416.167,165.544c0,1.067,1.067-2.133,1.067-2.133c1.067-1.067,1.067-2.133,2.133-3.2
	c3.2-5.333,6.4-9.6,9.6-13.867c1.067-1.067,1.067-2.133,2.133-3.2c0-3.2,1.067-6.4,1.067-9.6c0-5.333,1.067-21.333,1.067-21.333
	v-3.2l-4.267,2.133c0,0-4.267,6.4-6.4,13.867C419.367,131.411,416.167,162.344,416.167,165.544L416.167,165.544z"/>
<path style="fill:#F3705A;" d="M431.101,99.411c0,0,4.267,2.133,7.467,3.2c3.2,0,3.2,0,3.2,0s-7.467,5.333-8.533,8.533
	c0,0-3.2-1.067-4.267-1.067c0,0,2.133-8.533-4.267-11.733C424.701,98.344,428.968,97.278,431.101,99.411z"/>
<path style="fill:#415A6B;" d="M404.434,100.477c1.067,8.533,4.267,29.867,5.333,36.267c2.133,8.533,5.333,24.533,3.2,38.4
	c0,0,5.333-14.933,7.467-33.067c1.067-9.6,1.067-27.733,2.133-41.6H404.434z"/>
<path style="fill:#F3F3F3;" d="M458.834,85.544c0,0-4.267,11.733-22.4,13.867c0,0,7.467,13.867,6.4,23.467
	c0,0,17.067-29.867,17.067-30.933C459.901,91.944,459.901,88.744,458.834,85.544z"/>
<g>
	<path style="fill:#415A6B;" d="M424.701,47.144c0,0,4.267-6.4,6.4-6.4c0,0,4.267,12.8,27.733,12.8c0,0-4.267,8.533-3.2,13.867
		c1.067,5.333-1.067,8.533-1.067,8.533l2.133,2.133c0,0,3.2-3.2,7.467-5.333c4.267-2.133,4.267,3.2,4.267,3.2
		s13.867-25.6,5.333-29.867c0,0,1.067-12.8-14.933-18.133s-26.667,5.333-28.8,7.467C426.834,39.678,424.701,45.011,424.701,47.144z"
		/>
	<path style="fill:#415A6B;" d="M459.901,82.344c0,0-1.067,7.467-9.6,20.267c-8.533,11.733-28.8,48-30.933,54.4
		c-2.133,6.4-8.533,24.533-8.533,24.533s6.4-14.933,14.933-25.6c9.6-9.6,37.333-42.667,37.333-42.667l-5.333-6.4l6.4-4.267
		c0,0,0-17.067,0-20.267C464.167,78.077,459.901,82.344,459.901,82.344z"/>
</g>
<ellipse transform="matrix(0.4948 -0.869 0.869 0.4948 167.509 442.2365)" style="fill:#FFD15C;" cx="464.107" cy="77.05" rx="7.467" ry="4.267"/>
<path style="fill:#F3F3F3;" d="M431.101,99.411c0,0-2.133,0-3.2,1.067c-1.067,1.067-7.467,9.6-7.467,9.6l1.067-12.8
	c0,0,3.2,1.067,7.467,1.067C428.968,96.211,430.034,97.278,431.101,99.411z"/>
<path style="fill:#FFD15C;" d="M452.434,205.011c0,0-2.133,2.133-5.333,2.133c-3.2,1.067-11.733,0-16,1.067
	s-12.8,5.333-18.133,5.333c0,0-6.4,2.133-10.667,3.2c-4.267,0-5.333,0-5.333-1.067c0,0-6.4,3.2-11.733,1.067
	c0,0-5.333,1.067-7.467-1.067c0,0-1.067-1.067-1.067-3.2l4.267-3.2c0,0-1.067-2.133,0-3.2l4.267-2.133c0,0,3.2-1.067,4.267-1.067
	s4.267-2.133,6.4-3.2c1.067-1.067,19.2-4.267,23.467-5.333c4.267-1.067,18.133-5.333,25.6-4.267c8.533,0,8.533,0,8.533,0
	L452.434,205.011z"/>
<g>
	<path style="fill:#F7B64C;" d="M385.234,215.678c0-1.067,0-2.133,0-2.133l0,0l0,0c1.067,0,2.133-1.067,3.2-1.067
		c0,0,1.067,0,1.067-1.067c0,0,1.067,0,1.067-1.067c0,0,1.067,0,1.067-1.067l1.067-1.067c1.067-1.067,1.067-1.067,2.133-2.133
		c0,0,1.067,0,1.067-1.067h1.067c1.067,0,2.133-1.067,3.2-1.067l3.2-1.067c1.067,0,2.133-1.067,3.2-1.067
		c-1.067,0-2.133,1.067-3.2,1.067c-1.067,0-2.133,1.067-3.2,1.067c-1.067,0-2.133,1.067-3.2,1.067h-1.067c0,0-1.067,0-1.067,1.067
		c-1.067,0-1.067,1.067-2.133,2.133l-1.067,1.067l-1.067,1.067c-1.067,0-2.133,1.067-3.2,1.067c-1.067,0-2.133,1.067-3.2,1.067l0,0
		v1.067C385.234,214.611,385.234,215.678,385.234,215.678z"/>
	<path style="fill:#F7B64C;" d="M377.767,214.611L377.767,214.611C378.834,214.611,378.834,213.544,377.767,214.611
		c0-1.067,0-2.133,1.067-2.133l1.067-1.067l1.067-1.067h1.067h1.067c1.067-1.067,3.2-1.067,4.267-2.133c0,0,1.067,0,1.067-1.067
		c0,0,1.067,0,1.067-1.067c1.067,0,1.067-1.067,2.133-1.067c1.067-1.067,2.133-1.067,3.2-1.067c2.133-1.067,3.2-1.067,3.2-1.067
		s-1.067,1.067-3.2,1.067c-1.067,0-2.133,1.067-3.2,2.133c-1.067,0-1.067,1.067-2.133,1.067c0,0-1.067,0-1.067,1.067
		c0,0-1.067,0-1.067,1.067c-1.067,1.067-3.2,1.067-4.267,2.133h-1.067h-1.067c-1.067,0-1.067,1.067-1.067,1.067l-1.067,1.067
		C378.834,213.544,378.834,213.544,377.767,214.611C378.834,214.611,377.767,214.611,377.767,214.611z"/>
	<path style="fill:#F7B64C;" d="M382.034,208.211L382.034,208.211c1.067-1.067,1.067-1.067,2.133-2.133
		c1.067,0,1.067-1.067,2.133-1.067s2.133-1.067,3.2-1.067c1.067,0,2.133-1.067,3.2-1.067c1.067,0,2.133-1.067,2.133-1.067
		c1.067,0,1.067,0,2.133-1.067h1.067c0,0,0,0-1.067,0c0,0-1.067,1.067-2.133,1.067c-1.067,1.067-3.2,1.067-5.333,2.133
		c-1.067,0-2.133,1.067-3.2,1.067c-1.067,0-2.133,1.067-2.133,1.067C383.101,207.144,382.034,207.144,382.034,208.211
		L382.034,208.211z"/>
	<path style="fill:#F7B64C;" d="M396.968,215.678v-1.067l0,0l0,0c1.067,0,1.067-1.067,2.133-1.067l0,0l2.133-1.067
		c1.067,0,2.133-1.067,2.133-1.067s1.067,0,1.067-1.067h1.067c1.067,0,2.133-1.067,3.2-1.067c0,0-1.067,0-1.067,1.067
		c0,0-1.067,0-1.067,1.067c0,0-1.067,0-1.067,1.067c0,0-1.067,0-1.067,1.067c-1.067,0-2.133,1.067-2.133,1.067l-3.2,1.067l0,0l0,0
		c-1.067,0-1.067,0-2.133,1.067l0,0l0,0C396.968,214.611,396.968,214.611,396.968,215.678z"/>
</g>
<path style="fill:#415A6B;" d="M504.701,176.211c0,8.533-2.133,26.667-7.467,27.733c-3.2,1.067-20.267,3.2-33.067,4.267
	c-5.333,0-10.667,1.067-12.8,1.067c-8.533,1.067-23.467,3.2-23.467,3.2s4.267-5.333-2.133-11.733
	c-5.333-6.4-8.533-8.533-8.533-8.533s13.867-2.133,22.4-3.2c8.533-1.067,16-1.067,23.467-3.2c1.067,0,3.2-1.067,4.267-1.067
	c5.333-2.133,7.467-4.267,7.467-4.267s-2.133-12.8-2.133-19.2c0-6.4,1.067-17.067,1.067-17.067l0,0c1.067-5.333,3.2-11.733,5.333-16
	c5.333-11.733,18.133-19.2,18.133-19.2s4.267,0,3.2,6.4c-1.067,5.333-2.133,10.667-1.067,16c1.067,4.267,1.067,12.8,2.133,17.067
	C501.501,149.544,504.701,167.678,504.701,176.211z"/>
<g>
</g>
<g>
</g>
<g>
</g>
<g>
</g>
<g>
</g>
<g>
</g>
<g>
</g>
<g>
</g>
<g>
</g>
<g>
</g>
<g>
</g>
<g>
</g>
<g>
</g>
<g>
</g>
<g>
</g>
</svg>
