<?xml version="1.0" encoding="iso-8859-1"?>
<!-- Generator: Adobe Illustrator 19.0.0, SVG Export Plug-In . SVG Version: 6.00 Build 0)  -->
<svg version="1.1" id="Capa_1" xmlns="http://www.w3.org/2000/svg" xmlns:xlink="http://www.w3.org/1999/xlink" x="0px" y="0px"
	 viewBox="0 0 512.161 512.161" style="enable-background:new 0 0 512.161 512.161;" xml:space="preserve">
<path style="fill:#FFD15C;" d="M129.088,129.428c0,0,0,6.4,0,8.533s-1.067,4.267-2.133,5.333c0,2.133,0,4.267,2.133,7.467
	c2.133,3.2,10.667,11.733,10.667,11.733s2.133,3.2-1.067,6.4c-3.2,3.2-6.4,3.2-6.4,3.2s3.2,7.467-1.067,8.533c0,0,3.2,0,1.067,4.267
	s1.067,10.667,2.133,14.933c1.067,4.267-3.2,8.533-12.8,7.467c-9.6,0-14.933,0-17.067,4.267c-2.133,4.267-4.267,12.8-4.267,12.8
	l34.133,26.667l-42.667,34.133l-32-70.4l9.6-106.667c0,0,29.867-5.333,39.467-3.2S130.154,119.828,129.088,129.428z"/>
<path style="fill:#F7B64C;" d="M106.688,210.495c1.067-2.133,4.267-3.2,9.6-4.267l0,0c0,0-21.333-2.133-38.4-20.267
	c0,0,10.667,16,27.733,26.667C105.621,212.628,106.688,211.562,106.688,210.495z"/>
<path style="fill:#CED6E0;" d="M128.021,435.562h17.067c10.667-2.133,23.467-8.533,27.733-28.8
	c8.533-36.267-25.6-153.6-59.733-179.2c0,0,4.267,20.267,0,29.867c-4.267,9.6-49.067-28.8-51.2-32
	c-3.2-3.2,54.4,162.133,54.4,162.133L128.021,435.562z"/>
<g>
	<path style="fill:#304556;" d="M34.154,412.095c-2.133,7.467-3.2,14.933-5.333,23.467h117.333c1.067-27.733,1.067-54.4,1.067-54.4
		c-8.533-54.4-72.533-140.8-72.533-140.8l-33.067-16c0,0-37.333,19.2-39.467,40.533c-2.133,21.333,20.267,92.8,26.667,106.667
		C33.088,387.562,37.354,398.228,34.154,412.095z"/>
	<path style="fill:#304556;" d="M164.288,435.562h11.733l-5.333-85.333h-5.333c0,0,0,38.4,0,57.6
		C165.354,414.228,164.288,424.895,164.288,435.562z"/>
</g>
<path style="fill:#344A5E;" d="M170.688,420.628l2.133,14.933h4.267c-1.067-41.6-2.133-94.933-3.2-103.467
	c-1.067-13.867-18.133-74.667-20.267-81.067c-2.133-5.333-8.533-18.133-12.8-18.133c-4.267-1.067-30.933-8.533-30.933-8.533
	c0,19.2,40.533,61.867,53.333,87.467C177.088,337.428,170.688,420.628,170.688,420.628z"/>
<path style="fill:#CED6E0;" d="M269.888,417.428c0,0,0,10.667-7.467,8.533c-8.533-2.133-10.667-43.733-7.467-45.867
	c0,0,14.933-3.2,22.4,3.2c6.4,6.4,7.467,6.4,7.467,6.4L269.888,417.428z"/>
<path style="fill:#F7B64C;" d="M236.821,381.162l-10.667-5.333c-1.067-1.067-3.2-1.067-5.333,0c-3.2,2.133-10.667,5.333-11.733,6.4
	c-3.2,1.067-3.2,1.067-3.2,1.067l-1.067,29.867c0,0,17.067,5.333,23.467,7.467c6.4,2.133,4.267,8.533,7.467,9.6
	c3.2,1.067,5.333,0,5.333-4.267c0,0,4.267,1.067,6.4-2.133c2.133-3.2,1.067-3.2,1.067-3.2s5.333,0,6.4-2.133
	c1.067-2.133,1.067-4.267,1.067-4.267s2.133,1.067,4.267,0c2.133-1.067,1.067-2.133,1.067-2.133s3.2-2.133,3.2-6.4
	C261.354,402.495,252.821,382.228,236.821,381.162z"/>
<path style="fill:#FFD15C;" d="M264.554,376.895l-9.6,2.133c-1.067,0-2.133,0-2.133,0c-2.133-1.067-6.4-3.2-8.533-4.267
	c-3.2-1.067-6.4-3.2-9.6-1.067c-3.2,2.133-5.333,3.2-5.333,3.2h-9.6c0,0-3.2,6.4,5.333,8.533c2.133,1.067,4.267,1.067,6.4,0
	c3.2,0,9.6-1.067,13.867,3.2c6.4,6.4,13.867,13.867,14.933,14.933c1.067,1.067,1.067,2.133,1.067,2.133s1.067-1.067,2.133-1.067
	c1.067,0,12.8,1.067,12.8,1.067S290.154,384.362,264.554,376.895z"/>
<path style="fill:#415A6B;" d="M332.821,226.495l-7.467-2.133c0,0-6.4,0-10.667,7.467c-4.267,7.467-2.133,14.933-2.133,21.333
	s-5.333,27.733-7.467,39.467c-3.2,11.733-4.267,52.267-4.267,56.533s-2.133,5.333-2.133,8.533c0,3.2-1.067,1.067-6.4,6.4
	c-5.333,5.333-35.2,13.867-37.333,16c0,0,12.8-3.2,16,10.667c3.2,13.867,1.067,18.133-1.067,23.467
	c-2.133,5.333-4.267,11.733-7.467,11.733c0,0,0,2.133,4.267,0s7.467-5.333,11.733-6.4s7.467-6.4,9.6-7.467
	c2.133-1.067,4.267,1.067,7.467-1.067c3.2-1.067,5.333-4.267,7.467-5.333s8.533-4.267,8.533-4.267L332.821,226.495z"/>
<path style="fill:#F3705A;" d="M434.154,134.762c0,0,5.333-1.067,12.8,9.6c7.467,10.667,19.2,52.267,22.4,65.067
	c3.2,12.8,18.133,35.2,18.133,35.2l-26.667-5.333c0,0-29.867-9.6-34.133-19.2c-4.267-9.6-10.667-21.333-10.667-29.867
	c1.067-8.533,11.733-19.2,9.6-38.4c-2.133-19.2-2.133-19.2-2.133-19.2L434.154,134.762z"/>
<path style="fill:#FFD15C;" d="M423.488,188.095c-1.067-9.6,16-70.4,4.267-76.8c-11.733-5.333-76.8-12.8-81.067-4.267
	c-3.2,9.6-4.267,24.533-4.267,29.867s5.333,9.6,5.333,11.733c0,2.133-5.333,16-6.4,18.133c-1.067,2.133-1.067,4.267,1.067,6.4
	c2.133,2.133,9.6,2.133,9.6,2.133c1.067,1.067,0,7.467,0,7.467c-1.067,3.2,2.133,4.267,2.133,4.267c-1.067,0-3.2,3.2,0,5.333
	c2.133,2.133,0,9.6,0,9.6c3.2,11.733,22.4,8.533,22.4,8.533v5.333l-29.867,48v23.467h80l10.667-71.467
	C434.154,211.562,423.488,197.695,423.488,188.095z"/>
<path style="fill:#F7B64C;" d="M375.488,214.762l-11.733,23.467c36.267-25.6,46.933-57.6,46.933-57.6
	c-11.733,19.2-35.2,28.8-35.2,28.8l0,0L375.488,214.762z"/>
<path style="fill:#F3F3F3;" d="M402.154,435.562l18.133-92.8l11.733-114.133c0,0-8.533,12.8-24.533,22.4
	s-40.533,21.333-40.533,13.867s-5.333-28.8-5.333-28.8s-21.333,25.6-21.333,26.667c-1.067,1.067-25.6,141.867-32,171.733h93.867
	V435.562z"/>
<path style="fill:#344A5E;" d="M443.754,435.562c-4.267-84.267,27.733-160,38.4-171.733c11.733-14.933,23.467-22.4,23.467-22.4
	s-1.067-1.067-9.6-4.267c-8.533-3.2-36.267-13.867-36.267-13.867l-3.2,2.133c-10.667-5.333-48,57.6-61.867,84.267
	c-26.667,35.2-30.933,67.2-30.933,67.2s0,33.067,1.067,58.667H443.754z"/>
<path style="fill:#F3705A;" d="M432.021,91.028c-14.933-16-66.133-27.733-85.333,16c0,0,14.933,4.267,21.333,12.8
	c7.467,7.467,8.533,14.933,18.133,18.133c9.6,3.2,9.6,10.667,8.533,16l6.4,1.067c0-1.067,1.067-5.333,5.333-9.6
	c6.4-5.333,19.2-2.133,18.133,7.467c0,9.6-6.4,18.133-2.133,36.267c0,0,3.2-21.333,9.6-28.8c5.333-8.533,9.6-11.733,10.667-19.2
	C443.754,131.562,446.954,105.962,432.021,91.028z"/>
<ellipse transform="matrix(0.1524 -0.9883 0.9883 0.1524 200.6683 539.7112)" style="fill:#FFD15C;" cx="414.992" cy="152.864" rx="14.933" ry="8.533"/>
<path style="fill:#415A6B;" d="M437.354,214.762c0,0,17.067,7.467,20.267,7.467s-2.133,11.733-4.267,12.8
	c-2.133,1.067-11.733,0-11.733,0l5.333,12.8c0,0-30.933,43.733-45.867,58.667c-14.933,16-38.4,46.933-41.6,69.333
	c0,0,1.067-25.6,16-56.533C391.488,289.428,432.021,232.895,437.354,214.762z"/>
<path id="SVGCleanerId_0" style="fill:#344A5E;" d="M321.088,435.562c2.133-8.533,3.2-16,3.2-16l7.467-42.667l33.067-160
	c0,0-19.2,4.267-30.933,5.333c-11.733,2.133-14.933,3.2-17.067,7.467c-2.133,4.267,0,42.667-2.133,50.133
	c-2.133,7.467-6.4,44.8-6.4,57.6s0,80-6.4,89.6c-2.133,3.2-3.2,5.333-4.267,8.533H321.088z"/>
<g>
	<path id="SVGCleanerId_0_1_" style="fill:#344A5E;" d="M321.088,435.562c2.133-8.533,3.2-16,3.2-16l7.467-42.667l33.067-160
		c0,0-19.2,4.267-30.933,5.333c-11.733,2.133-14.933,3.2-17.067,7.467c-2.133,4.267,0,42.667-2.133,50.133
		c-2.133,7.467-6.4,44.8-6.4,57.6s0,80-6.4,89.6c-2.133,3.2-3.2,5.333-4.267,8.533H321.088z"/>
</g>
<g>
	<path style="fill:#415A6B;" d="M372.288,226.495c-3.2,7.467-12.8,41.6-18.133,67.2c-5.333,25.6-19.2,72.533-29.867,125.867
		c1.067-3.2,5.333-32,5.333-40.533s-3.2-40.533,0-68.267c3.2-27.733,11.733-71.467,11.733-71.467l13.867-6.4l-5.333-5.333
		l24.533-19.2v5.333C375.488,214.762,375.488,219.028,372.288,226.495z"/>
	<path style="fill:#415A6B;" d="M492.821,435.562c6.4-25.6,12.8-56.533,13.867-69.333c1.067-18.133,6.4-94.933,5.333-109.867
		c-1.067-14.933-7.467-14.933-7.467-14.933s-10.667,7.467-23.467,22.4c-5.333,6.4-17.067,32-25.6,66.133l0,0
		c0,1.067-5.333,48-6.4,58.667c-1.067,9.6-3.2,29.867-5.333,46.933l0,0L492.821,435.562L492.821,435.562z"/>
</g>
<path style="fill:#FFD15C;" d="M224.021,427.028c0,0,1.067,4.267,5.333,3.2c4.267-1.067,8.533-5.333,7.467-8.533
	c-1.067-3.2-2.133-3.2-3.2-2.133c0,0,3.2-2.133,2.133-5.333c-2.133-3.2-4.267,0-4.267,0s0-2.133-4.267-2.133
	c-5.333,0-7.467,3.2-8.533,4.267l-3.2,1.067c0,0-1.067,3.2-1.067,4.267c1.067,2.133,2.133,1.067,2.133,1.067s0,3.2,2.133,4.267
	C220.821,428.095,224.021,427.028,224.021,427.028z"/>
<path style="fill:#F3F3F3;" d="M206.954,381.162l7.467-1.067c0,0,7.467,23.467-2.133,44.8l-16,3.2L206.954,381.162z"/>
<g>
	<path style="fill:#415A6B;" d="M201.621,432.362c8.533-20.267,11.733-38.4,7.467-55.467c0,0-21.333-2.133-28.8,0
		c-7.467,2.133-4.267,2.133-11.733,1.067s-17.067,2.133-20.267,2.133s-14.933-1.067-21.333-2.133
		c-6.4-1.067-14.933-3.2-17.067-2.133c-1.067,0-2.133,1.067-3.2,1.067c0,0-4.267-3.2-6.4-3.2c-2.133,0-2.133,0-4.267-2.133
		c-2.133-2.133-13.867-22.4-17.067-33.067c-4.267-9.6-13.867-41.6-13.867-42.667s-4.267-22.4-16-34.133s-24.533-24.533-38.4-16
		s-10.667,40.533-9.6,46.933c1.067,6.4,11.733,43.733,29.867,74.667s30.933,49.067,36.267,52.267c5.333,3.2,24.533,6.4,30.933,6.4
		c7.467,0,58.667,2.133,68.267,2.133C176.021,429.162,201.621,432.362,201.621,432.362z"/>
	<path style="fill:#415A6B;" d="M146.154,381.162c0-4.267-3.2-14.933-14.933-35.2c-16-25.6-62.933-81.067-62.933-81.067l6.4-7.467
		l-14.933-1.067c-1.067-7.467-14.933-22.4-19.2-27.733c-1.067-1.067-1.067-2.133,0-3.2c4.267-3.2,8.533-8.533,11.733-11.733
		c1.067-1.067,2.133-3.2,3.2-5.333c0,0,2.133,5.333,12.8,17.067s51.2,81.067,58.667,91.733c7.467,10.667,12.8,32,12.8,32
		C145.088,365.162,146.154,376.895,146.154,381.162z"/>
	<path style="fill:#415A6B;" d="M146.154,383.295c0,0,0-1.067,0-2.133C146.154,383.295,146.154,383.295,146.154,383.295z"/>
	<path style="fill:#415A6B;" d="M102.421,223.295c0,0,16,24.533,26.667,41.6c10.667,17.067,30.933,55.467,33.067,66.133
		c2.133,10.667,8.533,89.6,8.533,89.6s6.4-70.4,3.2-88.533c-3.2-18.133-23.467-60.8-28.8-68.267s-5.333-7.467-5.333-7.467
		l-11.733-3.2l4.267-5.333C132.288,248.895,113.088,220.095,102.421,223.295z"/>
</g>
<path style="fill:#F3705A;" d="M23.488,184.895c0,0-7.467-41.6,13.867-73.6s76.8-12.8,85.333-2.133c8.533,9.6,9.6,22.4,7.467,28.8
	c0,0-2.133-11.733-7.467-19.2c-5.333-7.467-16-9.6-16-9.6s-1.067,5.333,1.067,11.733c2.133,6.4,5.333,13.867,4.267,19.2
	c-1.067,5.333-5.333,14.933-5.333,14.933s4.267-10.667,3.2-18.133c-1.067-7.467-8.533-19.2-8.533-19.2s4.267,21.333,1.067,29.867
	c-2.133,8.533-8.533,24.533-7.467,33.067c1.067,8.533,4.267,24.533,4.267,24.533s-4.267-7.467-6.4-13.867
	c-2.133-6.4,0,1.067,0,1.067s-6.4,17.067-4.267,26.667s4.267,14.933,4.267,14.933s-14.933-12.8-19.2-36.267
	c0,0-1.067,13.867,6.4,25.6c0,0-7.467-6.4-8.533-14.933c0,0,0,20.267,7.467,35.2c0,0-13.867-10.667-17.067-18.133
	c0,0-3.2,7.467,0,13.867C62.954,238.228,34.154,219.028,23.488,184.895"/>
<g>
</g>
<g>
</g>
<g>
</g>
<g>
</g>
<g>
</g>
<g>
</g>
<g>
</g>
<g>
</g>
<g>
</g>
<g>
</g>
<g>
</g>
<g>
</g>
<g>
</g>
<g>
</g>
<g>
</g>
</svg>
