<?xml version="1.0" encoding="iso-8859-1"?>
<!-- Generator: Adobe Illustrator 19.0.0, SVG Export Plug-In . SVG Version: 6.00 Build 0)  -->
<svg version="1.1" id="Capa_1" xmlns="http://www.w3.org/2000/svg" xmlns:xlink="http://www.w3.org/1999/xlink" x="0px" y="0px"
	 viewBox="0 0 512.303 512.303" style="enable-background:new 0 0 512.303 512.303;" xml:space="preserve">
<path style="fill:#344A5E;" d="M260.095,483.503l-4.267-3.2c0,0,0-4.267,4.267-6.4c4.267-2.133,12.8-5.333,17.067-9.6
	c4.267-4.267,27.733,1.067,27.733,1.067l4.267,10.667c0,0-12.8,2.133-14.933,4.267c-3.2,2.133-8.533,6.4-13.867,6.4
	C275.028,486.703,260.095,483.503,260.095,483.503z"/>
<g>
	<path style="fill:#415A6B;" d="M255.828,480.303c0,0,4.267,1.067,6.4,1.067s14.933,4.267,21.333,2.133
		c7.467-2.133,7.467-4.267,9.6-5.333c2.133-2.133,16-6.4,16-6.4s4.267,6.4,4.267,8.533l-12.8,2.133c0,0-2.133-3.2-6.4-2.133
		c-3.2,1.067-2.133,3.2-6.4,5.333c-3.2,2.133-13.867,3.2-19.2,1.067c-5.333-1.067-14.933-4.267-14.933-4.267
		S253.695,481.37,255.828,480.303z"/>
	<path style="fill:#415A6B;" d="M319.828,499.503c0,0-1.067,3.2,0,6.4c0,2.133,3.2,4.267,5.333,4.267h1.067
		c3.2,0,14.933,2.133,17.067,2.133s4.267-1.067,4.267-3.2c1.067-2.133,1.067-6.4,1.067-7.467c-1.067-1.067-1.067-1.067-1.067-1.067
		L319.828,499.503z"/>
</g>
<path style="fill:#344A5E;" d="M319.828,484.57c0,0,1.067,2.133,1.067,4.267c0,2.133-2.133,11.733-1.067,13.867
	c1.067,2.133,2.133,3.2,6.4,3.2s16,1.067,17.067,1.067s5.333,0,6.4-4.267c1.067-4.267-3.2-10.667-4.267-13.867
	c0-3.2-1.067-5.333-1.067-5.333S325.162,474.97,319.828,484.57z"/>
<path style="fill:#415A6B;" d="M267.562,271.237c0,0,3.2,58.667,3.2,71.467c0,11.733-1.067,54.4,3.2,66.133
	s7.467,26.667,7.467,33.067c-1.067,6.4,1.067,13.867,0,17.067c-1.067,3.2-3.2,5.333-3.2,5.333s5.333-3.2,9.6,0
	s14.933,12.8,27.733,9.6c0,0-2.133-12.8-2.133-24.533c0-11.733,4.267-49.067,3.2-60.8c0,0,4.267,42.667,5.333,51.2
	c0,0-7.467,17.067-6.4,23.467c1.067,5.333,2.133,26.667,2.133,26.667s2.133-4.267,6.4-5.333c5.333-1.067,18.133,5.333,22.4,4.267
	c4.267-1.067,5.333-19.2,3.2-22.4c-1.067-3.2-1.067-19.2-1.067-24.533c0-5.333,2.133-57.6,0-74.667c-2.133-17.067,4.267-96,4.267-96
	S286.762,244.57,267.562,271.237z"/>
<polygon style="fill:#E54C38;" points="389.162,309.637 405.162,285.103 380.628,284.037 312.362,292.57 324.095,308.57 "/>
<path style="fill:#344A5E;" d="M316.628,386.437c0-2.133,0-4.267-1.067-6.4c0-4.267-1.067-8.533-2.133-12.8
	c0-2.133-1.067-4.267-1.067-6.4c0-1.067,0-2.133-1.067-3.2l-1.067-3.2c0-4.267,0-9.6-1.067-13.867c0-4.267-1.067-8.533-1.067-12.8
	s-1.067-8.533-1.067-11.733c0-2.133,0-4.267,0-5.333c0-2.133,0-3.2,0-5.333c0-3.2-1.067-6.4-1.067-9.6c0-1.067,0-2.133-1.067-4.267
	c0-1.067,0-2.133-1.067-3.2c-1.067-4.267-2.133-6.4-2.133-6.4l0,0v1.067c0,1.067,0,2.133,1.067,4.267c0,2.133,0,4.267,1.067,7.467
	c0,3.2,0,5.333,0,9.6c0,3.2,0,7.467,0,10.667v1.067v1.067c0,1.067,0,2.133,0,3.2c0,2.133,0,4.267,0,6.4
	c0,4.267,1.067,8.533,2.133,12.8c1.067,4.267,1.067,8.533,2.133,13.867l1.067,3.2c0,1.067,0,2.133,1.067,3.2
	c0,2.133,1.067,4.267,1.067,6.4c1.067,4.267,1.067,8.533,2.133,12.8c0,2.133,1.067,4.267,1.067,6.4v1.067v1.067v1.067
	c0,1.067,0,2.133,0,3.2c0,2.133,0,4.267,0,5.333c0,2.133,0,3.2,0,5.333c0,1.067,0,2.133,0,3.2
	C315.562,400.303,316.628,386.437,316.628,386.437z"/>
<path style="fill:#FFD15C;" d="M330.495,73.903c0,0,2.133-4.267,1.067-8.533c-2.133-4.267-2.133-12.8-2.133-23.467
	s4.267-19.2-13.867-29.867c-18.133-10.667-34.133,6.4-34.133,6.4s-2.133,5.333-2.133,13.867c0,3.2,1.067,6.4,3.2,9.6
	c0,1.067,1.067,1.067,1.067,2.133c0,2.133-3.2,6.4-2.133,8.533c1.067,2.133,4.267,1.067,4.267,1.067s1.067,1.067,0,3.2
	c-1.067,2.133,1.067,2.133,1.067,2.133s-1.067,1.067,0,3.2c0,0,3.2,2.133,3.2,7.467c-1.067,5.333,10.667,1.067,11.733,3.2
	c0,2.133,0,2.133,0,2.133s3.2,7.467,7.467,8.533C312.362,84.57,330.495,73.903,330.495,73.903z"/>
<path style="fill:#F7B64C;" d="M324.095,52.57c-7.467,14.933-25.6,19.2-25.6,19.2l0,0c1.067,0,1.067,0,2.133,1.067
	c0,2.133,0,2.133,0,2.133s2.133,5.333,5.333,7.467C319.828,70.703,324.095,52.57,324.095,52.57z"/>
<path style="fill:#CED6E0;" d="M308.095,83.503l21.333,2.133l-43.733,91.733l-3.2-78.933
	C281.428,98.437,298.495,83.503,308.095,83.503z"/>
<g>
	<path style="fill:#F3705A;" d="M303.828,92.037l3.2,4.267c0,0,1.067,16-1.067,24.533c-2.133,7.467-12.8,42.667-12.8,42.667
		l-11.733-7.467l6.4-34.133l12.8-26.667L303.828,92.037z"/>
	<path style="fill:#F3705A;" d="M301.695,84.57c0,0,6.4,3.2,13.867,3.2c0,0-7.467,6.4-9.6,8.533c0,0-4.267-2.133-6.4-1.067
		c0,0,0-7.467-1.067-9.6C298.495,83.503,301.695,84.57,301.695,84.57z"/>
</g>
<path style="fill:#344A5E;" d="M344.362,78.17c0,0,17.067,8.533,20.267,10.667s9.6,3.2,11.733,4.267c0,0-7.467-2.133-11.733,5.333
	c-5.333,7.467-16,35.2-13.867,49.067c2.133,13.867,12.8,92.8,11.733,103.467c-1.067,10.667-5.333,22.4-5.333,22.4
	s1.067,6.4-13.867,3.2c-14.933-2.133-44.8,0-50.133-3.2c-5.333-2.133-10.667-4.267-10.667-12.8c0-8.533,9.6-101.333,9.6-101.333
	c-1.067,0,12.8-33.067,20.267-41.6C319.828,111.237,344.362,78.17,344.362,78.17z"/>
<ellipse style="fill:#F7B64C;" cx="355.028" cy="273.37" rx="4.267" ry="7.467"/>
<g>
	<path style="fill:#FFD15C;" d="M375.295,273.37c0,1.067-1.067,2.133-3.2,3.2c-1.067,1.067-2.133,2.133-3.2,3.2
		c-2.133,1.067-3.2,2.133-4.267,3.2c-1.067,1.067-2.133,0-2.133,0s-1.067,1.067-2.133,1.067c-2.133,1.067-2.133-1.067-2.133-1.067
		s-1.067,1.067-2.133,1.067c-1.067,0-2.133-1.067-2.133-1.067c0-1.067,0-3.2,1.067-4.267s1.067-1.067,2.133-2.133v-1.067
		c0-1.067,0-3.2,0-3.2l-1.067-1.067l-1.067-1.067c0,0,0,0-1.067,1.067s-3.2,5.333-3.2,5.333c-2.133,7.467-5.333,5.333-5.333,5.333
		v-5.333v-5.333l2.133-7.467c0,0,3.2-3.2,5.333-5.333c1.067-2.133,3.2-7.467,3.2-7.467l18.133,1.067c0,0,0,4.267,0,7.467
		C375.295,262.703,375.295,271.237,375.295,273.37z"/>
	<path style="fill:#FFD15C;" d="M375.295,273.37c0,1.067-1.067,2.133-3.2,3.2c-2.133-4.267-4.267-5.333-6.4-6.4
		c-3.2-2.133-7.467-2.133-10.667,0l-1.067-1.067c0,0,0,0-1.067,1.067s-3.2,5.333-3.2,5.333c-2.133,7.467-5.333,5.333-5.333,5.333
		v-4.267v-5.333l2.133-7.467c0,0,3.2-3.2,5.333-5.333c1.067-2.133,3.2-7.467,3.2-7.467l18.133,1.067c0,0,0,4.267,0,7.467
		C375.295,262.703,375.295,271.237,375.295,273.37z"/>
</g>
<path style="fill:#CED6E0;" d="M251.562,208.303c0,0-1.067,4.267-4.267,6.4c-3.2,2.133-9.6-11.733-9.6-17.067
	s2.133-14.933,2.133-14.933s13.867-1.067,14.933,4.267C256.895,195.503,251.562,208.303,251.562,208.303z"/>
<path style="fill:#F7B64C;" d="M229.162,202.97l12.8,8.533c0,0,2.133-1.067,1.067-2.133c0,0,3.2,0,3.2-2.133
	c0,0,1.067-1.067,1.067-2.133c0,0,3.2-2.133,2.133-3.2s-4.267-7.467-6.4-11.733c-2.133-4.267,1.067-7.467,1.067-7.467
	s0-1.067-4.267-1.067c-2.133,0-3.2,0-4.267,0c-1.067,0-1.067,0-1.067,0c-2.133,1.067-5.333,4.267-6.4,4.267
	C227.028,188.037,229.162,202.97,229.162,202.97z"/>
<g>
	<path style="fill:#FFD15C;" d="M241.962,182.703l-2.133,1.067c0,0-2.133,0-3.2,1.067c-1.067,1.067,1.067,4.267,3.2,5.333
		c2.133,1.067,4.267,0,5.333,1.067c1.067,1.067,4.267,7.467,4.267,7.467s3.2-4.267,4.267-7.467c1.067-3.2,1.067-5.333,1.067-5.333
		l-9.6-4.267L241.962,182.703z"/>
	<path style="fill:#FFD15C;" d="M228.095,201.903c0,0,3.2-2.133,5.333-2.133c2.133,0,2.133,1.067,2.133,2.133l1.067-1.067
		c0,0,1.067-3.2,3.2-3.2c2.133,0,3.2,0,3.2,2.133c0,0,2.133,1.067,1.067,2.133c-1.067,1.067-1.067,2.133-1.067,2.133
		s1.067,1.067,0,2.133c-1.067,1.067-3.2,4.267-4.267,5.333s-4.267,1.067-5.333,1.067c-1.067-1.067-2.133-2.133-2.133-2.133
		s-2.133,0-1.067-3.2l-3.2-2.133L228.095,201.903z"/>
</g>
<g>
	<path style="fill:#F7B64C;" d="M230.228,208.303c2.133,0,4.267,0,6.4,0l0,0l0,0h1.067h1.067c1.067,0,1.067-1.067,2.133-2.133
		s2.133-3.2,3.2-4.267c0,1.067-1.067,1.067-1.067,2.133c0,1.067-1.067,1.067-1.067,2.133c0,0,0,1.067-1.067,1.067l0,0
		c0,0,0,0-1.067,0h-1.067h-1.067l0,0C234.495,208.303,232.362,208.303,230.228,208.303z"/>
	<path style="fill:#F7B64C;" d="M243.028,205.103c0,0,0,1.067-1.067,2.133c0,0,0,1.067-1.067,1.067c0,0,0,1.067-1.067,1.067
		l-1.067,1.067c0,0-1.067,0-1.067,1.067h-1.067h-1.067c-1.067,0-1.067,0-2.133,0c-1.067,0-2.133,0-2.133,0s1.067,0,2.133,0
		c1.067,0,1.067,0,2.133,0h1.067h1.067h1.067c0,0,1.067,0,1.067-1.067c0,0,1.067,0,1.067-1.067c0,0,0,0,1.067-1.067
		C243.028,207.237,243.028,206.17,243.028,205.103C243.028,206.17,243.028,205.103,243.028,205.103z"/>
</g>
<g>
	<path style="fill:#FFD15C;" d="M153.428,334.17c0,0-1.067,18.133-10.667,29.867c0,0-3.2,11.733-3.2,19.2s0,24.533-1.067,38.4
		c-1.067,13.867-1.067,21.333,1.067,30.933c1.067,9.6,6.4,20.267,7.467,26.667c1.067,5.333,2.133,8.533,2.133,8.533
		s5.333,1.067,5.333,2.133c0,1.067,0,1.067,0,1.067c0,1.067-16,4.267-16,4.267l-11.733-14.933c0,0-5.333-5.333-4.267-14.933
		c1.067-9.6,1.067-18.133-2.133-26.667c-3.2-8.533-9.6-40.533-7.467-58.667c2.133-18.133,12.8-46.933,12.8-46.933L153.428,334.17z"
		/>
	<path style="fill:#FFD15C;" d="M182.228,330.97c0,0-4.267,10.667-4.267,16s1.067,12.8-1.067,16c-2.133,3.2-4.267,9.6-4.267,14.933
		s4.267,32,5.333,45.867s8.533,36.267,12.8,44.8c4.267,8.533,7.467,9.6,8.533,14.933c1.067,5.333,5.333,7.467,7.467,8.533
		c3.2,2.133,3.2,2.133,3.2,2.133s-9.6,5.333-14.933,3.2c-5.333-2.133-14.933-5.333-22.4-11.733s-12.8-13.867-12.8-13.867
		s-1.067-5.333,3.2-10.667c0,0,2.133-10.667-3.2-20.267c-5.333-9.6-16-36.267-16-49.067c0-12.8,1.067-30.933,2.133-38.4
		c1.067-6.4,1.067-19.2,1.067-19.2L182.228,330.97z"/>
</g>
<path style="fill:#66C6B9;" d="M183.295,225.37h-44.8l-16,4.267l-2.133,1.067c0,0-7.467,14.933-4.267,40.533c3.2,25.6,0,67.2,0,67.2
	s19.2,5.333,39.467,4.267c19.2-1.067,38.4-2.133,38.4-2.133s-1.067-41.6-4.267-60.8C186.495,262.703,183.295,237.103,183.295,225.37
	z"/>
<path style="fill:#F3705A;" d="M124.628,61.103c0-1.067,0-2.133,0-3.2c0-1.067,0-2.133-1.067-2.133
	c-1.067-1.067-1.067-1.067-2.133-2.133l0,0c-9.6,3.2-11.733,13.867-12.8,18.133c0,6.4,1.067,12.8,0,19.2
	c0,6.4-3.2,13.867-4.267,20.267c-2.133,12.8-2.133,25.6,1.067,37.333c1.067,4.267,3.2,8.533,5.333,11.733
	c3.2,3.2,7.467,5.333,11.733,4.267c-6.4-9.6-6.4-22.4-3.2-34.133c2.133-11.733,6.4-22.4,8.533-33.067
	c2.133-10.667,2.133-22.4-3.2-32C125.695,63.237,124.628,62.17,124.628,61.103z"/>
<path style="fill:#FFD15C;" d="M169.428,33.37l11.733,5.333c0,0,4.267,5.333,3.2,17.067c0,0-1.067,1.067-1.067,2.133
	s0,3.2,1.067,5.333c1.067,2.133,2.133,4.267,3.2,5.333c0,2.133,0,3.2-1.067,3.2c-1.067,0-3.2,0-3.2,0s1.067,3.2,0,3.2
	c0,0,1.067,1.067,0,2.133s-3.2,6.4-3.2,9.6c0,2.133-4.267,4.267-6.4,3.2c-3.2-2.133-6.4-4.267-8.533-3.2
	c-2.133,1.067-8.533,16-8.533,16l-23.467-10.667l5.333-11.733C137.428,80.303,161.962,33.37,169.428,33.37z"/>
<path style="fill:#344A5E;" d="M128.895,98.437c0,0-13.867,25.6-10.667,41.6c3.2,16,12.8,28.8,13.867,35.2
	c1.067,7.467-3.2,29.867-5.333,40.533c-3.2,10.667-5.333,14.933-5.333,14.933s3.2,2.133,19.2,1.067c16-1.067,49.067,0,53.333-3.2
	c4.267-3.2,6.4-8.533,2.133-17.067c-4.267-8.533-3.2-45.867-3.2-45.867s5.333-9.6,3.2-14.933c-1.067-4.267,0-10.667-13.867-23.467
	c-13.867-12.8-26.667-26.667-35.2-30.933C140.628,96.303,134.228,96.303,128.895,98.437z"/>
<path style="fill:#E8EAE9;" d="M138.495,95.237c3.2,1.067,6.4,2.133,9.6,4.267c3.2,2.133,6.4,3.2,9.6,5.333l2.133-8.533
	c0,0-10.667-7.467-17.067-9.6c-4.267-1.067-7.467-1.067-9.6-1.067c-1.067,0-2.133,1.067-2.133,2.133v6.4
	C133.162,94.17,136.362,94.17,138.495,95.237z"/>
<g>
	<path style="fill:#415A6B;" d="M128.895,90.97c0,0,8.533-2.133,12.8-1.067c4.267,1.067,19.2,12.8,21.333,14.933
		s26.667,26.667,29.867,35.2c3.2,8.533,5.333,13.867,2.133,21.333c-3.2,7.467-5.333,12.8-5.333,12.8s6.4-14.933,6.4-19.2
		c0-4.267-2.133-13.867-7.467-18.133c-5.333-5.333-12.8-11.733-16-16c-3.2-4.267-10.667-10.667-22.4-17.067
		c-11.733-6.4-21.333-4.267-21.333-4.267V90.97z"/>
	<path style="fill:#415A6B;" d="M153.428,153.903c-7.467-6.4-11.733-16-11.733-25.6c0-2.133,0-4.267,1.067-6.4
		c2.133-11.733,6.4-12.8,10.667-13.867c4.267-1.067,11.733-1.067,17.067,6.4s5.333,16,8.533,21.333c3.2,5.333,8.533,22.4,8.533,22.4
		s6.4,9.6,9.6,16c3.2,5.333,3.2,6.4,8.533,7.467c5.333,1.067,11.733,3.2,13.867,3.2s10.667-1.067,10.667-1.067s3.2,9.6,2.133,20.267
		c-1.067,10.667-8.533,8.533-8.533,8.533s-10.667-3.2-19.2-4.267c-8.533-2.133-10.667-3.2-14.933-4.267
		c-4.267-2.133-5.333-2.133-7.467-6.4s-4.267-8.533-8.533-12.8C171.562,180.57,153.428,153.903,153.428,153.903L153.428,153.903z"/>
</g>
<path style="fill:#F3705A;" d="M172.628,38.703c3.2,1.067,7.467,0,7.467,0c1.067-9.6-6.4-12.8-6.4-12.8
	c2.133,2.133,4.267,4.267,4.267,4.267c-5.333-9.6-25.6-13.867-36.267-9.6c-10.667,5.333-14.933,17.067-16,24.533
	c-1.067,4.267-2.133,6.4-2.133,6.4c1.067,1.067,1.067,1.067,2.133,2.133c1.067,1.067,1.067,2.133,1.067,2.133
	c1.067,0,1.067,2.133,1.067,2.133c1.067,10.667,8.533,13.867,9.6,16c1.067,2.133,0,6.4,0,6.4s4.267-4.267,7.467-11.733
	c3.2-7.467,8.533-13.867,12.8-13.867c4.267,1.067,6.4,8.533,6.4,8.533h4.267c0,0,0,0,0-4.267s3.2-5.333,5.333-7.467
	c3.2-2.133,3.2-5.333,0-8.533C172.628,40.837,169.428,37.637,172.628,38.703z"/>
<g>
	<path style="fill:#415A6B;" d="M127.828,56.837c-1.067,1.067-1.067,3.2-3.2,3.2c-2.133-2.133-5.333-3.2-8.533-4.267
		c2.133-3.2,5.333-5.333,8.533-5.333C125.695,52.57,125.695,54.703,127.828,56.837z"/>
	<path style="fill:#415A6B;" d="M155.562,489.903c-3.2-1.067-7.467-1.067-7.467-1.067c2.133,1.067,2.133,1.067,0,3.2
		c-1.067,2.133-10.667,2.133-11.733-1.067c-1.067-3.2,0-6.4,1.067-9.6c0-4.267-5.333-10.667-10.667-12.8
		c-5.333-2.133-9.6,2.133-9.6,2.133s-1.067,1.067-2.133,5.333c-1.067,4.267,0,9.6,3.2,12.8c3.2,3.2,5.333,6.4,5.333,9.6v1.067
		c0,0,0,0,1.067,0c1.067,1.067,5.333,2.133,6.4,2.133l0,0c2.133,0,5.333,0,7.467,0l0,0c0,0,0,0,1.067,0c2.133,0,4.267,0,7.467,0
		h1.067c3.2-1.067,5.333-3.2,7.467-5.333l0,0c0-1.067,0-2.133,1.067-2.133C158.762,490.97,158.762,489.903,155.562,489.903z"/>
</g>
<path style="fill:#344A5E;" d="M157.695,490.97c0,1.067-2.133,7.467-6.4,9.6c-4.267,2.133-14.933,3.2-19.2,2.133
	c-4.267-1.067-5.333-2.133-5.333-2.133l1.067,9.6h-4.267c0,0,0-9.6-1.067-13.867c-1.067-3.2-3.2-6.4-5.333-9.6l-1.067-1.067l0,0
	c0,0,5.333-1.067,9.6-1.067c5.333,0,6.4,0,6.4,2.133c1.067,2.133,1.067,8.533,8.533,11.733
	C149.162,502.703,155.562,496.303,157.695,490.97z"/>
<g>
	<path style="fill:#415A6B;" d="M165.162,461.103c0,0-1.067,5.333,3.2,10.667s18.133,19.2,23.467,20.267
		c5.333,1.067,14.933,0,12.8-4.267c0,0,6.4,3.2,9.6,4.267c3.2,2.133,3.2,2.133,8.533,4.267c5.333,2.133,0,5.333-4.267,6.4
		c-5.333,0-23.467,2.133-28.8,1.067c-5.333-2.133-9.6-11.733-14.933-16c-5.333-5.333-8.533-4.267-8.533-4.267l1.067,14.933h-3.2
		c0,0,1.067-12.8-2.133-17.067C157.695,478.17,153.428,466.437,165.162,461.103z"/>
	<path style="fill:#415A6B;" d="M238.762,182.703c0,0,10.667,1.067,12.8,10.667c3.2,9.6-2.133,20.267-5.333,22.4
		c0,0,2.133-1.067,5.333-6.4c3.2-5.333,3.2-5.333,6.4-8.533c3.2-3.2,12.8-14.933,12.8-14.933l3.2-91.733c0,0-6.4,0-10.667,7.467
		c-4.267,6.4-3.2,21.333-4.267,27.733c-1.067,6.4-3.2,14.933-4.267,20.267c-1.067,5.333-7.467,20.267-9.6,23.467
		S238.762,182.703,238.762,182.703z"/>
</g>
<path style="fill:#344A5E;" d="M297.428,82.437c0,0-3.2,1.067-9.6,4.267c-7.467,3.2-18.133,6.4-19.2,9.6s-2.133,21.333-1.067,36.267
	c1.067,14.933,4.267,56.533,1.067,74.667c-3.2,18.133-7.467,64-7.467,64s18.133,8.533,25.6-4.267l8.533-115.2
	c0,0-6.4-25.6-9.6-40.533C282.495,96.303,297.428,82.437,297.428,82.437z"/>
<path style="fill:#415A6B;" d="M299.562,78.17c0,0-1.067,3.2-4.267,10.667c-3.2,7.467-7.467,12.8-8.533,22.4
	c-1.067,8.533,6.4,43.733,6.4,43.733s-5.333-7.467-8.533-13.867c-3.2-5.333-12.8-26.667-7.467-42.667l6.4-3.2l-1.067-1.067
	c0,0,6.4-5.333,9.6-7.467C295.295,82.437,298.495,78.17,299.562,78.17z"/>
<g>
	<path style="fill:#E8EAE9;" d="M300.628,72.837c0,0-1.067,4.267-2.133,9.6c-1.067,4.267-5.333,13.867-5.333,13.867
		s2.133-2.133,6.4-7.467c3.2-4.267,8.533-5.333,8.533-5.333C303.828,80.303,300.628,77.103,300.628,72.837z"/>
	<path style="fill:#E8EAE9;" d="M308.095,83.503c0,0,13.867,9.6,14.933,12.8l13.867-22.4c0,0-1.067-2.133-2.133-4.267
		c-1.067-2.133-2.133-4.267-3.2-4.267c0,0-1.067,2.133-2.133,4.267C326.228,69.637,308.095,83.503,308.095,83.503z"/>
</g>
<g>
	<path style="fill:#415A6B;" d="M334.762,71.77c0,0-1.067,3.2-3.2,6.4c-2.133,3.2-18.133,22.4-28.8,48s-11.733,35.2-11.733,35.2
		s5.333-16,16-27.733s35.2-36.267,35.2-36.267l-4.267-4.267l6.4-2.133c0,0-1.067-9.6-1.067-11.733s-2.133-2.133-4.267-3.2
		C339.028,74.97,336.895,70.703,334.762,71.77z"/>
	<path style="fill:#415A6B;" d="M380.628,157.103c1.067,7.467-1.067,45.867-1.067,45.867l-3.2,55.467c0,0-1.067-1.067-11.733-3.2
		c-1.067,0-3.2,0-4.267-1.067c-7.467-1.067-10.667,1.067-10.667,1.067s4.267-37.333,3.2-43.733c0-7.467-3.2-62.933-3.2-62.933
		c-1.067-13.867,9.6-41.6,13.867-49.067c5.333-7.467,11.733-5.333,11.733-5.333c4.267,2.133,5.333,11.733,5.333,17.067
		c0,5.333,0,10.667,1.067,14.933C383.828,130.437,379.562,149.637,380.628,157.103z"/>
	<path style="fill:#415A6B;" d="M280.362,22.703c0,0,10.667-3.2,14.933-7.467c5.333-4.267,2.133,3.2,2.133,3.2
		s-2.133,5.333,4.267,9.6c2.133,2.133,4.267,4.267,4.267,7.467l0,0h4.267c0,0,1.067-6.4,7.467-6.4s8.533,12.8,8.533,20.267
		s5.333,10.667,5.333,10.667s4.267-11.733,4.267-24.533s-4.267-26.667-16-32s-27.733-5.333-38.4,5.333
		C275.028,14.17,273.962,22.703,280.362,22.703z"/>
</g>
<path style="fill:#FFD15C;" d="M320.895,36.57c0,5.333-3.2,9.6-6.4,9.6c-3.2,0-6.4-4.267-5.333-9.6c0-5.333,3.2-9.6,6.4-9.6
	C318.762,26.97,321.962,31.237,320.895,36.57z"/>
<polygon style="fill:#F05540;" points="329.428,372.57 336.895,381.103 409.428,367.237 405.162,285.103 333.695,293.637 "/>
<g>
	<polygon style="fill:#F3705A;" points="333.695,293.637 336.895,381.103 316.628,377.903 312.362,292.57 	"/>
	<path style="fill:#F3705A;" d="M353.962,281.903L353.962,281.903c0-1.067,0-1.067,0-2.133l0,0v-1.067l0,0l0,0
		c0-1.067,1.067-2.133,2.133-3.2c0-1.067,0-3.2,0-3.2l-1.067-1.067c-1.067,0-1.067,1.067-2.133,1.067
		c-5.333,5.333-4.267,17.067-4.267,19.2l4.267-1.067C353.962,288.303,353.962,285.103,353.962,281.903z"/>
	<path style="fill:#F3705A;" d="M372.095,276.57c-1.067,1.067-2.133,2.133-3.2,3.2c1.067,2.133,1.067,5.333,1.067,8.533h4.267
		C374.228,282.97,373.162,278.703,372.095,276.57z"/>
</g>
<g>
</g>
<g>
</g>
<g>
</g>
<g>
</g>
<g>
</g>
<g>
</g>
<g>
</g>
<g>
</g>
<g>
</g>
<g>
</g>
<g>
</g>
<g>
</g>
<g>
</g>
<g>
</g>
<g>
</g>
</svg>
