<?xml version="1.0" encoding="iso-8859-1"?>
<!-- Generator: Adobe Illustrator 19.0.0, SVG Export Plug-In . SVG Version: 6.00 Build 0)  -->
<svg version="1.1" id="Capa_1" xmlns="http://www.w3.org/2000/svg" xmlns:xlink="http://www.w3.org/1999/xlink" x="0px" y="0px"
	 viewBox="0 0 514.133 514.133" style="enable-background:new 0 0 514.133 514.133;" xml:space="preserve">
<g>
	<path style="fill:#FFD15C;" d="M361.352,200.533c0,0-1.067,33.067-1.067,39.467c0,6.4,1.067,14.933,4.267,21.333
		c3.2,6.4,3.2,7.467,3.2,7.467l-56.533,40.533L284.552,294.4l5.333-30.933c0,0-17.067-17.067-21.333-36.267s-3.2-22.4-3.2-22.4
		s-8.533-24.533-5.333-41.6s20.267-28.8,23.467-29.867c3.2-1.067,25.6-4.267,29.867-4.267s25.6,5.333,33.067,19.2
		S361.352,200.533,361.352,200.533z"/>
	
		<ellipse transform="matrix(0.1713 -0.9852 0.9852 0.1713 110.0864 516.9739)" style="fill:#FFD15C;" cx="362.352" cy="193.047" rx="19.2" ry="9.6"/>
</g>
<path style="fill:#415A6B;" d="M266.419,204.8c0,0-3.2-12.8-3.2-24.533c0-10.667,1.067-16,2.133-18.133
	c1.067-2.133,38.4,2.133,57.6-6.4c19.2-8.533,16,8.533,20.267,16s6.4,11.733,8.533,20.267s1.067,11.733,1.067,11.733h2.133
	c0,0,4.267-12.8,9.6-22.4c4.267-8.533,7.467-28.8-5.333-48c-11.733-19.2-38.4-26.667-54.4-25.6s-30.933,12.8-40.533,28.8
	c-9.6,16-10.667,26.667-6.4,44.8C261.086,201.6,266.419,201.6,266.419,204.8z"/>
<path style="fill:#F7B64C;" d="M356.019,230.4c0,0-18.133,37.333-37.333,43.733c-19.2,5.333-28.8-10.667-28.8-10.667l-5.333,30.933
	c0,0,10.667,6.4,18.133,10.667c3.2-2.133,6.4-5.333,9.6-8.533C347.486,265.6,356.019,230.4,356.019,230.4z"/>
<path style="fill:#CED6E0;" d="M311.219,285.867l41.6,11.733L241.886,407.467l30.933-142.933l17.067,6.4
	C289.886,269.867,295.219,285.867,311.219,285.867z"/>
<path style="fill:#F05540;" d="M298.419,305.067c0,0,2.133,10.667-2.133,27.733c-3.2,17.067-39.467,56.533-39.467,56.533
	s8.533-46.933,13.867-57.6s12.8-27.733,12.8-30.933C285.619,296.533,298.419,297.6,298.419,305.067z"/>
<path style="fill:#F3705A;" d="M309.086,283.733c-5.333-1.067-11.733-6.4-11.733-6.4l-4.267-3.2l-6.4-3.2L285.619,272
	c0,0-1.067,0-1.067,1.067c0,1.067,0,2.133,1.067,3.2c1.067,6.4,0,25.6,0,25.6c5.333,0,13.867,4.267,13.867,4.267
	c6.4-5.333,21.333-11.733,21.333-11.733S314.419,283.733,309.086,283.733z"/>
<g>
	<path style="fill:#F3F3F3;" d="M361.352,249.6c0,0-4.267,8.533-12.8,13.867c-8.533,5.333-40.533,19.2-40.533,19.2
		s11.733,9.6,11.733,23.467l46.933-43.733L361.352,249.6z"/>
	<path style="fill:#F3F3F3;" d="M292.019,275.2c-1.067-1.067-1.067-1.067-1.067-2.133c0,0-8.533,0-11.733,17.067
		c0,0-1.067,1.067-1.067-2.133c0-4.267,3.2-12.8,5.333-18.133c2.133-5.333,3.2-10.667,3.2-10.667l4.267,4.267
		c0,0,2.133,9.6,7.467,13.867l0,0C295.219,276.267,293.086,276.267,292.019,275.2z"/>
</g>
<path style="fill:#344A5E;" d="M233.352,512c5.333-18.133,26.667-105.6,26.667-136.533c0-46.933,16-96,24.533-119.467
	c-2.133-3.2-5.333-7.467-8.533-12.8c-8.533,1.067-19.2,3.2-25.6,3.2c-11.733,0-16-1.067-23.467,8.533S197.086,449.067,189.619,476.8
	c-5.333,19.2-8.533,29.867-10.667,35.2L233.352,512L233.352,512z"/>
<path style="fill:#FFD15C;" d="M217.352,476.8l73.6,8.533l-34.133-35.2C257.886,450.133,233.352,452.267,217.352,476.8z"/>
<path style="fill:#2D4251;" d="M236.552,253.867l-7.467-4.267c0,0-12.8,8.533-18.133,26.667c-5.333,18.133-16,50.133-24.533,60.8
	c-8.533,10.667-14.933,9.6-23.467,23.467c-8.533,13.867-16,23.467-20.267,29.867s-12.8,22.4-13.867,30.933
	c-1.067,8.533,8.533,17.067,19.2,21.333C158.686,448,223.752,489.6,223.752,489.6s4.267-20.267,10.667-33.067
	c6.4-12.8,8.533-18.133,8.533-18.133c0-1.067-40.533-35.2-40.533-35.2s11.733-2.133,19.2-19.2c7.467-17.067,5.333-55.467,7.467-73.6
	C230.152,292.267,236.552,253.867,236.552,253.867z"/>
<path style="fill:#415A6B;" d="M287.752,261.333c-1.067,3.2-3.2,5.333-3.2,5.333s-8.533,23.467-11.733,40.533
	c-3.2,17.067-10.667,66.133-10.667,66.133l-24.533,86.4c0,0,6.4-106.667,6.4-126.933c1.067-20.267,9.6-44.8,16-55.467
	c5.333-10.667,19.2-18.133,19.2-18.133v-4.267l2.133-1.067C284.552,257.067,286.686,259.2,287.752,261.333z"/>
<path style="fill:#FFD15C;" d="M203.486,345.6c1.067,2.133,3.2,6.4,6.4,12.8c11.733-5.333,23.467-10.667,36.267-14.933V342.4
	c-3.2-9.6-4.267-8.533-3.2-17.067c1.067-8.533,0-25.6-2.133-33.067c-2.133-7.467-3.2-13.867-4.267-18.133
	c-1.067-4.267-1.067-14.933-2.133-23.467c-1.067-8.533-5.333-23.467-7.467-27.733c-3.2-3.2-8.533-2.133-8.533,1.067
	c0,4.267,2.133,11.733,2.133,17.067c1.067,4.267,1.067,22.4,1.067,25.6c0,3.2,0,5.333-2.133,5.333c-1.067,0-2.133-1.067-3.2-4.267
	c-2.133-3.2-4.267-7.467-8.533-7.467s-7.467,4.267-7.467,6.4c0,2.133,1.067,10.667,1.067,10.667s-4.267-1.067-7.467,3.2
	c-2.133,3.2-1.067,5.333-1.067,7.467c-1.067-1.067-3.2-3.2-5.333-2.133c-3.2,0-5.333,4.267-5.333,6.4
	c0,2.133-1.067,12.8,4.267,26.667C190.686,333.867,199.219,339.2,203.486,345.6z"/>
<path style="fill:#F3F3F3;" d="M253.619,372.267l-9.6-33.067c0,0-29.867,9.6-43.733,19.2l13.867,45.867L253.619,372.267z"/>
<path style="fill:#344A5E;" d="M422.152,306.133c-10.667-14.933-45.867-44.8-45.867-44.8l-14.933-10.667
	c2.133,18.133-45.867,64-80,103.467c-8.533,13.867-14.933,28.8-23.467,43.733c-11.733,40.533-25.6,101.333-28.8,116.267h152.533
	c0-12.8,2.133-60.8,14.933-81.067c14.933-23.467,30.933-27.733,37.333-66.133C440.286,326.4,432.819,321.067,422.152,306.133z"/>
<path style="fill:#FFD15C;" d="M364.552,454.4c0,0,6.4,5.333,8.533,9.6c2.133,4.267,2.133,6.4,0,8.533
	c-1.067,2.133-7.467,5.333-7.467,5.333s1.067,4.267,1.067,7.467s-3.2,5.333-6.4,4.267c0,0,0,5.333-3.2,7.467
	C352.819,499.2,346.419,496,346.419,496s1.067,5.333-3.2,6.4c-4.267,1.067-11.733-1.067-13.867-3.2c-2.133-3.2-2.133-3.2-2.133-3.2
	s-10.667,1.067-17.067-3.2s-6.4-4.267-6.4-4.267L364.552,454.4z"/>
<g>
	<path style="fill:#F7B64C;" d="M366.686,476.8c0,0-1.067-1.067-2.133-2.133c-1.067-1.067-2.133-3.2-3.2-5.333s-2.133-3.2-3.2-5.333
		c-1.067-1.067-1.067-2.133-1.067-2.133s1.067,1.067,2.133,2.133c1.067,1.067,2.133,3.2,4.267,5.333
		c1.067,2.133,2.133,4.267,3.2,5.333C365.619,475.733,366.686,476.8,366.686,476.8z"/>
	<path style="fill:#F7B64C;" d="M361.352,488.533c0,0-1.067-1.067-2.133-2.133c0-1.067-1.067-1.067-2.133-2.133
		c-1.067-1.067-1.067-2.133-2.133-2.133c-1.067-1.067-1.067-2.133-2.133-2.133l-1.067-1.067l-1.067-1.067
		c-1.067-1.067-1.067-1.067-1.067-1.067l-1.067-1.067c0,0,0,0,1.067,0c0,0,1.067,1.067,2.133,1.067c1.067,0,1.067,1.067,2.133,2.133
		c1.067,1.067,1.067,1.067,2.133,2.133c1.067,1.067,1.067,2.133,2.133,2.133c1.067,1.067,1.067,2.133,1.067,2.133
		C360.286,487.467,361.352,488.533,361.352,488.533z"/>
	<path style="fill:#F7B64C;" d="M347.486,494.933c0,0,0-1.067-1.067-1.067c-1.067-1.067-1.067-2.133-2.133-3.2
		c-1.067-1.067-2.133-2.133-2.133-3.2l-1.067-1.067l0,0l0,0c0,0,1.067,0,1.067,1.067l1.067,1.067c0,0,1.067,1.067,1.067,2.133
		c1.067,1.067,1.067,2.133,2.133,3.2C347.486,493.867,347.486,494.933,347.486,494.933z"/>
</g>
<g>
	<path style="fill:#415A6B;" d="M361.352,249.6c0,0,17.067,13.867,14.933,25.6c-2.133,11.733-7.467,20.267-7.467,20.267l-12.8-2.133
		l4.267,16c0,0-51.2,34.133-68.267,44.8c-17.067,11.733-45.867,86.4-54.4,105.6c0,0,10.667-58.667,21.333-87.467
		c11.733-28.8,76.8-90.667,76.8-90.667S358.152,261.333,361.352,249.6z"/>
	<path style="fill:#415A6B;" d="M337.886,371.2c0,0,1.067-14.933,20.267-29.867c18.133-16,37.333-30.933,56.533-32
		c19.2,0,27.733,21.333,22.4,50.133c-5.333,28.8-29.867,59.733-45.867,75.733c-16,14.933-58.667,51.2-82.133,59.733
		c-23.467,7.467-32,14.933-39.467,16s-13.867-1.067-19.2-9.6c-5.333-8.533-54.4-90.667-54.4-90.667s18.133-16,33.067-27.733
		c14.933-10.667,25.6-12.8,25.6-12.8s24.533,46.933,26.667,56.533c0,0,0-4.267,7.467-11.733c8.533-7.467,11.733-7.467,18.133-16
		C312.286,390.4,337.886,371.2,337.886,371.2z"/>
</g>
<g>
	<path style="fill:#344A5E;" d="M154.419,206.933c2.133,6.4,7.467,11.733,14.933,11.733s12.8-5.333,14.933-11.733H154.419z"/>
	<rect x="146.952" y="178.133" style="fill:#344A5E;" width="45.867" height="20.267"/>
</g>
<path style="fill:#E8EAE9;" d="M146.952,168.533h44.8c2.133-11.733,8.533-23.467,18.133-32c11.733-11.733,19.2-27.733,18.133-45.867
	c-2.133-28.8-25.6-53.333-54.4-54.4c-34.133-2.133-61.867,24.533-61.867,58.667c0,16,6.4,30.933,18.133,41.6
	C138.419,145.067,144.819,155.733,146.952,168.533z"/>
<path style="fill:#ADB3BA;" d="M169.352,149.333c-3.2,0-5.333,2.133-5.333,5.333v13.867h10.667v-13.867
	C174.686,151.467,172.552,149.333,169.352,149.333z"/>
<g>
	<path style="fill:#415A6B;" d="M193.886,178.133h-49.067c-2.133,0-3.2-1.067-3.2-3.2v-3.2c0-2.133,1.067-3.2,3.2-3.2h49.067
		c2.133,0,3.2,1.067,3.2,3.2v3.2C197.086,177.067,196.019,178.133,193.886,178.133z"/>
	<path style="fill:#415A6B;" d="M193.886,194.133h-49.067c-2.133,0-3.2-1.067-3.2-3.2v-3.2c0-2.133,1.067-3.2,3.2-3.2h49.067
		c2.133,0,3.2,1.067,3.2,3.2v3.2C197.086,192,196.019,194.133,193.886,194.133z"/>
	<path style="fill:#415A6B;" d="M193.886,209.067h-49.067c-2.133,0-3.2-1.067-3.2-3.2v-3.2c0-2.133,1.067-3.2,3.2-3.2h49.067
		c2.133,0,3.2,1.067,3.2,3.2v3.2C197.086,206.933,196.019,209.067,193.886,209.067z"/>
</g>
<g>
	<path style="fill:#ADB3BA;" d="M169.352,106.667c-3.2,0-6.4-1.067-8.533-2.133c-4.267-2.133-9.6-3.2-13.867-3.2
		c-1.067,0-2.133-1.067-2.133-2.133s1.067-2.133,2.133-2.133c5.333,0,11.733,1.067,16,4.267c4.267,2.133,9.6,2.133,13.867,0
		c5.333-3.2,10.667-4.267,16-4.267c1.067,0,2.133,1.067,2.133,2.133c0,1.067-1.067,2.133-2.133,2.133l0,0
		c-5.333,0-9.6,1.067-13.867,3.2C175.752,105.6,172.552,106.667,169.352,106.667z"/>
	<path style="fill:#ADB3BA;" d="M172.552,154.667h-7.467c-1.067,0-1.067,0-2.133-1.067c0-1.067-10.667-19.2-13.867-53.333
		c0-1.067,1.067-2.133,2.133-2.133c1.067,0,2.133,1.067,2.133,2.133c3.2,29.867,10.667,46.933,12.8,51.2h5.333
		c2.133-4.267,9.6-21.333,12.8-51.2c0-1.067,1.067-2.133,2.133-2.133c1.067,0,2.133,1.067,2.133,2.133
		c-3.2,35.2-13.867,53.333-13.867,53.333C174.686,154.667,173.619,154.667,172.552,154.667z"/>
</g>
<g>
	<path style="fill:#E8EAE9;" d="M169.352,0c-3.2,0-5.333,2.133-5.333,5.333V19.2c0,3.2,2.133,5.333,5.333,5.333
		c3.2,0,5.333-2.133,5.333-5.333V5.333C174.686,2.133,172.552,0,169.352,0z"/>
	<path style="fill:#E8EAE9;" d="M103.219,27.733c-2.133,2.133-2.133,5.333,0,7.467l9.6,9.6c2.133,2.133,5.333,2.133,7.467,0
		c2.133-2.133,2.133-5.333,0-7.467l-9.6-9.6C108.552,25.6,105.352,25.6,103.219,27.733z"/>
	<path style="fill:#E8EAE9;" d="M75.486,93.867c0,2.133,3.2,5.333,5.333,5.333h13.867c3.2,0,5.333-2.133,5.333-5.333
		c0-3.2-2.133-5.333-5.333-5.333H80.819C78.686,88.533,75.486,90.667,75.486,93.867z"/>
	<path style="fill:#E8EAE9;" d="M103.219,160c2.133,2.133,5.333,2.133,7.467,0l9.6-9.6c2.133-2.133,2.133-5.333,0-7.467
		s-5.333-2.133-7.467,0l-9.6,9.6C101.086,154.667,101.086,157.867,103.219,160z"/>
	<path style="fill:#E8EAE9;" d="M235.486,160c2.133-2.133,2.133-5.333,0-7.467l-9.6-9.6c-2.133-2.133-5.333-2.133-7.467,0
		s-2.133,5.333,0,7.467l9.6,9.6C230.152,162.133,233.352,162.133,235.486,160z"/>
	<path style="fill:#E8EAE9;" d="M263.219,93.867c0-3.2-2.133-5.333-5.333-5.333h-13.867c-3.2,0-5.333,2.133-5.333,5.333
		c0,3.2,2.133,5.333,5.333,5.333h13.867C261.086,99.2,263.219,96,263.219,93.867z"/>
	<path style="fill:#E8EAE9;" d="M235.486,27.733c-2.133-2.133-5.333-2.133-7.467,0l-9.6,9.6c-2.133,2.133-2.133,5.333,0,7.467
		s5.333,2.133,7.467,0l9.6-9.6C237.619,33.067,237.619,29.867,235.486,27.733z"/>
</g>
<g>
</g>
<g>
</g>
<g>
</g>
<g>
</g>
<g>
</g>
<g>
</g>
<g>
</g>
<g>
</g>
<g>
</g>
<g>
</g>
<g>
</g>
<g>
</g>
<g>
</g>
<g>
</g>
<g>
</g>
</svg>
