<?xml version="1.0" encoding="iso-8859-1"?>
<!-- Generator: Adobe Illustrator 19.0.0, SVG Export Plug-In . SVG Version: 6.00 Build 0)  -->
<svg version="1.1" id="Capa_1" xmlns="http://www.w3.org/2000/svg" xmlns:xlink="http://www.w3.org/1999/xlink" x="0px" y="0px"
	 viewBox="0 0 512 512" style="enable-background:new 0 0 512 512;" xml:space="preserve">
<path style="fill:#F3705A;" d="M512,23.467v131.2c0,12.8-10.667,23.467-23.467,23.467h-97.067L304,231.467v-53.333h-16
	c-12.8,0-23.467-10.667-23.467-23.467v-131.2C264.533,10.667,275.2,0,288,0h199.467C501.333,0,512,10.667,512,23.467z"/>
<g>
	<path style="fill:#FFFFFF;" d="M480,88.533c0,12.8-10.667,23.467-23.467,23.467c-12.8,0-23.467-10.667-23.467-23.467
		s10.667-23.467,23.467-23.467C469.333,66.133,480,75.733,480,88.533z"/>
	<path style="fill:#FFFFFF;" d="M411.733,88.533c0,12.8-10.667,23.467-23.467,23.467c-12.8,0-23.467-10.667-23.467-23.467
		s10.667-23.467,23.467-23.467C401.067,66.133,411.733,75.733,411.733,88.533z"/>
	<path style="fill:#FFFFFF;" d="M344.533,88.533c0,12.8-10.667,23.467-23.467,23.467c-12.8,0-23.467-10.667-23.467-23.467
		s10.667-23.467,23.467-23.467C333.867,66.133,344.533,75.733,344.533,88.533z"/>
</g>
<g>
	<path style="fill:#FFD15C;" d="M253.867,250.667c-3.2,11.733-8.533,21.333-11.733,20.267c-4.267-1.067-4.267-11.733-1.067-24.533
		c3.2-11.733,8.533-21.333,11.733-20.267C256,228.267,257.067,238.933,253.867,250.667z"/>
	<path style="fill:#FFD15C;" d="M130.133,265.6c-4.267,1.067-9.6-8.533-12.8-20.267c-2.133-12.8-1.067-23.467,3.2-23.467
		c4.267-1.067,11.733,7.467,14.933,19.2C138.667,252.8,134.4,264.533,130.133,265.6z"/>
	<path style="fill:#FFD15C;" d="M247.467,236.8c0,0-9.6,56.533-19.2,72.533c0,0-5.333,25.6-3.2,45.867s2.133,20.267,2.133,20.267
		l-54.4,13.867L134.4,339.2c0,0,1.067-33.067,0-41.6c0,0-7.467-27.733-6.4-50.133c0-22.4,13.867-68.267,13.867-68.267
		s16-20.267,17.067-20.267s46.933-1.067,46.933-1.067l37.333,12.8C243.2,170.667,248.533,213.333,247.467,236.8z"/>
</g>
<path style="fill:#F7B64C;" d="M225.067,355.2c-2.133-18.133,2.133-39.467,3.2-44.8c-11.733,9.6-23.467,17.067-34.133,17.067
	c-38.4-1.067-58.667-28.8-58.667-28.8c14.933,35.2,59.733,54.4,90.667,64C225.067,360.533,225.067,357.333,225.067,355.2z"/>
<path style="fill:#8AD7F8;" d="M370.133,512H0c0-2.133,0-3.2,0-5.333C2.133,491.733,2.133,464,2.133,448s6.4-39.467,6.4-39.467
	s12.8-25.6,37.333-37.333c24.533-10.667,73.6-27.733,73.6-27.733l23.467,34.133L192,370.133l23.467-1.067l11.733-19.2
	c0,0,41.6,22.4,65.067,33.067c23.467,10.667,46.933,28.8,46.933,38.4c0,0,13.867,25.6,14.933,38.4
	C354.133,467.2,362.667,492.8,370.133,512z"/>
<path style="fill:#415A6B;" d="M131.2,243.2h3.2c0,0,0-27.733,6.4-33.067c6.4-4.267,8.533-16,8.533-22.4s3.2-12.8,16-12.8
	c12.8,0,52.267,3.2,61.867,2.133c9.6-2.133,13.867,5.333,13.867,12.8c0,6.4-1.067,21.333,2.133,26.667c3.2,5.333-1.067,32-1.067,32
	h3.2c0,0,2.133-18.133,7.467-21.333c0,0,3.2-29.867-3.2-48c-6.4-18.133-25.6-28.8-34.133-34.133c-8.533-5.333-48-7.467-62.933,4.267
	c-14.933,11.733-21.333,24.533-23.467,32s-6.4,39.467-6.4,39.467S134.4,226.133,131.2,243.2z"/>
<g>
	<path style="fill:#E8EAE9;" d="M225.067,332.8c0,0-2.133,11.733-7.467,18.133c-5.333,6.4-25.6,18.133-25.6,18.133s16,6.4,35.2,48
		c0,0,4.267-24.533,4.267-34.133s-2.133-19.2-3.2-27.733C227.2,346.667,228.267,338.133,225.067,332.8"/>
	<path style="fill:#E8EAE9;" d="M135.467,317.867c0,0-1.067,10.667,13.867,22.4c14.933,12.8,42.667,28.8,42.667,28.8l-42.667,42.667
		c0,0-9.6-20.267-13.867-25.6c-4.267-5.333-18.133-23.467-17.067-38.4c0,0,4.267-9.6,7.467-13.867
		C129.067,329.6,131.2,321.067,135.467,317.867"/>
</g>
<g>
</g>
<g>
</g>
<g>
</g>
<g>
</g>
<g>
</g>
<g>
</g>
<g>
</g>
<g>
</g>
<g>
</g>
<g>
</g>
<g>
</g>
<g>
</g>
<g>
</g>
<g>
</g>
<g>
</g>
</svg>
