<?xml version="1.0" encoding="iso-8859-1"?>
<!-- Generator: Adobe Illustrator 19.0.0, SVG Export Plug-In . SVG Version: 6.00 Build 0)  -->
<svg version="1.1" id="Capa_1" xmlns="http://www.w3.org/2000/svg" xmlns:xlink="http://www.w3.org/1999/xlink" x="0px" y="0px"
	 viewBox="0 0 511.673 511.673" style="enable-background:new 0 0 511.673 511.673;" xml:space="preserve">
<path style="fill:#415A6B;" d="M240.858,503.51c0,0-1.067-3.2-1.067-6.4s0-5.333,0-9.6c0-4.267,1.067-8.533,3.2-10.667
	c2.133-2.133,14.933-3.2,19.2,2.133c3.2,5.333,4.267,11.733,6.4,14.933c2.133,3.2,2.133,7.467,2.133,7.467s2.133,4.267-1.067,6.4
	s-14.933,3.2-19.2,2.133C247.258,507.777,240.858,503.51,240.858,503.51z"/>
<path style="fill:#344A5E;" d="M309.124,497.11l13.867,4.267c0,0,2.133,2.133,0,5.333c-2.133,3.2-16,1.067-22.4-1.067
	c-6.4-3.2-9.6-4.267-11.733-8.533c-1.067-4.267-5.333-9.6-6.4-10.667l-1.067,3.2c0,0-8.533-4.267-9.6-8.533
	c-1.067-4.267-1.067-7.467,2.133-8.533c2.133-1.067,3.2-1.067,3.2-1.067L309.124,497.11z"/>
<path style="fill:#415A6B;" d="M282.458,457.643l-4.267,2.133c0,0-4.267,5.333-4.267,11.733c0,0,2.133,2.133,7.467,7.467
	c6.4,4.267,8.533,10.667,9.6,13.867c1.067,3.2,10.667,8.533,18.133,9.6c7.467,1.067,11.733,1.067,13.867-1.067
	c0,0,2.133-2.133-6.4-11.733c-8.533-9.6-11.733-18.133-12.8-24.533c-1.067-6.4-1.067-6.4-1.067-6.4L282.458,457.643z"/>
<path style="fill:#344A5E;" d="M322.991,219.777c0,0,6.4,19.2,4.267,25.6c-2.133,6.4-3.2,12.8-3.2,16s0,17.067,2.133,23.467
	c2.133,6.4,3.2,39.467,4.267,50.133c1.067,10.667-6.4,39.467-8.533,46.933s-9.6,53.333-10.667,59.733
	c-1.067,5.333-7.467,29.867-7.467,29.867s-10.667,4.267-16,2.133c-6.4-3.2-8.533-10.667-10.667-11.733c0,0,3.2-6.4,4.267-11.733
	c1.067-5.333,0-9.6,2.133-12.8c1.067-4.267,2.133-13.867,2.133-23.467c0-9.6,2.133-36.267,4.267-45.867
	c2.133-9.6,2.133-8.533,1.067-17.067s-5.333-35.2-9.6-46.933s-8.533-21.333-8.533-21.333s-8.533,51.2-10.667,57.6
	c-2.133,6.4-2.133,8.533-2.133,14.933c0,6.4,0,10.667,0,14.933c0,4.267-1.067,39.467-1.067,50.133s-1.067,20.267,0,24.533
	c1.067,4.267,3.2,30.933,3.2,35.2c0,0-2.133-2.133-8.533-2.133c-6.4,0-8.533,2.133-11.733,2.133c0,0-8.533-10.667-10.667-25.6
	c-1.067-16-4.267-42.667-4.267-52.267c0-9.6-2.133-44.8-2.133-53.333s-3.2-26.667-4.267-36.267
	c-1.067-9.6-4.267-36.267-2.133-43.733c2.133-7.467,10.667-58.667,10.667-58.667s39.467,17.067,82.133-7.467L322.991,219.777z"/>
<path style="fill:#FFD15C;" d="M319.791,222.977l-3.2,5.333c0,0,9.6,6.4,10.667,17.067c0,0,2.133-3.2,3.2-6.4
	c1.067-3.2,5.333-10.667,5.333-10.667L319.791,222.977z"/>
<path style="fill:#415A6B;" d="M209.924,156.843c0,0-3.2,8.533-5.333,13.867c-2.133,4.267-8.533,24.533-9.6,26.667
	c-1.067,2.133,5.333,25.6,5.333,28.8s8.533,17.067,8.533,17.067s-13.867,1.067-18.133,7.467c-4.267,6.4-4.267,9.6-4.267,9.6
	s-4.267-11.733-5.333-19.2c-1.067-7.467-1.067-10.667-3.2-14.933c-2.133-3.2-3.2-4.267-3.2-7.467
	c-1.067-3.2-1.067-5.333-2.133-8.533c-1.067-2.133-3.2-5.333-3.2-9.6s0-7.467-1.067-8.533c0-1.067-1.067-4.267,0-8.533
	c1.067-3.2,3.2-6.4,4.267-11.733c1.067-5.333,2.133-12.8,4.267-16c2.133-3.2,4.267-8.533,6.4-13.867c2.133-5.333,0-9.6,1.067-13.867
	c1.067-5.333,0-18.133,6.4-21.333c6.4-3.2,16,3.2,16,3.2S212.058,149.377,209.924,156.843z"/>
<ellipse style="fill:#344A5E;" cx="320.858" cy="170.71" rx="8.533" ry="28.8"/>
<path style="fill:#FFD15C;" d="M263.258,43.777c0,0,3.2,6.4,3.2,12.8l5.333,13.867l-11.733,25.6l-10.667-3.2l-13.867-12.8
	l-1.067-8.533c0,0-7.467-9.6-7.467-14.933c-1.067-5.333-1.067-5.333-1.067-5.333s-9.6-11.733-9.6-21.333s25.6-22.4,34.133-21.333
	c8.533,2.133,11.733,24.533,11.733,28.8C263.258,43.777,263.258,43.777,263.258,43.777z"/>
<path style="fill:#66C6B9;" d="M252.591,87.51h4.267l3.2-1.067l21.333-14.933l33.067,133.333c0,0-25.6,19.2-65.067,11.733
	L231.258,83.243L252.591,87.51z"/>
<path style="fill:#344A5E;" d="M224.858,86.443c0,0-2.133,3.2-8.533,6.4c-5.333,2.133-26.667,13.867-28.8,14.933
	c0,0,5.333,5.333,10.667,20.267c5.333,14.933,11.733,32,11.733,32s8.533,32,8.533,42.667c0,10.667-2.133,19.2-2.133,19.2
	s44.8,19.2,42.667-23.467c0,0-9.6-42.667-12.8-51.2c-3.2-8.533-18.133-57.6-18.133-57.6L224.858,86.443z"/>
<path style="fill:#E8EAE9;" d="M202.458,197.377l60.8,16c2.133,1.067,3.2,3.2,2.133,5.333l-24.533,57.6
	c-1.067,2.133-3.2,3.2-4.267,2.133l-59.733-20.267c-2.133-1.067-3.2-3.2-2.133-5.333l23.467-53.333
	C198.191,198.443,200.324,197.377,202.458,197.377z"/>
<path style="fill:#FFD15C;" d="M205.658,242.177c0,0,2.133,2.133,4.267,3.2c2.133,1.067,4.267,4.267,6.4,6.4
	c2.133,2.133,5.333,8.533,6.4,10.667c1.067,2.133,0,5.333-2.133,4.267c-2.133,0-4.267-2.133-5.333-4.267
	c-1.067-2.133-2.133-3.2-3.2-5.333c0,0,1.067,2.133,0,3.2c0,0,1.067,7.467,1.067,8.533l3.2,1.067c0,0,0,2.133-1.067,3.2
	c-1.067,2.133-2.133,2.133-4.267,0c0,0-2.133,1.067-4.267-1.067c0,0-1.067,1.067-2.133,0c-1.067-1.067-5.333-4.267-5.333-4.267
	s-2.133,0-4.267-1.067s-3.2-4.267-3.2-6.4c0-3.2,0-10.667-1.067-14.933c-1.067-4.267-1.067-5.333-1.067-5.333
	S202.458,237.91,205.658,242.177z"/>
<path style="fill:#344A5E;" d="M280.324,73.643c0,0,11.733,3.2,20.267,4.267c7.467,2.133,23.467,5.333,23.467,5.333
	s0,18.133-2.133,26.667c0,0,0,64,1.067,73.6c1.067,9.6,1.067,28.8,1.067,28.8l-14.933-20.267c0,0-16-29.867-17.067-46.933
	s-6.4-59.733-6.4-59.733"/>
<path style="fill:#415A6B;" d="M343.258,208.043c-2.133,9.6-6.4,26.667-7.467,28.8c0,0-2.133-5.333-5.333-8.533
	c-3.2-3.2-16-2.133-16-2.133s2.133-9.6,4.267-20.267c1.067-5.333,2.133-11.733,3.2-16c0-2.133,1.067-4.267,1.067-5.333
	c1.067-8.533,0-12.8,0-17.067c0-2.133-1.067-9.6-2.133-16l0,0c-1.067-4.267-1.067-8.533-2.133-11.733
	c-1.067-8.533,2.133-30.933,2.133-30.933c2.133-8.533,2.133-26.667,2.133-26.667s5.333,2.133,5.333,11.733
	c1.067,9.6,1.067,26.667,5.333,34.133c4.267,7.467,9.6,29.867,10.667,36.267C347.524,170.71,345.391,198.443,343.258,208.043z"/>
<g>
	<ellipse style="fill:#FFD15C;" cx="264.324" cy="36.31" rx="4.267" ry="9.6"/>
	
		<ellipse transform="matrix(-0.5077 -0.8615 0.8615 -0.5077 294.489 268.6562)" style="fill:#FFD15C;" cx="224.001" cy="50.191" rx="9.6" ry="4.267"/>
</g>
<path style="fill:#415A6B;" d="M224.858,53.377L224.858,53.377c1.067-1.067-1.067-4.267-2.133-6.4c0-2.133-1.067-4.267-2.133-6.4
	c-1.067-2.133,1.067-4.267,0-6.4c-1.067-2.133-1.067-7.467,3.2-10.667s12.8-5.333,18.133-7.467c5.333-3.2,13.867,1.067,13.867,5.333
	s3.2,4.267,4.267,6.4s2.133,7.467,2.133,9.6c0,2.133,0,6.4,0,6.4l0,0c0,0,2.133-19.2,1.067-25.6s-3.2-14.933-17.067-17.067
	c-11.733-2.133-18.133-1.067-21.333,2.133c-4.267,3.2-12.8,13.867-10.667,26.667c2.133,12.8,6.4,17.067,7.467,18.133
	C222.724,49.11,224.858,53.377,224.858,53.377z"/>
<path style="fill:#F7B64C;" d="M247.258,76.843c-6.4,0-12.8-5.333-12.8-5.333l1.067,8.533c0,0,6.4,6.4,10.667,9.6
	c5.333-2.133,12.8-6.4,14.933-12.8c5.333-9.6,5.333-19.2,5.333-19.2s-2.133,5.333-5.333,9.6
	C258.991,70.443,253.658,76.843,247.258,76.843z"/>
<g>
	<path style="fill:#E8EAE9;" d="M269.658,65.11c0,0,1.067,3.2,0,7.467c-2.133,4.267-9.6,14.933-9.6,14.933s9.6,5.333,10.667,7.467
		c0,0,6.4-17.067,7.467-20.267c0-3.2,0-3.2,0-3.2S270.724,64.043,269.658,65.11z"/>
	<path style="fill:#E8EAE9;" d="M234.458,73.643c0,0,2.133,2.133,7.467,5.333c5.333,3.2,14.933,8.533,14.933,8.533
		s-4.267,7.467-5.333,10.667c0,0-12.8-7.467-16-11.733c-4.267-5.333-4.267-5.333-4.267-5.333L234.458,73.643z"/>
</g>
<g>
	<path style="fill:#415A6B;" d="M272.858,67.243c0,0,3.2,7.467,4.267,16c1.067,8.533,7.467,45.867,9.6,59.733
		c2.133,13.867,17.067,51.2,19.2,56.533c2.133,6.4,9.6,21.333,9.6,26.667c0,0,7.467-8.533,7.467-17.067
		c0-8.533-8.533-20.267-12.8-28.8c-4.267-7.467-13.867-24.533-13.867-42.667s0-45.867,0-45.867l-8.533-2.133l4.267-4.267
		c0,0-4.267-9.6-9.6-11.733c-4.267-2.133-4.267-2.133-6.4-4.267C276.058,69.377,274.991,67.243,272.858,67.243z"/>
	<path style="fill:#415A6B;" d="M234.458,73.643c0,0-1.067,12.8,3.2,26.667s12.8,43.733,14.933,51.2s7.467,41.6,7.467,45.867
		c0,0-4.267-12.8-10.667-28.8s-27.733-62.933-27.733-62.933l6.4-5.333l-4.267-1.067c0,0-1.067-11.733,2.133-14.933
		c3.2-2.133,4.267-4.267,5.333-6.4C232.324,75.777,234.458,73.643,234.458,73.643z"/>
	<path style="fill:#415A6B;" d="M193.924,197.377c1.067-2.133,6.4-18.133,9.6-24.533h-33.067c-1.067,5.333-2.133,7.467-4.267,10.667
		c-1.067,3.2,0,7.467,0,8.533c0,1.067,1.067,4.267,1.067,8.533s2.133,6.4,3.2,9.6c1.067,2.133,1.067,4.267,2.133,8.533
		c1.067,3.2,1.067,4.267,3.2,7.467c2.133,3.2,2.133,7.467,3.2,14.933c1.067,7.467,5.333,19.2,5.333,19.2s0-3.2,4.267-9.6
		s18.133-7.467,18.133-7.467s-8.533-13.867-8.533-17.067C199.258,222.977,191.791,200.577,193.924,197.377z"/>
</g>
<path style="fill:#344A5E;" d="M240.858,497.11c0,0,0,4.267,3.2,6.4c3.2,2.133,7.467,4.267,13.867,4.267
	c7.467-1.067,12.8,0,12.8-7.467c0,0,4.267,7.467,0,9.6c-4.267,3.2-8.533,1.067-13.867,1.067c-5.333,0-9.6,1.067-12.8-2.133
	C238.724,505.643,238.724,502.443,240.858,497.11z"/>
<g>
</g>
<g>
</g>
<g>
</g>
<g>
</g>
<g>
</g>
<g>
</g>
<g>
</g>
<g>
</g>
<g>
</g>
<g>
</g>
<g>
</g>
<g>
</g>
<g>
</g>
<g>
</g>
<g>
</g>
</svg>
