<?xml version="1.0" encoding="iso-8859-1"?>
<!-- Generator: Adobe Illustrator 19.0.0, SVG Export Plug-In . SVG Version: 6.00 Build 0)  -->
<svg version="1.1" id="Capa_1" xmlns="http://www.w3.org/2000/svg" xmlns:xlink="http://www.w3.org/1999/xlink" x="0px" y="0px"
	 viewBox="0 0 512.106 512.106" style="enable-background:new 0 0 512.106 512.106;" xml:space="preserve">
<path style="fill:#FFD15C;" d="M400,291.786l-17.067,12.8l-9.6,12.8L332.8,341.92l-71.467-43.733c0,0,43.733-43.733,44.8-43.733
	C307.2,254.453,400,291.786,400,291.786z"/>
<path style="fill:#F7B64C;" d="M418.133,280.053c0,0,3.2,6.4,4.267,10.667c1.067,4.267-4.267,12.8-6.4,16
	c-2.133,2.133-6.4,7.467-13.867,5.333c-7.467-2.133-11.733-7.467-20.267-12.8c-8.533-4.267-38.4-22.4-41.6-23.467
	s-3.2-1.067-3.2-1.067s-3.2,4.267-4.267,5.333c0,0,9.6,6.4,14.933,10.667c5.333,4.267,14.933,10.667,19.2,12.8s7.467,4.267,9.6,3.2
	c2.133-1.067,4.267-3.2,4.267-3.2s3.2,7.467,4.267,10.667c1.067,3.2,1.067,7.467-2.133,11.733s-6.4,8.533-10.667,10.667
	c-4.267,2.133-12.8,4.267-18.133,3.2c-5.333-1.067-8.533-2.133-13.867-6.4c-5.333-3.2-32-24.533-32-24.533l32,25.6
	c0,0,3.2,7.467,2.133,12.8c-1.067,5.333-5.333,10.667-8.533,12.8c-3.2,3.2-11.733,5.333-18.133,2.133c-6.4-3.2-6.4-3.2-6.4-3.2
	s-1.067,6.4-5.333,11.733c-4.267,4.267-6.4,7.467-11.733,6.4c-5.333,0-11.733-2.133-17.067-4.267
	c-5.333-2.133-8.533-5.333-8.533-5.333l-104.533-68.267l-17.067-17.067c0,0-13.867-14.933-25.6-19.2s-86.4-20.267-86.4-20.267
	V125.386c0,0,133.333,45.867,140.8,49.067c7.467,3.2,26.667,6.4,34.133,3.2s25.6-4.267,25.6-4.267l108.8,38.4l82.133,48
	L418.133,280.053z"/>
<polygon style="fill:#E8EAE9;" points="148.267,150.986 123.733,282.186 21.333,262.986 45.867,131.786 "/>
<path style="fill:#FFD15C;" d="M468.267,219.253c7.467-25.6,16-51.2,21.333-77.867c-12.8,6.4-27.733,12.8-37.333,17.067
	c-21.333,9.6-36.267,11.733-43.733,14.933c-7.467,3.2-20.267,8.533-28.8,8.533s-52.267-14.933-65.067-19.2
	c-3.2-1.067-5.333-2.133-7.467-2.133c-7.467-3.2-16-3.2-23.467-2.133c-13.867,2.133-34.133,5.333-40.533,5.333
	c-9.6,0-11.733-2.133-20.267,4.267c-7.467,5.333-16,19.2-16,19.2L179.2,201.12c0,0,12.8,38.4,66.133,2.133
	c0,0,22.4-4.267,26.667-5.333c0,0,26.667,11.733,41.6,18.133c14.933,6.4,70.4,39.467,77.867,43.733
	c6.4,4.267,24.533,20.267,24.533,20.267s14.933,0,35.2-6.4C458.667,255.52,462.933,237.386,468.267,219.253z"/>
<path style="fill:#F7B64C;" d="M253.867,190.453C253.867,190.453,252.8,190.453,253.867,190.453c0-1.067,0-1.067,0-1.067v-1.067
	v-1.067c0,0,0,0,0,1.067c0,0,0,0,0,1.067C252.8,189.386,252.8,189.386,253.867,190.453C252.8,190.453,252.8,190.453,253.867,190.453
	c-1.067,0-1.067,1.067-1.067,1.067v1.067v1.067c0,0,0,1.067-1.067,1.067c-1.067,2.133-2.133,3.2-3.2,4.267
	c0,1.067-1.067,1.067-1.067,1.067l0,0l0,0c0,0,2.133,0,5.333-1.067l1.067-5.333c0-1.067,0-1.067,0-2.133s0-1.067,0-2.133
	c0-1.067,0-1.067,0-1.067C253.867,191.52,253.867,190.453,253.867,190.453z"/>
<path style="fill:#FFD15C;" d="M270.933,368.586c0,0-13.867,9.6-27.733,4.267c-12.8-4.267-19.2-6.4-21.333-12.8
	c0,0-7.467,1.067-13.867-7.467c0,0-10.667-6.4-12.8-14.933c0,0-14.933,2.133-21.333-2.133c-6.4-4.267-12.8-6.4-9.6-24.533
	c0,0-6.4,1.067-11.733-5.333c0,0-10.667-6.4-12.8-9.6c0,0,1.067-14.933,9.6-13.867c0,0,12.8,4.267,20.267,18.133
	c0,0,5.333-9.6,12.8-8.533c7.467,1.067,17.067,5.333,18.133,12.8l6.4-10.667c0,0,10.667-3.2,17.067,2.133
	c6.4,5.333,6.4,14.933,6.4,17.067c0,2.133-5.333,21.333-5.333,21.333l1.067,3.2c0,0,4.267-8.533,6.4-11.733
	c2.133-3.2,6.4-5.333,13.867-1.067s9.6,12.8,9.6,16c0,3.2-2.133,12.8-2.133,12.8S264.533,365.387,270.933,368.586z"/>
<g>
	<path style="fill:#F7B64C;" d="M225.067,337.653l-1.067-3.2c0,0-6.4,13.867-4.267,25.6c1.067,0,1.067,0,1.067,0
		s-1.067-2.133-1.067-7.467C221.867,348.32,225.067,337.653,225.067,337.653z"/>
	<path style="fill:#F7B64C;" d="M194.133,337.653L194.133,337.653l-1.067-1.067L192,335.52c0-1.067-1.067-1.067-1.067-2.133
		c0,0,0,0,0-1.067c0,0,0,0,0-1.067v-1.067c0-1.067,0-2.133,0-3.2c0-1.067,0-1.067,1.067-1.067c0,0,0-1.067,1.067-1.067
		c0-1.067,1.067-2.133,1.067-3.2c0-1.067,1.067-2.133,1.067-3.2c0,0,0-1.067,1.067-1.067c0,0,0-1.067,1.067-1.067
		c0-1.067,1.067-2.133,1.067-3.2c0,0,0,0,0-1.067c0,0,0,0,0-1.067v-1.067v-1.067v-1.067l0,0l0,0v-1.067v-1.067l0,0l0,0l0,0
		c0,0,0,0,0,1.067c0,0,0,1.067,0,2.133v1.067v1.067v1.067v1.067c0,1.067-1.067,2.133-1.067,3.2c0,1.067-1.067,2.133-1.067,3.2
		s-1.067,2.133-1.067,3.2c0,1.067-1.067,2.133-1.067,3.2c0,0,0,1.067-1.067,1.067c0,0,0,1.067-1.067,1.067c0,1.067,0,2.133,0,3.2
		v1.067c0,0,0,0,0,1.067c0,0,0,0,0,1.067s0,1.067,1.067,2.133C193.067,337.653,194.133,337.653,194.133,337.653
		C194.133,337.653,194.133,337.653,194.133,337.653z"/>
	<path style="fill:#F7B64C;" d="M163.2,312.053c0,0-1.067-1.067-3.2-2.133c-1.067-1.067-3.2-2.133-5.333-3.2
		c-3.2-3.2-5.333-5.333-4.267-7.467s4.267-2.133,8.533-2.133c2.133,0,4.267,1.067,6.4,2.133s3.2,1.067,3.2,1.067
		s1.067,1.067,2.133,2.133c1.067,1.067,3.2,2.133,4.267,4.267c3.2,3.2,5.333,5.333,4.267,6.4c-1.067,1.067-3.2,1.067-7.467,1.067
		c-2.133,0-4.267-1.067-6.4-1.067C164.267,312.053,163.2,312.053,163.2,312.053z"/>
</g>
<g>
	<path style="fill:#F3F3F3;" d="M176,298.186c0,0-3.2,8.533-3.2,11.733c0,4.267,3.2,7.467,5.333,8.533s6.4,1.067,8.533,0
		c2.133-1.067,4.267-4.267,4.267-4.267S186.667,304.586,176,298.186z"/>
	<path style="fill:#F3F3F3;" d="M204.8,298.186c0,0,6.4,6.4,9.6,8.533c3.2,2.133,4.267,5.333,3.2,8.533
		c-1.067,2.133-4.267,6.4-8.533,6.4s-7.467-5.333-7.467-8.533C201.6,310.986,203.733,302.453,204.8,298.186z"/>
	<path style="fill:#F3F3F3;" d="M240,344.053c-2.133,2.133-4.267,5.333-9.6,2.133c-3.2-2.133-2.133-6.4-2.133-8.533
		c1.067-2.133,1.067-4.267,2.133-6.4l1.067-4.267c2.133,1.067,9.6,8.533,9.6,11.733C243.2,339.786,241.067,341.92,240,344.053z"/>
	<path style="fill:#F3F3F3;" d="M208,189.386c1.067-3.2,0-3.2,0-3.2l-27.733,13.867c3.2-1.067,14.933-1.067,18.133-2.133
		C201.6,197.92,206.933,192.586,208,189.386z"/>
</g>
<g>
	<path style="fill:#415A6B;" d="M498.133,47.52l-121.6,410.667c19.2,4.267,22.4,14.933,85.333-197.333
		C525.867,47.52,517.333,54.986,498.133,47.52z"/>
	<path style="fill:#415A6B;" d="M0,427.253c4.267,21.333,22.4,37.333,45.867,37.333h330.667c11.733,0,22.4-9.6,22.4-22.4v-14.933H0z
		"/>
	<polygon style="fill:#415A6B;" points="137.6,137.12 102.4,324.853 0,305.653 35.2,118.986 	"/>
</g>
<circle style="fill:#344A5E;" cx="73.6" cy="285.386" r="14.933"/>
<g>
</g>
<g>
</g>
<g>
</g>
<g>
</g>
<g>
</g>
<g>
</g>
<g>
</g>
<g>
</g>
<g>
</g>
<g>
</g>
<g>
</g>
<g>
</g>
<g>
</g>
<g>
</g>
<g>
</g>
</svg>
