<?xml version="1.0" encoding="iso-8859-1"?>
<!-- Generator: Adobe Illustrator 19.0.0, SVG Export Plug-In . SVG Version: 6.00 Build 0)  -->
<svg version="1.1" id="Capa_1" xmlns="http://www.w3.org/2000/svg" xmlns:xlink="http://www.w3.org/1999/xlink" x="0px" y="0px"
	 viewBox="0 0 512.494 512.494" style="enable-background:new 0 0 512.494 512.494;" xml:space="preserve">
<rect x="312.817" y="462.361" style="fill:#F7B64C;" width="44.8" height="30.933"/>
<path style="fill:#415A6B;" d="M96.284,512.494c-8.533-37.333-30.933-124.8-44.8-169.6c2.133-67.2-13.867-100.267-40.533-105.6
	c0,0-9.6-1.067-10.667,35.2c-1.067,33.067,9.6,181.333,22.4,240H96.284z"/>
<path style="fill:#344A5E;" d="M61.084,402.628c2.133,10.667-1.067,73.6-4.267,100.267c0,1.067,0,5.333-1.067,9.6h263.467l-1.067-64
	l25.6-91.733l-11.733-96c-3.2-23.467-20.267-42.667-42.667-48c-20.267-5.333-41.6-10.667-46.933-12.8c-1.067,0-1.067,0-1.067,0
	l-110.933,84.267l-22.4-78.933l-26.667-4.267l-70.4,36.267c8.533,8.533,38.4,93.867,38.4,93.867S58.951,391.961,61.084,402.628z"/>
<path style="fill:#CED6E0;" d="M170.951,208.494l2.133-1.067l30.933-16l5.333-6.4l20.267,25.6c0,0-18.133,132.267-30.933,165.333
	c-12.8,33.067-12.8,33.067-12.8,33.067s-23.467-52.267-35.2-66.133s-54.4-69.333-50.133-102.4s19.2-39.467,19.2-39.467"/>
<path style="fill:#FFD15C;" d="M111.217,211.694h87.467l4.267-42.667c0,0,3.2-2.133,9.6-17.067
	c5.333-14.933,4.267-39.467,4.267-39.467s29.867-58.667-14.933-74.667c-45.867-17.067-84.267,24.533-84.267,24.533v69.333
	c0,0,1.067,14.933,3.2,21.333L111.217,211.694z"/>
<path style="fill:#F3705A;" d="M163.484,221.294l2.133,10.667c0,0,9.6,19.2,11.733,29.867c2.133,10.667,20.267,99.2,20.267,99.2
	l-12.8,49.067l-16-44.8c0,0-11.733-76.8-13.867-89.6s-5.333-25.6-3.2-30.933s3.2-12.8,3.2-12.8l2.133-10.667L163.484,221.294
	L163.484,221.294z"/>
<path style="fill:#F05540;" d="M150.684,207.428l8.533,1.067h10.667l8.533,8.533c0,0-11.733,7.467-12.8,14.933
	c0-2.133-10.667-2.133-10.667,0c0,0-8.533-8.533-12.8-10.667C138.951,220.228,150.684,207.428,150.684,207.428z"/>
<g>
	
		<ellipse transform="matrix(-0.1179 -0.993 0.993 -0.1179 17.9794 232.4549)" style="fill:#FFD15C;" cx="112.234" cy="108.242" rx="22.399" ry="8.533"/>
	
		<ellipse transform="matrix(-0.1179 0.993 -0.993 -0.1179 354.3781 -86.8993)" style="fill:#FFD15C;" cx="215.785" cy="113.946" rx="22.399" ry="8.533"/>
</g>
<g>
	<path style="fill:#415A6B;" d="M117.617,131.694h5.333c0,0-2.133-19.2,2.133-29.867s9.6-17.067,7.467-27.733s0-13.867,4.267-14.933
		c0,0,13.867,6.4,28.8,0c14.933-6.4,18.133-13.867,25.6-12.8c7.467,1.067,21.333,4.267,23.467,9.6s3.2,16,2.133,26.667
		c-2.133,11.733,1.067,42.667,1.067,42.667l2.133-1.067c0,0,1.067-13.867,4.267-22.4c16-20.267,17.067-74.667-4.267-62.933
		c0,0-4.267-32-51.2-38.4s-65.067,51.2-64,66.133c0,14.933,11.733,30.933,11.733,36.267
		C114.417,108.228,117.617,131.694,117.617,131.694z"/>
	<path style="fill:#415A6B;" d="M204.017,171.161c0,0,8.533,21.333,10.667,36.267s1.067,64-3.2,80s-20.267,88.533-23.467,106.667
		c-4.267,18.133-9.6,48-9.6,65.067c0,0,4.267-44.8,13.867-64c9.6-19.2,44.8-87.467,58.667-116.267
		c13.867-28.8,20.267-53.333,20.267-53.333l-17.067-10.667l5.333-4.267c0,0-7.467-10.667-17.067-13.867
		c-9.6-3.2-12.8-5.333-17.067-11.733C222.151,177.561,214.684,171.161,204.017,171.161z"/>
</g>
<g>
	<path style="fill:#F3F3F3;" d="M202.951,170.094c0,0-1.067,7.467-7.467,17.067c-6.4,9.6-25.6,22.4-25.6,22.4l21.333,38.4
		c0,0,7.467-14.933,14.933-25.6c7.467-10.667,5.333-25.6,4.267-33.067C208.284,179.694,202.951,170.094,202.951,170.094z"/>
	<path style="fill:#F3F3F3;" d="M159.217,208.494c0,0-4.267,1.067-10.667,12.8c-5.333,10.667-11.733,33.067-11.733,33.067
		s-23.467-41.6-29.867-49.067c-5.333-7.467-4.267-17.067-4.267-17.067s6.4-2.133,8.533-12.8c3.2-9.6,7.467-17.067,7.467-17.067
		s0,17.067,8.533,27.733C135.751,196.761,159.217,208.494,159.217,208.494z"/>
</g>
<path style="fill:#415A6B;" d="M183.751,417.561C183.751,416.494,183.751,416.494,183.751,417.561c0-1.067,1.067-2.133,1.067-3.2
	c0,0,0,0,0-1.067c-1.067-11.733-2.133-23.467-5.333-30.933c-8.533-18.133-29.867-70.4-40.533-100.267
	c-10.667-28.8-25.6-110.933-25.6-110.933c-4.267-1.067-14.933,11.733-20.267,19.2c-5.333,7.467-10.667,7.467-13.867,13.867
	c-3.2,5.333-7.467,16-7.467,16l9.6,4.267l-17.067,9.6c13.867,32,87.467,119.467,104.533,147.2
	c7.467,12.8,11.733,27.733,13.867,39.467C183.751,419.694,183.751,418.628,183.751,417.561z"/>
<path style="fill:#CED6E0;" d="M142.151,470.894L142.151,470.894c0,4.267,3.2,8.533,7.467,9.6l94.933,20.267l22.4-34.133
	L142.151,470.894z"/>
<polygon style="fill:#ADB3BA;" points="241.351,494.361 142.151,470.894 298.951,429.294 335.217,463.428 "/>
<path style="fill:#E8EAE9;" d="M247.751,501.828l195.2-53.333c2.133,0,3.2-2.133,3.2-4.267l20.267-148.267
	c0-3.2-2.133-6.4-5.333-5.333l-200.533,43.733c-2.133,0-3.2,2.133-3.2,4.267l-14.933,157.867
	C241.351,499.694,244.551,502.894,247.751,501.828z"/>
<path style="fill:#FFD15C;" d="M275.484,493.294l34.133-9.6c0,0,0-16,1.067-20.267c1.067-4.267,5.333-5.333,7.467-5.333
	s5.333,3.2,5.333,5.333c1.067,2.133,0,13.867-1.067,16c0,2.133,1.067,7.467,1.067,7.467s2.133-9.6,3.2-19.2
	s-1.067-21.333-1.067-24.533s3.2-8.533,7.467-8.533s6.4,2.133,7.467,7.467s1.067,10.667,2.133,16c0,5.333,2.133,19.2,2.133,20.267
	c0,1.067,2.133-2.133,1.067-9.6c-1.067-7.467,1.067-12.8,0-21.333c-1.067-7.467-2.133-14.933,3.2-17.067
	c5.333-1.067,8.533,2.133,9.6,6.4c1.067,4.267,2.133,18.133,2.133,20.267c0,3.2,1.067,5.333,1.067,9.6
	c2.133,3.2,1.067,3.2,1.067,3.2l14.933-4.267l3.2,1.067c0,0,4.267-12.8,12.8-10.667l1.067,7.467c0,0,1.067,4.267,3.2,6.4
	c2.133,2.133,1.067,7.467-2.133,8.533c-3.2,1.067-4.267,1.067-7.467,2.133c-3.2,1.067-3.2,1.067-6.4,3.2
	c-3.2,2.133-9.6,1.067-9.6,1.067s-6.4,5.333-9.6,7.467s-9.6,5.333-11.733,5.333c0,0-7.467,5.333-12.8,6.4
	c-5.333,1.067-10.667,1.067-16-2.133c-6.4-3.2-6.4-4.267-9.6-7.467s-5.333-3.2-8.533-3.2S284.017,495.428,275.484,493.294z"/>
<path style="fill:#F7B64C;" d="M381.084,466.628l-3.2-1.067l-14.933,4.267c0,0,0,4.267,0,8.533s1.067,5.333,1.067,5.333v-6.4
	c0,0,3.2,1.067,4.267,3.2c1.067,2.133,1.067,2.133,1.067,2.133s0-2.133-2.133-4.267c0,0,5.333,3.2,7.467,4.267
	c0,0-4.267-3.2-6.4-5.333c0,0,0-2.133,3.2-1.067c4.267,2.133,7.467,3.2,9.6,3.2c0,0-3.2-2.133-4.267-6.4
	C376.817,469.828,381.084,466.628,381.084,466.628z"/>
<path style="fill:#415A6B;" d="M96.284,512.494c-8.533-36.267-30.933-125.867-44.8-169.6c0,0,0,0,0-1.067h-48
	c4.267,54.4,10.667,132.267,19.2,169.6h73.6V512.494z"/>
<path style="fill:#F3705A;" d="M512.284,166.894v73.6c0,10.667-8.533,19.2-20.267,19.2h-60.8l-68.267,42.667v-42.667h-8.533
	c-10.667,0-20.267-8.533-20.267-19.2v-73.6c0-10.667,8.533-20.267,20.267-20.267h136.533
	C503.751,147.694,512.284,156.228,512.284,166.894z"/>
<path style="fill:#66C6B9;" d="M423.751,30.361v78.933c0,10.667-8.533,19.2-20.267,19.2h-64l-71.467,45.867v-45.867h-1.067
	c-10.667,0-20.267-8.533-20.267-19.2V30.361c1.067-10.667,9.6-19.2,20.267-19.2h136.533
	C415.217,11.161,423.751,19.694,423.751,30.361z"/>
<g>
	<rect x="360.817" y="177.561" style="fill:#FFFFFF;" width="125.867" height="16"/>
	<rect x="360.817" y="213.828" style="fill:#FFFFFF;" width="74.667" height="16"/>
	<rect x="273.351" y="44.228" style="fill:#FFFFFF;" width="125.867" height="16"/>
	<rect x="273.351" y="80.494" style="fill:#FFFFFF;" width="125.867" height="16"/>
</g>
<g>
</g>
<g>
</g>
<g>
</g>
<g>
</g>
<g>
</g>
<g>
</g>
<g>
</g>
<g>
</g>
<g>
</g>
<g>
</g>
<g>
</g>
<g>
</g>
<g>
</g>
<g>
</g>
<g>
</g>
</svg>
