<?xml version="1.0" encoding="iso-8859-1"?>
<!-- Generator: Adobe Illustrator 19.0.0, SVG Export Plug-In . SVG Version: 6.00 Build 0)  -->
<svg version="1.1" id="Capa_1" xmlns="http://www.w3.org/2000/svg" xmlns:xlink="http://www.w3.org/1999/xlink" x="0px" y="0px"
	 viewBox="0 0 512.051 512.051" style="enable-background:new 0 0 512.051 512.051;" xml:space="preserve">
<path style="fill:#E8EAE9;" d="M467.2,53.926v260.267h-384V53.926c0-12.8,10.667-23.467,23.467-23.467h336
	C456.533,29.393,467.2,41.126,467.2,53.926z"/>
<path style="fill:#CED6E0;" d="M508.8,384.593l-41.6-70.4h-384l-41.6,70.4c-10.667,18.133,2.133,40.533,23.467,40.533h420.267
	C505.6,425.126,518.4,402.726,508.8,384.593z"/>
<polygon style="fill:#ADB3BA;" points="209.067,390.993 234.667,347.259 315.733,347.259 341.333,390.993 "/>
<rect x="115.2" y="61.393" style="fill:#55C0EB;" width="320" height="219.733"/>
<path style="fill:#F3705A;" d="M435.2,282.193h-192l4.267-26.667c2.133-8.533,7.467-16,14.933-19.2l36.267-19.2H377.6l36.267,19.2
	c7.467,3.2,13.867,10.667,14.933,19.2L435.2,282.193z"/>
<g>
	
		<ellipse transform="matrix(0.2198 -0.9755 0.9755 0.2198 138.3803 489.7968)" style="fill:#FFD15C;" cx="375.409" cy="158.384" rx="12.799" ry="7.466"/>
	
		<ellipse transform="matrix(0.2198 0.9755 -0.9755 0.2198 390.5132 -172.0716)" style="fill:#FFD15C;" cx="302.835" cy="158.111" rx="12.799" ry="7.466"/>
</g>
<g>
	<polygon style="fill:#415A6B;" points="346.667,256.593 353.067,251.259 339.2,237.393 326.4,251.259 331.733,256.593 	"/>
	<polygon style="fill:#415A6B;" points="352,282.193 346.667,256.593 331.733,256.593 326.4,282.193 	"/>
</g>
<rect x="312.533" y="173.393" style="fill:#F7B64C;" width="54.4" height="64"/>
<ellipse style="fill:#FFD15C;" cx="339.2" cy="154.193" rx="37.333" ry="56.533"/>
<path style="fill:#415A6B;" d="M301.867,155.259h4.267c0-5.333-1.067-12.8-1.067-13.867c0-2.133,5.333-3.2,5.333-9.6
	c0-3.2,0-6.4,1.067-9.6c1.067-3.2,3.2-5.333,7.467-5.333c10.667,1.067,35.2-2.133,45.867,2.133c7.467,2.133,0,9.6,3.2,12.8
	c3.2,3.2,4.267,1.067,4.267,4.267c0,2.133,1.067,19.2,1.067,23.467h2.133c1.067-4.267,3.2-18.133,6.4-29.867
	c4.267-16,1.067-28.8-12.8-39.467C355.2,79.526,336,79.526,323.2,83.793c-11.733,4.267-20.267,12.8-26.667,25.6
	c-5.333,10.667,5.333,36.267,5.333,39.467C300.8,149.926,301.867,153.126,301.867,155.259z"/>
<g>
	<path style="fill:#F3F3F3;" d="M366.933,201.126c-6.4,16-14.933,28.8-27.733,37.333c0,0,18.133,17.067,20.267,21.333l20.267-41.6
		L366.933,201.126z"/>
	<path style="fill:#F3F3F3;" d="M312.533,201.126c4.267,13.867,12.8,25.6,27.733,37.333c0,0-18.133,17.067-20.267,21.333
		l-20.267-41.6L312.533,201.126z"/>
</g>
<path style="fill:#344A5E;" d="M358.4,481.659v-45.867c0-28.8-18.133-54.4-44.8-65.067l-48-19.2l-81.067-29.867l-80,18.133
	l-64,29.867C16,380.326,0,404.859,0,432.593v49.067L358.4,481.659L358.4,481.659z"/>
<g>
	<path style="fill:#FFD15C;" d="M249.6,224.593c0,0-13.867,71.467-13.867,97.067h-93.867c0-24.533-13.867-97.067-13.867-97.067
		l59.733-6.4l0,0l0,0l0,0l0,0L249.6,224.593z"/>
	<path style="fill:#FFD15C;" d="M262.4,224.593c-1.067,12.8-8.533,21.333-14.933,21.333c-6.4-1.067-11.733-11.733-9.6-24.533
		s8.533-21.333,14.933-21.333C259.2,200.059,263.467,211.793,262.4,224.593z"/>
	<path style="fill:#FFD15C;" d="M117.333,224.593c1.067,12.8,8.533,21.333,14.933,21.333c6.4-1.067,11.733-11.733,9.6-24.533
		c-2.133-12.8-8.533-21.333-14.933-21.333S115.2,211.793,117.333,224.593z"/>
</g>
<path style="fill:#415A6B;" d="M158.933,271.526c20.267,5.333,39.467,4.267,59.733-1.067c7.467-2.133,13.867-7.467,17.067-13.867
	c7.467-11.733,18.133-33.067,24.533-60.8c9.6-43.733-8.533-65.067-12.8-71.467c-3.2-5.333-50.133-37.333-102.4-12.8
	c-13.867,6.4-24.533,20.267-26.667,35.2c-2.133,13.867-3.2,33.067,3.2,52.267c7.467,22.4,13.867,41.6,17.067,54.4
	C141.867,261.926,149.333,269.393,158.933,271.526z"/>
<path style="fill:#E8EAE9;" d="M130.133,321.659c0,0,5.333-25.6,26.667-30.933c21.333-5.333,55.467,5.333,58.667,6.4
	c9.6,2.133,20.267,13.867,26.667,36.267l-116.267-6.4L130.133,321.659z"/>
<path style="fill:#415A6B;" d="M104.533,339.793c0,0,7.467-4.267,17.067-11.733c8.533-8.533,12.8-16,34.133-18.133
	c21.333-2.133,57.6,5.333,69.333,7.467c11.733,3.2,22.4,20.267,28.8,23.467c6.4,3.2,11.733,10.667,11.733,10.667
	s-8.533-4.267-19.2-7.467c-10.667-2.133-50.133-8.533-66.133-8.533s-51.2,1.067-60.8,1.067
	C108.8,337.659,104.533,339.793,104.533,339.793z"/>
<g>
</g>
<g>
</g>
<g>
</g>
<g>
</g>
<g>
</g>
<g>
</g>
<g>
</g>
<g>
</g>
<g>
</g>
<g>
</g>
<g>
</g>
<g>
</g>
<g>
</g>
<g>
</g>
<g>
</g>
</svg>
