<?xml version="1.0" encoding="iso-8859-1"?>
<!-- Generator: Adobe Illustrator 19.0.0, SVG Export Plug-In . SVG Version: 6.00 Build 0)  -->
<svg version="1.1" id="Capa_1" xmlns="http://www.w3.org/2000/svg" xmlns:xlink="http://www.w3.org/1999/xlink" x="0px" y="0px"
	 viewBox="0 0 513.451 513.451" style="enable-background:new 0 0 513.451 513.451;" xml:space="preserve">
<rect x="231.451" y="431.69" style="fill:#4ABAA5;" width="251.733" height="65.067"/>
<path style="fill:#66C6B9;" d="M501.317,433.823H189.851c-6.4,0-11.733-5.333-11.733-11.733l0,0c0-6.4,5.333-11.733,11.733-11.733
	h311.467c6.4,0,11.733,5.333,11.733,11.733l0,0C513.051,428.49,507.717,433.823,501.317,433.823z"/>
<path style="fill:#FFD15C;" d="M131.184,41.29v14.933c0,0,11.733,22.4,11.733,35.2c0,0-2.133,5.333-1.067,9.6
	c1.067,4.267,9.6,19.2,9.6,19.2s4.267,5.333,0,8.533c-4.267,3.2-8.533,4.267-8.533,4.267s0,7.467,2.133,10.667
	c2.133,3.2,0,5.333-2.133,5.333c0,0,3.2,2.133,1.067,6.4c-2.133,4.267-5.333,8.533-5.333,17.067
	c1.067,8.533-11.733,9.6-23.467,5.333l-6.4,19.2L40.517,169.29l3.2-36.267c0,0-29.867-42.667-10.667-70.4
	S120.517,26.357,131.184,41.29z"/>
<path style="fill:#F7B64C;" d="M73.584,143.69c0,0,17.067,26.667,36.267,48l5.333-16C105.584,171.423,81.051,156.49,73.584,143.69z"
	/>
<path style="fill:#344A5E;" d="M47.984,496.757h177.067c-7.467-19.2-24.533-98.133-41.6-146.133
	c-21.333-61.867-44.8-125.867-52.267-139.733c-6.4-14.933-12.8-20.267-12.8-20.267s-74.667-20.267-76.8-20.267h-12.8
	c0,0-7.467,29.867-17.067,40.533c-9.6,10.667-13.867,39.467-10.667,62.933S45.851,478.623,47.984,496.757z"/>
<path style="fill:#415A6B;" d="M35.184,157.557c1.067-3.2,4.267-4.267,7.467-4.267c7.467,1.067,23.467,4.267,42.667,13.867
	c26.667,14.933,34.133,22.4,34.133,22.4s-6.4,8.533-7.467,24.533c0,0-45.867-33.067-61.867-38.4
	c-16-5.333-20.267-5.333-20.267-5.333L35.184,157.557z"/>
<g>
	<path style="fill:#E8EAE9;" d="M463.984,407.157L463.984,407.157c-3.2-1.067-4.267-4.267-3.2-6.4l42.667-121.6
		c1.067-3.2,4.267-4.267,6.4-3.2l0,0c3.2,1.067,4.267,4.267,3.2,6.4l-42.667,121.6C469.317,406.09,466.117,407.157,463.984,407.157z
		"/>
	<path style="fill:#E8EAE9;" d="M471.451,398.623L471.451,398.623H319.984l0,0c0,6.4,5.333,11.733,11.733,11.733h128
		C466.117,410.357,471.451,405.023,471.451,398.623z"/>
</g>
<path style="fill:#FFD15C;" d="M303.984,371.957c0,0,10.667-1.067,27.733-5.333c17.067-4.267,22.4-5.333,26.667-7.467
	c4.267-1.067,6.4,1.067,11.733,3.2c5.333,2.133,24.533,6.4,25.6,6.4c2.133,0,8.533,4.267,11.733,7.467
	c3.2,2.133,19.2,12.8,19.2,12.8l6.4,5.333c0,0-1.067,4.267-7.467,2.133c0,0-6.4,4.267-16-1.067c0,0-2.133,6.4-16,2.133
	c-13.867-4.267-14.933-5.333-14.933-5.333s-6.4-5.333-19.2-1.067c-12.8,3.2-13.867,12.8-42.667,6.4s-28.8-6.4-28.8-6.4
	L303.984,371.957z"/>
<g>
	<path style="fill:#F7B64C;" d="M426.651,396.49L426.651,396.49c0-1.067,0-2.133-1.067-2.133c0-1.067-1.067-1.067-2.133-2.133
		c-1.067-1.067-2.133-1.067-3.2-2.133c-1.067-1.067-2.133-1.067-4.267-2.133c-1.067-1.067-3.2-1.067-4.267-2.133
		c-3.2-2.133-6.4-3.2-9.6-5.333c-2.133-1.067-3.2-2.133-5.333-2.133c-2.133-1.067-3.2-1.067-5.333-2.133
		c-3.2-1.067-6.4-2.133-9.6-3.2c-3.2-1.067-5.333-2.133-6.4-2.133s-2.133-1.067-2.133-1.067s1.067,0,2.133,0
		c2.133,0,4.267,1.067,6.4,2.133c3.2,1.067,6.4,2.133,9.6,3.2c2.133,1.067,3.2,1.067,5.333,2.133c2.133,1.067,3.2,2.133,5.333,2.133
		c3.2,2.133,6.4,3.2,9.6,5.333c1.067,1.067,3.2,2.133,4.267,2.133c1.067,1.067,3.2,2.133,4.267,2.133
		c2.133,2.133,4.267,3.2,5.333,4.267C426.651,394.357,426.651,395.423,426.651,396.49L426.651,396.49z"/>
	<path style="fill:#F7B64C;" d="M409.584,395.423L409.584,395.423c0-1.067-1.067-1.067-1.067-1.067
		c-1.067-1.067-2.133-2.133-4.267-2.133c-1.067,0-2.133-1.067-3.2-1.067s-2.133-1.067-3.2-1.067c-2.133-1.067-5.333-2.133-7.467-3.2
		c-1.067-1.067-2.133-1.067-4.267-1.067c-1.067,0-2.133-1.067-3.2-1.067c-2.133-1.067-4.267-2.133-6.4-2.133
		c-2.133-1.067-3.2-1.067-4.267-2.133c-1.067,0-2.133-1.067-2.133-1.067s1.067,0,2.133,0c1.067,0,3.2,1.067,4.267,1.067
		c1.067,0,2.133,1.067,3.2,1.067s2.133,1.067,3.2,1.067c2.133,1.067,5.333,2.133,7.467,3.2c2.133,1.067,5.333,2.133,7.467,3.2
		c1.067,1.067,2.133,1.067,3.2,1.067s2.133,1.067,3.2,1.067c2.133,1.067,3.2,2.133,4.267,3.2
		C409.584,394.357,409.584,394.357,409.584,395.423L409.584,395.423z"/>
</g>
<g>
	<path style="fill:#415A6B;" d="M41.584,309.023c-14.933-13.867-21.333-35.2-16-55.467c2.133-6.4,4.267-12.8,8.533-19.2
		c14.933-25.6,34.133-33.067,51.2-32c17.067,1.067,37.333,23.467,44.8,41.6c7.467,18.133,30.933,60.8,38.4,66.133
		c6.4,5.333,30.933,27.733,35.2,34.133c4.267,6.4,6.4,11.733,6.4,11.733s7.467-2.133,19.2,0c11.733,2.133,62.933,12.8,62.933,12.8
		h22.4c0,0,16,25.6,11.733,45.867c0,0-30.933,1.067-44.8,3.2c-13.867,2.133-12.8,8.533-36.267,6.4
		c-23.467-2.133-59.733,4.267-83.2-12.8c-23.467-17.067-106.667-90.667-117.333-100.267
		C43.717,310.09,42.651,309.023,41.584,309.023z"/>
	<path style="fill:#415A6B;" d="M131.184,55.157c0,0,13.867-5.333,6.4-16c-7.467-10.667-25.6-23.467-61.867-22.4
		c-36.267,1.067-52.267,25.6-58.667,38.4s-6.4,39.467-2.133,51.2s23.467,43.733,23.467,51.2c0,0,7.467,3.2,9.6,0
		c2.133-3.2,10.667-11.733,6.4-27.733s-8.533-29.867-2.133-38.4s27.733-3.2,29.867,19.2l8.533-1.067c0,0-4.267-22.4,5.333-29.867
		s14.933-7.467,13.867-16c-1.067-5.333-10.667-10.667-6.4-17.067C106.651,42.357,123.717,43.423,131.184,55.157z"/>
</g>
<ellipse transform="matrix(-0.3492 -0.9371 0.9371 -0.3492 -15.0147 194.0256)" style="fill:#FFD15C;" cx="59.871" cy="102.227" rx="19.201" ry="11.734"/>
<g>
</g>
<g>
</g>
<g>
</g>
<g>
</g>
<g>
</g>
<g>
</g>
<g>
</g>
<g>
</g>
<g>
</g>
<g>
</g>
<g>
</g>
<g>
</g>
<g>
</g>
<g>
</g>
<g>
</g>
</svg>
