<?xml version="1.0" encoding="iso-8859-1"?>
<!-- Generator: Adobe Illustrator 19.0.0, SVG Export Plug-In . SVG Version: 6.00 Build 0)  -->
<svg version="1.1" id="Capa_1" xmlns="http://www.w3.org/2000/svg" xmlns:xlink="http://www.w3.org/1999/xlink" x="0px" y="0px"
	 viewBox="0 0 512 512" style="enable-background:new 0 0 512 512;" xml:space="preserve">
<polygon style="fill:#CED6E0;" points="441.6,388.87 70.4,388.87 0,465.67 512,465.67 "/>
<polygon style="fill:#ADB3BA;" points="193.067,443.27 219.733,413.403 292.267,413.403 318.933,443.27 "/>
<path style="fill:#415A6B;" d="M441.6,146.736v243.2H70.4v-243.2c0-11.733,9.6-21.333,21.333-21.333h329.6
	C432,125.403,441.6,135.003,441.6,146.736z"/>
<rect x="97.067" y="152.07" style="fill:#8AD7F8;" width="317.867" height="210.133"/>
<path style="fill:#415A6B;" d="M512,465.67c0,18.133-14.933,33.067-33.067,33.067H33.067c-9.6,0-17.067-3.2-23.467-9.6
	C4.267,483.803,0,475.27,0,465.67H512z"/>
<g>
	<path style="fill:#CED6E0;" d="M329.6,125.403h-7.467c0-46.933-29.867-86.4-67.2-86.4s-67.2,38.4-67.2,86.4h-7.467
		c2.133-51.2,35.2-92.8,75.733-92.8S329.6,74.203,329.6,125.403z"/>
	<polygon style="fill:#CED6E0;" points="274.133,350.47 288,265.136 224,265.136 237.867,350.47 	"/>
</g>
<g>
	<polygon style="fill:#415A6B;" points="267.733,297.136 277.333,287.536 256,265.136 234.667,287.536 244.267,297.136 	"/>
	<polygon style="fill:#415A6B;" points="281.6,362.203 267.733,297.136 244.267,297.136 230.4,362.203 	"/>
</g>
<rect x="212.267" y="161.67" style="fill:#F7B64C;" width="87.467" height="103.467"/>
<g>
	<path style="fill:#F3F3F3;" d="M299.733,206.47L256,265.136c0,0,29.867,27.733,32,33.067l32-66.133L299.733,206.47z"/>
	<path style="fill:#F3F3F3;" d="M212.267,206.47L256,266.203c0,0-29.867,27.733-32,33.067l-32-66.133L212.267,206.47z"/>
</g>
<path style="fill:#F05540;" d="M414.933,362.203L403.2,293.937c-3.2-13.867-11.733-25.6-24.533-30.933l-53.333-25.6l-40.533,124.8
	H414.933z"/>
<polygon style="fill:#F3705A;" points="298.667,362.203 339.2,273.67 321.067,261.936 350.933,250.203 299.733,206.47 272,362.203 
	"/>
<path style="fill:#F05540;" d="M228.267,362.203l-40.533-124.8l-53.333,25.6c-12.8,6.4-21.333,17.067-24.533,30.933l-11.733,68.267
	H228.267z"/>
<polygon style="fill:#F3705A;" points="172.8,273.67 212.267,362.203 240,362.203 212.267,206.47 161.067,250.203 190.933,261.936 
	"/>
<ellipse style="fill:#FFD15C;" cx="256" cy="131.803" rx="59.733" ry="91.733"/>
<g>
	<path style="fill:#415A6B;" d="M286.933,187.27l-2.133-4.267c28.8-14.933,37.333-41.6,37.333-41.6l4.267,1.067
		C326.4,143.536,317.867,171.27,286.933,187.27z"/>
	<path style="fill:#415A6B;" d="M293.333,180.87c2.133,3.2,1.067,7.467-5.333,10.667c-7.467,3.2-10.667,1.067-12.8-2.133
		c-2.133-3.2-2.133-7.467,5.333-11.733C288,174.47,291.2,176.603,293.333,180.87z"/>
	<path style="fill:#415A6B;" d="M195.2,133.936h6.4c0-8.533-1.067-21.333-1.067-23.467c0-3.2,9.6-5.333,9.6-16
		c0-4.267,0-9.6,1.067-14.933c1.067-5.333,6.4-9.6,11.733-8.533c17.067,2.133,57.6-3.2,73.6,3.2c11.733,4.267,0,16,5.333,21.333
		s6.4,2.133,6.4,6.4c0,3.2,1.067,30.933,1.067,37.333h3.2c2.133-7.467,5.333-28.8,10.667-48
		c7.467-26.667,1.067-45.867-21.333-62.933s-53.333-18.133-73.6-10.667c-19.2,7.467-26.667,16-24.533,29.867c0,0-9.6-1.067-19.2,16
		c-9.6,18.133,9.6,54.4,9.6,58.667C194.133,125.403,195.2,129.67,195.2,133.936z"/>
</g>
<path style="fill:#F05540;" d="M334.933,127.536v9.6c0,2.133-2.133,4.267-4.267,4.267l0,0c-2.133,0-4.267,2.133-4.267,4.267
	c-1.067,8.533-3.2,13.867-7.467,13.867c-5.333,0-9.6-10.667-10.667-24.533c-1.067-13.867,2.133-24.533,7.467-24.533
	c2.133,0,5.333,3.2,6.4,7.467c1.067,3.2,4.267,5.333,7.467,5.333l0,0C332.8,123.27,334.933,125.403,334.933,127.536z"/>
<path style="fill:#F3705A;" d="M326.4,148.87c-1.067,6.4-3.2,10.667-6.4,10.667c-5.333,0-9.6-10.667-10.667-24.533
	s2.133-24.533,7.467-24.533c2.133,0,4.267,2.133,6.4,6.4C315.733,116.87,320,149.936,326.4,148.87z"/>
<path style="fill:#F05540;" d="M177.067,127.536v9.6c0,2.133,2.133,4.267,4.267,4.267l0,0c2.133,0,4.267,2.133,4.267,4.267
	c1.067,8.533,3.2,13.867,7.467,13.867c5.333,0,9.6-10.667,10.667-24.533c1.067-13.867-2.133-24.533-7.467-24.533
	c-2.133,0-5.333,3.2-6.4,7.467c-1.067,3.2-4.267,5.333-7.467,5.333l0,0C179.2,123.27,177.067,125.403,177.067,127.536z"/>
<path style="fill:#F3705A;" d="M185.6,148.87c1.067,6.4,3.2,10.667,6.4,10.667c5.333,0,9.6-10.667,10.667-24.533
	s-2.133-24.533-7.467-24.533c-2.133,0-4.267,2.133-6.4,6.4C196.267,116.87,192,149.936,185.6,148.87z"/>
<g>
</g>
<g>
</g>
<g>
</g>
<g>
</g>
<g>
</g>
<g>
</g>
<g>
</g>
<g>
</g>
<g>
</g>
<g>
</g>
<g>
</g>
<g>
</g>
<g>
</g>
<g>
</g>
<g>
</g>
</svg>
