<?xml version="1.0" encoding="iso-8859-1"?>
<!-- Generator: Adobe Illustrator 19.0.0, SVG Export Plug-In . SVG Version: 6.00 Build 0)  -->
<svg version="1.1" id="Capa_1" xmlns="http://www.w3.org/2000/svg" xmlns:xlink="http://www.w3.org/1999/xlink" x="0px" y="0px"
	 viewBox="0 0 513.788 513.788" style="enable-background:new 0 0 513.788 513.788;" xml:space="preserve">
<g>
	<path style="fill:#415A6B;" d="M106.667,403.676c8.533-49.067,13.867-99.2,7.467-117.333c-14.933-40.533-68.267-54.4-68.267-54.4
		s-7.467,3.2-10.667,24.533c-2.133,18.133-10.667,101.333-12.8,147.2H106.667z"/>
	<path style="fill:#415A6B;" d="M378.667,403.676c1.067-21.333,0-56.533-1.067-71.467c-1.067-19.2-3.2-16-5.333-26.667
		c-1.067-10.667-6.4-48-10.667-68.267c-3.2-20.267-12.8-21.333-12.8-21.333c-48,22.4-53.333,114.133-49.067,187.733H378.667z"/>
</g>
<g>
	<path style="fill:#344A5E;" d="M86.4,403.676h109.867l-64-210.133c0,0-11.733,8.533-26.667,17.067
		c-14.933,8.533-59.733,21.333-59.733,21.333S82.133,304.476,89.6,335.41C91.733,345.01,90.667,371.676,86.4,403.676z"/>
	<path style="fill:#344A5E;" d="M316.8,403.676c-3.2-34.133-4.267-65.067-2.133-82.133c4.267-46.933,35.2-105.6,35.2-105.6
		C339.2,211.676,262.4,191.41,262.4,191.41l-53.333,213.333H316.8V403.676z"/>
</g>
<g>
	
		<ellipse transform="matrix(0.1454 -0.9894 0.9894 0.1454 103.5116 336.236)" style="fill:#FFD15C;" cx="246.386" cy="108.2" rx="21.334" ry="8.534"/>
	
		<ellipse transform="matrix(0.1454 0.9894 -0.9894 0.1454 224.051 -38.3832)" style="fill:#FFD15C;" cx="134.244" cy="110.5" rx="21.334" ry="8.534"/>
	<path style="fill:#FFD15C;" d="M245.333,80.476l1.067,16c0,0-2.133,44.8-10.667,60.8l5.333,45.867l-91.733,22.4v-65.067
		c0,0-12.8-30.933-14.933-53.333c-2.133-21.333-1.067-55.467,0-66.133c1.067-10.667,16-23.467,39.467-23.467
		S242.133,6.876,245.333,80.476z"/>
</g>
<path style="fill:#415A6B;" d="M132.267,108.21h1.067c0,0-1.067-24.533,5.333-35.2c6.4-10.667-1.067-24.533,6.4-36.267
	c7.467-10.667,40.533-6.4,56.533-6.4c14.933,0,32,5.333,30.933,17.067c-1.067,11.733,2.133,19.2,5.333,22.4s5.333,19.2,5.333,24.533
	l3.2,2.133c0,0,6.4-22.4,2.133-46.933c-5.333-30.933-33.067-45.867-67.2-48s-55.467,37.333-54.4,58.667
	C128,79.41,132.267,108.21,132.267,108.21z"/>
<path style="fill:#F7B64C;" d="M196.267,186.076c-27.733,5.333-46.933-24.533-46.933-24.533v65.067l28.8-7.467
	c3.2-1.067,6.4-2.133,8.533-4.267c37.333-17.067,49.067-57.6,49.067-57.6S224,180.743,196.267,186.076z"/>
<path style="fill:#CED6E0;" d="M193.067,403.676h16L259.2,252.21l-26.667-49.067l-27.733,3.2l-18.133,3.2L169.6,210.61
	c-30.933,16-24.533,74.667-24.533,74.667L193.067,403.676z"/>
<path style="fill:#F3F3F3;" d="M236.8,163.676c0,0-1.067,10.667-7.467,19.2c-7.467,9.6-23.467,21.333-23.467,21.333
	s9.6,3.2,14.933,8.533c4.267,5.333,20.267,14.933,20.267,14.933s4.267-25.6,4.267-36.267
	C245.333,180.743,241.067,165.81,236.8,163.676z"/>
<path style="fill:#415A6B;" d="M213.333,308.743c-5.333,21.333-13.867,62.933-18.133,94.933h18.133
	c8.533-25.6,18.133-53.333,27.733-72.533c22.4-52.267,41.6-100.267,41.6-100.267l-20.267-12.8l10.667-3.2
	c0,0-5.333-17.067-10.667-23.467s-11.733-9.6-13.867-13.867c-2.133-4.267-6.4-11.733-10.667-12.8c0,0,9.6,34.133,3.2,51.2
	C234.667,231.943,220.8,279.943,213.333,308.743z"/>
<path style="fill:#F3F3F3;" d="M187.733,208.476c0,0-9.6,3.2-12.8,12.8c-3.2,9.6-13.867,22.4-13.867,22.4l-21.333-42.667l9.6-26.667
	C149.333,175.41,155.733,192.476,187.733,208.476z"/>
<path style="fill:#415A6B;" d="M150.4,319.41c10.667,21.333,25.6,56.533,35.2,84.267h16c0-8.533,0-18.133-1.067-26.667
	c-4.267-25.6-21.333-78.933-33.067-116.267s-20.267-80-20.267-80c-3.2,6.4-11.733,8.533-17.067,14.933
	c-5.333,7.467-10.667,29.867-10.667,29.867l14.933,4.267l-20.267,13.867C114.133,244.743,132.267,283.143,150.4,319.41z"/>
<path style="fill:#FFD15C;" d="M441.6,362.076c-7.467-1.067-13.867-2.133-17.067-3.2c-20.267-5.333-28.8-11.733-58.667-18.133
	s-73.6,10.667-85.333,22.4c-11.733,12.8-35.2,24.533-43.733,25.6c-8.533,1.067-14.933-1.067-19.2,1.067c0,0-43.733-7.467-54.4-3.2
	c-10.667,4.267-14.933,16-14.933,20.267c0,0-43.733-10.667-62.933-11.733c0,0-39.467-13.867-60.8-11.733
	c0,0-20.267-2.133-24.533,22.4l30.933,8.533c0,0,7.467,2.133,16,3.2c8.533,0,68.267,22.4,86.4,27.733
	c18.133,5.333,67.2,16,77.867,23.467c10.667,7.467,19.2,11.733,32,9.6s50.133-9.6,64-13.867c13.867-5.333,66.133-19.2,89.6-17.067
	c8.533,1.067,25.6,3.2,43.733,5.333v-90.667H441.6z"/>
<polygon style="fill:#F3F3F3;" points="461.867,353.543 407.467,347.143 382.933,471.943 461.867,481.543 "/>
<rect x="370.466" y="377.368" transform="matrix(-0.1818 0.9833 -0.9833 -0.1818 952.2197 48.828)" style="fill:#66C6B9;" width="170.661" height="86.397"/>
<path style="fill:#F7B64C;" d="M152.533,406.876c0,0,2.133,1.067,5.333,4.267c3.2,2.133,8.533,5.333,14.933,9.6
	c3.2,2.133,6.4,4.267,10.667,6.4c4.267,2.133,8.533,3.2,12.8,5.333c4.267,2.133,8.533,3.2,13.867,4.267
	c4.267,1.067,9.6,1.067,14.933,0c9.6-1.067,20.267-3.2,28.8-4.267c4.267-1.067,9.6-1.067,13.867-1.067s8.533,0,11.733,0
	c7.467,1.067,13.867,1.067,18.133,1.067c2.133,0,4.267,0,5.333-1.067c1.067,0,2.133,0,2.133,0s-1.067,0-2.133,0
	c-1.067,0-3.2,1.067-5.333,1.067c-4.267,1.067-10.667,0-18.133-1.067c-4.267,0-7.467,0-11.733,0s-8.533,1.067-13.867,2.133
	c-9.6,1.067-19.2,3.2-28.8,5.333c-2.133,0-5.333,1.067-7.467,1.067c-2.133,0-5.333,0-7.467,0c-5.333-1.067-9.6-2.133-13.867-4.267
	c-4.267-2.133-8.533-3.2-12.8-5.333c-4.267-2.133-7.467-4.267-10.667-5.333c-6.4-4.267-11.733-7.467-16-9.6
	c-3.2-2.133-5.333-3.2-5.333-3.2L152.533,406.876z"/>
<path style="fill:#F3F3F3;" d="M156.8,394.076c0,0-12.8,0-13.867,10.667c0,10.667,7.467,10.667,12.8,11.733
	s26.667,8.533,26.667,2.133c0-6.4,0-14.933-4.267-19.2C173.867,397.276,170.667,396.21,156.8,394.076z"/>
<circle style="fill:#4ABAA5;" cx="432" cy="473.01" r="10.667"/>
<path style="fill:#F3F3F3;" d="M32,413.276l-30.933-8.533C1.067,404.743,29.867,396.21,32,413.276z"/>
<g>
</g>
<g>
</g>
<g>
</g>
<g>
</g>
<g>
</g>
<g>
</g>
<g>
</g>
<g>
</g>
<g>
</g>
<g>
</g>
<g>
</g>
<g>
</g>
<g>
</g>
<g>
</g>
<g>
</g>
</svg>
