<?xml version="1.0" encoding="iso-8859-1"?>
<!-- Generator: Adobe Illustrator 19.0.0, SVG Export Plug-In . SVG Version: 6.00 Build 0)  -->
<svg version="1.1" id="Capa_1" xmlns="http://www.w3.org/2000/svg" xmlns:xlink="http://www.w3.org/1999/xlink" x="0px" y="0px"
	 viewBox="0 0 511.938 511.938" style="enable-background:new 0 0 511.938 511.938;" xml:space="preserve">
<path style="fill:#F3705A;" d="M37.271,511.21h123.733c-6.4-16-12.8-34.133-18.133-45.867c-9.6-21.333-29.867-62.933-29.867-62.933
	s26.667-51.2,7.467-78.933s-88.533-41.6-109.867-27.733c-20.267,13.867-6.4,106.667,0,132.267
	C14.871,442.943,26.605,478.143,37.271,511.21z"/>
<path style="fill:#66C6B9;" d="M386.071,511.21l-4.267-12.8c0,0-4.267-50.133-13.867-75.733c-2.133-6.4-5.333-12.8-7.467-20.267
	c-4.267-11.733-10.667-30.933-18.133-45.867c-12.8-24.533-32-41.6-32-41.6L289.005,511.21H386.071z"/>
<path style="fill:#F05540;" d="M114.071,402.41l-3.2,108.8h227.2c1.067-38.4,2.133-83.2,1.067-97.067
	c-2.133-26.667-28.8-99.2-28.8-99.2l-35.2-33.067l16,103.467l-28.8,92.8l-128-209.067l-27.733-20.267l-96,46.933
	C92.738,279.743,114.071,402.41,114.071,402.41z"/>
<g>
	<ellipse style="fill:#415A6B;" cx="237.805" cy="175.21" rx="45.867" ry="103.467"/>
	<ellipse style="fill:#415A6B;" cx="136.471" cy="174.143" rx="26.667" ry="70.4"/>
</g>
<path style="fill:#FFD15C;" d="M219.671,210.41c0,0-5.333,32,0,40.533c5.333,7.467,5.333,7.467,5.333,7.467l38.4,73.6l-2.133,108.8
	h-13.867L127.938,263.743l-4.267-32c0,0,16-24.533,16-40.533c0,0-18.133-33.067-16-77.867s3.2-61.867,21.333-75.733
	c18.133-13.867,50.133-30.933,68.267-24.533s32,23.467,41.6,37.333C264.471,64.276,282.605,180.543,219.671,210.41z"/>
<g>
	<path style="fill:#F3705A;" d="M219.671,250.943c0,0,23.467,110.933,26.667,133.333c3.2,22.4,7.467,53.333,7.467,53.333l19.2,57.6
		c0,0,24.533-77.867,22.4-115.2c-2.133-37.333-21.333-96-21.333-96l-24.533-37.333L219.671,250.943z"/>
	<path style="fill:#F3705A;" d="M120.471,329.876c0,0,96,80,114.133,105.6c13.867,20.267,34.133,54.4,43.733,75.733h3.2
		c-4.267-21.333-17.067-61.867-43.733-104.533c-38.4-61.867-113.067-176-113.067-176l-18.133,67.2l41.6,23.467L120.471,329.876z"/>
</g>
<g>
	<path style="fill:#415A6B;" d="M195.138,17.343c0,0,30.933,21.333,42.667,34.133s23.467,37.333,26.667,48
		c3.2,10.667,1.067,97.067-3.2,116.267s4.267,125.867-9.6,154.667c0,0,14.933,0,25.6-12.8c10.667-12.8,32-44.8,19.2-77.867
		c-12.8-33.067-1.067-87.467-2.133-117.333c-1.067-29.867-7.467-94.933-39.467-132.267s-68.267-32-87.467-22.4
		s-48,42.667-59.733,74.667s-22.4,138.667-16,165.333c6.4,26.667,34.133,78.933,39.467,104.533c0,0,34.133-34.133,24.533-61.867
		c-8.533-27.733-27.733-98.133-32-136.533c-2.133-22.4,6.4-57.6,13.867-81.067c6.4-21.333,22.4-39.467,42.667-49.067
		C185.538,19.476,190.871,17.343,195.138,17.343z"/>
	<path style="fill:#415A6B;" d="M270.871,185.876c-12.8,9.6-41.6,11.733-52.267,24.533s5.333,84.267,10.667,101.333
		c7.467,21.333,10.667,44.8,1.067,66.133c7.467-4.267,13.867-11.733,18.133-19.2c4.267-7.467,6.4-17.067,8.533-25.6
		c8.533-34.133,11.733-69.333,9.6-103.467"/>
	<path style="fill:#415A6B;" d="M139.671,190.143c17.067,34.133,25.6,71.467,24.533,108.8c0,12.8-2.133,26.667-8.533,37.333
		c-4.267,7.467-10.667,14.933-16,22.4c-5.333,7.467-8.533,16-6.4,25.6c-4.267-8.533-3.2-19.2,1.067-27.733
		c4.267-8.533,10.667-16,14.933-24.533c6.4-12.8,8.533-28.8,5.333-42.667c-4.267-17.067-14.933-32-23.467-46.933
		c-9.6-14.933-18.133-32-16-49.067"/>
</g>
<path style="fill:#F3705A;" d="M37.271,511.21h123.733c-6.4-16-12.8-34.133-18.133-45.867c-9.6-21.333-29.867-62.933-29.867-62.933
	H5.271c2.133,10.667,3.2,20.267,5.333,25.6C14.871,442.943,26.605,478.143,37.271,511.21z"/>
<circle style="fill:#66C6B9;" cx="377.538" cy="376.81" r="134.4"/>
<circle style="fill:#F3F3F3;" cx="377.538" cy="376.81" r="103.467"/>
<g>
	<circle style="fill:#CED6E0;" cx="440.471" cy="314.943" r="6.4"/>
	<circle style="fill:#CED6E0;" cx="466.071" cy="376.81" r="6.4"/>
	<circle style="fill:#CED6E0;" cx="440.471" cy="439.743" r="6.4"/>
	<circle style="fill:#CED6E0;" cx="377.538" cy="465.343" r="6.4"/>
	<circle style="fill:#CED6E0;" cx="315.671" cy="439.743" r="6.4"/>
	<circle style="fill:#CED6E0;" cx="290.071" cy="376.81" r="6.4"/>
	<circle style="fill:#CED6E0;" cx="315.671" cy="314.943" r="6.4"/>
	<circle style="fill:#CED6E0;" cx="377.538" cy="289.343" r="6.4"/>
</g>
<path style="fill:#415A6B;" d="M337.005,407.743c0-2.133,1.067-5.333,3.2-6.4l30.933-30.933c3.2-3.2,9.6-3.2,12.8,0
	c3.2,3.2,3.2,9.6,0,12.8l-30.933,30.933c-3.2,3.2-9.6,3.2-12.8,0C338.071,412.01,337.005,409.876,337.005,407.743z"/>
<path style="fill:#F05540;" d="M377.538,386.41c-5.333,0-9.6-4.267-9.6-9.6v-61.867c0-5.333,4.267-9.6,9.6-9.6s9.6,4.267,9.6,9.6
	v61.867C387.138,382.143,382.871,386.41,377.538,386.41z"/>
<circle style="fill:#FFD15C;" cx="377.538" cy="376.81" r="20.267"/>
<g>
</g>
<g>
</g>
<g>
</g>
<g>
</g>
<g>
</g>
<g>
</g>
<g>
</g>
<g>
</g>
<g>
</g>
<g>
</g>
<g>
</g>
<g>
</g>
<g>
</g>
<g>
</g>
<g>
</g>
</svg>
