<?xml version="1.0" encoding="iso-8859-1"?>
<!-- Generator: Adobe Illustrator 19.0.0, SVG Export Plug-In . SVG Version: 6.00 Build 0)  -->
<svg version="1.1" id="Capa_1" xmlns="http://www.w3.org/2000/svg" xmlns:xlink="http://www.w3.org/1999/xlink" x="0px" y="0px"
	 viewBox="0 0 512 512" style="enable-background:new 0 0 512 512;" xml:space="preserve">
<path style="fill:#66C6B9;" d="M480,131.2H32c-18.133,0-32,13.867-32,32V480c0,18.133,13.867,32,32,32h448c18.133,0,32-13.867,32-32
	V163.2C512,146.133,498.133,131.2,480,131.2z M314.667,194.133H197.333c-8.533,0-16-7.467-16-16c0-8.533,7.467-16,16-16H313.6
	c8.533,0,16,7.467,16,16C330.667,186.667,323.2,194.133,314.667,194.133z"/>
<rect id="SVGCleanerId_0" x="42.667" y="222.933" style="fill:#F3F3F3;" width="426.667" height="246.4"/>
<path style="fill:#66C6B9;" d="M480,131.2H32c-18.133,0-32,13.867-32,32V480c0,18.133,13.867,32,32,32h448c18.133,0,32-13.867,32-32
	V163.2C512,146.133,498.133,131.2,480,131.2z M314.667,194.133H197.333c-8.533,0-16-7.467-16-16c0-8.533,7.467-16,16-16H313.6
	c8.533,0,16,7.467,16,16C330.667,186.667,323.2,194.133,314.667,194.133z"/>
<g>
	<rect id="SVGCleanerId_0_1_" x="42.667" y="222.933" style="fill:#F3F3F3;" width="426.667" height="246.4"/>
</g>
<g>
	<circle style="fill:#415A6B;" cx="154.667" cy="304" r="37.333"/>
	<path style="fill:#415A6B;" d="M224,425.6c-1.067-37.333-32-67.2-69.333-67.2S86.4,388.267,85.333,425.6H224z"/>
</g>
<g>
	<rect x="244.267" y="330.667" style="fill:#CED6E0;" width="182.4" height="29.867"/>
	<rect x="244.267" y="395.733" style="fill:#CED6E0;" width="182.4" height="29.867"/>
</g>
<path style="fill:#F3705A;" d="M307.2,0v161.067c0,8.533-7.467,16-16,16h-70.4c-8.533,0-16-7.467-16-16V0H307.2z"/>
<g>
</g>
<g>
</g>
<g>
</g>
<g>
</g>
<g>
</g>
<g>
</g>
<g>
</g>
<g>
</g>
<g>
</g>
<g>
</g>
<g>
</g>
<g>
</g>
<g>
</g>
<g>
</g>
<g>
</g>
</svg>
