<?xml version="1.0" encoding="iso-8859-1"?>
<!-- Generator: Adobe Illustrator 19.0.0, SVG Export Plug-In . SVG Version: 6.00 Build 0)  -->
<svg version="1.1" id="Capa_1" xmlns="http://www.w3.org/2000/svg" xmlns:xlink="http://www.w3.org/1999/xlink" x="0px" y="0px"
	 viewBox="0 0 512 512" style="enable-background:new 0 0 512 512;" xml:space="preserve">
<path style="fill:#FFD15C;" d="M114.133,305.067c0,0,2.133,11.733,2.133,20.267s1.067,23.467-7.467,35.2
	c-7.467,12.8,62.933,53.333,62.933,53.333l28.8-29.867c0,0-6.4-16-6.4-20.267c0-4.267,1.067-9.6,1.067-9.6S208,343.467,210.133,320
	c2.133-23.467,8.533-39.467,7.467-54.4c-1.067-14.933-1.067-29.867-5.333-37.333S188.8,213.333,169.6,213.333
	s-52.267,12.8-54.4,24.533c-2.133,11.733-3.2,51.2-3.2,51.2L114.133,305.067z"/>
<polygon style="fill:#CED6E0;" points="144,512 133.333,392.533 167.467,392.533 210.133,390.4 214.4,512 "/>
<path style="fill:#F05540;" d="M162.133,512c-3.2-27.733-6.4-60.8-6.4-68.267c0-12.8,1.067-24.533,1.067-24.533l2.133-12.8
	l8.533,5.333l2.133,6.4c0,0,1.067,8.533,4.267,16c4.267,7.467,16,39.467,19.2,77.867L162.133,512L162.133,512z"/>
<path style="fill:#F3705A;" d="M183.467,392.533c0,0-12.8,18.133-12.8,24.533c0,0-10.667-3.2-12.8,1.067c0,0,1.067-19.2-9.6-20.267
	l10.667-5.333h9.6L183.467,392.533L183.467,392.533z"/>
<path style="fill:#FFD15C;" d="M221.867,301.867c-3.2,12.8-9.6,21.333-14.933,20.267S198.4,310.4,201.6,298.667
	c3.2-12.8,9.6-21.333,14.933-20.267C221.867,279.467,225.067,289.067,221.867,301.867z"/>
<path style="fill:#415A6B;" d="M130.133,235.733c-1.067,2.133-2.133,5.333-1.067,7.467c1.067,3.2,2.133,8.533-1.067,14.933
	c-4.267,9.6-5.333,26.667-5.333,32h-5.333c0-4.267-1.067-11.733-4.267-12.8C108.8,275.2,108.8,275.2,108.8,275.2
	s-7.467-21.333,1.067-51.2c8.533-28.8,46.933-30.933,56.533-30.933s43.733,5.333,42.667,28.8c0,0,11.733,4.267,9.6,27.733
	c-1.067,18.133-4.267,39.467-5.333,49.067l0,0c1.067-6.4,2.133-16,1.067-21.333c-2.133-7.467-1.067-13.867,0-23.467
	c1.067-9.6,1.067-19.2-7.467-24.533c-9.6-5.333-38.4,1.067-55.467-1.067C138.667,226.133,133.333,231.467,130.133,235.733z"/>
<path style="fill:#FFD15C;" d="M99.2,291.2c1.067,12.8,6.4,22.4,12.8,22.4c6.4,0,9.6-10.667,9.6-22.4
	c-1.067-12.8-6.4-22.4-12.8-22.4C102.4,268.8,98.133,278.4,99.2,291.2z"/>
<path style="fill:#F7B64C;" d="M116.267,328.533c0,0,0,0,9.6,16s36.267,26.667,51.2,23.467c13.867-3.2,19.2-13.867,19.2-13.867
	s-1.067,5.333-1.067,9.6S201.6,384,201.6,384l-6.4,6.4c-21.333-3.2-42.667-11.733-56.533-24.533
	C118.4,348.8,116.267,328.533,116.267,328.533z"/>
<g>
	<path style="fill:#F3F3F3;" d="M114.133,345.6c0,0,0,6.4,3.2,12.8c3.2,6.4,40.533,35.2,40.533,35.2
		c-11.733,4.267-20.267,12.8-28.8,22.4l-30.933-48c0,0,8.533-10.667,11.733-14.933C113.067,347.733,112,347.733,114.133,345.6z"/>
	<path style="fill:#F3F3F3;" d="M194.133,363.733c0,0-1.067,9.6-6.4,14.933C182.4,384,167.467,393.6,167.467,393.6
		s6.4,0,10.667,4.267c3.2,4.267,12.8,26.667,12.8,26.667s6.4-20.267,9.6-25.6c3.2-6.4-1.067-18.133-1.067-18.133
		S194.133,364.8,194.133,363.733z"/>
</g>
<path style="fill:#344A5E;" d="M267.733,512h-67.2c6.4-22.4,3.2-126.933,3.2-126.933h2.133c0,0,6.4,4.267,18.133,5.333
	s43.733,8.533,49.067,18.133c0,0,13.867,19.2-5.333,68.267V512z"/>
<path style="fill:#415A6B;" d="M212.267,512H192c7.467-35.2,5.333-107.733,4.267-116.267c-2.133-8.533,0-25.6,0-25.6
	c2.133,8.533,18.133,22.4,18.133,22.4l-2.133,2.133l12.8,5.333c8.533,32,0,72.533-10.667,107.733
	C212.267,509.867,212.267,510.933,212.267,512z"/>
<path style="fill:#344A5E;" d="M75.733,512C77.867,498.133,80,485.333,80,480c3.2-19.2-6.4-45.867-30.933-70.4
	c-19.2-19.2-32-14.933-32-14.933s12.8-6.4,29.867-9.6c17.067-2.133,42.667-16,42.667-16s25.6,27.733,46.933,60.8
	c11.733,17.067,26.667,52.267,38.4,82.133H75.733z"/>
<g>
	<path style="fill:#415A6B;" d="M148.267,426.667c7.467,16,22.4,52.267,33.067,85.333H169.6
		c-8.533-17.067-19.2-36.267-29.867-49.067c-26.667-32-45.867-60.8-45.867-60.8l9.6-8.533H89.6c0,0-2.133-16-3.2-20.267
		c-1.067-4.267,1.067-6.4,6.4-10.667c4.267-4.267,16-17.067,22.4-17.067c0,0-6.4,9.6-4.267,19.2
		C113.067,374.4,135.467,401.067,148.267,426.667z"/>
	<path style="fill:#415A6B;" d="M89.6,512H14.933c-3.2-7.467-5.333-13.867-5.333-19.2C5.333,472.533,0,436.267,0,421.333
		s10.667-23.467,17.067-26.667c6.4-2.133,19.2-2.133,19.2-2.133c13.867,0,45.867,33.067,43.733,76.8C80,481.067,83.2,496,89.6,512z"
		/>
	<path style="fill:#415A6B;" d="M263.467,512c-3.2-11.733-2.133-24.533,3.2-36.267c-4.267-22.4-3.2-46.933,3.2-71.467
		c0,0,7.467,3.2,13.867,19.2c5.333,16,18.133,46.933,23.467,60.8c4.267,12.8,5.333,17.067,11.733,26.667h-55.467V512z"/>
</g>
<path style="fill:#66C6B9;" d="M512,32v132.267c0,18.133-13.867,32-32,32H343.467L256,252.8v-57.6h-3.2c-18.133,0-32-13.867-32-32
	V32c0-18.133,13.867-32,32-32H480C498.133,0,512,13.867,512,32z"/>
<g>
	<path style="fill:#FFFFFF;" d="M355.2,61.867L350.933,51.2l-9.6,2.133c-2.133-3.2-5.333-6.4-8.533-8.533l2.133-9.6l-10.667-4.267
		l-5.333,7.467c-4.267-1.067-7.467-1.067-11.733,0l-5.333-7.467L291.2,35.2l1.067,9.6c-3.2,2.133-6.4,5.333-8.533,8.533l-9.6-2.133
		l-4.267,10.667l7.467,5.333c-1.067,4.267-1.067,7.467,0,11.733l-7.467,5.333l4.267,10.667l9.6-1.067
		c2.133,3.2,5.333,6.4,8.533,8.533l-2.133,9.6l10.667,4.267l5.333-7.467c4.267,1.067,7.467,1.067,11.733,0l5.333,7.467L333.867,112
		l-1.067-9.6c3.2-3.2,6.4-6.4,8.533-9.6l9.6,2.133l4.267-10.667l-7.467-5.333c1.067-4.267,1.067-7.467,0-11.733L355.2,61.867z
		 M296.533,78.933c-3.2-8.533,1.067-19.2,9.6-22.4s19.2,1.067,22.4,9.6s-1.067,19.2-9.6,22.4
		C310.4,92.8,300.8,88.533,296.533,78.933z"/>
	<path style="fill:#FFFFFF;" d="M462.933,119.467v-14.933l-12.8-3.2c-1.067-5.333-3.2-9.6-6.4-14.933l7.467-10.667l-10.667-10.667
		l-10.667,7.467c-4.267-3.2-9.6-5.333-14.933-6.4l-3.2-12.8H396.8l-3.2,12.8c-5.333,1.067-9.6,3.2-14.933,6.4L368,65.067
		l-10.667,10.667L364.8,86.4c-3.2,4.267-5.333,9.6-6.4,14.933l-12.8,3.2v14.933l12.8,3.2c1.067,5.333,3.2,9.6,6.4,14.933
		l-7.467,10.667L368,158.933l10.667-7.467c4.267,3.2,9.6,5.333,14.933,6.4l3.2,12.8h14.933l3.2-12.8c5.333-1.067,9.6-3.2,14.933-6.4
		l10.667,7.467l10.667-10.667l-7.467-10.667c3.2-4.267,5.333-9.6,6.4-14.933L462.933,119.467z M377.6,112
		c0-13.867,11.733-25.6,25.6-25.6c13.867,0,25.6,11.733,25.6,25.6c0,13.867-11.733,25.6-25.6,25.6S377.6,125.867,377.6,112z"/>
</g>
<g>
</g>
<g>
</g>
<g>
</g>
<g>
</g>
<g>
</g>
<g>
</g>
<g>
</g>
<g>
</g>
<g>
</g>
<g>
</g>
<g>
</g>
<g>
</g>
<g>
</g>
<g>
</g>
<g>
</g>
</svg>
