<?xml version="1.0" encoding="iso-8859-1"?>
<!-- Generator: Adobe Illustrator 19.0.0, SVG Export Plug-In . SVG Version: 6.00 Build 0)  -->
<svg version="1.1" id="Capa_1" xmlns="http://www.w3.org/2000/svg" xmlns:xlink="http://www.w3.org/1999/xlink" x="0px" y="0px"
	 viewBox="0 0 512 512" style="enable-background:new 0 0 512 512;" xml:space="preserve">
<path style="fill:#F3705A;" d="M489.03,0H23.963C11.163,0,0.496,10.667,0.496,23.467s10.667,23.467,23.467,23.467h464
	c12.8,0,23.467-10.667,23.467-23.467C512.497,10.667,501.83,0,489.03,0z"/>
<path style="fill:#E8EAE9;" d="M489.03,48v278.4c0,21.333-17.067,38.4-38.4,38.4H62.363c-21.333,0-38.4-17.067-38.4-38.4V48H489.03z
	"/>
<rect x="85.83" y="278.4" style="fill:#8AD7F8;" width="59.733" height="39.467"/>
<rect x="179.697" y="202.667" style="fill:#F3705A;" width="59.733" height="115.2"/>
<rect x="273.563" y="238.933" style="fill:#FFD15C;" width="59.733" height="78.933"/>
<rect x="367.43" y="170.667" style="fill:#66C6B9;" width="59.733" height="147.2"/>
<polygon style="fill:#415A6B;" points="393.03,129.067 382.363,117.333 293.83,195.2 203.163,146.133 102.897,258.133 
	83.697,241.067 197.83,114.133 290.63,164.267 366.363,98.133 355.697,86.4 402.63,83.2 "/>
<path style="fill:#FFD15C;" d="M173.297,340.267c0,0-1.067,35.2-7.467,57.6c-5.333,24.533-5.333,24.533-5.333,24.533l-28.8-2.133
	l-28.8,2.133c0,0,0,0-6.4-23.467c-6.4-23.467-7.467-57.6-7.467-57.6l42.667,5.333L173.297,340.267z"/>
<path style="fill:#344A5E;" d="M239.43,512l-4.267-48c-2.133-23.467-20.267-41.6-43.733-42.667l-10.667-1.067l-20.267-11.733H98.63
	l-20.267,11.733l-10.667,1.067C44.23,422.4,25.03,440.533,23.963,464l-4.267,48H239.43z"/>
<path style="fill:#415A6B;" d="M78.363,420.267c0,0,1.067-2.133,18.133-4.267c17.067-2.133,41.6-3.2,56.533,0
	c14.933,3.2,27.733,5.333,27.733,5.333s-4.267-8.533-9.6-16c-1.067-2.133-4.267-3.2-7.467-5.333c-14.933-7.467-32-10.667-48-8.533
	c-6.4,1.067-12.8,1.067-13.867,2.133c-3.2,1.067-7.467,7.467-8.533,9.6C91.163,405.333,80.496,412.8,78.363,420.267z"/>
<g>
	
		<ellipse transform="matrix(0.1338 -0.991 0.991 0.1338 -205.9006 479.2326)" style="fill:#FFD15C;" cx="171.192" cy="357.401" rx="16" ry="7.467"/>
	
		<ellipse transform="matrix(0.1338 0.991 -0.991 0.1338 434.5262 218.9979)" style="fill:#FFD15C;" cx="91.987" cy="358.067" rx="16" ry="7.467"/>
</g>
<path style="fill:#415A6B;" d="M173.297,355.2c-4.267,8.533-9.6,30.933-43.733,30.933c-33.067,0-37.333-21.333-39.467-30.933
	c0,0-20.267-76.8,41.6-76.8C193.563,278.4,173.297,355.2,173.297,355.2z"/>
<path style="fill:#FFD15C;" d="M428.23,340.267c0,0-1.067,35.2-7.467,57.6c-6.4,23.467-6.4,23.467-6.4,23.467l-28.8-2.133
	l-28.8,2.133c0,0,0,0-6.4-23.467c-6.4-23.467-7.467-57.6-7.467-57.6l42.667,5.333L428.23,340.267z"/>
<path style="fill:#344A5E;" d="M493.297,512l-4.267-48c-2.133-23.467-20.267-41.6-43.733-42.667l-10.667-1.067l-20.267-11.733
	h-61.867l-20.267,11.733l-10.667,1.067c-23.467,1.067-42.667,19.2-43.733,42.667l-4.267,48H493.297z"/>
<path style="fill:#415A6B;" d="M332.23,420.267c0,0,1.067-2.133,18.133-4.267c17.067-2.133,41.6-3.2,56.533,0
	c14.933,2.133,27.733,5.333,27.733,5.333s-4.267-8.533-9.6-14.933c-1.067-2.133-4.267-3.2-7.467-5.333
	c-14.933-7.467-32-10.667-48-8.533c-6.4,1.067-12.8,1.067-13.867,2.133c-3.2,1.067-7.467,7.467-8.533,9.6
	S334.363,412.8,332.23,420.267z"/>
<g>
	
		<ellipse transform="matrix(0.1338 -0.991 0.991 0.1338 14.0237 730.7908)" style="fill:#FFD15C;" cx="425.056" cy="357.373" rx="16" ry="7.467"/>
	
		<ellipse transform="matrix(0.1338 0.991 -0.991 0.1338 654.2779 -32.2506)" style="fill:#FFD15C;" cx="345.588" cy="358.151" rx="16" ry="7.467"/>
</g>
<path style="fill:#415A6B;" d="M427.163,355.2c-4.267,8.533-9.6,30.933-43.733,30.933c-33.067,0-37.333-21.333-39.467-30.933
	c0,0-20.267-76.8,41.6-76.8C447.43,278.4,427.163,355.2,427.163,355.2z"/>
<g>
</g>
<g>
</g>
<g>
</g>
<g>
</g>
<g>
</g>
<g>
</g>
<g>
</g>
<g>
</g>
<g>
</g>
<g>
</g>
<g>
</g>
<g>
</g>
<g>
</g>
<g>
</g>
<g>
</g>
</svg>
