<?xml version="1.0" encoding="iso-8859-1"?>
<!-- Generator: Adobe Illustrator 19.0.0, SVG Export Plug-In . SVG Version: 6.00 Build 0)  -->
<svg version="1.1" id="Capa_1" xmlns="http://www.w3.org/2000/svg" xmlns:xlink="http://www.w3.org/1999/xlink" x="0px" y="0px"
	 viewBox="0 0 512 512" style="enable-background:new 0 0 512 512;" xml:space="preserve">
<path style="fill:#66C6B9;" d="M512,332.8c0,35.2-17.067,68.267-45.867,91.733V512l-109.867-45.867c-3.2,0-7.467,0-11.733,0
	c-91.733,0-166.4-59.733-166.4-133.333s74.667-133.333,166.4-133.333C437.333,199.467,512,259.2,512,332.8z"/>
<g>
	<circle style="fill:#FFFFFF;" cx="259.2" cy="332.8" r="28.8"/>
	<circle style="fill:#FFFFFF;" cx="345.6" cy="332.8" r="28.8"/>
	<circle style="fill:#FFFFFF;" cx="433.067" cy="332.8" r="28.8"/>
</g>
<path style="fill:#F3705A;" d="M433.067,173.867c0,96-97.067,173.867-216.533,173.867c-5.333,0-9.6,0-14.933,0L58.667,406.4V293.333
	C22.4,262.4,0,219.733,0,173.867C0,77.867,97.067,0,216.533,0S433.067,77.867,433.067,173.867z"/>
<path style="fill:#FFFFFF;" d="M233.6,227.2h-37.333c0-5.333,0-8.533,0-9.6c0-11.733,2.133-22.4,6.4-29.867
	c4.267-7.467,11.733-17.067,24.533-26.667c11.733-9.6,19.2-16,21.333-19.2c3.2-5.333,5.333-10.667,5.333-16
	c0-8.533-3.2-14.933-9.6-21.333c-6.4-6.4-16-8.533-26.667-8.533c-10.667,0-19.2,3.2-26.667,8.533
	c-7.467,6.4-11.733,14.933-14.933,27.733L138.667,128c1.067-18.133,8.533-33.067,22.4-44.8s32-18.133,55.467-18.133
	c23.467,0,42.667,6.4,56.533,19.2C286.933,97.067,294.4,110.933,294.4,128c0,9.6-2.133,18.133-7.467,25.6
	c-5.333,7.467-16,19.2-33.067,33.067c-8.533,7.467-13.867,12.8-16,18.133C235.733,210.133,233.6,216.533,233.6,227.2z
	 M196.267,283.733v-41.6h41.6v41.6H196.267z"/>
<g>
</g>
<g>
</g>
<g>
</g>
<g>
</g>
<g>
</g>
<g>
</g>
<g>
</g>
<g>
</g>
<g>
</g>
<g>
</g>
<g>
</g>
<g>
</g>
<g>
</g>
<g>
</g>
<g>
</g>
</svg>
