<?xml version="1.0" encoding="iso-8859-1"?>
<!-- Generator: Adobe Illustrator 19.0.0, SVG Export Plug-In . SVG Version: 6.00 Build 0)  -->
<svg version="1.1" id="Capa_1" xmlns="http://www.w3.org/2000/svg" xmlns:xlink="http://www.w3.org/1999/xlink" x="0px" y="0px"
	 viewBox="0 0 512 512" style="enable-background:new 0 0 512 512;" xml:space="preserve">
<g>
	<path style="fill:#66C6B9;" d="M135.467,511.492l13.867-41.6l-29.867-45.867c0,0,14.933-145.067-82.133-98.133
		c0,0-23.467,45.867-32,117.333C3.2,464.558,1.067,488.025,0,511.492H135.467z"/>
	<path style="fill:#66C6B9;" d="M461.867,511.492c-5.333-38.4-14.933-98.133-17.067-116.267c-3.2-27.733-13.867-67.2-13.867-67.2
		s-40.533,70.4-48,124.8c-3.2,22.4-2.133,42.667,0,58.667H461.867z"/>
</g>
<path style="fill:#FFD15C;" d="M362.667,110.425l-7.467,33.067c0,0-5.333,38.4-13.867,54.4c-8.533,17.067-25.6,43.733-25.6,43.733
	l-4.267,50.133c0,0-90.667,2.133-105.6-20.267s-4.267-10.667-4.267-10.667s6.4-53.333,6.4-64c-1.067-11.733,2.133-51.2,2.133-51.2
	s6.4-60.8,28.8-83.2s56.533-25.6,56.533-25.6S366.933,42.158,362.667,110.425z"/>
<path style="fill:#415A6B;" d="M219.733,123.225l-1.067,21.333h7.467c0,0,6.4-42.667,14.933-44.8c7.467-1.067,18.133-2.133,16-8.533
	c-2.133-6.4-12.8-26.667,12.8-23.467c25.6,3.2,59.733,11.733,74.667,9.6s16,28.8,14.933,41.6s-3.2,24.533-3.2,24.533
	s4.267-18.133,9.6-24.533c5.333-6.4,8.533-30.933,5.333-44.8c-3.2-13.867-16-61.867-61.867-71.467S234.667,17.625,224,28.292
	c-10.667,10.667-17.067,48-19.2,54.4c-2.133,6.4-4.267,34.133-4.267,34.133l0,0C206.933,108.292,219.733,112.558,219.733,123.225z"
	/>
<ellipse transform="matrix(-0.0755 -0.9971 0.9971 -0.0755 92.1624 344.6865)" style="fill:#FFD15C;" cx="205.868" cy="129.619" rx="29.865" ry="15.999"/>
<path style="fill:#F7B64C;" d="M285.867,255.492c-19.2-4.267-50.133-28.8-62.933-54.4c0,0,0,24.533,28.8,54.4
	c11.733,12.8,38.4,24.533,60.8,35.2l4.267-49.067C315.733,241.625,305.067,259.758,285.867,255.492z"/>
<path style="fill:#4ABAA5;" d="M118.4,424.025l-10.667,87.467H390.4l0,0c-1.067-21.333,14.933-44.8,23.467-65.067
	c8.533-20.267,23.467-103.467,17.067-118.4c-7.467-14.933-24.533-24.533-43.733-34.133c-19.2-9.6-69.333-34.133-69.333-34.133
	l-9.6,25.6l-22.4,1.067l-5.333-1.067l-29.867,5.333l-60.8-45.867c0,0,0,0-7.467,1.067c-7.467,1.067-84.267,40.533-105.6,52.267
	s-40.533,27.733-40.533,27.733C89.6,313.092,118.4,424.025,118.4,424.025z"/>
<g>
	<polyline style="fill:#F3705A;" points="275.2,303.492 273.067,299.225 260.267,287.492 249.6,296.025 263.467,307.758 
		275.2,308.825 	"/>
	<polygon style="fill:#F3705A;" points="289.067,304.558 290.133,301.358 298.667,286.425 310.4,296.025 295.467,309.892 
		281.6,313.092 	"/>
	<path style="fill:#F3705A;" d="M277.333,511.492h51.2c-2.133-37.333-29.867-169.6-34.133-182.4c-5.333-12.8-5.333-12.8-5.333-12.8
		H278.4l0,13.867C278.4,330.158,276.267,464.558,277.333,511.492z"/>
</g>
<path style="fill:#F05540;" d="M263.467,307.758c0,0,7.467-3.2,9.6-8.533c0,0,12.8,2.133,17.067,2.133c0,0,2.133,6.4,5.333,8.533
	v19.2c-5.333-5.333-10.667-4.267-17.067,0C278.4,330.158,270.933,309.892,263.467,307.758z"/>
<g>
	<path style="fill:#F3F3F3;" d="M285.867,286.425c0,0,27.733,26.667,26.667,41.6c0,0,7.467-11.733,7.467-27.733
		c0-14.933-5.333-57.6-5.333-57.6s-1.067,17.067-5.333,23.467C304,272.558,291.2,284.292,285.867,286.425z"/>
	<path style="fill:#F3F3F3;" d="M206.933,211.758c0,0-4.267,18.133,11.733,34.133s60.8,39.467,60.8,39.467
		s-30.933,33.067-33.067,44.8c0,0-21.333-22.4-33.067-35.2s-32-44.8-32-49.067s6.4-9.6,10.667-20.267
		C197.333,213.892,202.667,211.758,206.933,211.758"/>
</g>
<circle style="fill:#E8EAE9;" cx="402.133" cy="401.625" r="109.867"/>
<circle style="fill:#CED6E0;" cx="402.133" cy="401.625" r="76.8"/>
<path style="fill:#E8EAE9;" d="M397.867,431.492v-26.667c-8.533-2.133-13.867-5.333-18.133-10.667
	c-4.267-5.333-5.333-10.667-5.333-17.067c0-6.4,2.133-12.8,6.4-17.067c4.267-4.267,9.6-7.467,17.067-8.533v-6.4h8.533v6.4
	c6.4,1.067,11.733,3.2,16,6.4c4.267,3.2,6.4,8.533,7.467,14.933l-16,2.133c-1.067-5.333-3.2-8.533-7.467-9.6v24.533
	c9.6,3.2,17.067,6.4,20.267,10.667c3.2,4.267,5.333,9.6,5.333,17.067c0,7.467-2.133,13.867-6.4,19.2s-10.667,8.533-19.2,9.6v11.733
	h-8.533v-11.733c-7.467-1.067-12.8-3.2-17.067-8.533c-4.267-4.267-7.467-10.667-8.533-19.2l16-2.133
	c1.067,3.2,2.133,6.4,4.267,8.533C393.6,428.292,395.733,429.358,397.867,431.492z M397.867,365.358
	c-2.133,1.067-4.267,2.133-5.333,4.267c-1.067,2.133-2.133,4.267-2.133,6.4c0,2.133,1.067,4.267,2.133,6.4
	c1.067,2.133,3.2,3.2,6.4,4.267v-21.333H397.867z M406.4,431.492c3.2-1.067,5.333-2.133,7.467-4.267s3.2-5.333,3.2-8.533
	s-1.067-5.333-2.133-7.467c-2.133-2.133-4.267-3.2-8.533-4.267V431.492z"/>
<g>
</g>
<g>
</g>
<g>
</g>
<g>
</g>
<g>
</g>
<g>
</g>
<g>
</g>
<g>
</g>
<g>
</g>
<g>
</g>
<g>
</g>
<g>
</g>
<g>
</g>
<g>
</g>
<g>
</g>
</svg>
