<?xml version="1.0" encoding="iso-8859-1"?>
<!-- Generator: Adobe Illustrator 19.0.0, SVG Export Plug-In . SVG Version: 6.00 Build 0)  -->
<svg version="1.1" id="Capa_1" xmlns="http://www.w3.org/2000/svg" xmlns:xlink="http://www.w3.org/1999/xlink" x="0px" y="0px"
	 viewBox="0 0 513.067 513.067" style="enable-background:new 0 0 513.067 513.067;" xml:space="preserve">
<g>
	<path style="fill:#F3F3F3;" d="M51.733,174.933c0-35.2,28.8-64,64-64s64,28.8,64,64s-28.8,64-64,64
		C80.533,240,51.733,211.2,51.733,174.933z"/>
	<path style="fill:#F3F3F3;" d="M302.4,135.467c0-41.6,33.067-74.667,74.667-74.667s74.667,33.067,74.667,74.667
		s-34.133,74.667-74.667,74.667C335.467,210.133,302.4,177.067,302.4,135.467z"/>
	<path style="fill:#F3F3F3;" d="M182.933,386.133c0-38.4,30.933-70.4,70.4-70.4c38.4,0,70.4,30.933,70.4,70.4
		c0,38.4-30.933,70.4-70.4,70.4C214.933,455.467,182.933,424.533,182.933,386.133z"/>
</g>
<g>
	<path style="fill:#344A5E;" d="M301.333,462.933c-1.067-5.333,0-19.2,0-26.667c0-8.533-2.133-16-2.133-16
		c-3.2-7.467-16-9.6-18.133-4.267c-3.2,4.267-4.267,26.667-4.267,33.067c0,3.2,0,9.6,0,14.933h24.533V462.933z"/>
	<path style="fill:#344A5E;" d="M207.467,462.933L206.4,441.6l11.733-33.067l-8.533-1.067l0,0c-5.333,7.467-7.467,16-8.533,24.533
		l-3.2,30.933L207.467,462.933L207.467,462.933z"/>
</g>
<path style="fill:#FFD15C;" d="M230.933,352c0,0-1.067,5.333,0,12.8c1.067,6.4,1.067,16,10.667,25.6v6.4c0,6.4-3.2,12.8-8.533,16
	l0,0c-8.533,5.333-8.533,5.333-8.533,5.333l35.2,11.733l8.533-27.733c0,0-4.267-5.333-3.2-14.933c1.067-9.6,1.067-25.6,1.067-25.6
	s-5.333-20.267-14.933-21.333C241.6,339.2,235.2,343.467,230.933,352z"/>
<path style="fill:#E8EAE9;" d="M238.4,462.933l14.933-44.8c-12.8,4.267-22.4,0-21.333-7.467l-16,26.667l-3.2,25.6H238.4z"/>
<path style="fill:#F7B64C;" d="M251.2,390.4c-6.4,4.267-10.667-1.067-10.667-1.067v6.4c0,6.4-3.2,12.8-8.533,16l0,0
	c-1.067,0-1.067,1.067-2.133,1.067c5.333-1.067,11.733-3.2,16-8.533c13.867-12.8,16-25.6,16-25.6S257.6,387.2,251.2,390.4z"/>
<g>
	<path style="fill:#415A6B;" d="M219.2,462.933c0-1.067,0-2.133,0-3.2c0-9.6,1.067-22.4,7.467-35.2
		c6.4-12.8,7.467-13.867,11.733-19.2c4.267-5.333,3.2-10.667,3.2-10.667c-3.2,6.4-13.867,7.467-13.867,7.467
		c-10.667-2.133-17.067,4.267-17.067,4.267c1.067,4.267,0,11.733-2.133,20.267c-3.2,11.733-4.267,24.533-4.267,36.267L219.2,462.933
		L219.2,462.933z"/>
	<path style="fill:#415A6B;" d="M276.8,462.933c3.2-7.467,4.267-12.8,4.267-16c0-5.333-7.467-25.6,7.467-32
		c0,0,6.4-2.133,10.667,5.333c0,0,0-4.267-7.467-8.533c-7.467-4.267-22.4-9.6-27.733-16c0,0-6.4,10.667-16,18.133
		c-9.6,7.467-19.2,27.733-23.467,40.533c-1.067,2.133-1.067,5.333-2.133,8.533H276.8z"/>
</g>
<path style="fill:#F3705A;" d="M234.133,349.867c5.333-6.4,12.8-9.6,12.8-9.6s5.333,1.067,8.533,10.667
	c3.2,8.533,6.4,22.4,7.467,24.533c1.067,2.133,1.067,21.333-1.067,32c-2.133,10.667-3.2,16-2.133,27.733
	c1.067,11.733,13.867,25.6,13.867,25.6s-5.333-19.2,6.4-36.267c5.333-7.467,5.333-33.067,3.2-51.2
	c-2.133-18.133-9.6-35.2-22.4-40.533c-12.8-6.4-26.667,7.467-29.867,13.867c-3.2,6.4-2.133,14.933,0,19.2
	C229.867,364.8,228.8,356.267,234.133,349.867z"/>
<path style="fill:#CED6E0;" d="M91.2,249.6c-1.067-2.133-1.067-3.2-1.067-5.333v-35.2c0-7.467,5.333-12.8,12.8-12.8h27.733
	c7.467,0,12.8,5.333,12.8,12.8v35.2c0,2.133,0,4.267-1.067,5.333H91.2z"/>
<g>
	<polygon style="fill:#F3705A;" points="107.2,249.6 112.533,209.067 121.067,209.067 125.333,249.6 	"/>
	<polygon style="fill:#F3705A;" points="112.533,209.067 107.2,204.8 116.8,196.267 125.333,204.8 121.067,209.067 	"/>
</g>
<path style="fill:#344A5E;" d="M56,249.6l9.6-41.6c1.067-4.267,4.267-7.467,8.533-8.533l22.4-4.267l10.667,54.4H56z"/>
<path style="fill:#F3F3F3;" d="M102.933,186.667c0,0,0,2.133,6.4,5.333c6.4,3.2,7.467,4.267,7.467,4.267l-12.8,12.8l-5.333-12.8
	C98.667,196.267,101.867,188.8,102.933,186.667z"/>
<path style="fill:#415A6B;" d="M101.867,249.6c-2.133-5.333-3.2-9.6-4.267-11.733c-3.2-8.533-10.667-30.933-10.667-30.933l6.4-3.2
	l-4.267-1.067c0,0,3.2-5.333,6.4-7.467s3.2-4.267,5.333-5.333c0,0,0,6.4,1.067,9.6c1.067,3.2,5.333,27.733,6.4,35.2
	c0,2.133,1.067,8.533,2.133,14.933L101.867,249.6L101.867,249.6z"/>
<path style="fill:#344A5E;" d="M125.333,249.6L136,195.2l22.4,4.267c4.267,1.067,7.467,4.267,8.533,8.533l9.6,41.6L125.333,249.6
	L125.333,249.6z"/>
<path style="fill:#F3F3F3;" d="M130.667,186.667c0,0,0,2.133-6.4,5.333c-6.4,3.2-7.467,4.267-7.467,4.267l12.8,12.8l5.333-12.8
	C134.933,196.267,130.667,188.8,130.667,186.667z"/>
<path style="fill:#415A6B;" d="M134.933,237.867c-1.067,2.133-2.133,6.4-4.267,11.733h-8.533c1.067-7.467,2.133-12.8,2.133-14.933
	c1.067-7.467,5.333-30.933,6.4-35.2c1.067-3.2,1.067-9.6,1.067-9.6c2.133,1.067,2.133,3.2,5.333,5.333
	c3.2,2.133,6.4,7.467,6.4,7.467l-4.267,1.067l6.4,3.2C145.6,206.933,138.133,229.333,134.933,237.867z"/>
<path style="fill:#F7B64C;" d="M130.667,166.4v20.267c0,0,0,2.133-6.4,5.333c-6.4,3.2-7.467,4.267-7.467,4.267
	s-1.067-1.067-7.467-4.267c-6.4-3.2-6.4-5.333-6.4-5.333V166.4H130.667z"/>
<g>
	<path style="fill:#FFD15C;" d="M100.8,146.133c0-2.133,1.067-4.267,2.133-5.333c1.067-1.067,2.133-2.133,4.267-3.2
		c1.067-1.067,3.2-1.067,5.333-1.067c3.2,0,6.4,0,9.6,0l0,0c2.133-1.067,4.267-1.067,6.4-1.067c2.133,0,5.333,1.067,6.4,3.2
		c1.067,2.133,1.067,4.267,1.067,6.4c0,2.133-1.067,4.267-2.133,5.333c1.067,3.2,2.133,7.467,2.133,11.733
		c0,13.867-8.533,25.6-20.267,25.6s-19.2-10.667-19.2-24.533C96.533,156.8,98.667,151.467,100.8,146.133z"/>
	
		<ellipse transform="matrix(0.1455 0.9894 -0.9894 0.1455 244.7572 42.7229)" style="fill:#FFD15C;" cx="97.646" cy="163.053" rx="7.467" ry="3.2"/>
	
		<ellipse transform="matrix(0.1455 -0.9894 0.9894 0.1455 -45.2858 274.0245)" style="fill:#FFD15C;" cx="135.992" cy="163.228" rx="7.467" ry="3.2"/>
</g>
<path style="fill:#415A6B;" d="M134.933,168.533L134.933,168.533c-1.067,0,1.067-4.267-1.067-9.6c-2.133-5.333-2.133-6.4-2.133-9.6
	s1.067-7.467-4.267-8.533c-5.333-1.067-18.133,0-21.333,0c-4.267,1.067-5.333,6.4-5.333,8.533c1.067,2.133-1.067,6.4-1.067,9.6
	s0,9.6,0,9.6h-1.067c0,0,0-4.267-1.067-7.467c-1.067-2.133-2.133-5.333-2.133-11.733c0-7.467,2.133-9.6,2.133-9.6
	s-3.2-8.533,7.467-12.8c10.667-4.267,16-1.067,21.333,2.133c5.333,3.2,9.6,8.533,11.733,12.8c1.067,3.2-1.067,18.133-2.133,20.267
	L134.933,168.533z"/>
<g>
	<path style="fill:#FFD15C;" d="M389.867,119.467c-1.067,4.267,0,8.533,2.133,8.533s5.333-3.2,6.4-7.467s0-8.533-2.133-8.533
		C393.067,112,390.933,115.2,389.867,119.467z"/>
	<path style="fill:#FFD15C;" d="M353.6,104.533v5.333c0,0-4.267,21.333,4.267,32V163.2h22.4c4.267-4.267,6.4-6.4,9.6-9.6v-13.867
		c0,0,1.067-11.733,1.067-14.933s0-5.333,0-5.333s5.333-14.933,3.2-23.467C392,88.533,372.8,78.933,366.4,81.067
		C360,83.2,353.6,92.8,353.6,104.533z"/>
</g>
<path style="fill:#415A6B;" d="M392,120.533c0,0,1.067-4.267,0-7.467s-3.2-7.467-3.2-12.8c0-5.333,0-7.467-3.2-8.533
	c-3.2-2.133-9.6-3.2-13.867-2.133c-4.267,1.067-8.533-1.067-10.667,0c-2.133,2.133-5.333,3.2-5.333,6.4
	c-1.067,3.2-1.067,8.533-1.067,10.667c0,1.067,0,3.2,0,3.2s-3.2-19.2,6.4-28.8c9.6-9.6,22.4-5.333,29.867,0
	c7.467,4.267,9.6,11.733,9.6,13.867c0,3.2-2.133,13.867-4.267,19.2C395.2,114.133,395.2,115.2,392,120.533L392,120.533z"/>
<path style="fill:#F7B64C;" d="M357.867,141.867c0,0,5.333,5.333,12.8,5.333s18.133-7.467,20.267-13.867c0,0-4.267,12.8-12.8,21.333
	c-4.267,4.267-11.733,7.467-17.067,9.6h-3.2L357.867,141.867L357.867,141.867z"/>
<polygon style="fill:#CED6E0;" points="371.733,160 366.4,158.933 365.333,158.933 353.6,160 345.067,210.133 363.2,211.2 
	376,162.133 "/>
<path style="fill:#F05540;" d="M346.133,215.467c0-1.067,1.067-4.267,1.067-8.533c1.067-10.667,8.533-30.933,8.533-30.933l8.533-9.6
	l3.2,9.6L360,215.467L346.133,215.467L346.133,215.467z"/>
<path style="fill:#F3705A;" d="M370.667,169.6l-5.333,7.467c0,0-4.267-4.267-9.6-1.067l3.2-14.933l5.333-1.067h2.133
	C367.467,160,371.733,166.4,370.667,169.6z"/>
<g>
	<path style="fill:#F3F3F3;" d="M390.933,139.733c0,0,0,2.133-4.267,5.333c-3.2,3.2-9.6,6.4-13.867,9.6
		c-4.267,3.2-5.333,4.267-5.333,4.267l5.333,16l23.467-22.4C394.133,152.533,393.067,145.067,390.933,139.733z"/>
	<path style="fill:#F3F3F3;" d="M357.867,146.133c0,0,0,4.267,2.133,7.467c2.133,3.2,5.333,5.333,5.333,5.333
		s-4.267,3.2-5.333,7.467c-1.067,3.2-4.267,6.4-4.267,6.4s-1.067-13.867-1.067-14.933C354.667,156.8,356.8,150.4,357.867,146.133z"
		/>
</g>
<path style="fill:#344A5E;" d="M408,168.533c-9.6,9.6-13.867,21.333-13.867,23.467c0,1.067,0,11.733,0,22.4h-41.6l1.067-6.4
	c0,0,4.267-20.267,18.133-33.067c14.933-12.8,28.8-26.667,28.8-26.667s3.2,1.067,9.6,4.267c6.4,3.2,16,8.533,17.067,9.6
	C427.2,164.267,417.6,158.933,408,168.533z"/>
<path style="fill:#415A6B;" d="M329.067,215.467h-24.533c3.2-6.4,7.467-12.8,8.533-14.933c2.133-3.2,5.333-12.8,6.4-17.067
	c1.067-4.267,4.267-10.667,7.467-16c2.133-4.267,5.333-4.267,5.333-4.267l1.067,1.067c0,0-2.133,22.4-3.2,37.333
	C330.133,206.933,329.067,211.2,329.067,215.467z"/>
<path style="fill:#344A5E;" d="M345.067,193.067c0,4.267,3.2,13.867,6.4,22.4H324.8c0-10.667,0-20.267,0-25.6
	c0-13.867,5.333-23.467,7.467-24.533c2.133-2.133,9.6-3.2,12.8-5.333c3.2-2.133,7.467-3.2,7.467-3.2
	S345.067,184.533,345.067,193.067z"/>
<g>
	<path style="fill:#415A6B;" d="M354.667,178.133c0,1.067,0,2.133,0,3.2c0,3.2-1.067,23.467,0,29.867c0,1.067,0,2.133,0,3.2h-5.333
		c-3.2-7.467-5.333-14.933-7.467-21.333c-3.2-14.933-3.2-24.533-2.133-26.667l7.467-4.267v-3.2c0,0,2.133-2.133,5.333-4.267
		c2.133-2.133,3.2-3.2,5.333-6.4C356.8,150.4,356.8,153.6,356.8,156.8C355.733,165.333,355.733,171.733,354.667,178.133z"/>
	<path style="fill:#415A6B;" d="M392,144c0,0-2.133,3.2-6.4,6.4s-23.467,22.4-26.667,29.867c-3.2,7.467-6.4,28.8-6.4,28.8
		s4.267-16,14.933-23.467c11.733-7.467,26.667-18.133,26.667-18.133l-2.133-3.2l7.467-2.133c0,0,0-7.467,1.067-9.6
		s-2.133-1.067-4.267-4.267C396.267,145.067,394.133,144,392,144z"/>
	<path style="fill:#415A6B;" d="M426.133,215.467h-44.8c3.2-6.4,7.467-16,12.8-22.4C395.2,190.933,398.4,179.2,408,169.6
		c8.533-8.533,18.133-5.333,19.2-5.333l0,0l0,0c0,0,5.333,4.267,5.333,13.867c1.067,9.6-1.067,24.533-3.2,28.8
		C429.333,208,428.267,211.2,426.133,215.467z"/>
</g>
<path style="fill:#8AD7F8;" d="M30.4,201.6c2.133,5.333,4.267,10.667,6.4,16l-13.867,27.733L46.4,268.8l27.733-13.867
	c5.333,3.2,10.667,5.333,16,6.4l9.6,29.867H132.8l9.6-29.867c5.333-2.133,10.667-4.267,16-6.4l27.733,13.867l23.467-23.467
	L195.733,217.6c3.2-5.333,5.333-10.667,6.4-16L232,192v-33.067l-29.867-9.6c-2.133-5.333-4.267-10.667-6.4-16L209.6,105.6
	l-23.467-23.467L158.4,96c-5.333-3.2-10.667-5.333-16-6.4l-9.6-29.867H99.733l-9.6,29.867c-5.333,1.067-10.667,3.2-16,6.4
	L46.4,82.133l-23.467,22.4L36.8,132.267c-3.2,5.333-5.333,10.667-6.4,16L0.533,158.933V192L30.4,201.6z M51.733,174.933
	c0-35.2,28.8-64,64-64s64,28.8,64,64s-28.8,64-64,64C80.533,240,51.733,211.2,51.733,174.933z"/>
<path style="fill:#F3705A;" d="M276.8,166.4c2.133,6.4,4.267,12.8,7.467,19.2L267.2,218.667l26.667,26.667l33.067-17.067
	c6.4,3.2,11.733,5.333,19.2,7.467l11.733,35.2h38.4l11.733-35.2c6.4-2.133,12.8-4.267,19.2-7.467l33.067,17.067l26.667-26.667
	l-17.067-34.133c3.2-6.4,5.333-12.8,7.467-19.2l35.2-11.733v-38.4l-35.2-11.733c-2.133-6.4-4.267-12.8-7.467-19.2l17.067-30.933
	L459.2,25.6l-33.067,17.067c-6.4-3.2-11.733-5.333-19.2-7.467L396.267,0h-38.4l-11.733,35.2c-6.4,2.133-12.8,4.267-19.2,7.467
	L293.867,25.6l-25.6,27.733L285.333,86.4c-3.2,6.4-5.333,12.8-7.467,19.2l-35.2,11.733v38.4L276.8,166.4z M302.4,135.467
	c0-41.6,33.067-74.667,74.667-74.667s74.667,33.067,74.667,74.667s-34.133,74.667-74.667,74.667
	C335.467,210.133,302.4,177.067,302.4,135.467z"/>
<path style="fill:#66C6B9;" d="M159.467,413.867c2.133,6.4,4.267,11.733,7.467,18.133l-16,30.933l25.6,25.6l30.933-16
	c5.333,3.2,11.733,5.333,17.067,7.467l10.667,33.067h36.267L282.133,480c6.4-2.133,11.733-4.267,17.067-7.467l30.933,16l25.6-25.6
	l-16-30.933c3.2-5.333,5.333-11.733,7.467-18.133l32-10.667v-36.267l-33.067-10.667c-2.133-6.4-4.267-11.733-7.467-17.067l16-30.933
	l-25.6-25.6l-29.867,16c-5.333-3.2-11.733-5.333-17.067-7.467l-10.667-33.067H235.2L224.533,291.2
	c-6.4,2.133-11.733,4.267-17.067,7.467l-30.933-16l-25.6,26.667l16,30.933c-3.2,5.333-5.333,11.733-7.467,18.133l-32,10.667v36.267
	L159.467,413.867z M182.933,386.133c0-38.4,30.933-70.4,70.4-70.4c38.4,0,70.4,30.933,70.4,70.4c0,38.4-30.933,70.4-70.4,70.4
	C214.933,455.467,182.933,424.533,182.933,386.133z"/>
<g>
</g>
<g>
</g>
<g>
</g>
<g>
</g>
<g>
</g>
<g>
</g>
<g>
</g>
<g>
</g>
<g>
</g>
<g>
</g>
<g>
</g>
<g>
</g>
<g>
</g>
<g>
</g>
<g>
</g>
</svg>
