<?xml version="1.0" encoding="iso-8859-1"?>
<!-- Generator: Adobe Illustrator 19.0.0, SVG Export Plug-In . SVG Version: 6.00 Build 0)  -->
<svg version="1.1" id="Capa_1" xmlns="http://www.w3.org/2000/svg" xmlns:xlink="http://www.w3.org/1999/xlink" x="0px" y="0px"
	 viewBox="0 0 513.134 513.134" style="enable-background:new 0 0 513.134 513.134;" xml:space="preserve">
<g>
	<path style="fill:#344A5E;" d="M154.377,241.135h39.467c-4.267-19.2,3.2-33.067,3.2-45.867c0-18.133-19.2-40.533-19.2-40.533
		s-12.8-3.2-25.6-6.4c-12.8-3.2-17.067-7.467-17.067-7.467s19.2,45.867,22.4,65.067
		C158.643,214.468,157.577,228.335,154.377,241.135z"/>
	<path style="fill:#344A5E;" d="M71.177,214.468v26.667h68.267c-1.067-2.133-2.133-5.333-4.267-8.533
		c-10.667-18.133-68.267-92.8-68.267-92.8l-13.867-2.133c0,0-12.8,6.4-21.333,10.667c-9.6,4.267-18.133,8.533-18.133,8.533
		C54.11,152.601,71.177,214.468,71.177,214.468z"/>
</g>
<g>
	<path style="fill:#FFD15C;" d="M155.443,31.001L155.443,31.001L155.443,31.001z"/>
	<path style="fill:#FFD15C;" d="M167.177,103.535c-3.2,0-4.267,0-4.267,0s0,3.2,0,4.267c1.067,1.067,0,4.267-3.2,4.267
		c0,0,3.2,3.2-1.067,7.467c0,0-4.267,3.2-3.2,9.6c1.067,6.4-6.4,8.533-11.733,7.467c-5.333-1.067-13.867-5.333-13.867-5.333
		l-6.4,30.933L73.31,125.935c0,0,6.4-17.067,6.4-20.267c1.067-3.2,1.067-4.267,1.067-4.267s-1.067-36.267,6.4-49.067
		s59.733-20.267,66.133-20.267l11.733,11.733c0,0,4.267,23.467,4.267,29.867c0,0,0,2.133-2.133,4.267
		c-2.133,1.067-2.133,6.4-2.133,6.4c0,1.067,5.333,11.733,5.333,14.933C172.51,101.401,170.377,103.535,167.177,103.535z"/>
</g>
<path style="fill:#344A5E;" d="M110.643,89.668h9.6c0,0-3.2-12.8,1.067-21.333s13.867-10.667,17.067-11.733
	c3.2-1.067,1.067-11.733-2.133-16c-3.2-4.267,6.4-4.267,13.867-2.133c8.533,2.133,13.867,5.333,17.067,4.267
	c3.2-1.067,13.867-16,4.267-23.467c-9.6-8.533-33.067-18.133-53.333-19.2c-21.333-1.067-32,10.667-40.533,22.4
	s-8.533,37.333-5.333,48c3.2,10.667,9.6,30.933,8.533,35.2c0,0,5.333-6.4,8.533-22.4c4.267-20.267,16-16,19.2-11.733
	C111.71,73.668,110.643,89.668,110.643,89.668z"/>
<ellipse transform="matrix(-0.2329 -0.9725 0.9725 -0.2329 47.1391 190.478)" style="fill:#FFD15C;" cx="98.693" cy="76.648" rx="17.067" ry="9.6"/>
<path style="fill:#F7B64C;" d="M98.91,104.601c0,1.067,11.733,29.867,27.733,51.2l5.333-24.533
	C131.976,131.268,107.443,117.401,98.91,104.601z"/>
<path style="fill:#CED6E0;" d="M138.377,241.135h14.933c0-2.133,0-4.267,0-6.4c2.133-29.867-8.533-76.8-8.533-76.8l-10.667-14.933
	h-8.533H108.51l-21.333,21.333c0,0,30.933,39.467,40.533,54.4C130.91,225.135,134.11,232.601,138.377,241.135z"/>
<path style="fill:#F05540;" d="M130.91,224.068l6.4,17.067h10.667c-2.133-16-5.333-35.2-8.533-43.733
	c-4.267-13.867-8.533-27.733-8.533-27.733l-8.533-4.267l-1.067,7.467c0,0,4.267,13.867,7.467,23.467
	C130.91,205.934,130.91,224.068,130.91,224.068z"/>
<path style="fill:#415A6B;" d="M146.91,194.201c1.067,7.467,2.133,27.733,2.133,46.933h8.533c2.133-7.467,3.2-16,4.267-24.533
	c3.2-32-11.733-60.8-11.733-60.8l-8.533-3.2l2.133-3.2l-11.733-9.6l3.2,6.4C136.243,146.201,144.777,182.468,146.91,194.201z"/>
<path style="fill:#F3705A;" d="M102.11,145.135l20.267-3.2h2.133c0,0,7.467-3.2,9.6,0c2.133,3.2-4.267,12.8-2.133,26.667
	c0,0-7.467,0-10.667,3.2c0,0-4.267-11.733-12.8-18.133C99.976,148.335,102.11,145.135,102.11,145.135z"/>
<g>
	<path style="fill:#E8EAE9;" d="M131.976,131.268c0,0-4.267,7.467-6.4,11.733c0,0,4.267,0,7.467,3.2c3.2,2.133,2.133,16,2.133,16
		s4.267-2.133,4.267-7.467c0-5.333-4.267-18.133-4.267-19.2c0-1.067,0-1.067,0-1.067L131.976,131.268z"/>
	<path style="fill:#E8EAE9;" d="M79.71,111.001c0,0,2.133,7.467,8.533,11.733c6.4,4.267,34.133,19.2,34.133,19.2l-21.333,32
		L66.91,134.468c0,0,4.267-10.667,6.4-14.933C75.443,116.335,77.577,111.001,79.71,111.001z"/>
</g>
<g>
	<path style="fill:#415A6B;" d="M59.443,146.201c3.2,2.133,11.733,3.2,11.733,3.2l-4.267,6.4c18.133,17.067,42.667,52.267,57.6,70.4
		c3.2,3.2,5.333,8.533,8.533,13.867h8.533c-6.4-16-13.867-33.067-21.333-46.933c-20.267-34.133-34.133-51.2-41.6-58.667
		c-7.467-8.533-6.4-12.8-6.4-12.8c-5.333,1.067-10.667,5.333-14.933,10.667c-4.267,5.333-3.2,5.333-3.2,5.333
		S56.243,145.135,59.443,146.201z"/>
	<path style="fill:#415A6B;" d="M7.177,241.135h73.6c-5.333-13.867-9.6-26.667-9.6-26.667s-17.067-62.933-57.6-57.6
		c-16,11.733-13.867,55.467-7.467,81.067C6.11,239.001,6.11,240.068,7.177,241.135z"/>
	<path style="fill:#415A6B;" d="M194.91,212.335L194.91,212.335L194.91,212.335c0,0-7.467,9.6-8.533,21.333
		c0,2.133,0,5.333,2.133,8.533h37.333c-8.533-34.133-21.333-58.667-28.8-72.533c-7.467-12.8-17.067-14.933-17.067-14.933
		s19.2,22.4,19.2,40.533C198.11,199.535,195.976,205.934,194.91,212.335z"/>
</g>
<g>
	<path style="fill:#FFD15C;" d="M88.243,362.735c2.133,8.533,1.067,16-4.267,16c-4.267,0-9.6-6.4-12.8-16
		c-2.133-8.533-1.067-16,4.267-16C79.71,346.735,86.11,354.201,88.243,362.735z"/>
	<path style="fill:#FFD15C;" d="M159.71,331.801v10.667c0,0,2.133,41.6-8.533,53.333v42.667h-43.733
		c-7.467-7.467-11.733-11.733-20.267-19.2l-1.067-27.733c0,0-2.133-12.8-2.133-18.133c0-5.333,0-10.667,0-10.667
		s-9.6-29.867-5.333-45.867s41.6-34.133,55.467-28.8C145.843,294.468,159.71,308.335,159.71,331.801z"/>
</g>
<path style="fill:#415A6B;" d="M83.976,363.801c0-1.067-2.133-7.467,0-13.867c2.133-6.4,5.333-14.933,6.4-24.533
	c1.067-9.6,0-14.933,5.333-18.133c5.333-3.2,28.8-9.6,50.133-3.2c5.333,2.133,9.6,5.333,10.667,12.8
	c1.067,6.4,2.133,17.067,2.133,20.267c0,3.2,1.067,6.4,1.067,6.4s7.467-37.333-12.8-56.533c-20.267-18.133-44.8-9.6-59.733-1.067
	c-13.867,8.533-18.133,22.4-19.2,27.733c-1.067,5.333,3.2,27.733,8.533,37.333C76.51,351.001,76.51,353.135,83.976,363.801
	L83.976,363.801z"/>
<path style="fill:#F7B64C;" d="M150.11,395.801c0,0-9.6,10.667-25.6,9.6s-36.267-14.934-40.533-27.733c0,0,8.533,25.6,25.6,41.6
	c8.533,8.533,22.4,14.934,34.133,19.2h6.4L150.11,395.801L150.11,395.801z"/>
<polygon style="fill:#CED6E0;" points="173.577,512.068 159.71,432.068 136.243,431.002 133.043,431.002 122.377,432.068 
	114.91,436.335 135.177,512.068 "/>
<path style="fill:#F05540;" d="M169.31,512.068c-5.333-22.4-14.933-50.133-14.933-50.133l-17.067-19.2l-7.467,20.267l9.6,49.066
	H169.31z"/>
<path style="fill:#F3705A;" d="M124.51,450.201l9.6,13.867c0,0,9.6-8.533,19.2-2.133c0,0-7.467-28.8-6.4-29.867
	s-10.667-1.066-10.667-1.066h-5.333C131.976,431.002,124.51,443.801,124.51,450.201z"/>
<g>
	<path style="fill:#E8EAE9;" d="M86.11,392.601c0,0,0,4.267,7.467,10.667c7.467,6.4,19.2,11.733,27.733,18.133
		c8.533,6.4,11.733,9.6,11.733,9.6l-9.6,30.934l-45.867-44.8C77.577,417.134,80.777,403.268,86.11,392.601z"/>
	<path style="fill:#E8EAE9;" d="M150.11,404.335c0,0,0,9.6-3.2,14.934c-3.2,6.4-10.667,10.667-10.667,10.667
		s9.6,7.467,11.733,13.867c2.133,6.4,7.467,12.8,7.467,12.8s2.133-27.733,2.133-28.8S153.31,412.868,150.11,404.335z"/>
</g>
<path style="fill:#344A5E;" d="M51.976,449.134c19.2,19.2,26.667,42.667,28.8,46.934c0,1.066,0,6.4,0,14.934h73.6
	c-5.333-13.867-14.933-33.066-30.933-46.934c-28.8-24.533-57.6-52.267-57.6-52.267s-6.4,2.133-19.2,7.467
	c-11.733,5.333-32,17.066-34.133,19.2C12.51,439.535,32.777,429.935,51.976,449.134z"/>
<path style="fill:#415A6B;" d="M239.71,512.068c-3.2-7.467-10.667-25.6-12.8-32c-3.2-7.467-9.6-22.4-14.933-30.934
	c-5.333-8.533-10.667-7.467-10.667-7.467l-2.133,3.2c0,0,3.2,38.4,5.333,68.267h35.2V512.068z"/>
<path style="fill:#344A5E;" d="M173.577,512.068h43.733c0-8.533,0-17.066,0-22.4c-1.067-26.667-10.667-45.867-14.933-49.066
	c-4.267-3.2-18.133-6.4-25.6-10.667c-7.466-4.267-14.933-6.4-14.933-6.4s16,54.4,14.933,72.533
	C175.71,500.335,174.643,505.668,173.577,512.068z"/>
<g>
	<path style="fill:#415A6B;" d="M157.577,468.335c0,2.133,1.067,5.333,1.067,6.4c0,4.267,1.067,21.333,1.067,36.267h19.2
		c1.067-4.267,2.133-8.533,3.2-11.733c6.4-30.934,5.333-48,4.267-52.267l-13.867-7.467l1.067-6.4c0,0-4.267-3.2-9.6-7.467
		c-5.333-4.267-6.4-6.4-10.667-13.867c1.067,5.333,2.133,10.667,2.133,17.066C154.377,441.668,155.443,455.535,157.577,468.335z"/>
	<path style="fill:#415A6B;" d="M64.777,435.268l14.933,4.267l-4.267,7.467c0,0,30.933,21.333,53.333,36.267
		c11.733,7.467,19.2,19.2,23.467,28.8h4.267c-2.133-13.867-5.333-30.934-9.6-39.467c-7.467-14.934-44.8-52.267-53.333-58.667
		c-8.533-6.4-11.733-13.867-11.733-13.867c-3.2-1.066-7.467,2.133-11.733,7.467c-4.267,5.333-8.533,2.133-7.467,7.467
		C63.71,420.335,64.777,435.268,64.777,435.268z"/>
	<path style="fill:#415A6B;" d="M89.31,512.068c-3.2-5.333-6.4-10.667-9.6-14.934c-1.067-4.267-9.6-27.733-28.8-46.934
		c-17.067-18.133-36.267-11.733-38.4-10.667l0,0l0,0c0,0-9.6,7.467-11.733,26.667c-1.067,13.867,0,33.066,2.133,45.867
		L89.31,512.068L89.31,512.068z"/>
</g>
<path style="fill:#66C6B9;" d="M376.243,392.601c-75.733,0-136.533-61.867-136.533-136.533c0-75.733,61.867-136.533,136.533-136.533
	c75.733,0,136.533,61.867,136.533,136.533C512.777,331.801,450.91,392.601,376.243,392.601z"/>
<path style="fill:#F3F3F3;" d="M376.243,355.268c-54.4,0-99.2-44.8-99.2-99.2s44.8-99.2,99.2-99.2c54.4,0,99.2,44.8,99.2,99.2
	S430.643,355.268,376.243,355.268z"/>
<path style="fill:#66C6B9;" d="M376.243,317.935c-34.133,0-61.867-27.733-61.867-61.867c0-34.133,27.733-61.867,61.867-61.867
	c34.133,0,61.867,27.733,61.867,61.867C438.11,290.201,410.377,317.935,376.243,317.935z"/>
<circle style="fill:#F3F3F3;" cx="376.243" cy="256.068" r="25.6"/>
<g>
</g>
<g>
</g>
<g>
</g>
<g>
</g>
<g>
</g>
<g>
</g>
<g>
</g>
<g>
</g>
<g>
</g>
<g>
</g>
<g>
</g>
<g>
</g>
<g>
</g>
<g>
</g>
<g>
</g>
</svg>
