<?xml version="1.0" encoding="iso-8859-1"?>
<!-- Generator: Adobe Illustrator 19.0.0, SVG Export Plug-In . SVG Version: 6.00 Build 0)  -->
<svg version="1.1" id="Capa_1" xmlns="http://www.w3.org/2000/svg" xmlns:xlink="http://www.w3.org/1999/xlink" x="0px" y="0px"
	 viewBox="0 0 512.2 512.2" style="enable-background:new 0 0 512.2 512.2;" xml:space="preserve">
<path style="fill:#8AD7F8;" d="M217.862,98.333c0,54.4-49.067,98.133-108.8,98.133s-108.8-43.733-108.8-98.133
	S49.328,0.2,109.062,0.2C169.862,0.2,217.862,43.933,217.862,98.333z"/>
<path style="fill:#FFFFFF;" d="M118.662,127.133H98.395c0-3.2,0-4.267,0-5.333c0-6.4,1.067-11.733,3.2-16s6.4-8.533,12.8-13.867
	c6.4-5.333,10.667-8.533,11.733-10.667c2.133-2.133,3.2-5.333,3.2-8.533c0-4.267-2.133-8.533-5.333-10.667
	c-3.2-2.133-8.533-4.267-13.867-4.267c-5.333,0-10.667,2.133-13.867,5.333c-4.267,1.067-6.4,6.4-8.533,12.8L67.462,73.8
	c1.067-9.6,5.333-18.133,12.8-24.533s17.067-9.6,28.8-9.6c12.8,0,22.4,3.2,29.867,9.6s11.733,13.867,11.733,23.467
	c0,5.333-1.067,9.6-4.267,13.867c-3.2,4.267-8.533,10.667-18.133,18.133c-4.267,4.267-7.467,7.467-8.533,9.6
	C118.662,116.467,118.662,120.733,118.662,127.133z M98.395,157v-22.4h22.4V157L98.395,157L98.395,157z"/>
<polygon style="fill:#8AD7F8;" points="139.995,134.6 139.995,179.4 86.662,185.8 180.528,227.4 180.528,134.6 "/>
<path style="fill:#CED6E0;" d="M233.862,493L233.862,493h-5.333l0,0c0-10.667-8.533-19.2-19.2-19.2s-19.2,8.533-19.2,19.2l0,0
	h-5.333l0,0c0-8.533,4.267-14.933,9.6-20.267c4.267-3.2,7.467-9.6,7.467-14.933v-6.4h14.933v6.4c0,6.4,3.2,11.733,7.467,14.933
	C229.595,477,233.862,484.467,233.862,493z"/>
<circle style="fill:#344A5E;" cx="209.328" cy="493" r="19.2"/>
<path style="fill:#CED6E0;" d="M466.395,493L466.395,493h-5.333l0,0c0-10.667-8.533-19.2-19.2-19.2s-19.2,8.533-19.2,19.2l0,0h-6.4
	l0,0c0-8.533,4.267-14.933,9.6-20.267c4.267-3.2,7.467-9.6,7.467-14.933v-6.4h14.933v6.4c0,6.4,3.2,11.733,7.467,14.933
	C462.128,477,466.395,484.467,466.395,493z"/>
<g>
	<circle style="fill:#344A5E;" cx="441.862" cy="493" r="19.2"/>
	<rect x="289.328" y="329.8" style="fill:#344A5E;" width="71.467" height="34.133"/>
</g>
<rect x="299.995" y="363.933" style="fill:#415A6B;" width="49.067" height="40.533"/>
<rect x="307.462" y="404.467" style="fill:#CED6E0;" width="35.2" height="32"/>
<path style="fill:#F3705A;" d="M437.595,32.2c-9.6,22.4-22.4,60.8-18.133,114.133c0,0-35.2,68.267-10.667,146.133l28.8,2.133
	c0,0,25.6-56.533,27.733-101.333C466.395,166.6,486.662,75.933,502.662,9.8h-30.933C456.795,9.8,443.995,19.4,437.595,32.2z"/>
<path style="fill:#415A6B;" d="M511.195,25.8c3.2-11.733-4.267-24.533-16-25.6c-8.533-1.067-16,2.133-24.533,9.6
	c-3.2,17.067-7.467,33.067-11.733,49.067c-16,70.4-13.867,218.667-14.933,240c-1.067,21.333-13.867,22.4-13.867,22.4
	c19.2,0,54.4,21.333,50.133-59.733C474.928,191.133,494.128,98.333,511.195,25.8z"/>
<path style="fill:#F3705A;" d="M223.195,322.333h208v-48c-82.133-11.733-109.867-13.867-188.8-7.467
	c-24.533,2.133-44.8,18.133-54.4,39.467c-5.333,12.8,4.267,26.667,17.067,26.667h18.133L223.195,322.333L223.195,322.333z"/>
<g>
	<path style="fill:#415A6B;" d="M455.728,311.667h-233.6c-9.6,0-17.067,7.467-17.067,17.067v5.333h233.6
		c9.6,0,17.067-7.467,17.067-17.067L455.728,311.667L455.728,311.667z"/>
	<path style="fill:#415A6B;" d="M429.062,436.467H222.128c-16,0-29.867,13.867-29.867,29.867h266.667
		C458.928,449.267,445.062,436.467,429.062,436.467z"/>
</g>
<path style="fill:#344A5E;" d="M483.462,182.6c0,0-33.067-17.067-75.733-20.267c-42.667-3.2-81.067,4.267-106.667,11.733
	s-55.467,26.667-77.867,44.8c0,0,36.267,32,43.733,57.6c7.467,26.667,24.533,44.8,46.933,45.867c21.333,1.067,109.867,0,109.867,0
	s53.333-6.4,52.267-55.467S483.462,182.6,483.462,182.6z M440.795,288.2c-3.2,8.533-18.133,8.533-18.133,8.533
	s-87.467,1.067-90.667,1.067s-13.867,0-18.133-11.733c-4.267-11.733-29.867-49.067-33.067-52.267s-5.333-4.267-6.4-10.667
	c-1.067-6.4,7.467-10.667,7.467-10.667c22.4-11.733,45.867-19.2,71.467-23.467c23.467-4.267,48-3.2,71.467,1.067
	c3.2,1.067,9.6,2.133,13.867,8.533c3.2,5.333,2.133,14.933,2.133,14.933c-2.133,18.133,1.067,45.867,2.133,54.4
	C442.928,275.4,443.995,279.667,440.795,288.2z"/>
<path style="fill:#415A6B;" d="M214.662,231.667c-1.067,1.067-4.267,1.067-5.333-1.067c0-1.067,0-2.133,0-3.2
	c2.133-4.267,38.4-36.267,85.333-53.333s118.4-25.6,186.667,3.2c1.067,0,2.133,2.133,2.133,3.2l0,0c0,3.2-3.2,4.267-5.333,3.2
	c-29.867-14.933-85.333-21.333-115.2-18.133c-29.867,3.2-70.4,11.733-102.4,30.933C235.995,211.4,219.995,226.333,214.662,231.667z"
	/>
<g>
</g>
<g>
</g>
<g>
</g>
<g>
</g>
<g>
</g>
<g>
</g>
<g>
</g>
<g>
</g>
<g>
</g>
<g>
</g>
<g>
</g>
<g>
</g>
<g>
</g>
<g>
</g>
<g>
</g>
</svg>
