<?xml version="1.0" encoding="iso-8859-1"?>
<!-- Generator: Adobe Illustrator 19.0.0, SVG Export Plug-In . SVG Version: 6.00 Build 0)  -->
<svg version="1.1" id="Capa_1" xmlns="http://www.w3.org/2000/svg" xmlns:xlink="http://www.w3.org/1999/xlink" x="0px" y="0px"
	 viewBox="0 0 512 512" style="enable-background:new 0 0 512 512;" xml:space="preserve">
<path style="fill:#ADB3BA;" d="M418.667,29.867l1.067,412.8c0,16-12.8,29.867-29.867,29.867L83.733,473.6
	c-16,0-29.867-12.8-29.867-29.867L52.8,30.933c0-16,12.8-29.867,29.867-29.867L388.8,0C405.866,0,418.667,12.8,418.667,29.867z"/>
<path style="fill:#E8EAE9;" d="M458.133,68.267l1.067,412.8c0,16-12.8,29.867-29.867,29.867L123.2,512
	c-16,0-29.867-12.8-29.867-29.867l-1.067-412.8c0-16,12.8-29.867,29.867-29.867L428.266,38.4
	C445.333,39.467,458.133,52.267,458.133,68.267z"/>
<rect x="134.015" y="77.366" transform="matrix(-0.0021 -1 1 -0.0021 55.4418 320.992)" style="fill:#415A6B;" width="107.734" height="110.934"/>
<g>
	
		<rect x="134.015" y="219.745" transform="matrix(-0.0021 -1 1 -0.0021 -86.937 463.6681)" style="fill:#55C0EB;" width="107.734" height="110.934"/>
	
		<rect x="135.099" y="363.137" transform="matrix(-0.0021 -1 1 -0.0021 -229.2401 608.4477)" style="fill:#55C0EB;" width="107.734" height="110.934"/>
</g>
<g>
	<path style="fill:#F3705A;" d="M197.866,154.667c0,0,3.2-5.333,5.333-8.533c2.133-3.2,4.267-17.067,4.267-17.067l-4.267,1.067
		C203.2,130.134,197.866,150.4,197.866,154.667z"/>
	<path style="fill:#F3705A;" d="M172.266,146.134l5.333,3.2l3.2-12.8l-12.8-16C168,121.6,159.466,137.6,172.266,146.134z"/>
</g>
<path style="fill:#FFD15C;" d="M206.4,126.934l-4.267-20.267c0,0-2.133-8.533-9.6-7.467c-7.467,1.067-16,5.333-16,5.333
	l-7.467,21.333c0,0-1.067,8.533,6.4,20.267v7.467c-4.267,11.733-3.2,23.467,0,35.2h25.6c3.2-13.867,4.267-25.6,0-35.2v-6.4
	C205.333,137.6,206.4,126.934,206.4,126.934z"/>
<path style="fill:#E8EAE9;" d="M172.266,165.334l2.133,22.4h26.667l2.133-22.4C202.133,178.134,173.333,179.2,172.266,165.334z"/>
<path style="fill:#F7B64C;" d="M175.466,145.067L175.466,145.067v17.067c22.4-6.4,24.533-16,24.533-16
	C192.533,152.534,184,151.467,175.466,145.067z"/>
<g>
	<path style="fill:#66C6B9;" d="M197.866,187.734h41.6c-2.133-10.667-5.333-19.2-8.533-21.333L209.6,160
		c-2.133-2.133-7.467-7.467-8.533-7.467c0,1.067,3.2,7.467,0,19.2C200,174.934,198.933,181.334,197.866,187.734z"/>
	<path style="fill:#66C6B9;" d="M166.933,158.934l-21.333,6.4c-3.2,1.067-6.4,10.667-8.533,21.333h41.6
		c-1.067-6.4-2.133-11.733-3.2-17.067c-3.2-12.8,1.067-19.2,1.067-19.2C174.4,152.534,169.066,157.867,166.933,158.934z"/>
</g>
<path style="fill:#F3705A;" d="M194.667,101.334c0,0-5.333,7.467-12.8,14.933c-7.467,7.467-11.733,8.533-12.8,10.667
	c-1.067,2.133,0,13.867,6.4,20.267c2.133,3.2,4.267,6.4,4.267,10.667v1.067c0,0-9.6-4.267-13.867-18.133
	c-4.267-13.867-5.333-26.667-1.067-38.4s21.333-18.133,29.867-13.867c8.533,4.267,14.933,14.933,16,22.4s1.067,14.933,1.067,20.267
	c0,4.267-1.067,9.6-7.467,21.333C201.066,156.8,200,166.4,200,166.4s-2.133-5.333-2.133-10.667c2.133-8.533,5.333-12.8,6.4-20.267
	c1.067-8.533-3.2-25.6-5.333-29.867C196.8,101.334,194.667,101.334,194.667,101.334z"/>
<path style="fill:#344A5E;" d="M224.533,329.6c-2.133-4.267-4.267-6.4-4.267-6.4l-3.2-12.8c0,0,12.8,3.2,17.067,14.933
	c1.067,1.067,1.067,2.133,1.067,4.267L224.533,329.6z"/>
<path style="fill:#FFD15C;" d="M182.933,280.534l1.067,3.2v8.533l26.667,20.267c0,0,1.067-6.4,1.067-8.533
	c0-2.133,0-2.133,2.133-2.133c2.133-1.067,4.267-3.2,5.333-5.333c1.067-2.133,3.2-4.267,4.267-6.4c1.067-1.067,3.2-10.667,3.2-16
	c0-4.267,0-6.4,0-8.533c0-2.133,0-2.133,0-2.133s1.067-12.8-2.133-20.267c-3.2-6.4-32-6.4-37.333,2.133
	C184,253.867,181.866,272,182.933,280.534z"/>
<path style="fill:#415A6B;" d="M182.933,243.2c0,0,4.267-12.8,25.6-14.933C228.8,226.133,232,242.133,228.8,245.334
	c0,0,3.2,3.2,2.133,9.6c-1.067,5.333-2.133,7.467-2.133,8.533c0-1.067,0-3.2-1.067-6.4c-1.067-5.333-4.267-10.667-4.267-10.667
	s-4.267,0-12.8-1.067c-8.533-1.067-13.867,0-13.867,3.2c0,3.2,2.133,5.333,0,8.533c-2.133,3.2-3.2,4.267-3.2,11.733
	c0,4.267,0,6.4,0,6.4h-2.133c0-2.133,0-5.333-2.133-7.467c-2.133-2.133-4.267,0-4.267,3.2s1.067,12.8,1.067,12.8
	s-2.133-1.067-3.2-7.467C180.8,269.867,177.6,259.2,182.933,243.2z"/>
<ellipse transform="matrix(0.2494 0.9684 -0.9684 0.2494 405.0729 25.6523)" style="fill:#FFD15C;" cx="185.989" cy="274.132" rx="7.467" ry="4.267"/>
<path style="fill:#F7B64C;" d="M217.066,329.6h-11.733c-7.467-6.4-10.667-13.867-7.467-27.733c-4.267-7.467-6.4-14.933-6.4-14.933
	c13.867,16,21.333,14.933,23.467,13.867c-2.133,1.067-1.067,1.067-2.133,2.133c-1.067,1.067-1.067,8.533-1.067,8.533
	C219.2,318.934,220.266,324.267,217.066,329.6z"/>
<path style="fill:#CED6E0;" d="M188.266,329.6l-2.133-9.6l22.4-11.733l4.267,3.2l9.6,13.867c0,0,1.067,1.067,2.133,3.2
	L188.266,329.6z"/>
<path style="fill:#415A6B;" d="M227.733,329.6h-6.4c-2.133-3.2-3.2-6.4-3.2-8.533C216,316.8,216,315.734,216,315.734l2.133-3.2
	l8.533,9.6l-1.067,4.267C224.533,326.4,226.667,328.534,227.733,329.6z"/>
<path style="fill:#344A5E;" d="M170.133,329.6c-1.067-2.133-1.067-4.267-2.133-5.333c-4.267-8.533-10.667-13.867-16-13.867
	c-5.333,0-9.6,2.133-9.6,2.133s2.133-3.2,13.867-6.4c12.8-3.2,19.2-6.4,19.2-6.4l4.267-1.067l16,18.133l3.2,11.733L170.133,329.6z"
	/>
<g>
	<path style="fill:#F3F3F3;" d="M179.733,298.667c0,0,12.8,16,16,18.133c3.2,3.2,8.533,7.467,8.533,7.467
		c0-3.2,4.267-17.067,4.267-17.067s-14.933-9.6-19.2-12.8c-4.267-3.2-5.333-5.333-5.333-5.333
		C181.866,292.267,179.733,298.667,179.733,298.667z"/>
	<path style="fill:#F3F3F3;" d="M212.8,304c0,0-2.133,7.467-2.133,11.733s2.133,5.333,2.133,5.333l3.2,5.333c0,0,0-3.2,0-6.4
		c1.067-3.2,3.2-5.333,2.133-8.533c-1.067-2.133-2.133-3.2-2.133-4.267C214.933,306.134,213.866,302.934,212.8,304z"/>
</g>
<path style="fill:#415A6B;" d="M189.333,329.6L189.333,329.6l2.133-6.4l-8.533-4.267c0,0-4.267-11.733-6.4-14.933s0-5.333,2.133-6.4
	c2.133-1.067,1.067-4.267,4.267-4.267c0,0,0,1.067,1.067,3.2c1.067,2.133,12.8,17.067,19.2,34.133L189.333,329.6z"/>
<path style="fill:#344A5E;" d="M132.8,329.6c1.067-6.4,3.2-13.867,8.533-17.067l0,0l0,0c0,0,4.267-2.133,9.6-2.133
	s11.733,5.333,16,13.867c1.067,2.133,1.067,3.2,2.133,5.333L132.8,329.6z"/>
<g>
	<path style="fill:#FFD15C;" d="M168,410.667c1.067,3.2,0,6.4-1.067,6.4c-2.133,0-4.267-3.2-5.333-6.4c-1.067-3.2,0-6.4,1.067-6.4
		C164.8,404.267,166.933,407.467,168,410.667z"/>
	<path style="fill:#FFD15C;" d="M196.8,398.934v4.267c0,0,3.2,17.066-3.2,25.6v17.066h-17.067c-3.2-3.2-5.333-4.267-7.467-7.467
		v-10.667c0,0-1.067-9.6-1.067-11.733c0-2.133,0-4.267,0-4.267s-4.267-11.733-2.133-18.133c2.133-6.4,16-13.867,21.333-11.733
		C191.466,384,196.8,389.334,196.8,398.934z"/>
</g>
<path style="fill:#415A6B;" d="M166.933,410.667c0,0-1.067-3.2,0-5.333c1.067-2.133,2.133-6.4,2.133-9.6
	c0-4.267,0-5.333,2.133-7.467c2.133-1.066,7.467-2.133,10.667-1.066c3.2,1.066,6.4-1.066,8.533,0
	c2.133,1.066,4.267,2.133,4.267,5.333c0,2.133,1.067,6.4,1.067,8.533c0,1.066,0,2.133,0,2.133s3.2-14.934-5.333-22.4
	c-7.467-7.467-18.133-4.267-23.467,0c-5.333,3.2-7.467,8.533-7.467,11.733c0,2.133,1.067,10.667,3.2,14.934
	C163.733,406.4,163.733,406.4,166.933,410.667L166.933,410.667z"/>
<path style="fill:#F7B64C;" d="M192.533,427.733c0,0-4.267,4.267-9.6,4.267c-6.4,0-13.867-6.4-16-10.667c0,0,3.2,10.667,9.6,17.066
	c3.2,3.2,8.533,5.333,13.867,7.467h2.133V427.733z"/>
<polygon style="fill:#CED6E0;" points="202.133,472.534 196.8,442.667 187.2,441.601 186.133,441.601 181.866,442.667 
	178.667,443.733 186.133,472.534 "/>
<g>
	<polygon style="fill:#F3705A;" points="190.4,451.2 194.667,454.4 198.933,472.534 188.266,472.534 187.2,453.334 	"/>
	<path style="fill:#F3705A;" d="M182.933,450.134l4.267,5.333c0,0,3.2-3.2,7.467-1.066c0,0-3.2-11.733-2.133-11.733l-4.267-1.066
		h-2.133C185.066,441.601,182.933,446.934,182.933,450.134z"/>
</g>
<g>
	<path style="fill:#F3F3F3;" d="M166.933,426.667c0,0,0,2.133,3.2,4.267s7.467,4.267,10.667,7.467c3.2,2.133,4.267,3.2,4.267,3.2
		l-4.267,12.8l-18.133-18.133C163.733,436.267,164.8,430.934,166.933,426.667z"/>
	<path style="fill:#F3F3F3;" d="M192.533,430.934c0,0,0,4.267-1.067,6.4c-1.067,2.133-4.267,4.267-4.267,4.267s3.2,3.2,4.267,5.333
		c1.067,3.2,3.2,5.333,3.2,5.333l1.067-11.733C195.733,440.534,193.6,434.134,192.533,430.934z"/>
</g>
<g>
	<path style="fill:#344A5E;" d="M154.133,449.067c7.467,7.467,10.667,17.066,11.733,19.2c0,0,0,2.133,0,4.267h28.8
		c-2.133-5.333-5.333-11.733-11.733-17.066c-11.733-9.6-22.4-20.267-22.4-20.267s-2.133,1.066-7.467,3.2
		c-5.333,2.133-12.8,6.4-13.867,7.467C138.133,445.867,145.6,441.601,154.133,449.067z"/>
	<path style="fill:#344A5E;" d="M227.733,472.534c-1.067-3.2-3.2-8.533-4.267-11.733c-1.067-3.2-3.2-8.533-5.333-11.733
		c-2.133-3.2-4.267-3.2-4.267-3.2l-1.067,1.066c0,0,1.067,13.867,2.133,25.6L227.733,472.534z"/>
	<path style="fill:#344A5E;" d="M202.133,472.534H219.2c0-3.2,0-5.333,0-7.467c0-10.667-4.267-18.133-6.4-19.2
		c-2.133-1.066-7.467-2.133-9.6-4.267c-3.2-2.133-6.4-2.133-6.4-2.133s6.4,21.333,6.4,28.8
		C203.2,469.334,203.2,470.4,202.133,472.534z"/>
</g>
<g>
	<path style="fill:#415A6B;" d="M195.733,456.534c0,1.066,0,2.133,0,3.2c0,2.133,0,7.467,0,12.8h7.467
		c0-1.066,1.067-2.133,1.067-3.2c2.133-11.733,2.133-19.2,1.067-21.333L200,444.8v-2.133c0,0-2.133-1.066-4.267-3.2
		c-2.133-1.066-2.133-2.133-4.267-5.333c1.067,2.133,1.067,4.267,1.067,6.4C194.667,445.867,194.667,451.2,195.733,456.534z"/>
	<path style="fill:#415A6B;" d="M164.8,445.867l-2.133,3.2c0,0,12.8,8.533,21.333,13.867c4.267,2.133,6.4,6.4,8.533,9.6h2.133
		c-1.067-5.333-2.133-10.667-3.2-13.867c-3.2-5.333-18.133-20.267-21.333-23.467c-3.2-3.2-4.267-5.333-4.267-5.333
		c-1.067,0-3.2,1.066-4.267,3.2c-2.133,2.133-3.2,1.066-3.2,3.2c0,2.133,1.067,7.467,1.067,7.467L164.8,445.867z"/>
</g>
<path style="fill:#344A5E;" d="M168,472.534c-1.067-1.066-2.133-3.2-3.2-4.267c0-2.133-3.2-10.667-11.733-19.2
	C145.6,441.6,139.2,444.8,138.133,444.8l0,0l0,0c0,0-4.267,3.2-4.267,10.667c0,5.333,0,11.733,1.067,17.066L168,472.534z"/>
<g>
	<path style="fill:#ADB3BA;" d="M386.667,169.6h-60.8c-4.267,0-7.467-3.2-7.467-7.467v-58.667c0-4.267,3.2-7.467,7.467-7.467h60.8
		c4.267,0,7.467,3.2,7.467,7.467v58.667C394.133,166.4,390.933,169.6,386.667,169.6z M333.333,154.667h46.933v-43.733h-46.933
		V154.667z"/>
	<path style="fill:#ADB3BA;" d="M387.733,312.534h-60.8c-4.267,0-7.467-3.2-7.467-7.467V246.4c0-4.267,3.2-7.467,7.467-7.467h60.8
		c4.267,0,7.467,3.2,7.467,7.467v58.667C394.133,309.334,390.933,312.534,387.733,312.534z M333.333,297.6h46.933v-43.733h-46.933
		V297.6z"/>
	<path style="fill:#ADB3BA;" d="M387.733,454.4h-60.8c-4.267,0-7.467-3.2-7.467-7.467v-58.667c0-4.267,3.2-7.467,7.467-7.467h60.8
		c4.267,0,7.467,3.2,7.467,7.467v58.667C395.2,451.2,392,454.4,387.733,454.4z M333.333,440.534h46.933V396.8h-46.933V440.534z"/>
</g>
<g>
	<path style="fill:#F3705A;" d="M342.933,168.534c-3.2,0-6.4-1.067-8.533-3.2l-26.667-26.667c-5.333-4.267-5.333-12.8,0-17.067
		c4.267-5.333,12.8-5.333,17.067,0l17.067,17.067l48-49.067c4.267-5.333,12.8-5.333,17.067,0c4.267,5.333,5.333,12.8,0,17.067
		l-56.533,57.6C349.333,167.467,346.133,168.534,342.933,168.534z"/>
	<path style="fill:#F3705A;" d="M342.933,309.334c-3.2,0-6.4-1.067-8.533-3.2l-26.667-26.667c-5.333-4.267-5.333-12.8,0-17.067
		c4.267-5.333,12.8-5.333,17.067,0l17.067,17.067l48-49.067c4.267-5.333,12.8-5.333,17.067,0c5.333,4.267,5.333,12.8,0,17.067
		l-56.533,57.6C349.333,308.267,346.133,309.334,342.933,309.334z"/>
</g>
<g>
</g>
<g>
</g>
<g>
</g>
<g>
</g>
<g>
</g>
<g>
</g>
<g>
</g>
<g>
</g>
<g>
</g>
<g>
</g>
<g>
</g>
<g>
</g>
<g>
</g>
<g>
</g>
<g>
</g>
</svg>
