<?xml version="1.0" encoding="iso-8859-1"?>
<!-- Generator: Adobe Illustrator 19.0.0, SVG Export Plug-In . SVG Version: 6.00 Build 0)  -->
<svg version="1.1" id="Capa_1" xmlns="http://www.w3.org/2000/svg" xmlns:xlink="http://www.w3.org/1999/xlink" x="0px" y="0px"
	 viewBox="0 0 511.983 511.983" style="enable-background:new 0 0 511.983 511.983;" xml:space="preserve">
<path style="fill:#F7B64C;" d="M225.058,92.783v45.867c0,0,0,4.267,13.867,11.733c13.867,7.467,17.067,9.6,17.067,9.6
	s3.2-2.133,17.067-9.6c13.867-7.467,13.867-11.733,13.867-11.733V92.783H225.058z"/>
<g>
	<path style="fill:#FFD15C;" d="M293.325,39.45c-3.2-12.8-10.667-9.6-19.2-12.8c-2.133,0-5.333-1.067-7.467-1.067
		c-7.467-1.067-13.867-1.067-21.333,1.067l0,0c-4.267-2.133-7.467-3.2-11.733-3.2c-10.667,2.133-14.933,8.533-16,24.533
		c0,3.2,0,6.4-1.067,9.6c0,1.067,1.067,1.067,1.067,2.133c-4.267,7.467-5.333,16-5.333,25.6c0,32,20.267,57.6,44.8,57.6
		s44.8-25.6,44.8-57.6c0-8.533-1.067-16-3.2-22.4C296.525,58.65,294.392,44.783,293.325,39.45z"/>
	
		<ellipse transform="matrix(0.1455 -0.9894 0.9894 0.1455 171.6353 369.5413)" style="fill:#FFD15C;" cx="299.748" cy="85.41" rx="16.001" ry="7.467"/>
	
		<ellipse transform="matrix(0.1455 0.9894 -0.9894 0.1455 265.3429 -135.7262)" style="fill:#FFD15C;" cx="211.244" cy="85.746" rx="16.001" ry="7.467"/>
</g>
<path style="fill:#415A6B;" d="M214.392,97.05l3.2-1.067c0,0-4.267-8.533,0-20.267s3.2-11.733,4.267-18.133
	c0-14.933,18.133-32,59.733-23.467c8.533,2.133,12.8,13.867,11.733,19.2s1.067,16,2.133,21.333c1.067,5.333,0,21.333,0,21.333
	l2.133-1.067c0,0,0-10.667,3.2-17.067c3.2-5.333,4.267-12.8,4.267-27.733c0,0,2.133-38.4-21.333-45.867
	c-51.2-14.933-72.533,12.8-75.733,32c-1.067,8.533,1.067,36.267,4.267,41.6C212.258,82.116,214.392,97.05,214.392,97.05z"/>
<path style="fill:#CED6E0;" d="M317.858,236.783V186.65c0-16-12.8-29.867-29.867-29.867h-64c-16,0-29.867,12.8-29.867,29.867v50.133
	H317.858z"/>
<g>
	<polygon style="fill:#F3705A;" points="271.992,236.783 265.592,187.716 246.392,187.716 239.992,236.783 	"/>
	<polygon style="fill:#F3705A;" points="265.592,187.716 276.258,177.05 255.992,156.783 235.725,177.05 246.392,187.716 	"/>
</g>
<path style="fill:#344A5E;" d="M383.992,236.783l-11.733-52.267c-2.133-9.6-9.6-17.067-20.267-19.2l-51.2-9.6l-16,81.067H383.992z"
	/>
<path style="fill:#F3F3F3;" d="M286.925,135.45c0,0,0,4.267-13.867,11.733s-17.067,9.6-17.067,9.6l29.867,28.8
	c0,0,11.733-28.8,11.733-29.867C297.592,154.65,289.058,141.85,286.925,135.45z"/>
<path style="fill:#415A6B;" d="M303.992,236.783c7.467-23.467,18.133-54.4,18.133-54.4l-14.933-7.467l9.6-3.2
	c0,0-8.533-12.8-16-17.067s-7.467-9.6-11.733-12.8c0,0-1.067,13.867-2.133,22.4c-1.067,7.467-9.6,51.2-12.8,72.533H303.992z"/>
<path style="fill:#344A5E;" d="M227.192,236.783l-16-81.067l-51.2,9.6c-9.6,2.133-17.067,9.6-20.267,19.2l-11.733,52.267H227.192z"
	/>
<path style="fill:#F3F3F3;" d="M225.058,135.45c0,0,0,4.267,13.867,11.733c13.867,7.467,17.067,9.6,17.067,9.6l-29.867,28.8
	c0,0-11.733-28.8-11.733-29.867C214.392,154.65,222.925,141.85,225.058,135.45z"/>
<path style="fill:#415A6B;" d="M207.992,236.783h29.867c-3.2-21.333-11.733-65.067-12.8-72.533c-1.067-8.533-2.133-22.4-2.133-22.4
	c-4.267,3.2-4.267,8.533-11.733,12.8s-16,17.067-16,17.067l9.6,3.2l-14.933,7.467C189.858,182.383,199.458,213.316,207.992,236.783z
	"/>
<path style="fill:#E8EAE9;" d="M408.525,236.783H103.458c-9.6,0-18.133,7.467-18.133,18.133c0,9.6,7.467,18.133,18.133,18.133
	h305.067c9.6,0,18.133-7.467,18.133-18.133C426.658,244.25,418.125,236.783,408.525,236.783z"/>
<rect x="122.658" y="271.983" style="fill:#CED6E0;" width="267.733" height="240"/>
<rect x="172.792" y="317.85" style="fill:#E8EAE9;" width="167.467" height="194.133"/>
<g>
	<path style="fill:#344A5E;" d="M221.858,511.983c1.067-14.933,2.133-28.8,2.133-32c-1.067-9.6-2.133-28.8-9.6-40.533
		c-6.4-11.733-16-11.733-16-11.733l-11.733,23.467l-4.267,60.8H221.858z"/>
	<path style="fill:#344A5E;" d="M53.325,511.983l-5.333-60.8l-11.733-23.467c0,0-9.6,0-16,11.733c-6.4,11.733-8.533,32-9.6,40.533
		c0,3.2,0,17.067,2.133,32L53.325,511.983L53.325,511.983z"/>
</g>
<path style="fill:#415A6B;" d="M20.258,511.983h194.133c1.067-6.4,2.133-10.667,2.133-10.667c5.333-25.6-13.867-73.6-18.133-73.6
	l-37.333-16l-43.733-5.333l-44.8,5.333l-37.333,16c-3.2-1.067-22.4,48-17.067,73.6C18.125,501.316,19.192,505.583,20.258,511.983z"
	/>
<path style="fill:#F05540;" d="M91.725,488.516c5.333,7.467,11.733,21.333,11.733,21.333c-2.133-9.6,0-16,0-16
	c3.2,11.733,35.2,18.133,35.2,18.133c1.067-16,8.533-38.4,8.533-38.4c-3.2,11.733,0,38.4,0,38.4s0-10.667,2.133-24.533
	s9.6-22.4,9.6-22.4c-5.333,12.8-5.333,25.6-5.333,25.6c5.333-21.333,16-21.333,20.267-41.6s-2.133-68.267-2.133-81.067
	c0-13.867-8.533-50.133-23.467-67.2c-16-17.067-37.333-14.933-37.333-14.933c-37.333,0-46.933,52.267-46.933,66.133s1.067,48,0,64
	c-2.133,16,5.333,36.267,9.6,48C74.658,475.716,86.392,482.116,91.725,488.516z"/>
<g>
	<path style="fill:#4ABAA5;" d="M499.192,511.983c1.067-14.933,2.133-28.8,2.133-32c-1.067-9.6-2.133-28.8-9.6-40.533
		c-6.4-11.733-16-11.733-16-11.733l-11.733,23.467l-5.333,60.8H499.192z"/>
	<path style="fill:#4ABAA5;" d="M329.592,511.983l-5.333-60.8l-11.733-23.467c0,0-9.6,0-16,11.733c-6.4,11.733-8.533,32-9.6,40.533
		c0,3.2,0,17.067,2.133,32L329.592,511.983L329.592,511.983z"/>
</g>
<path style="fill:#66C6B9;" d="M297.592,511.983h194.133c1.067-6.4,2.133-10.667,2.133-10.667c5.333-25.6-13.867-73.6-18.133-73.6
	l-37.333-16l-43.733-5.333l-44.8,5.333l-37.333,16c-4.267,0-23.467,49.067-18.133,73.6
	C295.458,501.316,296.525,505.583,297.592,511.983z"/>
<path style="fill:#415A6B;" d="M369.058,488.516c5.333,7.467,11.733,21.333,11.733,21.333c-2.133-9.6,0-16,0-16
	c3.2,11.733,35.2,18.133,35.2,18.133c1.067-16,8.533-38.4,8.533-38.4c-3.2,11.733,0,38.4,0,38.4s0-10.667,2.133-24.533
	s9.6-22.4,9.6-22.4c-5.333,12.8-5.333,25.6-5.333,25.6c5.333-21.333,16-21.333,20.267-41.6c4.267-20.267-2.133-68.267-2.133-81.067
	c0-13.867-8.533-50.133-23.467-67.2c-16-17.067-37.333-14.933-37.333-14.933c-37.333,0-46.933,52.267-46.933,66.133s1.067,48,0,64
	c-2.133,16,5.333,36.267,9.6,48C351.992,475.716,363.725,482.116,369.058,488.516z"/>
<g>
</g>
<g>
</g>
<g>
</g>
<g>
</g>
<g>
</g>
<g>
</g>
<g>
</g>
<g>
</g>
<g>
</g>
<g>
</g>
<g>
</g>
<g>
</g>
<g>
</g>
<g>
</g>
<g>
</g>
</svg>
