<?xml version="1.0" encoding="iso-8859-1"?>
<!-- Generator: Adobe Illustrator 19.0.0, SVG Export Plug-In . SVG Version: 6.00 Build 0)  -->
<svg version="1.1" id="Capa_1" xmlns="http://www.w3.org/2000/svg" xmlns:xlink="http://www.w3.org/1999/xlink" x="0px" y="0px"
	 viewBox="0 0 512 512" style="enable-background:new 0 0 512 512;" xml:space="preserve">
<path style="fill:#F3F3F3;" d="M487.466,50.666v294.4c0,17.067-13.867,32-32,32H56.533c-17.067,0-32-13.867-32-32v-294.4
	L487.466,50.666L487.466,50.666z"/>
<rect x="94.933" y="265.066" style="fill:#415A6B;" width="52.267" height="69.333"/>
<rect x="188.8" y="114.666" style="fill:#8AD7F8;" width="52.267" height="219.733"/>
<rect x="281.6" y="204.266" style="fill:#66C6B9;" width="52.267" height="130.133"/>
<rect x="375.466" y="93.333" style="fill:#F3705A;" width="52.267" height="241.067"/>
<path style="fill:#344A5E;" d="M312.533,379.199c0,0-32,5.333-46.933,33.066c-11.733,21.333-7.467,48-7.467,48
	s41.6-50.133,42.667-51.2C300.8,408,312.533,379.199,312.533,379.199z"/>
<path style="fill:#FFD15C;" d="M403.2,316.266l-4.267,7.467l-3.2,20.267L323.2,386.667c0,0,1.067-17.067,0-20.267
	c-1.067-4.267,0-4.267-4.267-6.4c-4.267-2.133-9.6-10.667-11.733-14.933c-2.133-5.333-5.333-12.8-7.467-17.067
	c-2.133-4.267-5.333-27.733-3.2-39.467c2.133-10.667,1.067-16,1.067-20.267s1.067-6.4,1.067-6.4s2.133-33.067,11.733-48
	c9.6-16,82.133-5.333,90.667,16C409.6,249.066,408.533,294.933,403.2,316.266z"/>
<path style="fill:#415A6B;" d="M416,223.466c0,0-6.4-33.067-57.6-44.8c-49.067-11.733-61.867,27.733-54.4,36.267
	c0,0-8.533,8.533-8.533,23.467c0,13.867,2.133,19.2,2.133,21.333c0-2.133,1.067-7.467,4.267-17.067
	c3.2-12.8,12.8-24.533,12.8-24.533s10.667,2.133,32,1.067c21.333-1.067,34.133,4.267,33.067,12.8
	c-1.067,8.533-6.4,12.8-2.133,21.333c3.2,8.533,7.467,12.8,5.333,30.933c-1.067,11.733-1.067,16-1.067,17.067l6.4,1.067
	c1.067-4.267,3.2-13.867,7.467-18.133c5.333-5.333,9.6,1.067,9.6,8.533c0,7.467-5.333,30.933-5.333,30.933s5.333-3.2,9.6-18.133
	C413.866,290.666,424.533,264,416,223.466z"/>
<ellipse transform="matrix(0.3638 -0.9315 0.9315 0.3638 -24.3482 560.0256)" style="fill:#FFD15C;" cx="397.796" cy="297.837" rx="19.2" ry="10.667"/>
<path style="fill:#F7B64C;" d="M379.733,331.2c-39.467,36.267-58.667,29.867-60.8,28.8c4.267,2.133,3.2,3.2,4.267,6.4
	c1.067,4.267,0,20.267,0,20.267c-25.6,13.867-27.733,32-10.667,53.333c33.067-10.667,54.4-30.934,46.933-74.667
	C372.266,346.133,379.733,331.2,379.733,331.2z"/>
<path style="fill:#CED6E0;" d="M353.066,509.333l29.867-97.066l-51.2-35.2l-10.667,8.533l-27.733,30.934
	c0,0-34.133,52.267-44.8,91.733c0,1.066,0,1.066-1.067,2.133h105.6V509.333z"/>
<path style="fill:#344A5E;" d="M260.266,509.333c9.6-32,19.2-60.8,19.2-60.8l-11.733,2.133l-17.067,58.667H260.266z"/>
<path style="fill:#415A6B;" d="M256,509.333c3.2-13.867,7.467-25.6,9.6-32c6.4-14.934,34.133-61.867,40.533-71.467
	c6.4-10.667,7.467-11.733,7.467-11.733l-3.2-8.533l-23.467,21.333l2.133,10.667c0,0-12.8,8.533-18.133,10.667
	c0,0-13.867,20.267-21.333,48c-2.133,7.467-4.267,19.2-7.467,34.133H256V509.333z"/>
<path style="fill:#344A5E;" d="M409.6,509.333c-1.067-6.4-2.133-11.733-2.133-13.867c0-14.934,7.467-49.066,20.267-68.267
	c12.8-19.2,29.867-30.934,43.733-27.733c12.8,2.133,23.467,8.533,23.467,8.533s-4.267-8.533-33.067-19.2
	C432,378.133,416,366.4,416,366.4l-10.667-3.2l-44.8,40.534l-38.4,104.533H409.6V509.333z"/>
<g>
	<path style="fill:#F3F3F3;" d="M405.333,361.066c0,0-36.267,34.133-45.867,40.534c-9.6,6.4-24.533,17.066-24.533,17.066
		C336,412.266,329.6,376,329.6,376s38.4-20.267,51.2-26.667c11.733-6.4,14.933-10.667,14.933-10.667
		C403.2,342.933,405.333,361.066,405.333,361.066z"/>
	<path style="fill:#F3F3F3;" d="M322.133,363.2c1.067,0,2.133,19.2,1.067,29.867c-2.133,11.733-6.4,13.867-6.4,13.867
		s0-6.4-1.067-13.867c0-1.066-1.067-1.066-1.067,0c0,5.333-1.067,11.733-3.2,16c-3.2,8.533-3.2,8.533-3.2,8.533
		s2.133-7.467,1.067-14.934s-5.333-14.934-1.067-20.267c3.2-6.4,5.333-7.467,7.467-10.667C316.8,368.533,320,360,322.133,363.2z"/>
</g>
<g>
	<path style="fill:#415A6B;" d="M331.733,509.333c7.467-23.467,17.067-44.8,43.733-75.733l-5.333-16l23.467-8.533
		c0,0,13.867-27.733,20.267-35.2s0-13.867-4.267-18.133c-5.333-4.267-1.067-10.667-8.533-11.733c0,0,0,3.2-4.267,8.533
		c-3.2,5.333-39.467,40.534-57.6,81.067c-16,34.133-24.533,45.867-30.933,76.8h23.466V509.333z"/>
	<path style="fill:#415A6B;" d="M510.933,509.333c0-8.533,0-14.934,0-18.133c-1.067-16,8.533-66.133-16-84.267l0,0l0,0
		c-1.067,0-10.667-6.4-23.467-8.533s-30.933,8.533-43.733,27.733c-12.8,19.2-20.267,53.333-20.267,68.267c0,0,0,5.333-1.067,13.867
		h104.534V509.333z"/>
</g>
<path style="fill:#66C6B9;" d="M487.466,1.6H24.533C10.667,1.6,0,12.266,0,26.133s10.667,24.533,24.533,24.533h462.933
	C501.333,50.666,512,40,512,26.133S501.333,1.6,487.466,1.6z"/>
<g>
</g>
<g>
</g>
<g>
</g>
<g>
</g>
<g>
</g>
<g>
</g>
<g>
</g>
<g>
</g>
<g>
</g>
<g>
</g>
<g>
</g>
<g>
</g>
<g>
</g>
<g>
</g>
<g>
</g>
</svg>
