<?xml version="1.0" encoding="iso-8859-1"?>
<!-- Generator: Adobe Illustrator 19.0.0, SVG Export Plug-In . SVG Version: 6.00 Build 0)  -->
<svg version="1.1" id="Capa_1" xmlns="http://www.w3.org/2000/svg" xmlns:xlink="http://www.w3.org/1999/xlink" x="0px" y="0px"
	 viewBox="0 0 513.067 513.067" style="enable-background:new 0 0 513.067 513.067;" xml:space="preserve">
<g>
	<path style="fill:#415A6B;" d="M79.467,462.933c-2.133-22.4-1.067-44.8,5.333-66.133c0,0-4.267-14.933-7.467-25.6
		c-9.6-24.533-12.8-51.2-10.667-76.8h-5.333c-7.467-7.467-4.267,56.533-12.8,85.333C44.267,394.667,24,422.4,24,442.667
		c0,7.467,2.133,13.867,4.267,20.267H79.467z"/>
	<path style="fill:#415A6B;" d="M160.533,462.933h51.2c3.2-6.4,4.267-13.867,4.267-20.267c0-20.267-20.267-46.933-24.533-62.933
		c-7.467-28.8-5.333-92.8-12.8-85.333h-5.333c2.133,26.667-2.133,52.267-10.667,76.8c-4.267,10.667-7.467,25.6-7.467,25.6
		C162.667,418.133,163.733,440.533,160.533,462.933z"/>
	<ellipse style="fill:#415A6B;" cx="142.4" cy="400" rx="26.667" ry="29.867"/>
	<path style="fill:#415A6B;" d="M56,308.267c0,0,5.333,73.6-11.733,112c-17.067,39.467-21.333,49.067-22.4,49.067
		c-1.067,0,42.667-12.8,42.667-12.8l39.467-54.4l1.067-51.2L56,308.267"/>
</g>
<path style="fill:#F7B64C;" d="M88,512h65.067c2.133-4.267,3.2-10.667,3.2-16c12.8-21.333,7.467-54.4,0-89.6v-51.2H84.8v50.133
	c-20.267,26.667-16,57.6,0,89.6C84.8,501.333,85.867,507.733,88,512z"/>
<path style="fill:#E8EAE9;" d="M166.933,512l-7.467-72.533C152,453.333,131.733,462.933,120,462.933s-32-9.6-39.467-23.467
	L74.133,512H166.933z"/>
<g>
	<path style="fill:#4ABAA5;" d="M89.067,512l-18.133-86.4l8.533-9.6l-35.2,8.533c-21.333,6.4-37.333,24.533-39.467,46.933
		C3.733,484.267,1.6,499.2,0.533,512H89.067z"/>
	<path style="fill:#4ABAA5;" d="M152,512h88.533c-1.067-12.8-3.2-27.733-4.267-41.6c-2.133-22.4-18.133-40.533-39.467-46.933
		l-35.2-8.533l8.533,9.6L152,512z"/>
</g>
<path style="fill:#415A6B;" d="M185.067,308.267c0,36.267-28.8,65.067-65.067,65.067s-65.067-28.8-65.067-65.067
	S83.733,243.2,120,243.2S185.067,272,185.067,308.267z"/>
<g>
	<path style="fill:#66C6B9;" d="M75.2,512h26.667C91.2,473.6,83.733,437.333,84.8,405.333L54.933,441.6l-1.067,1.067l19.2,10.667
		l-19.2,11.733L75.2,512z"/>
	<path style="fill:#66C6B9;" d="M165.867,512l21.333-46.933L168,453.333l19.2-10.667l-1.067-1.067l-29.867-36.267
		c1.067,29.867-6.4,67.2-17.067,106.667H165.867z"/>
</g>
<g>
	
		<ellipse transform="matrix(0.2365 -0.9716 0.9716 0.2365 -6.5605 676.5867)" style="fill:#FFD15C;" cx="427.236" cy="342.468" rx="17.066" ry="7.466"/>
	
		<ellipse transform="matrix(0.2365 0.9716 -0.9716 0.2365 585.9326 -59.7309)" style="fill:#FFD15C;" cx="330.973" cy="342.967" rx="17.066" ry="7.466"/>
	<path style="fill:#FFD15C;" d="M427.2,316.8l-1.067,14.933c0,0-1.067,36.267-8.533,51.2v53.333h-72.533l-3.2-48
		c0,0-9.6-29.867-8.533-53.333c0,0-6.4-24.533-4.267-39.467s26.667-33.067,45.867-35.2C394.133,258.133,433.6,259.2,427.2,316.8z"/>
</g>
<path style="fill:#415A6B;" d="M425.067,334.933c0,0,1.067-16,0-23.467s-5.333-23.467-12.8-29.867s-21.333-12.8-38.4-9.6
	S350.4,277.333,344,285.867s-9.6,43.733-9.6,45.867h-1.067c0,0-3.2-7.467-6.4-23.467s-1.067-38.4,11.733-54.4
	c12.8-16,88.533-20.267,93.867,21.333c3.2,24.533-3.2,42.667-4.267,48C427.2,328.533,425.067,334.933,425.067,334.933z"/>
<path style="fill:#F7B64C;" d="M370.667,406.4c-22.4-5.333-28.8-19.2-28.8-19.2c0,1.067,0,1.067,0,1.067L344,432
	c16-2.133,33.067-5.333,44.8-11.733c24.533-12.8,28.8-36.267,28.8-36.267C413.333,392.533,393.067,411.733,370.667,406.4z"/>
<polygon style="fill:#CED6E0;" points="417.6,512 430.4,437.333 380.267,437.333 320.533,444.8 333.333,512 "/>
<g>
	<path style="fill:#344A5E;" d="M345.067,512c-8.533-30.933-13.867-67.2-13.867-67.2l-4.267-14.933c0,0-24.533,11.733-45.867,21.333
		c-18.133,8.533-28.8,26.667-28.8,45.867V512H345.067z"/>
	<path style="fill:#344A5E;" d="M512.533,512v-19.2c0-20.267-12.8-39.467-32-46.933c-21.333-8.533-41.6-18.133-41.6-18.133
		c-9.6,17.067-13.867,58.667-13.867,85.333L512.533,512z"/>
</g>
<path style="fill:#F05540;" d="M400.533,512c-2.133-6.4-13.867-36.267-13.867-39.467c0-3.2,0-10.667,0-10.667L376,459.733
	l-2.133,12.8c0,0-11.733,34.133-12.8,39.467H400.533z"/>
<path style="fill:#F3705A;" d="M362.133,446.933c0,0,11.733,20.267,11.733,25.6c0,0,7.467-2.133,11.733,0
	c0,0,10.667-20.267,18.133-22.4V444.8C404.8,439.467,368.533,429.867,362.133,446.933z"/>
<g>
	<polygon style="fill:#F3F3F3;" points="417.6,408.533 380.267,437.333 414.4,469.333 428.267,428.8 	"/>
	<path style="fill:#F3F3F3;" d="M342.933,411.733l37.333,25.6l-29.867,32c0,0-6.4-18.133-9.6-22.4
		c-4.267-4.267-4.267-7.467-4.267-9.6C335.467,435.2,342.933,411.733,342.933,411.733z"/>
</g>
<g>
	<path style="fill:#415A6B;" d="M337.6,512H360c-9.6-45.867-17.067-100.267-17.067-100.267l-28.8,25.6L324.8,444.8l-14.933,9.6
		L337.6,512z"/>
	<path style="fill:#415A6B;" d="M428.267,512c11.733-30.933,23.467-60.8,23.467-60.8L436.8,440.533l17.067-4.267l-35.2-27.733
		c0,0-4.267,57.6-10.667,103.467H428.267z"/>
</g>
<path style="fill:#FFD15C;" d="M134.933,282.667c-3.2,6.4-7.467,12.8-11.733,19.2c-10.667,13.867-27.733,22.4-50.133,22.4
	c-1.067,0-3.2,0-4.267,0c-1.067,6.4-2.133,12.8-2.133,19.2c0,40.533,23.467,73.6,53.333,73.6c28.8,0,53.333-33.067,53.333-73.6
	c0-5.333,0-9.6-1.067-13.867C152,320,139.2,301.867,134.933,282.667z"/>
<path style="fill:#8AD7F8;" d="M367.467,124.8c0,20.267-9.6,39.467-25.6,54.4v59.733l-75.733-29.867c-2.133,0-5.333,0-7.467,0
	c-60.8,0-109.867-37.333-109.867-84.267s49.067-84.267,109.867-84.267C319.467,40.533,367.467,77.867,367.467,124.8z"/>
<path style="fill:#F3705A;" d="M301.333,84.267c0,46.933-49.067,84.267-109.867,84.267c-3.2,0-5.333,0-8.533,0l-75.733,28.8v-58.667
	c-16-14.933-25.6-33.067-25.6-54.4C81.6,37.333,130.667,0,191.467,0S301.333,37.333,301.333,84.267z"/>
<g>
</g>
<g>
</g>
<g>
</g>
<g>
</g>
<g>
</g>
<g>
</g>
<g>
</g>
<g>
</g>
<g>
</g>
<g>
</g>
<g>
</g>
<g>
</g>
<g>
</g>
<g>
</g>
<g>
</g>
</svg>
