<?xml version="1.0" encoding="iso-8859-1"?>
<!-- Generator: Adobe Illustrator 19.0.0, SVG Export Plug-In . SVG Version: 6.00 Build 0)  -->
<svg version="1.1" id="Capa_1" xmlns="http://www.w3.org/2000/svg" xmlns:xlink="http://www.w3.org/1999/xlink" x="0px" y="0px"
	 viewBox="0 0 512 512" style="enable-background:new 0 0 512 512;" xml:space="preserve">
<path style="fill:#F3705A;" d="M128.533,179.2c4.267-1.067,7.467-3.2,10.667-4.267l28.8,14.933l21.333-21.333L174.4,140.8
	c2.133-3.2,3.2-7.467,4.267-10.667l30.933-9.6V90.667l-29.867-9.6c-1.067-4.267-3.2-7.467-4.267-10.667L190.4,41.6l-21.333-21.333
	L141.333,35.2c-3.2-2.133-7.467-3.2-10.667-4.267L121.067,0H91.2l-9.6,29.867c-4.267,1.067-7.467,2.133-10.667,4.267L42.133,19.2
	L20.8,40.533l14.933,27.733c-2.133,3.2-3.2,6.4-4.267,10.667l-30.933,9.6V118.4L30.4,128c1.067,4.267,3.2,7.467,4.267,10.667
	l-14.933,28.8L41.067,188.8L68.8,173.867c3.2,2.133,7.467,3.2,10.667,4.267l9.6,30.933h29.867L128.533,179.2z M80.533,104.533
	C80.533,91.733,91.2,80,105.067,80S129.6,90.667,129.6,104.533c-1.067,12.8-11.733,23.467-24.533,23.467
	C91.2,128,80.533,117.333,80.533,104.533z"/>
<path style="fill:#CED6E0;" d="M355.733,419.2v-49.067c0-10.667-8.533-20.267-20.267-20.267h-43.733
	c-10.667,0-20.267,8.533-20.267,20.267V419.2H355.733z"/>
<g>
	<polygon style="fill:#F3705A;" points="326.933,419.2 320.533,371.2 307.733,371.2 302.4,419.2 	"/>
	<polygon style="fill:#F3705A;" points="320.533,371.2 328,363.733 314.133,349.867 300.267,363.733 307.733,371.2 	"/>
</g>
<path style="fill:#344A5E;" d="M404.8,419.2l-11.733-50.133c-1.067-6.4-6.4-11.733-13.867-12.8l-35.2-6.4l-13.867,70.4H404.8V419.2z
	"/>
<path style="fill:#F3F3F3;" d="M335.467,336c0,0,0,2.133-9.6,7.467c-9.6,5.333-11.733,6.4-11.733,6.4l20.267,20.267
	c0,0,7.467-19.2,7.467-20.267C341.867,349.867,336.533,339.2,335.467,336z"/>
<path style="fill:#415A6B;" d="M341.867,419.2c1.067-1.067,1.067-3.2,1.067-4.267c5.333-13.867,16-48,16-48l-10.667-5.333l6.4-2.133
	c0,0-5.333-8.533-10.667-11.733c-5.333-3.2-5.333-6.4-7.467-8.533c0,0-1.067,9.6-2.133,14.933c-1.067,5.333-7.467,42.667-9.6,54.4
	c0,2.133-1.067,5.333-1.067,10.667H341.867z"/>
<path style="fill:#344A5E;" d="M298.133,419.2l-13.867-70.4l-35.2,6.4c-6.4,1.067-11.733,6.4-13.867,12.8l-11.733,50.133h74.667
	V419.2z"/>
<path style="fill:#F3F3F3;" d="M292.8,336c0,0,0,2.133,9.6,7.467c9.6,5.333,11.733,6.4,11.733,6.4l-20.267,20.267
	c0,0-7.467-19.2-7.467-20.267C286.4,349.867,291.733,339.2,292.8,336z"/>
<path style="fill:#415A6B;" d="M285.333,416c0,1.067,1.067,2.133,1.067,4.267h17.067C302.4,416,302.4,411.733,302.4,409.6
	c-2.133-11.733-8.533-49.067-9.6-54.4s-2.133-14.933-2.133-14.933c-2.133,1.067-2.133,5.333-6.4,8.533
	c-5.333,3.2-10.667,11.733-10.667,11.733l6.4,2.133L269.333,368C269.333,368,280,402.133,285.333,416z"/>
<path style="fill:#F7B64C;" d="M292.8,304v30.933c0,0,0,2.133,9.6,7.467c9.6,5.333,11.733,6.4,11.733,6.4s2.133-1.067,11.733-6.4
	s9.6-7.467,9.6-7.467V304H292.8L292.8,304z"/>
<g>
	<path style="fill:#FFD15C;" d="M337.6,274.133c0-3.2-1.067-6.4-3.2-8.533c-2.133-2.133-4.267-4.267-6.4-5.333
		c-2.133-1.067-5.333-1.067-7.467-1.067c-5.333,0-9.6,0-13.867,1.067l0,0c-3.2-1.067-6.4-2.133-10.667-2.133s-7.467,2.133-9.6,5.333
		c-2.133,3.2-2.133,6.4-2.133,9.6s1.067,6.4,2.133,8.533c-2.133,5.333-3.2,10.667-3.2,17.067c0,21.333,13.867,39.467,30.933,39.467
		c17.067,0,30.933-17.067,30.933-39.467C345.067,290.133,342.933,280.533,337.6,274.133z"/>
	
		<ellipse transform="matrix(0.1455 -0.9894 0.9894 0.1455 -2.7266 596.5069)" style="fill:#FFD15C;" cx="343.959" cy="299.832" rx="11.734" ry="5.334"/>
	
		<ellipse transform="matrix(0.1455 0.9894 -0.9894 0.1455 538.794 -25.3985)" style="fill:#FFD15C;" cx="284.1" cy="299.212" rx="11.734" ry="5.334"/>
</g>
<path style="fill:#415A6B;" d="M286.4,307.2h2.133c0,0-3.2-6.4,0-13.867c2.133-7.467,3.2-10.667,2.133-14.933
	c0-4.267-2.133-12.8,7.467-13.867c8.533-1.067,27.733-1.067,33.067,0c6.4,1.067,8.533,9.6,7.467,12.8
	c-1.067,3.2,1.067,10.667,2.133,14.933c1.067,4.267,0,14.933,0,14.933l1.067-1.067c0,0,0-7.467,2.133-11.733
	c2.133-4.267,3.2-8.533,3.2-18.133c0-12.8-3.2-16-3.2-16s4.267-13.867-11.733-19.2c-16-6.4-24.533-2.133-34.133,3.2
	c-9.6,5.333-14.933,13.867-17.067,19.2c-2.133,5.333,1.067,28.8,3.2,32C284.267,297.6,286.4,307.2,286.4,307.2z"/>
<path style="fill:#66C6B9;" d="M473.067,328.533c1.067-11.733,1.067-24.533,0-36.267l38.4-34.133L488,205.867l-50.133,6.4
	c-7.467-8.533-16-17.067-25.6-24.533l3.2-51.2l-53.333-20.267L331.2,155.733c-11.733-1.067-23.467-1.067-35.2,1.067l-36.267-39.467
	L207.467,140.8l6.4,50.133c-9.6,7.467-18.133,16-25.6,25.6l-52.267-3.2l-20.267,53.333L155.2,297.6
	c-1.067,11.733-1.067,24.533,1.067,36.267l-38.4,35.2l23.467,52.267l50.133-6.4c7.467,9.6,16,17.067,25.6,24.533l-3.2,52.267
	L267.2,512l30.933-39.467c11.733,1.067,24.533,1.067,36.267,0l34.133,38.4l52.267-23.467l-5.333-50.133
	c9.6-7.467,17.067-16,24.533-25.6l51.2,3.2l20.267-53.333L473.067,328.533z M405.867,348.8c-19.2,51.2-75.733,75.733-125.867,56.533
	s-75.733-75.733-56.533-125.867s75.733-75.733,125.867-56.533S425.067,297.6,405.867,348.8z"/>
<path style="fill:#4ABAA5;" d="M360,192c-67.2-25.6-142.933,8.533-168.533,75.733S200,410.667,267.2,436.267
	s142.933-8.533,168.533-75.733C461.333,292.267,428.267,217.6,360,192z M405.867,348.8c-19.2,51.2-75.733,75.733-125.867,56.533
	s-75.733-75.733-56.533-125.867s75.733-75.733,125.867-56.533S425.067,297.6,405.867,348.8z"/>
<path style="fill:#F05540;" d="M105.067,54.4c-27.733,0-50.133,22.4-50.133,49.067c0,27.733,22.4,50.133,50.133,50.133
	s50.133-22.4,50.133-50.133C154.133,76.8,132.8,54.4,105.067,54.4z M105.067,128c-12.8,0-24.533-10.667-24.533-24.533
	c0-12.8,10.667-24.533,24.533-24.533S129.6,89.6,129.6,103.467C128.533,117.333,117.867,128,105.067,128z"/>
<g>
</g>
<g>
</g>
<g>
</g>
<g>
</g>
<g>
</g>
<g>
</g>
<g>
</g>
<g>
</g>
<g>
</g>
<g>
</g>
<g>
</g>
<g>
</g>
<g>
</g>
<g>
</g>
<g>
</g>
</svg>
