<?xml version="1.0" encoding="iso-8859-1"?>
<!-- Generator: Adobe Illustrator 19.0.0, SVG Export Plug-In . SVG Version: 6.00 Build 0)  -->
<svg version="1.1" id="Capa_1" xmlns="http://www.w3.org/2000/svg" xmlns:xlink="http://www.w3.org/1999/xlink" x="0px" y="0px"
	 viewBox="0 0 511.886 511.886" style="enable-background:new 0 0 511.886 511.886;" xml:space="preserve">
<path style="fill:#415A6B;" d="M132.21,108.533L38.343,14.667c-6.4-5.333-17.067-5.333-23.467,0s-5.333,17.067,0,23.467
	l94.933,94.933C114.076,129.867,126.876,113.867,132.21,108.533z"/>
<path style="fill:#E8EAE9;" d="M155.676,26.4L26.61,155.467c-35.2-35.2-35.2-93.867,0-129.067S120.476-8.8,155.676,26.4z"/>
<path style="fill:#415A6B;" d="M379.676,108.533l93.867-93.867c6.4-6.4,16-6.4,22.4,0c6.4,6.4,6.4,16,0,22.4L401.01,132
	C397.81,129.867,385.01,113.867,379.676,108.533z"/>
<path style="fill:#E8EAE9;" d="M356.21,26.4l129.067,129.067c35.2-35.2,35.2-93.867,0-129.067S391.41-8.8,356.21,26.4z"/>
<g>
	<path style="fill:#415A6B;" d="M191.943,332.533L191.943,332.533c-16-6.4-34.133,1.067-40.533,17.067l-48,119.467
		c-6.4,16,1.067,34.133,17.067,40.533l0,0c16,6.4,34.133-1.067,40.533-17.067l48-119.467
		C215.41,358.133,207.943,340,191.943,332.533z"/>
	<path style="fill:#415A6B;" d="M319.943,332.533L319.943,332.533c16-6.4,34.133,1.067,40.533,17.067l48,119.467
		c6.4,16-1.067,34.133-17.067,40.533l0,0c-16,6.4-34.133-1.067-40.533-17.067l-48-119.467
		C296.476,358.133,303.943,340,319.943,332.533z"/>
</g>
<circle style="fill:#F3705A;" cx="255.943" cy="264.267" r="221.867"/>
<circle style="fill:#F3F3F3;" cx="255.943" cy="264.267" r="168.533"/>
<path style="fill:#66C6B9;" d="M311.41,334.667c-4.267,0-8.533-1.067-11.733-4.267l-55.467-55.467
	c-3.2-3.2-4.267-7.467-4.267-11.733V162.933c0-8.533,7.467-16,16-16c8.533,0,16,7.467,16,16v92.8l50.133,50.133
	c6.4,6.4,6.4,16,0,22.4C318.876,333.6,314.61,334.667,311.41,334.667z"/>
<circle style="fill:#415A6B;" cx="255.943" cy="264.267" r="39.467"/>
<g>
</g>
<g>
</g>
<g>
</g>
<g>
</g>
<g>
</g>
<g>
</g>
<g>
</g>
<g>
</g>
<g>
</g>
<g>
</g>
<g>
</g>
<g>
</g>
<g>
</g>
<g>
</g>
<g>
</g>
</svg>
