<?xml version="1.0" encoding="iso-8859-1"?>
<!-- Generator: Adobe Illustrator 19.0.0, SVG Export Plug-In . SVG Version: 6.00 Build 0)  -->
<svg version="1.1" id="Capa_1" xmlns="http://www.w3.org/2000/svg" xmlns:xlink="http://www.w3.org/1999/xlink" x="0px" y="0px"
	 viewBox="0 0 512.33 512.33" style="enable-background:new 0 0 512.33 512.33;" xml:space="preserve">
<polygon style="fill:#4ABAA5;" points="455.797,375.383 180.597,375.383 180.597,446.849 512.33,446.849 "/>
<rect x="180.597" y="446.849" style="fill:#66C6B9;" width="331.733" height="27.733"/>
<g>
	<polygon style="fill:#CED6E0;" points="429.13,386.049 286.197,386.049 276.597,404.183 421.663,404.183 	"/>
	<path style="fill:#CED6E0;" d="M421.663,404.183l45.867-144l7.467-4.267c0,0,1.067,2.133,0,7.467S438.73,382.849,438.73,382.849
		s-3.2,6.4-6.4,13.867s-6.4,17.067-10.667,17.067C418.463,412.716,421.663,404.183,421.663,404.183z"/>
</g>
<path style="fill:#E8EAE9;" d="M421.663,412.716H282.997c-4.267,0-7.467-3.2-7.467-7.467v-1.067h146.133V412.716z"/>
<path style="fill:#F3F3F3;" d="M421.663,412.716c1.067,0,1.067,0,2.133-1.067c8.533-24.533,44.8-135.467,45.867-142.933
	c1.067-7.467-2.133-9.6-2.133-9.6l-45.867,144C421.663,404.183,418.463,412.716,421.663,412.716z"/>
<path style="fill:#F7B64C;" d="M290.463,359.383c0,0,21.333,2.133,29.867,6.4c8.533,3.2,24.533,10.667,25.6,7.467
	c1.067-3.2-1.067-7.467-6.4-10.667c-5.333-3.2-7.467-5.333-7.467-5.333s8.533,2.133,11.733,3.2c3.2,1.067,6.4,1.067,6.4,1.067
	s4.267,3.2,7.467,6.4c0,0,4.267,18.133,9.6,19.2s3.2-7.467,2.133-12.8c-1.067-5.333-3.2-8.533-3.2-8.533s3.2,3.2,4.267,4.267
	c1.067,1.067,1.067,0,1.067,0s-1.067,9.6,3.2,10.667s5.333,0,5.333-2.133c0-2.133-2.133-9.6-2.133-9.6s5.333,1.067,5.333-3.2
	l-5.333-4.267c0,0-6.4-5.333-7.467-6.4c-1.067-1.067-1.067-4.267-5.333-5.333c-4.267-1.067-16-3.2-16-3.2s-4.267-7.467-9.6-7.467
	c-5.333,0-10.667,2.133-18.133,2.133s-19.2,2.133-19.2,2.133L290.463,359.383z"/>
<path style="fill:#E8EAE9;" d="M305.397,339.116h6.4c0,0-8.533,14.933-9.6,26.667l-11.733-1.067L305.397,339.116z"/>
<path style="fill:#344A5E;" d="M162.463,306.049c0,0,23.467,17.067,28.8,22.4c5.333,6.4,4.267,8.533,20.267,7.467
	c14.933-1.067,18.133,0,22.4,2.133c3.2,2.133,20.267,2.133,27.733,2.133c7.467,0,46.933-2.133,46.933-2.133s-9.6,6.4-12.8,35.2
	l-133.333-2.133L162.463,306.049L162.463,306.049z"/>
<path style="fill:#FFD15C;" d="M284.063,350.849c0,0,22.4,1.067,34.133,4.267c12.8,3.2,24.533,5.333,30.933,8.533
	c6.4,3.2,17.067,6.4,17.067,6.4s12.8,14.933,12.8,21.333c0,0,4.267,5.333,2.133,8.533c-2.133,3.2-4.267,2.133-7.467-1.067
	c-2.133-3.2-14.933-13.867-19.2-16c0,0,5.333,5.333,6.4,6.4l12.8,10.667c0,0-1.067,7.467-14.933-2.133c0,0-8.533-2.133-11.733-5.333
	c0,0-5.333-2.133-7.467-4.267c0,0-17.067,2.133-35.2-1.067c-18.133-3.2-20.267-4.267-20.267-4.267V350.849z"/>
<path style="fill:#415A6B;" d="M144.33,223.916c0,0,17.067,41.6,22.4,58.667c4.267,16,18.133,55.467,24.533,76.8
	c6.4,22.4,6.4,22.4,6.4,22.4l-44.8-13.867C151.797,366.849,95.263,249.516,144.33,223.916z"/>
<path style="fill:#CED6E0;" d="M87.797,153.516c0,0,11.733,10.667,28.8,25.6s35.2,40.533,35.2,40.533l-16,49.067l-60.8-98.133
	C76.063,171.649,83.53,155.649,87.797,153.516z"/>
<path style="fill:#FFD15C;" d="M72.863,175.916l10.667-10.667l20.267-43.733c0,0,33.067-23.467,34.133-23.467
	c1.067-1.067,46.933-19.2,46.933-19.2l22.4,21.333c0,0,3.2,24.533,2.133,29.867c-2.133,5.333-6.4,6.4-7.467,9.6
	c-1.067,4.267,5.333,20.267,4.267,26.667s-4.267,7.467-6.4,7.467c-2.133,0-7.467-2.133-7.467-2.133s-2.133,4.267-1.067,6.4
	c1.067,2.133-2.133,5.333-5.333,2.133c0,0,4.267,2.133,3.2,7.467c-1.067,5.333-6.4,5.333-7.467,13.867
	c-1.067,8.533-9.6,11.733-18.133,7.467s-17.067-6.4-17.067-6.4l-26.667,38.4L72.863,175.916z"/>
<path style="fill:#415A6B;" d="M82.463,165.249c0,0,19.2-7.467,23.467-25.6c4.267-19.2,10.667-21.333,16-22.4
	c5.333,0,16,7.467,18.133,13.867c2.133,7.467,1.067,21.333,1.067,21.333l10.667-1.067c0,0-1.067-22.4,7.467-28.8s16-7.467,13.867-16
	s-1.067-16,5.333-18.133s21.333,9.6,25.6,11.733c0,0,6.4-11.733,0-21.333c-6.4-9.6-33.067-36.267-50.133-40.533s-35.2,0-48,10.667
	s-21.333,36.267-23.467,56.533C80.33,125.783,85.663,156.716,82.463,165.249z"/>
<ellipse transform="matrix(-0.108 -0.9942 0.9942 -0.108 5.8475 265.3033)" style="fill:#FFD15C;" cx="121.946" cy="130.028" rx="18.134" ry="12.801"/>
<path style="fill:#F7B64C;" d="M146.463,202.583c0,0-30.933-21.333-38.4-40.533c0,0,4.267,33.067,23.467,61.867L146.463,202.583z"/>
<path style="fill:#E8EAE9;" d="M78.197,160.983c0,0,11.733,10.667,28.8,25.6s35.2,40.533,35.2,40.533l-14.933,29.867l-61.867-78.933
	C66.463,179.116,73.93,163.116,78.197,160.983z"/>
<path style="fill:#344A5E;" d="M195.53,475.649c-3.2-59.733-16-120.533-16-120.533s-23.467-62.933-39.467-97.067
	s-43.733-69.333-51.2-75.733c-6.4-5.333-17.067-14.933-17.067-14.933s-33.067,37.333-41.6,49.067s-22.4,33.067-27.733,75.733
	c-4.267,36.267-2.133,137.6,0,183.467H195.53z"/>
<path style="fill:#415A6B;" d="M46.197,330.583c-8.533-8.533-14.933-18.133-19.2-28.8c-3.2-8.533-4.267-18.133-2.133-29.867
	c5.333-28.8,24.533-51.2,41.6-51.2s48,13.867,51.2,35.2c3.2,21.333,6.4,41.6,9.6,48c3.2,6.4,24.533,22.4,27.733,30.933
	c2.133,9.6,4.267,11.733,6.4,13.867c2.133,2.133,9.6,3.2,11.733,5.333c1.067,3.2,13.867-2.133,26.667-2.133
	c12.8,0,82.133-9.6,82.133-9.6s17.067,11.733,17.067,34.133c0,22.4-12.8,24.533-12.8,24.533s-23.467-2.133-30.933,3.2
	c-7.467,4.267-10.667,6.4-19.2,7.467c-7.467,1.067-26.667,6.4-38.4,7.467c-11.733,0-22.4,4.267-36.267-2.133
	c-13.867-6.4-44.8-26.667-58.667-36.267c-12.8-9.6-34.133-28.8-43.733-37.333C54.73,339.116,49.397,333.783,46.197,330.583z"/>
<g>
</g>
<g>
</g>
<g>
</g>
<g>
</g>
<g>
</g>
<g>
</g>
<g>
</g>
<g>
</g>
<g>
</g>
<g>
</g>
<g>
</g>
<g>
</g>
<g>
</g>
<g>
</g>
<g>
</g>
</svg>
