<?xml version="1.0" encoding="iso-8859-1"?>
<!-- Generator: Adobe Illustrator 19.0.0, SVG Export Plug-In . SVG Version: 6.00 Build 0)  -->
<svg version="1.1" id="Capa_1" xmlns="http://www.w3.org/2000/svg" xmlns:xlink="http://www.w3.org/1999/xlink" x="0px" y="0px"
	 viewBox="0 0 512 512" style="enable-background:new 0 0 512 512;" xml:space="preserve">
<g>
	<path style="fill:#415A6B;" d="M154.667,508.131h17.067l26.667-23.467c14.933-12.8,24.533-32,26.667-51.2
		c1.067-8.533,0-18.133-4.267-25.6c-7.467-14.933-13.867-29.867-18.133-45.867c-8.533-29.867-8.533-89.6-16-82.133h-5.333
		c2.133,27.733-2.133,54.4-10.667,80c-4.267,10.667-8.533,26.667-8.533,26.667C173.867,424.931,168.533,466.531,154.667,508.131z"/>
	<ellipse style="fill:#415A6B;" cx="147.2" cy="389.731" rx="27.733" ry="30.933"/>
	<path style="fill:#415A6B;" d="M57.6,294.798c0,0,6.4,76.8-11.733,117.333s-22.4,50.133-23.467,50.133
		c-2.133,0,44.8-12.8,44.8-12.8l40.533-56.533l2.133-53.333L57.6,294.798"/>
</g>
<path style="fill:#F7B64C;" d="M91.733,508.131H156.8c2.133-5.333,4.267-11.733,4.267-19.2c13.867-21.333,7.467-57.6,0-92.8v-53.333
	H88.533v53.333c-20.267,27.733-17.067,59.733,0,92.8C88.533,496.398,89.6,502.798,91.733,508.131z"/>
<path style="fill:#E8EAE9;" d="M173.867,508.131l-7.467-76.8c-7.467,14.933-28.8,24.533-40.533,24.533s-33.067-9.6-40.533-24.533
	l-7.467,76.8H173.867z"/>
<g>
	<path style="fill:#4ABAA5;" d="M92.8,508.131l-19.2-92.8l8.533-10.667l-36.267,10.667c-22.4,6.4-38.4,25.6-40.533,49.067
		c-2.133,14.933-3.2,32-5.333,44.8h92.8V508.131z"/>
	<path style="fill:#4ABAA5;" d="M156.8,508.131h92.8c-2.133-12.8-3.2-29.867-5.333-44.8c-2.133-23.467-19.2-42.667-40.533-49.067
		l-36.267-8.533L176,416.398L156.8,508.131z"/>
</g>
<path style="fill:#415A6B;" d="M192,294.798c0,37.333-29.867,67.2-67.2,67.2s-67.2-29.867-67.2-67.2s29.867-67.2,67.2-67.2
	C162.133,226.531,192,257.464,192,294.798z"/>
<g>
	<polygon style="fill:#66C6B9;" points="73.6,508.131 106.667,508.131 88.533,396.131 51.2,433.464 50.133,434.531 70.4,446.264 
		50.133,457.998 	"/>
	<polygon style="fill:#66C6B9;" points="177.067,508.131 199.467,457.998 179.2,446.264 199.467,434.531 198.4,433.464 
		162.133,396.131 144,508.131 	"/>
</g>
<g>
	<path style="fill:#FFD15C;" d="M82.133,301.198c17.067,0,32-5.333,42.667-13.867c9.6,10.667,20.267,19.2,34.133,24.533
		c7.467,3.2,13.867,4.267,21.333,4.267c0,4.267,1.067,7.467,1.067,11.733c0,43.733-24.533,78.933-54.4,78.933
		s-54.4-35.2-54.4-78.933c0-9.6,1.067-19.2,3.2-27.733C76.8,300.131,78.933,301.198,82.133,301.198z"/>
	
		<ellipse transform="matrix(0.2365 -0.9716 0.9716 0.2365 240.2035 491.9098)" style="fill:#FFD15C;" cx="433.107" cy="93.112" rx="16" ry="7.466"/>
	
		<ellipse transform="matrix(0.2365 0.9716 -0.9716 0.2365 354.6297 -264.153)" style="fill:#FFD15C;" cx="345.397" cy="93.576" rx="16" ry="7.466"/>
	<path style="fill:#FFD15C;" d="M433.067,69.731L432,84.664c0,0-1.067,33.067-7.467,46.933v49.067h-67.2l-2.133-44.8
		c0,0-9.6-27.733-8.533-49.067c0,0-5.333-22.4-4.267-36.267s24.533-29.867,42.667-32C404.267,16.398,439.467,16.398,433.067,69.731z
		"/>
</g>
<path style="fill:#415A6B;" d="M430.933,86.798c0,0,1.067-14.933,0-22.4S425.6,43.064,419.2,36.664
	c-6.4-5.333-19.2-11.733-35.2-7.467s-21.333,5.333-26.667,12.8s-8.533,40.533-9.6,42.667h-1.067c0,0-3.2-6.4-5.333-21.333
	s-1.067-35.2,10.667-50.133s82.133-18.133,86.4,20.267c2.133,22.4-3.2,38.4-4.267,43.733
	C433.067,82.531,430.933,86.798,430.933,86.798z"/>
<path style="fill:#F7B64C;" d="M381.867,151.864c-20.267-5.333-26.667-17.067-26.667-17.067v1.067l2.133,40.533
	c13.867-2.133,30.933-5.333,40.533-10.667c22.4-11.733,26.667-33.067,26.667-33.067
	C421.333,139.064,402.133,157.198,381.867,151.864z"/>
<polygon style="fill:#CED6E0;" points="419.2,283.064 437.333,180.664 390.4,180.664 334.933,187.064 354.133,283.064 "/>
<g>
	<path style="fill:#344A5E;" d="M370.133,283.064c-12.8-22.4-24.533-96-24.533-96l-4.267-13.867c0,0-22.4,10.667-41.6,19.2
		c-16,7.467-26.667,24.533-26.667,41.6v49.067L370.133,283.064L370.133,283.064z"/>
	<path style="fill:#344A5E;" d="M512,283.064v-52.267c0-19.2-11.733-36.267-29.867-42.667c-20.267-7.467-38.4-17.067-38.4-17.067
		c-1.067,27.733-16,93.867-16,93.867s-4.267,6.4-10.667,18.133H512L512,283.064z"/>
</g>
<path style="fill:#F05540;" d="M417.067,283.064c-3.2-25.6-10.667-39.467-11.733-46.933c-1.067-9.6-8.533-20.267-9.6-24.533
	c0-3.2,0-9.6,0-9.6l-9.6-2.133l-1.067,10.667c0,0-6.4,11.733-8.533,24.533c-1.067,9.6-9.6,26.667-12.8,46.933h53.333V283.064z"/>
<path style="fill:#F3705A;" d="M374.4,189.198c0,0,10.667,19.2,10.667,23.467c0,0,6.4-2.133,11.733,0c0,0,9.6-18.133,16-21.333
	v-4.267C412.8,182.798,379.733,173.198,374.4,189.198z"/>
<g>
	<path style="fill:#F3F3F3;" d="M424.533,153.998c0,0-1.067,6.4-6.4,10.667c-5.333,4.267-27.733,16-27.733,16l30.933,28.8
		l12.8-37.333C434.133,173.198,429.867,157.198,424.533,153.998z"/>
	<path style="fill:#F3F3F3;" d="M356.267,157.198c0,0,24.533,20.267,34.133,23.467c0,0-19.2,17.067-26.667,28.8
		c0,0-5.333-17.067-9.6-20.267c-3.2-4.267-3.2-7.467-4.267-8.533C349.867,178.531,350.933,162.531,356.267,157.198z"/>
</g>
<g>
	<path style="fill:#415A6B;" d="M363.733,283.064h16C369.067,239.331,355.2,159.331,355.2,159.331l-25.6,23.467l6.4,4.267
		l-13.867,9.6L363.733,283.064z"/>
	<path style="fill:#415A6B;" d="M425.6,283.064c13.867-34.133,35.2-89.6,35.2-89.6l-13.867-10.667h12.8l-32-26.667
		c0,0-10.667,83.2-18.133,126.933H425.6z"/>
</g>
<path style="fill:#8AD7F8;" d="M334.933,124.131c0,36.267-38.4,66.133-85.333,66.133h-1.067l-54.4,29.867v-45.867
	c-18.133-11.733-28.8-29.867-28.8-49.067c0-36.267,38.4-66.133,85.333-66.133C297.6,57.998,334.933,87.864,334.933,124.131z"/>
<g>
	<circle style="fill:#FFFFFF;" cx="204.8" cy="124.131" r="13.867"/>
	<circle style="fill:#FFFFFF;" cx="249.6" cy="124.131" r="13.867"/>
	<circle style="fill:#FFFFFF;" cx="295.467" cy="124.131" r="13.867"/>
</g>
<g>
	<path style="fill:#F3705A;" d="M115.2,124.131l-10.667-23.467C68.267,117.731,48,156.131,51.2,194.531
		c-7.467-7.467-14.933-17.067-19.2-26.667c-23.467-48-3.2-104.533,43.733-126.933L65.067,17.464l86.4,24.533L115.2,124.131z"/>
	<path style="fill:#F3705A;" d="M387.2,390.798l9.6,24.533c37.333-14.933,60.8-51.2,59.733-89.6
		c7.467,8.533,12.8,18.133,17.067,28.8c19.2,49.067-5.333,103.467-53.333,122.667l9.6,24.533L345.6,471.864L387.2,390.798z"/>
</g>
<g>
</g>
<g>
</g>
<g>
</g>
<g>
</g>
<g>
</g>
<g>
</g>
<g>
</g>
<g>
</g>
<g>
</g>
<g>
</g>
<g>
</g>
<g>
</g>
<g>
</g>
<g>
</g>
<g>
</g>
</svg>
