<?xml version="1.0" encoding="iso-8859-1"?>
<!-- Generator: Adobe Illustrator 19.0.0, SVG Export Plug-In . SVG Version: 6.00 Build 0)  -->
<svg version="1.1" id="Capa_1" xmlns="http://www.w3.org/2000/svg" xmlns:xlink="http://www.w3.org/1999/xlink" x="0px" y="0px"
	 viewBox="0 0 513.067 513.067" style="enable-background:new 0 0 513.067 513.067;" xml:space="preserve">
<g>
	<path style="fill:#F3705A;" d="M240.533,250.667c-4.267,10.667-18.133,20.267-18.133,20.267s-19.2-18.133-25.6-29.867
		c-6.4-11.733-9.6-24.533-12.8-37.333c-4.267-14.933-8.533-29.867-6.4-44.8c2.133-10.667,6.4-21.333,10.667-30.933
		c9.6-24.533,12.8-51.2,10.667-76.8h5.333c7.467-7.467,7.467,50.133,16,78.933c4.267,14.933,9.6,29.867,17.067,43.733
		C249.067,197.333,251.2,226.133,240.533,250.667z"/>
	<path style="fill:#F3705A;" d="M80.533,65.067c0,0,5.333,73.6-11.733,112s-21.333,48-22.4,48s42.667-12.8,42.667-12.8l38.4-54.4
		l1.067-51.2L80.533,65.067"/>
</g>
<path style="fill:#F7B64C;" d="M110.4,110.933h70.4v51.2c7.467,35.2,12.8,68.267,0,89.6c0,51.2-70.4,51.2-70.4,0
	c-16-32-20.267-62.933,0-89.6C110.4,162.133,110.4,110.933,110.4,110.933z"/>
<path style="fill:#66C6B9;" d="M193.6,292.267L184,217.6c-7.467,13.867-22.4,23.467-39.467,23.467s-32-9.6-39.467-23.467
	l-9.6,74.667H193.6z"/>
<path style="fill:#F3705A;" d="M209.6,65.067c0,36.267-28.8,65.067-65.067,65.067s-65.067-28.8-65.067-65.067S109.333,0,145.6,0
	C180.8,0,209.6,28.8,209.6,65.067z"/>
<path style="fill:#FFD15C;" d="M197.867,97.067c0,41.6-23.467,75.733-52.267,75.733s-52.267-34.133-52.267-75.733
	C93.333,85.333,94.4,73.6,97.6,64c2.133-7.467,10.667-11.733,18.133-10.667c8.533,2.133,18.133,3.2,28.8,3.2
	c9.6,0,20.267-1.067,28.8-3.2c8.533-1.067,17.067,3.2,19.2,10.667C195.733,73.6,197.867,85.333,197.867,97.067z"/>
<path style="fill:#344A5E;" d="M118.933,292.267l-22.4-110.933l-7.467-4.267l-38.4,13.867c-19.2,6.4-33.067,22.4-36.267,41.6
	c-4.267,20.267-9.6,44.8-13.867,59.733H118.933z"/>
<path style="fill:#415A6B;" d="M95.467,292.267h35.2c-5.333-21.333-10.667-41.6-14.933-52.267c-10.667-33.067-6.4-77.867-6.4-77.867
	c-1.067,1.067-3.2,2.133-5.333,4.267c-14.933,9.6-27.733,20.267-40.533,32l-1.067,1.067l19.2,10.667l-19.2,11.733
	C73.067,246.4,83.733,269.867,95.467,292.267z"/>
<path style="fill:#344A5E;" d="M289.6,292.267c-4.267-14.933-9.6-39.467-12.8-59.733c-4.267-19.2-18.133-35.2-36.267-41.6
	l-38.4-13.867l-7.467,4.267L171.2,292.267H289.6z"/>
<path style="fill:#415A6B;" d="M159.467,292.267h35.2c11.733-22.4,22.4-45.867,32-70.4l-19.2-11.733l19.2-10.667L225.6,198.4
	c-11.733-11.733-25.6-22.4-40.533-32c-2.133-1.067-4.267-3.2-5.333-4.267c0,0,4.267,44.8-6.4,77.867
	C171.2,250.667,165.867,270.933,159.467,292.267z"/>
<path style="fill:#66C6B9;" d="M230.933,470.4c-9.6,6.4-19.2,10.667-30.933,14.933c-64,19.2-131.2-16-151.467-80L21.867,412.8
	L59.2,320l82.133,56.533l-27.733,8.533C129.6,438.4,178.667,471.467,230.933,470.4z"/>
<g>
	<path style="fill:#F3705A;" d="M491.2,99.2L453.867,192l-82.133-56.533l27.733-8.533c-16-53.333-65.067-86.4-117.333-85.333
		c9.6-6.4,19.2-10.667,30.933-13.867c64-19.2,132.267,16,151.467,80L491.2,99.2z"/>
	<ellipse style="fill:#F3705A;" cx="410.133" cy="376.533" rx="26.667" ry="28.8"/>
</g>
<path style="fill:#415A6B;" d="M324.8,284.8c0,0,5.333,73.6-11.733,112c-17.067,38.4-21.333,48-22.4,48
	c-1.067,0,42.667-12.8,42.667-12.8l38.4-54.4l1.067-51.2L324.8,284.8"/>
<path style="fill:#F7B64C;" d="M353.6,330.667H424v51.2c7.467,35.2,12.8,68.267,0,89.6c0,51.2-70.4,51.2-70.4,0
	c-16-32-20.267-62.933,0-89.6V330.667z"/>
<path style="fill:#66C6B9;" d="M437.867,512l-9.6-74.667C420.8,451.2,388.8,460.8,388.8,460.8s-32-9.6-39.467-23.467l-9.6,74.667
	H437.867z"/>
<g>
	<path style="fill:#F05540;" d="M339.733,401.067L363.2,512h-97.067c2.133-9.6,5.333-39.467,8.533-65.067
		C276.8,424.533,292.8,406.4,314.133,400L344,391.467L339.733,401.067z"/>
	<path style="fill:#F05540;" d="M415.467,512l22.4-110.933l-3.2-9.6L464.533,400c21.333,6.4,37.333,24.533,39.467,46.933
		c3.2,25.6,5.333,55.467,8.533,65.067C512.533,512,415.467,512,415.467,512z"/>
</g>
<path style="fill:#415A6B;" d="M453.867,284.8c0,36.267-28.8,65.067-65.067,65.067s-65.067-28.8-65.067-65.067
	s28.8-65.067,65.067-65.067C425.067,219.733,453.867,248.533,453.867,284.8z"/>
<g>
	<polygon style="fill:#F3705A;" points="339.733,512 374.933,512 353.6,381.867 308.8,418.133 307.733,419.2 326.933,429.867 
		307.733,441.6 	"/>
	<polygon style="fill:#F3705A;" points="403.733,512 438.933,512 470.933,441.6 451.733,429.867 470.933,419.2 469.867,418.133 
		425.067,381.867 	"/>
</g>
<path style="fill:#415A6B;" d="M480.533,393.6c-7.467-13.867-12.8-28.8-17.067-43.733c-7.467-28.8-8.533-86.4-16-78.933h-5.333
	c2.133,26.667-2.133,52.267-10.667,76.8c-4.267,10.667-7.467,25.6-7.467,25.6c12.8,43.733,5.333,90.667-14.933,139.733l49.067-44.8
	c13.867-12.8,23.467-29.867,25.6-49.067C484.8,409.6,484.8,401.067,480.533,393.6z"/>
<path style="fill:#FFD15C;" d="M430.4,291.2c-17.067,0-30.933-5.333-40.533-12.8c-8.533,10.667-20.267,18.133-32,23.467
	c-6.4,2.133-13.867,4.267-20.267,4.267c0,3.2-1.067,7.467-1.067,11.733c0,41.6,23.467,75.733,52.267,75.733
	c28.8,0,52.267-34.133,52.267-75.733c0-9.6-1.067-18.133-3.2-26.667C435.733,290.133,433.6,291.2,430.4,291.2z"/>
<g>
</g>
<g>
</g>
<g>
</g>
<g>
</g>
<g>
</g>
<g>
</g>
<g>
</g>
<g>
</g>
<g>
</g>
<g>
</g>
<g>
</g>
<g>
</g>
<g>
</g>
<g>
</g>
<g>
</g>
</svg>
