<?xml version="1.0" encoding="iso-8859-1"?>
<!-- Generator: Adobe Illustrator 19.0.0, SVG Export Plug-In . SVG Version: 6.00 Build 0)  -->
<svg version="1.1" id="Capa_1" xmlns="http://www.w3.org/2000/svg" xmlns:xlink="http://www.w3.org/1999/xlink" x="0px" y="0px"
	 viewBox="0 0 513.364 513.364" style="enable-background:new 0 0 513.364 513.364;" xml:space="preserve">
<path style="fill:#CED6E0;" d="M439.082,232.83c0,0-2.133,1.067-3.2,1.067c0,0,1.067,21.333,1.067,22.4
	c0,1.067,14.933,10.667,14.933,10.667s13.867-21.333,7.467-26.667C452.948,234.964,439.082,232.83,439.082,232.83z"/>
<path style="fill:#344A5E;" d="M464.682,304.297l27.733-7.467l20.267,16v199.467H286.548
	C286.548,512.297,427.348,314.964,464.682,304.297z"/>
<g>
	<path style="fill:#FFD15C;" d="M444.415,192.297l-7.467,35.2c0,0,4.267,29.867,17.067,41.6l-117.333,87.467
		c0,0-6.4-52.267-11.733-61.867c0,0-20.267,2.133-28.8-19.2s-14.933-35.2-18.133-44.8c-2.133-11.733-10.667-38.4-10.667-56.533
		c0-17.067-4.267-21.333-4.267-26.667c0-6.4,1.067-17.067,1.067-17.067s2.133-37.333,5.333-45.867c0,0,27.733-19.2,66.133-22.4
		c38.4-3.2,82.133,2.133,82.133,2.133L444.415,192.297z"/>
	<path style="fill:#FFD15C;" d="M454.015,268.03l-144,115.2c0,0,18.133-84.267,16-89.6c0,0-20.267,2.133-28.8-19.2
		c-8.533-21.333-14.933-35.2-18.133-44.8c-3.2-10.667-11.733-37.333-11.733-55.467c0-17.067-4.267-21.333-4.267-26.667
		c0-6.4,1.067-17.067,1.067-17.067s2.133-37.333,5.333-45.867c0,0,27.733-19.2,66.133-22.4c37.333-3.2,82.133,2.133,82.133,2.133
		l25.6,128l-7.467,35.2C436.948,226.43,441.215,256.297,454.015,268.03z"/>
</g>
<g>
	<path style="fill:#415A6B;" d="M263.082,130.43c0,0,3.2-35.2,5.333-40.533c3.2-5.333,14.933-9.6,23.467-5.333
		c8.533,4.267,52.267,1.067,62.933-3.2c10.667-3.2,40.533-5.333,42.667,10.667s0,21.333,6.4,32
		c6.4,10.667,14.933,30.933,14.933,38.4l9.6,2.133c0,0,3.2-10.667,7.467-14.933s10.667,0,11.733,5.333s-13.867,57.6-10.667,71.467
		c0,0,4.267-16,6.4-22.4c2.133-6.4,11.733-74.667,12.8-92.8c1.067-18.133-4.267-53.333-22.4-75.733s-43.733-32-71.467-35.2
		c-27.733-3.2-61.867,20.267-73.6,32c-12.8,10.667-28.8,24.533-23.467,55.467C265.215,87.764,260.948,117.63,263.082,130.43z"/>
	<path style="fill:#415A6B;" d="M263.082,130.43c0,0,3.2-35.2,5.333-40.533c3.2-5.333,14.933-9.6,23.467-5.333
		c8.533,4.267,52.267,1.067,62.933-3.2c10.667-3.2,40.533-5.333,42.667,10.667s0,21.333,6.4,32
		c6.4,10.667,14.933,30.933,13.867,45.867l9.6,1.067c0,0,4.267-18.133,8.533-21.333c4.267-4.267,10.667,0,11.733,5.333
		c1.067,5.333-13.867,57.6-10.667,71.467c0,0,4.267-16,6.4-22.4c2.133-6.4,11.733-74.667,12.8-92.8s-4.267-53.333-22.4-75.733
		s-43.733-32-71.467-35.2c-27.733-3.2-61.867,20.267-73.6,32c-12.8,10.667-28.8,24.533-23.467,55.467
		C265.215,87.764,260.948,117.63,263.082,130.43z"/>
</g>
<ellipse transform="matrix(0.3167 -0.9485 0.9485 0.3167 133.6714 537.7527)" style="fill:#FFD15C;" cx="440.081" cy="176.097" rx="34.133" ry="18.133"/>
<path style="fill:#F7B64C;" d="M425.215,224.297c-3.2,9.6-18.133,82.133-106.667,121.6c-2.133-16,9.6-46.933,6.4-52.267
	c0,0,24.533,1.067,51.2-16C402.815,260.564,420.948,234.964,425.215,224.297z"/>
<polyline style="fill:#CED6E0;" points="331.348,319.23 320.682,370.43 354.815,320.297 391.082,343.764 399.615,400.297 
	267.348,512.297 248.148,512.297 305.748,346.964 331.348,319.23 "/>
<path style="fill:#415A6B;" d="M324.948,300.03l-1.067-4.267c0,0-12.8-1.067-26.667,10.667s-44.8,68.267-49.067,84.267
	s-32,122.667-32,122.667h33.067c0,0,56.533-148.267,59.733-156.8c3.2-8.533,10.667-30.933,10.667-30.933L324.948,300.03z"/>
<g>
	<path style="fill:#E8EAE9;" d="M324.948,293.63c0,0,3.2,10.667,4.267,18.133s1.067,7.467,1.067,7.467
		c-6.4,16-13.867,27.733-23.467,36.267v-1.067c-1.067-6.4,1.067-12.8,5.333-19.2c1.067-2.133,2.133-3.2,2.133-6.4l-8.533-12.8
		L324.948,293.63"/>
	<path style="fill:#E8EAE9;" d="M470.015,274.43l-82.133,103.467l-33.067-57.6c0,0,81.067-55.467,86.4-59.733
		c5.333-4.267,16-12.8,14.933-18.133c-1.067-4.267-18.133-8.533-18.133-8.533l0-3.2c23.467,3.2,24.533,12.8,24.533,12.8
		L470.015,274.43z"/>
</g>
<path style="fill:#415A6B;" d="M464.682,254.164c0,0,2.133,9.6-7.467,18.133c-9.6,9.6-28.8,27.733-38.4,37.333
	c-9.6,9.6-50.133,61.867-71.467,85.333c-21.333,23.467-80,117.333-80,117.333h40.533l138.667-137.6l-7.467-28.8l34.133-7.467
	c0,0,14.933-23.467,19.2-38.4c1.067-4.267,0-7.467-2.133-10.667c-3.2-4.267-9.6-12.8-11.733-17.067
	C476.415,265.897,472.148,257.364,464.682,254.164"/>
<circle style="fill:#F3705A;" cx="153.215" cy="359.764" r="152.533"/>
<circle style="fill:#F3F3F3;" cx="153.215" cy="359.764" r="117.333"/>
<g>
	<circle style="fill:#CED6E0;" cx="223.615" cy="289.364" r="6.4"/>
	<circle style="fill:#CED6E0;" cx="252.415" cy="359.764" r="6.4"/>
	<circle style="fill:#CED6E0;" cx="223.615" cy="431.23" r="6.4"/>
	<circle style="fill:#CED6E0;" cx="153.215" cy="460.03" r="6.4"/>
	<circle style="fill:#CED6E0;" cx="81.748" cy="431.23" r="6.4"/>
	<circle style="fill:#CED6E0;" cx="52.948" cy="359.764" r="6.4"/>
	<circle style="fill:#CED6E0;" cx="81.748" cy="289.364" r="6.4"/>
	<circle style="fill:#CED6E0;" cx="153.215" cy="260.564" r="6.4"/>
</g>
<path style="fill:#FFD15C;" d="M187.348,405.63c-3.2,0-5.333-1.067-7.467-3.2l-35.2-35.2c-4.267-4.267-4.267-10.667,0-14.933
	c4.267-4.267,10.667-4.267,14.933,0l35.2,35.2c4.267,4.267,4.267,10.667,0,14.933C192.682,404.564,190.548,405.63,187.348,405.63z"
	/>
<path style="fill:#66C6B9;" d="M153.215,370.43c-6.4,0-10.667-4.267-10.667-10.667v-70.4c0-6.4,4.267-10.667,10.667-10.667
	c6.4,0,10.667,4.267,10.667,10.667v70.4C163.882,366.164,158.548,370.43,153.215,370.43z"/>
<circle style="fill:#415A6B;" cx="153.215" cy="359.764" r="23.467"/>
<g>
</g>
<g>
</g>
<g>
</g>
<g>
</g>
<g>
</g>
<g>
</g>
<g>
</g>
<g>
</g>
<g>
</g>
<g>
</g>
<g>
</g>
<g>
</g>
<g>
</g>
<g>
</g>
<g>
</g>
</svg>
