<?xml version="1.0" encoding="iso-8859-1"?>
<!-- Generator: Adobe Illustrator 19.0.0, SVG Export Plug-In . SVG Version: 6.00 Build 0)  -->
<svg version="1.1" id="Capa_1" xmlns="http://www.w3.org/2000/svg" xmlns:xlink="http://www.w3.org/1999/xlink" x="0px" y="0px"
	 viewBox="0 0 512.337 512.337" style="enable-background:new 0 0 512.337 512.337;" xml:space="preserve">
<path style="fill:#344A5E;" d="M265.532,490.84v-2.133c0,0,1.067-8.533,4.267-10.667c3.2-2.133,3.2-2.133,3.2-2.133l20.267,2.133
	c0,0,1.067,5.333,4.267,9.6c2.133,4.267,10.667,16,8.533,19.2c-2.133,3.2-2.133,3.2-2.133,3.2s-14.933,1.066-19.2-1.066
	c-5.333-2.133-5.333-3.2-8.533-9.6c-1.067-2.133-4.267-4.267-6.4-5.333C266.599,494.04,265.532,491.906,265.532,490.84z"/>
<path style="fill:#415A6B;" d="M265.532,488.706c0,0,2.133,3.2,6.4,5.333c3.2,2.133,6.882,7.277,6.882,10.476
	c1.41,1.948,1.688,3.44,9.118,4.457c7.398,1.013,16,1.066,17.067-1.066c0,0,1.067,2.133-1.067,3.2
	c-2.133,2.133-17.067,1.066-20.267,0c-4.267-1.066-5.333-2.133-6.4-5.333s-2.133-4.267-3.2-6.4v2.133c0,0-4.267-1.066-6.4-3.2
	C265.532,496.173,263.399,492.973,265.532,488.706z"/>
<path style="fill:#344A5E;" d="M237.924,487.423v-2.133c0,0-1.067-8.533-4.267-10.667c-3.2-2.133-3.2-2.133-3.2-2.133
	c-6.4-3.2-12.8-3.2-18.133,0c0,0-3.2,7.467-5.333,12.8c-2.133,4.267-10.667,16-8.533,19.2c2.133,3.2,2.133,3.2,2.133,3.2
	s14.933,1.066,19.2-1.066c5.333-2.133,5.333-3.2,8.533-9.6c1.067-2.133,4.267-4.267,6.4-5.333
	C236.857,490.623,237.924,488.49,237.924,487.423z"/>
<g>
	<path style="fill:#415A6B;" d="M237.924,485.289c0,0-2.133,3.2-6.4,5.333c-3.2,2.133-6.4,7.467-6.4,10.667
		c-1.067,2.133-2.133,4.267-9.6,4.267c-7.467,0-16,1.066-17.067-1.066c0,0-1.067,2.133,1.067,3.2c2.133,2.133,17.067,1.066,20.267,0
		c4.267-1.066,5.333-2.133,6.4-5.333c1.067-3.2,2.133-4.267,3.2-6.4v2.133c0,0,4.267-2.133,6.4-4.267
		C237.924,492.756,240.057,489.556,237.924,485.289z"/>
	<path style="fill:#415A6B;" d="M301.798,274.307c0,0,2.133,5.333,1.067,8.533c-1.067,4.267-4.267,33.067-4.267,40.533
		c0,6.4,0,14.933-1.067,20.267c-1.067,4.267-2.133,17.067-1.067,22.4c0,5.333,1.067,58.667,1.067,68.267s-1.067,22.4-1.067,27.733
		s-2.133,17.066-2.133,19.2c0,0-9.6-3.2-16-1.066c-6.4,2.133-11.733,1.066-11.733,1.066s-2.133-6.4-1.067-13.867
		c1.066-7.467,2.133-30.934,2.133-36.267c1.067-5.333-2.133-28.8,0-39.467c0,0-4.267-27.733-4.267-33.067c0,0-5.333-12.8-5.333-25.6
		c0-12.8-8.533-33.067-8.533-33.067s-4.267,16-5.333,25.6c-1.067,10.667,0,14.933-1.067,22.4c-1.067,7.467-3.2,13.867-3.2,18.133
		c0,4.267-1.067,11.733-1.067,12.8s0,23.467,0,32s-3.2,29.867-3.2,35.2s2.133,16,2.133,21.333s-1.248,11.957-1.248,11.957
		s-2.5-6.944-10.486-7.691c-8.533-1.066-13.867,1.066-13.867,1.066s-3.2-28.8-3.2-37.333c0-9.6-2.133-72.533-2.133-72.533
		L204.73,262.57l36.267-44.8l44.8,1.067l13.867,34.133L301.798,274.307z"/>
</g>
<path style="fill:#4ABAA5;" d="M190.865,306.307c0,0,2.133-9.6,3.2-13.867s2.133-5.333,2.133-5.333s6.4,0,7.467,4.267
	c0,5.333-3.2,13.867-3.2,18.133l3.2,1.067c0,0,0-6.4,1.067-10.667c1.067-3.2,2.133-10.667,2.133-14.933s-2.133-6.4-4.267-7.467
	c-2.133-1.067-9.6,1.067-10.667,3.2c-1.067,3.2-3.2,12.8-4.267,14.933c-1.067,3.2-1.067,5.333-1.067,5.333
	S188.732,306.307,190.865,306.307z"/>
<g>
	<path style="fill:#FFD15C;" d="M300.732,242.307l-16,9.6c0,0,1.067,5.333,7.467,3.2c6.4-3.2,6.4-3.2,6.4-3.2l-2.133,3.2
		c0,0,5.333,11.733,5.333,20.267c0,0,3.2-2.133,4.267-5.333s7.467-14.933,7.467-14.933L300.732,242.307z"/>
	
		<ellipse transform="matrix(-0.9716 -0.2365 0.2365 -0.9716 527.3406 154.5976)" style="fill:#FFD15C;" cx="272.943" cy="45.67" rx="3.2" ry="7.467"/>
	
		<ellipse transform="matrix(0.9716 -0.2365 0.2365 0.9716 -4.2892 55.8783)" style="fill:#FFD15C;" cx="230.769" cy="45.818" rx="3.2" ry="7.467"/>
	<path style="fill:#FFD15C;" d="M272.999,35.373l-1.067,6.4c0,0,0,16-3.2,22.4V87.64h-32l-1.067-21.333c0,0-4.267-12.8-4.267-23.467
		c0,0-3.2-10.667-2.133-17.067s11.733-13.867,20.267-14.933C258.065,9.773,276.199,9.773,272.999,35.373z"/>
</g>
<path style="fill:#415A6B;" d="M232.465,42.84c0,0,0-7.467,0-10.667s2.133-9.6,5.333-12.8s9.6-5.333,17.067-4.267
	c7.467,2.133,10.667,2.133,12.8,6.4c3.2,3.2,1.067,3.2,3.2,5.333s1.067,13.867,1.067,14.933h1.067c0,0,1.067-3.2,2.133-10.667
	c1.066-7.467,0-17.067-5.333-23.467s-22.4-13.867-32,1.067c0,0-6.4-2.133-8.533,8.533c-1.067,10.667,1.067,18.133,2.133,20.267
	C231.399,40.706,232.465,42.84,232.465,42.84z"/>
<path style="fill:#F7B64C;" d="M248.465,73.773c-9.6-2.133-12.8-8.533-12.8-8.533l0,0l1.067,19.2c6.4-1.067,13.867-2.133,19.2-5.333
	c10.667-5.333,12.8-16,12.8-16C266.599,67.373,258.065,75.906,248.465,73.773z"/>
<polygon style="fill:#CED6E0;" points="252.732,86.573 274.065,86.573 260.199,170.84 240.999,163.373 226.065,89.773 "/>
<path style="fill:#F05540;" d="M250.599,97.24l-1.067,5.333c0,0-3.2,5.333-4.267,11.733s-1.067,25.6-1.067,25.6l14.933,29.867
	c0,0,0-20.267,0-27.733s0-23.467,0-27.733c-1.067-4.267-4.267-9.6-4.267-11.733c0-1.067,0-4.267,0-4.267L250.599,97.24z"/>
<path style="fill:#F3705A;" d="M245.265,90.84c0,0,5.333,8.533,5.333,10.667c0,0,3.2-1.067,5.333,0c0,0,4.267-8.533,7.467-9.6
	v-2.133C263.399,87.64,247.399,83.373,245.265,90.84z"/>
<path style="fill:#F3F3F3;" d="M268.732,74.84c0,0-1.067,3.2-3.2,5.333s-12.8,7.467-12.8,7.467l14.933,13.867l6.4-17.067
	C272.999,83.373,270.865,75.906,268.732,74.84z"/>
<path style="fill:#415A6B;" d="M295.399,101.506l14.933-6.4c0,0,4.267,1.067,7.467,7.467c3.2,7.467,4.267,17.067,6.4,20.267
	s3.2,6.4,5.333,10.667s14.933,39.467,14.933,49.067c0,9.6-1.067,20.267-4.267,29.867s-22.4,49.067-22.4,49.067
	s-9.6-13.867-18.133-19.2c0,0,5.333-7.467,6.4-8.533c0,0,4.267-9.6,6.4-16c3.2-6.4,2.133-10.667,3.2-13.867
	c1.067-4.267,3.2-4.267,3.2-7.467s-2.133-10.667-4.267-17.067c-2.133-6.4-6.4-22.4-8.533-24.533s-2.133-2.133-2.133-2.133
	S290.065,117.506,295.399,101.506z"/>
<g>
	<path style="fill:#344A5E;" d="M229.265,83.373c0,0-14.933,7.467-21.333,10.667s-10.667,5.333-10.667,5.333
		s8.533,25.6,10.667,37.333c2.133,12.8,5.333,27.733,5.333,27.733s-2.133,45.867-7.467,62.933c-5.333,17.067-9.6,38.4-9.6,38.4
		s27.733,7.467,37.333,4.267c9.6-3.2,14.933-22.4,19.2-33.067c4.267-10.667,2.133-46.933,2.133-46.933l2.133-25.6
		c0,0-7.467-17.067-12.8-28.8c-6.4-10.667-11.733-45.867-11.733-45.867L229.265,83.373z"/>
	<path style="fill:#344A5E;" d="M305.323,154.097c0,0-7.791,22.076-7.791,37.009c0,0,3.2,33.067,2.133,38.4
		c0,5.333-2.133,6.4-1.067,9.6c1.067,4.267,1.067,14.933,1.067,14.933s-7.467,3.2-19.2-4.267s-26.667-24.533-28.8-35.2
		c-2.133-10.667-1.067-21.333,0-34.133c2.133-29.867,18.133-53.333,18.133-53.333s7.467-30.933,7.467-44.8c0,0,20.267,9.6,32,12.8
		C310.332,95.106,295.723,130.63,305.323,154.097z"/>
</g>
<g>
	<path style="fill:#415A6B;" d="M269.798,75.906c0,0,1.067,4.267,0,7.467c0,3.2-1.067,25.6-3.2,36.267
		c-2.133,7.467-6.4,23.467-9.6,34.133c-2.133,7.467-3.2,13.867-4.267,21.333c0,2.133,0,3.2,0,5.333c0,0,2.133-8.533,4.267-14.933
		c2.133-5.333,12.8-27.733,17.067-36.267s8.533-21.333,9.6-27.733c1.067-6.4,2.133-8.533,2.133-8.533l-6.4-5.333h3.2
		c0,0-3.2-4.267-5.333-5.333c-2.133-1.067-5.333-3.2-6.4-5.333C270.865,75.906,270.865,75.906,269.798,75.906z"/>
	<path style="fill:#415A6B;" d="M235.665,76.973c0,0,0,16,1.067,23.467c1.067,6.4,11.733,42.667,14.933,49.067
		s4.267,14.933,4.267,14.933s-2.133-2.133-7.467-10.667s-19.2-35.2-22.4-42.667c-3.2-6.4-6.4-16-6.4-16l6.4-4.267h-2.133
		C224.999,85.506,231.399,82.306,235.665,76.973z"/>
	<path style="fill:#415A6B;" d="M196.199,99.373c0,0,8.533,25.6,10.667,37.333c2.133,12.8,5.333,27.733,5.333,27.733
		s-2.133,8.533-3.2,13.867c-0.001,6.4-4.267,34.133-4.267,39.466c0,2.133,0,6.4,0,10.667c0,5.333,1.067,10.667,1.067,16
		c0,7.467,1.067,17.067,1.067,23.467c0,3.2,0,5.333,0,5.333s-2.133-1.067-8.533,0c-6.4,1.067-14.933,7.467-14.933,7.467
		s-1.067-8.533-1.067-16s0-45.867,0-54.4s2.247-60.788,2.851-69.3"/>
</g>
<path style="fill:#F3F3F3;" d="M236.732,75.906c0,0,11.733,9.6,16,10.667c0,0-8.533,7.467-12.8,13.867c0,0-3.2-7.467-4.267-9.6
	c-1.067-2.133-2.133-3.2-2.133-4.267C233.532,86.573,234.599,79.106,236.732,75.906z"/>
<path style="fill:#4ABAA5;" d="M168.465,367.106c0,0-2.133,7.466,4.267,10.667c5.333,3.2,23.467,14.934,26.667,16
	s6.4,1.066,8.533-1.066c0,0,5.333,3.2,8.533-4.267c2.133-7.467,3.2-39.467,3.2-44.8c0-4.267,1.067-22.4-4.267-32
	c-5.333-9.6-21.333-14.933-25.6-14.933c-5.333,0-11.733,2.133-12.8,9.6s5.333,21.333,5.333,21.333S176.999,362.84,168.465,367.106z"
	/>
<path style="fill:#38A892;" d="M186.599,305.24c0,0,2.133-9.6,3.2-13.867s2.133-5.333,2.133-5.333s6.4,0,7.467,4.267
	c0,5.333-3.2,13.867-3.2,18.133l3.2,1.067c0,0,0-6.4,1.067-10.667c1.067-3.2,2.133-10.667,2.133-14.933s-2.133-6.4-4.267-7.467
	c-2.133-1.067-9.6,1.067-10.667,3.2c-1.067,3.2-3.2,12.8-4.267,14.933c-1.067,3.2-1.067,5.333-1.067,5.333
	S184.465,305.24,186.599,305.24z"/>
<path style="fill:#FFD15C;" d="M184.465,275.373c0,0,0,5.333-1.067,7.467c0,2.133,0,3.2,1.067,3.2s5.333,2.133,7.467,3.2
	c2.133,1.067,4.267,4.267,6.4,3.2c0,0,1.067-2.133-1.067-4.267c-2.133-2.133-2.133-5.333-2.133-6.4l0,0
	c1.067-2.133,3.2-3.2,5.333-1.067c2.133,1.067,4.267,4.267,4.267,6.4c1.067,4.267,1.067,4.267,1.067,4.267s1.067-2.133,1.067-6.4
	c0-3.2-1.067-4.267-1.067-7.467c0-2.133-3.2-7.467-4.267-7.467c-1.067-1.067-1.067-1.067-1.067-1.067
	S187.665,271.106,184.465,275.373z"/>
<path style="fill:#66C6B9;" d="M169.532,354.307c0,2.133-1.067,5.333-1.067,7.467c-1.067,3.2-1.067,8.533,3.2,12.8
	c6.4,6.4,25.6,16,25.6,16s4.267,3.2,5.333-4.267c1.067-6.4,4.267-60.8,4.267-64s-4.267-8.533-9.6-11.733s-13.867-8.533-18.133-7.467
	c-3.2,1.067-5.333,2.133-6.4,13.867C172.732,325.506,170.599,345.773,169.532,354.307z"/>
<g>
	<path style="fill:#415A6B;" d="M269.798,75.906c0,0,1.067,4.267,0,7.467c0,3.2-1.067,25.6-3.2,36.267
		c-2.133,7.467-6.4,23.467-9.6,34.133c-2.133,7.467-3.2,13.867-4.267,21.333c0,2.133,0,3.2,0,5.333c0,0,2.133-8.533,4.267-14.933
		c2.133-5.333,12.8-27.733,17.067-36.267s8.533-21.333,9.6-27.733c1.067-6.4,2.133-8.533,2.133-8.533l-6.4-5.333h3.2
		c0,0-3.2-4.267-5.333-5.333c-2.133-1.067-5.333-3.2-6.4-5.333C270.865,75.906,270.865,75.906,269.798,75.906z"/>
	<path style="fill:#415A6B;" d="M235.665,76.973c0,0,0,16,1.067,23.467c1.067,6.4,11.733,42.667,14.933,49.067
		s4.267,14.933,4.267,14.933s-2.133-2.133-7.467-10.667s-19.2-35.2-22.4-42.667c-3.2-6.4-6.4-16-6.4-16l6.4-4.267h-2.133
		C224.999,85.506,231.399,82.306,235.665,76.973z"/>
	<path style="fill:#415A6B;" d="M205.45,217.806c0,2.133,0,6.4,0,10.667c0,5.333,1.067,10.667,1.067,16
		c0,7.467,1.067,17.067,1.067,23.467c0,3.2,0,5.333,0,5.333s-2.133-1.067-8.533,0c-6.4,1.067-14.933,7.467-14.933,7.467
		s-1.067-8.533-1.067-16s0-45.867,0-54.4s2.133-60.8,2.133-69.333c1.067-7.467,5.333-29.867,7.467-36.267
		c2.133-6.4,5.333-5.334,5.333-5.334s8.533,25.6,10.667,37.333c2.133,12.8,5.333,27.733,5.333,27.733s-3.2,8.534-4.266,13.867
		C209.717,184.74,205.45,212.473,205.45,217.806z"/>
</g>
<g>
</g>
<g>
</g>
<g>
</g>
<g>
</g>
<g>
</g>
<g>
</g>
<g>
</g>
<g>
</g>
<g>
</g>
<g>
</g>
<g>
</g>
<g>
</g>
<g>
</g>
<g>
</g>
<g>
</g>
</svg>
