<?xml version="1.0" encoding="iso-8859-1"?>
<!-- Generator: Adobe Illustrator 19.0.0, SVG Export Plug-In . SVG Version: 6.00 Build 0)  -->
<svg version="1.1" id="Capa_1" xmlns="http://www.w3.org/2000/svg" xmlns:xlink="http://www.w3.org/1999/xlink" x="0px" y="0px"
	 viewBox="0 0 512 512" style="enable-background:new 0 0 512 512;" xml:space="preserve">
<path style="fill:#66C6B9;" d="M436.267,85.333V483.2c0,16-12.8,28.8-28.8,28.8H104.533c-16,0-28.8-12.8-28.8-28.8V85.333
	c0-16,12.8-28.8,28.8-28.8h304C423.467,57.6,436.267,70.4,436.267,85.333z"/>
<rect x="113.067" y="94.933" style="fill:#FFFFFF;" width="284.8" height="378.667"/>
<rect x="151.467" y="407.467" style="fill:#CED6E0;" width="209.067" height="28.8"/>
<path style="fill:#F3705A;" d="M247.467,184.533c-53.333,0-96,42.667-96,96s42.667,96,96,96s96-42.667,96-96h-96V184.533z"/>
<path style="fill:#FFD15C;" d="M264.533,167.467v96h96C360.533,210.133,317.867,167.467,264.533,167.467z"/>
<path style="fill:#415A6B;" d="M315.733,45.867h-23.467v-9.6C292.267,16,276.267,0,256,0l0,0c-20.267,0-36.267,16-36.267,36.267v9.6
	h-23.467c-10.667,0-19.2,8.533-19.2,19.2V115.2h156.8V65.067C333.867,54.4,325.333,45.867,315.733,45.867z M256,52.267
	c-8.533,0-16-7.467-16-16s7.467-16,16-16s16,7.467,16,16S264.533,52.267,256,52.267z"/>
<g>
</g>
<g>
</g>
<g>
</g>
<g>
</g>
<g>
</g>
<g>
</g>
<g>
</g>
<g>
</g>
<g>
</g>
<g>
</g>
<g>
</g>
<g>
</g>
<g>
</g>
<g>
</g>
<g>
</g>
</svg>
