<?xml version="1.0" encoding="iso-8859-1"?>
<!-- Generator: Adobe Illustrator 19.0.0, SVG Export Plug-In . SVG Version: 6.00 Build 0)  -->
<svg version="1.1" id="Capa_1" xmlns="http://www.w3.org/2000/svg" xmlns:xlink="http://www.w3.org/1999/xlink" x="0px" y="0px"
	 viewBox="0 0 512 512" style="enable-background:new 0 0 512 512;" xml:space="preserve">
<path style="fill:#55C0EB;" d="M413.867,406.4c-5.333-65.067-18.133-133.333-37.333-138.667h-1.067c-12.8-4.267-89.6-28.8-89.6-28.8
	s-12.8-7.467-22.4-22.4c0,0-2.133,19.2-4.267,40.533H208l-51.2,3.2c-2.133-21.333-5.333-43.733-5.333-43.733
	c-8.533,13.867-22.4,21.333-22.4,21.333s-76.8,25.6-89.6,28.8H38.4c-19.2,6.4-33.067,73.6-37.333,138.667h412.8V406.4z"/>
<g>
	<path style="fill:#FFD15C;" d="M284.8,149.333c-2.133,13.867-8.533,24.533-14.933,24.533c-6.4-1.067-10.667-12.8-8.533-26.667
		c1.067-13.867,7.467-25.6,13.867-24.533C282.667,122.667,285.867,134.4,284.8,149.333z"/>
	<path style="fill:#FFD15C;" d="M148.267,146.133C150.4,160,147.2,172.8,140.8,172.8c-6.4,1.067-13.867-10.667-16-24.533
		c-2.133-13.867,1.067-26.667,7.467-26.667C138.667,121.6,145.067,132.267,148.267,146.133z"/>
</g>
<path style="fill:#344A5E;" d="M286.933,85.333c0,46.933-37.333,116.267-82.133,116.267c-45.867,0-82.133-69.333-82.133-116.267
	C122.667,16,156.8,0,204.8,0C252.8,0,286.933,16,286.933,85.333z"/>
<path style="fill:#F3705A;" d="M171.733,406.4H243.2L224,301.867l14.933-14.933c0,0-20.267-30.933-30.933-30.933
	s-30.933,30.933-30.933,30.933L192,301.867L171.733,406.4z"/>
<path style="fill:#F7B64C;" d="M258.133,148.267H156.8v55.467c0,0-1.067,21.333,24.533,35.2c25.6,14.933,26.667,16,26.667,16
	s0-2.133,26.667-16c25.6-14.933,24.533-35.2,24.533-35.2v-55.467H258.133z"/>
<path style="fill:#FFD15C;" d="M272,173.867c0,8.533-7.467,20.267-16,30.933c-24.533,30.933-71.467,30.933-96,0
	c-8.533-10.667-16-22.4-16-30.933c-8.533-46.933-8.533-77.867-4.267-98.133c2.133-10.667,13.867-17.067,24.533-12.8
	c11.733,5.333,25.6,7.467,41.6,7.467s29.867-3.2,41.6-7.467c10.667-4.267,23.467,2.133,24.533,14.933
	C274.133,108.8,273.067,154.667,272,173.867z"/>
<g>
	<path style="fill:#E8EAE9;" d="M273.067,229.333L246.4,301.867c-10.667-19.2-23.467-35.2-39.467-46.933c0,0,0-2.133,26.667-16
		c25.6-14.933,24.533-35.2,24.533-35.2L273.067,229.333z"/>
	<path style="fill:#E8EAE9;" d="M208,254.933c-16,11.733-28.8,27.733-39.467,46.933l-26.667-72.533l14.933-25.6
		c0,0-1.067,21.333,24.533,35.2C206.933,253.867,208,254.933,208,254.933z"/>
</g>
<path style="fill:#415A6B;" d="M489.6,310.4h-66.133v-17.067c0-11.733-9.6-21.333-21.333-21.333h-55.467
	c-11.733,0-21.333,9.6-21.333,21.333V310.4h-71.467c-11.733,0-21.333,9.6-21.333,21.333v158.933c0,11.733,9.6,21.333,21.333,21.333
	H489.6c11.733,0,21.333-9.6,21.333-21.333V331.733C510.933,320,501.333,310.4,489.6,310.4z M343.467,292.267
	c0-2.133,2.133-3.2,3.2-3.2h55.467c2.133,0,3.2,2.133,3.2,3.2v17.067H342.4v-17.067H343.467z"/>
<g>
</g>
<g>
</g>
<g>
</g>
<g>
</g>
<g>
</g>
<g>
</g>
<g>
</g>
<g>
</g>
<g>
</g>
<g>
</g>
<g>
</g>
<g>
</g>
<g>
</g>
<g>
</g>
<g>
</g>
</svg>
