<?xml version="1.0" encoding="iso-8859-1"?>
<!-- Generator: Adobe Illustrator 19.0.0, SVG Export Plug-In . SVG Version: 6.00 Build 0)  -->
<svg version="1.1" id="Capa_1" xmlns="http://www.w3.org/2000/svg" xmlns:xlink="http://www.w3.org/1999/xlink" x="0px" y="0px"
	 viewBox="0 0 512 512" style="enable-background:new 0 0 512 512;" xml:space="preserve">
<g>
	<path style="fill:#CED6E0;" d="M256,498.133c-19.2,0-35.2-16-35.2-35.2c0-19.2,16-35.2,35.2-35.2c19.2,0,35.2,16,35.2,35.2
		C291.2,482.133,275.2,498.133,256,498.133z M256,449.067c-7.467,0-13.867,6.4-13.867,13.867S248.533,476.8,256,476.8
		c7.467,0,13.867-6.4,13.867-13.867C269.867,455.467,263.467,449.067,256,449.067z"/>
	<rect x="245.333" y="350.933" style="fill:#CED6E0;" width="21.333" height="87.467"/>
</g>
<path style="fill:#E8EAE9;" d="M482.133,53.333v296.533c0,14.933-11.733,26.667-26.667,26.667H57.6
	c-14.933,0-26.667-11.733-26.667-26.667V53.333H482.133z"/>
<path style="fill:#66C6B9;" d="M305.067,240l-4.267,10.667c-1.067,2.133,0,5.333,2.133,7.467l11.733,7.467c0,4.267,0,7.467,0,11.733
	L304,285.867c-2.133,2.133-3.2,4.267-2.133,7.467L307.2,304c1.067,2.133,4.267,4.267,6.4,3.2l13.867-2.133
	c2.133,3.2,5.333,5.333,8.533,7.467l-2.133,13.867c0,3.2,1.067,5.333,4.267,6.4l11.733,4.267c2.133,1.067,5.333,0,7.467-2.133
	L364.8,323.2c4.267,0,7.467,0,11.733,0l8.533,10.667c2.133,2.133,4.267,3.2,7.467,2.133l10.667-5.333
	c2.133-1.067,4.267-4.267,3.2-6.4l-2.133-13.867c3.2-2.133,5.333-5.333,7.467-8.533L425.6,304c3.2,0,5.333-1.067,6.4-4.267
	l4.267-10.667c1.067-3.2,0-5.333-2.133-7.467l-11.733-7.467c0-4.267,0-7.467,0-11.733l10.667-8.533
	c2.133-2.133,3.2-5.333,2.133-7.467l-5.333-10.667c-1.067-2.133-4.267-4.267-6.4-3.2l-13.867,2.133
	c-2.133-3.2-5.333-5.333-8.533-7.467l2.133-13.867c0-3.2-1.067-5.333-4.267-6.4l-10.667-4.267c-3.2-1.067-5.333,0-7.467,2.133
	l-7.467,11.733c-4.267,0-7.467,0-11.733,0l-8.533-10.667c-2.133-2.133-4.267-3.2-7.467-2.133l-10.667,5.333
	c-3.2,1.067-4.267,4.267-4.267,7.467L332.8,230.4c-3.2,2.133-5.333,5.333-7.467,8.533l-13.867-2.133
	C309.333,235.733,306.133,236.8,305.067,240z M349.867,263.467c4.267-10.667,14.933-14.933,25.6-11.733
	c10.667,4.267,14.933,14.933,11.733,25.6c-4.267,10.667-14.933,14.933-25.6,11.733C350.933,284.8,345.6,273.067,349.867,263.467z"/>
<path style="fill:#4ABAA5;" d="M381.867,234.667c-19.2-7.467-41.6,2.133-49.067,22.4c-7.467,19.2,2.133,41.6,22.4,49.067
	c19.2,7.467,41.6-2.133,49.067-22.4C411.733,264.533,401.067,242.133,381.867,234.667z M361.6,289.067
	c-10.667-4.267-14.933-14.933-11.733-25.6c4.267-10.667,14.933-14.933,25.6-11.733c10.667,4.267,14.933,14.933,11.733,25.6
	C382.933,288,371.2,292.267,361.6,289.067z"/>
<path style="fill:#F3705A;" d="M321.067,215.467c1.067-3.2,0-6.4-2.133-8.533l-13.867-10.667c0-5.333,0-10.667-1.067-16l12.8-11.733
	c2.133-2.133,3.2-5.333,2.133-8.533l-5.333-10.667c-1.067-3.2-4.267-4.267-7.467-4.267L288,147.2
	c-3.2-4.267-7.467-7.467-11.733-10.667l1.067-18.133c0-3.2-2.133-6.4-5.333-7.467l-11.733-4.267c-3.2-1.067-6.4,0-8.533,2.133
	l-10.667,13.867c-5.333,0-10.667,0-16,1.067l-11.733-12.8c-2.133-2.133-5.333-3.2-8.533-2.133l-10.667,5.333
	c-3.2,1.067-4.267,4.267-4.267,7.467L192,139.733c-4.267,3.2-7.467,7.467-10.667,11.733L163.2,150.4c-3.2,0-6.4,2.133-7.467,5.333
	l-4.267,11.733c-1.067,3.2,0,6.4,2.133,8.533l13.867,10.667c0,5.333,0,10.667,1.067,16l-9.6,10.667
	c-2.133,2.133-3.2,5.333-2.133,8.533l5.333,10.667c1.067,3.2,4.267,4.267,7.467,4.267l18.133-2.133
	c3.2,4.267,7.467,7.467,11.733,10.667l-1.067,18.133c0,3.2,2.133,6.4,5.333,7.467l11.733,4.267c3.2,1.067,6.4,0,8.533-2.133
	l10.667-13.867c5.333,0,10.667,0,16-1.067l11.733,12.8c2.133,2.133,5.333,3.2,8.533,2.133l10.667-5.333
	c3.2-1.067,4.267-4.267,4.267-7.467l-2.133-18.133c4.267-3.2,7.467-7.467,10.667-11.733l18.133,1.067c3.2,0,6.4-2.133,7.467-5.333
	L321.067,215.467z M229.333,215.467c-12.8-5.333-20.267-19.2-14.933-33.067c5.333-12.8,19.2-20.267,33.067-14.933
	c12.8,5.333,20.267,19.2,14.933,33.067C257.067,213.333,242.133,219.733,229.333,215.467z"/>
<path style="fill:#F05540;" d="M252.8,150.4c-22.4-8.533-48,3.2-55.467,26.667c-8.533,22.4,3.2,48,26.667,55.467
	c22.4,8.533,48-3.2,55.467-26.667C286.933,183.467,275.2,157.867,252.8,150.4z M229.333,215.467
	c-12.8-5.333-20.267-19.2-14.933-33.067c5.333-12.8,19.2-20.267,33.067-14.933c12.8,5.333,20.267,19.2,14.933,33.067
	C257.067,213.333,242.133,219.733,229.333,215.467z"/>
<g>
	<path style="fill:#FFD15C;" d="M83.2,357.333c0,0-1.067,13.867-1.067,22.4s-1.067,8.533-1.067,8.533l83.2-8.533
		c0,0-4.267-10.667-4.267-24.533c0-13.867,0-12.8,0-12.8L83.2,357.333z"/>
	
		<ellipse transform="matrix(0.1067 -0.9943 0.9943 0.1067 -163.6221 453.7272)" style="fill:#FFD15C;" cx="170.7" cy="317.924" rx="19.2" ry="8.533"/>
	
		<ellipse transform="matrix(0.1067 0.9943 -0.9943 0.1067 381.5979 212.3405)" style="fill:#FFD15C;" cx="72.626" cy="318.54" rx="19.2" ry="8.533"/>
</g>
<path style="fill:#55C0EB;" d="M246.4,512v-43.733c0-23.467-14.933-42.667-37.333-50.133c-14.933-4.267-29.867-10.667-35.2-16
	c-2.133-3.2-4.267-6.4-6.4-9.6H78.933c-2.133,3.2-4.267,7.467-6.4,9.6c-4.267,6.4-19.2,11.733-35.2,16
	C14.933,425.6,0,444.8,0,468.267V512H246.4z"/>
<path style="fill:#8AD7F8;" d="M164.267,379.733c0,0,2.133,9.6,5.333,13.867c3.2,4.267,4.267,8.533,4.267,8.533
	s-3.2-4.267-11.733-5.333c-8.533-2.133-39.467-1.067-39.467-1.067S91.733,394.667,83.2,396.8s-11.733,5.333-11.733,5.333
	s1.067-4.267,4.267-8.533c3.2-4.267,5.333-13.867,5.333-13.867C82.133,368,164.267,368,164.267,379.733z"/>
<g>
	<path style="fill:#415A6B;" d="M171.733,310.4c-6.4,10.667-12.8,45.867-12.8,45.867c-3.2,11.733-72.533,10.667-76.8,0
		c0,0-6.4-37.333-12.8-45.867s-10.667-74.667,50.133-74.667C182.4,235.733,177.067,300.8,171.733,310.4z"/>
	<path style="fill:#415A6B;" d="M485.333,53.333H26.667C11.733,53.333,0,41.6,0,26.667l0,0C0,11.733,11.733,0,26.667,0h458.667
		C500.267,0,512,11.733,512,26.667l0,0C512,41.6,500.267,53.333,485.333,53.333z"/>
</g>
<g>
</g>
<g>
</g>
<g>
</g>
<g>
</g>
<g>
</g>
<g>
</g>
<g>
</g>
<g>
</g>
<g>
</g>
<g>
</g>
<g>
</g>
<g>
</g>
<g>
</g>
<g>
</g>
<g>
</g>
</svg>
