<?xml version="1.0" encoding="iso-8859-1"?>
<!-- Generator: Adobe Illustrator 19.0.0, SVG Export Plug-In . SVG Version: 6.00 Build 0)  -->
<svg version="1.1" id="Capa_1" xmlns="http://www.w3.org/2000/svg" xmlns:xlink="http://www.w3.org/1999/xlink" x="0px" y="0px"
	 viewBox="0 0 512 512" style="enable-background:new 0 0 512 512;" xml:space="preserve">
<g>
	<polygon style="fill:#E8EAE9;" points="462.933,443.733 451.2,467.2 306.133,396.8 306.133,259.2 332.8,259.2 332.8,379.733 	"/>
	<polygon style="fill:#E8EAE9;" points="147.2,259.2 173.867,259.2 170.667,359.467 169.6,360.533 66.133,468.267 46.933,450.133 
		144,348.8 	"/>
</g>
<polygon style="fill:#FFD15C;" points="292.267,163.2 320,249.6 196.267,249.6 208,171.733 "/>
<path style="fill:#E8EAE9;" d="M296.533,274.133V172.8c-8.533,16-23.467,26.667-42.667,26.667
	c-18.133,0-34.133-10.667-42.667-26.667v101.333H296.533z"/>
<g>
	<path style="fill:#FFD15C;" d="M295.467,76.8c0,0-1.067,35.2-6.4,50.133c0,0-2.133,6.4,0,14.933c3.2,9.6,6.4,23.467,19.2,37.333
		h-88.533l-4.267-16c-1.067,0,1.067-10.667,6.4-21.333c1.067-2.133,0-4.267,0-5.333c0,0-11.733-23.467-11.733-37.333
		s-1.067-24.533-1.067-24.533s-8.533-58.667,41.6-46.933S300.8,33.067,295.467,76.8z"/>
	
		<ellipse transform="matrix(0.2383 -0.9712 0.9712 0.2383 137.9823 355.3232)" style="fill:#FFD15C;" cx="295.515" cy="89.696" rx="14.933" ry="7.467"/>
	<path style="fill:#FFD15C;" d="M202.667,91.733c2.133,8.533,6.4,13.867,10.667,12.8c3.2-1.067,5.333-8.533,3.2-17.067
		c-2.133-8.533-6.4-13.867-10.667-12.8C202.667,76.8,201.6,84.267,202.667,91.733z"/>
</g>
<path style="fill:#415A6B;" d="M216.533,55.467c0,0-3.2-7.467-1.067-13.867c2.133-6.4,4.267-8.533,8.533-6.4
	c4.267,2.133,30.933,5.333,41.6,2.133c11.733-3.2,22.4-1.067,21.333,7.467s-4.267,14.933-1.067,20.267
	c3.2,4.267,7.467,26.667,7.467,32c0,0,1.067-1.067,2.133-4.267c0-3.2,0-11.733,2.133-20.267c3.2-8.533,7.467-35.2-2.133-51.2
	C284.8,5.333,261.333,0,244.267,0s-30.933,16-37.333,28.8c-4.267,7.467-2.133,12.8-2.133,22.4c0,8.533,1.067,18.133,2.133,26.667
	c1.067,6.4,2.133,16,2.133,16h1.067c0,0-2.133-14.933,2.133-22.4C216.533,64,217.6,64,216.533,55.467"/>
<path style="fill:#F7B64C;" d="M289.067,128L289.067,128c0-1.067-12.8,21.333-19.2,27.733c-6.4,5.333-20.267,6.4-27.733,2.133
	c-9.6-4.267-19.2-22.4-19.2-22.4c1.067,9.6-6.4,14.933-6.4,14.933l4.267,28.8h16c9.6,0,20.267-3.2,27.733-8.533
	c1.067-1.067,3.2-2.133,4.267-3.2C284.8,150.4,288,132.267,289.067,128z"/>
<path style="fill:#415A6B;" d="M400,274.133c-3.2-19.2-6.4-41.6-8.533-57.6c-5.333-30.933-18.133-32-18.133-32H352
	c-16,4.267-21.333,45.867-21.333,89.6H400z"/>
<path style="fill:#344A5E;" d="M349.867,274.133c0-4.267,0-8.533,0-10.667c1.067-38.4,23.467-78.933,23.467-78.933
	c-10.667-11.733-59.733-25.6-59.733-25.6c-12.8,23.467-23.467,66.133-34.133,115.2H349.867z"/>
<g>
	<path style="fill:#415A6B;" d="M267.733,274.133h18.133c1.067-4.267,2.133-7.467,3.2-9.6c9.6-25.6,37.333-77.867,37.333-77.867
		L310.4,176h12.8c0,0-3.2-10.667-10.667-20.267c-7.467-9.6-22.4-13.867-22.4-13.867s8.533,23.467-5.333,58.667
		C278.4,215.467,272,244.267,267.733,274.133z"/>
	<path style="fill:#415A6B;" d="M181.333,274.133C180.267,230.4,176,188.8,160,184.533h-21.333c0,0-12.8,1.067-18.133,32
		c-3.2,16-6.4,38.4-8.533,57.6H181.333z"/>
</g>
<path style="fill:#344A5E;" d="M162.133,274.133h70.4c-10.667-49.067-21.333-91.733-34.133-115.2c0,0-50.133,13.867-59.733,25.6
	c0,0,22.4,39.467,23.467,78.933C163.2,265.6,163.2,269.867,162.133,274.133z"/>
<path style="fill:#415A6B;" d="M222.933,264.533c1.067,3.2,2.133,6.4,3.2,9.6h18.133c-4.267-29.867-10.667-58.667-17.067-73.6
	c-13.867-34.133-5.333-58.667-5.333-58.667s-14.933,4.267-22.4,13.867S188.8,176,188.8,176h12.8l-16,10.667
	C185.6,186.667,213.333,237.867,222.933,264.533z"/>
<circle style="fill:#66C6B9;" cx="57.6" cy="454.4" r="57.6"/>
<circle style="fill:#4ABAA5;" cx="57.6" cy="454.4" r="34.133"/>
<circle style="fill:#F3705A;" cx="160" cy="348.8" r="57.6"/>
<circle style="fill:#F05540;" cx="160" cy="348.8" r="34.133"/>
<circle style="fill:#FFD15C;" cx="320" cy="388.267" r="57.6"/>
<circle style="fill:#F7B64C;" cx="320" cy="388.267" r="34.133"/>
<circle style="fill:#415A6B;" cx="454.4" cy="454.4" r="57.6"/>
<circle style="fill:#344A5E;" cx="454.4" cy="454.4" r="34.133"/>
<g>
</g>
<g>
</g>
<g>
</g>
<g>
</g>
<g>
</g>
<g>
</g>
<g>
</g>
<g>
</g>
<g>
</g>
<g>
</g>
<g>
</g>
<g>
</g>
<g>
</g>
<g>
</g>
<g>
</g>
</svg>
