<?xml version="1.0" encoding="iso-8859-1"?>
<!-- Generator: Adobe Illustrator 19.0.0, SVG Export Plug-In . SVG Version: 6.00 Build 0)  -->
<svg version="1.1" id="Capa_1" xmlns="http://www.w3.org/2000/svg" xmlns:xlink="http://www.w3.org/1999/xlink" x="0px" y="0px"
	 viewBox="0 0 512 512" style="enable-background:new 0 0 512 512;" xml:space="preserve">
<path style="fill:#CED6E0;" d="M220.8,391.467c-26.667,0-48-21.333-48-48c0-7.467,6.4-13.867,13.867-13.867
	c7.467,0,13.867,6.4,13.867,13.867c0,11.733,9.6,21.333,21.333,21.333s21.333-9.6,21.333-21.333V12.8C242.133,6.4,248.533,0,256,0
	c7.467,0,13.867,6.4,13.867,13.867v330.667C269.867,370.133,247.467,391.467,220.8,391.467z"/>
<path style="fill:#415A6B;" d="M269.867,37.333V13.867C269.867,6.4,263.467,0,256,0c-7.467,0-13.867,6.4-13.867,13.867V38.4h27.733
	V37.333z"/>
<path style="fill:#55C0EB;" d="M88.533,218.667c28.8,0,55.467,10.667,75.733,28.8c21.333-27.733,54.4-44.8,91.733-44.8
	s70.4,18.133,91.733,44.8c20.267-18.133,46.933-28.8,75.733-28.8c18.133,0,34.133,4.267,49.067,11.733
	c0-119.467-97.067-216.533-216.533-216.533S39.467,110.933,39.467,230.4C54.4,222.933,71.467,218.667,88.533,218.667z"/>
<path style="fill:#8AD7F8;" d="M347.733,247.467c0,0-1.067-8.533-2.133-22.4c-1.067-13.867-3.2-34.133-8.533-58.667
	c-2.133-11.733-5.333-24.533-8.533-38.4c-3.2-13.867-8.533-26.667-13.867-40.533c-6.4-13.867-12.8-27.733-22.4-39.467
	c-9.6-11.733-22.4-21.333-36.267-22.4c-2.133,1.067-8.533,0-10.667,2.133c-1.067,1.067-3.2,1.067-4.267,2.133
	c-1.067,1.067-3.2,2.133-4.267,3.2c-6.4,4.267-11.733,9.6-16,14.933c-9.6,11.733-17.067,25.6-22.4,39.467
	c-5.333,13.867-10.667,27.733-13.867,40.533c-4.267,12.8-6.4,26.667-8.533,38.4c-4.267,23.467-6.4,43.733-8.533,58.667
	c-1.067,13.867-2.133,22.4-2.133,22.4s0-8.533-1.067-22.4c0-7.467,0-16,0-25.6c1.067-9.6,1.067-21.333,3.2-33.067
	c1.067-11.733,3.2-25.6,6.4-39.467c3.2-13.867,7.467-28.8,12.8-42.667c6.4-14.933,12.8-29.867,23.467-42.667
	c5.333-6.4,11.733-12.8,19.2-18.133c2.133-2.133,3.2-3.2,5.333-5.333l7.467-3.2l3.2,0h3.2L256,13.867
	c20.267,1.067,36.267,13.867,45.867,27.733c10.667,13.867,17.067,28.8,23.467,42.667c5.333,14.933,9.6,28.8,12.8,42.667
	c3.2,13.867,5.333,26.667,6.4,39.467c2.133,11.733,2.133,23.467,3.2,33.067c0,9.6,0,18.133,0,25.6
	C347.733,238.933,347.733,247.467,347.733,247.467z"/>
<g>
	<path style="fill:#344A5E;" d="M220.8,311.467v-28.8c0-3.2,3.2-6.4,6.4-6.4h57.6c3.2,0,6.4,3.2,6.4,6.4v28.8h22.4v-28.8
		c0-16-12.8-28.8-28.8-28.8h-57.6c-16,0-28.8,12.8-28.8,28.8v28.8H220.8z"/>
	<path style="fill:#344A5E;" d="M407.467,327.467V489.6c0,12.8-9.6,22.4-22.4,22.4H128c-12.8,0-22.4-10.667-22.4-22.4V327.467
		c0-12.8,10.667-22.4,22.4-22.4h256C396.8,304,407.467,314.667,407.467,327.467z"/>
</g>
<path style="fill:#415A6B;" d="M355.2,304v109.867c0,8.533-6.4,14.933-14.933,14.933H171.733c-8.533,0-14.933-6.4-14.933-14.933V304
	H355.2z"/>
<path style="fill:#E8EAE9;" d="M272,414.933v28.8c0,4.267-3.2,7.467-7.467,7.467h-17.067c-4.267,0-7.467-3.2-7.467-7.467v-28.8
	c0-4.267,3.2-7.467,7.467-7.467h17.067C268.8,406.4,272,410.667,272,414.933z"/>
<g>
</g>
<g>
</g>
<g>
</g>
<g>
</g>
<g>
</g>
<g>
</g>
<g>
</g>
<g>
</g>
<g>
</g>
<g>
</g>
<g>
</g>
<g>
</g>
<g>
</g>
<g>
</g>
<g>
</g>
</svg>
