<?xml version="1.0" encoding="iso-8859-1"?>
<!-- Generator: Adobe Illustrator 19.0.0, SVG Export Plug-In . SVG Version: 6.00 Build 0)  -->
<svg version="1.1" id="Capa_1" xmlns="http://www.w3.org/2000/svg" xmlns:xlink="http://www.w3.org/1999/xlink" x="0px" y="0px"
	 viewBox="0 0 511.867 511.867" style="enable-background:new 0 0 511.867 511.867;" xml:space="preserve">
<g>
	<ellipse style="fill:#F3705A;" cx="177.201" cy="214.534" rx="20.267" ry="38.4"/>
	<ellipse style="fill:#F3705A;" cx="240.134" cy="230.534" rx="30.933" ry="61.867"/>
</g>
<g>
	<path style="fill:#66C6B9;" d="M158.001,383.067c-6.4-50.133-12.8-93.867-17.067-97.067c0,0-35.2-3.2-43.733,2.133
		c-8.533,5.333-11.733,32-13.867,51.2c-1.067,4.267-2.133,10.667-2.133,17.067c9.6,10.667,13.867,16,22.4,26.667H158.001z"/>
	<path style="fill:#66C6B9;" d="M303.067,383.067c9.6-12.8,12.8-16,22.4-27.733c-2.133-10.667-4.267-22.4-7.467-34.133
		c-4.267-23.467-11.733-23.467-11.733-23.467l-18.133,8.533v2.133C290.267,312.667,296.667,346.801,303.067,383.067L303.067,383.067
		z"/>
	<path style="fill:#66C6B9;" d="M295.601,378.801c0,1.067,1.067,3.2,1.067,4.267l0,0c10.667,0,19.2-9.6,18.133-20.267
		c-1.067-6.4-1.067-10.667-2.133-12.8c-5.333-13.867-9.6-41.6-6.4-52.267c0,0-50.133-19.2-56.533-23.467l4.267,18.133
		C255.067,292.401,286.001,352.134,295.601,378.801z"/>
</g>
<path style="fill:#FFD15C;" d="M248.667,266.801l-6.4-11.733v-19.2c0,0,17.067-17.067,18.133-48
	c1.067-30.933-8.533-55.467-13.867-64s-33.067-16-33.067-16l-28.8,10.667l-19.2,23.467c0,0-3.2,52.267,9.6,78.933v17.067
	l-3.2,33.067c0,0,23.467,21.333,29.867,25.6c6.4,3.2,25.6,2.133,27.733,4.267l20.267,29.867v-35.2L248.667,266.801z"/>
<path style="fill:#E8EAE9;" d="M305.201,383.067v-1.067c-6.4-22.4-28.8-62.933-28.8-62.933l-24.533-36.267l1.067,46.933
	c0,0-19.2-26.667-20.267-29.867c-2.133-2.133-6.4-1.067-6.4-1.067c-10.667,2.133-39.467-9.6-39.467-9.6l-8.533,42.667l14.933,51.2
	L305.201,383.067L305.201,383.067z"/>
<path style="fill:#66C6B9;" d="M129.201,305.201c10.667,24.533,16,51.2,16,67.2c0,2.133,0,5.333,0,10.667h86.4
	c-33.067-86.4-60.8-123.733-61.867-131.2c0,0-14.933,20.267-21.333,23.467c-6.4,3.2-24.533,6.4-33.067,9.6
	c-4.267,1.067-9.6,3.2-12.8,4.267C107.867,286.001,121.734,287.067,129.201,305.201z"/>
<g>
	<path style="fill:#FFFFFF;" d="M176.134,236.934l-14.933,21.333c0,0,3.2,11.733,3.2,22.4s1.067,22.4,1.067,22.4
		s24.533-2.133,32-7.467c0,0,2.133,6.4,13.867,5.333c10.667-1.067,14.933-4.267,20.267-1.067c0,0-4.267-3.2-13.867-4.267
		c-9.6-1.067-13.867-2.133-16-4.267C199.601,289.201,178.267,250.801,176.134,236.934z"/>
	<path style="fill:#FFFFFF;" d="M242.267,255.067c0,0,11.733,19.2,18.133,26.667c6.4,7.467,16,17.067,18.133,17.067
		c0,0-5.333,1.067-11.733-3.2c-5.333-4.267-6.4-5.333-6.4-5.333s-3.2,4.267-5.333,14.933c-2.133,10.667-3.2,23.467-3.2,23.467
		s-4.267-17.067-5.333-26.667C245.467,293.467,244.401,275.334,242.267,255.067z"/>
</g>
<path style="fill:#F3705A;" d="M215.601,122.801c0,0-25.6-3.2-33.067,10.667s-13.867,61.867-12.8,83.2s7.467,42.667,21.333,57.6
	c0,0-11.733-1.067-23.467-7.467c0,0,5.333,10.667,10.667,13.867c0,0-22.4,1.067-34.133-21.333c-11.733-22.4-8.533-75.733,0-102.4
	c8.533-26.667,22.4-56.533,62.933-65.067s54.4,46.933,57.6,60.8c4.267,13.867,9.6,50.133,12.8,65.067
	c3.2,16-2.133,52.267-20.267,71.467c0,0,5.333-9.6,6.4-23.467c0,0-13.867,27.733-13.867,42.667c0,0-5.333-30.933,0-53.333
	c5.333-22.4,12.8-60.8,9.6-78.933S248.667,121.734,215.601,122.801z"/>
<path style="fill:#415A6B;" d="M361.734,361.734c-82.133,82.133-216.533,82.133-299.733,0s-82.133-216.533,0-299.733
	s216.533-82.133,299.733,0S443.867,278.534,361.734,361.734z M99.334,99.334c-61.867,61.867-61.867,162.133,0,224
	s162.133,61.867,224,0s61.867-162.133,0-224S161.201,37.467,99.334,99.334z"/>
<path style="fill:#344A5E;" d="M424.667,342.534l-82.133,82.133c-7.467,7.467-20.267,7.467-28.8,0l0,0
	c-7.467-7.467-7.467-20.267,0-28.8l82.133-82.133c7.467-7.467,20.267-7.467,28.8,0l0,0
	C432.134,321.201,432.134,334.001,424.667,342.534z"/>
<path style="fill:#F3705A;" d="M495.067,495.067L495.067,495.067c-22.4,22.4-59.733,22.4-82.133,0l-70.4-70.4l82.133-82.133
	l70.4,70.4C517.467,435.334,517.467,472.667,495.067,495.067z"/>
<g>
</g>
<g>
</g>
<g>
</g>
<g>
</g>
<g>
</g>
<g>
</g>
<g>
</g>
<g>
</g>
<g>
</g>
<g>
</g>
<g>
</g>
<g>
</g>
<g>
</g>
<g>
</g>
<g>
</g>
</svg>
