<?xml version="1.0" encoding="iso-8859-1"?>
<!-- Generator: Adobe Illustrator 19.0.0, SVG Export Plug-In . SVG Version: 6.00 Build 0)  -->
<svg version="1.1" id="Capa_1" xmlns="http://www.w3.org/2000/svg" xmlns:xlink="http://www.w3.org/1999/xlink" x="0px" y="0px"
	 viewBox="0 0 512 512" style="enable-background:new 0 0 512 512;" xml:space="preserve">
<path style="fill:#415A6B;" d="M512,32v448c0,18.133-13.867,32-32,32H32c-18.133,0-32-13.867-32-32V32C0,13.867,13.867,0,32,0h448
	C498.133,0,512,13.867,512,32z"/>
<rect x="53.333" y="53.333" style="fill:#E8EAE9;" width="404.267" height="174.933"/>
<circle style="fill:#415A6B;" cx="256" cy="140.8" r="27.733"/>
<path style="fill:#F7B64C;" d="M416,220.8v149.333c0,9.6-8.533,18.133-18.133,18.133H114.133c-9.6,0-18.133-8.533-18.133-18.133
	V186.667c0-9.6,8.533-18.133,18.133-18.133H172.8c6.4,0,12.8,4.267,16,9.6l18.133,24.533h190.933
	C407.467,202.667,416,211.2,416,220.8z"/>
<rect x="53.333" y="283.733" style="fill:#E8EAE9;" width="404.267" height="174.933"/>
<circle style="fill:#415A6B;" cx="256" cy="371.2" r="27.733"/>
<g>
</g>
<g>
</g>
<g>
</g>
<g>
</g>
<g>
</g>
<g>
</g>
<g>
</g>
<g>
</g>
<g>
</g>
<g>
</g>
<g>
</g>
<g>
</g>
<g>
</g>
<g>
</g>
<g>
</g>
</svg>
