<?xml version="1.0" encoding="iso-8859-1"?>
<!-- Generator: Adobe Illustrator 19.0.0, SVG Export Plug-In . SVG Version: 6.00 Build 0)  -->
<svg version="1.1" id="Capa_1" xmlns="http://www.w3.org/2000/svg" xmlns:xlink="http://www.w3.org/1999/xlink" x="0px" y="0px"
	 viewBox="0 0 512 512" style="enable-background:new 0 0 512 512;" xml:space="preserve">
<path style="fill:#E8EAE9;" d="M413.867,116.267v244.267c0,20.267-17.067,37.333-37.333,37.333h-339.2
	C17.067,397.867,0,380.8,0,360.533V116.267H413.867z"/>
<path style="fill:#66C6B9;" d="M413.867,116.267V37.333C413.867,17.067,396.8,0,376.533,0h-339.2C17.067,0,0,17.067,0,37.333v78.933
	H413.867z"/>
<g>
	<circle style="fill:#FFFFFF;" cx="100.267" cy="57.6" r="23.467"/>
	<circle style="fill:#FFFFFF;" cx="313.6" cy="57.6" r="23.467"/>
</g>
<g>
	<path style="fill:#415A6B;" d="M313.6,57.6c0,8.533-6.4,14.933-14.933,14.933H115.2c-8.533,0-14.933-6.4-14.933-14.933
		s6.4-14.933,14.933-14.933h183.467C306.133,42.667,313.6,49.067,313.6,57.6z"/>
	<rect x="54.4" y="163.2" style="fill:#415A6B;" width="45.867" height="42.667"/>
	<rect x="140.8" y="163.2" style="fill:#415A6B;" width="45.867" height="42.667"/>
	<rect x="227.2" y="163.2" style="fill:#415A6B;" width="45.867" height="42.667"/>
	<rect x="313.6" y="163.2" style="fill:#415A6B;" width="45.867" height="42.667"/>
	<rect x="54.4" y="235.733" style="fill:#415A6B;" width="45.867" height="42.667"/>
	<rect x="140.8" y="235.733" style="fill:#415A6B;" width="45.867" height="42.667"/>
	<rect x="227.2" y="235.733" style="fill:#415A6B;" width="45.867" height="42.667"/>
	<rect x="313.6" y="235.733" style="fill:#415A6B;" width="45.867" height="42.667"/>
	<rect x="54.4" y="307.2" style="fill:#415A6B;" width="45.867" height="42.667"/>
	<rect x="140.8" y="307.2" style="fill:#415A6B;" width="45.867" height="42.667"/>
	<rect x="227.2" y="307.2" style="fill:#415A6B;" width="45.867" height="42.667"/>
	<rect x="313.6" y="307.2" style="fill:#415A6B;" width="45.867" height="42.667"/>
</g>
<circle style="fill:#F3705A;" cx="345.6" cy="345.6" r="166.4"/>
<circle style="fill:#FFFFFF;" cx="345.6" cy="345.6" r="134.4"/>
<path style="fill:#415A6B;" d="M385.067,397.867c-3.2,0-6.4-1.067-8.533-3.2L337.067,355.2c-2.133-2.133-3.2-5.333-3.2-8.533v-73.6
	c0-6.4,5.333-12.8,12.8-12.8c6.4,0,12.8,5.333,12.8,12.8v68.267l36.267,36.267c5.333,5.333,5.333,12.8,0,18.133
	C391.467,396.8,388.267,397.867,385.067,397.867z"/>
<circle style="fill:#FFD15C;" cx="345.6" cy="345.6" r="26.667"/>
<g>
	<circle style="fill:#CED6E0;" cx="345.6" cy="237.867" r="9.6"/>
	<circle style="fill:#CED6E0;" cx="345.6" cy="453.333" r="9.6"/>
	<circle style="fill:#CED6E0;" cx="421.333" cy="268.8" r="9.6"/>
	<circle style="fill:#CED6E0;" cx="268.8" cy="421.333" r="9.6"/>
	<circle style="fill:#CED6E0;" cx="453.333" cy="345.6" r="9.6"/>
	<circle style="fill:#CED6E0;" cx="237.867" cy="345.6" r="9.6"/>
	<circle style="fill:#CED6E0;" cx="421.333" cy="421.333" r="9.6"/>
	<circle style="fill:#CED6E0;" cx="268.8" cy="268.8" r="9.6"/>
</g>
<g>
</g>
<g>
</g>
<g>
</g>
<g>
</g>
<g>
</g>
<g>
</g>
<g>
</g>
<g>
</g>
<g>
</g>
<g>
</g>
<g>
</g>
<g>
</g>
<g>
</g>
<g>
</g>
<g>
</g>
</svg>
