<?xml version="1.0" encoding="iso-8859-1"?>
<!-- Generator: Adobe Illustrator 19.0.0, SVG Export Plug-In . SVG Version: 6.00 Build 0)  -->
<svg version="1.1" id="Capa_1" xmlns="http://www.w3.org/2000/svg" xmlns:xlink="http://www.w3.org/1999/xlink" x="0px" y="0px"
	 viewBox="0 0 512 512" style="enable-background:new 0 0 512 512;" xml:space="preserve">
<path style="fill:#ADB3BA;" d="M434.667,0h-320c-16,0-28.8,12.8-28.8,29.867v413.867c0,16,12.8,29.867,29.867,29.867h320
	c16,0,29.867-12.8,29.867-29.867V29.867C464.534,12.8,451.734,0,434.667,0z"/>
<path style="fill:#E8EAE9;" d="M396.267,39.467h-246.4L46.4,142.933v339.2c0,16,12.8,29.867,29.867,29.867h320
	c16,0,29.867-12.8,29.867-29.867v-412.8C425.067,52.267,412.267,39.467,396.267,39.467z"/>
<path style="fill:#CED6E0;" d="M46.4,142.933H120c16,0,29.867-12.8,29.867-29.867v-73.6L46.4,142.933z"/>
<rect x="207.467" y="169.6" style="fill:#F7B64C;" width="56.53" height="86.4"/>
<g>
	<path style="fill:#FFD15C;" d="M272.534,153.6c0,0-6.4,49.067-36.267,49.067S202.134,163.2,202.134,160
		c0-4.267-5.333-29.867,3.2-49.067s39.467-21.333,53.333-13.867c13.867,7.467,16,8.533,17.067,18.133
		C276.799,123.733,274.667,147.2,272.534,153.6z"/>
	<path style="fill:#FFD15C;" d="M283.2,149.333c-1.067,7.467-4.267,13.867-8.533,13.867c-4.266,0-6.4-6.4-5.333-13.867
		c1.067-7.467,4.267-13.867,8.533-13.867C282.133,135.466,284.267,141.867,283.2,149.333z"/>
	<path style="fill:#FFD15C;" d="M189.334,149.333c1.067,7.467,4.267,13.867,8.533,13.867s6.4-6.4,5.333-13.867
		s-4.267-13.867-8.533-13.867C191.467,136.533,188.267,141.867,189.334,149.333z"/>
</g>
<path style="fill:#415A6B;" d="M200,148.267h1.067c0-6.4,0-17.067,3.2-22.4c3.2-4.267,5.333-8.533,5.333-11.733
	c0-4.267,4.267-8.533,8.533-7.467c13.867,3.2,27.733,3.2,40.533,0c4.267-1.067,8.533,2.133,8.533,7.467
	c0,3.2-1.067,7.467,2.133,11.733c3.2,5.333,4.267,16,3.2,22.4h2.133l0,0c3.2-5.333,5.333-11.733,5.333-18.133
	c2.133-14.933,1.067-38.4-20.267-46.933c-11.733-4.267-22.4-5.333-30.933-4.267c-17.067,2.133-30.933,14.933-33.067,32
	c-1.067,4.267-1.067,12.8,0,19.2C195.734,135.467,197.867,141.867,200,148.267z"/>
<polygon style="fill:#E8EAE9;" points="278.934,275.2 278.934,217.6 210.667,217.6 205.334,275.2 "/>
<polygon style="fill:#F05540;" points="254.4,275.2 243.734,241.067 227.734,241.067 217.067,275.2 "/>
<polygon style="fill:#F3705A;" points="243.734,241.213 252.267,233.6 236.267,217.6 219.2,233.6 227.734,241.213 "/>
<g>
	<path style="fill:#344A5E;" d="M216,275.2c-9.6-35.2-19.2-67.2-19.2-67.2l1.067-9.6l-35.2,9.6c-11.733,3.2-19.2,13.867-19.2,25.6
		v41.6H216L216,275.2z"/>
	<path style="fill:#344A5E;" d="M255.467,275.2H328v-40.533c0-11.733-7.467-22.4-19.2-25.6l-35.2-9.6l1.067,9.6
		C274.667,208,265.067,238.933,255.467,275.2z"/>
</g>
<path style="fill:#FFFFFF;" d="M265.067,186.667l-1.067-3.2c0,0,0,10.667-5.333,14.933c-5.333,4.267-23.467,19.2-23.467,19.2
	l17.067,29.867l19.2-40.533L265.067,186.667"/>
<path style="fill:#344A5E;" d="M270.4,275.2c10.667-23.467,20.267-44.8,20.267-44.8l-11.733-9.6h11.733l-24.533-33.067
	c-2.133,19.2-8.533,51.2-16,87.467L270.4,275.2L270.4,275.2z"/>
<path style="fill:#FFFFFF;" d="M206.4,186.667l1.067-1.067c0,0,0,7.467,5.333,11.733c5.333,4.267,23.467,19.2,23.467,19.2
	L219.2,246.4l-18.133-40.533C200,205.867,200,194.133,206.4,186.667"/>
<path style="fill:#344A5E;" d="M202.134,275.2h20.267c-8.533-36.267-14.933-68.267-16-87.467L181.867,220.8H193.6l-12.8,9.6
	C180.799,230.4,191.467,251.733,202.134,275.2z"/>
<g>
	<rect x="85.867" y="441.6" style="fill:#CED6E0;" width="300.8" height="30.933"/>
	<rect x="85.867" y="374.4" style="fill:#CED6E0;" width="300.8" height="30.933"/>
</g>
<rect x="85.867" y="307.2" style="fill:#F3705A;" width="300.8" height="30.933"/>
<g>
</g>
<g>
</g>
<g>
</g>
<g>
</g>
<g>
</g>
<g>
</g>
<g>
</g>
<g>
</g>
<g>
</g>
<g>
</g>
<g>
</g>
<g>
</g>
<g>
</g>
<g>
</g>
<g>
</g>
</svg>
