<?xml version="1.0" encoding="iso-8859-1"?>
<!-- Generator: Adobe Illustrator 19.0.0, SVG Export Plug-In . SVG Version: 6.00 Build 0)  -->
<svg version="1.1" id="Capa_1" xmlns="http://www.w3.org/2000/svg" xmlns:xlink="http://www.w3.org/1999/xlink" x="0px" y="0px"
	 viewBox="0 0 513.067 513.067" style="enable-background:new 0 0 513.067 513.067;" xml:space="preserve">
<path style="fill:#415A6B;" d="M336.533,120.533c0,58.667-48,134.4-106.667,134.4S123.2,179.2,123.2,120.533
	C123.2,29.867,171.2,0,229.867,0S336.533,29.867,336.533,120.533z"/>
<path style="fill:#344A5E;" d="M459.2,513.067L437.867,377.6c-7.467-28.8-30.933-51.2-59.733-55.467l-147.2-25.6L82.667,321.067
	C52.8,326.4,29.333,347.733,22.933,376.533l-22.4,136.533H459.2z"/>
<path style="fill:#F7B64C;" d="M170.133,251.733v38.4c0,32,59.733,54.4,59.733,54.4s59.733-22.4,59.733-54.4v-38.4L170.133,251.733
	L170.133,251.733z"/>
<polygon style="fill:#CED6E0;" points="265.067,513.067 304.533,346.667 293.867,336 229.867,344.533 158.4,336 182.933,513.067 "/>
<g>
	<polygon style="fill:#F05540;" points="244.8,384 256.533,371.2 229.867,344.533 203.2,371.2 214.933,384 	"/>
	<polygon style="fill:#F05540;" points="272.533,513.067 244.8,384 214.933,384 187.2,513.067 	"/>
</g>
<g>
	<path style="fill:#FFD15C;" d="M113.6,170.667c1.067,17.067,10.667,28.8,21.333,27.733c10.667-1.067,18.133-14.933,17.067-32
		c-1.067-16-10.667-28.8-21.333-27.733C120,139.733,112.533,153.6,113.6,170.667z"/>
	<path style="fill:#FFD15C;" d="M346.133,170.667c-1.067,17.067-10.667,28.8-21.333,27.733c-10.667-1.067-18.133-14.933-17.067-32
		c1.067-16,10.667-28.8,21.333-27.733C339.733,139.733,347.2,153.6,346.133,170.667z"/>
</g>
<polygon style="fill:#F3F3F3;" points="289.6,278.4 229.867,344.533 266.133,380.8 306.667,299.733 "/>
<path style="fill:#415A6B;" d="M302.4,513.067c18.133-32,34.133-114.133,43.733-149.333l-27.733-28.8l27.733-12.8l-49.067-35.2
	c-8.533,53.333-22.4,161.067-38.4,226.133H302.4z"/>
<polygon style="fill:#F3F3F3;" points="170.133,278.4 229.867,344.533 193.6,380.8 153.067,299.733 "/>
<path style="fill:#415A6B;" d="M157.333,513.067h44.8c-17.067-65.067-29.867-172.8-38.4-226.133l-49.067,35.2l27.733,12.8
	l-27.733,28.8C124.267,398.933,139.2,480,157.333,513.067z"/>
<path style="fill:#FFD15C;" d="M238.4,98.133c-22.4,0-42.667-4.267-59.733-11.733c-11.733-5.333-25.6,0-29.867,11.733
	c-8.533,19.2-12.8,40.533-12.8,64c0,70.4,42.667,128,94.933,128s94.933-57.6,94.933-128c0-20.267-3.2-40.533-10.667-57.6
	C310.933,92.8,298.133,86.4,286.4,90.667C272.533,94.933,256.533,98.133,238.4,98.133z"/>
<circle style="fill:#55C0EB;" cx="400.533" cy="398.933" r="112"/>
<g>
	<path style="fill:#F3F3F3;" d="M365.333,433.067C364.267,433.067,364.267,432,365.333,433.067c-2.133-1.067-2.133-2.133-3.2-2.133
		l-1.067-1.067H360c0,0,0,0-1.067,0c-1.067,1.067-1.067,0-2.133-1.067c-1.067-1.067-3.2-1.067-4.267,0c0,0,0,0-1.067,1.067
		c0-1.067,1.067-1.067,1.067-2.133c-2.133-1.067-2.133,1.067-4.267,2.133c1.067-1.067,1.067-2.133,2.133-3.2
		c1.067-1.067,1.067-2.133,0-3.2s-1.067-2.133-3.2-3.2s-1.067-1.067-3.2,0l0,0c-1.067-1.067-1.067-2.133-2.133-2.133
		c0,0,0-1.067-1.067-1.067c-2.133,0-2.133-1.067-2.133-3.2c-1.067,0-2.133,0-3.2,1.067c-1.067,0-3.2,0-3.2,0
		c-1.067,0-2.133-2.133-3.2-2.133c-1.067,0-2.133-1.067-2.133,1.067l0,0c-1.067,0-2.133,0-2.133,2.133c0,0,0,0,0,1.067
		c0,0-1.067,1.067-1.067,2.133l0,0c-1.067-1.067-2.133-1.067-3.2-1.067s-2.133,0-2.133-1.067c0,0,0-1.067-1.067-1.067v-1.067
		c0-1.067,0-3.2,1.067-4.267c-1.067,0-2.133-2.133-4.267,0c0-1.067,0-2.133,0-3.2s1.067-2.133,1.067-3.2s0-1.067-1.067-1.067
		s-2.133,0-3.2,1.067c-1.067,2.133-4.267,3.2-6.4,1.067c0,0,0,0,0-1.067s-1.067-3.2-1.067-4.267c0-1.067,0-3.2,1.067-4.267
		c0,0,0,0,0-1.067c1.067-1.067,1.067-1.067,2.133-2.133l1.067-1.067l1.067,1.067c0-1.067,1.067-1.067,1.067-1.067l0,0v1.067
		c1.067,0,1.067,0,2.133,0c0-1.067,0-1.067,0-1.067c1.067-1.067,2.133-1.067,3.2-1.067h1.067c1.067,0,2.133,1.067,2.133,2.133
		c0,2.133,0,4.267,3.2,5.333c0-1.067,0-1.067,0-2.133c0-1.067-1.067-3.2-1.067-4.267c0-1.067,0-2.133,0-3.2s2.133-2.133,2.133-2.133
		l1.067-1.067c2.133-1.067,3.2-2.133,1.067-4.267l0,0c1.067-1.067,2.133-1.067,1.067-3.2c0,0,0-1.067,1.067-1.067
		c1.067-1.067,2.133-2.133,4.267-2.133l0,0c-1.067-1.067-1.067-2.133,1.067-2.133c1.067-1.067,3.2-2.133,4.267-3.2L337.6,368h1.067
		l0,0c-1.067,1.067-1.067,1.067-2.133,2.133c0,0,0,1.067-1.067,1.067h1.067c1.067,0,1.067-1.067,2.133-1.067
		s1.067-1.067,2.133-1.067c-1.067,0-1.067-1.067-2.133-1.067l0,0c-2.133-1.067-2.133-1.067-1.067-3.2
		c-2.133-2.133-3.2,1.067-4.267,1.067c1.067-1.067,3.2-3.2,4.267-3.2c1.067,0,3.2,0,4.267,0h1.067
		c1.067-1.067,2.133-1.067,3.2-1.067c0,0,1.067,0,1.067-1.067s0-2.133-1.067-3.2h-1.067c0,0-1.067,0-1.067,1.067l0,0
		c1.067-1.067,1.067-1.067,2.133-2.133c-1.067,0-2.133-1.067-2.133-1.067c0-1.067-1.067-1.067-1.067-2.133c0,0,0,0,1.067-1.067
		c-1.067-1.067-2.133-3.2-2.133-4.267c-1.067,2.133-2.133,4.267-4.267,3.2c0,0,0,0,0-1.067s0-2.133,0-3.2
		c-1.067-1.067-1.067-1.067-2.133-2.133H334.4c-1.067,0-2.133,0-3.2-1.067c-1.067,1.067-1.067,2.133-1.067,3.2s0,2.133-1.067,2.133
		v1.067c0,1.067,0,2.133,1.067,3.2c0,0,0,1.067-1.067,1.067c-1.067,0-1.067,1.067-1.067,2.133c0,1.067,0,2.133,0,3.2
		c-1.067,0-1.067,0-1.067,0c-1.067,1.067-2.133,0-2.133-1.067s0-2.133,0-3.2c0,0,0-1.067-1.067-1.067
		c-2.133,0-3.2-1.067-4.267-2.133c-1.067,0-1.067-1.067-2.133-1.067c-2.133,0-2.133,0-2.133-2.133c0,0,0-1.067-1.067-1.067
		s-1.067-1.067-1.067-2.133c1.067-2.133,2.133-3.2,4.267-4.267c1.067-1.067,2.133-2.133,4.267-3.2l1.067-1.067
		c0,0-1.067,0-1.067-1.067l-1.067-1.067l0,0h1.067c1.067,0,2.133,1.067,2.133-1.067c0-1.067,1.067-1.067,2.133,0
		c0,1.067,1.067,1.067,1.067,0c1.067,0,1.067-1.067,2.133-1.067c0-1.067-1.067-2.133,0-2.133l0,0c0-1.067-1.067-1.067-2.133-1.067
		c-1.067,0-1.067,0-1.067,1.067c0,0,0,1.067-1.067,1.067l-1.067,1.067c0,0,0,0-1.067,1.067V332.8c0-1.067,0-2.133,0-2.133l0,0
		l-1.067,1.067c0-1.067,0-1.067-1.067-2.133c-1.067-1.067-1.067-1.067-1.067-2.133c0,0,0-1.067-1.067-1.067h-1.067
		c-1.067,1.067-1.067,1.067-2.133,2.133c2.133,2.133,2.133,3.2-1.067,4.267c-1.067-1.067-1.067-1.067-3.2,0l0,0
		c-1.067,0-1.067,0-2.133,0c-11.733,17.067-18.133,36.267-20.267,58.667l0,0c0,1.067,1.067,2.133,2.133,3.2
		c1.067,1.067,2.133,3.2,2.133,5.333c2.133,1.067,3.2,2.133,5.333,3.2c1.067,1.067,3.2,2.133,4.267,1.067c2.133,0,3.2,0,4.267,1.067
		c0,0,1.067,1.067,2.133,1.067c1.067,0,3.2,1.067,3.2,2.133c0,1.067,1.067,2.133,1.067,3.2c1.067,1.067,2.133,0,2.133,2.133l0,0
		c1.067,0,1.067,0,2.133,1.067h1.067v-1.067c0,0,0,0,0-1.067c1.067,1.067,1.067,1.067,1.067,1.067c0,1.067,1.067,2.133,1.067,4.267
		c0,1.067,1.067,2.133-1.067,2.133c0,0,0,0,0,1.067L318.4,422.4c0,0,0,1.067-1.067,1.067c-1.067,1.067-1.067,3.2,0,4.267
		c0,0,0,0,0,1.067c-1.067,0-1.067,1.067-1.067,1.067c0,1.067,0,1.067,1.067,1.067c0,1.067,1.067,2.133,1.067,4.267
		c1.067,2.133,2.133,3.2,2.133,5.333c0,2.133,2.133,3.2,3.2,3.2c2.133,1.067,4.267,3.2,4.267,5.333c0,1.067,0,2.133,0,4.267
		c0,1.067,1.067,1.067,0,2.133c0,0,0,0,0,1.067s0,2.133-1.067,4.267c0,1.067-1.067,3.2,0,3.2c1.067,2.133,0,3.2,0,5.333
		c0,1.067,0,2.133,0,3.2s0,2.133,0,3.2s0,2.133,0,3.2c0,0,1.067,0,1.067,1.067s0,2.133,0,3.2v1.067c2.133,2.133,4.267,3.2,6.4,5.333
		c1.067,0,1.067-1.067,1.067-2.133c0,0,0-1.067,1.067-1.067c1.067-1.067,1.067-2.133,0-2.133c-1.067,0-1.067-1.067-1.067-2.133
		c1.067-1.067,1.067-2.133,2.133-3.2s0-2.133,0-2.133v-1.067l0,0c0,0,0,0,1.067,0h1.067c0-1.067,0-1.067,0-2.133
		c0-1.067,0-1.067,1.067-1.067c1.067,0,2.133-1.067,4.267-1.067V470.4c0-1.067,0-1.067-1.067-2.133c0,0,0,0-1.067,0
		c0-1.067,1.067-1.067,2.133,0c1.067,0,1.067,0,2.133,0c1.067-1.067,2.133-2.133,2.133-3.2s0-1.067,0-2.133l0,0V464l0,0
		c0-1.067,1.067-2.133,1.067-2.133V460.8c1.067,0,1.067-1.067,1.067-2.133c0-2.133,1.067-3.2,2.133-4.267
		c1.067-1.067,3.2-1.067,5.333-2.133c0-1.067,1.067-2.133,1.067-3.2s0-2.133,0-2.133c1.067-1.067,1.067-2.133,0-4.267
		c0-1.067,0-2.133,0-2.133c1.067,0,1.067-1.067,1.067-2.133c0,0,0,0,0-1.067c1.067-1.067,2.133-2.133,2.133-4.267l0,0
		C364.267,434.133,365.333,433.067,365.333,433.067z"/>
	<path style="fill:#F3F3F3;" d="M288.533,398.933L289.6,400v-1.067c0-1.067-1.067-1.067-1.067-2.133
		C288.533,396.8,288.533,397.867,288.533,398.933z"/>
	<path style="fill:#F3F3F3;" d="M380.267,330.667c-1.067,1.067-2.133,2.133-4.267,3.2c-1.067,0-1.067,0-2.133,0
		c-2.133-1.067-3.2,0-3.2,2.133c0,1.067-1.067,2.133-2.133,2.133c-1.067,0-2.133,0-3.2,0s-1.067,1.067-1.067,1.067
		c0,1.067,0,1.067-1.067,2.133c0,1.067-1.067,2.133-1.067,3.2s0,1.067-1.067,2.133c-1.067,1.067-2.133,1.067-2.133,0l-1.067-1.067
		c-1.067,0-2.133-1.067-2.133-2.133c-2.133-2.133-3.2-4.267-3.2-6.4c0-1.067,0-1.067,0-2.133c0-1.067,0-1.067,1.067-2.133
		c0,0,1.067,0,1.067-1.067c1.067-1.067,0-2.133-1.067-2.133h-1.067c1.067-1.067,2.133,0,1.067-2.133c0,0-1.067,0-2.133,0
		c0-1.067,0-2.133-1.067-3.2c0-1.067-1.067-3.2-1.067-4.267c0-1.067-1.067-1.067-3.2-1.067c-1.067,0-3.2,0-4.267,0
		c-2.133,0-3.2-1.067-3.2-2.133c1.067,0,1.067,0,1.067,0h1.067c0-1.067-1.067-1.067-2.133-1.067c-1.067,0-1.067,0-2.133,0
		c0,0,0,0-1.067,0c0,0,0-1.067,1.067-1.067s2.133-1.067,3.2-2.133c0,0,1.067-1.067,2.133-1.067c1.067,0,1.067,0,1.067-1.067
		c0-1.067,0-1.067,1.067-1.067s2.133,0,3.2-1.067c1.067-2.133,3.2-2.133,5.333-1.067c0,0,0,0,1.067,0v-1.067
		c1.067,0,1.067,0,1.067,1.067c0,1.067,1.067,1.067,2.133,1.067v-2.133c1.067,0,3.2,0,3.2,1.067l0,0c0-1.067,0-2.133,0-3.2
		c1.067,0,1.067,1.067,2.133,1.067c1.067,0,1.067,1.067,2.133,0c1.067-2.133,3.2-2.133,5.333-2.133h1.067h2.133l0,0
		c0,0,0,0,1.067,1.067c0,0,0,0-1.067,0s-1.067,0-2.133,0c0,0-1.067,0-1.067,1.067h1.067c1.067,0,2.133-1.067,3.2-1.067
		s3.2,0,4.267,0c0,0,1.067,0,1.067,1.067c-3.2,1.067-6.4,1.067-9.6,2.133c0,0,0,0,0,1.067c1.067,0,1.067,0,2.133,0
		c1.067,0,1.067,0,2.133-1.067c2.133,0,2.133,0,2.133,2.133c1.067-1.067,2.133-1.067,3.2-2.133l0,0
		c-1.067,1.067-1.067,2.133-2.133,2.133l0,0c1.067,0,1.067,0,2.133-1.067c2.133-2.133,5.333-2.133,7.467-2.133h1.067
		c0,0,0,1.067-1.067,1.067c-1.067,1.067-3.2,1.067-4.267,1.067c-1.067,0-1.067,0-2.133,1.067c0,0,1.067,0,2.133,1.067
		c-1.067,1.067-3.2,1.067-3.2,4.267c1.067,0,1.067,0,2.133,0c0,0,1.067,0,1.067,1.067c0,1.067,0,1.067-1.067,1.067l-1.067,1.067
		l1.067,1.067c0,0,0,0,1.067,0c0,2.133-1.067,2.133-2.133,2.133v1.067c-1.067,0-1.067,1.067-2.133,1.067h-1.067
		c0,0-1.067,0-1.067,1.067c0,0,0,1.067,1.067,1.067s2.133,1.067,2.133,2.133v1.067h-1.067l-1.067-1.067c0,0-1.067,0-2.133,0
		l-1.067,1.067l1.067,1.067c1.067,0,2.133,0,3.2,0C380.267,330.667,380.267,330.667,380.267,330.667z"/>
	<path style="fill:#F3F3F3;" d="M473.067,438.4c1.067,2.133,3.2,3.2,2.133,6.4c0,1.067,0,2.133,0,4.267c0,1.067,0,2.133-1.067,2.133
		c-1.067,1.067-1.067,1.067-2.133,2.133v1.067c-1.067,1.067-1.067,2.133-2.133,3.2c0,1.067-1.067,1.067-2.133,1.067
		c-3.2,2.133-5.333,1.067-8.533,0c-1.067,0-1.067-1.067,0-2.133v-1.067c0,0,0-1.067-1.067-1.067c0,0-1.067,0-1.067,1.067l0,0
		c0-1.067,1.067-2.133,1.067-2.133l0,0c-1.067,1.067-1.067,2.133-2.133,2.133c0-1.067-1.067-2.133-1.067-3.2
		c-1.067-1.067-3.2-1.067-4.267-1.067c-1.067,0-2.133,0-2.133,1.067c-1.067,0-2.133,0-2.133,1.067
		c-1.067,2.133-3.2,2.133-5.333,1.067c-1.067,0-1.067,0-1.067,1.067h-1.067c0,0-1.067,0-1.067-1.067
		c-1.067-1.067-1.067-2.133,0-2.133c1.067-1.067,1.067-1.067,0-2.133v-1.067c0-1.067,0-1.067-1.067-2.133c0-1.067,0-2.133-1.067-3.2
		l0,0c0,0,1.067,0,1.067,1.067l0,0v-1.067c0-1.067-1.067-1.067-1.067-2.133c0-1.067,0-1.067,1.067-1.067h1.067
		c1.067-1.067,2.133-2.133,4.267-2.133c1.067,0,3.2-1.067,3.2-2.133c0-1.067,0-1.067,1.067-2.133h1.067
		c1.067-1.067,1.067-1.067,2.133-2.133l1.067-1.067l1.067-1.067l1.067,1.067l1.067,1.067l1.067-1.067
		c0-1.067,1.067-2.133,2.133-2.133c0,0,0,0,1.067,0l-1.067-1.067l0,0c2.133,1.067,4.267,1.067,6.4,2.133
		c-1.067,1.067-1.067,2.133-2.133,3.2c1.067,1.067,3.2,2.133,4.267,3.2c1.067,1.067,2.133,0,2.133-2.133c0-1.067,0-1.067,0-2.133
		c0-2.133,0-3.2,1.067-4.267c1.067,1.067,1.067,1.067,1.067,2.133c0,1.067,0,2.133,1.067,2.133c1.067,1.067,2.133,3.2,2.133,4.267
		c0,1.067,0,2.133,1.067,2.133l1.067,1.067C472,437.333,473.067,437.333,473.067,438.4z"/>
	<path style="fill:#F3F3F3;" d="M510.4,377.6l-1.067-1.067c0,0,0,0,1.067-1.067c-4.267-20.267-13.867-38.4-26.667-52.267h-1.067
		c-1.067,0-3.2,0-4.267,1.067h-1.067l0,0l1.067-1.067c1.067-1.067,2.133-1.067,3.2-2.133l0,0c-1.067-1.067-2.133-2.133-4.267-4.267
		h-1.067c-1.067,1.067-1.067,0-1.067,0l-1.067-1.067c-1.067-1.067-2.133,0-2.133,0c0,1.067-1.067,1.067,0,3.2h-5.333
		c0-1.067-1.067,0-2.133,0L463.467,320c-1.067,0-3.2,1.067-4.267,1.067c0,0,0,0,0,1.067v1.067l1.067,1.067c-1.067,0-3.2,0-4.267,0
		c-1.067,0-1.067,0-1.067,1.067c0,1.067,0,1.067,1.067,1.067s2.133,2.133,1.067,2.133c-1.067-1.067-2.133-1.067-3.2-2.133l0,0H452.8
		v1.067v1.067l0,0c-1.067,0-1.067-1.067-2.133-1.067c0-1.067,0-1.067-1.067-2.133c-1.067,0-1.067,3.2-1.067,3.2c0,0,0,1.067,0,2.133
		c0,0,0,1.067,1.067,1.067h1.067l0,0c1.067,1.067,2.133,2.133,3.2,3.2l0,0c-1.067-1.067-1.067-1.067-2.133-2.133
		c-1.067-1.067-1.067-1.067-2.133,1.067c0,1.067,0,1.067-1.067,2.133c0,1.067-1.067,1.067-2.133,1.067c0,0-1.067,0-1.067-1.067
		l1.067-1.067c2.133-1.067,2.133-1.067,1.067-3.2c0-1.067,0-1.067-1.067-2.133c0-2.133-1.067-3.2-1.067-5.333
		c0-1.067-1.067-1.067-1.067-1.067l-1.067,1.067v1.067v1.067c-1.067,1.067-1.067,1.067,0,2.133c1.067,1.067,1.067,2.133,2.133,3.2
		c-1.067,1.067-1.067,1.067-1.067,0c-3.2-1.067-5.333-1.067-6.4-1.067s-1.067,0-1.067,1.067s0,1.067-1.067,1.067v-1.067l0,0
		c-1.067,2.133-3.2,1.067-4.267,2.133c0,0,0-1.067-1.067-1.067c-1.067,1.067-3.2,2.133-4.267,3.2
		c-1.067,1.067-2.133,1.067-2.133-1.067c0-1.067-1.067-2.133-2.133-1.067c0,1.067,1.067,3.2,1.067,4.267l0,0
		c-1.067-1.067-2.133-1.067-3.2,0l0,0c-1.067,0-1.067,1.067,0,1.067v1.067c0,0-1.067,0-1.067,1.067l0,0c0-1.067,0-1.067-1.067-1.067
		h-1.067l1.067,1.067c0,0,0,0,0,1.067c0,0,0,0-1.067,0c0,0-1.067,0-1.067-1.067c-1.067-1.067-1.067-3.2-2.133-4.267
		c2.133,0,3.2,1.067,4.267,0l1.067-1.067l-1.067-1.067c-2.133-1.067-4.267-2.133-6.4-3.2l-1.067-1.067
		c0-1.067-1.067-1.067-2.133-1.067c-1.067,0-1.067,0-1.067,0l0,0l0,0c-1.067,0-1.067,0-1.067,0v1.067H404.8c0,0,0,0-1.067,0h-1.067
		H401.6l1.067,1.067c-1.067,1.067-1.067,1.067-1.067,2.133c-1.067,0-1.067,0-2.133,1.067c-2.133,0-3.2,2.133-4.267,4.267
		c0,1.067-1.067,2.133-2.133,2.133v1.067c-1.067,1.067-3.2,1.067-4.267,2.133c-1.067,1.067-1.067,2.133,0,3.2c0,0,0,0,0,1.067
		s0,2.133,0,3.2c1.067,0,2.133-1.067,3.2-1.067s2.133-1.067,2.133,0c1.067,1.067,1.067,2.133,2.133,4.267v1.067h1.067
		c1.067-1.067,2.133-2.133,2.133-3.2V352c1.067-1.067,1.067-1.067,0-2.133c0,0,1.067,0,1.067-1.067s-1.067-1.067-1.067-1.067
		c-1.067-1.067,0-3.2,1.067-4.267c1.067,0,2.133-2.133,2.133-3.2c0-1.067,1.067-2.133,2.133-1.067c1.067,0,2.133,0,2.133,2.133
		h-1.067l0,0c-1.067,1.067-1.067,1.067-2.133,2.133c-1.067,0-1.067,1.067-1.067,2.133c0,1.067,0,2.133,1.067,2.133
		c1.067,1.067,2.133,1.067,3.2,1.067c1.067-1.067,2.133-1.067,2.133,1.067H408c-1.067-1.067-2.133,0-3.2,0
		c-1.067,1.067-1.067,1.067,0,1.067V352h-1.067c0,0,0-1.067-1.067-1.067c0,1.067,0,1.067-1.067,2.133c0,1.067,0,2.133-1.067,3.2
		c0,1.067-1.067,1.067-2.133,1.067h-1.067c-1.067,1.067-2.133,1.067-4.267,1.067c-1.067,0-1.067,0-2.133-1.067
		c0-1.067,0-1.067,0-2.133c0-1.067,0-2.133,0-2.133l-1.067,1.067c-1.067,0-1.067,1.067-1.067,2.133
		c1.067,1.067,1.067,2.133,1.067,3.2c-2.133,1.067-4.267,0-4.267,3.2h-1.067c-1.067,0-1.067,0-1.067,1.067s-1.067,1.067-2.133,2.133
		c0,0-1.067,0-1.067-1.067l0,0v1.067c0,0-1.067,0-2.133,1.067h-1.067V368c2.133,0,2.133,2.133,2.133,2.133
		c0,1.067-1.067,2.133-1.067,3.2c-2.133,0-3.2,0-4.267-1.067H372.8c-1.067,0-2.133,1.067-1.067,2.133v1.067v1.067
		c0,0,0,1.067-1.067,1.067c-1.067,1.067-1.067,1.067,0,2.133c0,0,0,0,0,1.067s1.067,1.067,2.133,1.067h1.067
		c0,1.067,1.067,1.067,2.133,1.067h1.067c1.067,1.067,1.067-1.067,2.133-1.067c0,0,0-1.067,1.067-1.067l0,0
		c-1.067-1.067,0-2.133,1.067-2.133c1.067-1.067,2.133-2.133,2.133-3.2l1.067-1.067c1.067,0,2.133,0,2.133,1.067
		c1.067,0,1.067-1.067,2.133-1.067c1.067-1.067,1.067,0,1.067,0c0,1.067,1.067,2.133,2.133,2.133c1.067,1.067,2.133,1.067,3.2,2.133
		c0,0,1.067,1.067,0,1.067v1.067l0,0l1.067-1.067c0-1.067,0-1.067,1.067-1.067c0,0,0,0,1.067,0
		c-1.067-1.067-1.067-2.133-2.133-2.133l0,0c-1.067,0-1.067,0-1.067-1.067c-1.067-1.067-1.067-2.133-2.133-2.133
		c-1.067-1.067,0-2.133,0-3.2c1.067,3.2,3.2,4.267,6.4,6.4c0,1.067,1.067,4.267,3.2,4.267H401.6c0,1.067,1.067,2.133,2.133,1.067
		c0,0,0,0,0-1.067h1.067c-1.067,0-1.067-1.067-2.133-1.067c0,0,1.067,0,1.067-1.067l0,0c0-1.067,1.067-1.067,1.067-1.067
		c1.067,0,1.067,0,1.067-1.067v-1.067c0-1.067,1.067-2.133,1.067-4.267c1.067,1.067,1.067,0,1.067,0v-1.067c0,0,0-1.067,1.067-1.067
		c0,0,1.067,0,1.067,1.067l1.067,1.067c0,0-1.067,1.067-1.067,2.133c2.133,0,3.2,0,4.267-1.067c-1.067,0-1.067-1.067-2.133-1.067
		v-1.067c1.067,0,2.133-1.067,4.267-1.067c0,0,0,0,1.067,0c0,0,0,0,0,1.067c-1.067,1.067-1.067,1.067-2.133,2.133
		c2.133,1.067,3.2,2.133,4.267,3.2c1.067,0,1.067,1.067,1.067,2.133l-1.067,1.067c-2.133,0-3.2,0-4.267-1.067H414.4
		c-2.133,0-3.2,1.067-5.333,1.067H408c0,1.067-1.067,1.067-1.067,2.133v1.067v1.067C408,384,408,384,409.067,385.067h1.067h1.067
		c1.067,0,1.067,0,2.133,0c1.067,0,1.067,0,2.133,0c0,1.067,0,3.2-1.067,4.267c-1.067,2.133-1.067,2.133-3.2,2.133
		c-1.067,0-2.133,0-2.133,1.067c-1.067,0-3.2-1.067-4.267-1.067c0,0-3.2-2.133-4.267-2.133c-1.067,0-1.067,1.067-1.067,2.133
		c0,1.067,0,1.067-1.067,1.067s-2.133-1.067-3.2-1.067l0,0l-1.067-1.067c-1.067,0-2.133,0-3.2-1.067c-1.067,0,0-1.067,0-1.067
		c1.067,0,1.067-1.067,0-2.133v-1.067c-1.067,0-1.067,0-2.133,0c-2.133,0-4.267,0-6.4,0c-1.067,0-3.2,1.067-4.267,2.133h-1.067
		c-1.067,0-2.133-1.067-2.133-1.067l-1.067,1.067c0,0,0,1.067-1.067,1.067s-2.133,1.067-2.133,2.133c0,2.133,0,3.2-2.133,4.267
		c-1.067,0-1.067,1.067-2.133,1.067c0,1.067,0,1.067,0,1.067c-1.067,1.067-1.067,2.133-2.133,3.2
		c-1.067,2.133-1.067,4.267-1.067,7.467c0,2.133,0,3.2-2.133,4.267c2.133,1.067,1.067,2.133,1.067,3.2
		c1.067,0,1.067,1.067,1.067,1.067c1.067,1.067,1.067,2.133,2.133,3.2c1.067,1.067,2.133,2.133,3.2,4.267
		c0,1.067,1.067,1.067,2.133,1.067h1.067c1.067-2.133,3.2-1.067,5.333-1.067h1.067c1.067,0,2.133-1.067,3.2-1.067
		c1.067-1.067,3.2,0,3.2,1.067s1.067,1.067,1.067,1.067c1.067,0,2.133,0,3.2,1.067l1.067,1.067c0,1.067,0,2.133,0,2.133
		c0,1.067,0,1.067,0,2.133l0,0c1.067,1.067,1.067,1.067,2.133,2.133c1.067,1.067,3.2,2.133,2.133,4.267l0,0
		c0,1.067,1.067,2.133,1.067,3.2s0,2.133,1.067,2.133v1.067c-1.067,1.067-1.067,2.133-2.133,3.2c0,1.067-1.067,3.2,0,4.267
		c1.067,2.133,2.133,3.2,2.133,5.333c0,1.067,0,3.2,0,5.333l1.067,1.067c0,1.067,1.067,2.133,1.067,3.2s2.133,2.133,0,3.2l0,0
		c0,1.067,1.067,1.067,2.133,1.067c0,0,1.067,0,2.133,0c1.067-1.067,2.133-1.067,3.2,0c1.067,0,2.133-1.067,3.2-1.067l1.067-1.067
		c1.067,0,1.067-1.067,1.067-2.133c1.067-1.067,1.067-1.067,2.133-2.133v-1.067l1.067-1.067c0-1.067,0-2.133,0-3.2
		c2.133,0,3.2-2.133,2.133-4.267c-1.067-1.067,0-3.2,1.067-3.2c0,0,0,0,1.067-1.067s1.067-1.067,2.133-2.133
		c1.067-1.067,2.133-1.067,2.133-3.2s0-4.267-1.067-5.333c0-1.067-1.067-3.2,0-5.333c0,0,0,0,0-1.067s0-1.067,1.067-2.133
		c2.133-2.133,3.2-4.267,5.333-5.333c2.133-1.067,3.2-3.2,4.267-5.333c1.067-2.133,2.133-4.267,2.133-5.333c0,0,0-1.067-1.067-1.067
		h-1.067c-1.067,0-2.133,1.067-3.2,1.067c-1.067,1.067-5.333,0-5.333-1.067c0,0,0,0,0-1.067s-1.067-3.2-2.133-3.2
		c-1.067-1.067-1.067-2.133-2.133-4.267c0-1.067-1.067-1.067-1.067-2.133c0-1.067-1.067-2.133-1.067-2.133s-1.067-1.067,0-2.133
		c0-1.067,0-1.067,0-2.133c-1.067-1.067-2.133-2.133-2.133-3.2s-1.067-1.067-1.067-2.133l0,0l1.067,1.067c0,0,0,1.067,1.067,1.067
		s2.133,1.067,2.133,2.133c0,0,0,1.067,1.067,1.067c1.067,1.067,1.067,2.133,2.133,3.2c1.067,2.133,2.133,4.267,4.267,6.4
		c0,1.067,1.067,2.133,1.067,2.133c0,1.067,0,1.067,0,2.133c0,1.067,1.067,1.067,1.067,1.067s1.067,0,1.067-1.067
		c1.067-1.067,2.133-1.067,3.2-1.067s2.133-1.067,3.2-1.067l0,0c0-1.067,1.067-1.067,2.133-2.133c0,0,0,0,1.067,0
		c1.067-1.067,2.133-2.133,3.2-2.133c0-1.067,0-2.133,1.067-3.2c0,0,0-1.067,0-2.133l-1.067-1.067c-1.067,0-2.133-1.067-2.133-2.133
		c-1.067,1.067-1.067,2.133-2.133,2.133c-1.067,0-2.133,0-3.2-1.067c0-1.067,0-1.067-1.067-2.133c-1.067-1.067-3.2-2.133-3.2-4.267
		h3.2c0,1.067,1.067,2.133,2.133,3.2c2.133,1.067,3.2,1.067,4.267,0c0,0,0,0,0,1.067c0,2.133,1.067,2.133,3.2,2.133
		c1.067,0,2.133,0,2.133,0s0,0,0-1.067c1.067,0,1.067,1.067,2.133,1.067c1.067,0,1.067,0,2.133,0l0,0
		c1.067,1.067,2.133,2.133,3.2,3.2c0,1.067,0,1.067,1.067,2.133c0,0,1.067,1.067,2.133,1.067c0,0,1.067-1.067,1.067-2.133
		c0,1.067,0,3.2,0,4.267c0,1.067,0,3.2,1.067,4.267c1.067,3.2,2.133,5.333,3.2,7.467c0,1.067,1.067,1.067,2.133,1.067
		c1.067-1.067,2.133-2.133,1.067-3.2v-1.067c1.067-1.067,0-1.067,0-2.133c0-1.067,0-2.133,1.067-2.133l1.067-1.067
		c0-1.067,2.133-2.133,2.133-2.133c1.067-1.067,2.133-1.067,2.133-3.2l1.067-1.067h1.067c1.067-1.067,1.067-1.067,1.067-2.133l0,0
		l0,0c0,2.133,1.067,3.2,2.133,4.267c0,1.067,1.067,1.067,1.067,2.133v1.067c0,0,0,1.067,1.067,1.067h1.067c0,0,0-1.067,1.067-1.067
		c1.067,1.067,1.067,1.067,1.067,2.133c0,1.067,0,1.067,0,2.133c0,1.067,1.067,1.067,1.067,2.133c0,1.067,0,2.133,1.067,2.133
		c1.067,1.067,1.067,2.133,1.067,3.2s0,1.067,0,2.133c0,2.133,1.067,3.2,3.2,5.333c0,0,1.067,0,2.133,0V425.6
		c0-2.133-1.067-4.267-3.2-5.333c0,0,0,0-1.067-1.067c0-1.067-1.067-2.133-1.067-3.2s0-1.067,0-2.133h1.067
		c1.067,0,1.067,1.067,1.067,2.133c0,0,0,0,0,1.067c1.067-1.067,2.133,0,2.133,1.067l0,0v1.067h1.067
		c1.067,0,1.067-1.067,2.133-2.133c2.133-2.133,2.133-5.333,0-7.467c1.067-4.267,0-4.267-1.066-5.333s-1.067-2.133,0-2.133
		c1.067-1.067,1.067-1.067,2.133-2.133c0,0,0,1.067,1.067,2.133l0,0c1.067-1.067,3.2-2.133,5.333-2.133c0,0,1.067,0,1.067-1.067
		c1.067-1.067,1.067-2.133,2.133-2.133c0,0,1.067,0,1.067-1.067s0-1.067,1.067-2.133l1.067-1.067c0-2.133-1.067-4.267-1.067-5.333
		s-1.067-2.133-2.133-2.133c-1.067-2.133-1.067-2.133,1.067-3.2l1.067-1.067c0,0,0-1.067-1.067-1.067h-1.067
		c-1.067,1.067-2.133,0-2.133,0v-1.067c0-1.067,1.067-1.067,2.133-2.133c0,0,1.067,0,1.067-1.067c0,1.067,0,2.133,0,3.2
		c1.067,0,1.067-1.067,2.133-1.067h1.067v1.067l0,0c1.067,0,2.133,1.067,2.133,2.133l0,0c1.067,0,1.067,1.067,0,1.067v1.067h1.067
		C511.467,381.867,510.4,379.733,510.4,377.6z"/>
</g>
<g>
</g>
<g>
</g>
<g>
</g>
<g>
</g>
<g>
</g>
<g>
</g>
<g>
</g>
<g>
</g>
<g>
</g>
<g>
</g>
<g>
</g>
<g>
</g>
<g>
</g>
<g>
</g>
<g>
</g>
</svg>
