<?xml version="1.0" encoding="iso-8859-1"?>
<!-- Generator: Adobe Illustrator 19.0.0, SVG Export Plug-In . SVG Version: 6.00 Build 0)  -->
<svg version="1.1" id="Capa_1" xmlns="http://www.w3.org/2000/svg" xmlns:xlink="http://www.w3.org/1999/xlink" x="0px" y="0px"
	 viewBox="0 0 512 512" style="enable-background:new 0 0 512 512;" xml:space="preserve">
<path style="fill:#66C6B9;" d="M392,57.6H121.067c-16,0-28.8,12.8-28.8,28.8v396.8c0,16,12.8,28.8,28.8,28.8h269.867
	c16,0,28.8-12.8,28.8-28.8V86.4C419.733,70.4,406.933,57.6,392,57.6z M293.867,116.267H219.2c-7.467,0-12.8-5.333-12.8-12.8
	s5.333-12.8,12.8-12.8h74.667c7.467,0,12.8,5.333,12.8,12.8S301.333,116.267,293.867,116.267z"/>
<rect x="130.667" y="148.267" style="fill:#FFFFFF;" width="250.667" height="325.333"/>
<rect x="166.933" y="405.333" style="fill:#F3705A;" width="180.267" height="30.933"/>
<g>
	<circle style="fill:#415A6B;" cx="256.533" cy="224" r="44.8"/>
	<path style="fill:#415A6B;" d="M346.133,370.133h-179.2c0-49.067,40.533-89.6,89.6-89.6S346.133,321.067,346.133,370.133z"/>
	<rect x="219.2" style="fill:#415A6B;" width="74.667" height="103.467"/>
</g>
<g>
</g>
<g>
</g>
<g>
</g>
<g>
</g>
<g>
</g>
<g>
</g>
<g>
</g>
<g>
</g>
<g>
</g>
<g>
</g>
<g>
</g>
<g>
</g>
<g>
</g>
<g>
</g>
<g>
</g>
</svg>
