<?xml version="1.0" encoding="iso-8859-1"?>
<!-- Generator: Adobe Illustrator 19.0.0, SVG Export Plug-In . SVG Version: 6.00 Build 0)  -->
<svg version="1.1" id="Capa_1" xmlns="http://www.w3.org/2000/svg" xmlns:xlink="http://www.w3.org/1999/xlink" x="0px" y="0px"
	 viewBox="0 0 512 512" style="enable-background:new 0 0 512 512;" xml:space="preserve">
<path style="fill:#CED6E0;" d="M460.8,28.8v397.867c0,16-12.8,28.8-28.8,28.8H136.533c-16,0-28.8-12.8-28.8-28.8V28.8
	c0-16,12.8-28.8,28.8-28.8H432C448,0,460.8,12.8,460.8,28.8z"/>
<path style="fill:#E8EAE9;" d="M375.467,56.533H169.6l-118.4,118.4V483.2c0,16,12.8,28.8,28.8,28.8h295.467
	c16,0,28.8-12.8,28.8-28.8V85.333C403.2,69.333,390.4,56.533,375.467,56.533z"/>
<g>
	<rect x="89.6" y="445.867" style="fill:#ADB3BA;" width="276.267" height="27.733"/>
	<rect x="89.6" y="370.133" style="fill:#ADB3BA;" width="276.267" height="27.733"/>
	<rect x="89.6" y="293.333" style="fill:#ADB3BA;" width="276.267" height="27.733"/>
	<rect x="89.6" y="217.6" style="fill:#ADB3BA;" width="117.333" height="27.733"/>
	<path style="fill:#ADB3BA;" d="M51.2,174.933h89.6c16,0,28.8-12.8,28.8-28.8v-89.6L51.2,174.933z"/>
</g>
<g>
	<circle style="fill:#66C6B9;" cx="301.867" cy="144" r="29.867"/>
	<path style="fill:#66C6B9;" d="M365.867,245.333H238.933c0-35.2,28.8-62.933,62.933-62.933S365.867,210.133,365.867,245.333z"/>
</g>
<rect x="273.067" y="114.133" style="fill:#344A5E;" width="59.733" height="28.8"/>
<g>
	<polygon style="fill:#415A6B;" points="353.067,115.2 301.867,136.533 251.733,115.2 301.867,94.933 	"/>
	<path style="fill:#415A6B;" d="M344.533,145.067L344.533,145.067c-1.067,0-2.133-1.067-2.133-2.133v-25.6
		c0-1.067,1.067-2.133,2.133-2.133l0,0c1.067,0,2.133,1.067,2.133,2.133v24.533C346.667,144,345.6,145.067,344.533,145.067z"/>
</g>
<polygon style="fill:#F3705A;" points="103.467,403.2 103.467,512 140.8,474.667 178.133,512 178.133,403.2 "/>
<circle style="fill:#F7B64C;" cx="140.8" cy="343.467" r="89.6"/>
<circle style="fill:#FFD15C;" cx="140.8" cy="343.467" r="53.333"/>
<g>
</g>
<g>
</g>
<g>
</g>
<g>
</g>
<g>
</g>
<g>
</g>
<g>
</g>
<g>
</g>
<g>
</g>
<g>
</g>
<g>
</g>
<g>
</g>
<g>
</g>
<g>
</g>
<g>
</g>
</svg>
