<?xml version="1.0" encoding="iso-8859-1"?>
<!-- Generator: Adobe Illustrator 19.0.0, SVG Export Plug-In . SVG Version: 6.00 Build 0)  -->
<svg version="1.1" id="Capa_1" xmlns="http://www.w3.org/2000/svg" xmlns:xlink="http://www.w3.org/1999/xlink" x="0px" y="0px"
	 viewBox="0 0 512 512" style="enable-background:new 0 0 512 512;" xml:space="preserve">
<path style="fill:#FFD15C;" d="M308.267,198.4c0,0-6.4,20.267-10.667,23.467c-3.2,3.2,1.067,5.333,1.067,5.333
	s16,2.133,21.333,1.067c5.333-1.067,10.667-5.333,17.067-1.067c7.467,3.2,18.133,18.133,10.667,30.933c0,0,8.533,3.2,8.533,13.867
	c0,10.667-1.067,16-5.333,18.133c0,0,2.133,8.533,1.067,12.8c-1.067,4.267-3.2,5.333-2.133,9.6c0,3.2,0,9.6-2.133,16
	c-2.133,6.4-8.533,16-17.067,19.2s-40.533,4.267-55.467,0c0,0-8.533,3.2-19.2,3.2c-10.667,0-53.333,7.467-69.333,12.8l-12.8-77.867
	c0,0,46.933-8.533,55.467-9.6c7.467-1.067,13.867-5.333,17.067-12.8c3.2-7.467,11.733-37.333,21.333-46.933
	c9.6-8.533,24.533-28.8,24.533-39.467l1.067-19.2C313.6,157.867,315.733,176,308.267,198.4z"/>
<path style="fill:#E8EAE9;" d="M292.267,156.8L291.2,176C305.067,173.867,292.267,156.8,292.267,156.8z"/>
<rect x="183.415" y="307.943" transform="matrix(0.1299 0.9915 -0.9915 0.1299 517.3909 49.7537)" style="fill:#F3F3F3;" width="93.864" height="23.466"/>
<rect x="112.615" y="267.318" transform="matrix(0.1299 0.9915 -0.9915 0.1299 473.1683 120.2291)" style="fill:#415A6B;" width="110.93" height="124.797"/>
<circle style="fill:#344A5E;" cx="204.8" cy="357.333" r="11.733"/>
<path style="fill:#F3705A;" d="M512,289.067v-66.133l-68.267-19.2C439.467,188.8,433.067,173.867,425.6,160l35.2-61.867
	L413.867,51.2L352,86.4c-13.867-7.467-27.733-13.867-43.733-18.133L289.067,0h-66.133l-19.2,68.267
	C188.8,72.533,173.867,78.933,160,86.4L98.133,51.2L51.2,98.133L86.4,160c-7.467,13.867-13.867,27.733-18.133,43.733L0,222.933
	v66.133l68.267,19.2C72.533,323.2,78.933,338.133,86.4,352l-35.2,61.867L98.133,460.8L160,425.6
	c13.867,7.467,27.733,13.867,43.733,18.133l19.2,68.267h66.133l19.2-68.267C323.2,439.467,338.133,433.067,352,425.6l61.867,35.2
	l46.933-46.933L425.6,352c7.467-13.867,13.867-27.733,18.133-43.733L512,289.067z M256,384c-70.4,0-128-57.6-128-128
	s57.6-128,128-128s128,57.6,128,128S326.4,384,256,384z"/>
<path style="fill:#F05540;" d="M256,97.067c-87.467,0-158.933,71.467-158.933,158.933S168.533,414.933,256,414.933
	S414.933,343.467,414.933,256S343.467,97.067,256,97.067z M256,384c-70.4,0-128-57.6-128-128s57.6-128,128-128s128,57.6,128,128
	S326.4,384,256,384z"/>
<g>
</g>
<g>
</g>
<g>
</g>
<g>
</g>
<g>
</g>
<g>
</g>
<g>
</g>
<g>
</g>
<g>
</g>
<g>
</g>
<g>
</g>
<g>
</g>
<g>
</g>
<g>
</g>
<g>
</g>
</svg>
