<?xml version="1.0" encoding="iso-8859-1"?>
<!-- Generator: Adobe Illustrator 19.0.0, SVG Export Plug-In . SVG Version: 6.00 Build 0)  -->
<svg version="1.1" id="Capa_1" xmlns="http://www.w3.org/2000/svg" xmlns:xlink="http://www.w3.org/1999/xlink" x="0px" y="0px"
	 viewBox="0 0 512 512" style="enable-background:new 0 0 512 512;" xml:space="preserve">
<path style="fill:#66C6B9;" d="M468.267,489.6l21.333-21.333l-13.867-24.533c4.267-6.4,6.4-13.867,8.533-20.267L512,414.933V384
	l-27.733-7.467c-2.133-7.467-5.333-13.867-8.533-20.267l13.867-24.533L468.267,310.4l-24.533,13.867
	c-6.4-4.267-13.867-6.4-20.267-8.533L414.933,288H384l-7.467,27.733c-7.467,2.133-13.867,5.333-20.267,8.533l-25.6-14.933
	l-21.333,21.333L323.2,355.2c-4.267,6.4-6.4,13.867-8.533,20.267L286.933,384v30.933l27.733,7.467
	c2.133,7.467,5.333,13.867,8.533,20.267l-13.867,25.6l21.333,21.333l24.533-13.867c6.4,4.267,13.867,6.4,20.267,8.533L384,512
	h30.933l7.467-27.733c7.467-2.133,13.867-5.333,20.267-8.533L468.267,489.6z M377.6,421.333c-11.733-11.733-11.733-32,0-43.733
	c11.733-11.733,32-11.733,43.733,0c11.733,11.733,11.733,32,0,43.733S389.333,433.067,377.6,421.333z"/>
<path style="fill:#4ABAA5;" d="M440.533,440.533c22.4-22.4,22.4-59.733,0-82.133c-22.4-22.4-59.733-22.4-82.133,0
	c-22.4,22.4-22.4,59.733,0,82.133C380.8,462.933,418.133,462.933,440.533,440.533z M377.6,377.6c11.733-11.733,32-11.733,43.733,0
	c11.733,11.733,11.733,32,0,43.733s-32,11.733-43.733,0C365.867,409.6,365.867,389.333,377.6,377.6z"/>
<path style="fill:#F3705A;" d="M311.467,181.333H265.6c-1.067-6.4-3.2-13.867-5.333-20.267c-7.467-18.133-22.4-32-41.6-39.467
	c-5.333-2.133-11.733-3.2-18.133-4.267V70.4c0-5.333-4.267-9.6-9.6-9.6c-5.333,0-9.6,4.267-9.6,9.6v46.933
	c-6.4,1.067-13.867,3.2-20.267,5.333c-18.133,7.467-32,22.4-39.467,41.6c-2.133,5.333-4.267,11.733-4.267,17.067H70.4
	c-5.333,0-9.6,4.267-9.6,9.6s4.267,9.6,9.6,9.6h46.933c1.067,7.467,3.2,13.867,5.333,20.267
	c10.667,24.533,34.133,40.533,58.667,43.733V310.4c0,5.333,4.267,9.6,9.6,9.6s9.6-4.267,9.6-9.6v-45.867
	c6.4-1.067,13.867-2.133,20.267-5.333l0,0c18.133-7.467,32-22.4,39.467-41.6c2.133-5.333,3.2-11.733,4.267-18.133H310.4
	c5.333,0,9.6-4.267,9.6-9.6C320,184.533,316.8,181.333,311.467,181.333z M243.2,211.2c-5.333,13.867-16,24.533-29.867,30.933
	c-4.267,2.133-8.533,3.2-12.8,3.2v-19.2c0-5.333-4.267-9.6-9.6-9.6s-9.6,4.267-9.6,9.6v19.2c-18.133-3.2-34.133-14.933-41.6-32
	c-2.133-4.267-3.2-8.533-3.2-12.8h19.2c5.333,0,9.6-4.267,9.6-9.6c0-5.333-4.267-9.6-9.6-9.6h-19.2
	c1.067-3.2,2.133-7.467,3.2-10.667c5.333-13.867,16-24.533,29.867-30.933c4.267-2.133,8.533-3.2,12.8-3.2v19.2
	c0,5.333,4.267,9.6,9.6,9.6c5.333,0,9.6-4.267,9.6-9.6v-19.2c3.2,1.067,7.467,1.067,10.667,3.2
	c13.867,5.333,24.533,16,30.933,29.867c2.133,4.267,3.2,8.533,3.2,12.8h-19.2c-5.333,0-9.6,4.267-9.6,9.6c0,5.333,4.267,9.6,9.6,9.6
	h20.267C245.333,203.733,244.267,208,243.2,211.2z"/>
<path style="fill:#415A6B;" d="M362.667,286.933l19.2-49.067L342.4,208c1.067-12.8,1.067-25.6-1.067-38.4l37.333-32l-21.333-49.067
	l-48,6.4c-8.533-9.6-17.067-19.2-27.733-26.667l4.267-49.067L236.8,0l-29.867,39.467c-12.8-1.067-25.6-1.067-38.4,1.067l-32-37.333
	L87.467,24.533l6.4,48C85.333,80,75.733,89.6,68.267,100.267L19.2,96L0,145.067l39.467,29.867c-1.067,12.8-1.067,25.6,1.067,38.4
	l-37.333,32L24.533,294.4l48-6.4c8.533,9.6,17.067,19.2,27.733,26.667l-4.267,48l49.067,19.2l29.867-39.467
	c12.8,1.067,25.6,1.067,38.4-1.067l32,37.333l49.067-21.333l-6.4-48c9.6-8.533,19.2-17.067,26.667-27.733L362.667,286.933z
	 M149.333,296.533c-57.6-22.4-86.4-88.533-64-147.2s88.533-87.467,147.2-64s87.467,88.533,64,147.2
	C274.133,291.2,208,320,149.333,296.533z"/>
<g>
</g>
<g>
</g>
<g>
</g>
<g>
</g>
<g>
</g>
<g>
</g>
<g>
</g>
<g>
</g>
<g>
</g>
<g>
</g>
<g>
</g>
<g>
</g>
<g>
</g>
<g>
</g>
<g>
</g>
</svg>
