<?xml version="1.0" encoding="iso-8859-1"?>
<!-- Generator: Adobe Illustrator 19.0.0, SVG Export Plug-In . SVG Version: 6.00 Build 0)  -->
<svg version="1.1" id="Capa_1" xmlns="http://www.w3.org/2000/svg" xmlns:xlink="http://www.w3.org/1999/xlink" x="0px" y="0px"
	 viewBox="0 0 512.774 512.774" style="enable-background:new 0 0 512.774 512.774;" xml:space="preserve">
<path style="fill:#66C6B9;" d="M358.107,302.044c-23.467,0-66.133,66.133-66.133,66.133c-10.667,10.667-28.8,12.8-50.133,6.4
	c-20.267-6.4-43.733-20.267-64-40.533c-40.533-40.533-56.533-91.733-34.133-114.133c0,0,66.133-42.667,66.133-66.133
	c0-54.4-99.2-153.6-154.667-153.6c-8.533,0-24.533,25.6-24.533,25.6c-67.2,67.2-20.267,224,105.6,349.867
	c62.933,62.933,133.333,106.667,197.333,125.867c62.933,19.2,119.467,13.867,152.533-19.2c0,0,25.6-16,25.6-25.6
	C511.707,401.244,412.507,302.044,358.107,302.044z"/>
<g>
	<path style="fill:#E8EAE9;" d="M329.307,320.178c60.8,51.2,114.133,104.533,160,160c6.4-4.267,23.467-16,23.467-23.467
		c0-54.4-99.2-153.6-153.6-153.6C349.574,302.044,338.907,310.578,329.307,320.178z"/>
	<path style="fill:#E8EAE9;" d="M191.707,182.578c10.667-10.667,18.133-20.267,18.133-28.8c0-54.4-99.2-153.6-154.667-153.6
		c-6.4,0-19.2,17.067-23.467,23.467C83.974,66.311,137.307,119.644,191.707,182.578z"/>
</g>
<path style="fill:#415A6B;" d="M511.707,81.244V60.978l-20.267-6.4c-1.067-2.133-2.133-5.333-3.2-7.467l9.6-19.2l-13.867-13.867
	l-19.2,9.6c-1.067-1.067-4.267-2.133-6.4-3.2l-6.4-20.267h-20.267l-6.4,20.267c-2.133,1.067-5.333,2.133-7.467,3.2l-19.2-9.6
	l-13.867,13.867l9.6,18.133c-1.067,2.133-2.133,5.333-3.2,7.467l-20.267,6.4v20.267l20.267,6.4c1.067,2.133,2.133,5.333,3.2,7.467
	l-10.667,19.2l13.867,13.867l19.2-9.6c2.133,1.067,5.333,2.133,7.467,3.2l6.4,20.267h20.267l6.4-20.267
	c2.133-1.067,5.333-2.133,7.467-3.2l19.2,9.6l13.867-13.867l-9.6-19.2c1.067-2.133,2.133-5.333,3.2-7.467L511.707,81.244z
	 M453.04,70.578c0,6.4-5.333,11.733-11.733,11.733c-6.4,0-11.733-5.333-11.733-11.733c0-6.4,5.333-11.733,11.733-11.733
	C447.707,58.844,453.04,64.178,453.04,70.578z"/>
<path style="fill:#344A5E;" d="M441.307,38.578c-18.133,0-32,13.867-32,32s14.933,32,32,32c18.133,0,32-13.867,32-32
	C473.307,53.511,459.44,38.578,441.307,38.578z M441.307,82.311c-6.4,0-11.733-5.333-11.733-11.733
	c0-6.4,5.333-11.733,11.733-11.733c6.4,0,11.733,5.333,11.733,11.733C453.04,76.978,447.707,82.311,441.307,82.311z"/>
<path style="fill:#FFD15C;" d="M410.374,240.178l10.667-26.667l-23.467-19.2c0-4.267,0-7.467,0-11.733l23.467-20.267l-11.733-26.667
	l-29.867,3.2c-2.133-3.2-5.333-5.333-8.533-7.467l2.133-29.867l-26.667-10.667l-19.2,23.467c-4.267,0-7.467,0-11.733,0
	l-20.267-23.467l-26.667,11.733l3.2,29.867c-3.2,2.133-5.333,5.333-7.467,8.533l-29.867-2.133l-10.667,26.667l23.467,19.2
	c0,4.267,0,7.467,0,11.733l-23.467,20.267l11.733,26.667l29.867-3.2c2.133,3.2,5.333,5.333,8.533,7.467l-2.133,29.867l26.667,10.667
	l19.2-23.467c4.267,0,7.467,0,11.733,0l20.267,23.467l26.667-11.733l-3.2-29.867c3.2-2.133,5.333-5.333,7.467-8.533L410.374,240.178
	z M346.374,198.578c-5.333,12.8-20.267,20.267-33.067,14.933s-20.267-20.267-14.933-33.067c5.333-12.8,20.267-19.2,33.067-14.933
	C345.307,170.844,351.707,185.778,346.374,198.578z"/>
<path style="fill:#F7B64C;" d="M371.974,209.244c10.667-27.733-3.2-57.6-29.867-69.333c-27.733-10.667-58.667,3.2-69.333,29.867
	c-10.667,27.733,3.2,58.667,29.867,69.333C330.374,249.778,361.307,236.978,371.974,209.244z M298.374,180.444
	c5.333-12.8,20.267-19.2,33.067-14.933c12.8,5.333,20.267,20.267,14.933,33.067c-5.333,12.8-20.267,20.267-33.067,14.933
	C299.44,208.178,293.04,193.244,298.374,180.444z"/>
<g>
</g>
<g>
</g>
<g>
</g>
<g>
</g>
<g>
</g>
<g>
</g>
<g>
</g>
<g>
</g>
<g>
</g>
<g>
</g>
<g>
</g>
<g>
</g>
<g>
</g>
<g>
</g>
<g>
</g>
</svg>
